<?xml version="1.0" encoding="utf-8"?>
<!-- Generator: Adobe Illustrator 17.0.0, SVG Export Plug-In . SVG Version: 6.00 Build 0)  -->
<!DOCTYPE svg PUBLIC "-//W3C//DTD SVG 1.1//EN" "http://www.w3.org/Graphics/SVG/1.1/DTD/svg11.dtd">
<svg version="1.1" id="Layer_1" xmlns="http://www.w3.org/2000/svg" xmlns:xlink="http://www.w3.org/1999/xlink" x="0px" y="0px"
	 width="640px" height="462.809px" viewBox="0 0 640 462.809" enable-background="new 0 0 640 462.809" xml:space="preserve">
<path fill="#4C4C4C" d="M124.449,444.948c-18.868,0.547-35.213,1.906-35.213,1.906s-16.913,3.331-5.061,5.061h38.875"/>
<path fill="#4C4C4C" d="M138.749,451.915h39.27c0,0,11.434-0.27-8.885-5.061c-7.311-1.724-19.188-2.423-32.06-2.336"/>
<path fill="#9190C0" d="M389.217,352.775c0,0-2.911-32.902,14.557-34.887s29.286,3.687,25.959,34.887H389.217z"/>
<ellipse fill="#9190C0" cx="407.994" cy="297.879" rx="17.884" ry="17.416"/>
<path fill="#9190C0" d="M344.609,353.69c0,0-2.911-32.902,14.557-34.887c17.468-1.985,29.286,3.687,25.959,34.887H344.609z"/>
<ellipse fill="#9190C0" cx="363.386" cy="298.793" rx="17.884" ry="17.416"/>
<path fill="#9190C0" d="M298.992,354.147c0,0-2.911-32.902,14.557-34.887s29.286,3.687,25.959,34.887H298.992z"/>
<ellipse fill="#9190C0" cx="317.769" cy="299.251" rx="17.884" ry="17.416"/>
<path fill="#9190C0" d="M255.556,355.062c0,0-2.911-32.902,14.557-34.887c17.468-1.985,29.286,3.687,25.959,34.887H255.556z"/>
<ellipse fill="#9190C0" cx="274.334" cy="300.165" rx="17.884" ry="17.416"/>
<path fill="#9190C0" d="M479.797,353.28c0,0-2.911-32.902,14.557-34.887c17.468-1.985,29.286,3.687,25.959,34.887H479.797z"/>
<ellipse fill="#9190C0" cx="498.574" cy="298.383" rx="17.884" ry="17.416"/>
<path fill="#9190C0" d="M436.361,354.194c0,0-2.911-32.902,14.557-34.887s29.286,3.687,25.959,34.887H436.361z"/>
<polygon fill="#745F3F" points="249.921,349.417 533.241,349.417 537.997,393 240.074,393 "/>
<ellipse fill="#9190C0" cx="455.139" cy="299.298" rx="17.884" ry="17.416"/>
<g>
	<g>
		<path fill="#C73A22" d="M262.952,146.161c0,2.831-0.702,5.007-2.106,6.527c-1.404,1.521-3.416,2.281-6.036,2.281
			c-2.62,0-4.632-0.76-6.036-2.281c-1.404-1.521-2.106-3.704-2.106-6.551c0-2.846,0.704-5.02,2.112-6.521
			c1.407-1.501,3.425-2.252,6.053-2.252c2.628,0,4.638,0.757,6.03,2.269C262.256,141.147,262.952,143.323,262.952,146.161z
			 M250.471,146.161c0,1.911,0.363,3.35,1.088,4.316c0.725,0.967,1.809,1.451,3.252,1.451c2.893,0,4.34-1.922,4.34-5.767
			c0-3.852-1.439-5.779-4.316-5.779c-1.443,0-2.531,0.485-3.264,1.457C250.837,142.81,250.471,144.251,250.471,146.161z"/>
		<path fill="#C73A22" d="M276.252,137.634h3.661l-5.814,17.102h-3.954l-5.802-17.102h3.661l3.217,10.177
			c0.179,0.601,0.365,1.3,0.556,2.1c0.191,0.799,0.31,1.355,0.357,1.667c0.086-0.717,0.378-1.973,0.877-3.767L276.252,137.634z"/>
		<path fill="#C73A22" d="M291.915,154.736h-9.849v-17.102h9.849v2.971h-6.223v3.755h5.79v2.971h-5.79v4.41h6.223V154.736z"/>
		<path fill="#C73A22" d="M299.109,148.173v6.562h-3.626v-17.102h4.983c2.324,0,4.043,0.423,5.159,1.269
			c1.115,0.846,1.673,2.131,1.673,3.855c0,1.006-0.277,1.901-0.831,2.685c-0.554,0.783-1.338,1.398-2.351,1.842
			c2.573,3.845,4.25,6.328,5.03,7.451h-4.024l-4.082-6.562H299.109z M299.109,145.226h1.17c1.146,0,1.992-0.191,2.538-0.573
			c0.546-0.382,0.819-0.983,0.819-1.801c0-0.811-0.279-1.388-0.836-1.731c-0.558-0.343-1.422-0.515-2.591-0.515h-1.1V145.226z"/>
		<path fill="#C73A22" d="M325.265,154.736h-3.615v-9.896l0.035-1.626l0.059-1.778c-0.601,0.601-1.018,0.994-1.252,1.181
			l-1.965,1.579l-1.743-2.176l5.51-4.387h2.971V154.736z"/>
		<path fill="#C73A22" d="M337.418,154.736v-17.102h3.626v17.102H337.418z"/>
		<path fill="#C73A22" d="M360.52,154.736h-4.608l-7.44-12.937h-0.106c0.148,2.285,0.223,3.915,0.223,4.89v8.048h-3.241v-17.102
			h4.574l7.427,12.809h0.081c-0.116-2.223-0.175-3.794-0.175-4.714v-8.095h3.263V154.736z"/>
		<path fill="#C73A22" d="M371.552,154.736l6.421-14.037h-8.433v-3.041h12.27v2.269l-6.468,14.809H371.552z"/>
		<path fill="#C73A22" d="M407.602,154.736h-4.129l-2.317-8.984c-0.085-0.32-0.232-0.981-0.438-1.983
			c-0.207-1.002-0.326-1.674-0.357-2.018c-0.047,0.421-0.163,1.098-0.35,2.03c-0.187,0.932-0.332,1.596-0.433,1.994l-2.305,8.96
			h-4.118l-4.363-17.102h3.567l2.188,9.335c0.382,1.724,0.659,3.217,0.831,4.48c0.047-0.445,0.153-1.133,0.321-2.065
			c0.168-0.932,0.326-1.655,0.474-2.17l2.491-9.58h3.427l2.492,9.58c0.109,0.429,0.246,1.084,0.409,1.965
			c0.165,0.882,0.289,1.638,0.374,2.269c0.079-0.608,0.203-1.367,0.374-2.275c0.172-0.908,0.328-1.643,0.468-2.205l2.177-9.335
			h3.567L407.602,154.736z"/>
		<path fill="#C73A22" d="M429.629,146.161c0,2.831-0.702,5.007-2.106,6.527c-1.404,1.521-3.416,2.281-6.036,2.281
			c-2.62,0-4.632-0.76-6.036-2.281c-1.404-1.521-2.106-3.704-2.106-6.551c0-2.846,0.703-5.02,2.111-6.521
			c1.407-1.501,3.425-2.252,6.053-2.252c2.629,0,4.639,0.757,6.03,2.269C428.933,141.147,429.629,143.323,429.629,146.161z
			 M417.148,146.161c0,1.911,0.363,3.35,1.087,4.316c0.726,0.967,1.81,1.451,3.253,1.451c2.893,0,4.339-1.922,4.339-5.767
			c0-3.852-1.438-5.779-4.317-5.779c-1.442,0-2.53,0.485-3.263,1.457C417.515,142.81,417.148,144.251,417.148,146.161z"/>
		<path fill="#C73A22" d="M436.8,148.173v6.562h-3.626v-17.102h4.983c2.324,0,4.044,0.423,5.159,1.269
			c1.115,0.846,1.672,2.131,1.672,3.855c0,1.006-0.277,1.901-0.83,2.685c-0.554,0.783-1.338,1.398-2.352,1.842
			c2.573,3.845,4.25,6.328,5.03,7.451h-4.024l-4.082-6.562H436.8z M436.8,145.226h1.17c1.146,0,1.992-0.191,2.539-0.573
			c0.546-0.382,0.818-0.983,0.818-1.801c0-0.811-0.279-1.388-0.836-1.731c-0.558-0.343-1.422-0.515-2.591-0.515h-1.1V145.226z"/>
		<path fill="#C73A22" d="M462.745,154.736h-4.118l-4.481-7.206l-1.532,1.1v6.106h-3.626v-17.102h3.626v7.826l1.427-2.012
			l4.632-5.814h4.024l-5.966,7.568L462.745,154.736z"/>
		<path fill="#C73A22" d="M474.746,154.736h-9.849v-17.102h9.849v2.971h-6.223v3.755h5.79v2.971h-5.79v4.41h6.223V154.736z"/>
		<path fill="#C73A22" d="M481.94,148.173v6.562h-3.626v-17.102h4.983c2.324,0,4.044,0.423,5.159,1.269
			c1.115,0.846,1.672,2.131,1.672,3.855c0,1.006-0.277,1.901-0.83,2.685c-0.554,0.783-1.338,1.398-2.352,1.842
			c2.573,3.845,4.25,6.328,5.03,7.451h-4.024l-4.082-6.562H481.94z M481.94,145.226h1.17c1.146,0,1.992-0.191,2.539-0.573
			c0.546-0.382,0.818-0.983,0.818-1.801c0-0.811-0.279-1.388-0.836-1.731c-0.558-0.343-1.422-0.515-2.591-0.515h-1.1V145.226z"/>
		<path fill="#C73A22" d="M504.224,149.986c0,1.544-0.556,2.761-1.668,3.65c-1.111,0.889-2.657,1.334-4.638,1.334
			c-1.825,0-3.439-0.343-4.843-1.029v-3.369c1.154,0.515,2.131,0.877,2.93,1.088c0.799,0.211,1.531,0.316,2.194,0.316
			c0.795,0,1.406-0.152,1.83-0.456c0.425-0.304,0.638-0.756,0.638-1.357c0-0.335-0.094-0.634-0.281-0.895
			c-0.187-0.261-0.462-0.512-0.825-0.754c-0.362-0.241-1.101-0.627-2.216-1.158c-1.045-0.491-1.829-0.963-2.352-1.415
			c-0.522-0.452-0.94-0.978-1.251-1.579c-0.313-0.6-0.468-1.302-0.468-2.106c0-1.513,0.512-2.702,1.538-3.568
			c1.026-0.866,2.443-1.298,4.252-1.298c0.889,0,1.737,0.105,2.544,0.316c0.807,0.211,1.651,0.507,2.532,0.889l-1.17,2.819
			c-0.912-0.374-1.667-0.635-2.264-0.784c-0.596-0.148-1.183-0.222-1.76-0.222c-0.686,0-1.213,0.16-1.58,0.48
			c-0.366,0.32-0.549,0.737-0.549,1.252c0,0.32,0.074,0.598,0.222,0.836c0.149,0.238,0.385,0.468,0.708,0.691
			c0.323,0.222,1.089,0.622,2.298,1.199c1.598,0.765,2.694,1.531,3.287,2.298C503.928,147.93,504.224,148.871,504.224,149.986z"/>
		<path fill="#C73A22" d="M513.547,154.736v-17.102h3.626v17.102H513.547z"/>
		<path fill="#C73A22" d="M536.649,154.736h-4.608l-7.44-12.937h-0.106c0.148,2.285,0.222,3.915,0.222,4.89v8.048h-3.24v-17.102
			h4.574l7.427,12.809h0.081c-0.116-2.223-0.175-3.794-0.175-4.714v-8.095h3.263V154.736z"/>
		<path fill="#C73A22" d="M254.027,183.484H250.4V169.4h-4.644v-3.018h12.914v3.018h-4.644V183.484z"/>
		<path fill="#C73A22" d="M275.316,183.484h-3.615v-7.381h-6.773v7.381h-3.626v-17.102h3.626v6.703h6.773v-6.703h3.615V183.484z"/>
		<path fill="#C73A22" d="M289.482,183.484h-9.849v-17.102h9.849v2.971h-6.223v3.755h5.79v2.971h-5.79v4.41h6.223V183.484z"/>
		<path fill="#C73A22" d="M313.193,166.382v11.066c0,1.263-0.283,2.371-0.848,3.322c-0.566,0.952-1.383,1.681-2.451,2.187
			c-1.069,0.507-2.332,0.76-3.79,0.76c-2.199,0-3.907-0.563-5.124-1.69c-1.217-1.127-1.825-2.669-1.825-4.627v-11.019h3.615v10.469
			c0,1.318,0.265,2.285,0.795,2.901c0.53,0.616,1.407,0.924,2.632,0.924c1.185,0,2.045-0.31,2.579-0.93
			c0.534-0.62,0.802-1.592,0.802-2.918v-10.446H313.193z"/>
		<path fill="#C73A22" d="M316.597,181.811c0-0.655,0.175-1.15,0.526-1.486c0.351-0.335,0.861-0.503,1.532-0.503
			c0.647,0,1.148,0.172,1.503,0.515c0.355,0.343,0.532,0.835,0.532,1.474c0,0.616-0.18,1.101-0.538,1.457
			c-0.359,0.355-0.858,0.532-1.497,0.532c-0.655,0-1.162-0.174-1.521-0.521C316.776,182.932,316.597,182.443,316.597,181.811z"/>
		<path fill="#C73A22" d="M334.307,178.734c0,1.544-0.555,2.761-1.667,3.65c-1.111,0.889-2.658,1.334-4.638,1.334
			c-1.825,0-3.439-0.343-4.843-1.029v-3.369c1.154,0.515,2.131,0.877,2.93,1.088c0.799,0.211,1.53,0.316,2.194,0.316
			c0.795,0,1.406-0.152,1.83-0.456c0.425-0.304,0.637-0.756,0.637-1.357c0-0.335-0.094-0.634-0.281-0.895
			c-0.187-0.261-0.461-0.512-0.824-0.754c-0.362-0.241-1.101-0.627-2.217-1.158c-1.045-0.491-1.829-0.963-2.351-1.415
			c-0.523-0.452-0.94-0.978-1.252-1.579c-0.312-0.6-0.468-1.302-0.468-2.106c0-1.513,0.513-2.702,1.538-3.568
			c1.026-0.866,2.442-1.298,4.252-1.298c0.889,0,1.737,0.105,2.544,0.316c0.807,0.211,1.651,0.507,2.532,0.889l-1.17,2.819
			c-0.912-0.374-1.667-0.635-2.264-0.784c-0.596-0.148-1.184-0.222-1.76-0.222c-0.687,0-1.213,0.16-1.58,0.48
			c-0.367,0.32-0.549,0.737-0.549,1.252c0,0.32,0.074,0.598,0.222,0.836c0.148,0.238,0.385,0.468,0.708,0.691
			c0.323,0.222,1.089,0.622,2.298,1.199c1.598,0.765,2.694,1.531,3.287,2.298C334.01,176.678,334.307,177.619,334.307,178.734z"/>
		<path fill="#C73A22" d="M336.623,181.811c0-0.655,0.176-1.15,0.527-1.486c0.351-0.335,0.861-0.503,1.532-0.503
			c0.648,0,1.148,0.172,1.504,0.515c0.355,0.343,0.532,0.835,0.532,1.474c0,0.616-0.18,1.101-0.538,1.457
			c-0.358,0.355-0.858,0.532-1.497,0.532c-0.655,0-1.162-0.174-1.521-0.521C336.802,182.932,336.623,182.443,336.623,181.811z"/>
		<path fill="#C73A22" d="M360.93,183.484l-1.241-4.071h-6.234l-1.239,4.071h-3.907l6.035-17.172h4.434l6.058,17.172H360.93z
			 M358.825,176.371c-1.147-3.688-1.791-5.774-1.935-6.258c-0.146-0.483-0.249-0.866-0.311-1.146
			c-0.258,0.999-0.994,3.467-2.21,7.405H358.825z"/>
		<path fill="#C73A22" d="M370.616,176.921v6.562h-3.626v-17.102h4.983c2.324,0,4.044,0.423,5.159,1.269
			c1.115,0.846,1.672,2.131,1.672,3.855c0,1.006-0.277,1.901-0.83,2.685c-0.554,0.783-1.338,1.398-2.352,1.842
			c2.573,3.845,4.25,6.328,5.03,7.451h-4.024l-4.082-6.562H370.616z M370.616,173.973h1.17c1.146,0,1.992-0.191,2.539-0.573
			c0.546-0.382,0.818-0.983,0.818-1.801c0-0.811-0.279-1.388-0.836-1.731c-0.558-0.343-1.421-0.515-2.591-0.515h-1.1V173.973z"/>
		<path fill="#C73A22" d="M392.654,183.484h-9.849v-17.102h9.849v2.971h-6.223v3.755h5.79v2.971h-5.79v4.41h6.223V183.484z"/>
		<path fill="#C73A22" d="M412.294,183.484h-9.849v-17.102h9.849v2.971h-6.223v3.755h5.79v2.971h-5.79v4.41h6.223V183.484z"/>
		<path fill="#C73A22" d="M423.103,183.484l-4.118-13.417h-0.106c0.148,2.73,0.222,4.55,0.222,5.463v7.954h-3.24v-17.102h4.936
			l4.047,13.078h0.07l4.293-13.078h4.937v17.102h-3.381v-8.095c0-0.382,0.006-0.823,0.018-1.322
			c0.011-0.499,0.064-1.825,0.157-3.977h-0.105l-4.41,13.394H423.103z"/>
		<path fill="#C73A22" d="M450.265,171.716c0,1.841-0.576,3.248-1.726,4.223c-1.15,0.975-2.786,1.462-4.906,1.462h-1.556v6.083
			h-3.626v-17.102h5.463c2.074,0,3.651,0.446,4.731,1.339C449.725,168.614,450.265,169.946,450.265,171.716z M442.077,174.43h1.193
			c1.115,0,1.949-0.22,2.503-0.661c0.554-0.441,0.83-1.082,0.83-1.924c0-0.85-0.232-1.478-0.695-1.883
			c-0.464-0.405-1.191-0.608-2.181-0.608h-1.65V174.43z"/>
		<path fill="#C73A22" d="M453.493,183.484v-17.102h3.626v14.107h6.937v2.995H453.493z"/>
		<path fill="#C73A22" d="M482.551,174.909c0,2.831-0.702,5.007-2.106,6.527c-1.404,1.521-3.416,2.281-6.036,2.281
			c-2.62,0-4.632-0.76-6.036-2.281c-1.404-1.521-2.106-3.704-2.106-6.551c0-2.846,0.703-5.02,2.111-6.521
			c1.407-1.502,3.425-2.252,6.053-2.252c2.629,0,4.639,0.757,6.03,2.269C481.855,169.895,482.551,172.071,482.551,174.909z
			 M470.069,174.909c0,1.911,0.363,3.35,1.087,4.316c0.726,0.967,1.81,1.451,3.253,1.451c2.893,0,4.339-1.922,4.339-5.767
			c0-3.852-1.438-5.779-4.317-5.779c-1.442,0-2.53,0.485-3.263,1.457C470.436,171.558,470.069,172.999,470.069,174.909z"/>
		<path fill="#C73A22" d="M491.418,173.424l3.567-7.042h3.907l-5.674,10.446v6.656h-3.603v-6.539l-5.673-10.563h3.93
			L491.418,173.424z"/>
		<path fill="#C73A22" d="M510.894,183.484h-9.849v-17.102h9.849v2.971h-6.223v3.755h5.79v2.971h-5.79v4.41h6.223V183.484z"/>
		<path fill="#C73A22" d="M528.651,174.769c0,2.815-0.801,4.971-2.403,6.469c-1.603,1.497-3.917,2.246-6.943,2.246h-4.843v-17.102
			h5.37c2.792,0,4.96,0.737,6.504,2.211C527.88,170.067,528.651,172.125,528.651,174.769z M524.885,174.863
			c0-3.673-1.623-5.51-4.866-5.51h-1.931v11.136h1.556C523.138,180.489,524.885,178.614,524.885,174.863z"/>
		<path fill="#C73A22" d="M247.429,195.13h5.322c2.425,0,4.186,0.345,5.281,1.035c1.096,0.691,1.644,1.788,1.644,3.293
			c0,1.022-0.24,1.86-0.719,2.515c-0.48,0.655-1.117,1.049-1.913,1.181v0.117c1.084,0.242,1.866,0.694,2.345,1.357
			c0.48,0.663,0.72,1.544,0.72,2.644c0,1.56-0.563,2.777-1.69,3.65c-1.127,0.874-2.658,1.31-4.592,1.31h-6.399V195.13z
			 M251.056,201.903h2.106c0.983,0,1.694-0.152,2.135-0.456c0.441-0.304,0.661-0.807,0.661-1.509c0-0.655-0.24-1.125-0.719-1.41
			c-0.48-0.284-1.239-0.427-2.275-0.427h-1.907V201.903z M251.056,204.78v4.457h2.363c0.998,0,1.735-0.191,2.211-0.573
			c0.475-0.382,0.714-0.967,0.714-1.755c0-1.419-1.014-2.129-3.041-2.129H251.056z"/>
		<path fill="#C73A22" d="M268.848,202.172l3.568-7.042h3.907l-5.673,10.446v6.656h-3.603v-6.539l-5.673-10.563h3.93
			L268.848,202.172z"/>
		<path fill="#C73A22" d="M291.295,212.232h-3.626v-14.084h-4.644v-3.018h12.914v3.018h-4.644V212.232z"/>
		<path fill="#C73A22" d="M312.585,212.232h-3.615v-7.381h-6.773v7.381h-3.626V195.13h3.626v6.703h6.773v-6.703h3.615V212.232z"/>
		<path fill="#C73A22" d="M326.75,212.232h-9.849V195.13h9.849v2.971h-6.223v3.755h5.79v2.971h-5.79v4.41h6.223V212.232z"/>
		<path fill="#C73A22" d="M340.109,212.232h-3.567V195.13h9.803v2.971h-6.235v4.41h5.802v2.959h-5.802V212.232z"/>
		<path fill="#C73A22" d="M365.212,203.657c0,2.831-0.702,5.007-2.106,6.527s-3.416,2.281-6.036,2.281
			c-2.62,0-4.632-0.76-6.037-2.281c-1.404-1.521-2.106-3.704-2.106-6.551c0-2.846,0.704-5.02,2.112-6.521
			c1.407-1.501,3.425-2.252,6.053-2.252c2.628,0,4.638,0.757,6.03,2.269C364.516,198.643,365.212,200.819,365.212,203.657z
			 M352.731,203.657c0,1.911,0.363,3.35,1.087,4.316c0.726,0.967,1.81,1.45,3.253,1.45c2.892,0,4.338-1.922,4.338-5.767
			c0-3.852-1.437-5.779-4.316-5.779c-1.443,0-2.53,0.485-3.264,1.457C353.098,200.306,352.731,201.747,352.731,203.657z"/>
		<path fill="#C73A22" d="M384.279,203.657c0,2.831-0.702,5.007-2.106,6.527s-3.416,2.281-6.036,2.281
			c-2.62,0-4.632-0.76-6.036-2.281s-2.106-3.704-2.106-6.551c0-2.846,0.703-5.02,2.111-6.521c1.407-1.501,3.425-2.252,6.053-2.252
			c2.629,0,4.639,0.757,6.03,2.269C383.582,198.643,384.279,200.819,384.279,203.657z M371.797,203.657
			c0,1.911,0.363,3.35,1.087,4.316c0.726,0.967,1.81,1.45,3.253,1.45c2.893,0,4.339-1.922,4.339-5.767
			c0-3.852-1.438-5.779-4.317-5.779c-1.442,0-2.53,0.485-3.263,1.457C372.164,200.306,371.797,201.747,371.797,203.657z"/>
		<path fill="#C73A22" d="M402.011,203.517c0,2.815-0.801,4.971-2.403,6.469c-1.603,1.497-3.917,2.246-6.943,2.246h-4.843V195.13
			h5.37c2.792,0,4.96,0.737,6.504,2.211C401.24,198.814,402.011,200.873,402.011,203.517z M398.245,203.61
			c0-3.673-1.623-5.51-4.866-5.51h-1.931v11.136h1.556C396.498,209.237,398.245,207.362,398.245,203.61z"/>
		<path fill="#C73A22" d="M419.043,197.902c-1.364,0-2.421,0.513-3.17,1.538c-0.749,1.026-1.123,2.455-1.123,4.287
			c0,3.813,1.431,5.72,4.293,5.72c1.202,0,2.656-0.3,4.364-0.901v3.041c-1.404,0.585-2.971,0.877-4.702,0.877
			c-2.487,0-4.391-0.754-5.708-2.264c-1.318-1.509-1.976-3.674-1.976-6.498c0-1.778,0.323-3.336,0.97-4.673
			c0.648-1.338,1.577-2.363,2.79-3.077c1.213-0.713,2.634-1.07,4.264-1.07c1.662,0,3.331,0.402,5.007,1.205l-1.17,2.948
			c-0.639-0.304-1.282-0.569-1.93-0.795C420.302,198.015,419.667,197.902,419.043,197.902z"/>
		<path fill="#C73A22" d="M441.058,212.232h-3.615v-7.381h-6.772v7.381h-3.626V195.13h3.626v6.703h6.772v-6.703h3.615V212.232z"/>
		<path fill="#C73A22" d="M455.845,212.232l-1.241-4.071h-6.234l-1.24,4.071h-3.907l6.036-17.172h4.434l6.058,17.172H455.845z
			 M453.74,205.119c-1.147-3.688-1.792-5.774-1.936-6.258c-0.145-0.483-0.248-0.866-0.31-1.146
			c-0.258,0.999-0.995,3.467-2.211,7.405H453.74z"/>
		<path fill="#C73A22" d="M461.903,212.232V195.13h3.626v17.102H461.903z"/>
		<path fill="#C73A22" d="M485.006,212.232h-4.608l-7.44-12.937h-0.106c0.148,2.285,0.222,3.915,0.222,4.89v8.048h-3.24V195.13
			h4.574l7.427,12.809h0.081c-0.116-2.223-0.175-3.794-0.175-4.714v-8.095h3.263V212.232z"/>
	</g>
</g>
<path fill="#C73A22" d="M629.671,58.515c0,4.03-5.148,7.298-11.499,7.298H26.345c-6.351,0-11.499-3.267-11.499-7.298V25.679
	c0-4.03,5.148-7.298,11.499-7.298h591.827c6.351,0,11.499,3.267,11.499,7.298V58.515z"/>
<line fill="none" stroke="#FFFFFF" stroke-width="8" stroke-miterlimit="10" x1="51.078" y1="42.097" x2="593.439" y2="42.097"/>
<circle fill="#D58C84" cx="51.078" cy="42.097" r="10.543"/>
<circle fill="#FFFFFF" cx="360.999" cy="42.097" r="10.543"/>
<circle fill="#FFFFFF" cx="593.439" cy="42.097" r="10.543"/>
<circle fill="#FFFFFF" cx="206.038" cy="42.097" r="10.543"/>
<circle fill="#FFFFFF" cx="515.959" cy="42.097" r="10.543"/>
<line fill="none" stroke="#D58C84" stroke-width="8" stroke-miterlimit="10" x1="51.078" y1="42.097" x2="100.032" y2="42.097"/>
<circle fill="#FFFFFF" cx="283.519" cy="42.097" r="10.543"/>
<circle fill="#FFFFFF" cx="128.558" cy="42.097" r="10.543"/>
<circle fill="#FFFFFF" cx="438.479" cy="42.097" r="10.543"/>
<path fill="#476B6F" d="M206.413,284.133c0,0,4.218,11.997,3.898,13.617c0,0,58.033,5.93,85.222-2.358
	c0,0,1.335-12.721,4.311-14.173c2.975-1.452-93.756-1.246-93.756-1.246L206.413,284.133z"/>
<path fill="#BB9E50" d="M205.884,276.505c0,0,30.631-44.073,95.286-5.612C301.17,270.891,265.437,289.745,205.884,276.505z"/>
<path fill="#BB9E50" d="M211.65,268.18c0,0-9.587-4.277-10.271,3.339c0,0-8.297,2.982-1.335,8.454c0,0-1.351,7.462,19.55,2.488
	c0,0,7.637,14.92,21.895,2.984c0,0,18.434,5.636,22.811-0.663c0,0,24.934,4.811,26.591-3.562c0,0,26.525-1.412,14.257-7.048
	c0,0,7.294-9.071-7.626-7.188"/>
<path fill="#E33B3B" d="M238.173,261.241c0,0-6.206-1.645-8.121,1.302C230.052,262.542,230.673,265.981,238.173,261.241z"/>
<path fill="#E33B3B" d="M243.316,265.196c0,0-0.411,7.222-5.142,5.895C238.173,271.091,234.326,268.586,243.316,265.196z"/>
<path fill="#E33B3B" d="M250.831,264.459c0,0-0.737,9.578,2.948,8.253C253.778,272.712,256.652,270.279,250.831,264.459z"/>
<path fill="#E33B3B" d="M260.557,264.459c0,0,3.684,7.222,6.779,4.863C267.335,269.321,271.02,266.227,260.557,264.459z"/>
<path fill="#E33B3B" d="M266.6,260.782c0,0,7.222,3.381,8.694,0.729C275.294,261.511,275.147,256.076,266.6,260.782z"/>
<path fill="#E33B3B" d="M242.276,256.08c0,0,3.192,6.752,7.097,5.832c0,0,2.083-0.543,1.459-9.041
	C250.831,252.871,246.796,251.559,242.276,256.08z"/>
<path fill="#2AAE58" d="M242.371,256.269c0,0-1.288-0.982,0.267-1.454c0,0-0.801-2.686,1.839-1.555c0,0,0.849-1.601,1.839-0.375
	c0,0,1.932-3.443,2.641-0.756c0,0,1.391-1.423,1.875,0.744C250.831,252.871,245.451,252.339,242.371,256.269z"/>
<path d="M243.87,256.357c-0.032-0.01-0.059-0.002-0.078,0.019c-0.019,0-0.037,0.007-0.052,0.027
	c-0.066,0.086-0.166,0.227-0.088,0.335c0.057,0.081,0.179,0.064,0.26,0.039c0.085-0.029,0.176-0.091,0.193-0.184
	C244.129,256.46,243.968,256.389,243.87,256.357z"/>
<path d="M249.692,259.587c-0.032-0.01-0.059-0.002-0.078,0.019c-0.019,0-0.037,0.007-0.052,0.027
	c-0.066,0.086-0.166,0.227-0.088,0.335c0.057,0.081,0.179,0.064,0.26,0.039c0.085-0.029,0.176-0.091,0.193-0.184
	C249.952,259.69,249.792,259.618,249.692,259.587z"/>
<path d="M247.499,258.881c-0.032-0.01-0.059-0.002-0.078,0.019c-0.019,0-0.037,0.007-0.052,0.027
	c-0.066,0.086-0.166,0.227-0.088,0.335c0.057,0.081,0.179,0.064,0.26,0.039c0.085-0.029,0.176-0.091,0.193-0.184
	C247.76,258.982,247.599,258.911,247.499,258.881z"/>
<path d="M247.966,256.409c-0.032-0.01-0.059-0.002-0.078,0.019c-0.019,0-0.037,0.007-0.052,0.027
	c-0.066,0.086-0.166,0.227-0.088,0.335c0.057,0.081,0.179,0.064,0.26,0.039c0.085-0.029,0.176-0.091,0.193-0.184
	C248.225,256.512,248.064,256.441,247.966,256.409z"/>
<path d="M248.935,257.75c-0.035-0.01-0.066-0.002-0.086,0.022c-0.02,0-0.042,0.008-0.059,0.029c-0.073,0.095-0.184,0.25-0.098,0.37
	c0.064,0.09,0.198,0.073,0.287,0.042c0.095-0.03,0.194-0.1,0.213-0.203C249.222,257.863,249.045,257.784,248.935,257.75z"/>
<path d="M248.918,253.732c-0.032-0.01-0.059-0.002-0.078,0.019c-0.019,0-0.037,0.007-0.052,0.027
	c-0.066,0.086-0.166,0.227-0.088,0.335c0.057,0.081,0.179,0.064,0.26,0.039c0.085-0.029,0.176-0.091,0.193-0.184
	C249.176,253.835,249.018,253.764,248.918,253.732z"/>
<path d="M246.355,256.272c-0.025-0.008-0.047-0.002-0.063,0.015c-0.015,0-0.03,0.005-0.042,0.022
	c-0.054,0.069-0.134,0.183-0.071,0.27c0.047,0.064,0.144,0.052,0.21,0.03c0.069-0.022,0.142-0.073,0.155-0.149
	C246.565,256.355,246.434,256.298,246.355,256.272z"/>
<path d="M246.477,254.683c-0.032-0.01-0.059-0.002-0.078,0.019c-0.019,0-0.037,0.007-0.052,0.027
	c-0.066,0.086-0.166,0.227-0.088,0.335c0.057,0.081,0.179,0.064,0.26,0.039c0.085-0.029,0.176-0.091,0.193-0.184
	C246.735,254.786,246.575,254.715,246.477,254.683z"/>
<path d="M245.02,257.733c-0.027-0.008-0.052-0.002-0.068,0.017c-0.017,0-0.034,0.007-0.047,0.024
	c-0.057,0.074-0.145,0.199-0.078,0.294c0.051,0.071,0.157,0.057,0.228,0.034c0.074-0.025,0.154-0.079,0.169-0.162
	C245.248,257.822,245.106,257.76,245.02,257.733z"/>
<path d="M247.74,260.564c-0.019-0.007-0.035,0-0.047,0.012c-0.012,0-0.024,0.005-0.032,0.017c-0.041,0.052-0.101,0.139-0.054,0.203
	c0.035,0.049,0.108,0.039,0.157,0.024c0.052-0.017,0.106-0.056,0.118-0.112C247.898,260.627,247.8,260.583,247.74,260.564z"/>
<path d="M249.449,255.933c-0.019-0.007-0.035,0-0.047,0.012c-0.012,0-0.024,0.005-0.032,0.017c-0.041,0.052-0.101,0.139-0.054,0.203
	c0.035,0.049,0.108,0.039,0.157,0.024c0.052-0.017,0.106-0.056,0.118-0.112C249.606,255.993,249.509,255.951,249.449,255.933z"/>
<path d="M246.615,258.225c-0.019-0.007-0.035,0-0.047,0.012c-0.012,0-0.024,0.005-0.032,0.017c-0.041,0.052-0.101,0.139-0.054,0.203
	c0.035,0.049,0.108,0.039,0.157,0.024c0.052-0.017,0.106-0.056,0.118-0.112C246.773,258.287,246.676,258.243,246.615,258.225z"/>
<path d="M246.159,259.895c-0.019-0.007-0.035,0-0.047,0.012c-0.012,0-0.024,0.005-0.032,0.017c-0.041,0.052-0.101,0.139-0.054,0.203
	c0.035,0.049,0.108,0.039,0.157,0.024c0.052-0.017,0.106-0.056,0.118-0.112C246.316,259.957,246.218,259.914,246.159,259.895z"/>
<path d="M248.916,261.134c-0.019-0.007-0.035,0-0.047,0.012c-0.012,0-0.024,0.005-0.032,0.017c-0.041,0.052-0.101,0.139-0.054,0.203
	c0.035,0.049,0.108,0.039,0.157,0.024c0.052-0.017,0.106-0.056,0.118-0.112C249.073,261.195,248.977,261.153,248.916,261.134z"/>
<path d="M248.353,254.991c-0.019-0.007-0.035,0-0.047,0.012c-0.012,0-0.024,0.005-0.032,0.017c-0.041,0.052-0.101,0.139-0.054,0.203
	c0.035,0.049,0.108,0.039,0.157,0.024c0.052-0.017,0.106-0.056,0.117-0.112C248.51,255.053,248.412,255.01,248.353,254.991z"/>
<path fill="#E33B3B" d="M255.002,252.854c0,0-3.2,6.747-0.015,9.186c0,0,1.739,1.266,7.918-4.601
	C262.905,257.439,261.363,253.486,255.002,252.854z"/>
<path fill="#2AAE58" d="M254.916,253.049c0,0-0.056-1.619,1.295-0.713c0,0,1.57-2.323,2.368,0.436c0,0,1.775-0.358,1.456,1.183
	c0,0,3.888-0.686,2.258,1.564c0,0,1.985,0.174,0.614,1.92C262.905,257.439,259.907,252.939,254.916,253.049z"/>
<path d="M255.796,254.264c-0.012-0.03-0.036-0.046-0.064-0.047c-0.012-0.015-0.029-0.025-0.054-0.024
	c-0.108,0.003-0.281,0.015-0.314,0.144c-0.025,0.096,0.063,0.179,0.135,0.225c0.076,0.047,0.181,0.078,0.265,0.032
	C255.881,254.529,255.835,254.36,255.796,254.264z"/>
<path d="M256.988,260.815c-0.012-0.03-0.035-0.046-0.064-0.047c-0.012-0.015-0.029-0.025-0.054-0.024
	c-0.108,0.003-0.281,0.015-0.314,0.144c-0.025,0.096,0.063,0.179,0.135,0.225c0.076,0.047,0.181,0.078,0.265,0.032
	C257.073,261.08,257.027,260.911,256.988,260.815z"/>
<path d="M256.146,258.669c-0.012-0.03-0.035-0.046-0.064-0.047c-0.012-0.015-0.029-0.025-0.054-0.024
	c-0.108,0.003-0.281,0.015-0.314,0.144c-0.025,0.096,0.063,0.179,0.135,0.225c0.076,0.047,0.181,0.078,0.265,0.032
	C256.231,258.936,256.185,258.766,256.146,258.669z"/>
<path d="M258.352,257.464c-0.012-0.03-0.035-0.046-0.064-0.047c-0.012-0.015-0.029-0.025-0.054-0.024
	c-0.108,0.003-0.281,0.015-0.314,0.144c-0.025,0.096,0.063,0.179,0.135,0.225c0.076,0.047,0.181,0.078,0.265,0.032
	C258.437,257.731,258.391,257.56,258.352,257.464z"/>
<path d="M257.93,259.063c-0.014-0.034-0.041-0.051-0.071-0.052c-0.014-0.017-0.032-0.027-0.059-0.027
	c-0.12,0.003-0.309,0.017-0.348,0.159c-0.029,0.107,0.069,0.198,0.149,0.249c0.085,0.052,0.201,0.086,0.292,0.037
	C258.024,259.357,257.972,259.17,257.93,259.063z"/>
<path d="M261.026,256.504c-0.012-0.03-0.035-0.046-0.064-0.047c-0.012-0.015-0.029-0.025-0.054-0.024
	c-0.108,0.003-0.281,0.015-0.314,0.144c-0.025,0.096,0.063,0.179,0.135,0.225c0.076,0.047,0.181,0.078,0.265,0.032
	C261.111,256.771,261.065,256.602,261.026,256.504z"/>
<path d="M257.438,256.132c-0.01-0.025-0.029-0.037-0.051-0.039c-0.01-0.012-0.024-0.02-0.044-0.02
	c-0.088,0.002-0.226,0.012-0.254,0.117c-0.02,0.078,0.051,0.145,0.108,0.181c0.061,0.039,0.145,0.063,0.213,0.027
	C257.505,256.347,257.468,256.21,257.438,256.132z"/>
<path d="M258.743,255.219c-0.012-0.03-0.035-0.046-0.064-0.047c-0.012-0.015-0.029-0.025-0.054-0.024
	c-0.108,0.003-0.281,0.015-0.314,0.144c-0.025,0.096,0.063,0.179,0.135,0.225c0.076,0.047,0.181,0.078,0.265,0.032
	C258.829,255.485,258.782,255.316,258.743,255.219z"/>
<path d="M255.462,256.024c-0.01-0.027-0.032-0.041-0.056-0.042c-0.01-0.014-0.025-0.022-0.047-0.022
	c-0.095,0.003-0.247,0.014-0.277,0.127c-0.022,0.085,0.056,0.157,0.118,0.198c0.066,0.042,0.159,0.069,0.233,0.029
	C255.536,256.257,255.495,256.108,255.462,256.024z"/>
<path d="M254.995,259.924c-0.007-0.019-0.022-0.029-0.039-0.029c-0.007-0.008-0.019-0.015-0.032-0.015
	c-0.066,0.002-0.171,0.01-0.191,0.088c-0.015,0.057,0.039,0.108,0.083,0.137c0.046,0.029,0.11,0.047,0.161,0.02
	C255.046,260.084,255.019,259.983,254.995,259.924z"/>
<path d="M259.661,258.309c-0.007-0.019-0.022-0.029-0.039-0.029c-0.007-0.008-0.019-0.015-0.032-0.015
	c-0.066,0.002-0.171,0.01-0.191,0.088c-0.015,0.057,0.039,0.108,0.083,0.137c0.046,0.029,0.11,0.047,0.161,0.02
	C259.713,258.47,259.684,258.368,259.661,258.309z"/>
<path d="M256.092,257.571c-0.007-0.019-0.022-0.029-0.039-0.029c-0.007-0.008-0.019-0.015-0.032-0.015
	c-0.066,0.002-0.171,0.01-0.191,0.088c-0.015,0.057,0.039,0.108,0.083,0.137c0.046,0.029,0.11,0.047,0.161,0.02
	C256.144,257.733,256.116,257.63,256.092,257.571z"/>
<path d="M254.512,258.276c-0.007-0.019-0.022-0.029-0.039-0.029c-0.007-0.008-0.019-0.015-0.032-0.015
	c-0.066,0.002-0.171,0.01-0.191,0.088c-0.015,0.057,0.039,0.108,0.083,0.137c0.046,0.029,0.11,0.047,0.161,0.02
	C254.562,258.438,254.535,258.335,254.512,258.276z"/>
<path d="M255.299,261.193c-0.007-0.019-0.022-0.029-0.039-0.029c-0.007-0.008-0.019-0.015-0.032-0.015
	c-0.066,0.002-0.171,0.01-0.191,0.088c-0.015,0.057,0.039,0.108,0.083,0.137c0.046,0.029,0.11,0.047,0.161,0.02
	C255.352,261.355,255.323,261.252,255.299,261.193z"/>
<path d="M259.694,256.866c-0.007-0.019-0.022-0.029-0.039-0.029c-0.007-0.008-0.019-0.015-0.032-0.015
	c-0.066,0.002-0.171,0.01-0.191,0.088c-0.015,0.057,0.039,0.108,0.083,0.137c0.046,0.029,0.11,0.047,0.161,0.02
	C259.745,257.026,259.718,256.923,259.694,256.866z"/>
<path fill="#E33B3B" d="M247.232,250.611c0,0,0.225,7.463,4.172,8.183c0,0,2.125,0.335,4.951-7.703
	C256.356,251.091,253.183,248.275,247.232,250.611z"/>
<path fill="#2AAE58" d="M247.243,250.822c0,0-0.788-1.415,0.827-1.226c0,0,0.34-2.782,2.307-0.69c0,0,1.418-1.128,1.836,0.391
	c0,0,3.149-2.384,2.722,0.363c0,0,1.846-0.749,1.422,1.43C256.356,251.091,251.638,248.451,247.243,250.822z"/>
<path d="M248.581,251.502c-0.025-0.022-0.054-0.025-0.079-0.014c-0.017-0.008-0.037-0.008-0.059,0.003
	c-0.095,0.052-0.243,0.142-0.215,0.272c0.02,0.096,0.137,0.13,0.223,0.139c0.09,0.008,0.198-0.014,0.25-0.091
	C248.777,251.7,248.659,251.571,248.581,251.502z"/>
<path d="M252.627,256.791c-0.025-0.022-0.054-0.025-0.079-0.014c-0.017-0.008-0.037-0.008-0.059,0.003
	c-0.095,0.052-0.243,0.142-0.215,0.272c0.02,0.096,0.137,0.13,0.223,0.139c0.09,0.008,0.198-0.014,0.25-0.091
	C252.823,256.989,252.704,256.859,252.627,256.791z"/>
<path d="M250.899,255.266c-0.025-0.022-0.054-0.025-0.079-0.014c-0.017-0.008-0.037-0.008-0.059,0.003
	c-0.095,0.052-0.242,0.142-0.215,0.272c0.02,0.096,0.137,0.13,0.223,0.139c0.09,0.008,0.198-0.014,0.25-0.091
	C251.097,255.464,250.978,255.334,250.899,255.266z"/>
<path d="M252.314,253.187c-0.025-0.022-0.054-0.025-0.079-0.014c-0.017-0.008-0.037-0.008-0.059,0.003
	c-0.095,0.052-0.243,0.142-0.215,0.272c0.02,0.096,0.137,0.13,0.223,0.139c0.09,0.008,0.198-0.014,0.25-0.091
	C252.51,253.385,252.392,253.257,252.314,253.187z"/>
<path d="M252.667,254.803c-0.027-0.024-0.059-0.027-0.086-0.015c-0.019-0.008-0.042-0.01-0.066,0.003
	c-0.105,0.057-0.269,0.157-0.237,0.301c0.024,0.107,0.152,0.145,0.247,0.154c0.098,0.008,0.218-0.014,0.277-0.101
	C252.884,255.021,252.753,254.879,252.667,254.803z"/>
<path d="M254.258,251.115c-0.025-0.022-0.054-0.025-0.079-0.014c-0.017-0.008-0.037-0.008-0.059,0.003
	c-0.095,0.052-0.243,0.142-0.215,0.272c0.02,0.096,0.137,0.13,0.223,0.139c0.09,0.008,0.198-0.014,0.25-0.091
	C254.454,251.313,254.336,251.182,254.258,251.115z"/>
<path d="M250.892,252.418c-0.02-0.017-0.044-0.02-0.064-0.01c-0.014-0.007-0.03-0.007-0.047,0.002
	c-0.076,0.042-0.196,0.113-0.172,0.22c0.017,0.078,0.112,0.107,0.179,0.112c0.073,0.007,0.159-0.01,0.203-0.074
	C251.051,252.577,250.955,252.474,250.892,252.418z"/>
<path d="M251.639,251.01c-0.025-0.022-0.054-0.025-0.079-0.014c-0.017-0.008-0.037-0.008-0.059,0.003
	c-0.095,0.052-0.243,0.142-0.215,0.272c0.02,0.096,0.137,0.13,0.223,0.139c0.09,0.008,0.198-0.014,0.25-0.091
	C251.835,251.208,251.717,251.079,251.639,251.01z"/>
<path d="M249.085,253.223c-0.022-0.019-0.047-0.022-0.069-0.012c-0.015-0.007-0.034-0.008-0.052,0.003
	c-0.083,0.046-0.213,0.125-0.189,0.238c0.019,0.085,0.122,0.115,0.196,0.122c0.078,0.007,0.172-0.012,0.22-0.079
	C249.258,253.397,249.153,253.282,249.085,253.223z"/>
<path d="M250.446,256.906c-0.015-0.014-0.032-0.015-0.047-0.008c-0.01-0.005-0.024-0.005-0.035,0.002
	c-0.057,0.032-0.147,0.086-0.13,0.166c0.014,0.059,0.083,0.079,0.135,0.085c0.054,0.005,0.12-0.008,0.152-0.056
	C250.566,257.026,250.493,256.947,250.446,256.906z"/>
<path d="M253.864,253.343c-0.015-0.014-0.032-0.015-0.047-0.008c-0.01-0.005-0.024-0.005-0.035,0.002
	c-0.057,0.032-0.147,0.086-0.13,0.166c0.014,0.059,0.083,0.079,0.135,0.085c0.054,0.005,0.12-0.008,0.152-0.056
	C253.984,253.463,253.911,253.383,253.864,253.343z"/>
<path d="M250.351,254.311c-0.015-0.014-0.032-0.015-0.047-0.008c-0.01-0.005-0.024-0.005-0.035,0.002
	c-0.057,0.032-0.147,0.086-0.13,0.166c0.014,0.059,0.083,0.079,0.135,0.085c0.054,0.005,0.12-0.008,0.152-0.056
	C250.47,254.431,250.399,254.354,250.351,254.311z"/>
<path d="M249.264,255.66c-0.015-0.014-0.032-0.015-0.047-0.008c-0.01-0.005-0.024-0.005-0.035,0.002
	c-0.057,0.032-0.147,0.086-0.13,0.166c0.014,0.059,0.083,0.079,0.135,0.085c0.054,0.005,0.12-0.008,0.152-0.056
	C249.384,255.78,249.312,255.701,249.264,255.66z"/>
<path d="M251.296,257.897c-0.015-0.014-0.032-0.015-0.047-0.008c-0.01-0.005-0.022-0.005-0.035,0.002
	c-0.057,0.032-0.147,0.086-0.13,0.166c0.014,0.059,0.085,0.079,0.135,0.085c0.054,0.005,0.12-0.008,0.152-0.056
	C251.416,258.017,251.344,257.939,251.296,257.897z"/>
<path d="M253.235,252.043c-0.015-0.014-0.032-0.015-0.047-0.008c-0.01-0.005-0.024-0.005-0.035,0.002
	c-0.057,0.032-0.147,0.086-0.13,0.166c0.014,0.059,0.083,0.079,0.135,0.085c0.054,0.005,0.12-0.008,0.152-0.056
	C253.355,252.163,253.284,252.083,253.235,252.043z"/>
<path d="M169.134,446.854c5.323-13.316,16.027-93.93,16.027-93.93l-44.195-5.1H79.207l10.029,99.03h34.903l8.044-49.515l5.046,48.69
	"/>
<path fill="#9B7E54" d="M179.719,343.751c0,0,47.265-9.58,53.466-26.058l-0.516-13.586l-50.842,17.748L179.719,343.751z"/>
<path fill="#E6E7E8" d="M168.19,242.811c0,0,21.991,35.782,28.589,73.362l-12.44,7.47l-25.081-68.098l9.215-11.867"/>
<path fill="#E6E7E8" d="M99.064,250.567c0,0-21.991,35.782-28.589,73.362l22.615,14.262l14.906-74.89l-2.037-19.045"/>
<path fill="#E6E7E8" d="M107.048,254.445c0,0-26.258,78.364-19.459,98.195l97.573,0.284c0,0,9.674-58.359-19.81-99.721
	S107.048,254.445,107.048,254.445z"/>
<path fill="#E6E7E8" d="M163.122,237.388"/>
<path fill="#E6E7E8" d="M100.777,245.438"/>
<path fill="#838383" d="M202.015,304.107c0,0,57.073,13.397,100.83,0.095L202.015,304.107z"/>
<polygon points="134.905,253.16 130.552,264.74 113.594,262.502 100.297,257.19 104.881,246.326 "/>
<polygon points="131.141,256.421 137.531,263.922 167.981,259.368 169.134,244.968 "/>
<ellipse cx="134.29" cy="271.983" rx="2.407" ry="1.983"/>
<ellipse cx="134.29" cy="287.564" rx="2.407" ry="1.983"/>
<ellipse cx="134.29" cy="304.107" rx="2.407" ry="1.983"/>
<ellipse cx="134.29" cy="316.461" rx="2.407" ry="1.983"/>
<path fill="#9B7E54" d="M70.481,323.929c0,0-0.757,48.22,14.012,57.803l13.383,2.404l-6.456-53.462L70.481,323.929z"/>
<ellipse transform="matrix(-0.9991 -0.0431 0.0431 -0.9991 262.2488 401.7531)" fill="#9B7E54" cx="135.455" cy="198.05" rx="57.266" ry="59.451"/>
<ellipse transform="matrix(-0.9774 -0.2112 0.2112 -0.9774 192.3805 428.1549)" cx="119.056" cy="203.803" rx="4.569" ry="5.14"/>
<ellipse transform="matrix(-0.9774 -0.2112 0.2112 -0.9774 253.8085 434.7205)" cx="150.12" cy="203.806" rx="4.569" ry="5.14"/>
<path fill="none" stroke="#000000" stroke-width="1.3598" stroke-miterlimit="10" d="M115.876,237.094c0,0,18.698,11.539,36.828,0"
	/>
<line fill="none" stroke="#000000" stroke-width="0.901" stroke-miterlimit="10" x1="112.919" y1="198.638" x2="116.403" y2="203.755"/>
<line fill="none" stroke="#000000" stroke-width="0.901" stroke-miterlimit="10" x1="119.115" y1="195.976" x2="119.115" y2="202.208"/>
<line fill="none" stroke="#000000" stroke-width="0.901" stroke-miterlimit="10" x1="126.235" y1="199.093" x2="121.571" y2="203.755"/>
<line fill="none" stroke="#000000" stroke-width="0.901" stroke-miterlimit="10" x1="143.801" y1="198.638" x2="147.952" y2="202.792"/>
<line fill="none" stroke="#000000" stroke-width="0.901" stroke-miterlimit="10" x1="150.184" y1="195.976" x2="150.184" y2="202.208"/>
<line fill="none" stroke="#000000" stroke-width="0.901" stroke-miterlimit="10" x1="156.832" y1="199.093" x2="152.168" y2="203.755"/>
<path d="M78.209,195.631c0,0,79.794-9.204,81.05-51.67C159.26,143.96,90.242,115.962,78.209,195.631z"/>
<path d="M156.832,149.515c0,0,4.375,30.834,35.05,58.337c0,0,8.971-48.016-37.383-65.875"/>
<path d="M114.096,147.14c0,0-25.456-1.501-9.928-21.732c0,0,44.489-31.251,35.248,15.059"/>
<polyline fill="#745F3F" points="269.721,375.284 268.27,428.432 277.536,428.432 277.536,375.284 "/>
<polyline fill="#745F3F" points="500.025,375.284 498.574,428.432 507.839,428.432 507.839,375.284 "/>
<polyline fill="#745F3F" points="287.333,387.097 287.273,405.416 294.567,404.241 294.565,383.779 "/>
<polyline fill="#745F3F" points="488.784,386.058 488.784,402.567 494.308,402.567 494.308,383.433 "/>
<path fill="#FFFFFF" d="M273.756,359.812c0,0-16.088,3.292-10.998,17.558c0,0,11.792,9.876,20.786,4.938c0,0,6.43-8.23,3.215-15.363
	C286.759,366.945,284.602,359.812,273.756,359.812z"/>
<ellipse transform="matrix(-0.9998 0.0187 -0.0187 -0.9998 588.2946 747.8016)" fill="#CCCCCC" cx="290.644" cy="376.657" rx="1.753" ry="3.584"/>
<line fill="none" stroke="#CCCCCC" stroke-width="0.9097" stroke-miterlimit="10" x1="290.661" y1="377.567" x2="290.393" y2="363.263"/>
<line fill="none" stroke="#CCCCCC" stroke-width="0.8803" stroke-miterlimit="10" x1="258.024" y1="377.888" x2="257.773" y2="364.494"/>
<path fill="#CCCCCC" d="M257.287,381.079l-0.048-2.586l0.455-0.009l0.055,2.924c0.111,0.042,0.226,0.066,0.342,0.064
	c0.137-0.003,0.269-0.045,0.396-0.108l-0.054-2.893l0.455-0.009l0.047,2.523c0.523-0.624,0.867-1.787,0.842-3.13
	c-0.037-1.979-0.852-3.568-1.82-3.55s-1.723,1.637-1.686,3.616C256.297,379.311,256.71,380.495,257.287,381.079z"/>
<path fill="#FFFFFF" d="M318.862,358.475c0,0-16.088,3.292-10.998,17.558c0,0,11.792,9.876,20.786,4.938c0,0,6.43-8.23,3.215-15.363
	C331.865,365.608,329.708,358.475,318.862,358.475z"/>
<ellipse transform="matrix(-0.9998 0.0187 -0.0187 -0.9998 678.4736 744.2828)" fill="#CCCCCC" cx="335.75" cy="375.32" rx="1.753" ry="3.584"/>
<line fill="none" stroke="#CCCCCC" stroke-width="0.9097" stroke-miterlimit="10" x1="335.767" y1="376.23" x2="335.499" y2="361.926"/>
<line fill="none" stroke="#CCCCCC" stroke-width="0.8803" stroke-miterlimit="10" x1="303.13" y1="376.551" x2="302.879" y2="363.157"/>
<path fill="#CCCCCC" d="M302.393,379.742l-0.048-2.586l0.455-0.009l0.055,2.924c0.111,0.043,0.226,0.066,0.342,0.064
	c0.137-0.003,0.269-0.045,0.396-0.108l-0.054-2.893l0.455-0.009l0.047,2.523c0.523-0.624,0.867-1.787,0.842-3.13
	c-0.037-1.979-0.852-3.568-1.82-3.55c-0.968,0.018-1.723,1.637-1.686,3.616C301.403,377.974,301.816,379.158,302.393,379.742z"/>
<path fill="#FFFFFF" d="M364.479,361.134c0,0-16.088,3.292-10.998,17.558c0,0,11.792,9.876,20.786,4.938c0,0,6.43-8.23,3.215-15.363
	C377.482,368.267,375.325,361.134,364.479,361.134z"/>
<ellipse transform="matrix(-0.9998 0.0187 -0.0187 -0.9998 769.7488 748.7455)" fill="#CCCCCC" cx="381.366" cy="377.979" rx="1.753" ry="3.584"/>
<line fill="none" stroke="#CCCCCC" stroke-width="0.9097" stroke-miterlimit="10" x1="381.383" y1="378.889" x2="381.115" y2="364.585"/>
<line fill="none" stroke="#CCCCCC" stroke-width="0.8803" stroke-miterlimit="10" x1="348.746" y1="379.21" x2="348.495" y2="365.816"/>
<path fill="#CCCCCC" d="M348.01,382.401l-0.048-2.586l0.455-0.009l0.055,2.924c0.111,0.043,0.226,0.066,0.342,0.064
	c0.137-0.003,0.269-0.045,0.396-0.108l-0.054-2.893l0.455-0.009l0.047,2.523c0.523-0.624,0.867-1.787,0.842-3.13
	c-0.037-1.979-0.852-3.568-1.82-3.55c-0.968,0.018-1.723,1.637-1.686,3.616C347.019,380.633,347.433,381.817,348.01,382.401z"/>
<path fill="#FFFFFF" d="M410.525,359.269c0,0-16.088,3.292-10.998,17.558c0,0,11.792,9.876,20.786,4.938c0,0,6.43-8.23,3.215-15.363
	C423.528,366.402,421.371,359.269,410.525,359.269z"/>
<ellipse transform="matrix(-0.9998 0.0187 -0.0187 -0.9998 861.7981 744.152)" fill="#CCCCCC" cx="427.412" cy="376.114" rx="1.753" ry="3.584"/>
<line fill="none" stroke="#CCCCCC" stroke-width="0.9097" stroke-miterlimit="10" x1="427.43" y1="377.023" x2="427.161" y2="362.719"/>
<line fill="none" stroke="#CCCCCC" stroke-width="0.8803" stroke-miterlimit="10" x1="394.792" y1="377.345" x2="394.541" y2="363.951"/>
<path fill="#CCCCCC" d="M394.056,380.535l-0.048-2.586l0.455-0.009l0.055,2.924c0.111,0.043,0.226,0.066,0.342,0.064
	c0.137-0.003,0.269-0.045,0.396-0.108l-0.054-2.893l0.455-0.009l0.047,2.523c0.523-0.624,0.867-1.787,0.842-3.13
	c-0.037-1.979-0.852-3.568-1.82-3.55c-0.968,0.018-1.723,1.637-1.686,3.616C393.066,378.768,393.479,379.952,394.056,380.535z"/>
<path fill="#FFFFFF" d="M456.231,357.915c0,0-16.088,3.292-10.998,17.558c0,0,11.792,9.876,20.786,4.938c0,0,6.43-8.23,3.215-15.363
	C469.235,365.048,467.077,357.915,456.231,357.915z"/>
<ellipse transform="matrix(-0.9998 0.0187 -0.0187 -0.9998 953.1779 740.5876)" fill="#CCCCCC" cx="473.119" cy="374.76" rx="1.753" ry="3.584"/>
<line fill="none" stroke="#CCCCCC" stroke-width="0.9097" stroke-miterlimit="10" x1="473.136" y1="375.669" x2="472.868" y2="361.365"/>
<line fill="none" stroke="#CCCCCC" stroke-width="0.8803" stroke-miterlimit="10" x1="440.499" y1="375.991" x2="440.248" y2="362.597"/>
<path fill="#CCCCCC" d="M439.763,379.181l-0.048-2.586l0.455-0.009l0.055,2.924c0.111,0.042,0.226,0.066,0.342,0.064
	c0.137-0.003,0.269-0.045,0.396-0.108l-0.054-2.893l0.455-0.009l0.047,2.523c0.523-0.624,0.867-1.787,0.842-3.13
	c-0.037-1.979-0.852-3.568-1.82-3.55c-0.968,0.018-1.723,1.637-1.686,3.616C438.772,377.414,439.186,378.598,439.763,379.181z"/>
<path fill="#FFFFFF" d="M502.629,357.915c0,0-16.088,3.292-10.998,17.558c0,0,11.792,9.876,20.786,4.938c0,0,6.43-8.23,3.215-15.363
	C515.632,365.048,513.475,357.915,502.629,357.915z"/>
<ellipse transform="matrix(-0.9998 0.0187 -0.0187 -0.9998 1045.9648 739.7181)" fill="#CCCCCC" cx="519.517" cy="374.76" rx="1.753" ry="3.584"/>
<line fill="none" stroke="#CCCCCC" stroke-width="0.9097" stroke-miterlimit="10" x1="519.534" y1="375.669" x2="519.266" y2="361.365"/>
<line fill="none" stroke="#CCCCCC" stroke-width="0.8803" stroke-miterlimit="10" x1="486.897" y1="375.991" x2="486.646" y2="362.597"/>
<path fill="#CCCCCC" d="M486.16,379.181l-0.048-2.586l0.455-0.009l0.055,2.924c0.111,0.043,0.226,0.066,0.342,0.064
	c0.137-0.003,0.269-0.045,0.396-0.108l-0.054-2.893l0.455-0.009l0.047,2.523c0.523-0.624,0.867-1.787,0.842-3.13
	c-0.037-1.979-0.852-3.568-1.82-3.55c-0.968,0.018-1.723,1.637-1.686,3.616C485.17,377.414,485.583,378.598,486.16,379.181z"/>
</svg>
