<?xml version="1.0" encoding="utf-8"?>
<!-- Generator: Adobe Illustrator 17.0.0, SVG Export Plug-In . SVG Version: 6.00 Build 0)  -->
<!DOCTYPE svg PUBLIC "-//W3C//DTD SVG 1.1//EN" "http://www.w3.org/Graphics/SVG/1.1/DTD/svg11.dtd">
<svg version="1.1" id="Layer_1" xmlns="http://www.w3.org/2000/svg" xmlns:xlink="http://www.w3.org/1999/xlink" x="0px" y="0px"
	 width="640px" height="462.809px" viewBox="0 0 640 462.809" enable-background="new 0 0 640 462.809" xml:space="preserve">
<polygon fill="#C73A22" points="119.439,173.155 151.847,169.39 151.847,204.965 179.961,210.806 179.509,236.702 204.004,239.939 
	202.251,263.677 238.129,269.733 238.129,294.968 263.241,300.68 263.241,337.049 119.439,337.049 "/>
<g>
	<path fill="#0B3F00" d="M261.07,279.739c0.675,1.324,0.73,2.654,0.166,3.99c-0.564,1.337-1.669,2.486-3.315,3.447l0.639,2.302
		l-1.874,0.955l-0.629-2.363c-1.704,0.719-3.168,1.035-4.393,0.947l-1.768-3.468c1.161-0.039,2.171-0.151,3.032-0.337
		c0.861-0.186,1.666-0.47,2.417-0.853c1.294-0.66,1.742-1.38,1.344-2.16c-0.151-0.297-0.41-0.505-0.775-0.624
		c-0.365-0.118-1.042-0.164-2.031-0.138c-1.269,0.066-2.367-0.123-3.296-0.568c-0.929-0.444-1.638-1.146-2.127-2.105
		c-0.667-1.308-0.717-2.632-0.149-3.971c0.568-1.338,1.656-2.488,3.265-3.449l-0.433-1.648l1.874-0.955l0.433,1.704
		c1.254-0.499,2.592-0.759,4.014-0.782l-0.026,3.807c-1.444,0.071-2.675,0.366-3.694,0.885c-0.491,0.25-0.822,0.551-0.995,0.901
		c-0.173,0.35-0.183,0.675-0.032,0.972c0.201,0.394,0.516,0.653,0.944,0.776c0.428,0.124,1.195,0.176,2.299,0.156
		c1.299-0.025,2.355,0.165,3.17,0.569C259.946,278.133,260.592,278.803,261.07,279.739z"/>
</g>
<g>
	<path fill="#0B3F00" d="M227.167,257.103c-0.693,1.314-1.749,2.125-3.167,2.434c-1.418,0.309-2.994,0.067-4.727-0.725l-1.513,1.848
		l-1.86-0.982l1.57-1.875c-1.569-0.979-2.67-1.994-3.304-3.046l1.817-3.443c0.7,0.927,1.374,1.688,2.022,2.284
		c0.648,0.597,1.344,1.091,2.09,1.485c1.284,0.678,2.131,0.629,2.54-0.146c0.156-0.295,0.177-0.626,0.064-0.993
		c-0.114-0.366-0.466-0.946-1.057-1.739c-0.785-0.999-1.263-2.006-1.434-3.022c-0.172-1.015-0.007-1.999,0.496-2.951
		c0.685-1.299,1.739-2.102,3.161-2.408c1.421-0.306,2.988-0.079,4.7,0.683l1.098-1.303l1.86,0.982l-1.144,1.336
		c1.13,0.738,2.113,1.681,2.95,2.831l-3.127,2.171c-0.89-1.139-1.84-1.976-2.851-2.51c-0.487-0.257-0.924-0.355-1.309-0.295
		c-0.386,0.061-0.657,0.239-0.812,0.534c-0.207,0.392-0.237,0.798-0.091,1.219c0.145,0.422,0.544,1.078,1.197,1.969
		c0.768,1.047,1.222,2.02,1.361,2.919C227.834,255.259,227.658,256.173,227.167,257.103z"/>
</g>
<g>
	<path fill="#0B3F00" d="M218.731,235.193c0.675,1.324,0.73,2.654,0.166,3.99c-0.564,1.337-1.669,2.486-3.315,3.447l0.639,2.302
		l-1.874,0.955l-0.629-2.363c-1.704,0.719-3.168,1.035-4.393,0.947l-1.768-3.468c1.161-0.039,2.171-0.151,3.032-0.337
		s1.666-0.47,2.417-0.853c1.294-0.66,1.742-1.38,1.344-2.16c-0.151-0.297-0.41-0.505-0.775-0.624
		c-0.365-0.118-1.042-0.164-2.031-0.138c-1.269,0.066-2.367-0.123-3.296-0.568c-0.929-0.444-1.638-1.146-2.127-2.105
		c-0.667-1.308-0.717-2.632-0.149-3.971c0.568-1.338,1.656-2.488,3.265-3.449l-0.433-1.648l1.874-0.955l0.433,1.704
		c1.254-0.499,2.592-0.759,4.014-0.782l-0.026,3.807c-1.444,0.071-2.675,0.366-3.694,0.885c-0.491,0.25-0.822,0.551-0.995,0.901
		c-0.173,0.35-0.183,0.675-0.032,0.972c0.201,0.394,0.516,0.653,0.944,0.776c0.428,0.124,1.195,0.176,2.299,0.156
		c1.299-0.025,2.355,0.165,3.17,0.569C217.607,233.586,218.254,234.256,218.731,235.193z"/>
</g>
<g>
	<path fill="#0B3F00" d="M168.734,190.638c-0.625,1.348-1.639,2.212-3.038,2.592c-1.401,0.381-2.986,0.22-4.758-0.483l-1.417,1.923
		l-1.908-0.885l1.472-1.953c-1.617-0.897-2.769-1.855-3.455-2.873l1.639-3.531c0.746,0.89,1.458,1.615,2.136,2.178
		c0.677,0.563,1.398,1.021,2.163,1.376c1.317,0.611,2.16,0.52,2.529-0.275c0.14-0.302,0.144-0.634,0.013-0.994
		c-0.132-0.36-0.513-0.921-1.144-1.683c-0.835-0.958-1.363-1.939-1.587-2.945c-0.223-1.005-0.109-1.996,0.345-2.973
		c0.618-1.332,1.629-2.188,3.034-2.567c1.404-0.378,2.98-0.232,4.729,0.442l1.03-1.357l1.908,0.885l-1.074,1.392
		c1.166,0.679,2.196,1.571,3.091,2.677l-3.013,2.328c-0.947-1.093-1.939-1.88-2.975-2.361c-0.5-0.232-0.941-0.307-1.323-0.228
		c-0.382,0.08-0.644,0.272-0.784,0.574c-0.186,0.402-0.196,0.809-0.029,1.222c0.167,0.414,0.598,1.049,1.296,1.906
		c0.821,1.007,1.323,1.955,1.508,2.846C169.305,188.762,169.176,189.684,168.734,190.638z"/>
</g>
<g>
	<path fill="#0B3F00" d="M197.115,209.854c0.112,1.481-0.351,2.73-1.386,3.745c-1.036,1.016-2.499,1.65-4.388,1.901l-0.298,2.37
		l-2.097,0.159l0.332-2.423c-1.85,0.006-3.322-0.268-4.418-0.821l-0.293-3.882c1.086,0.412,2.061,0.698,2.927,0.858
		c0.866,0.161,1.719,0.209,2.559,0.145c1.448-0.109,2.139-0.601,2.073-1.475c-0.025-0.332-0.184-0.624-0.474-0.874
		c-0.291-0.25-0.898-0.554-1.82-0.911c-1.196-0.428-2.136-1.027-2.822-1.795c-0.686-0.768-1.069-1.689-1.15-2.763
		c-0.111-1.464,0.354-2.705,1.395-3.721c1.04-1.016,2.488-1.657,4.343-1.923l0.236-1.688l2.097-0.159l-0.258,1.739
		c1.349,0.024,2.684,0.299,4.004,0.827l-1.493,3.502c-1.36-0.491-2.609-0.694-3.749-0.608c-0.549,0.042-0.971,0.191-1.266,0.447
		c-0.294,0.257-0.429,0.552-0.404,0.884c0.033,0.441,0.224,0.801,0.571,1.08c0.348,0.28,1.034,0.623,2.061,1.03
		c1.208,0.478,2.109,1.061,2.706,1.748C196.698,207.938,197.035,208.806,197.115,209.854z"/>
</g>
<ellipse fill="none" stroke="#808184" stroke-width="13.4011" stroke-miterlimit="10" cx="184.565" cy="253.219" rx="125.202" ry="126.242"/>
<line fill="none" stroke="#808184" stroke-width="13.4011" stroke-miterlimit="10" x1="264.23" y1="155.826" x2="97.937" y2="349.64"/>
<g>
	<path fill="#C73A22" d="M350.821,194.574c1.637,0,2.957,0.372,3.959,1.117c1.002,0.745,1.503,1.749,1.503,3.012
		c0,0.873-0.241,1.651-0.725,2.334c-0.484,0.682-1.263,1.292-2.339,1.83c1.279,0.686,2.197,1.402,2.755,2.146
		c0.558,0.744,0.837,1.561,0.837,2.45c0,1.404-0.55,2.533-1.65,3.386c-1.099,0.854-2.546,1.281-4.339,1.281
		c-1.871,0-3.341-0.398-4.41-1.193c-1.069-0.795-1.602-1.922-1.602-3.381c0-0.974,0.259-1.84,0.778-2.597
		c0.518-0.756,1.351-1.422,2.497-2c-0.975-0.616-1.677-1.275-2.105-1.977c-0.429-0.702-0.644-1.469-0.644-2.304
		c0-1.224,0.507-2.215,1.521-2.971C347.869,194.953,349.191,194.574,350.821,194.574z M348.154,207.346
		c0,0.671,0.234,1.193,0.702,1.567c0.468,0.374,1.107,0.561,1.918,0.561c0.896,0,1.567-0.193,2.012-0.578
		c0.444-0.386,0.666-0.895,0.666-1.527c0-0.522-0.22-1.011-0.661-1.467c-0.441-0.457-1.157-0.942-2.146-1.457
		C348.984,205.21,348.154,206.176,348.154,207.346z M350.797,197.217c-0.617,0-1.113,0.158-1.492,0.474
		c-0.378,0.315-0.567,0.738-0.567,1.269c0,0.468,0.15,0.887,0.45,1.258c0.3,0.37,0.844,0.75,1.632,1.14
		c0.764-0.358,1.298-0.725,1.602-1.099c0.304-0.374,0.457-0.807,0.457-1.298c0-0.538-0.196-0.963-0.585-1.275
		C351.904,197.373,351.405,197.217,350.797,197.217z"/>
	<path fill="#C73A22" d="M370.552,211.896h-11.953v-2.515l4.293-4.339c1.271-1.302,2.101-2.204,2.491-2.708
		c0.39-0.502,0.671-0.968,0.842-1.398c0.171-0.429,0.257-0.873,0.257-1.333c0-0.686-0.189-1.197-0.567-1.532
		s-0.883-0.503-1.515-0.503c-0.662,0-1.306,0.153-1.929,0.457c-0.624,0.304-1.275,0.736-1.954,1.298l-1.965-2.327
		c0.842-0.718,1.54-1.224,2.094-1.52c0.553-0.297,1.157-0.525,1.812-0.684c0.655-0.16,1.388-0.24,2.199-0.24
		c1.069,0,2.012,0.196,2.83,0.585c0.819,0.39,1.454,0.936,1.907,1.637c0.452,0.702,0.678,1.506,0.678,2.409
		c0,0.788-0.138,1.527-0.415,2.217c-0.277,0.691-0.706,1.398-1.287,2.123c-0.581,0.725-1.605,1.758-3.07,3.099l-2.199,2.071v0.164
		h7.45V211.896z"/>
	<path fill="#C73A22" d="M380.178,199.896c0,1.794-0.347,3.14-1.041,4.041c-0.694,0.9-1.711,1.35-3.052,1.35
		c-1.287,0-2.281-0.461-2.983-1.386c-0.702-0.924-1.053-2.259-1.053-4.006c0-3.563,1.346-5.346,4.036-5.346
		c1.317,0,2.329,0.462,3.035,1.387C379.825,196.861,380.178,198.181,380.178,199.896z M374.996,199.919
		c0,0.99,0.088,1.729,0.264,2.217c0.175,0.487,0.458,0.731,0.848,0.731c0.749,0,1.123-0.982,1.123-2.947
		c0-1.949-0.374-2.924-1.123-2.924c-0.39,0-0.673,0.24-0.848,0.72C375.084,198.194,374.996,198.929,374.996,199.919z
		 M388.225,194.796l-9.486,17.1h-2.807l9.486-17.1H388.225z M392.155,206.727c0,1.785-0.347,3.129-1.041,4.029
		c-0.694,0.901-1.711,1.351-3.052,1.351c-1.287,0-2.281-0.462-2.983-1.386c-0.702-0.924-1.053-2.256-1.053-3.994
		c0-3.563,1.346-5.346,4.036-5.346c1.317,0,2.329,0.462,3.035,1.387C391.802,203.691,392.155,205.011,392.155,206.727z
		 M386.973,206.75c0,0.99,0.088,1.729,0.264,2.217c0.175,0.487,0.458,0.731,0.848,0.731c0.749,0,1.123-0.982,1.123-2.947
		c0-1.949-0.374-2.924-1.123-2.924c-0.39,0-0.673,0.24-0.848,0.72C387.061,205.024,386.973,205.76,386.973,206.75z"/>
	<path fill="#C73A22" d="M416.787,203.322c0,2.83-0.702,5.006-2.105,6.526c-1.404,1.52-3.415,2.281-6.035,2.281
		s-4.632-0.761-6.035-2.281c-1.404-1.521-2.105-3.703-2.105-6.55c0-2.845,0.704-5.019,2.111-6.52
		c1.407-1.502,3.425-2.252,6.053-2.252c2.627,0,4.637,0.757,6.029,2.269C416.091,198.309,416.787,200.485,416.787,203.322z
		 M404.307,203.322c0,1.911,0.363,3.35,1.088,4.316s1.809,1.45,3.252,1.45c2.892,0,4.339-1.922,4.339-5.767
		c0-3.851-1.438-5.778-4.315-5.778c-1.443,0-2.531,0.486-3.264,1.457C404.673,199.972,404.307,201.413,404.307,203.322z"/>
	<path fill="#C73A22" d="M423.898,211.896h-3.568v-17.1h9.801v2.971h-6.234v4.409h5.801v2.96h-5.801V211.896z"/>
	<path fill="#C73A22" d="M443.267,211.896h-3.568v-17.1h9.801v2.971h-6.234v4.409h5.801v2.96h-5.801V211.896z"/>
	<path fill="#C73A22" d="M468.367,203.322c0,2.83-0.702,5.006-2.105,6.526c-1.404,1.52-3.415,2.281-6.035,2.281
		s-4.632-0.761-6.035-2.281c-1.404-1.521-2.105-3.703-2.105-6.55c0-2.845,0.704-5.019,2.111-6.52
		c1.407-1.502,3.425-2.252,6.053-2.252c2.627,0,4.637,0.757,6.029,2.269C467.671,198.309,468.367,200.485,468.367,203.322z
		 M455.887,203.322c0,1.911,0.363,3.35,1.088,4.316s1.809,1.45,3.252,1.45c2.892,0,4.339-1.922,4.339-5.767
		c0-3.851-1.438-5.778-4.315-5.778c-1.443,0-2.531,0.486-3.264,1.457C456.253,199.972,455.887,201.413,455.887,203.322z"/>
	<path fill="#C73A22" d="M487.432,203.322c0,2.83-0.702,5.006-2.105,6.526c-1.404,1.52-3.415,2.281-6.035,2.281
		s-4.632-0.761-6.035-2.281c-1.404-1.521-2.105-3.703-2.105-6.55c0-2.845,0.704-5.019,2.111-6.52
		c1.407-1.502,3.425-2.252,6.053-2.252c2.627,0,4.637,0.757,6.029,2.269C486.735,198.309,487.432,200.485,487.432,203.322z
		 M474.951,203.322c0,1.911,0.363,3.35,1.088,4.316s1.809,1.45,3.252,1.45c2.892,0,4.339-1.922,4.339-5.767
		c0-3.851-1.438-5.778-4.315-5.778c-1.443,0-2.531,0.486-3.264,1.457C475.318,199.972,474.951,201.413,474.951,203.322z"/>
	<path fill="#C73A22" d="M505.163,203.182c0,2.816-0.802,4.971-2.404,6.468c-1.603,1.497-3.917,2.246-6.942,2.246h-4.842v-17.1
		h5.369c2.791,0,4.959,0.736,6.503,2.21S505.163,200.539,505.163,203.182z M501.397,203.276c0-3.673-1.622-5.508-4.866-5.508h-1.93
		v11.135h1.556C499.65,208.902,501.397,207.027,501.397,203.276z"/>
	<path fill="#C73A22" d="M353.382,226.312c-1.364,0-2.421,0.513-3.169,1.538c-0.749,1.026-1.123,2.454-1.123,4.286
		c0,3.813,1.431,5.72,4.292,5.72c1.201,0,2.656-0.3,4.363-0.901v3.041c-1.404,0.585-2.971,0.878-4.702,0.878
		c-2.488,0-4.39-0.754-5.708-2.263c-1.318-1.508-1.977-3.674-1.977-6.497c0-1.778,0.324-3.335,0.971-4.672
		c0.647-1.338,1.577-2.363,2.789-3.077c1.213-0.713,2.633-1.07,4.263-1.07c1.661,0,3.329,0.402,5.006,1.205l-1.17,2.947
		c-0.639-0.304-1.283-0.569-1.929-0.795C354.641,226.426,354.006,226.312,353.382,226.312z"/>
	<path fill="#C73A22" d="M375.394,240.641h-3.614v-7.381h-6.773v7.381h-3.626v-17.1h3.626v6.701h6.773v-6.701h3.614V240.641z"/>
	<path fill="#C73A22" d="M390.178,240.641l-1.24-4.07h-6.234l-1.24,4.07h-3.907l6.035-17.17h4.432l6.059,17.17H390.178z
		 M388.072,233.529c-1.146-3.688-1.791-5.774-1.935-6.258c-0.145-0.483-0.248-0.866-0.311-1.146
		c-0.257,0.998-0.994,3.467-2.21,7.404H388.072z"/>
	<path fill="#C73A22" d="M396.236,240.641v-17.1h3.626v17.1H396.236z"/>
	<path fill="#C73A22" d="M419.337,240.641h-4.608l-7.439-12.936h-0.106c0.148,2.285,0.223,3.914,0.223,4.889v8.047h-3.24v-17.1
		h4.574l7.427,12.807h0.082c-0.117-2.222-0.176-3.793-0.176-4.713v-8.094h3.264V240.641z"/>
	<path fill="#C73A22" d="M446.518,240.641h-4.129l-2.316-8.983c-0.086-0.32-0.232-0.981-0.438-1.983
		c-0.207-1.002-0.327-1.674-0.357-2.017c-0.047,0.421-0.164,1.098-0.351,2.03c-0.187,0.931-0.331,1.596-0.432,1.994l-2.305,8.959
		h-4.117l-4.362-17.1h3.567l2.188,9.334c0.382,1.724,0.659,3.216,0.83,4.479c0.047-0.444,0.154-1.132,0.322-2.064
		c0.167-0.932,0.326-1.655,0.473-2.17l2.492-9.579h3.426l2.492,9.579c0.109,0.429,0.245,1.084,0.409,1.965
		c0.164,0.881,0.288,1.637,0.374,2.269c0.078-0.608,0.203-1.366,0.374-2.275s0.327-1.643,0.468-2.204l2.175-9.334h3.568
		L446.518,240.641z"/>
	<path fill="#C73A22" d="M468.542,232.067c0,2.83-0.702,5.006-2.105,6.526c-1.404,1.521-3.415,2.281-6.035,2.281
		s-4.632-0.761-6.035-2.281c-1.404-1.52-2.105-3.703-2.105-6.55c0-2.845,0.704-5.019,2.112-6.52
		c1.407-1.502,3.425-2.252,6.052-2.252s4.638,0.757,6.03,2.269C467.847,227.053,468.542,229.229,468.542,232.067z M456.063,232.067
		c0,1.911,0.362,3.35,1.087,4.316c0.725,0.967,1.809,1.45,3.252,1.45c2.893,0,4.34-1.922,4.34-5.767
		c0-3.851-1.439-5.778-4.316-5.778c-1.443,0-2.53,0.486-3.263,1.457C456.428,228.716,456.063,230.157,456.063,232.067z"/>
	<path fill="#C73A22" d="M475.712,234.079v6.562h-3.626v-17.1h4.983c2.323,0,4.042,0.423,5.158,1.269
		c1.115,0.846,1.673,2.131,1.673,3.854c0,1.006-0.277,1.9-0.831,2.685c-0.554,0.783-1.337,1.397-2.35,1.841
		c2.573,3.845,4.249,6.328,5.029,7.451h-4.023l-4.082-6.562H475.712z M475.712,231.131h1.17c1.146,0,1.992-0.191,2.538-0.573
		c0.546-0.382,0.819-0.982,0.819-1.801c0-0.811-0.279-1.388-0.836-1.731c-0.558-0.343-1.421-0.515-2.591-0.515h-1.099V231.131z"/>
	<path fill="#C73A22" d="M501.654,240.641h-4.117l-4.48-7.205l-1.532,1.099v6.105h-3.626v-17.1h3.626v7.824l1.427-2.012l4.632-5.813
		h4.023l-5.965,7.567L501.654,240.641z"/>
	<path fill="#C73A22" d="M513.654,240.641h-9.848v-17.1h9.848v2.971h-6.222v3.754h5.789v2.971h-5.789v4.41h6.222V240.641z"/>
	<path fill="#C73A22" d="M520.847,234.079v6.562h-3.626v-17.1h4.983c2.323,0,4.043,0.423,5.158,1.269
		c1.114,0.846,1.672,2.131,1.672,3.854c0,1.006-0.277,1.9-0.83,2.685c-0.554,0.783-1.338,1.397-2.351,1.841
		c2.573,3.845,4.25,6.328,5.029,7.451h-4.023l-4.081-6.562H520.847z M520.847,231.131h1.17c1.146,0,1.992-0.191,2.539-0.573
		c0.545-0.382,0.819-0.982,0.819-1.801c0-0.811-0.279-1.388-0.836-1.731c-0.558-0.343-1.421-0.515-2.591-0.515h-1.099V231.131z"/>
	<path fill="#C73A22" d="M543.129,235.892c0,1.544-0.556,2.76-1.667,3.649c-1.111,0.889-2.656,1.333-4.637,1.333
		c-1.825,0-3.439-0.343-4.842-1.029v-3.368c1.154,0.515,2.131,0.877,2.93,1.087c0.8,0.211,1.531,0.316,2.193,0.316
		c0.795,0,1.405-0.153,1.83-0.457c0.426-0.304,0.638-0.756,0.638-1.357c0-0.335-0.094-0.633-0.281-0.895
		c-0.187-0.261-0.462-0.513-0.825-0.754c-0.362-0.241-1.101-0.628-2.216-1.158c-1.045-0.491-1.829-0.963-2.351-1.415
		s-0.939-0.979-1.251-1.579c-0.313-0.6-0.468-1.302-0.468-2.105c0-1.512,0.513-2.701,1.537-3.567
		c1.026-0.866,2.443-1.299,4.252-1.299c0.889,0,1.737,0.106,2.544,0.316c0.807,0.211,1.651,0.507,2.532,0.889l-1.17,2.818
		c-0.912-0.374-1.666-0.635-2.263-0.783c-0.596-0.148-1.183-0.223-1.76-0.223c-0.686,0-1.213,0.16-1.578,0.48
		c-0.367,0.32-0.55,0.736-0.55,1.251c0,0.32,0.074,0.599,0.223,0.837c0.148,0.238,0.384,0.468,0.707,0.691
		c0.324,0.222,1.089,0.621,2.298,1.199c1.598,0.764,2.694,1.53,3.287,2.298C542.832,233.835,543.129,234.777,543.129,235.892z"/>
	<path fill="#C73A22" d="M356.586,269.385l-1.24-4.07h-6.234l-1.24,4.07h-3.907l6.035-17.17h4.432l6.059,17.17H356.586z
		 M354.481,262.274c-1.146-3.688-1.791-5.774-1.935-6.258c-0.145-0.483-0.248-0.866-0.311-1.146
		c-0.257,0.998-0.994,3.467-2.21,7.404H354.481z"/>
	<path fill="#C73A22" d="M366.271,262.823v6.562h-3.626v-17.1h4.983c2.323,0,4.043,0.423,5.158,1.269
		c1.114,0.846,1.672,2.131,1.672,3.854c0,1.006-0.277,1.9-0.83,2.684c-0.554,0.783-1.338,1.397-2.351,1.841
		c2.573,3.845,4.25,6.328,5.029,7.451h-4.023l-4.081-6.562H366.271z M366.271,259.876h1.17c1.146,0,1.992-0.191,2.539-0.573
		c0.546-0.382,0.819-0.982,0.819-1.801c0-0.811-0.279-1.388-0.836-1.731s-1.421-0.515-2.591-0.515h-1.099V259.876z"/>
	<path fill="#C73A22" d="M388.306,269.385h-9.848v-17.1h9.848v2.971h-6.222v3.754h5.79v2.971h-5.79v4.41h6.222V269.385z"/>
	<path fill="#C73A22" d="M408.564,269.385l-1.24-4.07h-6.234l-1.24,4.07h-3.907l6.035-17.17h4.432l6.059,17.17H408.564z
		 M406.459,262.274c-1.146-3.688-1.791-5.774-1.935-6.258c-0.145-0.483-0.248-0.866-0.311-1.146
		c-0.257,0.998-0.994,3.467-2.21,7.404H406.459z"/>
	<path fill="#C73A22" d="M421.219,269.385h-3.626v-14.082h-4.643v-3.018h12.913v3.018h-4.644V269.385z"/>
	<path fill="#C73A22" d="M438.284,269.385h-3.568v-17.1h9.801v2.971h-6.234v4.409h5.801v2.96h-5.801V269.385z"/>
	<path fill="#C73A22" d="M451.489,262.823v6.562h-3.626v-17.1h4.983c2.323,0,4.043,0.423,5.158,1.269
		c1.114,0.846,1.672,2.131,1.672,3.854c0,1.006-0.277,1.9-0.83,2.684c-0.554,0.783-1.338,1.397-2.351,1.841
		c2.573,3.845,4.25,6.328,5.029,7.451h-4.023l-4.081-6.562H451.489z M451.489,259.876h1.17c1.146,0,1.992-0.191,2.539-0.573
		c0.546-0.382,0.819-0.982,0.819-1.801c0-0.811-0.279-1.388-0.837-1.731s-1.421-0.515-2.591-0.515h-1.099V259.876z"/>
	<path fill="#C73A22" d="M479.197,260.811c0,2.83-0.702,5.006-2.105,6.526c-1.404,1.521-3.415,2.281-6.035,2.281
		s-4.632-0.761-6.035-2.281s-2.105-3.703-2.105-6.55c0-2.845,0.704-5.019,2.111-6.52c1.407-1.502,3.425-2.252,6.053-2.252
		c2.627,0,4.637,0.757,6.029,2.269C478.501,255.798,479.197,257.973,479.197,260.811z M466.717,260.811
		c0,1.911,0.363,3.35,1.088,4.316c0.725,0.967,1.809,1.45,3.252,1.45c2.892,0,4.339-1.922,4.339-5.767
		c0-3.851-1.438-5.778-4.315-5.778c-1.443,0-2.531,0.486-3.264,1.457C467.084,257.461,466.717,258.902,466.717,260.811z"/>
	<path fill="#C73A22" d="M497.911,269.385h-4.608l-7.439-12.936h-0.106c0.148,2.285,0.223,3.914,0.223,4.889v8.047h-3.24v-17.1
		h4.574l7.427,12.807h0.082c-0.117-2.222-0.176-3.793-0.176-4.713v-8.094h3.264V269.385z"/>
	<path fill="#C73A22" d="M508.812,269.385h-3.626v-14.082h-4.644v-3.018h12.913v3.018h-4.643V269.385z"/>
	<path fill="#C73A22" d="M516.087,269.385v-17.1h3.626v14.106h6.935v2.994H516.087z"/>
	<path fill="#C73A22" d="M529.619,269.385v-17.1h3.626v17.1H529.619z"/>
	<path fill="#C73A22" d="M552.719,269.385h-4.608l-7.439-12.936h-0.106c0.148,2.285,0.223,3.914,0.223,4.889v8.047h-3.24v-17.1
		h4.574l7.427,12.807h0.082c-0.117-2.222-0.176-3.793-0.176-4.713v-8.094h3.264V269.385z"/>
	<path fill="#C73A22" d="M566.872,269.385h-9.848v-17.1h9.848v2.971h-6.222v3.754h5.789v2.971h-5.789v4.41h6.222V269.385z"/>
	<path fill="#C73A22" d="M357.932,286.363c0,1.84-0.575,3.248-1.725,4.222c-1.15,0.975-2.786,1.462-4.907,1.462h-1.555v6.082h-3.626
		v-17.1h5.462c2.074,0,3.651,0.446,4.732,1.339C357.392,283.261,357.932,284.593,357.932,286.363z M349.745,289.077h1.193
		c1.114,0,1.949-0.221,2.503-0.661c0.553-0.441,0.83-1.083,0.83-1.925c0-0.85-0.232-1.477-0.695-1.883
		c-0.464-0.405-1.192-0.608-2.182-0.608h-1.649V289.077z"/>
	<path fill="#C73A22" d="M376.68,289.556c0,2.83-0.702,5.006-2.105,6.526c-1.404,1.521-3.415,2.281-6.035,2.281
		s-4.632-0.761-6.035-2.281c-1.404-1.52-2.105-3.703-2.105-6.55c0-2.845,0.704-5.019,2.112-6.52
		c1.407-1.502,3.425-2.252,6.052-2.252c2.627,0,4.638,0.757,6.03,2.269C375.985,284.542,376.68,286.718,376.68,289.556z
		 M364.201,289.556c0,1.911,0.362,3.35,1.087,4.316c0.725,0.967,1.809,1.45,3.252,1.45c2.893,0,4.34-1.922,4.34-5.767
		c0-3.851-1.439-5.778-4.316-5.778c-1.443,0-2.53,0.486-3.263,1.457C364.567,286.205,364.201,287.646,364.201,289.556z"/>
	<path fill="#C73A22" d="M390.318,293.381c0,1.544-0.555,2.76-1.666,3.649c-1.111,0.889-2.657,1.333-4.637,1.333
		c-1.825,0-3.439-0.343-4.842-1.029v-3.368c1.154,0.515,2.131,0.877,2.93,1.087c0.799,0.211,1.53,0.316,2.193,0.316
		c0.795,0,1.405-0.153,1.83-0.457c0.425-0.304,0.637-0.756,0.637-1.357c0-0.335-0.094-0.633-0.281-0.895
		c-0.187-0.261-0.461-0.513-0.824-0.754c-0.362-0.241-1.101-0.628-2.217-1.158c-1.045-0.491-1.828-0.963-2.35-1.415
		c-0.523-0.452-0.94-0.979-1.252-1.579c-0.312-0.6-0.468-1.302-0.468-2.105c0-1.512,0.513-2.701,1.538-3.567
		s2.442-1.299,4.252-1.299c0.889,0,1.737,0.106,2.544,0.316c0.807,0.211,1.651,0.507,2.532,0.889l-1.17,2.818
		c-0.912-0.374-1.666-0.635-2.263-0.783c-0.596-0.148-1.184-0.223-1.76-0.223c-0.687,0-1.213,0.16-1.579,0.48
		s-0.549,0.736-0.549,1.251c0,0.32,0.074,0.599,0.222,0.837c0.148,0.238,0.385,0.468,0.708,0.691
		c0.323,0.222,1.089,0.621,2.298,1.199c1.598,0.764,2.694,1.53,3.286,2.298C390.021,291.324,390.318,292.266,390.318,293.381z"/>
	<path fill="#C73A22" d="M393.418,298.129v-17.1h3.626v17.1H393.418z"/>
	<path fill="#C73A22" d="M407.945,298.129h-3.626v-14.082h-4.644v-3.018h12.913v3.018h-4.643V298.129z"/>
	<path fill="#C73A22" d="M415.22,298.129v-17.1h3.626v17.1H415.22z"/>
	<path fill="#C73A22" d="M438.67,289.556c0,2.83-0.702,5.006-2.105,6.526c-1.404,1.521-3.415,2.281-6.035,2.281
		s-4.632-0.761-6.035-2.281c-1.404-1.52-2.105-3.703-2.105-6.55c0-2.845,0.704-5.019,2.112-6.52
		c1.407-1.502,3.425-2.252,6.052-2.252c2.627,0,4.638,0.757,6.03,2.269C437.975,284.542,438.67,286.718,438.67,289.556z
		 M426.191,289.556c0,1.911,0.362,3.35,1.087,4.316c0.725,0.967,1.809,1.45,3.252,1.45c2.893,0,4.34-1.922,4.34-5.767
		c0-3.851-1.439-5.778-4.316-5.778c-1.443,0-2.53,0.486-3.263,1.457C426.556,286.205,426.191,287.646,426.191,289.556z"/>
	<path fill="#C73A22" d="M457.384,298.129h-4.608l-7.439-12.936h-0.105c0.148,2.285,0.222,3.914,0.222,4.889v8.047h-3.239v-17.1
		h4.573l7.428,12.807h0.081c-0.117-2.222-0.175-3.793-0.175-4.713v-8.094h3.263V298.129z"/>
	<path fill="#C73A22" d="M471.782,293.381c0,1.544-0.556,2.76-1.667,3.649c-1.111,0.889-2.656,1.333-4.637,1.333
		c-1.825,0-3.439-0.343-4.842-1.029v-3.368c1.154,0.515,2.131,0.877,2.93,1.087c0.8,0.211,1.531,0.316,2.193,0.316
		c0.795,0,1.405-0.153,1.83-0.457c0.426-0.304,0.638-0.756,0.638-1.357c0-0.335-0.094-0.633-0.281-0.895s-0.462-0.513-0.825-0.754
		c-0.362-0.241-1.101-0.628-2.216-1.158c-1.045-0.491-1.829-0.963-2.351-1.415c-0.522-0.452-0.939-0.979-1.251-1.579
		c-0.313-0.6-0.468-1.302-0.468-2.105c0-1.512,0.513-2.701,1.537-3.567c1.026-0.866,2.443-1.299,4.252-1.299
		c0.889,0,1.737,0.106,2.544,0.316c0.807,0.211,1.651,0.507,2.532,0.889l-1.17,2.818c-0.912-0.374-1.666-0.635-2.263-0.783
		c-0.596-0.148-1.183-0.223-1.76-0.223c-0.686,0-1.213,0.16-1.579,0.48c-0.367,0.32-0.55,0.736-0.55,1.251
		c0,0.32,0.074,0.599,0.223,0.837c0.148,0.238,0.384,0.468,0.707,0.691c0.324,0.222,1.089,0.621,2.298,1.199
		c1.598,0.764,2.694,1.53,3.287,2.298C471.486,291.324,471.782,292.266,471.782,293.381z"/>
</g>
<path fill="#C73A22" d="M627.375,58.853c0,4.03-5.148,7.297-11.498,7.297H24.122c-6.35,0-11.498-3.267-11.498-7.297V26.021
	c0-4.03,5.148-7.297,11.498-7.297h591.756c6.35,0,11.498,3.267,11.498,7.297V58.853z"/>
<line fill="none" stroke="#FFFFFF" stroke-width="8" stroke-miterlimit="10" x1="48.852" y1="42.437" x2="591.148" y2="42.437"/>
<circle fill="#D58C84" cx="48.852" cy="42.437" r="10.541"/>
<circle fill="#FFFFFF" cx="358.735" cy="42.437" r="10.541"/>
<circle fill="#FFFFFF" cx="591.148" cy="42.437" r="10.541"/>
<circle fill="#D58C84" cx="203.794" cy="42.437" r="10.541"/>
<circle fill="#FFFFFF" cx="513.677" cy="42.437" r="10.541"/>
<path fill="none" stroke="#D58C84" stroke-width="8" stroke-miterlimit="10" d="M48.852,42.437l271.148,0"/>
<circle fill="#D58C84" cx="281.265" cy="42.437" r="10.541"/>
<circle fill="#D58C84" cx="126.323" cy="42.437" r="10.541"/>
<circle fill="#FFFFFF" cx="436.206" cy="42.437" r="10.541"/>
</svg>
