<?xml version="1.0" encoding="utf-8"?>
<!-- Generator: Adobe Illustrator 17.0.0, SVG Export Plug-In . SVG Version: 6.00 Build 0)  -->
<!DOCTYPE svg PUBLIC "-//W3C//DTD SVG 1.1//EN" "http://www.w3.org/Graphics/SVG/1.1/DTD/svg11.dtd">
<svg version="1.1" id="Layer_1" xmlns="http://www.w3.org/2000/svg" xmlns:xlink="http://www.w3.org/1999/xlink" x="0px" y="0px"
	 width="640px" height="622.088px" viewBox="0 0 640 622.088" enable-background="new 0 0 640 622.088" xml:space="preserve">
<g>
	<path fill="#242859" d="M335.086,405.698V198.871c114.227,0,206.827,92.6,206.827,206.827s-92.6,206.827-206.827,206.827
		c-100.52,0-183.847-68.689-203.027-167.362L335.086,405.698z"/>
</g>
<g>
	<path fill="#6C73C2" d="M317.649,361.919l-160.735-130.16c40.256-49.712,96.767-76.666,160.735-76.666V361.919z"/>
</g>
<g>
	<path fill="#353C86" d="M305.343,395.014l-203.027,39.464c-12.206-62.792,2.036-119.913,42.292-169.625L305.343,395.014z"/>
</g>
<g>
	<path fill="#FFFFFF" d="M269.139,481.293l5.982-9.47h-4.789l0.584-2.728h8.594l-0.426,1.927l-6.207,10.271H269.139z"/>
	<path fill="#FFFFFF" d="M288.153,471.807c0,0.823-0.249,1.505-0.747,2.044c-0.498,0.54-1.2,0.901-2.106,1.085v0.067
		c0.718,0.139,1.279,0.449,1.685,0.93c0.406,0.481,0.609,1.072,0.609,1.773c0,1.201-0.495,2.128-1.485,2.778
		s-2.331,0.976-4.022,0.976c-0.645,0-1.251-0.057-1.814-0.171c-0.565-0.114-1.031-0.277-1.398-0.488v-2.77
		c0.929,0.556,1.977,0.834,3.145,0.834c0.768,0,1.341-0.129,1.723-0.388c0.38-0.259,0.571-0.63,0.571-1.114
		c0-0.3-0.075-0.526-0.225-0.676s-0.389-0.26-0.718-0.33c-0.328-0.07-0.79-0.104-1.385-0.104h-0.701l0.442-2.428h0.651
		c0.818,0,1.455-0.129,1.911-0.388c0.456-0.259,0.684-0.613,0.684-1.064c0-0.256-0.1-0.462-0.3-0.617
		c-0.2-0.156-0.476-0.234-0.826-0.234c-0.651,0-1.402,0.234-2.253,0.701l-1.318-2.069c0.701-0.451,1.378-0.769,2.032-0.955
		c0.653-0.186,1.372-0.28,2.156-0.28c1.118,0,2.012,0.259,2.683,0.776C287.818,470.214,288.153,470.917,288.153,471.807z"/>
	<path fill="#FFFFFF" d="M295.696,471.607c0,0.918-0.158,1.76-0.471,2.528c-0.315,0.768-0.755,1.367-1.318,1.798
		c-0.565,0.431-1.206,0.647-1.924,0.647c-0.884,0-1.546-0.232-1.986-0.697c-0.439-0.464-0.659-1.128-0.659-1.99
		c0-0.962,0.15-1.823,0.451-2.582c0.3-0.759,0.73-1.347,1.289-1.765c0.56-0.417,1.22-0.626,1.982-0.626
		c0.818,0,1.461,0.236,1.932,0.709C295.46,470.102,295.696,470.761,295.696,471.607z M302.27,469.095l-9.019,12.198h-2.478
		l9.086-12.198H302.27z M292.826,470.939c-0.278,0-0.525,0.306-0.738,0.918c-0.215,0.612-0.322,1.279-0.322,2.002
		c0,0.467,0.147,0.701,0.442,0.701c0.289,0,0.538-0.307,0.747-0.922c0.208-0.615,0.312-1.281,0.312-1.998
		c0-0.239-0.033-0.416-0.1-0.53C293.101,470.996,292.987,470.939,292.826,470.939z M303.847,476.496c0,0.912-0.156,1.752-0.467,2.52
		c-0.311,0.768-0.751,1.367-1.318,1.798c-0.567,0.431-1.21,0.647-1.927,0.647c-0.884,0-1.546-0.231-1.986-0.693
		s-0.659-1.124-0.659-1.986c0-0.962,0.15-1.823,0.451-2.582c0.3-0.759,0.73-1.347,1.29-1.765c0.558-0.417,1.219-0.626,1.981-0.626
		c0.818,0,1.461,0.236,1.931,0.709C303.612,474.991,303.847,475.651,303.847,476.496z M300.977,475.829
		c-0.278,0-0.525,0.306-0.739,0.918s-0.321,1.279-0.321,2.002c0,0.467,0.147,0.701,0.442,0.701c0.289,0,0.539-0.307,0.746-0.922
		c0.21-0.615,0.313-1.281,0.313-1.998c0-0.245-0.033-0.423-0.1-0.534S301.138,475.829,300.977,475.829z"/>
	<path fill="#FFFFFF" d="M312.841,478.34l0.334-0.868l0.784-1.936l2.795-6.441h2.803v6.608c0,0.868-0.072,1.747-0.217,2.637
		c0.056-0.156,0.426-1.118,1.11-2.887l2.528-6.358h3.229l-5.298,12.198h-3.846v-5.173c0-0.862,0.036-1.763,0.108-2.703
		c-0.184,0.74-0.512,1.71-0.985,2.912l-2.111,4.964h-3.621l-0.409-12.198h3.087l-0.083,6.116
		C313.016,476.696,312.947,477.739,312.841,478.34z"/>
	<path fill="#FFFFFF" d="M334.459,481.293h-3.262l1.043-4.973h-2.887l-1.06,4.973h-3.262l2.578-12.198h3.262l-0.934,4.522h2.903
		l0.934-4.522h3.271L334.459,481.293z"/>
	<path fill="#FFFFFF" d="M337.212,481.293l2.578-12.198h3.312l-2.578,12.198H337.212z"/>
	<path fill="#FFFFFF" d="M348.251,481.293h-3.262l1.977-9.503h-2.645l0.576-2.695h8.577l-0.592,2.695h-2.653L348.251,481.293z"/>
	<path fill="#FFFFFF" d="M359.965,481.293h-7.242l2.578-12.198h7.242L362,471.74h-3.98l-0.392,1.919h3.704l-0.601,2.645h-3.704
		l-0.476,2.303h3.98L359.965,481.293z"/>
	<path fill="#FFFFFF" d="M371.395,481.293v-8.752h-0.067c-0.373,2.319-0.612,3.743-0.718,4.272l-0.943,4.48h-2.904l2.578-12.198
		h4.322v8.66h0.067l3.988-8.66h4.389l-2.611,12.198h-2.929l0.976-4.581c0.278-1.268,0.578-2.481,0.901-3.638l0.125-0.534h-0.067
		l-4.022,8.752H371.395z"/>
	<path fill="#FFFFFF" d="M389.542,481.293H382.3l2.578-12.198h7.242l-0.542,2.645h-3.98l-0.392,1.919h3.704l-0.601,2.645h-3.704
		l-0.476,2.303h3.98L389.542,481.293z"/>
	<path fill="#FFFFFF" d="M402.633,481.293h-3.796l-2.411-8.577h-0.067c-0.161,1.619-0.32,2.781-0.476,3.488l-1.076,5.089h-2.904
		l2.578-12.198h3.796l2.386,8.202h0.075c0.161-1.313,0.32-2.345,0.476-3.095l1.093-5.106h2.903L402.633,481.293z"/>
</g>
<g>
	<g>
		<path fill="#FFFFFF" d="M218.586,231.607h-3.246l1.452-6.666c0.156-0.734,0.367-1.446,0.634-2.136
			c-0.434,0.378-0.798,0.665-1.093,0.859l-1.694,1.043l-1.26-2.103l5.173-3.196h2.595L218.586,231.607z"/>
		<path fill="#FFFFFF" d="M230.926,229.246h-1.252l-0.492,2.361h-3.145l0.501-2.361h-4.581l0.426-2.136l6.358-7.701h3.004
			l-1.552,7.376h1.243L230.926,229.246z M227.046,226.784l0.409-1.619c0.161-0.595,0.328-1.182,0.501-1.76h-0.075
			c-0.284,0.54-0.601,1.018-0.951,1.435l-1.627,1.944H227.046z"/>
		<path fill="#FFFFFF" d="M238.977,221.92c0,0.918-0.158,1.76-0.471,2.528c-0.315,0.768-0.755,1.367-1.318,1.798
			c-0.566,0.431-1.206,0.647-1.924,0.647c-0.884,0-1.546-0.232-1.986-0.697c-0.439-0.464-0.659-1.128-0.659-1.99
			c0-0.962,0.15-1.823,0.451-2.582c0.3-0.759,0.73-1.347,1.289-1.765c0.56-0.417,1.22-0.626,1.982-0.626
			c0.818,0,1.461,0.236,1.932,0.709C238.742,220.415,238.977,221.075,238.977,221.92z M245.552,219.409l-9.019,12.198h-2.478
			l9.086-12.198H245.552z M236.107,221.253c-0.278,0-0.525,0.306-0.738,0.918c-0.215,0.612-0.322,1.279-0.322,2.002
			c0,0.467,0.147,0.701,0.442,0.701c0.289,0,0.538-0.307,0.747-0.922c0.208-0.615,0.312-1.281,0.312-1.998
			c0-0.239-0.033-0.416-0.1-0.53C236.383,221.31,236.268,221.253,236.107,221.253z M247.129,226.809c0,0.912-0.156,1.752-0.467,2.52
			c-0.311,0.768-0.751,1.367-1.318,1.798c-0.567,0.431-1.21,0.647-1.927,0.647c-0.884,0-1.546-0.231-1.986-0.692
			c-0.439-0.462-0.659-1.124-0.659-1.986c0-0.962,0.15-1.823,0.451-2.582c0.3-0.759,0.73-1.347,1.29-1.765
			c0.558-0.417,1.219-0.626,1.981-0.626c0.818,0,1.461,0.236,1.931,0.709C246.893,225.305,247.129,225.964,247.129,226.809z
			 M244.259,226.142c-0.278,0-0.525,0.306-0.739,0.918s-0.321,1.279-0.321,2.002c0,0.467,0.147,0.701,0.442,0.701
			c0.289,0,0.539-0.307,0.746-0.922c0.21-0.615,0.313-1.281,0.313-1.998c0-0.245-0.033-0.423-0.1-0.534
			C244.534,226.197,244.42,226.142,244.259,226.142z"/>
		<path fill="#FFFFFF" d="M256.123,228.653l0.334-0.868l0.784-1.936l2.795-6.441h2.803v6.608c0,0.868-0.072,1.747-0.217,2.637
			c0.056-0.156,0.426-1.118,1.11-2.887l2.528-6.358h3.229l-5.298,12.198h-3.846v-5.173c0-0.862,0.036-1.763,0.108-2.703
			c-0.184,0.74-0.512,1.71-0.985,2.912l-2.111,4.964h-3.621l-0.409-12.198h3.087l-0.083,6.116
			C256.298,227.01,256.229,228.052,256.123,228.653z"/>
		<path fill="#FFFFFF" d="M277.741,231.607h-3.262l1.043-4.973h-2.887l-1.06,4.973h-3.262l2.578-12.198h3.262l-0.934,4.522h2.904
			l0.934-4.522h3.271L277.741,231.607z"/>
		<path fill="#FFFFFF" d="M280.494,231.607l2.578-12.198h3.312l-2.578,12.198H280.494z"/>
		<path fill="#FFFFFF" d="M291.532,231.607h-3.262l1.977-9.503h-2.645l0.576-2.695h8.577l-0.592,2.695h-2.653L291.532,231.607z"/>
		<path fill="#FFFFFF" d="M303.246,231.607h-7.242l2.578-12.198h7.242l-0.542,2.645h-3.98l-0.392,1.919h3.704l-0.601,2.645h-3.704
			l-0.476,2.303h3.98L303.246,231.607z"/>
		<path fill="#FFFFFF" d="M216.192,249.158l0.334-0.868l0.784-1.936l2.795-6.441h2.803v6.608c0,0.868-0.072,1.747-0.217,2.637
			c0.056-0.156,0.426-1.118,1.11-2.887l2.528-6.358h3.229l-5.298,12.198h-3.846v-5.173c0-0.862,0.036-1.763,0.108-2.703
			c-0.184,0.74-0.512,1.71-0.985,2.912l-2.111,4.964h-3.621l-0.409-12.198h3.087l-0.083,6.116
			C216.367,247.514,216.297,248.557,216.192,249.158z"/>
		<path fill="#FFFFFF" d="M235.59,239.722c1.446,0,2.571,0.413,3.375,1.239c0.803,0.826,1.205,1.979,1.205,3.458
			s-0.277,2.833-0.831,4.059c-0.553,1.226-1.316,2.167-2.29,2.82c-0.973,0.654-2.103,0.98-3.387,0.98
			c-1.496,0-2.652-0.414-3.467-1.243c-0.815-0.829-1.222-1.98-1.222-3.454s0.286-2.828,0.859-4.063
			c0.573-1.235,1.353-2.176,2.341-2.824C233.16,240.046,234.299,239.722,235.59,239.722z M236.875,244.452
			c0-0.634-0.133-1.131-0.4-1.489c-0.267-0.359-0.654-0.538-1.16-0.538c-0.551,0-1.057,0.234-1.518,0.701
			c-0.462,0.467-0.831,1.11-1.105,1.927c-0.276,0.818-0.413,1.655-0.413,2.511c0,1.346,0.556,2.019,1.669,2.019
			c0.528,0,1.019-0.231,1.472-0.693c0.453-0.462,0.81-1.085,1.068-1.869C236.746,246.238,236.875,245.381,236.875,244.452z"/>
		<path fill="#FFFFFF" d="M245.602,252.111v-8.752h-0.067c-0.373,2.319-0.612,3.743-0.718,4.272l-0.943,4.48h-2.904l2.578-12.198
			h4.322v8.66h0.067l3.988-8.66h4.389l-2.611,12.198h-2.929l0.976-4.581c0.278-1.268,0.578-2.481,0.901-3.638l0.125-0.534h-0.067
			l-4.022,8.752H245.602z"/>
		<path fill="#FFFFFF" d="M263.749,252.111h-7.242l2.578-12.198h7.242l-0.542,2.645h-3.98l-0.392,1.919h3.704l-0.601,2.645h-3.704
			l-0.476,2.303h3.98L263.749,252.111z"/>
		<path fill="#FFFFFF" d="M276.84,252.111h-3.796l-2.411-8.577h-0.067c-0.161,1.619-0.32,2.781-0.476,3.488l-1.076,5.089h-2.904
			l2.578-12.198h3.796l2.386,8.202h0.075c0.161-1.313,0.32-2.344,0.476-3.095l1.093-5.106h2.904L276.84,252.111z"/>
	</g>
</g>
<g>
	<g>
		<path fill="#FFFFFF" d="M124.958,362.652h-3.246l1.452-6.666c0.156-0.734,0.367-1.446,0.634-2.136
			c-0.434,0.378-0.798,0.665-1.093,0.859l-1.694,1.043l-1.26-2.103l5.173-3.196h2.595L124.958,362.652z"/>
		<path fill="#FFFFFF" d="M137.806,353.165c0,0.823-0.249,1.505-0.747,2.044c-0.498,0.54-1.2,0.901-2.106,1.085v0.067
			c0.718,0.139,1.279,0.449,1.685,0.93c0.406,0.481,0.609,1.072,0.609,1.773c0,1.201-0.495,2.128-1.485,2.778
			s-2.331,0.976-4.022,0.976c-0.645,0-1.251-0.057-1.814-0.171c-0.565-0.114-1.031-0.277-1.398-0.488v-2.77
			c0.929,0.556,1.977,0.834,3.145,0.834c0.768,0,1.341-0.129,1.723-0.388c0.38-0.259,0.571-0.63,0.571-1.114
			c0-0.3-0.075-0.526-0.225-0.676c-0.15-0.15-0.389-0.26-0.718-0.33c-0.328-0.07-0.79-0.104-1.385-0.104h-0.701l0.442-2.428h0.651
			c0.818,0,1.455-0.129,1.911-0.388s0.684-0.613,0.684-1.064c0-0.256-0.1-0.462-0.3-0.617c-0.2-0.156-0.476-0.234-0.826-0.234
			c-0.651,0-1.402,0.234-2.253,0.701l-1.318-2.069c0.701-0.451,1.378-0.769,2.032-0.955c0.653-0.186,1.372-0.28,2.156-0.28
			c1.118,0,2.012,0.259,2.683,0.776C137.471,351.572,137.806,352.275,137.806,353.165z"/>
		<path fill="#FFFFFF" d="M145.349,352.965c0,0.918-0.158,1.76-0.471,2.528c-0.315,0.768-0.755,1.367-1.318,1.798
			c-0.565,0.431-1.206,0.647-1.924,0.647c-0.884,0-1.546-0.232-1.986-0.697c-0.439-0.464-0.659-1.128-0.659-1.99
			c0-0.962,0.15-1.823,0.451-2.582c0.3-0.759,0.731-1.347,1.289-1.765c0.56-0.417,1.22-0.626,1.982-0.626
			c0.818,0,1.461,0.236,1.932,0.709C145.113,351.46,145.349,352.119,145.349,352.965z M151.923,350.454l-9.019,12.198h-2.478
			l9.086-12.198H151.923z M142.479,352.297c-0.278,0-0.525,0.306-0.738,0.918c-0.215,0.612-0.322,1.279-0.322,2.002
			c0,0.467,0.147,0.701,0.442,0.701c0.289,0,0.538-0.307,0.747-0.922c0.208-0.615,0.312-1.281,0.312-1.998
			c0-0.239-0.033-0.416-0.1-0.53C142.754,352.354,142.64,352.297,142.479,352.297z M153.5,357.854c0,0.912-0.156,1.752-0.467,2.52
			c-0.311,0.768-0.751,1.367-1.318,1.798c-0.567,0.431-1.21,0.647-1.927,0.647c-0.884,0-1.546-0.231-1.986-0.693
			c-0.439-0.462-0.659-1.124-0.659-1.986c0-0.962,0.15-1.823,0.451-2.582c0.3-0.759,0.73-1.347,1.29-1.765
			c0.558-0.417,1.219-0.626,1.981-0.626c0.818,0,1.461,0.236,1.931,0.709C153.265,356.35,153.5,357.009,153.5,357.854z
			 M150.63,357.187c-0.278,0-0.525,0.306-0.739,0.918c-0.214,0.612-0.321,1.279-0.321,2.002c0,0.467,0.147,0.701,0.442,0.701
			c0.289,0,0.539-0.307,0.746-0.922c0.21-0.615,0.313-1.281,0.313-1.998c0-0.245-0.033-0.423-0.1-0.534
			C150.906,357.242,150.791,357.187,150.63,357.187z"/>
		<path fill="#FFFFFF" d="M168.869,354.108c0,1.402-0.477,2.502-1.43,3.3c-0.955,0.798-2.26,1.197-3.918,1.197h-0.718l-0.834,4.047
			h-3.262l2.578-12.198h3.112c1.441,0,2.546,0.316,3.316,0.947C168.483,352.032,168.869,352.934,168.869,354.108z M163.387,355.935
			h0.526c0.506,0,0.915-0.163,1.226-0.488c0.311-0.325,0.467-0.738,0.467-1.239c0-0.328-0.1-0.592-0.3-0.793
			c-0.2-0.2-0.476-0.3-0.826-0.3h-0.492L163.387,355.935z"/>
		<path fill="#FFFFFF" d="M176.595,362.652h-7.242l2.578-12.198h7.242l-0.542,2.645h-3.98l-0.392,1.919h3.704l-0.601,2.645h-3.704
			l-0.476,2.303h3.98L176.595,362.652z"/>
		<path fill="#FFFFFF" d="M186.165,350.262c1.446,0,2.571,0.413,3.375,1.239c0.803,0.826,1.205,1.979,1.205,3.458
			s-0.277,2.833-0.831,4.059c-0.553,1.226-1.316,2.167-2.29,2.82c-0.973,0.654-2.103,0.98-3.387,0.98
			c-1.496,0-2.652-0.414-3.467-1.243c-0.815-0.829-1.222-1.98-1.222-3.454s0.286-2.828,0.859-4.063
			c0.573-1.235,1.353-2.176,2.341-2.824C183.735,350.586,184.874,350.262,186.165,350.262z M187.45,354.992
			c0-0.634-0.133-1.131-0.4-1.489c-0.267-0.359-0.654-0.538-1.16-0.538c-0.551,0-1.057,0.234-1.518,0.701s-0.831,1.11-1.105,1.927
			c-0.276,0.818-0.413,1.655-0.413,2.511c0,1.346,0.556,2.019,1.669,2.019c0.528,0,1.019-0.231,1.472-0.693s0.81-1.085,1.068-1.869
			C187.321,356.778,187.45,355.921,187.45,354.992z"/>
		<path fill="#FFFFFF" d="M201.708,354.108c0,1.402-0.477,2.502-1.43,3.3c-0.955,0.798-2.26,1.197-3.918,1.197h-0.718l-0.834,4.047
			h-3.262l2.578-12.198h3.112c1.441,0,2.546,0.316,3.316,0.947S201.708,352.934,201.708,354.108z M196.227,355.935h0.526
			c0.506,0,0.915-0.163,1.226-0.488c0.311-0.325,0.467-0.738,0.467-1.239c0-0.328-0.1-0.592-0.3-0.793c-0.2-0.2-0.476-0.3-0.826-0.3
			h-0.492L196.227,355.935z"/>
		<path fill="#FFFFFF" d="M202.192,362.652l2.578-12.198h3.262l-2.011,9.536h3.98l-0.567,2.662H202.192z"/>
		<path fill="#FFFFFF" d="M218.437,362.652h-7.242l2.578-12.198h7.242l-0.542,2.645h-3.98l-0.392,1.919h3.704l-0.601,2.645H215.5
			l-0.476,2.303h3.98L218.437,362.652z"/>
		<path fill="#FFFFFF" d="M125.984,370.766c1.446,0,2.571,0.413,3.375,1.239c0.803,0.826,1.205,1.979,1.205,3.458
			s-0.277,2.833-0.831,4.059c-0.553,1.226-1.316,2.167-2.29,2.82s-2.103,0.98-3.387,0.98c-1.496,0-2.652-0.414-3.467-1.243
			c-0.815-0.829-1.222-1.98-1.222-3.454s0.286-2.828,0.859-4.063c0.573-1.235,1.353-2.176,2.341-2.824
			C123.554,371.09,124.693,370.766,125.984,370.766z M127.269,375.497c0-0.634-0.133-1.131-0.4-1.489
			c-0.267-0.359-0.654-0.538-1.16-0.538c-0.551,0-1.057,0.234-1.518,0.701c-0.462,0.467-0.831,1.11-1.105,1.927
			c-0.276,0.818-0.413,1.655-0.413,2.511c0,1.346,0.556,2.019,1.669,2.019c0.528,0,1.019-0.231,1.472-0.693s0.81-1.085,1.068-1.869
			C127.14,377.283,127.269,376.426,127.269,375.497z"/>
		<path fill="#FFFFFF" d="M134.628,383.156h-3.262l2.578-12.198h7.192l-0.559,2.645h-3.93l-0.484,2.328h3.638l-0.576,2.662h-3.654
			L134.628,383.156z"/>
		<path fill="#FFFFFF" d="M152.599,373.486c-0.601,0-1.143,0.217-1.627,0.651s-0.864,1.032-1.138,1.794
			c-0.276,0.762-0.413,1.588-0.413,2.478c0,0.745,0.156,1.302,0.467,1.669c0.311,0.367,0.759,0.551,1.343,0.551
			c0.462,0,0.929-0.057,1.402-0.171c0.473-0.114,1.029-0.307,1.669-0.58v2.695c-1.129,0.501-2.353,0.751-3.671,0.751
			c-1.446,0-2.561-0.413-3.342-1.239c-0.781-0.826-1.172-1.995-1.172-3.508c0-1.48,0.282-2.837,0.847-4.072
			c0.564-1.235,1.331-2.166,2.303-2.795c0.97-0.629,2.081-0.943,3.333-0.943c1.474,0,2.812,0.364,4.013,1.093l-1.235,2.545
			c-0.517-0.306-0.993-0.535-1.427-0.688C153.517,373.563,153.066,373.486,152.599,373.486z"/>
		<path fill="#FFFFFF" d="M163.496,370.766c1.446,0,2.571,0.413,3.375,1.239c0.803,0.826,1.205,1.979,1.205,3.458
			s-0.277,2.833-0.831,4.059c-0.553,1.226-1.316,2.167-2.29,2.82c-0.973,0.654-2.103,0.98-3.387,0.98
			c-1.496,0-2.652-0.414-3.467-1.243c-0.815-0.829-1.222-1.98-1.222-3.454s0.286-2.828,0.859-4.063
			c0.573-1.235,1.353-2.176,2.341-2.824C161.066,371.09,162.205,370.766,163.496,370.766z M164.781,375.497
			c0-0.634-0.133-1.131-0.4-1.489c-0.267-0.359-0.654-0.538-1.16-0.538c-0.551,0-1.057,0.234-1.519,0.701
			c-0.462,0.467-0.831,1.11-1.105,1.927c-0.276,0.818-0.413,1.655-0.413,2.511c0,1.346,0.556,2.019,1.669,2.019
			c0.528,0,1.019-0.231,1.472-0.693s0.81-1.085,1.068-1.869C164.652,377.283,164.781,376.426,164.781,375.497z"/>
		<path fill="#FFFFFF" d="M168.877,383.156l2.578-12.198h3.262l-2.011,9.536h3.98l-0.567,2.662H168.877z"/>
		<path fill="#FFFFFF" d="M185.088,370.766c1.446,0,2.571,0.413,3.375,1.239c0.803,0.826,1.205,1.979,1.205,3.458
			s-0.277,2.833-0.831,4.059c-0.553,1.226-1.316,2.167-2.29,2.82c-0.973,0.654-2.103,0.98-3.387,0.98
			c-1.496,0-2.652-0.414-3.467-1.243c-0.815-0.829-1.222-1.98-1.222-3.454s0.286-2.828,0.859-4.063
			c0.573-1.235,1.353-2.176,2.341-2.824C182.659,371.09,183.798,370.766,185.088,370.766z M186.373,375.497
			c0-0.634-0.133-1.131-0.4-1.489c-0.267-0.359-0.654-0.538-1.16-0.538c-0.551,0-1.057,0.234-1.518,0.701
			c-0.462,0.467-0.831,1.11-1.105,1.927c-0.276,0.818-0.413,1.655-0.413,2.511c0,1.346,0.556,2.019,1.669,2.019
			c0.528,0,1.019-0.231,1.472-0.693s0.81-1.085,1.068-1.869C186.244,377.283,186.373,376.426,186.373,375.497z"/>
		<path fill="#FFFFFF" d="M194.675,378.718l-0.943,4.439h-3.262l2.578-12.198h3.229c1.402,0,2.475,0.278,3.221,0.834
			c0.745,0.556,1.118,1.393,1.118,2.511c0,0.868-0.197,1.624-0.592,2.269c-0.395,0.645-0.982,1.137-1.76,1.477l1.869,4.305
			l0.334,0.801h-3.554l-1.627-4.439H194.675z M195.201,376.24h0.426c0.528,0,0.948-0.152,1.26-0.455
			c0.311-0.303,0.467-0.727,0.467-1.272c0-0.345-0.096-0.608-0.287-0.788c-0.193-0.181-0.472-0.271-0.839-0.271h-0.442
			L195.201,376.24z"/>
	</g>
</g>
<rect x="70.451" y="111.09" fill="#808184" width="510.263" height="27.939"/>
<g>
	<path fill="#FFFFFF" d="M242.423,121.876c-0.697,0-1.242,0.286-1.633,0.857c-0.39,0.572-0.587,1.36-0.587,2.364
		c0,2.088,0.795,3.132,2.382,3.132c0.48,0,0.946-0.067,1.396-0.2c0.451-0.133,0.903-0.294,1.358-0.483v2.479
		c-0.906,0.401-1.929,0.601-3.073,0.601c-1.637,0-2.893-0.475-3.767-1.425c-0.873-0.95-1.31-2.323-1.31-4.119
		c0-1.123,0.211-2.11,0.634-2.961c0.424-0.851,1.033-1.506,1.826-1.963c0.794-0.457,1.728-0.686,2.802-0.686
		c1.174,0,2.294,0.255,3.363,0.764l-0.899,2.308c-0.4-0.188-0.801-0.346-1.201-0.475
		C243.314,121.94,242.884,121.876,242.423,121.876z"/>
	<path fill="#FFFFFF" d="M253.898,130.478h-6.443v-10.851h6.443v2.353h-3.511v1.707h3.251v2.353h-3.251v2.048h3.511V130.478z"/>
	<path fill="#FFFFFF" d="M265.951,125.038c0,1.826-0.448,3.214-1.343,4.164c-0.896,0.95-2.207,1.425-3.933,1.425
		c-1.702,0-3.007-0.477-3.916-1.432c-0.908-0.955-1.362-2.345-1.362-4.171c0-1.806,0.451-3.185,1.354-4.138
		c0.903-0.953,2.216-1.429,3.938-1.429c1.726,0,3.035,0.472,3.926,1.417C265.506,121.819,265.951,123.207,265.951,125.038z
		 M258.485,125.038c0,2.098,0.73,3.147,2.19,3.147c0.742,0,1.292-0.254,1.651-0.764c0.359-0.509,0.539-1.304,0.539-2.382
		c0-1.084-0.183-1.884-0.546-2.401c-0.364-0.517-0.907-0.775-1.629-0.775C259.219,121.861,258.485,122.92,258.485,125.038z"/>
	<path fill="#FFFFFF" d="M274.234,127.895c0,0.901-0.306,1.581-0.92,2.041c-0.614,0.46-1.494,0.69-2.642,0.69
		c-0.624,0-1.165-0.033-1.626-0.1c-0.46-0.067-0.93-0.189-1.41-0.368v-2.323c0.451,0.198,0.945,0.361,1.48,0.489
		c0.538,0.129,1.016,0.193,1.437,0.193c0.629,0,0.942-0.144,0.942-0.431c0-0.148-0.087-0.281-0.263-0.397
		c-0.176-0.116-0.686-0.343-1.532-0.679c-0.772-0.317-1.312-0.676-1.618-1.08c-0.308-0.403-0.461-0.914-0.461-1.532
		c0-0.782,0.301-1.391,0.906-1.826c0.603-0.435,1.457-0.653,2.56-0.653c0.554,0,1.075,0.061,1.563,0.182
		c0.487,0.121,0.993,0.298,1.517,0.531l-0.786,1.87c-0.386-0.173-0.794-0.32-1.225-0.442c-0.431-0.121-0.781-0.182-1.054-0.182
		c-0.475,0-0.712,0.116-0.712,0.349c0,0.143,0.083,0.266,0.248,0.367c0.165,0.102,0.644,0.308,1.436,0.62
		c0.589,0.242,1.028,0.48,1.317,0.712c0.289,0.233,0.502,0.506,0.638,0.82C274.167,127.063,274.234,127.445,274.234,127.895z"/>
	<path fill="#FFFFFF" d="M279.965,130.478v-10.851h2.946v10.851H279.965z"/>
	<path fill="#FFFFFF" d="M295.587,130.478h-3.844l-3.964-7.645h-0.067c0.095,1.202,0.141,2.121,0.141,2.754v4.891h-2.598v-10.851
		h3.83l3.948,7.541h0.044c-0.069-1.094-0.104-1.972-0.104-2.635v-4.906h2.612V130.478z"/>
	<path fill="#FFFFFF" d="M306.669,130.478h-2.931v-8.454h-2.649v-2.397h8.223v2.397h-2.642V130.478z"/>
	<path fill="#FFFFFF" d="M320.162,130.478h-2.946v-4.423h-3.407v4.423h-2.946v-10.851h2.946v4.023h3.407v-4.023h2.946V130.478z"/>
	<path fill="#FFFFFF" d="M328.95,130.478h-6.442v-10.851h6.442v2.353h-3.51v1.707h3.25v2.353h-3.25v2.048h3.51V130.478z"/>
	<path fill="#FFFFFF" d="M337.686,130.478h-2.887v-10.851h6.412v2.353h-3.526v2.071h3.25v2.353h-3.25V130.478z"/>
	<path fill="#FFFFFF" d="M353.145,125.038c0,1.826-0.447,3.214-1.342,4.164c-0.896,0.95-2.206,1.425-3.934,1.425
		c-1.702,0-3.007-0.477-3.914-1.432c-0.909-0.955-1.363-2.345-1.363-4.171c0-1.806,0.451-3.185,1.355-4.138
		c0.903-0.953,2.215-1.429,3.936-1.429c1.728,0,3.037,0.472,3.927,1.417C352.7,121.819,353.145,123.207,353.145,125.038z
		 M345.679,125.038c0,2.098,0.73,3.147,2.19,3.147c0.743,0,1.292-0.254,1.652-0.764c0.358-0.509,0.538-1.304,0.538-2.382
		c0-1.084-0.182-1.884-0.545-2.401c-0.363-0.517-0.907-0.775-1.63-0.775C346.415,121.861,345.679,122.92,345.679,125.038z"/>
	<path fill="#FFFFFF" d="M365.258,125.038c0,1.826-0.447,3.214-1.342,4.164c-0.896,0.95-2.206,1.425-3.934,1.425
		c-1.702,0-3.007-0.477-3.914-1.432c-0.909-0.955-1.363-2.345-1.363-4.171c0-1.806,0.452-3.185,1.355-4.138
		c0.903-0.953,2.216-1.429,3.936-1.429c1.728,0,3.037,0.472,3.927,1.417C364.813,121.819,365.258,123.207,365.258,125.038z
		 M357.792,125.038c0,2.098,0.73,3.147,2.19,3.147c0.743,0,1.292-0.254,1.652-0.764c0.358-0.509,0.538-1.304,0.538-2.382
		c0-1.084-0.182-1.884-0.545-2.401c-0.363-0.517-0.907-0.775-1.63-0.775C358.528,121.861,357.792,122.92,357.792,125.038z"/>
	<path fill="#FFFFFF" d="M376.429,124.823c0,1.811-0.499,3.206-1.496,4.186c-0.996,0.979-2.397,1.469-4.203,1.469h-3.512v-10.851
		h3.756c1.741,0,3.085,0.445,4.033,1.336C375.954,121.854,376.429,123.14,376.429,124.823z M373.386,124.926
		c0-0.995-0.197-1.732-0.59-2.212c-0.395-0.48-0.992-0.72-1.793-0.72h-0.855v6.079h0.654c0.89,0,1.543-0.259,1.96-0.775
		C373.179,126.78,373.386,125.99,373.386,124.926z"/>
	<path fill="#FFFFFF" d="M387.153,121.876c-0.697,0-1.242,0.286-1.632,0.857c-0.391,0.572-0.588,1.36-0.588,2.364
		c0,2.088,0.795,3.132,2.383,3.132c0.48,0,0.946-0.067,1.396-0.2c0.451-0.133,0.903-0.294,1.357-0.483v2.479
		c-0.905,0.401-1.928,0.601-3.072,0.601c-1.637,0-2.892-0.475-3.766-1.425c-0.873-0.95-1.311-2.323-1.311-4.119
		c0-1.123,0.211-2.11,0.634-2.961c0.425-0.851,1.033-1.506,1.826-1.963c0.794-0.457,1.728-0.686,2.802-0.686
		c1.174,0,2.293,0.255,3.363,0.764l-0.899,2.308c-0.4-0.188-0.801-0.346-1.201-0.475
		C388.045,121.94,387.613,121.876,387.153,121.876z"/>
	<path fill="#FFFFFF" d="M401.485,130.478h-2.946v-4.423h-3.408v4.423h-2.946v-10.851h2.946v4.023h3.408v-4.023h2.946V130.478z"/>
	<path fill="#FFFFFF" d="M410.488,130.478l-0.534-2.033h-3.526l-0.549,2.033h-3.221l3.539-10.896h3.912l3.584,10.896H410.488z
		 M409.346,126.04l-0.469-1.781c-0.108-0.396-0.241-0.908-0.397-1.537c-0.156-0.628-0.258-1.079-0.308-1.351
		c-0.044,0.252-0.132,0.668-0.263,1.247c-0.132,0.579-0.423,1.72-0.871,3.422H409.346z"/>
	<path fill="#FFFFFF" d="M414.868,130.478v-10.851h2.946v10.851H414.868z"/>
	<path fill="#FFFFFF" d="M430.49,130.478h-3.845l-3.962-7.645h-0.067c0.093,1.202,0.141,2.121,0.141,2.754v4.891h-2.598v-10.851
		h3.829l3.949,7.541h0.045c-0.069-1.094-0.104-1.972-0.104-2.635v-4.906h2.612V130.478z"/>
</g>
<path fill="#C73A22" d="M624.534,59.652c0,3.993-5.1,7.229-11.391,7.229H26.857c-6.291,0-11.391-3.237-11.391-7.229V27.123
	c0-3.993,5.1-7.229,11.391-7.229h586.286c6.291,0,11.391,3.237,11.391,7.229V59.652z"/>
<line fill="none" stroke="#FFFFFF" stroke-width="8" stroke-miterlimit="10" x1="51.358" y1="43.387" x2="588.642" y2="43.387"/>
<circle fill="#D58C84" cx="51.358" cy="43.387" r="10.444"/>
<circle fill="#D58C84" cx="358.377" cy="43.387" r="10.444"/>
<circle fill="#FFFFFF" cx="588.642" cy="43.387" r="10.444"/>
<circle fill="#D58C84" cx="204.868" cy="43.387" r="10.444"/>
<circle fill="#FFFFFF" cx="511.887" cy="43.387" r="10.444"/>
<path fill="none" stroke="#D58C84" stroke-width="8" stroke-miterlimit="10" d="M51.358,43.387l349.331,0"/>
<circle fill="#D58C84" cx="281.623" cy="43.387" r="10.444"/>
<circle fill="#D58C84" cx="128.113" cy="43.387" r="10.444"/>
<circle fill="#FFFFFF" cx="435.132" cy="43.387" r="10.444"/>
</svg>
