<?xml version="1.0" encoding="utf-8"?>
<!-- Generator: Adobe Illustrator 17.0.0, SVG Export Plug-In . SVG Version: 6.00 Build 0)  -->
<!DOCTYPE svg PUBLIC "-//W3C//DTD SVG 1.1//EN" "http://www.w3.org/Graphics/SVG/1.1/DTD/svg11.dtd">
<svg version="1.1" id="Layer_1" xmlns="http://www.w3.org/2000/svg" xmlns:xlink="http://www.w3.org/1999/xlink" x="0px" y="0px"
	 width="640px" height="495.812px" viewBox="0 0 640 495.812" enable-background="new 0 0 640 495.812" xml:space="preserve">
<path fill="#0B3F00" d="M123.03,199.882c-2.035-0.423-3.987,0.685-4.358,2.474L94.762,317.469c-0.372,1.789,0.977,3.582,3.012,4.005
	l39.876,8.282c2.035,0.423,3.987-0.685,4.358-2.474l23.909-115.113c0.372-1.789-0.977-3.582-3.012-4.005L123.03,199.882z"/>
<path fill="#63B748" d="M158.719,336.802c-2.35-0.004-4.253-1.45-4.25-3.232l0.171-114.606c0.003-1.781,1.91-3.223,4.26-3.219
	l46.041,0.069c2.35,0.004,4.253,1.45,4.25,3.232l-0.171,114.606c-0.003,1.781-1.91,3.223-4.26,3.219L158.719,336.802z"/>
<path fill="#366D29" d="M528.131,443.858c-1.346,3.186-4.707,4.811-7.509,3.628l-180.22-76.103
	c-2.801-1.183-3.981-4.725-2.636-7.911l26.363-62.43c1.346-3.186,4.707-4.811,7.509-3.628l180.22,76.103
	c2.801,1.183,3.981,4.725,2.636,7.911L528.131,443.858z"/>
<path fill="#6E9365" d="M109.014,261.841c-1.098,2.078-0.508,4.544,1.319,5.51l117.503,62.109c1.826,0.965,4.197,0.064,5.295-2.014
	l21.515-40.704c1.098-2.078,0.508-4.544-1.319-5.51l-117.503-62.109c-1.826-0.965-4.197-0.064-5.295,2.014L109.014,261.841z"/>
<path fill="#0B3F00" d="M91.149,401.255c1.346,3.186,4.707,4.811,7.509,3.628l180.22-76.103c2.801-1.183,3.981-4.725,2.636-7.911
	l-26.363-62.43c-1.346-3.186-4.707-4.811-7.509-3.628l-180.22,76.103c-2.801,1.183-3.981,4.725-2.636,7.911L91.149,401.255z"/>
<path fill="#6E9365" d="M550.543,314.434c1.098,2.078,0.508,4.544-1.319,5.51l-117.503,62.109c-1.826,0.965-4.197,0.064-5.295-2.014
	l-21.515-40.704c-1.098-2.078-0.508-4.544,1.319-5.51l117.503-62.109c1.826-0.965,4.197-0.064,5.295,2.014L550.543,314.434z"/>
<path fill="#63B748" d="M127.815,393.693c-2.208,0.803-4.571-0.12-5.277-2.061l-45.42-124.906c-0.706-1.941,0.512-4.166,2.72-4.97
	l43.269-15.734c2.208-0.803,4.571,0.12,5.277,2.061l45.42,124.906c0.706,1.941-0.512,4.166-2.72,4.97L127.815,393.693z"/>
<path fill="#63B748" d="M441.725,415.682c-2.338,0.238-4.403-1.235-4.612-3.291l-13.455-132.225
	c-0.209-2.055,1.517-3.914,3.854-4.152l45.804-4.661c2.338-0.238,4.403,1.235,4.612,3.291l13.455,132.225
	c0.209,2.055-1.517,3.914-3.854,4.152L441.725,415.682z"/>
<path fill="#0B3F00" d="M563.34,406.544c0.715,3.384-1.116,6.637-4.091,7.266l-191.399,40.462c-2.975,0.629-5.967-1.605-6.682-4.989
	l-14.017-66.303c-0.715-3.384,1.116-6.637,4.091-7.266l191.399-40.462c2.975-0.629,5.967,1.605,6.682,4.989L563.34,406.544z"/>
<g>
	<path fill="#FFFFFF" d="M380.988,403.292l-4.451,0.865l0.283-17.324l9.811-1.907l-0.061,3.756l-5.36,1.042l-0.043,3.305
		l4.962-0.965l-0.079,3.783l-4.985,0.969L380.988,403.292z"/>
	<path fill="#FFFFFF" d="M396.334,382.769c1.973-0.383,3.616-0.118,4.932,0.796c1.316,0.913,2.17,2.379,2.562,4.398
		c0.393,2.019,0.374,3.938-0.056,5.757c-0.43,1.82-1.223,3.306-2.377,4.454c-1.155,1.15-2.608,1.895-4.36,2.236
		c-2.042,0.397-3.728,0.138-5.059-0.777c-1.332-0.914-2.193-2.377-2.584-4.388c-0.39-2.01-0.359-3.934,0.095-5.77
		c0.454-1.837,1.269-3.328,2.444-4.474C393.105,383.856,394.573,383.112,396.334,382.769z M399.34,388.882
		c-0.168-0.865-0.481-1.507-0.94-1.925c-0.46-0.419-1.034-0.561-1.725-0.427c-0.751,0.146-1.38,0.6-1.886,1.358
		c-0.506,0.761-0.838,1.735-0.997,2.923c-0.158,1.188-0.125,2.367,0.102,3.535c0.358,1.836,1.294,2.607,2.812,2.312
		c0.721-0.14,1.329-0.585,1.825-1.335c0.496-0.75,0.817-1.694,0.962-2.832C399.637,391.352,399.587,390.15,399.34,388.882z"/>
	<path fill="#FFFFFF" d="M413.51,379.431c1.973-0.383,3.616-0.118,4.932,0.796c1.316,0.913,2.17,2.379,2.562,4.398
		c0.393,2.019,0.373,3.938-0.056,5.757c-0.43,1.82-1.223,3.305-2.377,4.454c-1.155,1.15-2.608,1.895-4.36,2.236
		c-2.042,0.397-3.728,0.138-5.059-0.777c-1.332-0.914-2.193-2.377-2.584-4.388c-0.39-2.01-0.359-3.934,0.095-5.77
		c0.454-1.837,1.269-3.328,2.444-4.474C410.282,380.518,411.749,379.774,413.51,379.431z M416.517,385.544
		c-0.168-0.865-0.481-1.507-0.94-1.926c-0.46-0.418-1.034-0.561-1.725-0.426c-0.751,0.146-1.38,0.599-1.886,1.359
		c-0.506,0.761-0.838,1.735-0.997,2.923c-0.158,1.188-0.125,2.367,0.102,3.535c0.358,1.836,1.294,2.607,2.812,2.312
		c0.721-0.14,1.329-0.585,1.825-1.335c0.496-0.75,0.817-1.694,0.962-2.832C416.814,388.014,416.763,386.812,416.517,385.544z"/>
	<path fill="#FFFFFF" d="M436.963,381.676c0.413,2.125,0.395,4.04-0.053,5.745s-1.307,3.111-2.576,4.215
		c-1.27,1.105-2.884,1.848-4.841,2.229l-5.361,1.042l0.283-17.324l4.735-0.92c2.095-0.407,3.823-0.174,5.186,0.698
		C435.698,378.235,436.574,379.673,436.963,381.676z M429.447,390.047c0.835-0.162,1.529-0.573,2.082-1.232
		c0.553-0.658,0.916-1.514,1.089-2.568c0.173-1.053,0.138-2.21-0.107-3.469c-0.184-0.949-0.529-1.628-1.034-2.037
		c-0.506-0.41-1.126-0.544-1.861-0.4l-0.808,0.157l-0.146,9.702L429.447,390.047z"/>
	<path fill="#FFFFFF" d="M455.894,383.431c0.328,1.685,0.024,3.104-0.909,4.258s-2.398,1.925-4.393,2.313
		c-0.835,0.162-1.643,0.223-2.422,0.181c-0.78-0.041-1.474-0.187-2.082-0.44l-0.774-3.984c0.715,0.278,1.511,0.475,2.387,0.588
		c0.876,0.114,1.648,0.105,2.317-0.025c0.561-0.109,0.963-0.309,1.206-0.601c0.243-0.29,0.322-0.653,0.238-1.086
		c-0.04-0.205-0.123-0.387-0.249-0.548c-0.126-0.16-0.29-0.314-0.491-0.459c-0.202-0.146-0.726-0.452-1.573-0.917
		c-1.026-0.541-1.813-1.143-2.359-1.809c-0.547-0.666-0.906-1.442-1.079-2.331c-0.193-0.993-0.118-1.935,0.225-2.825
		c0.343-0.889,0.925-1.641,1.747-2.253c0.822-0.612,1.794-1.028,2.918-1.246c1.813-0.353,3.523-0.264,5.13,0.266l-0.88,3.68
		c-1.426-0.416-2.596-0.535-3.507-0.358c-0.485,0.095-0.839,0.274-1.059,0.536c-0.221,0.264-0.291,0.601-0.211,1.01
		c0.072,0.372,0.266,0.695,0.584,0.967c0.317,0.273,0.884,0.61,1.702,1.009c1.023,0.486,1.822,1.051,2.397,1.696
		C455.332,381.699,455.711,382.491,455.894,383.431z"/>
	<path fill="#FFFFFF" d="M465.677,386.834l-4.45,0.865l0.178-13.488l-3.608,0.701l0.071-3.829l11.701-2.274l-0.093,3.833
		l-3.619,0.703L465.677,386.834z"/>
	<path fill="#FFFFFF" d="M480.576,380.701l-5.099,0.992l-0.817,3.395l-4.621,0.898l5.234-18.286l5.725-1.112l4.634,16.368
		l-4.337,0.843L480.576,380.701z M476.415,377.825l3.334-0.648l-1.131-4.789l-0.212-0.974c-0.111-0.569-0.193-1.069-0.245-1.5
		c-0.055,0.688-0.164,1.363-0.327,2.024L476.415,377.825z"/>
	<path fill="#FFFFFF" d="M493.852,381.358l-2.32-11.94l-0.091,0.018c0.106,3.264,0.157,5.269,0.154,6.018l-0.099,6.362l-3.961,0.77
		l0.284-17.325l5.896-1.146l2.295,11.815l0.091-0.018l3.144-12.872l5.987-1.164l-0.329,17.333l-3.995,0.777l0.117-6.508
		c0.043-1.804,0.131-3.537,0.264-5.201l0.029-0.762l-0.09,0.018l-3.166,13.006L493.852,381.358z"/>
	<path fill="#FFFFFF" d="M520.347,364.113c0.372,1.912,0.012,3.539-1.077,4.881c-1.09,1.342-2.765,2.232-5.026,2.671l-0.98,0.191
		l-0.065,5.741l-4.451,0.865l0.284-17.325l4.245-0.825c1.966-0.382,3.557-0.244,4.776,0.412
		C519.271,361.383,520.036,362.512,520.347,364.113z M513.354,368.059l0.717-0.14c0.69-0.134,1.205-0.465,1.544-0.991
		c0.339-0.527,0.441-1.131,0.309-1.815c-0.088-0.447-0.294-0.781-0.62-1.001c-0.327-0.221-0.728-0.284-1.207-0.191l-0.671,0.13
		L513.354,368.059z"/>
	<path fill="#FFFFFF" d="M533.011,368.443c0.328,1.685,0.024,3.104-0.909,4.258c-0.933,1.154-2.398,1.925-4.393,2.313
		c-0.835,0.162-1.643,0.223-2.422,0.181c-0.78-0.041-1.474-0.187-2.082-0.44l-0.774-3.984c0.715,0.278,1.511,0.475,2.387,0.588
		c0.876,0.114,1.649,0.105,2.317-0.025c0.562-0.109,0.963-0.309,1.206-0.601c0.243-0.291,0.322-0.653,0.238-1.086
		c-0.04-0.205-0.123-0.387-0.249-0.548c-0.126-0.161-0.29-0.314-0.491-0.46c-0.202-0.146-0.726-0.452-1.573-0.917
		c-1.026-0.541-1.813-1.143-2.359-1.809c-0.547-0.666-0.906-1.442-1.078-2.331c-0.194-0.993-0.119-1.935,0.224-2.825
		c0.343-0.889,0.926-1.641,1.747-2.253c0.822-0.612,1.795-1.028,2.918-1.246c1.813-0.353,3.523-0.264,5.13,0.266l-0.879,3.68
		c-1.427-0.416-2.597-0.535-3.508-0.358c-0.485,0.095-0.838,0.274-1.059,0.537c-0.221,0.263-0.291,0.6-0.211,1.009
		c0.072,0.372,0.266,0.695,0.584,0.967c0.317,0.273,0.884,0.61,1.702,1.009c1.023,0.486,1.822,1.052,2.397,1.697
		C532.45,366.71,532.829,367.503,533.011,368.443z"/>
</g>
<path fill="#366D29" d="M263.831,471.565c-1.346,3.186-4.707,4.811-7.509,3.628L76.102,399.09c-2.801-1.183-3.981-4.725-2.636-7.911
	l26.363-62.43c1.346-3.186,4.707-4.811,7.509-3.628l180.22,76.103c2.801,1.183,3.981,4.725,2.636,7.911L263.831,471.565z"/>
<path fill="#6E9365" d="M286.243,342.14c1.098,2.078,0.508,4.544-1.319,5.51l-117.503,62.109c-1.826,0.965-4.197,0.064-5.295-2.014
	l-21.515-40.704c-1.098-2.078-0.508-4.544,1.319-5.51l117.503-62.109c1.826-0.965,4.197-0.064,5.295,2.014L286.243,342.14z"/>
<path fill="#63B748" d="M157.254,435.75c-2.307-0.448-3.858-2.454-3.465-4.482L179.1,300.793c0.393-2.028,2.582-3.309,4.889-2.862
	l45.198,8.768c2.307,0.448,3.858,2.454,3.465,4.482l-25.311,130.475c-0.393,2.028-2.583,3.309-4.889,2.862L157.254,435.75z"/>
<path fill="#0B3F00" d="M299.04,434.251c0.715,3.384-1.116,6.637-4.091,7.266L103.549,481.98c-2.975,0.629-5.967-1.605-6.682-4.989
	L82.85,410.688c-0.715-3.384,1.116-6.637,4.091-7.266l191.399-40.462c2.975-0.629,5.967,1.605,6.682,4.989L299.04,434.251z"/>
<g>
	<path fill="#FFFFFF" d="M117.687,431.83l-4.451,0.865l0.283-17.324l9.811-1.907l-0.061,3.756l-5.36,1.042l-0.043,3.305l4.962-0.965
		l-0.079,3.783l-4.985,0.969L117.687,431.83z"/>
	<path fill="#FFFFFF" d="M133.033,411.307c1.973-0.383,3.616-0.118,4.932,0.796c1.316,0.913,2.17,2.379,2.562,4.398
		c0.393,2.019,0.374,3.938-0.056,5.757c-0.43,1.82-1.223,3.306-2.377,4.454c-1.155,1.15-2.608,1.895-4.36,2.236
		c-2.042,0.397-3.728,0.138-5.059-0.777c-1.332-0.914-2.193-2.377-2.584-4.388c-0.39-2.01-0.359-3.934,0.095-5.77
		c0.454-1.837,1.269-3.328,2.444-4.474C129.805,412.394,131.272,411.65,133.033,411.307z M136.04,417.42
		c-0.168-0.865-0.481-1.507-0.94-1.925c-0.46-0.419-1.034-0.561-1.725-0.427c-0.751,0.146-1.38,0.6-1.886,1.358
		c-0.506,0.761-0.838,1.735-0.997,2.923c-0.158,1.188-0.125,2.367,0.102,3.535c0.358,1.836,1.294,2.607,2.812,2.312
		c0.721-0.14,1.329-0.585,1.825-1.335c0.496-0.75,0.817-1.694,0.962-2.832C136.337,419.89,136.286,418.688,136.04,417.42z"/>
	<path fill="#FFFFFF" d="M150.21,407.969c1.973-0.383,3.616-0.118,4.932,0.796c1.316,0.913,2.17,2.379,2.562,4.398
		c0.393,2.019,0.373,3.938-0.056,5.757c-0.43,1.82-1.223,3.305-2.377,4.454c-1.155,1.15-2.608,1.895-4.36,2.236
		c-2.042,0.397-3.728,0.138-5.059-0.777c-1.332-0.914-2.193-2.377-2.584-4.388c-0.39-2.01-0.359-3.934,0.095-5.77
		c0.454-1.837,1.269-3.328,2.444-4.474C146.981,409.056,148.449,408.312,150.21,407.969z M153.216,414.082
		c-0.168-0.865-0.481-1.507-0.94-1.926c-0.46-0.418-1.034-0.561-1.725-0.426c-0.751,0.146-1.38,0.599-1.886,1.358
		c-0.506,0.761-0.838,1.735-0.997,2.923c-0.158,1.188-0.125,2.367,0.102,3.535c0.358,1.836,1.294,2.607,2.812,2.312
		c0.721-0.14,1.329-0.585,1.825-1.335c0.496-0.75,0.817-1.694,0.962-2.832C153.513,416.552,153.463,415.35,153.216,414.082z"/>
	<path fill="#FFFFFF" d="M173.664,410.214c0.412,2.125,0.396,4.04-0.053,5.745c-0.448,1.706-1.307,3.111-2.576,4.215
		c-1.27,1.105-2.884,1.848-4.841,2.229l-5.361,1.042l0.283-17.324l4.736-0.92c2.094-0.407,3.822-0.174,5.185,0.698
		C172.398,406.773,173.274,408.211,173.664,410.214z M166.148,418.585c0.835-0.162,1.529-0.573,2.082-1.232
		c0.553-0.658,0.916-1.514,1.089-2.568c0.173-1.053,0.138-2.21-0.107-3.469c-0.184-0.949-0.529-1.628-1.034-2.037
		s-1.126-0.544-1.861-0.4l-0.808,0.157l-0.146,9.702L166.148,418.585z"/>
	<path fill="#FFFFFF" d="M192.593,411.969c0.328,1.685,0.024,3.104-0.909,4.258s-2.398,1.925-4.393,2.313
		c-0.835,0.162-1.643,0.223-2.422,0.181c-0.78-0.041-1.474-0.187-2.082-0.439l-0.774-3.984c0.715,0.278,1.511,0.475,2.387,0.588
		c0.876,0.114,1.648,0.105,2.317-0.025c0.561-0.109,0.963-0.309,1.206-0.601c0.243-0.291,0.322-0.653,0.238-1.086
		c-0.04-0.205-0.123-0.387-0.249-0.548c-0.126-0.16-0.29-0.314-0.491-0.459c-0.202-0.146-0.726-0.452-1.573-0.917
		c-1.026-0.541-1.813-1.143-2.359-1.809c-0.547-0.666-0.906-1.442-1.079-2.331c-0.193-0.993-0.118-1.935,0.225-2.825
		c0.343-0.889,0.925-1.641,1.747-2.253c0.822-0.612,1.794-1.028,2.918-1.246c1.813-0.353,3.523-0.264,5.13,0.266l-0.88,3.68
		c-1.426-0.416-2.596-0.535-3.507-0.358c-0.485,0.095-0.839,0.274-1.059,0.536c-0.221,0.264-0.291,0.601-0.211,1.01
		c0.072,0.372,0.266,0.695,0.584,0.967c0.317,0.273,0.884,0.61,1.702,1.009c1.023,0.486,1.822,1.051,2.397,1.696
		C192.032,410.237,192.411,411.029,192.593,411.969z"/>
	<path fill="#FFFFFF" d="M202.378,415.372l-4.45,0.865l0.178-13.488l-3.608,0.701l0.071-3.829l11.701-2.274l-0.093,3.833
		l-3.619,0.703L202.378,415.372z"/>
	<path fill="#FFFFFF" d="M217.276,409.239l-5.099,0.992l-0.817,3.395l-4.621,0.898l5.234-18.286l5.725-1.112l4.634,16.368
		l-4.337,0.843L217.276,409.239z M213.114,406.363l3.334-0.648l-1.131-4.789l-0.212-0.974c-0.111-0.569-0.193-1.069-0.245-1.5
		c-0.055,0.688-0.164,1.363-0.327,2.024L213.114,406.363z"/>
	<path fill="#FFFFFF" d="M230.552,409.896l-2.32-11.94l-0.091,0.018c0.106,3.264,0.157,5.269,0.154,6.018l-0.099,6.362l-3.961,0.77
		l0.284-17.324l5.896-1.145l2.295,11.814l0.091-0.018l3.144-12.872l5.987-1.164l-0.329,17.334l-3.995,0.776l0.117-6.508
		c0.043-1.804,0.131-3.537,0.264-5.201l0.029-0.762l-0.09,0.018l-3.166,13.006L230.552,409.896z"/>
	<path fill="#FFFFFF" d="M257.048,392.651c0.372,1.912,0.012,3.539-1.077,4.881c-1.09,1.342-2.765,2.232-5.026,2.671l-0.98,0.191
		l-0.065,5.741l-4.451,0.865l0.284-17.324l4.245-0.825c1.966-0.382,3.557-0.244,4.776,0.412
		C255.971,389.921,256.737,391.05,257.048,392.651z M250.054,396.597l0.717-0.14c0.69-0.134,1.205-0.465,1.544-0.991
		c0.339-0.527,0.441-1.131,0.309-1.815c-0.088-0.447-0.294-0.781-0.62-1.001c-0.326-0.221-0.728-0.284-1.207-0.191l-0.671,0.13
		L250.054,396.597z"/>
	<path fill="#FFFFFF" d="M269.712,396.982c0.328,1.684,0.024,3.103-0.909,4.257s-2.398,1.925-4.393,2.313
		c-0.835,0.162-1.642,0.223-2.422,0.181c-0.78-0.041-1.474-0.187-2.082-0.439l-0.774-3.984c0.715,0.278,1.511,0.475,2.387,0.588
		c0.876,0.114,1.649,0.105,2.317-0.025c0.561-0.109,0.963-0.309,1.206-0.601c0.243-0.291,0.322-0.653,0.238-1.086
		c-0.04-0.205-0.123-0.387-0.249-0.548c-0.126-0.161-0.29-0.314-0.491-0.46c-0.202-0.146-0.726-0.452-1.573-0.917
		c-1.026-0.541-1.813-1.143-2.359-1.809c-0.547-0.666-0.906-1.442-1.078-2.331c-0.194-0.993-0.118-1.935,0.224-2.825
		c0.343-0.889,0.926-1.641,1.747-2.253c0.822-0.612,1.795-1.028,2.918-1.246c1.813-0.352,3.523-0.264,5.13,0.266l-0.879,3.68
		c-1.427-0.415-2.597-0.535-3.508-0.358c-0.485,0.095-0.838,0.274-1.059,0.537c-0.221,0.263-0.291,0.6-0.211,1.009
		c0.073,0.372,0.266,0.695,0.584,0.967c0.317,0.273,0.884,0.61,1.702,1.009c1.023,0.486,1.822,1.052,2.397,1.697
		C269.15,395.248,269.529,396.041,269.712,396.982z"/>
</g>
<g>
	<path fill="#FFFFFF" d="M376.854,435.301c-0.274,0.053-0.575,0.056-0.902,0.007l-0.15-0.768c0.319,0.032,0.613,0.022,0.881-0.03
		c0.501-0.098,0.853-0.322,1.056-0.675c0.203-0.352,0.314-0.923,0.331-1.712l0.166-10.362l-1.751,0.341l0.008-0.596l1.727-0.459
		l0.033-1.425c0.014-0.994,0.21-1.753,0.59-2.276c0.379-0.522,0.984-0.865,1.816-1.026c0.415-0.081,0.905-0.085,1.468-0.011
		l-0.081,0.724c-0.524-0.058-0.958-0.053-1.299,0.014c-0.547,0.106-0.954,0.343-1.222,0.711c-0.268,0.368-0.41,0.923-0.426,1.664
		l-0.027,1.458l2.117-0.412l-0.002,0.718l-2.117,0.412l-0.177,10.577c-0.009,0.953-0.176,1.677-0.499,2.174
		C378.073,434.847,377.559,435.165,376.854,435.301z"/>
	<path fill="#FFFFFF" d="M385.79,419.389c1.024-0.198,1.876-0.044,2.557,0.465c0.681,0.508,1.127,1.306,1.338,2.393
		c0.218,1.121,0.218,2.21,0.001,3.265s-0.629,1.907-1.235,2.557c-0.606,0.649-1.371,1.063-2.292,1.243
		c-1.048,0.203-1.903,0.047-2.567-0.471c-0.665-0.518-1.11-1.357-1.336-2.518c-0.211-1.088-0.201-2.146,0.03-3.178
		c0.23-1.031,0.649-1.871,1.255-2.521C384.146,419.975,384.896,419.564,385.79,419.389z M385.864,420.137
		c-0.706,0.137-1.297,0.484-1.774,1.04c-0.477,0.557-0.802,1.284-0.976,2.183c-0.173,0.899-0.169,1.815,0.012,2.748
		c0.378,1.947,1.37,2.764,2.975,2.452c0.723-0.141,1.321-0.485,1.796-1.035c0.475-0.55,0.795-1.286,0.962-2.207
		c0.167-0.921,0.15-1.894-0.049-2.918c-0.17-0.877-0.509-1.51-1.016-1.902C387.287,420.106,386.643,419.985,385.864,420.137z"/>
	<path fill="#FFFFFF" d="M395.94,417.435c0.393-0.076,0.75-0.104,1.074-0.085l-0.025,0.829c-0.284-0.034-0.614-0.014-0.99,0.06
		c-0.534,0.104-1.008,0.385-1.422,0.844c-0.413,0.458-0.742,1.088-0.987,1.892c-0.246,0.804-0.377,1.647-0.395,2.531l-0.055,4.272
		l-0.837,0.163l0.169-9.662l0.683-0.133l0.09,1.79l0.051-0.01c0.312-0.615,0.587-1.069,0.825-1.36
		c0.239-0.291,0.507-0.534,0.803-0.727C395.22,417.643,395.559,417.509,395.94,417.435z"/>
	<path fill="#FFFFFF" d="M406.411,415.417c1.32-0.257,2.236,0.212,2.745,1.406l0.051-0.009l0.169-1.823l0.683-0.132l-0.152,9.659
		l-0.7,0.136l-0.071-2.414l-0.051,0.01c-0.32,0.901-0.732,1.625-1.235,2.171c-0.502,0.547-1.134,0.894-1.897,1.042
		c-1.6,0.311-2.605-0.598-3.02-2.726c-0.218-1.121-0.212-2.233,0.017-3.334c0.229-1.102,0.646-1.999,1.253-2.693
		C404.811,416.016,405.546,415.585,406.411,415.417z M406.001,424.657c0.507-0.099,0.978-0.373,1.413-0.824
		c0.436-0.451,0.796-1.01,1.082-1.681c0.287-0.669,0.466-1.384,0.536-2.142s0.059-1.385-0.037-1.88
		c-0.088-0.45-0.24-0.838-0.457-1.165c-0.217-0.327-0.491-0.566-0.821-0.717c-0.331-0.152-0.712-0.185-1.144-0.102
		c-0.706,0.138-1.298,0.494-1.777,1.072c-0.479,0.577-0.809,1.367-0.993,2.368c-0.183,1.002-0.185,1.963-0.007,2.885
		c0.169,0.866,0.434,1.474,0.798,1.825C404.957,424.648,405.426,424.769,406.001,424.657z"/>
	<path fill="#FFFFFF" d="M413.777,423.766l-0.803,0.156l0.27-13.837l0.802-0.155L413.777,423.766z"/>
	<path fill="#FFFFFF" d="M417.834,422.977l-0.803,0.156l0.269-13.837l0.803-0.156L417.834,422.977z"/>
	<path fill="#FFFFFF" d="M428.681,411.053c1.024-0.198,1.876-0.044,2.557,0.465c0.681,0.508,1.127,1.306,1.338,2.393
		c0.218,1.121,0.218,2.21,0.001,3.265c-0.217,1.055-0.629,1.908-1.235,2.557s-1.371,1.063-2.292,1.243
		c-1.048,0.203-1.903,0.047-2.567-0.471c-0.665-0.518-1.11-1.357-1.336-2.518c-0.21-1.088-0.201-2.146,0.03-3.178
		c0.231-1.031,0.649-1.871,1.255-2.521C427.037,411.639,427.787,411.227,428.681,411.053z M428.755,411.801
		c-0.706,0.137-1.297,0.484-1.774,1.04c-0.477,0.557-0.802,1.284-0.976,2.184c-0.173,0.899-0.169,1.815,0.012,2.748
		c0.378,1.947,1.37,2.764,2.975,2.452c0.723-0.141,1.321-0.485,1.796-1.035c0.475-0.55,0.795-1.286,0.962-2.207
		c0.167-0.921,0.15-1.894-0.049-2.918c-0.169-0.876-0.508-1.51-1.016-1.902C430.178,411.769,429.535,411.649,428.755,411.801z"/>
	<path fill="#FFFFFF" d="M438.699,409.293l-0.02,0.722l-2.415,0.469l-0.1,5.644c-0.016,0.588,0.013,1.066,0.085,1.437
		c0.154,0.791,0.589,1.116,1.306,0.978c0.386-0.075,0.805-0.234,1.254-0.475l0.142,0.735c-0.544,0.271-1.012,0.444-1.405,0.52
		c-0.563,0.11-1.029,0.039-1.396-0.211c-0.368-0.25-0.609-0.671-0.724-1.264c-0.081-0.415-0.112-1.017-0.094-1.806l0.094-5.396
		l-1.553,0.303l0.008-0.596l1.542-0.45l0.409-2.321l0.469-0.091l-0.045,2.277L438.699,409.293z"/>
	<path fill="#FFFFFF" d="M446.347,417.437l0.124-6.155c0.019-0.547-0.008-1.002-0.079-1.367c-0.088-0.455-0.281-0.787-0.579-0.994
		c-0.297-0.208-0.705-0.262-1.223-0.161c-0.637,0.124-1.199,0.431-1.685,0.921c-0.487,0.491-0.855,1.117-1.105,1.881
		c-0.25,0.763-0.386,1.634-0.41,2.613l-0.079,4.241l-0.836,0.163l0.252-13.834l0.819-0.159l-0.052,3.651
		c-0.029,1.187-0.062,2.017-0.101,2.491l0.051-0.009c0.319-0.73,0.752-1.332,1.301-1.808c0.548-0.475,1.167-0.78,1.856-0.914
		c0.706-0.137,1.288-0.058,1.747,0.236c0.459,0.295,0.753,0.778,0.885,1.45c0.077,0.399,0.109,0.929,0.097,1.593l-0.145,5.999
		L446.347,417.437z"/>
	<path fill="#FFFFFF" d="M453.633,416.198c-0.984,0.191-1.813,0.029-2.486-0.487c-0.673-0.516-1.118-1.331-1.335-2.447
		c-0.2-1.03-0.19-2.057,0.031-3.08c0.221-1.023,0.63-1.883,1.231-2.578c0.6-0.695,1.327-1.126,2.181-1.291
		c0.649-0.127,1.2-0.053,1.655,0.219c0.454,0.272,0.74,0.707,0.856,1.305c0.2,1.03-0.112,1.905-0.938,2.627
		c-0.825,0.722-2.155,1.261-3.987,1.616l-0.281,0.055c0.014,0.257,0.051,0.539,0.111,0.846c0.183,0.94,0.533,1.614,1.049,2.024
		c0.517,0.411,1.17,0.539,1.962,0.385c0.751-0.146,1.496-0.507,2.235-1.081l0.156,0.802
		C455.351,415.659,454.538,416.022,453.633,416.198z M453.294,407.068c-0.746,0.144-1.374,0.608-1.886,1.389
		c-0.513,0.782-0.805,1.75-0.876,2.903l0.419-0.081c2.941-0.572,4.264-1.626,3.965-3.163c-0.074-0.381-0.259-0.671-0.554-0.871
		C454.065,407.047,453.709,406.987,453.294,407.068z"/>
	<path fill="#FFFFFF" d="M461.753,404.644c0.393-0.076,0.75-0.104,1.074-0.085l-0.025,0.829c-0.284-0.034-0.614-0.014-0.99,0.06
		c-0.534,0.104-1.008,0.385-1.422,0.844c-0.412,0.458-0.742,1.089-0.987,1.892c-0.246,0.804-0.377,1.647-0.395,2.531l-0.055,4.272
		l-0.837,0.163l0.169-9.662l0.683-0.133l0.09,1.79l0.051-0.01c0.312-0.615,0.587-1.069,0.825-1.36
		c0.239-0.291,0.507-0.534,0.803-0.727C461.034,404.852,461.373,404.718,461.753,404.644z"/>
	<path fill="#FFFFFF" d="M469.975,412.845l-0.836,0.163l0.169-9.663l0.819-0.159L469.975,412.845z M469.212,400.892
		c-0.061-0.313-0.047-0.575,0.042-0.788c0.088-0.212,0.241-0.339,0.457-0.382c0.325-0.062,0.526,0.111,0.606,0.52
		c0.063,0.324,0.05,0.593-0.038,0.805c-0.089,0.212-0.233,0.338-0.432,0.376c-0.165,0.033-0.303,0.002-0.413-0.092
		C469.324,401.237,469.251,401.091,469.212,400.892z"/>
	<path fill="#FFFFFF" d="M479.069,411.077l0.124-6.155c0.019-0.547-0.008-1.002-0.079-1.367c-0.088-0.454-0.281-0.787-0.578-0.994
		c-0.298-0.208-0.706-0.262-1.224-0.161c-0.637,0.124-1.199,0.431-1.685,0.921c-0.487,0.491-0.856,1.115-1.106,1.876
		c-0.25,0.761-0.387,1.633-0.409,2.617l-0.079,4.241l-0.836,0.163l0.169-9.663l0.7-0.136l0.05,1.948l0.051-0.009
		c0.67-1.536,1.723-2.443,3.156-2.723c0.74-0.143,1.33-0.069,1.771,0.223c0.44,0.292,0.727,0.779,0.86,1.463
		c0.077,0.399,0.109,0.929,0.097,1.593l-0.145,5.999L479.069,411.077z"/>
	<path fill="#FFFFFF" d="M486.064,399.936c1.309-0.254,2.224,0.215,2.745,1.407l0.034-0.007c-0.005-0.389,0.031-2.377,0.107-5.966
		l0.845-0.164l-0.236,13.83l-0.7,0.137l-0.071-2.414l-0.051,0.01c-0.659,1.864-1.703,2.936-3.131,3.213
		c-1.6,0.311-2.605-0.598-3.02-2.726c-0.213-1.099-0.214-2.191-0.003-3.278c0.21-1.087,0.619-1.988,1.224-2.705
		C484.413,400.557,485.165,400.111,486.064,399.936z M485.654,409.177c0.507-0.099,0.98-0.375,1.421-0.83
		c0.439-0.454,0.803-1.021,1.087-1.7c0.285-0.678,0.46-1.394,0.526-2.148s0.052-1.371-0.04-1.848
		c-0.14-0.717-0.426-1.256-0.859-1.618c-0.434-0.361-0.955-0.483-1.564-0.365c-0.705,0.138-1.297,0.497-1.774,1.08
		c-0.478,0.584-0.81,1.364-0.998,2.343c-0.187,0.979-0.188,1.946-0.003,2.901C483.775,408.67,484.51,409.399,485.654,409.177z"/>
	<path fill="#FFFFFF" d="M493.428,398.657l-0.14,6.211c-0.007,0.628,0.017,1.089,0.074,1.385c0.082,0.422,0.282,0.73,0.601,0.925
		c0.318,0.195,0.737,0.242,1.254,0.142c0.627-0.122,1.181-0.423,1.663-0.903c0.482-0.48,0.845-1.103,1.089-1.869
		c0.244-0.764,0.373-1.616,0.386-2.551l0.091-4.314l0.837-0.163l-0.169,9.663l-0.682,0.132l-0.102-1.796l-0.051,0.009
		c-0.706,1.443-1.73,2.294-3.073,2.556c-0.746,0.144-1.345,0.078-1.798-0.2c-0.453-0.278-0.745-0.756-0.876-1.433
		c-0.066-0.342-0.098-0.838-0.094-1.488l0.136-6.139L493.428,398.657z"/>
	<path fill="#FFFFFF" d="M507.319,402.974c0.159,0.819-0.007,1.53-0.498,2.13c-0.492,0.601-1.241,0.998-2.249,1.194
		c-0.984,0.192-1.894,0.147-2.728-0.134l-0.177-0.913c0.471,0.181,0.946,0.298,1.424,0.353c0.477,0.055,0.912,0.044,1.305-0.033
		c0.786-0.153,1.354-0.433,1.706-0.841s0.469-0.913,0.352-1.517c-0.047-0.239-0.131-0.441-0.255-0.606
		c-0.124-0.165-0.3-0.312-0.529-0.442c-0.229-0.129-0.653-0.299-1.273-0.509c-0.931-0.292-1.58-0.595-1.949-0.911
		c-0.368-0.315-0.604-0.74-0.709-1.276c-0.142-0.728,0.023-1.379,0.493-1.952c0.47-0.573,1.164-0.948,2.08-1.126
		c0.426-0.083,0.887-0.121,1.382-0.114c0.494,0.007,0.92,0.061,1.277,0.164l-0.153,0.809c-0.845-0.214-1.631-0.25-2.359-0.109
		c-0.66,0.129-1.16,0.383-1.5,0.762c-0.34,0.379-0.463,0.81-0.369,1.294c0.061,0.313,0.158,0.554,0.291,0.723
		c0.133,0.169,0.343,0.331,0.629,0.484c0.288,0.155,0.669,0.305,1.147,0.455c0.719,0.232,1.236,0.438,1.55,0.615
		c0.316,0.178,0.562,0.385,0.741,0.622C507.128,402.335,507.252,402.626,507.319,402.974z"/>
	<path fill="#FFFFFF" d="M512.912,394.87l-0.02,0.722l-2.415,0.469l-0.1,5.644c-0.016,0.588,0.013,1.066,0.085,1.437
		c0.154,0.791,0.589,1.116,1.306,0.978c0.386-0.075,0.805-0.234,1.254-0.475l0.142,0.735c-0.544,0.271-1.012,0.444-1.405,0.521
		c-0.563,0.11-1.029,0.039-1.396-0.211c-0.368-0.25-0.609-0.671-0.724-1.264c-0.081-0.415-0.112-1.017-0.094-1.806l0.094-5.396
		l-1.553,0.303l0.007-0.596l1.543-0.45l0.409-2.321l0.469-0.091l-0.045,2.277L512.912,394.87z"/>
	<path fill="#FFFFFF" d="M518.303,393.654c0.393-0.076,0.75-0.104,1.074-0.085l-0.025,0.829c-0.284-0.034-0.614-0.014-0.99,0.06
		c-0.534,0.104-1.008,0.385-1.422,0.844c-0.412,0.458-0.742,1.088-0.987,1.892c-0.246,0.804-0.377,1.647-0.395,2.531l-0.055,4.272
		l-0.837,0.163l0.169-9.662l0.683-0.133l0.09,1.79l0.051-0.01c0.312-0.615,0.587-1.069,0.825-1.36
		c0.239-0.291,0.507-0.534,0.803-0.727C517.584,393.862,517.923,393.728,518.303,393.654z"/>
	<path fill="#FFFFFF" d="M521.947,402.744l-0.836,0.163l0.169-9.663l0.819-0.159L521.947,402.744z M521.183,390.791
		c-0.061-0.313-0.047-0.575,0.042-0.788c0.089-0.212,0.241-0.339,0.457-0.382c0.325-0.062,0.527,0.111,0.606,0.521
		c0.063,0.324,0.05,0.593-0.038,0.805c-0.089,0.212-0.233,0.338-0.432,0.376c-0.165,0.033-0.303,0.002-0.412-0.092
		C521.296,391.136,521.223,390.99,521.183,390.791z"/>
	<path fill="#FFFFFF" d="M528.566,401.636c-0.984,0.191-1.813,0.029-2.486-0.487c-0.673-0.516-1.118-1.332-1.335-2.447
		c-0.2-1.03-0.19-2.057,0.031-3.08c0.221-1.023,0.63-1.883,1.231-2.578c0.601-0.695,1.327-1.126,2.181-1.291
		c0.649-0.127,1.2-0.053,1.655,0.219s0.74,0.707,0.856,1.305c0.2,1.03-0.112,1.905-0.938,2.627
		c-0.825,0.722-2.155,1.261-3.987,1.616l-0.281,0.055c0.015,0.257,0.051,0.539,0.111,0.846c0.182,0.939,0.533,1.614,1.049,2.024
		c0.517,0.411,1.17,0.539,1.962,0.385c0.751-0.146,1.496-0.507,2.235-1.081l0.156,0.802
		C530.284,401.098,529.471,401.46,528.566,401.636z M528.227,392.506c-0.746,0.144-1.374,0.608-1.886,1.389
		c-0.513,0.782-0.805,1.75-0.876,2.903l0.419-0.081c2.941-0.572,4.264-1.626,3.965-3.163c-0.074-0.381-0.259-0.671-0.554-0.871
		C528.998,392.485,528.643,392.425,528.227,392.506z"/>
	<path fill="#FFFFFF" d="M538.053,397.001c0.159,0.819-0.006,1.53-0.498,2.13c-0.492,0.6-1.241,0.998-2.249,1.194
		c-0.984,0.192-1.894,0.147-2.728-0.134l-0.177-0.913c0.471,0.181,0.946,0.298,1.424,0.353c0.477,0.055,0.912,0.044,1.305-0.033
		c0.786-0.153,1.354-0.433,1.706-0.841c0.352-0.408,0.469-0.913,0.352-1.517c-0.047-0.239-0.131-0.441-0.255-0.606
		c-0.124-0.165-0.3-0.312-0.529-0.442c-0.229-0.129-0.654-0.3-1.273-0.509c-0.931-0.292-1.58-0.595-1.949-0.911
		c-0.369-0.315-0.604-0.74-0.709-1.276c-0.142-0.728,0.023-1.379,0.493-1.952c0.47-0.573,1.164-0.948,2.08-1.126
		c0.426-0.084,0.887-0.121,1.382-0.114c0.494,0.007,0.92,0.061,1.277,0.163l-0.153,0.81c-0.845-0.214-1.631-0.25-2.359-0.109
		c-0.661,0.128-1.16,0.383-1.5,0.762c-0.34,0.379-0.463,0.81-0.369,1.294c0.06,0.313,0.157,0.554,0.291,0.723
		c0.133,0.169,0.343,0.331,0.629,0.484c0.287,0.155,0.669,0.305,1.147,0.455c0.719,0.232,1.236,0.438,1.55,0.615
		c0.316,0.178,0.562,0.385,0.741,0.622C537.862,396.362,537.986,396.653,538.053,397.001z"/>
</g>
<g>
	<path fill="#FFFFFF" d="M136.506,454.553c-0.274,0.053-0.575,0.056-0.902,0.007l-0.15-0.768c0.319,0.032,0.613,0.022,0.881-0.03
		c0.501-0.098,0.853-0.322,1.056-0.675c0.203-0.352,0.313-0.923,0.331-1.712l0.166-10.362l-1.751,0.341l0.008-0.596l1.727-0.459
		l0.033-1.425c0.014-0.994,0.21-1.753,0.59-2.276s0.985-0.865,1.816-1.026c0.415-0.081,0.905-0.085,1.468-0.011l-0.081,0.724
		c-0.524-0.058-0.958-0.053-1.299,0.014c-0.547,0.106-0.953,0.343-1.222,0.711c-0.268,0.368-0.41,0.923-0.426,1.664l-0.027,1.458
		l2.117-0.412l-0.002,0.718l-2.117,0.412l-0.177,10.577c-0.009,0.953-0.176,1.677-0.499,2.174
		C137.726,454.099,137.212,454.417,136.506,454.553z"/>
	<path fill="#FFFFFF" d="M145.436,438.643c1.024-0.198,1.876-0.044,2.557,0.465s1.127,1.306,1.338,2.393
		c0.218,1.121,0.218,2.21,0.001,3.265s-0.629,1.907-1.235,2.557c-0.606,0.649-1.371,1.063-2.292,1.243
		c-1.048,0.203-1.903,0.047-2.567-0.471c-0.665-0.518-1.11-1.357-1.336-2.518c-0.211-1.088-0.201-2.146,0.03-3.178
		c0.23-1.031,0.649-1.871,1.255-2.521C143.792,439.229,144.542,438.817,145.436,438.643z M145.51,439.391
		c-0.706,0.137-1.297,0.484-1.774,1.04c-0.477,0.557-0.802,1.284-0.976,2.184c-0.173,0.899-0.169,1.815,0.012,2.748
		c0.378,1.947,1.37,2.764,2.975,2.452c0.723-0.141,1.321-0.485,1.796-1.035c0.475-0.55,0.795-1.286,0.962-2.207
		c0.167-0.921,0.15-1.894-0.049-2.918c-0.17-0.877-0.509-1.51-1.016-1.902C146.933,439.359,146.289,439.239,145.51,439.391z"/>
	<path fill="#FFFFFF" d="M155.585,436.689c0.393-0.076,0.75-0.104,1.074-0.085l-0.025,0.829c-0.284-0.034-0.614-0.014-0.99,0.06
		c-0.534,0.103-1.008,0.385-1.422,0.844c-0.412,0.458-0.742,1.089-0.987,1.892c-0.246,0.804-0.377,1.647-0.395,2.531l-0.055,4.272
		l-0.837,0.163l0.169-9.662l0.683-0.133l0.091,1.79l0.051-0.01c0.312-0.615,0.587-1.069,0.825-1.36
		c0.239-0.291,0.507-0.534,0.803-0.727C154.865,436.896,155.203,436.762,155.585,436.689z"/>
	<path fill="#FFFFFF" d="M162,449.599c-0.274,0.053-0.574,0.056-0.902,0.007l-0.15-0.768c0.319,0.032,0.613,0.022,0.881-0.03
		c0.501-0.098,0.853-0.322,1.056-0.675c0.203-0.352,0.314-0.923,0.331-1.712l0.165-10.362l-1.75,0.341l0.008-0.596l1.726-0.459
		l0.034-1.425c0.014-0.994,0.21-1.753,0.59-2.276c0.379-0.522,0.984-0.865,1.816-1.026c0.415-0.081,0.905-0.085,1.468-0.011
		l-0.081,0.724c-0.525-0.058-0.958-0.053-1.3,0.014c-0.546,0.106-0.953,0.343-1.221,0.711c-0.268,0.368-0.411,0.923-0.426,1.664
		l-0.027,1.457l2.117-0.411l-0.002,0.718l-2.117,0.412l-0.177,10.577c-0.009,0.953-0.176,1.677-0.499,2.174
		C163.22,449.145,162.706,449.462,162,449.599z"/>
	<path fill="#FFFFFF" d="M170.929,433.688c1.024-0.198,1.876-0.044,2.557,0.465s1.127,1.306,1.338,2.393
		c0.218,1.121,0.218,2.21,0.001,3.265s-0.629,1.907-1.235,2.557c-0.606,0.649-1.371,1.063-2.292,1.243
		c-1.048,0.203-1.903,0.047-2.567-0.471c-0.665-0.518-1.11-1.357-1.336-2.518c-0.21-1.088-0.201-2.146,0.03-3.178
		c0.23-1.031,0.649-1.871,1.255-2.521C169.285,434.273,170.035,433.862,170.929,433.688z M171.003,434.436
		c-0.706,0.137-1.297,0.484-1.774,1.04c-0.477,0.557-0.802,1.284-0.976,2.184c-0.173,0.899-0.169,1.815,0.012,2.748
		c0.378,1.947,1.37,2.764,2.975,2.452c0.723-0.141,1.321-0.485,1.796-1.035s0.795-1.286,0.962-2.207
		c0.167-0.921,0.15-1.894-0.049-2.918c-0.17-0.876-0.508-1.51-1.016-1.902S171.783,434.284,171.003,434.436z"/>
	<path fill="#FFFFFF" d="M180.533,431.822c1.024-0.198,1.876-0.044,2.557,0.465c0.681,0.508,1.127,1.306,1.338,2.393
		c0.218,1.121,0.218,2.21,0.001,3.265c-0.217,1.055-0.629,1.907-1.235,2.557c-0.606,0.649-1.371,1.063-2.292,1.243
		c-1.048,0.203-1.903,0.046-2.567-0.471c-0.665-0.518-1.11-1.357-1.336-2.518c-0.211-1.088-0.201-2.146,0.03-3.178
		c0.23-1.031,0.649-1.871,1.255-2.521C178.889,432.408,179.639,431.996,180.533,431.822z M180.607,432.57
		c-0.706,0.137-1.297,0.484-1.774,1.04c-0.477,0.557-0.802,1.284-0.976,2.183c-0.173,0.899-0.169,1.815,0.012,2.748
		c0.378,1.947,1.37,2.764,2.975,2.452c0.723-0.141,1.321-0.485,1.796-1.035c0.475-0.55,0.795-1.286,0.962-2.207
		c0.167-0.921,0.15-1.894-0.049-2.918c-0.17-0.877-0.509-1.51-1.016-1.902C182.03,432.538,181.386,432.418,180.607,432.57z"/>
	<path fill="#FFFFFF" d="M190.189,429.98c1.309-0.254,2.224,0.215,2.745,1.407l0.034-0.007c-0.005-0.389,0.031-2.377,0.107-5.966
		l0.845-0.164l-0.236,13.83l-0.7,0.137l-0.071-2.414l-0.051,0.01c-0.659,1.864-1.703,2.936-3.131,3.213
		c-1.6,0.311-2.605-0.598-3.02-2.726c-0.213-1.099-0.214-2.191-0.003-3.278c0.21-1.087,0.619-1.988,1.223-2.705
		C188.538,430.601,189.29,430.155,190.189,429.98z M189.779,439.221c0.507-0.099,0.98-0.375,1.421-0.83
		c0.439-0.454,0.803-1.021,1.087-1.7c0.285-0.678,0.46-1.394,0.526-2.148c0.066-0.754,0.052-1.371-0.04-1.848
		c-0.14-0.717-0.426-1.256-0.859-1.618c-0.434-0.361-0.955-0.483-1.564-0.365c-0.705,0.138-1.297,0.497-1.774,1.08
		c-0.478,0.584-0.81,1.364-0.998,2.343c-0.187,0.979-0.188,1.946-0.003,2.901C187.9,438.714,188.635,439.443,189.779,439.221z"/>
	<path fill="#FFFFFF" d="M207.793,436.341l-1.651-5.757c-0.327-1.259-0.514-2.008-0.561-2.247l-0.051,0.009
		c-0.092,0.561-0.341,1.467-0.748,2.715l-1.941,6.241l-0.998,0.195l-1.975-9.246l0.786-0.153l1.473,6.987l0.235,1.345l0.051-0.009
		c0.199-0.831,0.462-1.758,0.788-2.785l2.054-6.432l0.657-0.128l1.677,5.708c0.242,0.82,0.446,1.658,0.612,2.512l0.051-0.01
		l0.103-0.561l0.471-2.183l1.602-6.344l0.819-0.159l-2.533,10.121L207.793,436.341z"/>
	<path fill="#FFFFFF" d="M216.229,424.884c1.024-0.198,1.876-0.044,2.557,0.465s1.127,1.306,1.338,2.393
		c0.218,1.121,0.218,2.21,0.001,3.265s-0.629,1.907-1.235,2.557c-0.606,0.649-1.371,1.063-2.292,1.243
		c-1.048,0.203-1.903,0.047-2.567-0.471c-0.665-0.518-1.11-1.357-1.336-2.518c-0.211-1.088-0.201-2.146,0.03-3.178
		c0.23-1.031,0.649-1.871,1.255-2.521C214.586,425.47,215.335,425.058,216.229,424.884z M216.303,425.632
		c-0.706,0.137-1.297,0.484-1.774,1.04c-0.477,0.557-0.802,1.284-0.976,2.183c-0.173,0.899-0.169,1.815,0.012,2.748
		c0.378,1.947,1.37,2.764,2.975,2.452c0.723-0.141,1.321-0.485,1.796-1.035c0.475-0.55,0.795-1.286,0.962-2.207
		c0.167-0.921,0.15-1.894-0.049-2.918c-0.17-0.877-0.509-1.51-1.016-1.902C217.726,425.6,217.083,425.48,216.303,425.632z"/>
	<path fill="#FFFFFF" d="M226.4,422.926c0.393-0.076,0.75-0.104,1.074-0.085l-0.025,0.829c-0.284-0.034-0.614-0.014-0.99,0.06
		c-0.534,0.104-1.008,0.385-1.422,0.844c-0.412,0.458-0.742,1.088-0.987,1.892c-0.246,0.805-0.377,1.647-0.395,2.531l-0.055,4.272
		l-0.837,0.163l0.169-9.662l0.683-0.133l0.09,1.79l0.051-0.01c0.312-0.615,0.587-1.069,0.825-1.36
		c0.239-0.291,0.507-0.534,0.803-0.727C225.68,423.134,226.019,422.999,226.4,422.926z"/>
	<path fill="#FFFFFF" d="M230.087,427.781l4.187-6.218l1.067-0.208l-3.268,4.791l3.561,4.782l-0.905,0.176l-3.181-4.333
		l-1.439,1.945l-0.067,3.3l-0.819,0.159l0.236-13.831l0.819-0.159l-0.123,6.934l-0.102,2.669L230.087,427.781z"/>
	<path fill="#FFFFFF" d="M240.664,430.129c-0.984,0.191-1.813,0.029-2.486-0.487s-1.118-1.332-1.335-2.447
		c-0.2-1.03-0.19-2.057,0.031-3.08c0.221-1.023,0.63-1.883,1.231-2.578c0.6-0.695,1.327-1.126,2.181-1.291
		c0.649-0.127,1.2-0.053,1.655,0.219c0.454,0.272,0.74,0.707,0.856,1.305c0.2,1.03-0.112,1.905-0.938,2.627
		c-0.825,0.722-2.155,1.261-3.987,1.616l-0.281,0.055c0.014,0.257,0.051,0.539,0.111,0.846c0.183,0.94,0.533,1.614,1.049,2.024
		c0.517,0.411,1.17,0.539,1.962,0.385c0.751-0.146,1.496-0.507,2.235-1.081l0.156,0.802
		C242.382,429.591,241.569,429.953,240.664,430.129z M240.325,420.999c-0.746,0.144-1.374,0.608-1.886,1.389
		c-0.513,0.782-0.804,1.75-0.876,2.903l0.419-0.081c2.941-0.572,4.264-1.626,3.965-3.163c-0.074-0.381-0.259-0.671-0.554-0.871
		C241.096,420.978,240.74,420.918,240.325,420.999z"/>
	<path fill="#FFFFFF" d="M248.797,418.573c0.393-0.076,0.75-0.104,1.074-0.085l-0.025,0.829c-0.284-0.034-0.614-0.014-0.99,0.06
		c-0.534,0.103-1.008,0.385-1.422,0.844c-0.412,0.458-0.742,1.088-0.987,1.892c-0.246,0.805-0.377,1.647-0.395,2.531l-0.055,4.272
		l-0.837,0.163l0.169-9.662l0.683-0.133l0.09,1.79l0.051-0.01c0.312-0.615,0.587-1.069,0.825-1.36
		c0.239-0.291,0.507-0.534,0.803-0.727C248.077,418.781,248.416,418.646,248.797,418.573z"/>
	<path fill="#FFFFFF" d="M256.569,424.247c0.159,0.819-0.007,1.53-0.498,2.13c-0.492,0.601-1.241,0.998-2.249,1.194
		c-0.984,0.192-1.894,0.147-2.728-0.134l-0.177-0.913c0.471,0.181,0.946,0.298,1.424,0.353c0.477,0.055,0.912,0.044,1.305-0.033
		c0.786-0.153,1.354-0.433,1.706-0.841c0.352-0.408,0.469-0.913,0.352-1.517c-0.047-0.239-0.131-0.441-0.255-0.606
		c-0.124-0.165-0.3-0.312-0.529-0.442c-0.229-0.129-0.653-0.299-1.273-0.509c-0.931-0.292-1.58-0.595-1.949-0.911
		c-0.368-0.315-0.604-0.74-0.709-1.276c-0.142-0.728,0.023-1.379,0.493-1.952c0.47-0.573,1.164-0.948,2.08-1.126
		c0.426-0.084,0.887-0.121,1.382-0.114c0.494,0.007,0.92,0.061,1.277,0.164l-0.153,0.809c-0.845-0.214-1.631-0.25-2.359-0.109
		c-0.66,0.129-1.16,0.383-1.5,0.762s-0.463,0.81-0.369,1.294c0.061,0.313,0.157,0.554,0.291,0.723
		c0.133,0.169,0.343,0.331,0.629,0.484c0.287,0.155,0.669,0.305,1.147,0.455c0.719,0.232,1.236,0.438,1.55,0.615
		c0.316,0.178,0.562,0.385,0.741,0.622C256.378,423.608,256.502,423.9,256.569,424.247z"/>
</g>
<g>
	<g>
		<path fill="#C73A22" d="M69.922,116.851h-3.55V99.835h9.754v2.956h-6.203v4.388h5.773v2.945h-5.773V116.851z"/>
		<path fill="#C73A22" d="M94.9,108.319c0,2.817-0.698,4.982-2.095,6.495c-1.397,1.513-3.399,2.27-6.006,2.27
			s-4.609-0.757-6.006-2.27s-2.095-3.685-2.095-6.518c0-2.832,0.7-4.995,2.101-6.489c1.4-1.494,3.408-2.241,6.023-2.241
			c2.615,0,4.615,0.753,5.999,2.258C94.207,103.331,94.9,105.495,94.9,108.319z M82.48,108.319c0,1.901,0.361,3.333,1.083,4.295
			c0.722,0.962,1.8,1.443,3.236,1.443c2.878,0,4.318-1.913,4.318-5.738c0-3.833-1.431-5.75-4.294-5.75
			c-1.436,0-2.519,0.483-3.248,1.449C82.845,104.985,82.48,106.419,82.48,108.319z"/>
		<path fill="#C73A22" d="M113.871,108.319c0,2.817-0.698,4.982-2.095,6.495s-3.399,2.27-6.006,2.27s-4.609-0.757-6.006-2.27
			c-1.397-1.513-2.095-3.685-2.095-6.518c0-2.832,0.7-4.995,2.101-6.489c1.4-1.494,3.408-2.241,6.023-2.241
			c2.615,0,4.615,0.753,5.999,2.258C113.179,103.331,113.871,105.495,113.871,108.319z M101.452,108.319
			c0,1.901,0.361,3.333,1.083,4.295c0.722,0.962,1.8,1.443,3.236,1.443c2.878,0,4.318-1.913,4.318-5.738
			c0-3.833-1.431-5.75-4.294-5.75c-1.436,0-2.519,0.483-3.248,1.449C101.817,104.985,101.452,106.419,101.452,108.319z"/>
		<path fill="#C73A22" d="M131.516,108.18c0,2.801-0.798,4.947-2.392,6.436c-1.595,1.49-3.898,2.235-6.908,2.235h-4.819V99.835
			h5.343c2.778,0,4.935,0.733,6.471,2.2C130.748,103.501,131.516,105.549,131.516,108.18z M127.768,108.273
			c0-3.655-1.615-5.482-4.842-5.482h-1.921v11.08h1.548C126.03,113.871,127.768,112.005,127.768,108.273z"/>
		<path fill="#C73A22" d="M157.808,116.851H153.7l-2.305-8.939c-0.086-0.318-0.231-0.976-0.437-1.973
			c-0.206-0.997-0.324-1.666-0.355-2.008c-0.047,0.419-0.163,1.092-0.349,2.02c-0.186,0.927-0.331,1.589-0.431,1.984l-2.292,8.916
			h-4.097l-4.342-17.016h3.55l2.176,9.288c0.38,1.715,0.656,3.201,0.827,4.458c0.047-0.442,0.153-1.127,0.319-2.055
			c0.168-0.927,0.324-1.647,0.472-2.159l2.479-9.532h3.411l2.479,9.532c0.109,0.427,0.245,1.079,0.408,1.955
			c0.163,0.877,0.287,1.629,0.372,2.258c0.077-0.605,0.201-1.36,0.372-2.264c0.17-0.904,0.326-1.635,0.466-2.194l2.165-9.288h3.549
			L157.808,116.851z"/>
		<path fill="#C73A22" d="M179.725,108.319c0,2.817-0.698,4.982-2.095,6.495c-1.397,1.513-3.399,2.27-6.006,2.27
			s-4.609-0.757-6.006-2.27c-1.397-1.513-2.095-3.685-2.095-6.518c0-2.832,0.7-4.995,2.101-6.489c1.4-1.494,3.408-2.241,6.023-2.241
			c2.615,0,4.615,0.753,5.999,2.258C179.032,103.331,179.725,105.495,179.725,108.319z M167.306,108.319
			c0,1.901,0.361,3.333,1.083,4.295c0.722,0.962,1.8,1.443,3.236,1.443c2.878,0,4.318-1.913,4.318-5.738
			c0-3.833-1.431-5.75-4.294-5.75c-1.436,0-2.519,0.483-3.248,1.449C167.671,104.985,167.306,106.419,167.306,108.319z"/>
		<path fill="#C73A22" d="M186.859,110.321v6.53h-3.608V99.835h4.958c2.312,0,4.023,0.421,5.133,1.263
			c1.109,0.842,1.664,2.121,1.664,3.835c0,1.001-0.276,1.891-0.826,2.671c-0.551,0.779-1.331,1.391-2.34,1.833
			c2.561,3.826,4.229,6.297,5.005,7.414h-4.004l-4.062-6.53H186.859z M186.859,107.388h1.164c1.141,0,1.982-0.19,2.526-0.57
			c0.543-0.38,0.815-0.978,0.815-1.792c0-0.807-0.277-1.381-0.832-1.723c-0.555-0.341-1.414-0.512-2.578-0.512h-1.094V107.388z"/>
		<path fill="#C73A22" d="M212.675,116.851h-4.097l-4.457-7.17l-1.525,1.094v6.076h-3.608V99.835h3.608v7.787l1.42-2.002
			l4.609-5.785h4.004l-5.936,7.53L212.675,116.851z"/>
		<path fill="#C73A22" d="M224.617,116.851h-9.8V99.835h9.8v2.956h-6.192v3.736h5.762v2.956h-5.762v4.388h6.192V116.851z"/>
		<path fill="#C73A22" d="M231.775,110.321v6.53h-3.608V99.835h4.958c2.312,0,4.022,0.421,5.132,1.263
			c1.11,0.842,1.665,2.121,1.665,3.835c0,1.001-0.276,1.891-0.827,2.671c-0.551,0.779-1.331,1.391-2.339,1.833
			c2.561,3.826,4.228,6.297,5.005,7.414h-4.004l-4.063-6.53H231.775z M231.775,107.388h1.164c1.141,0,1.982-0.19,2.525-0.57
			c0.543-0.38,0.815-0.978,0.815-1.792c0-0.807-0.277-1.381-0.831-1.723c-0.555-0.341-1.414-0.512-2.578-0.512h-1.094V107.388z"/>
		<path fill="#C73A22" d="M253.947,112.125c0,1.536-0.552,2.747-1.658,3.631c-1.105,0.885-2.644,1.327-4.615,1.327
			c-1.816,0-3.422-0.341-4.819-1.024v-3.352c1.148,0.512,2.12,0.873,2.915,1.082c0.795,0.21,1.522,0.314,2.183,0.314
			c0.791,0,1.399-0.151,1.821-0.454c0.423-0.303,0.634-0.752,0.634-1.35c0-0.333-0.093-0.63-0.279-0.891
			c-0.186-0.26-0.459-0.51-0.82-0.75c-0.36-0.24-1.096-0.624-2.206-1.152c-1.04-0.489-1.819-0.958-2.339-1.408
			c-0.521-0.45-0.936-0.973-1.246-1.571c-0.31-0.597-0.466-1.296-0.466-2.095c0-1.505,0.51-2.689,1.531-3.55
			c1.021-0.861,2.43-1.292,4.231-1.292c0.885,0,1.728,0.105,2.532,0.314c0.803,0.21,1.643,0.505,2.52,0.885l-1.164,2.805
			c-0.908-0.372-1.658-0.632-2.252-0.78c-0.593-0.147-1.178-0.221-1.751-0.221c-0.683,0-1.207,0.159-1.572,0.477
			c-0.365,0.318-0.547,0.733-0.547,1.245c0,0.318,0.074,0.595,0.221,0.832c0.147,0.237,0.383,0.466,0.705,0.687
			c0.321,0.221,1.084,0.619,2.287,1.193c1.59,0.761,2.681,1.523,3.27,2.287C253.652,110.079,253.947,111.016,253.947,112.125z"/>
		<path fill="#C73A22" d="M277.074,99.835v11.011c0,1.257-0.281,2.359-0.844,3.305c-0.564,0.947-1.376,1.672-2.439,2.177
			c-1.063,0.505-2.32,0.757-3.771,0.757c-2.188,0-3.887-0.561-5.098-1.682c-1.21-1.122-1.816-2.656-1.816-4.603V99.835h3.596v10.417
			c0,1.311,0.264,2.274,0.791,2.886c0.528,0.613,1.4,0.919,2.619,0.919c1.179,0,2.035-0.308,2.566-0.926
			c0.532-0.616,0.797-1.584,0.797-2.904V99.835H277.074z"/>
		<path fill="#C73A22" d="M291.285,112.125c0,1.536-0.553,2.747-1.659,3.631c-1.105,0.885-2.643,1.327-4.615,1.327
			c-1.816,0-3.422-0.341-4.819-1.024v-3.352c1.148,0.512,2.12,0.873,2.915,1.082c0.795,0.21,1.523,0.314,2.183,0.314
			c0.791,0,1.399-0.151,1.821-0.454c0.423-0.303,0.635-0.752,0.635-1.35c0-0.333-0.093-0.63-0.279-0.891
			c-0.186-0.26-0.46-0.51-0.821-0.75c-0.36-0.24-1.096-0.624-2.205-1.152c-1.04-0.489-1.82-0.958-2.34-1.408
			c-0.52-0.45-0.935-0.973-1.245-1.571c-0.311-0.597-0.466-1.296-0.466-2.095c0-1.505,0.509-2.689,1.53-3.55
			c1.021-0.861,2.431-1.292,4.231-1.292c0.885,0,1.728,0.105,2.532,0.314c0.803,0.21,1.643,0.505,2.52,0.885l-1.164,2.805
			c-0.908-0.372-1.658-0.632-2.252-0.78c-0.593-0.147-1.177-0.221-1.751-0.221c-0.683,0-1.207,0.159-1.572,0.477
			c-0.364,0.318-0.547,0.733-0.547,1.245c0,0.318,0.074,0.595,0.221,0.832c0.148,0.237,0.383,0.466,0.705,0.687
			c0.321,0.221,1.084,0.619,2.287,1.193c1.59,0.761,2.681,1.523,3.271,2.287C290.99,110.079,291.285,111.016,291.285,112.125z"/>
		<path fill="#C73A22" d="M304.169,116.851h-9.8V99.835h9.8v2.956h-6.192v3.736h5.761v2.956h-5.761v4.388h6.192V116.851z"/>
		<path fill="#C73A22" d="M317.461,116.851h-3.549V99.835h9.754v2.956h-6.204v4.388h5.773v2.945h-5.773V116.851z"/>
		<path fill="#C73A22" d="M342.439,108.319c0,2.817-0.698,4.982-2.095,6.495c-1.397,1.513-3.399,2.27-6.006,2.27
			s-4.609-0.757-6.006-2.27c-1.397-1.513-2.095-3.685-2.095-6.518c0-2.832,0.699-4.995,2.101-6.489
			c1.4-1.494,3.408-2.241,6.023-2.241c2.616,0,4.616,0.753,6,2.258C341.746,103.331,342.439,105.495,342.439,108.319z
			 M330.02,108.319c0,1.901,0.361,3.333,1.082,4.295c0.723,0.962,1.801,1.443,3.237,1.443c2.878,0,4.318-1.913,4.318-5.738
			c0-3.833-1.431-5.75-4.295-5.75c-1.435,0-2.518,0.483-3.247,1.449C330.385,104.985,330.02,106.419,330.02,108.319z"/>
		<path fill="#C73A22" d="M361.411,108.319c0,2.817-0.698,4.982-2.095,6.495c-1.397,1.513-3.399,2.27-6.006,2.27
			s-4.609-0.757-6.006-2.27c-1.397-1.513-2.095-3.685-2.095-6.518c0-2.832,0.699-4.995,2.101-6.489
			c1.4-1.494,3.408-2.241,6.022-2.241c2.616,0,4.616,0.753,6,2.258C360.718,103.331,361.411,105.495,361.411,108.319z
			 M348.992,108.319c0,1.901,0.361,3.333,1.082,4.295c0.723,0.962,1.801,1.443,3.237,1.443c2.878,0,4.318-1.913,4.318-5.738
			c0-3.833-1.431-5.75-4.295-5.75c-1.435,0-2.518,0.483-3.247,1.449C349.357,104.985,348.992,106.419,348.992,108.319z"/>
		<path fill="#C73A22" d="M379.055,108.18c0,2.801-0.797,4.947-2.391,6.436c-1.595,1.49-3.898,2.235-6.908,2.235h-4.819V99.835
			h5.343c2.778,0,4.935,0.733,6.471,2.2C378.287,103.501,379.055,105.549,379.055,108.18z M375.308,108.273
			c0-3.655-1.615-5.482-4.842-5.482h-1.921v11.08h1.548C373.569,113.871,375.308,112.005,375.308,108.273z"/>
		<path fill="#C73A22" d="M398.819,112.125c0,1.536-0.553,2.747-1.659,3.631c-1.105,0.885-2.643,1.327-4.615,1.327
			c-1.816,0-3.422-0.341-4.819-1.024v-3.352c1.148,0.512,2.12,0.873,2.915,1.082c0.795,0.21,1.523,0.314,2.183,0.314
			c0.791,0,1.399-0.151,1.821-0.454c0.423-0.303,0.635-0.752,0.635-1.35c0-0.333-0.093-0.63-0.279-0.891
			c-0.186-0.26-0.46-0.51-0.821-0.75c-0.36-0.24-1.096-0.624-2.205-1.152c-1.04-0.489-1.82-0.958-2.34-1.408
			c-0.52-0.45-0.935-0.973-1.245-1.571c-0.311-0.597-0.466-1.296-0.466-2.095c0-1.505,0.509-2.689,1.53-3.55
			s2.431-1.292,4.231-1.292c0.885,0,1.728,0.105,2.532,0.314c0.803,0.21,1.643,0.505,2.52,0.885l-1.164,2.805
			c-0.908-0.372-1.658-0.632-2.252-0.78c-0.593-0.147-1.177-0.221-1.751-0.221c-0.683,0-1.207,0.159-1.572,0.477
			c-0.364,0.318-0.547,0.733-0.547,1.245c0,0.318,0.074,0.595,0.221,0.832c0.148,0.237,0.383,0.466,0.705,0.687
			c0.321,0.221,1.084,0.619,2.287,1.193c1.59,0.761,2.681,1.523,3.271,2.287C398.524,110.079,398.819,111.016,398.819,112.125z"/>
		<path fill="#C73A22" d="M408.467,116.851h-3.608v-14.013h-4.621v-3.003h12.85v3.003h-4.62V116.851z"/>
		<path fill="#C73A22" d="M426.124,116.851l-1.235-4.05h-6.203l-1.234,4.05h-3.887l6.006-17.086h4.412l6.028,17.086H426.124z
			 M424.029,109.774c-1.142-3.67-1.783-5.745-1.927-6.227c-0.144-0.481-0.247-0.861-0.308-1.141c-0.257,0.994-0.99,3.449-2.2,7.368
			H424.029z"/>
		<path fill="#C73A22" d="M439.358,116.851l-4.097-13.35h-0.105c0.147,2.716,0.221,4.528,0.221,5.435v7.915h-3.224V99.835h4.912
			l4.027,13.012h0.07l4.271-13.012h4.913v17.016h-3.364v-8.054c0-0.38,0.006-0.818,0.018-1.315c0.011-0.496,0.063-1.816,0.156-3.957
			h-0.104l-4.387,13.327H439.358z"/>
		<path fill="#C73A22" d="M466.384,105.142c0,1.832-0.573,3.232-1.717,4.202c-1.144,0.97-2.772,1.455-4.882,1.455h-1.548v6.052
			h-3.608V99.835h5.436c2.063,0,3.632,0.444,4.708,1.332C465.847,102.056,466.384,103.381,466.384,105.142z M458.237,107.842h1.187
			c1.11,0,1.94-0.219,2.491-0.657c0.551-0.439,0.826-1.077,0.826-1.915c0-0.845-0.231-1.47-0.692-1.874
			c-0.462-0.403-1.185-0.605-2.17-0.605h-1.642V107.842z"/>
		<path fill="#C73A22" d="M479.641,112.125c0,1.536-0.553,2.747-1.659,3.631c-1.105,0.885-2.643,1.327-4.615,1.327
			c-1.816,0-3.422-0.341-4.819-1.024v-3.352c1.148,0.512,2.12,0.873,2.915,1.082c0.795,0.21,1.523,0.314,2.183,0.314
			c0.791,0,1.399-0.151,1.821-0.454c0.423-0.303,0.635-0.752,0.635-1.35c0-0.333-0.093-0.63-0.279-0.891
			c-0.186-0.26-0.46-0.51-0.821-0.75c-0.36-0.24-1.096-0.624-2.205-1.152c-1.04-0.489-1.82-0.958-2.34-1.408
			c-0.52-0.45-0.935-0.973-1.245-1.571c-0.311-0.597-0.466-1.296-0.466-2.095c0-1.505,0.509-2.689,1.53-3.55
			s2.431-1.292,4.231-1.292c0.885,0,1.728,0.105,2.532,0.314c0.803,0.21,1.642,0.505,2.52,0.885l-1.164,2.805
			c-0.908-0.372-1.658-0.632-2.252-0.78c-0.593-0.147-1.177-0.221-1.751-0.221c-0.682,0-1.207,0.159-1.572,0.477
			c-0.364,0.318-0.547,0.733-0.547,1.245c0,0.318,0.074,0.595,0.221,0.832c0.148,0.237,0.383,0.466,0.705,0.687
			c0.321,0.221,1.084,0.619,2.287,1.193c1.59,0.761,2.681,1.523,3.271,2.287C479.346,110.079,479.641,111.016,479.641,112.125z"/>
		<path fill="#C73A22" d="M495.482,116.851h-3.608v-14.013h-4.621v-3.003h12.85v3.003h-4.62V116.851z"/>
		<path fill="#C73A22" d="M518.167,108.319c0,2.817-0.698,4.982-2.095,6.495s-3.399,2.27-6.006,2.27s-4.609-0.757-6.006-2.27
			c-1.397-1.513-2.095-3.685-2.095-6.518c0-2.832,0.699-4.995,2.101-6.489c1.4-1.494,3.408-2.241,6.023-2.241
			c2.616,0,4.616,0.753,6,2.258C517.474,103.331,518.167,105.495,518.167,108.319z M505.747,108.319
			c0,1.901,0.361,3.333,1.082,4.295c0.723,0.962,1.801,1.443,3.237,1.443c2.878,0,4.318-1.913,4.318-5.738
			c0-3.833-1.431-5.75-4.295-5.75c-1.435,0-2.518,0.483-3.247,1.449C506.112,104.985,505.747,106.419,505.747,108.319z"/>
		<path fill="#C73A22" d="M76.417,140.73c0,1.536-0.553,2.747-1.659,3.631c-1.105,0.885-2.643,1.327-4.615,1.327
			c-1.816,0-3.422-0.341-4.819-1.024v-3.352c1.148,0.512,2.12,0.873,2.915,1.082c0.796,0.21,1.523,0.314,2.183,0.314
			c0.791,0,1.399-0.151,1.821-0.454c0.424-0.303,0.635-0.752,0.635-1.35c0-0.333-0.093-0.63-0.279-0.891
			c-0.186-0.26-0.46-0.51-0.821-0.75c-0.36-0.24-1.096-0.624-2.205-1.152c-1.04-0.489-1.82-0.958-2.34-1.408
			c-0.52-0.45-0.935-0.973-1.245-1.571c-0.311-0.597-0.466-1.296-0.466-2.095c0-1.505,0.51-2.689,1.53-3.55
			c1.021-0.861,2.431-1.292,4.231-1.292c0.885,0,1.728,0.105,2.532,0.314c0.803,0.21,1.643,0.505,2.52,0.885l-1.164,2.805
			c-0.908-0.372-1.658-0.632-2.252-0.78c-0.593-0.147-1.177-0.221-1.751-0.221c-0.683,0-1.207,0.159-1.571,0.477
			c-0.365,0.318-0.548,0.733-0.548,1.245c0,0.318,0.074,0.595,0.222,0.832c0.147,0.237,0.382,0.466,0.704,0.687
			c0.322,0.221,1.084,0.619,2.287,1.193c1.59,0.761,2.681,1.523,3.271,2.287C76.122,138.683,76.417,139.62,76.417,140.73z"/>
		<path fill="#C73A22" d="M93.351,128.439v11.011c0,1.257-0.281,2.359-0.844,3.305c-0.562,0.947-1.375,1.672-2.439,2.176
			c-1.063,0.505-2.32,0.757-3.771,0.757c-2.188,0-3.887-0.561-5.098-1.682c-1.21-1.122-1.816-2.656-1.816-4.603v-10.964h3.597
			v10.417c0,1.311,0.264,2.274,0.791,2.886c0.527,0.613,1.4,0.919,2.618,0.919c1.18,0,2.035-0.308,2.566-0.926
			c0.532-0.616,0.798-1.584,0.798-2.904v-10.394H93.351z"/>
		<path fill="#C73A22" d="M109.274,133.746c0,1.832-0.572,3.232-1.717,4.202c-1.144,0.97-2.772,1.455-4.882,1.455h-1.548v6.052
			h-3.608v-17.016h5.436c2.063,0,3.633,0.444,4.708,1.332C108.736,130.66,109.274,131.985,109.274,133.746z M101.126,136.446h1.187
			c1.11,0,1.94-0.219,2.491-0.657c0.551-0.439,0.827-1.077,0.827-1.915c0-0.845-0.231-1.47-0.693-1.874
			c-0.462-0.403-1.185-0.605-2.17-0.605h-1.642V136.446z"/>
		<path fill="#C73A22" d="M124.241,133.746c0,1.832-0.572,3.232-1.717,4.202c-1.144,0.97-2.772,1.455-4.882,1.455h-1.548v6.052
			h-3.608v-17.016h5.436c2.063,0,3.633,0.444,4.708,1.332C123.704,130.66,124.241,131.985,124.241,133.746z M116.094,136.446h1.187
			c1.11,0,1.94-0.219,2.491-0.657c0.551-0.439,0.827-1.077,0.827-1.915c0-0.845-0.231-1.47-0.693-1.874
			c-0.462-0.403-1.185-0.605-2.17-0.605h-1.642V136.446z"/>
		<path fill="#C73A22" d="M142.899,136.924c0,2.817-0.698,4.982-2.095,6.495s-3.399,2.27-6.006,2.27s-4.609-0.757-6.006-2.27
			s-2.095-3.685-2.095-6.518c0-2.832,0.7-4.995,2.101-6.489c1.4-1.494,3.408-2.241,6.023-2.241c2.615,0,4.615,0.753,5.999,2.258
			C142.206,131.935,142.899,134.1,142.899,136.924z M130.48,136.924c0,1.901,0.361,3.333,1.083,4.295
			c0.722,0.962,1.8,1.443,3.236,1.443c2.878,0,4.318-1.913,4.318-5.738c0-3.833-1.431-5.75-4.294-5.75
			c-1.436,0-2.519,0.483-3.248,1.449C130.845,133.589,130.48,135.023,130.48,136.924z"/>
		<path fill="#C73A22" d="M150.034,138.926v6.53h-3.608v-17.016h4.958c2.312,0,4.023,0.421,5.133,1.263
			c1.109,0.842,1.664,2.121,1.664,3.835c0,1.001-0.276,1.891-0.826,2.671c-0.551,0.779-1.332,1.391-2.34,1.833
			c2.561,3.826,4.229,6.297,5.005,7.414h-4.004l-4.062-6.53H150.034z M150.034,135.992h1.164c1.141,0,1.982-0.19,2.526-0.57
			c0.543-0.38,0.815-0.978,0.815-1.792c0-0.807-0.277-1.381-0.832-1.723c-0.555-0.341-1.414-0.512-2.578-0.512h-1.094V135.992z"/>
		<path fill="#C73A22" d="M168.726,145.455h-3.608v-14.013h-4.62v-3.003h12.85v3.003h-4.621V145.455z"/>
		<path fill="#C73A22" d="M188.722,145.455h-3.608v-14.013h-4.62v-3.003h12.85v3.003h-4.621V145.455z"/>
		<path fill="#C73A22" d="M209.905,145.455h-3.596v-7.344h-6.739v7.344h-3.608v-17.016h3.608v6.669h6.739v-6.669h3.596V145.455z"/>
		<path fill="#C73A22" d="M224,145.455h-9.8v-17.016h9.8v2.956h-6.192v3.736h5.761v2.956h-5.761v4.388H224V145.455z"/>
		<path fill="#C73A22" d="M227.55,145.455v-17.016h3.608v17.016H227.55z"/>
		<path fill="#C73A22" d="M239.049,138.926v6.53h-3.608v-17.016h4.958c2.312,0,4.023,0.421,5.133,1.263
			c1.109,0.842,1.664,2.121,1.664,3.835c0,1.001-0.276,1.891-0.826,2.671c-0.551,0.779-1.332,1.391-2.34,1.833
			c2.561,3.826,4.229,6.297,5.005,7.414h-4.004l-4.062-6.53H239.049z M239.049,135.992h1.164c1.141,0,1.982-0.19,2.526-0.57
			c0.543-0.38,0.815-0.978,0.815-1.792c0-0.807-0.277-1.381-0.832-1.723c-0.555-0.341-1.414-0.512-2.578-0.512h-1.094V135.992z"/>
		<path fill="#C73A22" d="M260.919,145.455h-3.55v-17.016h9.754v2.956h-6.203v4.388h5.773v2.945h-5.773V145.455z"/>
		<path fill="#C73A22" d="M280.869,145.455l-1.235-4.05h-6.203l-1.234,4.05h-3.887l6.006-17.086h4.412l6.028,17.086H280.869z
			 M278.774,138.378c-1.142-3.67-1.783-5.745-1.926-6.227c-0.144-0.481-0.247-0.861-0.308-1.141c-0.257,0.994-0.99,3.449-2.2,7.368
			H278.774z"/>
		<path fill="#C73A22" d="M294.103,145.455l-4.097-13.35H289.9c0.147,2.716,0.221,4.528,0.221,5.435v7.915h-3.224v-17.016h4.912
			l4.027,13.012h0.07l4.271-13.012h4.913v17.016h-3.364v-8.054c0-0.38,0.006-0.818,0.018-1.315c0.011-0.496,0.063-1.816,0.156-3.957
			h-0.104l-4.387,13.327H294.103z"/>
		<path fill="#C73A22" d="M309.373,145.455v-17.016h3.608v17.016H309.373z"/>
		<path fill="#C73A22" d="M317.264,145.455v-17.016h3.608v14.037h6.902v2.98H317.264z"/>
		<path fill="#C73A22" d="M330.731,145.455v-17.016h3.608v17.016H330.731z"/>
		<path fill="#C73A22" d="M348.423,145.455h-9.8v-17.016h9.8v2.956h-6.192v3.736h5.761v2.956h-5.761v4.388h6.192V145.455z"/>
		<path fill="#C73A22" d="M362.017,140.73c0,1.536-0.553,2.747-1.659,3.631c-1.105,0.885-2.643,1.327-4.615,1.327
			c-1.816,0-3.422-0.341-4.819-1.024v-3.352c1.148,0.512,2.12,0.873,2.915,1.082c0.795,0.21,1.523,0.314,2.183,0.314
			c0.791,0,1.399-0.151,1.821-0.454c0.423-0.303,0.635-0.752,0.635-1.35c0-0.333-0.093-0.63-0.279-0.891
			c-0.186-0.26-0.46-0.51-0.821-0.75c-0.36-0.24-1.096-0.624-2.205-1.152c-1.04-0.489-1.82-0.958-2.34-1.408
			c-0.52-0.45-0.935-0.973-1.245-1.571c-0.311-0.597-0.466-1.296-0.466-2.095c0-1.505,0.509-2.689,1.53-3.55
			c1.021-0.861,2.431-1.292,4.231-1.292c0.885,0,1.728,0.105,2.532,0.314c0.803,0.21,1.643,0.505,2.52,0.885l-1.164,2.805
			c-0.908-0.372-1.658-0.632-2.252-0.78c-0.593-0.147-1.177-0.221-1.751-0.221c-0.683,0-1.207,0.159-1.572,0.477
			c-0.364,0.318-0.547,0.733-0.547,1.245c0,0.318,0.074,0.595,0.221,0.832c0.148,0.237,0.383,0.466,0.705,0.687
			c0.321,0.221,1.084,0.619,2.287,1.193c1.59,0.761,2.681,1.523,3.271,2.287C361.722,138.683,362.017,139.62,362.017,140.73z"/>
		<path fill="#C73A22" d="M382.001,145.455h-11.895v-2.502l4.271-4.318c1.265-1.296,2.091-2.194,2.48-2.695
			c0.388-0.5,0.668-0.964,0.838-1.391c0.17-0.426,0.256-0.869,0.256-1.327c0-0.683-0.188-1.191-0.564-1.525
			c-0.377-0.333-0.879-0.5-1.507-0.5c-0.659,0-1.3,0.151-1.921,0.454c-0.62,0.303-1.268,0.733-1.943,1.292l-1.955-2.316
			c0.838-0.714,1.533-1.218,2.083-1.513c0.551-0.295,1.153-0.522,1.805-0.681c0.652-0.159,1.381-0.239,2.188-0.239
			c1.063,0,2.002,0.194,2.817,0.582c0.815,0.388,1.447,0.931,1.897,1.629c0.451,0.698,0.676,1.498,0.676,2.398
			c0,0.784-0.139,1.519-0.413,2.205c-0.276,0.687-0.703,1.391-1.28,2.113c-0.578,0.722-1.597,1.75-3.055,3.084l-2.188,2.06v0.163
			h7.414V145.455z"/>
		<path fill="#C73A22" d="M384.118,143.791c0-0.652,0.175-1.144,0.524-1.478c0.349-0.333,0.858-0.5,1.524-0.5
			c0.644,0,1.142,0.171,1.496,0.512c0.353,0.342,0.53,0.831,0.53,1.467c0,0.613-0.179,1.096-0.536,1.449
			c-0.357,0.353-0.853,0.529-1.49,0.529c-0.652,0-1.156-0.173-1.512-0.518C384.297,144.906,384.118,144.419,384.118,143.791z"/>
		<path fill="#C73A22" d="M402.404,145.455h-11.895v-2.502l4.271-4.318c1.265-1.296,2.091-2.194,2.48-2.695
			c0.388-0.5,0.668-0.964,0.838-1.391c0.17-0.426,0.256-0.869,0.256-1.327c0-0.683-0.188-1.191-0.564-1.525
			c-0.377-0.333-0.879-0.5-1.507-0.5c-0.659,0-1.3,0.151-1.921,0.454c-0.62,0.303-1.268,0.733-1.943,1.292l-1.955-2.316
			c0.838-0.714,1.533-1.218,2.083-1.513c0.551-0.295,1.153-0.522,1.805-0.681c0.652-0.159,1.381-0.239,2.188-0.239
			c1.063,0,2.002,0.194,2.817,0.582c0.815,0.388,1.447,0.931,1.897,1.629c0.451,0.698,0.676,1.498,0.676,2.398
			c0,0.784-0.139,1.519-0.413,2.205c-0.276,0.687-0.703,1.391-1.28,2.113c-0.578,0.722-1.597,1.75-3.055,3.084l-2.188,2.06v0.163
			h7.414V145.455z"/>
		<path fill="#C73A22" d="M418.058,145.455h-3.608v-14.013h-4.621v-3.003h12.85v3.003h-4.62V145.455z"/>
		<path fill="#C73A22" d="M425.297,145.455v-17.016h3.608v17.016H425.297z"/>
		<path fill="#C73A22" d="M440.393,145.455l-4.097-13.35h-0.105c0.147,2.716,0.221,4.528,0.221,5.435v7.915h-3.224v-17.016h4.912
			l4.027,13.012h0.07l4.271-13.012h4.913v17.016h-3.364v-8.054c0-0.38,0.006-0.818,0.018-1.315c0.011-0.496,0.063-1.816,0.156-3.957
			h-0.104l-4.387,13.327H440.393z"/>
		<path fill="#C73A22" d="M465.464,145.455h-9.8v-17.016h9.8v2.956h-6.192v3.736h5.761v2.956h-5.761v4.388h6.192V145.455z"/>
		<path fill="#C73A22" d="M479.059,140.73c0,1.536-0.553,2.747-1.659,3.631c-1.105,0.885-2.643,1.327-4.615,1.327
			c-1.816,0-3.422-0.341-4.819-1.024v-3.352c1.148,0.512,2.12,0.873,2.915,1.082c0.795,0.21,1.523,0.314,2.183,0.314
			c0.791,0,1.399-0.151,1.821-0.454c0.423-0.303,0.635-0.752,0.635-1.35c0-0.333-0.093-0.63-0.279-0.891
			c-0.186-0.26-0.46-0.51-0.821-0.75c-0.36-0.24-1.096-0.624-2.205-1.152c-1.04-0.489-1.82-0.958-2.34-1.408
			c-0.52-0.45-0.935-0.973-1.245-1.571c-0.311-0.597-0.466-1.296-0.466-2.095c0-1.505,0.509-2.689,1.53-3.55
			c1.021-0.861,2.431-1.292,4.231-1.292c0.885,0,1.728,0.105,2.532,0.314c0.803,0.21,1.643,0.505,2.52,0.885l-1.164,2.805
			c-0.908-0.372-1.658-0.632-2.252-0.78c-0.593-0.147-1.177-0.221-1.751-0.221c-0.683,0-1.207,0.159-1.572,0.477
			c-0.364,0.318-0.547,0.733-0.547,1.245c0,0.318,0.074,0.595,0.221,0.832c0.148,0.237,0.383,0.466,0.705,0.687
			c0.321,0.221,1.084,0.619,2.287,1.193c1.59,0.761,2.681,1.523,3.271,2.287C478.764,138.683,479.059,139.62,479.059,140.73z"/>
		<path fill="#C73A22" d="M495.54,145.455l-4.097-13.35h-0.105c0.147,2.716,0.221,4.528,0.221,5.435v7.915h-3.224v-17.016h4.912
			l4.027,13.012h0.07l4.271-13.012h4.913v17.016h-3.364v-8.054c0-0.38,0.006-0.818,0.018-1.315c0.011-0.496,0.063-1.816,0.156-3.957
			h-0.104l-4.387,13.327H495.54z"/>
		<path fill="#C73A22" d="M526.256,136.924c0,2.817-0.698,4.982-2.095,6.495s-3.399,2.27-6.006,2.27
			c-2.607,0-4.609-0.757-6.006-2.27c-1.397-1.513-2.095-3.685-2.095-6.518c0-2.832,0.699-4.995,2.101-6.489
			c1.4-1.494,3.408-2.241,6.023-2.241c2.616,0,4.616,0.753,6,2.258C525.563,131.935,526.256,134.1,526.256,136.924z
			 M513.837,136.924c0,1.901,0.361,3.333,1.082,4.295c0.723,0.962,1.801,1.443,3.237,1.443c2.878,0,4.318-1.913,4.318-5.738
			c0-3.833-1.431-5.75-4.295-5.75c-1.435,0-2.518,0.483-3.247,1.449C514.202,133.589,513.837,135.023,513.837,136.924z"/>
		<path fill="#C73A22" d="M533.39,138.926v6.53h-3.608v-17.016h4.958c2.312,0,4.023,0.421,5.133,1.263
			c1.109,0.842,1.664,2.121,1.664,3.835c0,1.001-0.276,1.891-0.826,2.671c-0.551,0.779-1.331,1.391-2.34,1.833
			c2.561,3.826,4.229,6.297,5.005,7.414h-4.004l-4.062-6.53H533.39z M533.39,135.992h1.164c1.141,0,1.982-0.19,2.526-0.57
			c0.543-0.38,0.814-0.978,0.814-1.792c0-0.807-0.277-1.381-0.831-1.723c-0.555-0.341-1.414-0.512-2.578-0.512h-1.094V135.992z"/>
		<path fill="#C73A22" d="M555.318,145.455h-9.8v-17.016h9.8v2.956h-6.192v3.736h5.761v2.956h-5.761v4.388h6.192V145.455z"/>
		<path fill="#C73A22" d="M72.936,174.059h-3.608v-14.013h-4.62v-3.003h12.85v3.003h-4.621V174.059z"/>
		<path fill="#C73A22" d="M94.119,174.059h-3.596v-7.344h-6.739v7.344h-3.608v-17.016h3.608v6.669h6.739v-6.669h3.596V174.059z"/>
		<path fill="#C73A22" d="M108.831,174.059l-1.234-4.05h-6.203l-1.234,4.05h-3.887l6.006-17.086h4.411l6.029,17.086H108.831z
			 M106.736,166.983c-1.141-3.67-1.782-5.745-1.926-6.227c-0.144-0.481-0.247-0.861-0.309-1.141
			c-0.256,0.994-0.989,3.449-2.199,7.368H106.736z"/>
		<path fill="#C73A22" d="M129.957,174.059h-4.586l-7.402-12.873h-0.105c0.147,2.274,0.222,3.895,0.222,4.865v8.008h-3.224v-17.016
			h4.551l7.39,12.745h0.082c-0.116-2.211-0.175-3.775-0.175-4.691v-8.054h3.248V174.059z"/>
		<path fill="#C73A22" d="M150.848,174.059l-1.234-4.05h-6.203l-1.234,4.05h-3.887l6.006-17.086h4.411l6.029,17.086H150.848z
			 M148.753,166.983c-1.141-3.67-1.782-5.745-1.926-6.227c-0.144-0.481-0.247-0.861-0.309-1.141
			c-0.256,0.994-0.989,3.449-2.199,7.368H148.753z"/>
		<path fill="#C73A22" d="M156.877,174.059v-17.016h3.608v14.037h6.902v2.98H156.877z"/>
		<path fill="#C73A22" d="M170.344,174.059v-17.016h3.608v14.037h6.901v2.98H170.344z"/>
		<path fill="#C73A22" d="M205.448,165.528c0,2.817-0.698,4.982-2.095,6.495s-3.399,2.27-6.006,2.27s-4.609-0.757-6.006-2.27
			s-2.095-3.685-2.095-6.518c0-2.832,0.7-4.995,2.101-6.489c1.4-1.494,3.408-2.241,6.023-2.241c2.615,0,4.615,0.753,5.999,2.258
			C204.755,160.539,205.448,162.704,205.448,165.528z M193.028,165.528c0,1.901,0.361,3.333,1.083,4.295
			c0.722,0.962,1.8,1.443,3.236,1.443c2.878,0,4.318-1.913,4.318-5.738c0-3.833-1.431-5.75-4.294-5.75
			c-1.436,0-2.519,0.483-3.248,1.449C193.393,162.193,193.028,163.627,193.028,165.528z"/>
		<path fill="#C73A22" d="M215.538,174.059h-3.608v-14.013h-4.62v-3.003h12.85v3.003h-4.621V174.059z"/>
		<path fill="#C73A22" d="M236.721,174.059h-3.596v-7.344h-6.739v7.344h-3.608v-17.016h3.608v6.669h6.739v-6.669h3.596V174.059z"/>
		<path fill="#C73A22" d="M250.817,174.059h-9.8v-17.016h9.8v2.956h-6.192v3.736h5.761v2.956h-5.761v4.388h6.192V174.059z"/>
		<path fill="#C73A22" d="M257.974,167.53v6.53h-3.608v-17.016h4.958c2.312,0,4.023,0.421,5.133,1.263
			c1.109,0.842,1.664,2.121,1.664,3.835c0,1.001-0.276,1.891-0.826,2.671c-0.551,0.779-1.332,1.391-2.34,1.833
			c2.561,3.826,4.229,6.297,5.005,7.414h-4.004l-4.062-6.53H257.974z M257.974,164.597h1.164c1.141,0,1.982-0.19,2.526-0.57
			c0.543-0.38,0.815-0.978,0.815-1.792c0-0.807-0.277-1.381-0.832-1.723c-0.555-0.341-1.414-0.512-2.578-0.512h-1.094V164.597z"/>
		<path fill="#C73A22" d="M276.294,174.059v-17.016h3.608v17.016H276.294z"/>
		<path fill="#C73A22" d="M299.281,174.059h-4.585l-7.402-12.873h-0.105c0.147,2.274,0.221,3.895,0.221,4.865v8.008h-3.224v-17.016
			h4.551l7.39,12.745h0.081c-0.115-2.211-0.174-3.775-0.174-4.691v-8.054h3.247V174.059z"/>
		<path fill="#C73A22" d="M317.682,165.388c0,2.801-0.797,4.947-2.391,6.436c-1.595,1.49-3.898,2.235-6.908,2.235h-4.819v-17.016
			h5.343c2.778,0,4.935,0.733,6.471,2.2S317.682,162.758,317.682,165.388z M313.936,165.481c0-3.655-1.615-5.482-4.842-5.482h-1.921
			v11.08h1.548C312.197,171.08,313.936,169.214,313.936,165.481z"/>
		<path fill="#C73A22" d="M335.06,157.043v11.011c0,1.257-0.281,2.359-0.844,3.305c-0.563,0.947-1.375,1.672-2.439,2.176
			c-1.063,0.505-2.32,0.757-3.771,0.757c-2.188,0-3.887-0.561-5.098-1.682c-1.21-1.122-1.816-2.656-1.816-4.603v-10.964h3.597
			v10.417c0,1.311,0.264,2.274,0.791,2.886c0.527,0.613,1.4,0.919,2.618,0.919c1.18,0,2.034-0.308,2.566-0.926
			c0.532-0.616,0.797-1.584,0.797-2.904v-10.394H335.06z"/>
		<path fill="#C73A22" d="M349.272,169.334c0,1.536-0.553,2.747-1.659,3.631c-1.105,0.885-2.643,1.327-4.615,1.327
			c-1.816,0-3.422-0.341-4.819-1.024v-3.352c1.148,0.512,2.12,0.873,2.915,1.082c0.795,0.21,1.523,0.314,2.183,0.314
			c0.791,0,1.399-0.151,1.821-0.454c0.423-0.303,0.635-0.752,0.635-1.35c0-0.333-0.093-0.63-0.279-0.891
			c-0.186-0.26-0.46-0.51-0.821-0.75c-0.36-0.24-1.096-0.624-2.205-1.152c-1.04-0.489-1.82-0.958-2.34-1.408
			c-0.52-0.45-0.935-0.973-1.245-1.571c-0.311-0.597-0.466-1.296-0.466-2.095c0-1.505,0.509-2.689,1.53-3.55
			c1.021-0.861,2.431-1.292,4.231-1.292c0.885,0,1.728,0.105,2.532,0.314c0.803,0.21,1.642,0.505,2.52,0.885l-1.164,2.805
			c-0.908-0.372-1.658-0.632-2.252-0.78c-0.593-0.147-1.177-0.221-1.751-0.221c-0.683,0-1.207,0.159-1.572,0.477
			c-0.364,0.318-0.547,0.733-0.547,1.245c0,0.318,0.074,0.595,0.221,0.832c0.148,0.237,0.383,0.466,0.705,0.687
			c0.321,0.221,1.084,0.619,2.287,1.193c1.59,0.761,2.681,1.523,3.271,2.287C348.977,167.287,349.272,168.224,349.272,169.334z"/>
		<path fill="#C73A22" d="M358.92,174.059h-3.608v-14.013h-4.621v-3.003h12.85v3.003h-4.62V174.059z"/>
		<path fill="#C73A22" d="M369.768,167.53v6.53h-3.608v-17.016h4.958c2.312,0,4.023,0.421,5.133,1.263
			c1.109,0.842,1.664,2.121,1.664,3.835c0,1.001-0.276,1.891-0.826,2.671c-0.551,0.779-1.332,1.391-2.34,1.833
			c2.561,3.826,4.229,6.297,5.005,7.414h-4.004l-4.062-6.53H369.768z M369.768,164.597h1.164c1.141,0,1.982-0.19,2.526-0.57
			c0.543-0.38,0.814-0.978,0.814-1.792c0-0.807-0.277-1.381-0.832-1.723c-0.555-0.341-1.414-0.512-2.578-0.512h-1.094V164.597z"/>
		<path fill="#C73A22" d="M381.896,174.059v-17.016h3.608v17.016H381.896z"/>
		<path fill="#C73A22" d="M399.587,174.059h-9.8v-17.016h9.8v2.956h-6.192v3.736h5.761v2.956h-5.761v4.388h6.192V174.059z"/>
		<path fill="#C73A22" d="M413.182,169.334c0,1.536-0.553,2.747-1.659,3.631c-1.105,0.885-2.643,1.327-4.615,1.327
			c-1.816,0-3.422-0.341-4.819-1.024v-3.352c1.148,0.512,2.12,0.873,2.915,1.082c0.795,0.21,1.523,0.314,2.183,0.314
			c0.791,0,1.399-0.151,1.821-0.454c0.423-0.303,0.635-0.752,0.635-1.35c0-0.333-0.093-0.63-0.279-0.891
			c-0.186-0.26-0.46-0.51-0.821-0.75c-0.36-0.24-1.096-0.624-2.205-1.152c-1.04-0.489-1.82-0.958-2.34-1.408
			c-0.52-0.45-0.935-0.973-1.245-1.571c-0.311-0.597-0.466-1.296-0.466-2.095c0-1.505,0.509-2.689,1.53-3.55
			c1.021-0.861,2.431-1.292,4.231-1.292c0.885,0,1.728,0.105,2.532,0.314c0.803,0.21,1.643,0.505,2.52,0.885l-1.164,2.805
			c-0.908-0.372-1.658-0.632-2.252-0.78c-0.593-0.147-1.177-0.221-1.751-0.221c-0.683,0-1.207,0.159-1.572,0.477
			c-0.364,0.318-0.547,0.733-0.547,1.245c0,0.318,0.074,0.595,0.221,0.832c0.148,0.237,0.383,0.466,0.705,0.687
			c0.321,0.221,1.084,0.619,2.287,1.193c1.59,0.761,2.681,1.523,3.271,2.287C412.887,167.287,413.182,168.224,413.182,169.334z"/>
	</g>
</g>
<path fill="#C73A22" d="M625.875,58.102c0,4.01-5.123,7.261-11.442,7.261H25.566c-6.319,0-11.442-3.251-11.442-7.261V25.43
	c0-4.01,5.123-7.261,11.442-7.261h588.867c6.319,0,11.442,3.251,11.442,7.261V58.102z"/>
<line fill="none" stroke="#FFFFFF" stroke-width="8" stroke-miterlimit="10" x1="50.176" y1="41.766" x2="589.825" y2="41.766"/>
<circle fill="#D58C84" cx="50.176" cy="41.766" r="10.49"/>
<circle fill="#FFFFFF" cx="358.546" cy="41.766" r="10.49"/>
<circle fill="#FFFFFF" cx="589.825" cy="41.766" r="10.49"/>
<circle fill="#D58C84" cx="204.361" cy="41.766" r="10.49"/>
<circle fill="#FFFFFF" cx="512.732" cy="41.766" r="10.49"/>
<path fill="none" stroke="#D58C84" stroke-width="8" stroke-miterlimit="10" d="M50.176,41.766h197.043"/>
<circle fill="#FFFFFF" cx="281.454" cy="41.766" r="10.49"/>
<circle fill="#D58C84" cx="127.268" cy="41.766" r="10.49"/>
<circle fill="#FFFFFF" cx="435.639" cy="41.766" r="10.49"/>
</svg>
