<?xml version="1.0" encoding="utf-8"?>
<!-- Generator: Adobe Illustrator 17.0.0, SVG Export Plug-In . SVG Version: 6.00 Build 0)  -->
<!DOCTYPE svg PUBLIC "-//W3C//DTD SVG 1.1//EN" "http://www.w3.org/Graphics/SVG/1.1/DTD/svg11.dtd">
<svg version="1.1" id="Layer_1" xmlns="http://www.w3.org/2000/svg" xmlns:xlink="http://www.w3.org/1999/xlink" x="0px" y="0px"
	 width="640px" height="506.594px" viewBox="0 0 640 506.594" enable-background="new 0 0 640 506.594" xml:space="preserve">
<path fill="#C73A22" d="M628.075,60.244c0,4.039-5.159,7.313-11.524,7.313H23.449c-6.364,0-11.524-3.274-11.524-7.313V27.337
	c0-4.039,5.159-7.313,11.524-7.313h593.102c6.365,0,11.524,3.274,11.524,7.313V60.244z"/>
<line fill="none" stroke="#FFFFFF" stroke-width="7.6826" stroke-miterlimit="10" x1="48.235" y1="43.79" x2="591.765" y2="43.79"/>
<circle fill="#D58C84" cx="48.235" cy="43.79" r="10.565"/>
<circle fill="#D58C84" cx="358.824" cy="43.79" r="10.565"/>
<circle fill="#D58C84" cx="591.765" cy="43.79" r="10.565"/>
<circle fill="#D58C84" cx="203.529" cy="43.79" r="10.565"/>
<circle fill="#D58C84" cx="514.118" cy="43.79" r="10.565"/>
<path fill="none" stroke="#D58C84" stroke-width="8" stroke-miterlimit="10" d="M48.235,43.79h545.407"/>
<circle fill="#D58C84" cx="281.176" cy="43.79" r="10.565"/>
<circle fill="#D58C84" cx="125.882" cy="43.79" r="10.565"/>
<circle fill="#D58C84" cx="436.471" cy="43.79" r="10.565"/>
<circle fill="#CCCF38" cx="324.186" cy="365.358" r="119.746"/>
<g>
	<path fill="#C43E27" d="M230.54,173.981c-1.336,0-2.542,0.482-3.618,1.447s-1.92,2.295-2.533,3.989
		c-0.611,1.694-0.918,3.531-0.918,5.511c0,1.657,0.346,2.895,1.039,3.711c0.692,0.816,1.688,1.225,2.987,1.225
		c1.026,0,2.065-0.127,3.117-0.381c1.051-0.253,2.288-0.683,3.711-1.289v5.993c-2.512,1.113-5.232,1.67-8.164,1.67
		c-3.217,0-5.693-0.919-7.431-2.756c-1.738-1.837-2.607-4.438-2.607-7.802c0-3.29,0.628-6.309,1.883-9.055
		c1.256-2.746,2.963-4.818,5.121-6.216c2.159-1.397,4.63-2.097,7.413-2.097c3.277,0,6.253,0.811,8.925,2.431l-2.746,5.659
		c-1.15-0.681-2.208-1.19-3.173-1.531C232.581,174.151,231.579,173.981,230.54,173.981z"/>
	<path fill="#C43E27" d="M247.777,195.857c-2.586,0-4.58-0.699-5.984-2.097c-1.403-1.397-2.105-3.396-2.105-5.993
		s0.492-4.945,1.475-7.042c0.984-2.097,2.366-3.726,4.147-4.889s3.859-1.744,6.234-1.744c2.585,0,4.58,0.699,5.983,2.097
		c1.404,1.397,2.106,3.396,2.106,5.993s-0.491,4.944-1.476,7.041c-0.982,2.097-2.365,3.727-4.146,4.89
		S250.152,195.857,247.777,195.857z M250.709,179.492c-1.015,0-1.883,0.862-2.607,2.588c-0.723,1.726-1.085,3.702-1.085,5.929
		c0,1.646,0.52,2.468,1.559,2.468c1.002,0,1.874-0.859,2.616-2.579s1.113-3.698,1.113-5.938c0-0.816-0.143-1.432-0.427-1.847
		C251.593,179.699,251.203,179.492,250.709,179.492z"/>
	<path fill="#C43E27" d="M273.16,195.486l2.431-11.708c0.186-1.113,0.278-1.861,0.278-2.245c0-1.163-0.445-1.744-1.336-1.744
		c-0.842,0-1.543,0.461-2.106,1.382c-0.563,0.922-1.042,2.286-1.438,4.092l-2.189,10.224h-7.181l4.435-21.022h5.733l-0.297,3.47
		h0.148c0.754-1.41,1.602-2.403,2.542-2.979c0.939-0.575,2.121-0.862,3.544-0.862c1.447,0,2.563,0.331,3.349,0.992
		c0.786,0.662,1.339,1.611,1.661,2.849h0.148c0.804-1.312,1.726-2.279,2.765-2.904c1.039-0.624,2.245-0.937,3.618-0.937
		c1.744,0,3.067,0.522,3.971,1.567c0.902,1.046,1.354,2.589,1.354,4.63c0,1.2-0.137,2.468-0.408,3.804l-2.319,11.393h-7.181
		l2.394-11.708c0.173-0.692,0.26-1.516,0.26-2.468c0-0.495-0.118-0.872-0.353-1.132c-0.235-0.26-0.551-0.39-0.946-0.39
		c-0.916,0-1.654,0.47-2.218,1.41c-0.563,0.94-1.036,2.344-1.419,4.212l-2.06,10.075H273.16z"/>
	<path fill="#C43E27" d="M308.451,195.857c-1.77,0-3.198-0.896-4.286-2.69h-0.148c-0.148,2.054-0.495,4.348-1.039,6.884
		l-0.946,4.564h-7.181l6.383-30.151h5.733l-0.223,2.356h0.148c1.188-1.818,2.783-2.728,4.787-2.728c1.93,0,3.444,0.689,4.546,2.068
		c1.101,1.38,1.651,3.275,1.651,5.688c0,2.511-0.434,4.877-1.299,7.097c-0.866,2.221-2.013,3.928-3.442,5.121
		C311.708,195.261,310.146,195.857,308.451,195.857z M308.952,179.863c-0.619,0-1.206,0.353-1.763,1.058s-0.999,1.657-1.327,2.857
		c-0.327,1.2-0.491,2.418-0.491,3.655c0,0.804,0.142,1.447,0.427,1.93c0.284,0.482,0.687,0.724,1.206,0.724
		c0.594,0,1.162-0.353,1.707-1.058c0.544-0.705,0.986-1.651,1.327-2.839c0.34-1.188,0.51-2.406,0.51-3.655
		C310.548,180.754,310.016,179.863,308.952,179.863z"/>
	<path fill="#C43E27" d="M327.043,195.486h-7.181l6.104-28.871h7.181L327.043,195.486z"/>
	<path fill="#C43E27" d="M341.664,195.857c-2.623,0-4.664-0.733-6.123-2.199c-1.46-1.466-2.189-3.503-2.189-6.113
		s0.517-4.964,1.549-7.061c1.033-2.097,2.449-3.686,4.25-4.769c1.799-1.082,3.88-1.623,6.243-1.623c2.35,0,4.199,0.532,5.548,1.596
		c1.348,1.063,2.022,2.48,2.022,4.249c0,2.486-0.968,4.395-2.903,5.724c-1.937,1.33-4.735,1.995-8.396,1.995h-1.095v0.297
		c0,1.831,1.014,2.746,3.043,2.746c0.977,0,1.936-0.146,2.876-0.437c0.939-0.29,2.01-0.751,3.21-1.382v5.084
		c-1.386,0.705-2.679,1.196-3.878,1.475C344.62,195.718,343.234,195.857,341.664,195.857z M344.596,178.954
		c-0.755,0-1.46,0.43-2.115,1.289c-0.656,0.86-1.052,1.834-1.188,2.923h0.538c1.348,0,2.405-0.257,3.173-0.771
		c0.767-0.513,1.15-1.19,1.15-2.031c0-0.396-0.124-0.729-0.371-1.002C345.535,179.09,345.14,178.954,344.596,178.954z"/>
	<path fill="#C43E27" d="M364.319,190.087c0.816,0,1.948-0.291,3.396-0.872v5.399c-1.683,0.829-3.785,1.243-6.309,1.243
		c-1.831,0-3.219-0.393-4.166-1.179c-0.945-0.785-1.419-2.074-1.419-3.868c0-0.94,0.148-2.103,0.445-3.488l1.559-7.459h-2.857
		l0.761-3.525l4.045-1.633l2.542-4.453h4.787l-0.909,4.212h5.344l-1.169,5.399h-5.362l-1.559,7.106
		c-0.198,0.952-0.297,1.602-0.297,1.948C363.15,189.697,363.54,190.087,364.319,190.087z"/>
	<path fill="#C43E27" d="M381.037,195.857c-2.623,0-4.664-0.733-6.123-2.199c-1.46-1.466-2.189-3.503-2.189-6.113
		s0.517-4.964,1.549-7.061c1.033-2.097,2.449-3.686,4.25-4.769c1.799-1.082,3.88-1.623,6.243-1.623c2.35,0,4.199,0.532,5.548,1.596
		c1.348,1.063,2.022,2.48,2.022,4.249c0,2.486-0.968,4.395-2.903,5.724c-1.937,1.33-4.735,1.995-8.396,1.995h-1.095v0.297
		c0,1.831,1.014,2.746,3.043,2.746c0.977,0,1.936-0.146,2.876-0.437c0.939-0.29,2.01-0.751,3.21-1.382v5.084
		c-1.386,0.705-2.679,1.196-3.878,1.475C383.993,195.718,382.607,195.857,381.037,195.857z M383.969,178.954
		c-0.755,0-1.46,0.43-2.115,1.289c-0.656,0.86-1.052,1.834-1.188,2.923h0.538c1.348,0,2.405-0.257,3.173-0.771
		c0.767-0.513,1.15-1.19,1.15-2.031c0-0.396-0.124-0.729-0.371-1.002C384.908,179.09,384.513,178.954,383.969,178.954z"/>
	<path fill="#C43E27" d="M404.045,174.093c0.928,0,1.707,0.188,2.338,0.565c0.631,0.378,1.317,1.129,2.06,2.255h0.148l0.037-0.687
		c0.086-1.707,0.241-3.049,0.464-4.026l1.15-5.585h7.255l-6.123,28.871h-5.733l0.186-2.282h-0.148
		c-0.705,0.978-1.447,1.664-2.227,2.06s-1.695,0.594-2.746,0.594c-1.955,0-3.439-0.689-4.453-2.069
		c-1.015-1.379-1.521-3.361-1.521-5.946c0-2.202,0.442-4.447,1.326-6.735c0.885-2.288,2.02-4.029,3.405-5.224
		C400.847,174.689,402.375,174.093,404.045,174.093z M403.655,190.087c0.618,0,1.209-0.362,1.772-1.086
		c0.563-0.724,1.011-1.691,1.345-2.903s0.501-2.399,0.501-3.563c0-1.781-0.495-2.672-1.484-2.672c-0.606,0-1.2,0.365-1.781,1.095
		c-0.582,0.729-1.052,1.691-1.41,2.885c-0.359,1.194-0.538,2.391-0.538,3.591C402.06,189.202,402.591,190.087,403.655,190.087z"/>
	<path fill="#C43E27" d="M416.347,193.13c0-1.323,0.401-2.375,1.206-3.154c0.804-0.779,1.911-1.169,3.321-1.169
		c1.076,0,1.902,0.25,2.477,0.751c0.576,0.501,0.863,1.21,0.863,2.125c0,1.36-0.393,2.412-1.178,3.154
		c-0.786,0.742-1.859,1.113-3.22,1.113c-1.089,0-1.938-0.238-2.552-0.715C416.653,194.76,416.347,194.058,416.347,193.13z
		 M424.529,185.912h-6.086l2.895-17.553h7.904L424.529,185.912z"/>
</g>
<path fill="#E33C3B" d="M266.276,372.399c0,0,41.222,87.215,91.674,75.348c0,0,26.899-7.014,18.837-116.79
	C376.787,330.957,324.671,314.004,266.276,372.399z"/>
<path fill="#29AD57" d="M267.494,374.854c0,0-16.639-12.69,3.46-18.781c0,0-10.354-34.708,23.754-20.095
	c0,0,10.963-20.675,23.754-4.858c0,0,24.972-44.481,34.108-9.764c0,0,17.983-18.397,24.218,9.601
	C376.787,330.957,307.278,324.069,267.494,374.854z"/>
<path d="M286.855,375.993c-0.407-0.128-0.762-0.017-1.001,0.247c-0.243-0.003-0.49,0.091-0.685,0.343
	c-0.855,1.104-2.143,2.928-1.137,4.323c0.749,1.039,2.306,0.839,3.353,0.494c1.102-0.364,2.267-1.168,2.496-2.376
	C290.205,377.317,288.135,376.396,286.855,375.993z"/>
<path d="M362.075,417.714c-0.407-0.128-0.762-0.017-1.001,0.247c-0.243-0.003-0.49,0.091-0.685,0.343
	c-0.855,1.104-2.143,2.928-1.137,4.323c0.749,1.039,2.306,0.839,3.353,0.494c1.102-0.364,2.267-1.168,2.496-2.376
	C365.425,419.038,363.355,418.116,362.075,417.714z"/>
<path d="M333.753,408.578c-0.407-0.128-0.762-0.017-1.001,0.247c-0.243-0.003-0.49,0.091-0.685,0.343
	c-0.855,1.104-2.143,2.928-1.137,4.323c0.749,1.039,2.306,0.839,3.353,0.494c1.102-0.364,2.267-1.168,2.496-2.376
	C337.103,409.902,335.033,408.98,333.753,408.578z"/>
<path d="M339.764,376.668c-0.407-0.128-0.762-0.017-1.001,0.247c-0.243-0.003-0.49,0.091-0.685,0.343
	c-0.855,1.104-2.143,2.928-1.137,4.323c0.749,1.039,2.306,0.839,3.353,0.494c1.102-0.364,2.267-1.168,2.496-2.376
	C343.114,377.992,341.044,377.071,339.764,376.668z"/>
<path d="M352.287,393.974c-0.45-0.141-0.843-0.019-1.107,0.274c-0.269-0.003-0.542,0.101-0.757,0.379
	c-0.945,1.221-2.37,3.238-1.258,4.782c0.828,1.149,2.551,0.929,3.709,0.546c1.219-0.402,2.508-1.292,2.761-2.628
	C355.993,395.438,353.704,394.419,352.287,393.974z"/>
<path d="M359.068,342.076c-0.407-0.128-0.762-0.017-1.001,0.247c-0.243-0.003-0.49,0.091-0.685,0.343
	c-0.855,1.104-2.143,2.928-1.137,4.323c0.749,1.039,2.306,0.839,3.353,0.494c1.102-0.364,2.267-1.168,2.496-2.376
	C362.419,343.4,360.349,342.479,359.068,342.076z"/>
<path d="M318.959,374.897c-0.328-0.103-0.615-0.014-0.808,0.2c-0.196-0.002-0.395,0.074-0.552,0.277
	c-0.69,0.891-1.729,2.362-0.917,3.488c0.604,0.838,1.861,0.677,2.706,0.398c0.889-0.294,1.829-0.943,2.014-1.917
	C321.662,375.965,319.992,375.222,318.959,374.897z"/>
<path d="M327.528,354.371c-0.407-0.128-0.762-0.017-1.001,0.247c-0.243-0.003-0.49,0.091-0.685,0.343
	c-0.855,1.104-2.143,2.928-1.137,4.323c0.749,1.039,2.306,0.839,3.353,0.494c1.102-0.364,2.267-1.168,2.496-2.376
	C330.878,355.695,328.808,354.774,327.528,354.371z"/>
<path d="M301.708,393.76c-0.358-0.112-0.67-0.015-0.88,0.217c-0.214-0.002-0.431,0.08-0.602,0.301
	c-0.751,0.97-1.884,2.573-0.999,3.8c0.658,0.913,2.027,0.738,2.947,0.434c0.968-0.32,1.993-1.027,2.194-2.089
	C304.653,394.924,302.833,394.114,301.708,393.76z"/>
<path d="M336.853,430.344c-0.247-0.078-0.463-0.011-0.609,0.15c-0.148-0.002-0.298,0.056-0.416,0.209
	c-0.52,0.671-1.303,1.78-0.691,2.629c0.455,0.632,1.402,0.51,2.039,0.3c0.67-0.221,1.379-0.711,1.518-1.445
	C338.89,431.149,337.632,430.588,336.853,430.344z"/>
<path d="M358.924,370.491c-0.247-0.078-0.463-0.011-0.609,0.15c-0.148-0.002-0.298,0.056-0.416,0.209
	c-0.52,0.671-1.303,1.78-0.691,2.629c0.455,0.632,1.402,0.511,2.039,0.3c0.67-0.221,1.379-0.711,1.518-1.445
	C360.961,371.296,359.703,370.735,358.924,370.491z"/>
<path d="M322.325,400.115c-0.247-0.078-0.463-0.011-0.609,0.15c-0.148-0.002-0.298,0.056-0.416,0.209
	c-0.52,0.671-1.303,1.78-0.692,2.629c0.455,0.632,1.402,0.511,2.039,0.3c0.67-0.221,1.379-0.711,1.518-1.445
	C324.362,400.92,323.103,400.36,322.325,400.115z"/>
<path d="M316.424,421.687c-0.247-0.078-0.463-0.011-0.609,0.15c-0.148-0.002-0.298,0.056-0.416,0.209
	c-0.52,0.671-1.303,1.78-0.692,2.629c0.455,0.632,1.402,0.51,2.039,0.3c0.67-0.221,1.379-0.711,1.518-1.445
	C318.462,422.492,317.203,421.931,316.424,421.687z"/>
<path d="M352.043,437.688c-0.247-0.078-0.463-0.011-0.609,0.15c-0.148-0.002-0.298,0.056-0.416,0.209
	c-0.52,0.671-1.303,1.78-0.692,2.629c0.455,0.632,1.402,0.51,2.039,0.3c0.67-0.221,1.379-0.711,1.518-1.445
	C354.08,438.493,352.822,437.932,352.043,437.688z"/>
<path d="M344.764,358.344c-0.247-0.078-0.463-0.011-0.609,0.15c-0.148-0.002-0.298,0.056-0.416,0.209
	c-0.52,0.671-1.303,1.78-0.692,2.629c0.455,0.632,1.402,0.511,2.039,0.3c0.67-0.221,1.379-0.711,1.518-1.445
	C346.802,359.149,345.543,358.589,344.764,358.344z"/>
<path opacity="0.1" d="M365.135,441.129c0,0-3.125,9.269-20.41,7.562c0,0-13.65-2.115-16.902-4.787c0,0-14.541-7.421-17.313-11.463
	c0,0-18.095-16.623-22.017-23.916c0,0-19.409-27.715-20.999-33.671c0,0-15.173-10.89,0.35-17.667l5.967,10.33
	C273.812,367.517,333.741,452.849,365.135,441.129z"/>
<g>
	<path fill="#C43E27" d="M251,137.606h-1.647l-7.396-10.178l-2.57,2.268v7.91h-1.346v-19.274h1.346v10.02l2.135-2.136l7.555-7.884
		h1.714l-7.897,8.147L251,137.606z"/>
	<path fill="#C43E27" d="M264.263,137.606h-10.534v-19.274h10.534v1.239h-9.188v7.291h8.674v1.239h-8.674v8.266h9.188V137.606z"/>
	<path fill="#C43E27" d="M273.056,128.878l5.643-10.547h1.451l-6.421,11.826v7.449h-1.384v-7.343l-6.447-11.931h1.543
		L273.056,128.878z"/>
	<path fill="#C43E27" d="M291.237,137.606h-1.346v-19.274h10.561v1.239h-9.215v8.174h8.701v1.252h-8.701V137.606z"/>
	<path fill="#C43E27" d="M303.444,137.606v-19.274h1.346v19.274H303.444z"/>
	<path fill="#C43E27" d="M324.262,137.606h-1.358l-11.416-17.112h-0.105c0.105,2.039,0.158,3.577,0.158,4.614v12.498h-1.293v-19.274
		h1.346l11.403,17.086h0.079c-0.079-1.582-0.119-3.085-0.119-4.509v-12.577h1.306V137.606z"/>
	<path fill="#C43E27" d="M344.354,127.784c0,3.234-0.849,5.68-2.545,7.336c-1.696,1.657-4.188,2.485-7.475,2.485h-4.615v-19.274
		h5.208c3.076,0,5.416,0.804,7.021,2.413C343.552,122.353,344.354,124.699,344.354,127.784z M342.891,127.837
		c0-2.76-0.701-4.836-2.103-6.229c-1.402-1.393-3.461-2.09-6.177-2.09h-3.546v16.901h3.189
		C340.012,136.419,342.891,133.559,342.891,127.837z"/>
	<path fill="#C43E27" d="M348.783,137.606v-19.274h1.346v19.274H348.783z"/>
	<path fill="#C43E27" d="M369.601,137.606h-1.358l-11.416-17.112h-0.105c0.105,2.039,0.158,3.577,0.158,4.614v12.498h-1.293v-19.274
		h1.346l11.403,17.086h0.079c-0.079-1.582-0.119-3.085-0.119-4.509v-12.577h1.306V137.606z"/>
	<path fill="#C43E27" d="M382.639,127.89h7.106v8.793c-1.864,0.791-3.96,1.187-6.289,1.187c-3.041,0-5.372-0.859-6.994-2.577
		c-1.621-1.718-2.432-4.151-2.432-7.297c0-1.96,0.401-3.698,1.206-5.214c0.804-1.516,1.955-2.687,3.454-3.513
		c1.498-0.826,3.219-1.239,5.161-1.239c2.101,0,3.985,0.387,5.655,1.16l-0.54,1.213c-1.67-0.773-3.401-1.16-5.194-1.16
		c-2.54,0-4.555,0.785-6.045,2.353c-1.489,1.569-2.234,3.685-2.234,6.348c0,2.9,0.707,5.083,2.123,6.545
		c1.414,1.464,3.493,2.195,6.235,2.195c1.775,0,3.282-0.25,4.522-0.751v-6.776h-5.735V127.89z"/>
	<path fill="#C43E27" d="M405.223,132.636c0,1.608-0.591,2.883-1.773,3.823c-1.182,0.94-2.753,1.411-4.713,1.411
		c-2.355,0-4.162-0.259-5.419-0.778v-1.345c1.389,0.589,3.16,0.883,5.313,0.883c1.582,0,2.837-0.362,3.764-1.088
		c0.928-0.725,1.392-1.676,1.392-2.854c0-0.729-0.154-1.333-0.462-1.813c-0.308-0.479-0.809-0.916-1.503-1.312
		s-1.714-0.822-3.059-1.279c-1.969-0.677-3.329-1.408-4.08-2.195c-0.752-0.787-1.127-1.835-1.127-3.145
		c0-1.441,0.564-2.617,1.693-3.526c1.13-0.91,2.582-1.365,4.357-1.365c1.811,0,3.511,0.343,5.102,1.028l-0.487,1.16
		c-1.6-0.668-3.129-1.002-4.588-1.002c-1.424,0-2.558,0.33-3.401,0.989s-1.266,1.556-1.266,2.689c0,0.712,0.13,1.296,0.389,1.753
		c0.26,0.457,0.684,0.868,1.272,1.233s1.6,0.802,3.032,1.312c1.503,0.519,2.632,1.021,3.389,1.51
		c0.755,0.487,1.307,1.041,1.654,1.661C405.049,131.007,405.223,131.757,405.223,132.636z"/>
</g>
<g>
	<g opacity="0.75">
		<g>
			<defs>
				<circle id="SVGID_1_" cx="326.337" cy="367.358" r="119.746"/>
			</defs>
			<clipPath id="SVGID_2_">
				<use xlink:href="#SVGID_1_"  overflow="visible"/>
			</clipPath>
		</g>
		<g>
			<defs>
				<circle id="SVGID_3_" cx="326.337" cy="367.358" r="119.746"/>
			</defs>
			<clipPath id="SVGID_4_">
				<use xlink:href="#SVGID_3_"  overflow="visible"/>
			</clipPath>
			<path clip-path="url(#SVGID_4_)" d="M129.863,259.11c0,0,41.322,60.372,101.652,88.636c0,0-0.374,27.179,8.521,43.675
				c0,0,10.105,17.861,7.264-35.932c0,0-1.146,8.199,16.888,31.319c0,0,14.786,11.936-5.675-37.366c0,0,16.258,32.216,31.066,43.159
				c0,0,11.328-0.673-20.715-48.74c0,0,8.546,9.654,27.899,18.702c0,0,16.25,6.587-20.131-25.78c0,0,13.915,9.091,23.704,6.596
				c0,0,6.207-2.942-22.05-16.115l-7.077-2.118l-79.844-99.199"/>
			<path clip-path="url(#SVGID_4_)" d="M458.023,266.108c0,0-24.96,51.703-68.445,80.729c0,0,3.487,21.044-1.474,34.89
				c0,0-5.74,15.047-9.862-27.025c0,0,1.853,6.227-9.419,26.287c0,0-10.069,11,0.008-29.66c0,0-8.825,26.908-19.027,37.141
				c0,0-8.868,0.81,10.339-40.254c0,0-5.495,8.495-19.446,17.792c0,0-11.833,7.022,12.587-22.371c0,0-9.727,8.69-17.616,7.906
				c0,0-5.162-1.553,15.213-15.097l5.242-2.476l50.282-86.36"/>
		</g>
		<g>
			<defs>
				<circle id="SVGID_5_" cx="326.337" cy="367.358" r="119.746"/>
			</defs>
			<clipPath id="SVGID_6_">
				<use xlink:href="#SVGID_5_"  overflow="visible"/>
			</clipPath>
		</g>
	</g>
	<g>
		<g>
			<defs>
				<circle id="SVGID_7_" cx="324.337" cy="365.358" r="119.746"/>
			</defs>
			<clipPath id="SVGID_8_">
				<use xlink:href="#SVGID_7_"  overflow="visible"/>
			</clipPath>
		</g>
		<g>
			<defs>
				<circle id="SVGID_9_" cx="324.337" cy="365.358" r="119.746"/>
			</defs>
			<clipPath id="SVGID_10_">
				<use xlink:href="#SVGID_9_"  overflow="visible"/>
			</clipPath>
			<g clip-path="url(#SVGID_10_)">
				<path fill="#B99C4E" d="M127.863,257.11c0,0,41.322,60.372,101.652,88.636c0,0-0.374,27.179,8.521,43.675
					c0,0,10.105,17.861,7.264-35.932c0,0-1.146,8.199,16.888,31.319c0,0,14.786,11.936-5.675-37.366
					c0,0,16.258,32.216,31.066,43.159c0,0,11.328-0.673-20.715-48.74c0,0,8.546,9.654,27.899,18.702c0,0,16.25,6.587-20.131-25.78
					c0,0,13.915,9.091,23.704,6.596c0,0,6.207-2.942-22.05-16.115l-7.077-2.118l-79.844-99.199"/>
				<path fill="#B99C4E" d="M456.023,264.108c0,0-24.96,51.703-68.445,80.729c0,0,3.487,21.044-1.474,34.89
					c0,0-5.74,15.047-9.862-27.025c0,0,1.853,6.227-9.419,26.287c0,0-10.069,11,0.008-29.66c0,0-8.825,26.908-19.027,37.141
					c0,0-8.868,0.81,10.339-40.254c0,0-5.495,8.495-19.446,17.792c0,0-11.833,7.022,12.587-22.371c0,0-9.727,8.69-17.616,7.906
					c0,0-5.162-1.553,15.213-15.097l5.242-2.476l50.282-86.36"/>
			</g>
		</g>
		<g>
			<defs>
				<circle id="SVGID_11_" cx="324.337" cy="365.358" r="119.746"/>
			</defs>
			<clipPath id="SVGID_12_">
				<use xlink:href="#SVGID_11_"  overflow="visible"/>
			</clipPath>
		</g>
	</g>
</g>
</svg>
