<?xml version="1.0" encoding="utf-8"?>
<!-- Generator: Adobe Illustrator 17.0.0, SVG Export Plug-In . SVG Version: 6.00 Build 0)  -->
<!DOCTYPE svg PUBLIC "-//W3C//DTD SVG 1.1//EN" "http://www.w3.org/Graphics/SVG/1.1/DTD/svg11.dtd">
<svg version="1.1" id="Layer_1" xmlns="http://www.w3.org/2000/svg" xmlns:xlink="http://www.w3.org/1999/xlink" x="0px" y="0px"
	 width="640px" height="508.919px" viewBox="0 0 640 508.919" enable-background="new 0 0 640 508.919" xml:space="preserve">
<path fill="#274C1A" d="M252.622,345.716c0,0,54.15-112.988,161.904-85.624c0,0,168.621,10.566,108.55,206.95L252.622,345.716z"/>
<path fill="#C8CE7E" d="M404.339,279.241c0,0-8.137,46.954-36.838,65.374l17.24,26.758c0,0,38.48-32.577,44.694-92.132
	L404.339,279.241L404.339,279.241z"/>
<path fill="#39602B" d="M384.742,355.678c0,0-198.192-144.872-231.921,92.124"/>
<path fill="#60964B" d="M104.624,497.58c0,0,113.361-152.824,309.902-141.28c0,0,78.207,11.77,153.248,129.03L104.624,497.58z"/>
<path fill="#C8CE7E" d="M156.081,496.219c0,0,161.679-130.051,339.118-96.021c0,0,19.207,17.272,26.284,25.04
	c0,0-169.37,11.276-231.261,67.433L156.081,496.219z"/>
<path fill="#C8CE7E" d="M266.911,311.86c0,0-59.913,49.251-58.951,84.366c0.962,35.116,23.571,17.798,23.571,17.798
	s71.378-93.728,58.813-99.791C288.052,313.128,272.799,311.803,266.911,311.86z"/>
<path fill="#808080" d="M442.857,218.353c0,0-27.447-12.626,0-25.252c0,0-11.528-24.381,20.311-18.504c0,0,9.332-23.786,20.86-5.386
	c0,0,29.094,10.166,7.685,27.732c0,0,18.115,23.605-2.196,21.409c0,0-1.647,24.703-16.468,9.332c0,0-15.645,17.303-21.134-4.66
	C451.915,223.025,440.661,232.626,442.857,218.353z"/>
<rect x="383.873" y="234.053" fill="#B3B3B3" width="91.125" height="45.188"/>
<polyline fill="#B3B3B3" points="451.394,235.015 451.394,224.596 465.117,222.149 465.117,235.015 "/>
<polyline fill="#FFFFFF" points="411.869,279.554 411.869,261.762 420.652,261.762 420.652,279.554 "/>
<polyline fill="#FFFFFF" points="389.789,243.845 404.428,243.845 404.428,251.644 389.789,251.644 389.789,244.746 "/>
<polyline fill="#FFFFFF" points="411.259,243.845 425.898,243.845 425.898,251.644 411.259,251.644 411.259,244.746 "/>
<polyline fill="#FFFFFF" points="430.658,243.652 445.297,243.652 445.297,251.451 430.658,251.451 430.658,244.553 "/>
<path fill="#EDFF00" d="M217.069,382.475c0,0-4.307-11.305,11.843-10.766c0,0,9.69-1.077,9.42,9.421L217.069,382.475z"/>
<polyline fill="#FFFFFF" points="452.003,243.652 466.642,243.652 466.642,251.451 452.003,251.451 452.003,244.553 "/>
<path fill="#941E00" d="M166.982,403.036c0,0,36.09-31.51,70.689-23.699l29.513,29.53l31.501-8.04l16.223,32.301l-138.063,39.255
	L166.982,403.036z"/>
<ellipse transform="matrix(-0.9619 0.2735 -0.2735 -0.9619 530.1716 854.5636)" cx="205.521" cy="464.236" rx="16.926" ry="14.139"/>
<ellipse transform="matrix(-0.9619 0.2735 -0.2735 -0.9619 677.4123 789.5921)" cx="283.67" cy="442.013" rx="16.926" ry="14.139"/>
<path fill="#FFFFFF" d="M238.412,381.942c0,0-6.358,21.438-3.48,36.512l28.454-8.09"/>
<g>
	<path fill="#FFFFFF" d="M198.157,423.021l-7.184,2.043l-1.574-5.535l7.184-2.043l-2.037-7.164l5.494-1.562l2.037,7.164l7.165-2.037
		l1.574,5.535l-7.165,2.037l2.014,7.082l-5.494,1.562L198.157,423.021z"/>
</g>
<line fill="none" stroke="#000000" stroke-width="1.6149" stroke-miterlimit="10" x1="148.059" y1="447.802" x2="73.929" y2="471.51"/>
<line fill="none" stroke="#000000" stroke-width="1.6149" stroke-miterlimit="10" x1="164.339" y1="459.925" x2="90.209" y2="483.633"/>
<line fill="none" stroke="#000000" stroke-width="1.6149" stroke-miterlimit="10" x1="156.081" y1="430.882" x2="81.951" y2="454.589"/>
<path fill="#C73A22" d="M631.575,59.376c0,4.046-5.169,7.327-11.545,7.327H25.853c-6.376,0-11.545-3.28-11.545-7.327V26.409
	c0-4.046,5.169-7.327,11.545-7.327H620.03c6.376,0,11.545,3.28,11.545,7.327V59.376z"/>
<line fill="none" stroke="#FFFFFF" stroke-width="8" stroke-miterlimit="10" x1="50.684" y1="42.893" x2="595.199" y2="42.893"/>
<circle fill="#D58C84" cx="50.684" cy="42.893" r="10.585"/>
<circle fill="#D58C84" cx="361.835" cy="42.893" r="10.585"/>
<circle fill="#FFFFFF" cx="595.199" cy="42.893" r="10.585"/>
<circle fill="#D58C84" cx="206.26" cy="42.893" r="10.585"/>
<circle fill="#D58C84" cx="517.412" cy="42.893" r="10.585"/>
<path fill="none" stroke="#D58C84" stroke-width="8" stroke-miterlimit="10" d="M50.684,42.893h509.889"/>
<circle fill="#D58C84" cx="284.048" cy="42.893" r="10.585"/>
<circle fill="#D58C84" cx="128.472" cy="42.893" r="10.585"/>
<circle fill="#D58C84" cx="439.624" cy="42.893" r="10.585"/>
<path fill="none" stroke="#C73A22" stroke-width="0.9621" stroke-miterlimit="10" d="M311.835,405.366"/>
<path d="M232.492,487.142c0,0,9.621-6.734,25.014-12.026"/>
<path d="M314.908,449.866c0,0,19.564-10.828,30.147-11.309"/>
<path d="M397.109,423.645c0,0,25.873-6.853,36.937-5.351"/>
<path d="M240.619,371.373c0,0-3.316,1.764,4.38-12.186"/>
<path d="M255.582,344.756c0,0,5.821-9.307,11.329-11.869"/>
<path d="M384.742,347.642c0,0,10.759-4.329,13.436-12.026"/>
<path d="M401.336,323.109c0,0,4.741-4.329,5.016-8.178"/>
<path d="M411.259,301.222c0,0,2.583-4.329,2.824-6.253"/>
<g enable-background="new    ">
	<path fill="#C73A22" d="M103.662,113.709h-9.748V97.291h9.748v3.56H98.35v2.584h4.919v3.56H98.35v3.1h5.312V113.709z"/>
	<path fill="#C73A22" d="M115.757,97.291h4.964l-5.379,16.419h-5.222l-5.357-16.419h4.986l2.235,8.321
		c0.464,1.85,0.719,3.138,0.764,3.863c0.052-0.523,0.157-1.179,0.314-1.965s0.296-1.404,0.416-1.854L115.757,97.291z"/>
	<path fill="#C73A22" d="M132.244,113.709h-9.748V97.291h9.748v3.56h-5.312v2.584h4.919v3.56h-4.919v3.1h5.312V113.709z"/>
	<path fill="#C73A22" d="M139.555,107.735v5.975h-4.436V97.291h5.379c4.462,0,6.693,1.617,6.693,4.852
		c0,1.901-0.928,3.373-2.785,4.413l4.784,7.154h-5.031l-3.481-5.975H139.555z M139.555,104.399h0.831
		c1.55,0,2.325-0.685,2.325-2.055c0-1.131-0.76-1.695-2.28-1.695h-0.876V104.399z"/>
	<path fill="#C73A22" d="M156.546,103.377l2.83-6.087h4.807l-5.402,10.007v6.412h-4.47v-6.277l-5.402-10.142h4.829L156.546,103.377z
		"/>
	<path fill="#C73A22" d="M180.737,113.709h-4.503v-8.692c0-1.056,0.022-2.021,0.067-2.897c-0.277,0.337-0.622,0.688-1.033,1.056
		l-1.864,1.538l-2.302-2.83l5.638-4.593h3.998V113.709z"/>
	<path fill="#C73A22" d="M191.383,113.709V97.291h4.458v16.419H191.383z"/>
	<path fill="#C73A22" d="M215.023,113.709h-5.817l-5.997-11.567h-0.101c0.142,1.819,0.213,3.208,0.213,4.167v7.4h-3.931V97.291
		h5.795l5.975,11.41h0.067c-0.105-1.654-0.157-2.983-0.157-3.987v-7.423h3.953V113.709z"/>
	<path fill="#C73A22" d="M235.373,113.709h-11.916v-2.92l4.009-4.055c1.146-1.197,1.894-2.016,2.246-2.453
		c0.352-0.438,0.597-0.814,0.735-1.129c0.139-0.314,0.208-0.644,0.208-0.988c0-0.427-0.139-0.764-0.416-1.011
		s-0.667-0.37-1.168-0.37c-0.517,0-1.039,0.147-1.567,0.443c-0.527,0.296-1.125,0.731-1.791,1.309l-2.437-2.854
		c0.846-0.756,1.557-1.297,2.134-1.622c0.577-0.326,1.204-0.575,1.881-0.747c0.677-0.172,1.439-0.258,2.285-0.258
		c1.063,0,2.012,0.187,2.847,0.561c0.835,0.375,1.482,0.908,1.943,1.601c0.46,0.692,0.69,1.47,0.69,2.331
		c0,0.644-0.081,1.238-0.241,1.785c-0.161,0.547-0.41,1.084-0.747,1.611c-0.337,0.528-0.784,1.084-1.342,1.668
		c-0.558,0.584-1.747,1.692-3.566,3.324v0.112h6.21V113.709z"/>
	<path fill="#C73A22" d="M248.917,105.522c0,2.905-0.487,5.033-1.46,6.385s-2.463,2.027-4.47,2.027c-1.961,0-3.44-0.706-4.436-2.117
		s-1.494-3.51-1.494-6.295c0-2.92,0.487-5.061,1.46-6.424c0.973-1.362,2.463-2.043,4.47-2.043c1.954,0,3.431,0.709,4.431,2.128
		C248.417,100.602,248.917,102.715,248.917,105.522z M241.471,105.522c0,1.857,0.116,3.134,0.348,3.83s0.622,1.045,1.168,1.045
		c0.554,0,0.945-0.359,1.174-1.078c0.228-0.719,0.342-1.984,0.342-3.797c0-1.818-0.116-3.094-0.348-3.823
		c-0.232-0.73-0.622-1.095-1.168-1.095s-0.936,0.352-1.168,1.055C241.587,102.363,241.471,103.651,241.471,105.522z"/>
	<path fill="#C73A22" d="M269.39,102.512c0,1.835-0.541,3.252-1.623,4.251c-1.082,1-2.619,1.499-4.61,1.499h-1.247v5.447h-4.436
		V97.291h5.683c2.074,0,3.631,0.453,4.672,1.358C268.87,99.555,269.39,100.843,269.39,102.512z M261.911,104.647h0.809
		c0.667,0,1.196-0.188,1.589-0.563c0.393-0.374,0.589-0.891,0.589-1.549c0-1.108-0.614-1.662-1.842-1.662h-1.146V104.647z"/>
	<path fill="#C73A22" d="M276.443,107.735v5.975h-4.436V97.291h5.379c4.462,0,6.693,1.617,6.693,4.852
		c0,1.901-0.928,3.373-2.785,4.413l4.784,7.154h-5.031l-3.481-5.975H276.443z M276.443,104.399h0.831
		c1.55,0,2.325-0.685,2.325-2.055c0-1.131-0.76-1.695-2.28-1.695h-0.876V104.399z"/>
	<path fill="#C73A22" d="M302.936,105.477c0,2.764-0.678,4.863-2.033,6.301s-3.339,2.156-5.952,2.156
		c-2.576,0-4.55-0.723-5.924-2.168c-1.374-1.444-2.061-3.549-2.061-6.311c0-2.733,0.683-4.82,2.05-6.262
		c1.366-1.441,3.352-2.162,5.958-2.162c2.613,0,4.593,0.716,5.941,2.146S302.936,102.708,302.936,105.477z M291.638,105.477
		c0,3.175,1.104,4.762,3.313,4.762c1.123,0,1.956-0.385,2.499-1.156c0.543-0.771,0.814-1.973,0.814-3.605
		c0-1.639-0.275-2.851-0.825-3.633c-0.551-0.782-1.372-1.174-2.465-1.174C292.75,100.67,291.638,102.273,291.638,105.477z"/>
	<path fill="#C73A22" d="M319.837,105.152c0,2.74-0.754,4.852-2.263,6.334c-1.508,1.482-3.629,2.224-6.362,2.224H305.9V97.291h5.683
		c2.635,0,4.67,0.674,6.104,2.021C319.121,100.66,319.837,102.606,319.837,105.152z M315.233,105.309
		c0-1.505-0.297-2.62-0.893-3.347c-0.595-0.727-1.499-1.089-2.712-1.089h-1.292v9.197h0.988c1.348,0,2.336-0.392,2.965-1.174
		S315.233,106.918,315.233,105.309z"/>
	<path fill="#C73A22" d="M336.739,97.291v9.883c0,2.148-0.608,3.813-1.824,4.992c-1.217,1.179-2.971,1.769-5.262,1.769
		c-2.239,0-3.959-0.572-5.16-1.719c-1.202-1.145-1.803-2.792-1.803-4.941v-9.983h4.458v9.636c0,1.16,0.218,2.003,0.651,2.527
		c0.435,0.523,1.074,0.785,1.921,0.785c0.905,0,1.563-0.26,1.971-0.78s0.612-1.372,0.612-2.555v-9.613H336.739z"/>
	<path fill="#C73A22" d="M347.498,100.694c-1.056,0-1.879,0.432-2.471,1.297c-0.591,0.864-0.887,2.057-0.887,3.576
		c0,3.16,1.201,4.74,3.604,4.74c0.727,0,1.431-0.102,2.111-0.304c0.682-0.202,1.366-0.445,2.056-0.729v3.75
		c-1.37,0.607-2.92,0.91-4.649,0.91c-2.479,0-4.378-0.719-5.699-2.156c-1.322-1.438-1.982-3.516-1.982-6.232
		c0-1.7,0.32-3.193,0.96-4.481c0.641-1.288,1.562-2.278,2.763-2.971c1.202-0.692,2.615-1.038,4.239-1.038
		c1.774,0,3.471,0.385,5.088,1.156l-1.359,3.492c-0.606-0.284-1.213-0.523-1.819-0.719
		C348.846,100.791,348.194,100.694,347.498,100.694z"/>
	<path fill="#C73A22" d="M362.356,113.709h-4.437v-12.791h-4.009v-3.628h12.443v3.628h-3.998V113.709z"/>
	<path fill="#C73A22" d="M368.701,113.709V97.291h4.459v16.419H368.701z"/>
	<path fill="#C73A22" d="M392.072,105.477c0,2.764-0.678,4.863-2.033,6.301c-1.354,1.438-3.339,2.156-5.952,2.156
		c-2.575,0-4.55-0.723-5.924-2.168c-1.374-1.444-2.061-3.549-2.061-6.311c0-2.733,0.683-4.82,2.05-6.262
		c1.366-1.441,3.352-2.162,5.957-2.162c2.613,0,4.594,0.716,5.941,2.146S392.072,102.708,392.072,105.477z M380.774,105.477
		c0,3.175,1.104,4.762,3.313,4.762c1.123,0,1.956-0.385,2.499-1.156s0.814-1.973,0.814-3.605c0-1.639-0.275-2.851-0.825-3.633
		c-0.551-0.782-1.372-1.174-2.466-1.174C381.886,100.67,380.774,102.273,380.774,105.477z"/>
	<path fill="#C73A22" d="M410.669,113.709h-5.816l-5.998-11.567h-0.1c0.141,1.819,0.213,3.208,0.213,4.167v7.4h-3.931V97.291h5.794
		l5.975,11.41h0.068c-0.105-1.654-0.158-2.983-0.158-3.987v-7.423h3.953V113.709z"/>
	<path fill="#C73A22" d="M437.927,113.709h-5.245l-1.572-7.154c-0.075-0.299-0.192-0.895-0.354-1.785s-0.279-1.636-0.354-2.234
		c-0.06,0.486-0.156,1.091-0.291,1.813s-0.269,1.387-0.399,1.993s-0.676,3.063-1.634,7.367h-5.244l-4.066-16.419h4.279l1.785,8.231
		c0.404,1.82,0.682,3.269,0.832,4.347c0.097-0.764,0.271-1.801,0.521-3.11c0.251-1.311,0.485-2.396,0.702-3.258l1.448-6.21h4.111
		l1.403,6.21c0.239,0.996,0.483,2.146,0.729,3.448c0.248,1.303,0.412,2.276,0.494,2.92c0.098-0.831,0.363-2.272,0.798-4.323
		l1.819-8.255h4.279L437.927,113.709z"/>
	<path fill="#C73A22" d="M459.455,105.477c0,2.764-0.678,4.863-2.032,6.301c-1.355,1.438-3.34,2.156-5.953,2.156
		c-2.575,0-4.55-0.723-5.924-2.168c-1.374-1.444-2.061-3.549-2.061-6.311c0-2.733,0.684-4.82,2.05-6.262s3.353-2.162,5.958-2.162
		c2.612,0,4.593,0.716,5.94,2.146S459.455,102.708,459.455,105.477z M448.157,105.477c0,3.175,1.104,4.762,3.313,4.762
		c1.123,0,1.956-0.385,2.499-1.156s0.814-1.973,0.814-3.605c0-1.639-0.275-2.851-0.825-3.633c-0.551-0.782-1.372-1.174-2.465-1.174
		C449.269,100.67,448.157,102.273,448.157,105.477z"/>
	<path fill="#C73A22" d="M466.856,107.735v5.975h-4.437V97.291h5.38c4.462,0,6.693,1.617,6.693,4.852
		c0,1.901-0.929,3.373-2.785,4.413l4.783,7.154h-5.031l-3.48-5.975H466.856z M466.856,104.399h0.83c1.551,0,2.325-0.685,2.325-2.055
		c0-1.131-0.76-1.695-2.28-1.695h-0.875V104.399z"/>
	<path fill="#C73A22" d="M492.011,113.709h-5.008l-3.246-6.277l-1.314,0.785v5.492h-4.458V97.291h4.458v7.132
		c0.225-0.442,0.678-1.143,1.359-2.101l3.447-5.031h4.852l-5.177,7.356L492.011,113.709z"/>
	<path fill="#C73A22" d="M503.534,113.709h-9.748V97.291h9.748v3.56h-5.312v2.584h4.918v3.56h-4.918v3.1h5.312V113.709z"/>
	<path fill="#C73A22" d="M510.846,107.735v5.975h-4.437V97.291h5.38c4.462,0,6.693,1.617,6.693,4.852
		c0,1.901-0.929,3.373-2.785,4.413l4.783,7.154h-5.031l-3.48-5.975H510.846z M510.846,104.399h0.83c1.551,0,2.325-0.685,2.325-2.055
		c0-1.131-0.76-1.695-2.28-1.695h-0.875V104.399z"/>
	<path fill="#C73A22" d="M532.711,108.723c0,1.019-0.259,1.922-0.774,2.712c-0.518,0.79-1.262,1.404-2.235,1.842
		c-0.974,0.438-2.115,0.657-3.425,0.657c-1.094,0-2.011-0.077-2.752-0.23s-1.513-0.421-2.313-0.803v-3.953
		c0.846,0.435,1.726,0.773,2.64,1.017c0.913,0.243,1.752,0.364,2.516,0.364c0.658,0,1.142-0.113,1.448-0.342s0.46-0.522,0.46-0.882
		c0-0.225-0.062-0.421-0.185-0.59c-0.124-0.168-0.322-0.339-0.596-0.511s-1.001-0.524-2.185-1.056
		c-1.07-0.486-1.873-0.958-2.408-1.415s-0.933-0.98-1.19-1.572c-0.259-0.592-0.388-1.291-0.388-2.1c0-1.513,0.551-2.692,1.65-3.538
		c1.102-0.846,2.613-1.269,4.537-1.269c1.7,0,3.434,0.393,5.2,1.179l-1.358,3.425c-1.535-0.703-2.86-1.055-3.977-1.055
		c-0.576,0-0.995,0.101-1.258,0.303c-0.262,0.202-0.393,0.453-0.393,0.752c0,0.322,0.167,0.61,0.5,0.865s1.237,0.719,2.712,1.393
		c1.415,0.637,2.397,1.319,2.948,2.05C532.436,106.696,532.711,107.615,532.711,108.723z"/>
</g>
<g enable-background="new    ">
	<path fill="#C73A22" d="M103.662,141.309h-9.748V124.89h9.748v3.56H98.35v2.584h4.919v3.56H98.35v3.1h5.312V141.309z"/>
	<path fill="#C73A22" d="M121.328,141.309h-5.132l-3.201-5.133l-3.167,5.133h-5.02l5.447-8.4l-5.121-8.019h4.919l2.965,5.076
		l2.853-5.076h5.065l-5.2,8.366L121.328,141.309z"/>
	<path fill="#C73A22" d="M135.085,130.112c0,1.835-0.541,3.252-1.623,4.251c-1.082,1-2.619,1.499-4.61,1.499h-1.247v5.447h-4.436
		V124.89h5.683c2.074,0,3.631,0.453,4.672,1.358C134.564,127.155,135.085,128.443,135.085,130.112z M127.605,132.247h0.809
		c0.667,0,1.196-0.188,1.589-0.563c0.393-0.374,0.589-0.891,0.589-1.549c0-1.108-0.614-1.662-1.842-1.662h-1.146V132.247z"/>
	<path fill="#C73A22" d="M147.45,141.309h-9.748V124.89h9.748v3.56h-5.312v2.584h4.919v3.56h-4.919v3.1h5.312V141.309z"/>
	<path fill="#C73A22" d="M154.761,135.334v5.975h-4.436V124.89h5.379c4.462,0,6.693,1.617,6.693,4.852
		c0,1.901-0.928,3.373-2.785,4.413l4.784,7.154h-5.031l-3.481-5.975H154.761z M154.761,131.999h0.831
		c1.55,0,2.325-0.685,2.325-2.055c0-1.131-0.76-1.695-2.28-1.695h-0.876V131.999z"/>
	<path fill="#C73A22" d="M165.89,141.309V124.89h4.458v16.419H165.89z"/>
	<path fill="#C73A22" d="M183.646,141.309h-9.748V124.89h9.748v3.56h-5.312v2.584h4.919v3.56h-4.919v3.1h5.312V141.309z"/>
	<path fill="#C73A22" d="M202.153,141.309h-5.817l-5.997-11.567h-0.101c0.142,1.819,0.213,3.208,0.213,4.167v7.4h-3.931V124.89
		h5.795l5.975,11.41h0.067c-0.105-1.654-0.157-2.983-0.157-3.987v-7.423h3.953V141.309z"/>
	<path fill="#C73A22" d="M213.013,128.293c-1.056,0-1.879,0.432-2.471,1.297c-0.591,0.864-0.887,2.057-0.887,3.576
		c0,3.16,1.202,4.74,3.605,4.74c0.726,0,1.43-0.102,2.111-0.304s1.366-0.445,2.055-0.729v3.75c-1.37,0.607-2.92,0.91-4.649,0.91
		c-2.478,0-4.378-0.719-5.699-2.156c-1.322-1.438-1.982-3.516-1.982-6.232c0-1.7,0.32-3.193,0.96-4.481
		c0.641-1.288,1.562-2.278,2.763-2.971c1.202-0.692,2.615-1.038,4.24-1.038c1.774,0,3.47,0.385,5.087,1.156l-1.359,3.492
		c-0.606-0.284-1.213-0.523-1.819-0.719C214.361,128.39,213.709,128.293,213.013,128.293z"/>
	<path fill="#C73A22" d="M230.375,141.309h-9.748V124.89h9.748v3.56h-5.312v2.584h4.919v3.56h-4.919v3.1h5.312V141.309z"/>
	<path fill="#C73A22" d="M239.225,141.309V124.89h4.458v16.419H239.225z"/>
	<path fill="#C73A22" d="M247.232,141.309V124.89h4.436v12.837h6.323v3.582H247.232z"/>
	<path fill="#C73A22" d="M260.619,141.309V124.89h4.436v12.837h6.323v3.582H260.619z"/>
	<path fill="#C73A22" d="M289.639,141.309h-5.817l-5.997-11.567h-0.101c0.142,1.819,0.213,3.208,0.213,4.167v7.4h-3.931V124.89
		h5.795l5.975,11.41h0.067c-0.105-1.654-0.157-2.983-0.157-3.987v-7.423h3.953V141.309z"/>
	<path fill="#C73A22" d="M302.936,141.309h-9.748V124.89h9.748v3.56h-5.312v2.584h4.919v3.56h-4.919v3.1h5.312V141.309z"/>
	<path fill="#C73A22" d="M316.547,136.323c0,1.019-0.258,1.922-0.775,2.712s-1.262,1.404-2.235,1.842
		c-0.973,0.438-2.115,0.657-3.425,0.657c-1.093,0-2.01-0.077-2.751-0.23s-1.512-0.421-2.313-0.803v-3.953
		c0.846,0.435,1.726,0.773,2.639,1.017s1.752,0.364,2.516,0.364c0.659,0,1.142-0.113,1.449-0.342s0.46-0.522,0.46-0.882
		c0-0.225-0.062-0.421-0.185-0.59c-0.124-0.168-0.322-0.339-0.596-0.511c-0.273-0.172-1.001-0.524-2.184-1.056
		c-1.071-0.486-1.874-0.958-2.409-1.415c-0.536-0.457-0.933-0.98-1.19-1.572c-0.259-0.592-0.388-1.291-0.388-2.1
		c0-1.513,0.55-2.692,1.651-3.538s2.613-1.269,4.537-1.269c1.7,0,3.433,0.393,5.2,1.179l-1.359,3.425
		c-1.535-0.703-2.86-1.055-3.976-1.055c-0.577,0-0.996,0.101-1.258,0.303s-0.393,0.453-0.393,0.752c0,0.322,0.167,0.61,0.5,0.865
		c0.333,0.255,1.237,0.719,2.712,1.393c1.415,0.637,2.397,1.319,2.948,2.05C316.271,134.295,316.547,135.214,316.547,136.323z"/>
	<path fill="#C73A22" d="M329.821,136.323c0,1.019-0.258,1.922-0.774,2.712s-1.262,1.404-2.235,1.842
		c-0.973,0.438-2.115,0.657-3.425,0.657c-1.094,0-2.011-0.077-2.752-0.23s-1.512-0.421-2.313-0.803v-3.953
		c0.846,0.435,1.726,0.773,2.64,1.017c0.913,0.243,1.752,0.364,2.516,0.364c0.658,0,1.142-0.113,1.448-0.342
		c0.308-0.229,0.461-0.522,0.461-0.882c0-0.225-0.063-0.421-0.186-0.59c-0.124-0.168-0.322-0.339-0.596-0.511
		c-0.272-0.172-1.001-0.524-2.184-1.056c-1.071-0.486-1.874-0.958-2.409-1.415c-0.536-0.457-0.933-0.98-1.19-1.572
		c-0.259-0.592-0.388-1.291-0.388-2.1c0-1.513,0.55-2.692,1.651-3.538c1.101-0.846,2.613-1.269,4.538-1.269
		c1.699,0,3.433,0.393,5.199,1.179l-1.358,3.425c-1.535-0.703-2.86-1.055-3.976-1.055c-0.577,0-0.996,0.101-1.258,0.303
		c-0.263,0.202-0.394,0.453-0.394,0.752c0,0.322,0.167,0.61,0.5,0.865s1.237,0.719,2.712,1.393c1.415,0.637,2.397,1.319,2.948,2.05
		C329.546,134.295,329.821,135.214,329.821,136.323z"/>
	<path fill="#C73A22" d="M353.697,133.077c0,2.764-0.678,4.863-2.032,6.301c-1.355,1.438-3.34,2.156-5.952,2.156
		c-2.576,0-4.551-0.723-5.925-2.168c-1.373-1.444-2.061-3.549-2.061-6.311c0-2.733,0.684-4.82,2.05-6.262s3.353-2.162,5.958-2.162
		c2.612,0,4.593,0.716,5.94,2.146S353.697,130.307,353.697,133.077z M342.399,133.077c0,3.175,1.104,4.762,3.313,4.762
		c1.123,0,1.956-0.385,2.498-1.156c0.543-0.771,0.814-1.973,0.814-3.605c0-1.639-0.275-2.851-0.825-3.633
		c-0.551-0.782-1.372-1.174-2.465-1.174C343.512,128.27,342.399,129.873,342.399,133.077z"/>
	<path fill="#C73A22" d="M361.099,135.334v5.975h-4.437V124.89h5.38c4.462,0,6.693,1.617,6.693,4.852
		c0,1.901-0.929,3.373-2.785,4.413l4.784,7.154h-5.031l-3.481-5.975H361.099z M361.099,131.999h0.831
		c1.55,0,2.324-0.685,2.324-2.055c0-1.131-0.76-1.695-2.279-1.695h-0.876V131.999z"/>
	<path fill="#C73A22" d="M388.276,141.309l-0.809-3.077h-5.335l-0.831,3.077h-4.874l5.357-16.486h5.918l5.425,16.486H388.276z
		 M386.547,134.593l-0.708-2.695c-0.164-0.599-0.365-1.374-0.601-2.325c-0.236-0.95-0.392-1.632-0.466-2.043
		c-0.067,0.381-0.2,1.01-0.399,1.887c-0.198,0.875-0.638,2.602-1.319,5.177H386.547z"/>
	<path fill="#C73A22" d="M399.339,135.334v5.975h-4.437V124.89h5.38c4.461,0,6.693,1.617,6.693,4.852
		c0,1.901-0.93,3.373-2.785,4.413l4.783,7.154h-5.031l-3.48-5.975H399.339z M399.339,131.999h0.83c1.551,0,2.324-0.685,2.324-2.055
		c0-1.131-0.76-1.695-2.279-1.695h-0.875V131.999z"/>
	<path fill="#C73A22" d="M420.215,141.309h-9.748V124.89h9.748v3.56h-5.312v2.584h4.918v3.56h-4.918v3.1h5.312V141.309z"/>
	<path fill="#C73A22" d="M429.064,141.309V124.89h4.458v16.419H429.064z"/>
	<path fill="#C73A22" d="M452.705,141.309h-5.817l-5.997-11.567h-0.101c0.142,1.819,0.213,3.208,0.213,4.167v7.4h-3.931V124.89
		h5.795l5.975,11.41h0.067c-0.104-1.654-0.157-2.983-0.157-3.987v-7.423h3.953V141.309z"/>
	<path fill="#C73A22" d="M454.962,146.463c-0.809,0-1.575-0.078-2.302-0.235v-3.448c0.239,0.045,0.494,0.096,0.764,0.152
		c0.27,0.056,0.562,0.084,0.876,0.084c0.733,0,1.258-0.221,1.572-0.662c0.314-0.442,0.472-1.198,0.472-2.27V124.89h4.458v14.813
		c0,2.223-0.486,3.906-1.459,5.048C458.369,145.893,456.909,146.463,454.962,146.463z"/>
	<path fill="#C73A22" d="M478.312,124.89v9.883c0,2.148-0.608,3.813-1.825,4.992c-1.217,1.179-2.971,1.769-5.262,1.769
		c-2.238,0-3.959-0.572-5.16-1.719c-1.202-1.145-1.803-2.792-1.803-4.941v-9.983h4.458v9.636c0,1.16,0.218,2.003,0.652,2.527
		c0.434,0.523,1.074,0.785,1.92,0.785c0.906,0,1.563-0.26,1.971-0.78s0.612-1.372,0.612-2.555v-9.613H478.312z"/>
	<path fill="#C73A22" d="M486.194,135.334v5.975h-4.437V124.89h5.38c4.462,0,6.693,1.617,6.693,4.852
		c0,1.901-0.929,3.373-2.785,4.413l4.783,7.154h-5.031l-3.48-5.975H486.194z M486.194,131.999h0.83c1.551,0,2.325-0.685,2.325-2.055
		c0-1.131-0.76-1.695-2.28-1.695h-0.875V131.999z"/>
	<path fill="#C73A22" d="M507.072,141.309h-9.748V124.89h9.748v3.56h-5.312v2.584h4.918v3.56h-4.918v3.1h5.312V141.309z"/>
	<path fill="#C73A22" d="M523.884,132.751c0,2.74-0.754,4.852-2.263,6.334s-3.629,2.224-6.362,2.224h-5.312V124.89h5.683
		c2.636,0,4.67,0.674,6.104,2.021S523.884,130.206,523.884,132.751z M519.28,132.909c0-1.505-0.298-2.62-0.894-3.347
		c-0.595-0.727-1.499-1.089-2.712-1.089h-1.291v9.197h0.988c1.348,0,2.336-0.392,2.965-1.174S519.28,134.518,519.28,132.909z"/>
</g>
</svg>
