<?xml version="1.0" encoding="utf-8"?>
<!-- Generator: Adobe Illustrator 17.0.0, SVG Export Plug-In . SVG Version: 6.00 Build 0)  -->
<!DOCTYPE svg PUBLIC "-//W3C//DTD SVG 1.1//EN" "http://www.w3.org/Graphics/SVG/1.1/DTD/svg11.dtd">
<svg version="1.1" id="Layer_1" xmlns="http://www.w3.org/2000/svg" xmlns:xlink="http://www.w3.org/1999/xlink" x="0px" y="0px"
	 width="640px" height="462.809px" viewBox="0 0 640 462.809" enable-background="new 0 0 640 462.809" xml:space="preserve">
<path fill="#C09C67" d="M123.769,234.869"/>
<rect x="54.015" y="108.748" fill="#808184" width="514.9" height="28.193"/>
<g>
	<g>
		<g>
			<rect x="323.287" y="177.271" fill="#A9807D" width="133.59" height="236.898"/>
		</g>
	</g>
	<g>
		<g>
			<rect x="174.853" y="279.031" fill="#C63D27" width="133.59" height="135.138"/>
		</g>
	</g>
</g>
<g>
	<path fill="#FFFFFF" d="M185.488,303.824h-2.928l2.314-10.95h6.456l-0.502,2.374h-3.528l-0.435,2.09h3.266l-0.517,2.389h-3.28
		L185.488,303.824z"/>
	<path fill="#FFFFFF" d="M197.756,292.702c1.298,0,2.308,0.37,3.03,1.112c0.721,0.741,1.082,1.776,1.082,3.104
		c0,1.328-0.248,2.543-0.745,3.644c-0.497,1.101-1.182,1.945-2.056,2.531c-0.874,0.587-1.887,0.88-3.041,0.88
		c-1.343,0-2.38-0.371-3.112-1.116c-0.732-0.744-1.097-1.777-1.097-3.1c0-1.324,0.257-2.539,0.772-3.647
		c0.514-1.109,1.214-1.954,2.101-2.535C195.575,292.993,196.597,292.702,197.756,292.702z M198.909,296.948
		c0-0.569-0.12-1.014-0.36-1.337c-0.239-0.322-0.587-0.483-1.041-0.483c-0.494,0-0.949,0.21-1.363,0.629
		c-0.414,0.42-0.745,0.996-0.992,1.731c-0.247,0.733-0.371,1.486-0.371,2.254c0,1.208,0.499,1.812,1.498,1.812
		c0.474,0,0.915-0.207,1.322-0.621c0.407-0.414,0.726-0.974,0.958-1.678C198.793,298.551,198.909,297.782,198.909,296.948z"/>
	<path fill="#FFFFFF" d="M209.058,292.702c1.298,0,2.308,0.37,3.03,1.112c0.721,0.741,1.082,1.776,1.082,3.104
		c0,1.328-0.248,2.543-0.745,3.644c-0.497,1.101-1.182,1.945-2.056,2.531c-0.874,0.587-1.887,0.88-3.041,0.88
		c-1.343,0-2.38-0.371-3.112-1.116c-0.732-0.744-1.097-1.777-1.097-3.1c0-1.324,0.257-2.539,0.772-3.647
		c0.514-1.109,1.214-1.954,2.101-2.535C206.877,292.993,207.899,292.702,209.058,292.702z M210.211,296.948
		c0-0.569-0.12-1.014-0.36-1.337c-0.239-0.322-0.587-0.483-1.041-0.483c-0.494,0-0.949,0.21-1.363,0.629
		c-0.414,0.42-0.745,0.996-0.992,1.731c-0.247,0.733-0.371,1.486-0.371,2.254c0,1.208,0.499,1.812,1.498,1.812
		c0.474,0,0.915-0.207,1.322-0.621c0.407-0.414,0.726-0.974,0.958-1.678C210.095,298.551,210.211,297.782,210.211,296.948z"/>
	<path fill="#FFFFFF" d="M223.655,297.015c0,1.398-0.247,2.611-0.741,3.636c-0.494,1.026-1.212,1.812-2.153,2.355
		c-0.942,0.544-2.056,0.817-3.344,0.817h-3.528l2.314-10.95h3.116c1.378,0,2.445,0.361,3.202,1.082
		C223.277,294.678,223.655,295.697,223.655,297.015z M217.858,301.397c0.549,0,1.04-0.175,1.471-0.524
		c0.432-0.35,0.768-0.848,1.007-1.495c0.239-0.646,0.36-1.384,0.36-2.212c0-0.625-0.135-1.097-0.405-1.42
		c-0.269-0.322-0.647-0.483-1.131-0.483h-0.532l-1.288,6.134H217.858z"/>
	<path fill="#FFFFFF" d="M231.766,301.173l0.299-0.779l0.704-1.737l2.509-5.782h2.516v5.932c0,0.779-0.065,1.568-0.195,2.367
		c0.05-0.14,0.382-1.004,0.996-2.591l2.269-5.707h2.899l-4.756,10.95h-3.453v-4.644c0-0.774,0.033-1.583,0.097-2.427
		c-0.165,0.664-0.459,1.535-0.884,2.614l-1.895,4.457h-3.251l-0.367-10.95h2.771l-0.075,5.49
		C231.924,299.697,231.861,300.633,231.766,301.173z"/>
	<path fill="#FFFFFF" d="M249.18,292.702c1.298,0,2.308,0.37,3.03,1.112c0.721,0.741,1.082,1.776,1.082,3.104
		c0,1.328-0.248,2.543-0.745,3.644c-0.497,1.101-1.182,1.945-2.056,2.531c-0.874,0.587-1.887,0.88-3.041,0.88
		c-1.343,0-2.38-0.371-3.112-1.116c-0.732-0.744-1.097-1.777-1.097-3.1c0-1.324,0.257-2.539,0.772-3.647
		c0.514-1.109,1.214-1.954,2.101-2.535C246.999,292.993,248.021,292.702,249.18,292.702z M250.333,296.948
		c0-0.569-0.12-1.014-0.36-1.337c-0.239-0.322-0.587-0.483-1.041-0.483c-0.494,0-0.949,0.21-1.363,0.629
		c-0.414,0.42-0.745,0.996-0.992,1.731c-0.247,0.733-0.371,1.486-0.371,2.254c0,1.208,0.499,1.812,1.498,1.812
		c0.474,0,0.915-0.207,1.322-0.621c0.407-0.414,0.726-0.974,0.958-1.678C250.217,298.551,250.333,297.782,250.333,296.948z"/>
	<path fill="#FFFFFF" d="M257.785,299.84l-0.847,3.984h-2.928l2.314-10.95h2.899c1.258,0,2.222,0.25,2.891,0.749
		c0.669,0.499,1.003,1.251,1.003,2.254c0,0.779-0.177,1.458-0.531,2.037c-0.355,0.579-0.882,1.022-1.58,1.326l1.678,3.864
		l0.299,0.719h-3.19l-1.46-3.984H257.785z M258.257,297.615h0.382c0.474,0,0.851-0.136,1.131-0.408
		c0.28-0.272,0.42-0.653,0.42-1.142c0-0.31-0.087-0.545-0.259-0.708c-0.172-0.162-0.423-0.243-0.753-0.243h-0.397L258.257,297.615z"
		/>
	<path fill="#FFFFFF" d="M273.026,303.824h-3.28l-1.303-4.329l-0.726,0.42l-0.809,3.909h-2.928l2.314-10.95h2.928l-1.011,4.674
		l0.285-0.442c0.439-0.714,0.764-1.2,0.973-1.46l2.225-2.771h3.438l-4.127,5.048L273.026,303.824z"/>
	<path fill="#FFFFFF" d="M280.74,303.824h-6.501l2.314-10.95h6.501l-0.487,2.374h-3.573l-0.352,1.722h3.325l-0.539,2.374h-3.325
		l-0.427,2.067h3.573L280.74,303.824z"/>
	<path fill="#FFFFFF" d="M286.635,299.84l-0.847,3.984h-2.928l2.314-10.95h2.899c1.258,0,2.222,0.25,2.891,0.749
		c0.669,0.499,1.003,1.251,1.003,2.254c0,0.779-0.177,1.458-0.531,2.037c-0.355,0.579-0.882,1.022-1.58,1.326l1.678,3.864
		l0.299,0.719h-3.19l-1.46-3.984H286.635z M287.106,297.615h0.382c0.474,0,0.851-0.136,1.131-0.408
		c0.28-0.272,0.42-0.653,0.42-1.142c0-0.31-0.087-0.545-0.259-0.708c-0.172-0.162-0.423-0.243-0.753-0.243h-0.397L287.106,297.615z"
		/>
	<path fill="#FFFFFF" d="M299.898,300.461c0,1.109-0.367,1.971-1.101,2.587c-0.734,0.617-1.757,0.925-3.071,0.925
		c-0.549,0-1.068-0.061-1.558-0.183c-0.49-0.123-0.912-0.301-1.266-0.535v-2.622c0.419,0.265,0.9,0.487,1.442,0.667
		c0.542,0.18,1.032,0.269,1.471,0.269c0.37,0,0.649-0.078,0.839-0.232c0.189-0.154,0.284-0.374,0.284-0.659
		c0-0.135-0.03-0.26-0.09-0.378c-0.06-0.117-0.145-0.235-0.254-0.352c-0.11-0.118-0.405-0.376-0.884-0.776
		c-0.584-0.469-1.008-0.949-1.273-1.438s-0.397-1.026-0.397-1.61c0-0.655,0.164-1.242,0.491-1.764
		c0.327-0.521,0.789-0.926,1.385-1.213c0.597-0.287,1.265-0.43,2.004-0.43c1.193,0,2.267,0.267,3.22,0.802l-1.011,2.224
		c-0.854-0.439-1.58-0.659-2.179-0.659c-0.319,0-0.565,0.07-0.738,0.21c-0.173,0.139-0.259,0.344-0.259,0.614
		c0,0.245,0.084,0.473,0.251,0.686c0.167,0.212,0.486,0.496,0.955,0.85c0.589,0.434,1.026,0.891,1.311,1.37
		C299.756,299.292,299.898,299.841,299.898,300.461z"/>
</g>
<g>
	<path fill="#FFFFFF" d="M356.599,198.845h-3.355l-0.936,2.052h-3.041l5.573-10.95h3.767l0.921,10.95h-2.854L356.599,198.845z
		 M354.315,196.508h2.195l-0.127-3.175l-0.015-0.645c0-0.374,0.01-0.702,0.03-0.981c-0.12,0.429-0.272,0.844-0.457,1.243
		L354.315,196.508z"/>
	<path fill="#FFFFFF" d="M360.786,200.897l2.314-10.95h2.929l-1.805,8.56h3.573l-0.509,2.389H360.786z"/>
	<path fill="#FFFFFF" d="M368.868,200.897l2.314-10.95h2.929l-1.805,8.56h3.573l-0.509,2.389H368.868z"/>
	<path fill="#FFFFFF" d="M387.405,189.775c1.298,0,2.308,0.37,3.029,1.112c0.721,0.741,1.082,1.776,1.082,3.104
		c0,1.328-0.249,2.543-0.746,3.644s-1.181,1.945-2.055,2.531c-0.874,0.587-1.888,0.88-3.041,0.88c-1.343,0-2.381-0.372-3.111-1.116
		c-0.732-0.744-1.097-1.777-1.097-3.101c0-1.323,0.256-2.539,0.771-3.647c0.515-1.109,1.215-1.953,2.101-2.535
		C385.224,190.066,386.246,189.775,387.405,189.775z M388.558,194.021c0-0.569-0.12-1.015-0.359-1.337
		c-0.239-0.322-0.587-0.483-1.041-0.483c-0.494,0-0.949,0.21-1.363,0.629c-0.414,0.419-0.745,0.996-0.993,1.731
		c-0.247,0.733-0.37,1.486-0.37,2.254c0,1.209,0.5,1.813,1.498,1.813c0.474,0,0.915-0.208,1.322-0.622
		c0.407-0.414,0.727-0.973,0.959-1.677S388.558,194.856,388.558,194.021z"/>
	<path fill="#FFFFFF" d="M396.684,200.897h-2.929l1.776-8.531h-2.374l0.516-2.419h7.7l-0.532,2.419h-2.382L396.684,200.897z"/>
	<path fill="#FFFFFF" d="M409.161,200.897h-2.928l0.936-4.464h-2.592l-0.95,4.464h-2.929l2.314-10.95h2.929l-0.839,4.059h2.606
		l0.839-4.059h2.936L409.161,200.897z"/>
	<path fill="#FFFFFF" d="M418.149,200.897h-6.501l2.314-10.95h6.501l-0.486,2.374h-3.573l-0.352,1.722h3.326l-0.54,2.374h-3.326
		l-0.427,2.067h3.573L418.149,200.897z"/>
	<path fill="#FFFFFF" d="M424.043,196.912l-0.846,3.985h-2.929l2.314-10.95h2.898c1.259,0,2.223,0.25,2.892,0.748
		c0.669,0.5,1.004,1.251,1.004,2.254c0,0.779-0.178,1.458-0.532,2.037c-0.355,0.579-0.881,1.021-1.58,1.326l1.677,3.864l0.3,0.719
		h-3.191l-1.46-3.985H424.043z M424.515,194.688h0.382c0.474,0,0.851-0.137,1.131-0.409c0.28-0.272,0.419-0.652,0.419-1.142
		c0-0.31-0.086-0.545-0.258-0.707c-0.172-0.163-0.423-0.243-0.753-0.243h-0.397L424.515,194.688z"/>
	<path fill="#FFFFFF" d="M346.257,219.303l2.314-10.95h2.974l-2.314,10.95H346.257z"/>
	<path fill="#FFFFFF" d="M361.348,219.303h-3.408l-2.164-7.7h-0.061c-0.144,1.454-0.286,2.497-0.427,3.131l-0.966,4.569h-2.606
		l2.314-10.95h3.408l2.142,7.362h0.067c0.144-1.179,0.287-2.105,0.427-2.778l0.981-4.584h2.606L361.348,219.303z"/>
	<path fill="#FFFFFF" d="M373.6,212.495c0,1.399-0.247,2.61-0.741,3.636c-0.495,1.026-1.212,1.811-2.153,2.356
		c-0.941,0.544-2.056,0.817-3.344,0.817h-3.528l2.314-10.95h3.116c1.378,0,2.445,0.36,3.201,1.082
		C373.222,210.157,373.6,211.177,373.6,212.495z M367.803,216.877c0.55,0,1.04-0.175,1.472-0.525
		c0.431-0.349,0.767-0.848,1.008-1.494c0.239-0.646,0.359-1.384,0.359-2.213c0-0.624-0.135-1.097-0.405-1.419
		c-0.269-0.322-0.646-0.483-1.13-0.483h-0.532l-1.288,6.134H367.803z"/>
	<path fill="#FFFFFF" d="M384.94,208.354l-1.49,6.98c-0.295,1.403-0.857,2.441-1.686,3.112c-0.829,0.672-1.954,1.008-3.377,1.008
		c-0.67,0-1.26-0.138-1.772-0.412c-0.512-0.275-0.906-0.66-1.183-1.153c-0.277-0.495-0.415-1.047-0.415-1.656
		c0-0.319,0.03-0.642,0.09-0.966l1.49-6.912h2.928l-1.46,6.837c-0.07,0.34-0.105,0.627-0.105,0.862c0,0.634,0.302,0.951,0.906,0.951
		c0.47,0,0.837-0.161,1.105-0.484c0.267-0.322,0.471-0.815,0.61-1.479l1.431-6.688H384.94z"/>
	<path fill="#FFFFFF" d="M392.153,215.94c0,1.109-0.367,1.971-1.101,2.587c-0.733,0.616-1.758,0.925-3.07,0.925
		c-0.55,0-1.069-0.062-1.559-0.183c-0.489-0.123-0.911-0.301-1.266-0.536v-2.621c0.42,0.265,0.9,0.487,1.442,0.667
		c0.543,0.18,1.033,0.269,1.472,0.269c0.37,0,0.648-0.078,0.838-0.232c0.19-0.155,0.285-0.375,0.285-0.66
		c0-0.135-0.03-0.261-0.09-0.378c-0.061-0.117-0.145-0.235-0.255-0.352c-0.109-0.118-0.404-0.376-0.883-0.776
		c-0.585-0.47-1.009-0.949-1.273-1.438c-0.265-0.489-0.398-1.026-0.398-1.611c0-0.654,0.164-1.241,0.491-1.763
		c0.326-0.522,0.789-0.926,1.385-1.213c0.596-0.287,1.264-0.43,2.003-0.43c1.194,0,2.268,0.267,3.221,0.801l-1.011,2.225
		c-0.853-0.44-1.58-0.659-2.18-0.659c-0.319,0-0.565,0.069-0.737,0.21c-0.172,0.139-0.258,0.344-0.258,0.614
		c0,0.245,0.083,0.473,0.251,0.686c0.167,0.212,0.486,0.496,0.955,0.849c0.588,0.435,1.025,0.891,1.311,1.371
		C392.01,214.772,392.153,215.321,392.153,215.94z"/>
	<path fill="#FFFFFF" d="M397.935,219.303h-2.929l1.776-8.531h-2.374l0.516-2.419h7.7l-0.532,2.419h-2.382L397.935,219.303z"/>
	<path fill="#FFFFFF" d="M405.723,215.318l-0.846,3.985h-2.929l2.314-10.95h2.898c1.259,0,2.223,0.25,2.892,0.748
		c0.669,0.5,1.004,1.251,1.004,2.254c0,0.779-0.178,1.458-0.532,2.037c-0.355,0.579-0.881,1.021-1.58,1.326l1.677,3.864l0.3,0.719
		h-3.191l-1.46-3.985H405.723z M406.196,213.095h0.382c0.474,0,0.851-0.137,1.131-0.409c0.28-0.272,0.419-0.652,0.419-1.142
		c0-0.31-0.086-0.545-0.258-0.707c-0.172-0.163-0.423-0.243-0.753-0.243h-0.397L406.196,213.095z"/>
	<path fill="#FFFFFF" d="M411.902,219.303l2.314-10.95h2.974l-2.314,10.95H411.902z"/>
	<path fill="#FFFFFF" d="M423.863,219.303h-6.501l2.314-10.95h6.501l-0.486,2.374h-3.573l-0.352,1.722h3.326l-0.54,2.374h-3.326
		l-0.427,2.067h3.573L423.863,219.303z"/>
	<path fill="#FFFFFF" d="M433.052,215.94c0,1.109-0.367,1.971-1.101,2.587c-0.733,0.616-1.758,0.925-3.07,0.925
		c-0.55,0-1.069-0.062-1.559-0.183c-0.489-0.123-0.911-0.301-1.266-0.536v-2.621c0.42,0.265,0.9,0.487,1.442,0.667
		c0.543,0.18,1.033,0.269,1.472,0.269c0.37,0,0.648-0.078,0.838-0.232c0.19-0.155,0.285-0.375,0.285-0.66
		c0-0.135-0.03-0.261-0.09-0.378c-0.061-0.117-0.145-0.235-0.255-0.352c-0.109-0.118-0.404-0.376-0.883-0.776
		c-0.585-0.47-1.009-0.949-1.273-1.438c-0.265-0.489-0.398-1.026-0.398-1.611c0-0.654,0.164-1.241,0.491-1.763
		c0.326-0.522,0.789-0.926,1.385-1.213c0.596-0.287,1.264-0.43,2.003-0.43c1.194,0,2.268,0.267,3.221,0.801l-1.011,2.225
		c-0.853-0.44-1.58-0.659-2.18-0.659c-0.319,0-0.565,0.069-0.737,0.21c-0.172,0.139-0.258,0.344-0.258,0.614
		c0,0.245,0.083,0.473,0.251,0.686c0.167,0.212,0.486,0.496,0.955,0.849c0.588,0.435,1.025,0.891,1.311,1.371
		C432.91,214.772,433.052,215.321,433.052,215.94z"/>
</g>
<g>
	<path fill="#404041" d="M236.293,260.886c0,0.889-0.332,1.613-0.996,2.172c-0.664,0.558-1.566,0.871-2.704,0.935l-0.284,1.4h-1.258
		l0.307-1.43c-1.103-0.08-1.97-0.31-2.599-0.689v-2.329c0.629,0.295,1.198,0.509,1.708,0.644c0.509,0.135,1.016,0.203,1.52,0.203
		c0.869,0,1.303-0.263,1.303-0.787c0-0.2-0.081-0.381-0.243-0.544c-0.162-0.162-0.511-0.37-1.045-0.625
		c-0.694-0.31-1.228-0.709-1.603-1.198c-0.374-0.489-0.561-1.056-0.561-1.7c0-0.879,0.333-1.598,1-2.157
		c0.667-0.559,1.559-0.877,2.678-0.951l0.217-0.996h1.258l-0.232,1.026c0.804,0.075,1.587,0.299,2.351,0.674l-1.048,2.022
		c-0.789-0.355-1.525-0.531-2.21-0.531c-0.329,0-0.588,0.07-0.775,0.21c-0.187,0.139-0.281,0.31-0.281,0.509
		c0,0.265,0.098,0.488,0.292,0.671c0.195,0.182,0.589,0.418,1.183,0.708c0.699,0.34,1.21,0.727,1.535,1.164
		C236.131,259.724,236.293,260.256,236.293,260.886z"/>
	<path fill="#404041" d="M242.997,264.488h-2.914l1.303-5.984c0.14-0.659,0.329-1.298,0.569-1.918
		c-0.39,0.34-0.717,0.597-0.981,0.772l-1.52,0.936l-1.131-1.888l4.643-2.868h2.329L242.997,264.488z"/>
	<path fill="#404041" d="M254.762,257.126c0,1.487-0.212,2.809-0.637,3.965c-0.424,1.156-1.011,2.036-1.76,2.64
		c-0.749,0.604-1.617,0.906-2.606,0.906c-1.049,0-1.842-0.314-2.382-0.944c-0.539-0.629-0.809-1.525-0.809-2.689
		c0-1.473,0.212-2.805,0.637-3.995c0.424-1.191,1.011-2.096,1.76-2.716c0.749-0.618,1.617-0.928,2.606-0.928
		c0.674,0,1.249,0.155,1.726,0.468c0.477,0.312,0.84,0.747,1.09,1.307C254.638,255.701,254.762,256.362,254.762,257.126z
		 M251.235,255.733c-0.275,0-0.549,0.277-0.824,0.831c-0.275,0.555-0.497,1.258-0.667,2.112c-0.17,0.854-0.254,1.65-0.254,2.389
		c0,0.419,0.037,0.727,0.112,0.921c0.075,0.195,0.225,0.292,0.449,0.292c0.289,0,0.568-0.236,0.835-0.708
		c0.267-0.471,0.494-1.135,0.681-1.988c0.187-0.854,0.281-1.693,0.281-2.516c0-0.425-0.046-0.753-0.138-0.985
		C251.618,255.849,251.46,255.733,251.235,255.733z"/>
</g>
<g>
	<path fill="#404041" d="M373.482,158.506c0,0.889-0.332,1.613-0.996,2.172c-0.664,0.558-1.566,0.871-2.704,0.935l-0.285,1.4h-1.258
		l0.308-1.43c-1.104-0.08-1.97-0.31-2.6-0.689v-2.329c0.63,0.295,1.198,0.509,1.708,0.644c0.509,0.135,1.016,0.203,1.52,0.203
		c0.869,0,1.303-0.263,1.303-0.787c0-0.2-0.081-0.381-0.243-0.544c-0.163-0.162-0.511-0.37-1.045-0.625
		c-0.694-0.31-1.228-0.709-1.602-1.198c-0.375-0.489-0.562-1.056-0.562-1.7c0-0.879,0.334-1.598,1-2.157
		c0.667-0.559,1.559-0.877,2.677-0.951l0.217-0.996h1.259l-0.233,1.026c0.805,0.075,1.588,0.299,2.352,0.674l-1.049,2.022
		c-0.789-0.355-1.525-0.531-2.209-0.531c-0.33,0-0.588,0.07-0.775,0.21c-0.187,0.139-0.281,0.31-0.281,0.509
		c0,0.265,0.097,0.488,0.292,0.671s0.589,0.418,1.183,0.708c0.699,0.34,1.21,0.727,1.535,1.164
		C373.319,157.344,373.482,157.876,373.482,158.506z"/>
	<path fill="#404041" d="M380.184,162.108h-2.914l1.303-5.984c0.14-0.66,0.33-1.298,0.57-1.918c-0.389,0.34-0.717,0.597-0.981,0.772
		l-1.52,0.936l-1.131-1.888l4.644-2.868h2.329L380.184,162.108z"/>
	<path fill="#404041" d="M383.546,162.108l5.371-8.501h-4.299l0.525-2.449h7.714l-0.382,1.73l-5.573,9.22H383.546z"/>
	<path fill="#404041" d="M392.182,161.157c0-0.544,0.162-0.971,0.486-1.281c0.325-0.31,0.772-0.464,1.341-0.464
		c0.419,0,0.748,0.099,0.988,0.299c0.24,0.199,0.36,0.486,0.36,0.861c0,0.589-0.151,1.024-0.45,1.304
		c-0.299,0.279-0.774,0.419-1.423,0.419c-0.389,0-0.704-0.093-0.944-0.277C392.301,161.833,392.182,161.546,392.182,161.157z"/>
	<path fill="#404041" d="M401.783,154.933c0.904,0,1.636,0.293,2.198,0.88c0.561,0.587,0.843,1.376,0.843,2.37
		c0,1.303-0.402,2.308-1.206,3.014c-0.805,0.706-1.967,1.06-3.49,1.06c-0.645,0-1.254-0.055-1.832-0.165
		c-0.576-0.11-1-0.262-1.269-0.457v-2.427c0.395,0.225,0.847,0.401,1.355,0.529c0.51,0.127,0.969,0.191,1.378,0.191
		c1.384,0,2.075-0.479,2.075-1.438c0-0.38-0.126-0.687-0.378-0.921c-0.253-0.235-0.593-0.352-1.022-0.352
		c-0.265,0-0.542,0.024-0.832,0.075c-0.289,0.05-0.519,0.105-0.689,0.165l-0.914-0.689l1.61-5.609h6.089l-0.509,2.419h-3.528
		l-0.442,1.385C401.396,154.943,401.583,154.933,401.783,154.933z"/>
	<path fill="#404041" d="M414.208,153.592c0,0.739-0.224,1.351-0.671,1.834c-0.446,0.485-1.077,0.809-1.891,0.974v0.06
		c0.644,0.125,1.148,0.403,1.513,0.835c0.365,0.432,0.547,0.963,0.547,1.591c0,1.079-0.445,1.91-1.334,2.494
		c-0.889,0.585-2.092,0.877-3.61,0.877c-0.579,0-1.122-0.051-1.629-0.153c-0.507-0.103-0.925-0.249-1.254-0.439v-2.486
		c0.833,0.5,1.776,0.749,2.823,0.749c0.689,0,1.205-0.116,1.547-0.348c0.341-0.233,0.513-0.566,0.513-1
		c0-0.269-0.067-0.472-0.202-0.607s-0.35-0.233-0.645-0.296c-0.295-0.063-0.709-0.094-1.243-0.094h-0.629l0.397-2.18h0.585
		c0.733,0,1.305-0.116,1.715-0.348s0.615-0.551,0.615-0.955c0-0.229-0.09-0.414-0.27-0.554c-0.18-0.14-0.427-0.21-0.741-0.21
		c-0.585,0-1.258,0.21-2.022,0.629l-1.183-1.857c0.63-0.405,1.237-0.69,1.824-0.858c0.587-0.167,1.232-0.251,1.935-0.251
		c1.004,0,1.806,0.232,2.408,0.696C413.907,152.162,414.208,152.794,414.208,153.592z"/>
</g>
<g>
	<path fill="#FFFFFF" d="M220.389,117.363v6.59c0,1.433-0.406,2.543-1.217,3.329c-0.812,0.787-1.981,1.18-3.509,1.18
		c-1.493,0-2.64-0.382-3.441-1.146c-0.801-0.764-1.202-1.863-1.202-3.296v-6.658h2.973v6.426c0,0.774,0.145,1.336,0.434,1.685
		c0.29,0.35,0.717,0.525,1.281,0.525c0.604,0,1.042-0.174,1.314-0.521c0.272-0.346,0.408-0.915,0.408-1.703v-6.411H220.389z"/>
	<path fill="#FFFFFF" d="M222.149,127.069c0-0.459,0.136-0.814,0.408-1.064c0.272-0.25,0.667-0.374,1.187-0.374
		c0.494,0,0.874,0.124,1.138,0.374c0.264,0.25,0.397,0.604,0.397,1.064c0,0.449-0.136,0.8-0.408,1.052
		c-0.272,0.252-0.648,0.378-1.127,0.378c-0.494,0-0.884-0.125-1.168-0.374C222.291,127.876,222.149,127.523,222.149,127.069z"/>
	<path fill="#FFFFFF" d="M234.282,124.987c0,0.679-0.173,1.282-0.517,1.809c-0.345,0.527-0.841,0.935-1.491,1.228
		c-0.649,0.292-1.41,0.438-2.284,0.438c-0.729,0-1.341-0.051-1.835-0.153c-0.494-0.103-1.009-0.281-1.543-0.536v-2.636
		c0.564,0.29,1.151,0.515,1.76,0.678c0.609,0.162,1.168,0.243,1.678,0.243c0.439,0,0.761-0.076,0.966-0.228
		c0.205-0.152,0.307-0.349,0.307-0.588c0-0.15-0.041-0.281-0.123-0.393c-0.082-0.112-0.215-0.226-0.397-0.341
		c-0.182-0.115-0.668-0.35-1.457-0.704c-0.714-0.325-1.25-0.639-1.607-0.944c-0.357-0.304-0.622-0.654-0.794-1.049
		c-0.173-0.394-0.259-0.861-0.259-1.4c0-1.008,0.367-1.794,1.101-2.359c0.734-0.564,1.742-0.846,3.026-0.846
		c1.133,0,2.289,0.262,3.468,0.786l-0.906,2.284c-1.023-0.47-1.907-0.703-2.651-0.703c-0.384,0-0.664,0.067-0.839,0.202
		c-0.174,0.135-0.262,0.302-0.262,0.501c0,0.215,0.111,0.407,0.333,0.577c0.222,0.169,0.825,0.479,1.809,0.928
		c0.943,0.425,1.599,0.88,1.966,1.367C234.098,123.635,234.282,124.248,234.282,124.987z"/>
	<path fill="#FFFFFF" d="M235.436,127.069c0-0.459,0.136-0.814,0.408-1.064c0.272-0.25,0.667-0.374,1.187-0.374
		c0.494,0,0.874,0.124,1.138,0.374c0.264,0.25,0.397,0.604,0.397,1.064c0,0.449-0.136,0.8-0.408,1.052
		c-0.272,0.252-0.648,0.378-1.127,0.378c-0.494,0-0.884-0.125-1.168-0.374C235.578,127.876,235.436,127.523,235.436,127.069z"/>
	<path fill="#FFFFFF" d="M253.777,128.312h-2.973v-4.464h-3.438v4.464h-2.973v-10.95h2.973v4.059h3.438v-4.059h2.973V128.312z"/>
	<path fill="#FFFFFF" d="M266.39,122.822c0,1.843-0.452,3.243-1.355,4.202c-0.904,0.958-2.227,1.438-3.97,1.438
		c-1.717,0-3.035-0.482-3.95-1.445c-0.916-0.964-1.375-2.367-1.375-4.21c0-1.822,0.456-3.214,1.367-4.175
		c0.911-0.962,2.235-1.442,3.973-1.442c1.742,0,3.063,0.476,3.962,1.43C265.94,119.574,266.39,120.975,266.39,122.822z
		 M258.855,122.822c0,2.117,0.737,3.176,2.21,3.176c0.749,0,1.305-0.257,1.667-0.772c0.362-0.514,0.543-1.315,0.543-2.404
		c0-1.094-0.184-1.901-0.551-2.423c-0.367-0.521-0.915-0.782-1.644-0.782C259.597,119.617,258.855,120.686,258.855,122.822z"/>
	<path fill="#FFFFFF" d="M277.676,117.363v6.59c0,1.433-0.406,2.543-1.217,3.329c-0.811,0.787-1.981,1.18-3.509,1.18
		c-1.493,0-2.64-0.382-3.441-1.146c-0.801-0.764-1.202-1.863-1.202-3.296v-6.658h2.973v6.426c0,0.774,0.145,1.336,0.434,1.685
		c0.29,0.35,0.717,0.525,1.281,0.525c0.604,0,1.042-0.174,1.314-0.521c0.272-0.346,0.408-0.915,0.408-1.703v-6.411H277.676z"/>
	<path fill="#FFFFFF" d="M282.934,124.327v3.985h-2.958v-10.95h3.588c2.976,0,4.464,1.079,4.464,3.235
		c0,1.268-0.619,2.25-1.857,2.944l3.19,4.771h-3.355l-2.322-3.985H282.934z M282.934,122.104h0.554c1.033,0,1.55-0.457,1.55-1.37
		c0-0.754-0.507-1.131-1.52-1.131h-0.584V122.104z"/>
	<path fill="#FFFFFF" d="M290.356,128.312v-10.95h2.958v8.56h4.217v2.389H290.356z"/>
	<path fill="#FFFFFF" d="M303.193,121.422l1.887-4.059h3.206l-3.602,6.673v4.277h-2.981v-4.187l-3.602-6.762h3.22L303.193,121.422z"
		/>
	<path fill="#FFFFFF" d="M318.225,128.312l-2.24-7.887h-0.067c0.105,1.343,0.157,2.387,0.157,3.131v4.756h-2.621v-10.95h3.939
		l2.284,7.774h0.06l2.24-7.774h3.947v10.95h-2.718v-4.801c0-0.25,0.004-0.527,0.011-0.832c0.008-0.304,0.041-1.051,0.101-2.24
		h-0.067l-2.21,7.872H318.225z"/>
	<path fill="#FFFFFF" d="M334.784,128.312h-6.501v-10.95h6.501v2.374h-3.543v1.722h3.281v2.374h-3.281v2.067h3.543V128.312z"/>
	<path fill="#FFFFFF" d="M345.997,122.605c0,1.828-0.503,3.236-1.51,4.225c-1.006,0.988-2.42,1.483-4.242,1.483h-3.543v-10.95h3.79
		c1.758,0,3.114,0.449,4.07,1.348C345.518,119.61,345.997,120.907,345.997,122.605z M342.926,122.71
		c0-1.004-0.198-1.747-0.595-2.232c-0.398-0.484-1-0.726-1.809-0.726h-0.862v6.134h0.659c0.899,0,1.558-0.261,1.978-0.783
		C342.716,124.581,342.926,123.784,342.926,122.71z"/>
	<path fill="#FFFFFF" d="M347.958,128.312v-10.95h2.973v10.95H347.958z"/>
	<path fill="#FFFFFF" d="M360.017,128.312l-0.54-2.052h-3.558l-0.554,2.052h-3.251l3.573-10.995h3.947l3.617,10.995H360.017z
		 M358.863,123.833l-0.472-1.797c-0.109-0.399-0.243-0.917-0.4-1.551c-0.157-0.633-0.261-1.088-0.311-1.363
		c-0.045,0.254-0.134,0.674-0.267,1.258c-0.132,0.585-0.426,1.735-0.879,3.453H358.863z"/>
	<path fill="#FFFFFF" d="M374.861,128.312h-3.88l-3.999-7.715h-0.067c0.094,1.213,0.142,2.14,0.142,2.779v4.936h-2.621v-10.95h3.864
		l3.984,7.609h0.045c-0.069-1.104-0.105-1.99-0.105-2.659v-4.95h2.637V128.312z"/>
	<path fill="#FFFFFF" d="M393.038,128.312h-3.498l-1.049-4.771c-0.05-0.2-0.129-0.597-0.236-1.191
		c-0.108-0.594-0.186-1.091-0.236-1.49c-0.04,0.325-0.106,0.728-0.196,1.21c-0.09,0.482-0.178,0.924-0.266,1.329
		c-0.087,0.404-0.451,2.042-1.09,4.913h-3.498l-2.711-10.95h2.854l1.191,5.489c0.269,1.213,0.454,2.18,0.554,2.899
		c0.065-0.51,0.181-1.201,0.348-2.075s0.324-1.598,0.469-2.172l0.965-4.141h2.742l0.935,4.141c0.16,0.664,0.323,1.43,0.487,2.299
		s0.274,1.518,0.329,1.948c0.065-0.555,0.242-1.515,0.532-2.884l1.213-5.504h2.853L393.038,128.312z"/>
	<path fill="#FFFFFF" d="M403.867,128.312l-0.54-2.052h-3.558l-0.554,2.052h-3.251l3.573-10.995h3.947l3.617,10.995H403.867z
		 M402.714,123.833l-0.472-1.797c-0.109-0.399-0.243-0.917-0.4-1.551c-0.157-0.633-0.261-1.088-0.311-1.363
		c-0.045,0.254-0.134,0.674-0.267,1.258c-0.132,0.585-0.426,1.735-0.879,3.453H402.714z"/>
	<path fill="#FFFFFF" d="M412.682,121.901h4.725v5.902c-1.283,0.44-2.693,0.66-4.231,0.66c-1.688,0-2.992-0.489-3.913-1.468
		s-1.382-2.374-1.382-4.187c0-1.767,0.504-3.143,1.513-4.126c1.008-0.984,2.422-1.475,4.239-1.475c0.689,0,1.34,0.065,1.951,0.195
		s1.145,0.295,1.599,0.494l-0.935,2.322c-0.79-0.389-1.656-0.584-2.6-0.584c-0.863,0-1.531,0.281-2.003,0.842
		c-0.472,0.562-0.708,1.365-0.708,2.408c0,1.023,0.213,1.805,0.641,2.341c0.427,0.537,1.042,0.805,1.846,0.805
		c0.44,0,0.844-0.042,1.213-0.127v-1.716h-1.954V121.901z"/>
	<path fill="#FFFFFF" d="M426.14,128.312h-6.501v-10.95h6.501v2.374h-3.543v1.722h3.281v2.374h-3.281v2.067h3.543V128.312z"/>
</g>
<polyline fill="none" stroke="#808184" stroke-width="0.7304" stroke-miterlimit="10" points="54.015,108.748 54.015,414.169 
	568.915,414.169 568.915,108.748 "/>
<path fill="#C73A22" d="M627.302,58.759c0,4.029-5.146,7.295-11.495,7.295H24.193c-6.349,0-11.495-3.266-11.495-7.295V25.934
	c0-4.029,5.146-7.295,11.495-7.295h591.614c6.349,0,11.495,3.266,11.495,7.295V58.759z"/>
<line fill="none" stroke="#FFFFFF" stroke-width="8" stroke-miterlimit="10" x1="48.917" y1="42.347" x2="591.083" y2="42.347"/>
<circle fill="#D58C84" cx="48.917" cy="42.347" r="10.539"/>
<circle fill="#FFFFFF" cx="358.726" cy="42.347" r="10.539"/>
<circle fill="#FFFFFF" cx="591.083" cy="42.347" r="10.539"/>
<circle fill="#FFFFFF" cx="203.822" cy="42.347" r="10.539"/>
<circle fill="#FFFFFF" cx="513.631" cy="42.347" r="10.539"/>
<path fill="none" stroke="#D58C84" stroke-width="8" stroke-miterlimit="10" d="M48.917,42.347l127.049,0"/>
<circle fill="#FFFFFF" cx="281.274" cy="42.347" r="10.539"/>
<circle fill="#D58C84" cx="126.369" cy="42.347" r="10.539"/>
<circle fill="#FFFFFF" cx="436.178" cy="42.347" r="10.539"/>
</svg>
