<?xml version="1.0" encoding="utf-8"?>
<!-- Generator: Adobe Illustrator 17.0.0, SVG Export Plug-In . SVG Version: 6.00 Build 0)  -->
<!DOCTYPE svg PUBLIC "-//W3C//DTD SVG 1.1//EN" "http://www.w3.org/Graphics/SVG/1.1/DTD/svg11.dtd">
<svg version="1.1" id="Layer_1" xmlns="http://www.w3.org/2000/svg" xmlns:xlink="http://www.w3.org/1999/xlink" x="0px" y="0px"
	 width="640px" height="355.101px" viewBox="0 0 640 355.101" enable-background="new 0 0 640 355.101" xml:space="preserve">
<rect x="216.914" y="27.337" fill="none" width="241.119" height="19.499"/>
<text transform="matrix(1 0 0 1 221.1162 46.3373)" fill="#999999" font-family="'OpenSans-Extrabold'" font-size="25">Citizenship Status</text>
<g>
	<g>
		
			<line fill="none" stroke="#808184" stroke-width="0.5" stroke-miterlimit="10" x1="83.872" y1="287.518" x2="565.191" y2="287.518"/>
		<g>
			<g>
				
					<line fill="none" stroke="#808184" stroke-width="0.5" stroke-miterlimit="10" x1="83.872" y1="287.518" x2="83.872" y2="282.393"/>
				<line fill="none" stroke="#000000" stroke-miterlimit="10" x1="561.621" y1="286.857" x2="561.621" y2="286.857"/>
			</g>
			<g>
			</g>
		</g>
	</g>
	<g>
		<g>
			<text transform="matrix(1 0 0 1 69.6794 294.7257)" fill="#808184" font-family="'MyriadPro-Regular'" font-size="10">0</text>
			<text transform="matrix(1 0 0 1 69.6794 253.7218)" fill="#808184" font-family="'MyriadPro-Regular'" font-size="10">2</text>
			<text transform="matrix(1 0 0 1 69.6794 212.7174)" fill="#808184" font-family="'MyriadPro-Regular'" font-size="10">4</text>
			<text transform="matrix(1 0 0 1 69.6794 171.7135)" fill="#808184" font-family="'MyriadPro-Regular'" font-size="10">6</text>
			<text transform="matrix(1 0 0 1 69.6794 130.7096)" fill="#808184" font-family="'MyriadPro-Regular'" font-size="10">8</text>
			<text transform="matrix(1 0 0 1 64.5496 89.7052)" fill="#808184" font-family="'MyriadPro-Regular'" font-size="10">10</text>
		</g>
		
			<line fill="none" stroke="#808184" stroke-width="0.5" stroke-miterlimit="10" x1="83.872" y1="287.518" x2="83.872" y2="82.498"/>
		<g>
			<g>
				
					<line fill="none" stroke="#808184" stroke-width="0.5" stroke-miterlimit="10" x1="83.872" y1="287.518" x2="83.872" y2="287.518"/>
				
					<line fill="none" stroke="#808184" stroke-width="0.5" stroke-miterlimit="10" x1="83.872" y1="246.514" x2="98.374" y2="246.514"/>
				
					<line fill="none" stroke="#808184" stroke-width="0.5" stroke-miterlimit="10" x1="83.872" y1="205.51" x2="98.374" y2="205.51"/>
				
					<line fill="none" stroke="#808184" stroke-width="0.5" stroke-miterlimit="10" x1="83.872" y1="164.506" x2="98.374" y2="164.506"/>
				
					<line fill="none" stroke="#808184" stroke-width="0.5" stroke-miterlimit="10" x1="83.872" y1="123.502" x2="98.374" y2="123.502"/>
				
					<line fill="none" stroke="#808184" stroke-width="0.5" stroke-miterlimit="10" x1="83.872" y1="82.498" x2="98.374" y2="82.498"/>
			</g>
			<g>
			</g>
		</g>
	</g>
	<g>
		<g>
			<g>
				<rect x="425.977" y="185.008" fill="#664747" width="139.214" height="102.51"/>
			</g>
		</g>
		<g>
			<g>
				<rect x="271.295" y="103" fill="#E49F9F" width="139.214" height="184.519"/>
			</g>
		</g>
		<g>
			<g>
				<rect x="116.612" y="164.506" fill="#952E1F" width="139.214" height="123.012"/>
			</g>
		</g>
	</g>
	<g>
		<g>
		</g>
		<g>
		</g>
		<g>
		</g>
	</g>
</g>
<g>
	<path fill="#808184" d="M340.613,87.589c0,1.526-0.269,2.879-0.805,4.059s-1.28,2.064-2.23,2.652
		c-0.95,0.589-2.074,0.883-3.371,0.883c-0.599,0-1.148-0.078-1.648-0.234v-2.453c0.479,0.193,1.008,0.289,1.586,0.289
		c0.974,0,1.733-0.227,2.277-0.68s0.921-1.185,1.129-2.195h-0.063c-0.308,0.495-0.651,0.845-1.031,1.051
		c-0.38,0.206-0.82,0.309-1.32,0.309c-0.786,0-1.409-0.286-1.867-0.859c-0.458-0.573-0.688-1.344-0.688-2.313
		c0-0.917,0.171-1.725,0.512-2.426c0.341-0.7,0.836-1.247,1.484-1.641c0.648-0.393,1.423-0.59,2.324-0.59
		c1.198,0,2.116,0.358,2.754,1.074C340.294,85.231,340.613,86.256,340.613,87.589z M336.98,85.839c-0.38,0-0.696,0.185-0.949,0.555
		c-0.253,0.37-0.379,0.82-0.379,1.352c0,0.75,0.239,1.125,0.719,1.125c0.386,0,0.711-0.184,0.977-0.551s0.398-0.813,0.398-1.34
		c0-0.344-0.071-0.62-0.215-0.828C337.387,85.944,337.204,85.839,336.98,85.839z"/>
</g>
<g>
	<path fill="#808184" d="M496.507,167.089c0.942,0,1.707,0.306,2.293,0.918c0.586,0.612,0.879,1.437,0.879,2.473
		c0,1.359-0.419,2.408-1.258,3.145c-0.839,0.737-2.052,1.105-3.641,1.105c-0.672,0-1.309-0.058-1.91-0.172s-1.043-0.273-1.324-0.477
		v-2.531c0.411,0.234,0.883,0.418,1.414,0.551s1.011,0.199,1.438,0.199c1.442,0,2.164-0.5,2.164-1.5
		c0-0.396-0.132-0.716-0.395-0.961c-0.263-0.245-0.618-0.367-1.066-0.367c-0.276,0-0.565,0.026-0.867,0.078
		c-0.302,0.052-0.542,0.109-0.719,0.172l-0.953-0.719l1.68-5.852h6.352l-0.531,2.523h-3.68l-0.461,1.445
		C496.104,167.1,496.299,167.089,496.507,167.089z"/>
</g>
<g>
	<path fill="#808184" d="M189.242,141.988c0.531,0,1.138,0.081,1.82,0.242l-0.492,2.367c-0.495-0.13-0.972-0.195-1.43-0.195
		c-0.755,0-1.372,0.089-1.852,0.266c-0.479,0.177-0.874,0.46-1.184,0.848c-0.31,0.388-0.587,0.973-0.832,1.754h0.063
		c0.552-0.885,1.352-1.328,2.398-1.328c0.833,0,1.469,0.269,1.906,0.805c0.438,0.537,0.656,1.315,0.656,2.336
		c0,0.912-0.179,1.723-0.535,2.434s-0.87,1.258-1.539,1.641s-1.444,0.574-2.324,0.574c-1.172,0-2.07-0.323-2.695-0.969
		c-0.625-0.646-0.938-1.602-0.938-2.867c0-0.547,0.067-1.208,0.203-1.984c0.442-2.042,1.22-3.539,2.332-4.492
		S187.393,141.988,189.242,141.988z M186.039,151.332c0.344,0,0.628-0.199,0.852-0.598s0.336-0.871,0.336-1.418
		c0-0.672-0.239-1.008-0.719-1.008c-0.354,0-0.648,0.19-0.883,0.57c-0.234,0.38-0.352,0.852-0.352,1.414
		c0,0.344,0.069,0.603,0.207,0.777C185.618,151.245,185.804,151.332,186.039,151.332z"/>
</g>
<g>
	<path fill="#808184" d="M153.882,296.566l-1.516,7.156c-0.283,1.318-0.765,2.265-1.443,2.838s-1.594,0.86-2.746,0.86
		c-2.148,0-3.223-0.979-3.223-2.937c0-0.405,0.066-0.896,0.197-1.472l1.363-6.445h0.754l-1.414,6.584
		c-0.098,0.435-0.146,0.884-0.146,1.348c0,1.509,0.836,2.263,2.506,2.263c0.951,0,1.702-0.235,2.252-0.707
		c0.549-0.471,0.936-1.249,1.16-2.333l1.517-7.156H153.882z"/>
	<path fill="#808184" d="M154.3,306.871c0-0.273,0.061-0.489,0.183-0.648s0.291-0.238,0.506-0.238c0.322,0,0.483,0.176,0.483,0.527
		c0,0.259-0.062,0.473-0.183,0.641c-0.123,0.169-0.286,0.253-0.491,0.253C154.466,307.406,154.3,307.228,154.3,306.871z"/>
	<path fill="#808184" d="M163.806,304.322c0,0.615-0.159,1.164-0.479,1.644c-0.319,0.481-0.758,0.844-1.314,1.088
		s-1.214,0.366-1.97,0.366c-0.431,0-0.852-0.042-1.264-0.125c-0.413-0.083-0.832-0.225-1.256-0.425v-0.798
		c0.795,0.449,1.645,0.674,2.549,0.674c0.917,0,1.639-0.211,2.164-0.634c0.524-0.422,0.787-0.99,0.787-1.703
		c0-0.298-0.042-0.553-0.125-0.765c-0.083-0.213-0.211-0.404-0.384-0.575c-0.174-0.171-0.396-0.337-0.667-0.498
		c-0.271-0.161-0.592-0.344-0.963-0.549c-0.732-0.371-1.244-0.771-1.534-1.201c-0.291-0.43-0.437-0.933-0.437-1.509
		s0.145-1.083,0.433-1.52c0.288-0.437,0.69-0.776,1.208-1.018c0.518-0.242,1.097-0.363,1.736-0.363c0.483,0,0.923,0.043,1.318,0.128
		s0.806,0.233,1.23,0.443l-0.234,0.688c-0.322-0.195-0.692-0.349-1.109-0.461c-0.418-0.112-0.819-0.168-1.205-0.168
		c-0.796,0-1.43,0.202-1.9,0.604c-0.472,0.403-0.707,0.937-0.707,1.601c0,0.503,0.119,0.918,0.359,1.245
		c0.238,0.327,0.683,0.652,1.332,0.974c0.752,0.386,1.273,0.703,1.564,0.952c0.29,0.249,0.508,0.525,0.651,0.828
		C163.735,303.548,163.806,303.907,163.806,304.322z"/>
	<path fill="#808184" d="M165.323,306.871c0-0.273,0.061-0.489,0.183-0.648s0.291-0.238,0.506-0.238
		c0.322,0,0.483,0.176,0.483,0.527c0,0.259-0.062,0.473-0.183,0.641c-0.123,0.169-0.286,0.253-0.491,0.253
		C165.489,307.406,165.323,307.228,165.323,306.871z"/>
	<path fill="#808184" d="M179.211,297.101c-0.963,0-1.82,0.255-2.575,0.765c-0.754,0.511-1.353,1.254-1.794,2.23
		c-0.442,0.977-0.663,2.053-0.663,3.23c0,1.099,0.27,1.943,0.81,2.534c0.539,0.591,1.314,0.886,2.325,0.886
		c0.684,0,1.426-0.125,2.227-0.374v0.688c-0.762,0.239-1.533,0.359-2.314,0.359c-1.23,0-2.173-0.354-2.827-1.062
		s-0.981-1.709-0.981-3.003c0-1.299,0.255-2.49,0.766-3.574c0.51-1.084,1.204-1.917,2.083-2.498s1.861-0.872,2.945-0.872
		c0.863,0,1.613,0.166,2.248,0.498l-0.33,0.659c-0.269-0.146-0.572-0.261-0.911-0.344
		C179.878,297.142,179.542,297.101,179.211,297.101z"/>
	<path fill="#808184" d="M181.481,307.274l2.271-10.708h0.718l-2.263,10.708H181.481z"/>
	<path fill="#808184" d="M187.633,307.274h-0.747l2.117-10.02h-3.164l0.146-0.688h7.126l-0.14,0.688h-3.223L187.633,307.274z"/>
	<path fill="#808184" d="M192.387,307.274l2.271-10.708h0.718l-2.263,10.708H192.387z"/>
	<path fill="#808184" d="M202.019,307.274h-6.775l0.161-0.674l7.829-9.346h-5.596l0.169-0.688h6.497l-0.14,0.645l-7.829,9.375h5.852
		L202.019,307.274z"/>
	<path fill="#808184" d="M209.666,307.274h-5.325l2.271-10.708h5.324l-0.153,0.688h-4.57l-0.856,4.05h4.32l-0.153,0.688h-4.307
		l-0.989,4.592h4.593L209.666,307.274z"/>
	<path fill="#808184" d="M219.238,307.274h-0.631l-3.779-9.404h-0.059c-0.112,0.728-0.229,1.394-0.352,2s-0.645,3.074-1.566,7.405
		h-0.696l2.271-10.708h0.586l3.823,9.478h0.059c0.112-0.859,0.293-1.875,0.542-3.047l1.377-6.431h0.688L219.238,307.274z"/>
	<path fill="#808184" d="M228.011,304.322c0,0.615-0.159,1.164-0.479,1.644c-0.319,0.481-0.758,0.844-1.314,1.088
		s-1.214,0.366-1.97,0.366c-0.431,0-0.852-0.042-1.264-0.125c-0.413-0.083-0.832-0.225-1.256-0.425v-0.798
		c0.795,0.449,1.645,0.674,2.549,0.674c0.917,0,1.639-0.211,2.164-0.634c0.524-0.422,0.787-0.99,0.787-1.703
		c0-0.298-0.042-0.553-0.125-0.765c-0.083-0.213-0.211-0.404-0.384-0.575c-0.174-0.171-0.396-0.337-0.667-0.498
		c-0.271-0.161-0.592-0.344-0.963-0.549c-0.732-0.371-1.244-0.771-1.534-1.201c-0.291-0.43-0.437-0.933-0.437-1.509
		s0.145-1.083,0.433-1.52c0.288-0.437,0.69-0.776,1.208-1.018c0.518-0.242,1.097-0.363,1.736-0.363c0.483,0,0.923,0.043,1.318,0.128
		s0.806,0.233,1.23,0.443l-0.234,0.688c-0.322-0.195-0.692-0.349-1.109-0.461c-0.418-0.112-0.819-0.168-1.205-0.168
		c-0.796,0-1.43,0.202-1.9,0.604c-0.472,0.403-0.707,0.937-0.707,1.601c0,0.503,0.119,0.918,0.359,1.245
		c0.238,0.327,0.683,0.652,1.332,0.974c0.752,0.386,1.273,0.703,1.564,0.952c0.29,0.249,0.508,0.525,0.651,0.828
		C227.94,303.548,228.011,303.907,228.011,304.322z"/>
</g>
<g>
	<path fill="#808184" d="M303.822,301.854c0,1.235-0.268,2.362-0.802,3.38c-0.535,1.018-1.269,1.782-2.201,2.292
		c-0.933,0.511-2.021,0.766-3.267,0.766h-2.417l2.271-10.708h2.234c1.377,0,2.418,0.36,3.123,1.08
		C303.469,299.384,303.822,300.447,303.822,301.854z M297.538,307.632c1.104,0,2.066-0.23,2.89-0.692
		c0.822-0.461,1.46-1.134,1.911-2.018c0.452-0.884,0.678-1.89,0.678-3.018c0-2.432-1.162-3.647-3.486-3.647h-1.509l-2.014,9.375
		H297.538z"/>
	<path fill="#808184" d="M314.551,301.619c0,1.245-0.229,2.42-0.688,3.527c-0.46,1.105-1.075,1.931-1.846,2.476
		c-0.772,0.544-1.663,0.816-2.674,0.816c-1.221,0-2.16-0.364-2.82-1.091c-0.658-0.728-0.988-1.777-0.988-3.149
		c0-1.279,0.227-2.445,0.682-3.498c0.453-1.052,1.076-1.86,1.867-2.424c0.791-0.564,1.701-0.846,2.732-0.846
		c1.205,0,2.13,0.363,2.771,1.087C314.231,299.243,314.551,300.276,314.551,301.619z M310.714,298.118
		c-0.85,0-1.603,0.247-2.259,0.74c-0.657,0.493-1.181,1.221-1.571,2.183s-0.586,1.98-0.586,3.054c0,1.196,0.268,2.107,0.802,2.732
		c0.535,0.625,1.315,0.938,2.341,0.938c0.824,0,1.557-0.24,2.197-0.722c0.639-0.48,1.151-1.213,1.537-2.197
		c0.386-0.983,0.579-2.035,0.579-3.153c0-1.172-0.255-2.061-0.766-2.666C312.478,298.421,311.719,298.118,310.714,298.118z"/>
	<path fill="#808184" d="M322.038,298.118c-0.963,0-1.82,0.255-2.575,0.765c-0.754,0.511-1.353,1.254-1.794,2.23
		c-0.442,0.977-0.663,2.053-0.663,3.23c0,1.099,0.27,1.943,0.81,2.534c0.539,0.591,1.314,0.886,2.325,0.886
		c0.684,0,1.426-0.125,2.227-0.374v0.688c-0.762,0.239-1.533,0.359-2.314,0.359c-1.23,0-2.173-0.354-2.827-1.062
		s-0.981-1.709-0.981-3.003c0-1.299,0.255-2.49,0.766-3.574c0.51-1.084,1.204-1.917,2.083-2.498s1.861-0.872,2.945-0.872
		c0.863,0,1.613,0.166,2.248,0.498l-0.33,0.659c-0.269-0.146-0.572-0.261-0.911-0.344
		C322.705,298.16,322.369,298.118,322.038,298.118z"/>
	<path fill="#808184" d="M333.778,297.583l-1.516,7.156c-0.283,1.318-0.765,2.265-1.443,2.838s-1.594,0.86-2.746,0.86
		c-2.148,0-3.223-0.979-3.223-2.937c0-0.405,0.066-0.896,0.197-1.472l1.363-6.445h0.754l-1.414,6.584
		c-0.098,0.435-0.146,0.884-0.146,1.348c0,1.509,0.836,2.263,2.506,2.263c0.951,0,1.702-0.235,2.252-0.707
		c0.549-0.471,0.936-1.249,1.16-2.333l1.517-7.156H333.778z"/>
	<path fill="#808184" d="M339.25,306.79l5.369-9.207h1.098l-2.204,10.708h-0.739l1.398-6.599c0.386-1.802,0.63-2.893,0.732-3.274
		h-0.044l-5.713,9.873h-0.374l-1.625-9.873h-0.045c-0.098,0.752-0.288,1.792-0.57,3.12l-1.436,6.753h-0.703l2.263-10.708h1.048
		l1.501,9.207H339.25z"/>
	<path fill="#808184" d="M351.891,308.292h-5.325l2.271-10.708h5.324l-0.153,0.688h-4.57l-0.856,4.05h4.32l-0.153,0.688h-4.307
		l-0.989,4.592h4.593L351.891,308.292z"/>
	<path fill="#808184" d="M361.464,308.292h-0.631l-3.779-9.404h-0.059c-0.112,0.728-0.229,1.394-0.352,2s-0.645,3.074-1.566,7.405
		h-0.696l2.271-10.708h0.586l3.823,9.478h0.059c0.112-0.859,0.293-1.875,0.542-3.047l1.377-6.431h0.688L361.464,308.292z"/>
	<path fill="#808184" d="M366.89,308.292h-0.747l2.117-10.02h-3.164l0.146-0.688h7.126l-0.14,0.688h-3.223L366.89,308.292z"/>
	<path fill="#808184" d="M376.969,308.292h-5.325l2.271-10.708h5.324l-0.153,0.688h-4.57l-0.856,4.05h4.32l-0.153,0.688h-4.307
		l-0.989,4.592h4.593L376.969,308.292z"/>
	<path fill="#808184" d="M388.145,301.854c0,1.235-0.268,2.362-0.802,3.38c-0.535,1.018-1.269,1.782-2.201,2.292
		c-0.933,0.511-2.021,0.766-3.267,0.766h-2.417l2.271-10.708h2.234c1.377,0,2.418,0.36,3.123,1.08
		C387.793,299.384,388.145,300.447,388.145,301.854z M381.861,307.632c1.104,0,2.066-0.23,2.89-0.692
		c0.822-0.461,1.46-1.134,1.911-2.018c0.452-0.884,0.678-1.89,0.678-3.018c0-2.432-1.162-3.647-3.486-3.647h-1.509l-2.014,9.375
		H381.861z"/>
	<path fill="#808184" d="M300.856,326.292l2.271-10.708h0.718l-2.263,10.708H300.856z"/>
	<path fill="#808184" d="M309.455,324.79l5.369-9.207h1.098l-2.204,10.708h-0.739l1.398-6.599c0.386-1.802,0.63-2.893,0.732-3.274
		h-0.044l-5.713,9.873h-0.374l-1.625-9.873h-0.045c-0.098,0.752-0.288,1.792-0.57,3.12l-1.436,6.753h-0.703l2.263-10.708h1.048
		l1.501,9.207H309.455z"/>
	<path fill="#808184" d="M321.678,324.79l5.369-9.207h1.098l-2.204,10.708h-0.739l1.398-6.599c0.386-1.802,0.63-2.893,0.732-3.274
		h-0.044l-5.713,9.873h-0.374l-1.625-9.873h-0.045c-0.098,0.752-0.288,1.792-0.57,3.12l-1.436,6.753h-0.703l2.263-10.708h1.048
		l1.501,9.207H321.678z"/>
	<path fill="#808184" d="M328.996,326.292l2.271-10.708h0.718l-2.263,10.708H328.996z"/>
	<path fill="#808184" d="M338.21,320.908h2.974l-1.099,4.995c-1.03,0.356-2.02,0.535-2.967,0.535c-1.255,0-2.224-0.356-2.907-1.069
		s-1.025-1.741-1.025-3.083c0-1.294,0.257-2.474,0.769-3.542c0.514-1.066,1.205-1.886,2.077-2.457
		c0.871-0.571,1.837-0.857,2.896-0.857c0.552,0,1.048,0.046,1.487,0.139s0.888,0.237,1.348,0.432l-0.279,0.688
		c-0.537-0.225-0.999-0.376-1.388-0.454c-0.388-0.078-0.797-0.117-1.227-0.117c-0.898,0-1.727,0.263-2.483,0.788
		s-1.353,1.261-1.787,2.208s-0.651,2.004-0.651,3.171c0,1.118,0.279,1.978,0.839,2.578c0.559,0.601,1.355,0.901,2.391,0.901
		c0.757,0,1.512-0.115,2.264-0.344l0.857-3.853h-2.22L338.21,320.908z"/>
	<path fill="#808184" d="M344.465,321.655l-0.959,4.636h-0.755l2.271-10.708h2.219c2.1,0,3.15,0.879,3.15,2.637
		c0,0.889-0.253,1.628-0.759,2.219c-0.505,0.591-1.192,0.962-2.062,1.113c0.981,2.886,1.521,4.465,1.619,4.739h-0.813l-1.546-4.636
		H344.465z M344.626,320.981h1.846c1.016,0,1.789-0.233,2.321-0.7c0.532-0.466,0.799-1.153,0.799-2.062
		c0-1.309-0.804-1.963-2.41-1.963h-1.545L344.626,320.981z"/>
	<path fill="#808184" d="M356.286,322.483h-3.75l-2.103,3.809h-0.856l6.02-10.752h0.491l1.472,10.752h-0.769L356.286,322.483z
		 M356.198,321.809l-0.286-2.131c-0.151-1.182-0.247-2.163-0.286-2.944c-0.146,0.308-0.304,0.625-0.472,0.952
		c-0.169,0.327-0.917,1.702-2.245,4.124H356.198z"/>
	<path fill="#808184" d="M365.975,326.292h-0.631l-3.779-9.404h-0.059c-0.112,0.728-0.229,1.394-0.352,2s-0.645,3.074-1.566,7.405
		h-0.696l2.271-10.708h0.586l3.823,9.478h0.059c0.112-0.859,0.293-1.875,0.542-3.047l1.377-6.431h0.688L365.975,326.292z"/>
	<path fill="#808184" d="M371.402,326.292h-0.747l2.117-10.02h-3.164l0.146-0.688h7.126l-0.14,0.688h-3.223L371.402,326.292z"/>
	<path fill="#808184" d="M381.964,323.34c0,0.615-0.159,1.164-0.479,1.644c-0.319,0.481-0.758,0.844-1.314,1.088
		s-1.214,0.366-1.97,0.366c-0.431,0-0.852-0.042-1.264-0.125c-0.413-0.083-0.832-0.225-1.256-0.425v-0.798
		c0.795,0.449,1.645,0.674,2.549,0.674c0.917,0,1.639-0.211,2.164-0.634c0.524-0.422,0.787-0.99,0.787-1.703
		c0-0.298-0.042-0.553-0.125-0.765c-0.083-0.213-0.211-0.404-0.384-0.575c-0.174-0.171-0.396-0.337-0.667-0.498
		c-0.271-0.161-0.592-0.344-0.963-0.549c-0.732-0.371-1.244-0.771-1.534-1.201c-0.291-0.43-0.437-0.933-0.437-1.509
		s0.145-1.083,0.433-1.52c0.288-0.437,0.69-0.776,1.208-1.018c0.518-0.242,1.097-0.363,1.736-0.363c0.483,0,0.923,0.043,1.318,0.128
		s0.806,0.233,1.23,0.443l-0.234,0.688c-0.322-0.195-0.692-0.349-1.109-0.461c-0.418-0.112-0.819-0.168-1.205-0.168
		c-0.796,0-1.43,0.202-1.9,0.604c-0.472,0.403-0.707,0.937-0.707,1.601c0,0.503,0.119,0.918,0.359,1.245
		c0.238,0.327,0.683,0.652,1.332,0.974c0.752,0.386,1.273,0.703,1.564,0.952c0.29,0.249,0.508,0.525,0.651,0.828
		C381.892,322.566,381.964,322.925,381.964,323.34z"/>
</g>
<g>
	<path fill="#808184" d="M449.1,297.583l-1.516,7.156c-0.283,1.318-0.765,2.265-1.443,2.838s-1.594,0.86-2.746,0.86
		c-2.148,0-3.223-0.979-3.223-2.937c0-0.405,0.066-0.896,0.197-1.472l1.363-6.445h0.754l-1.414,6.584
		c-0.098,0.435-0.146,0.884-0.146,1.348c0,1.509,0.836,2.263,2.506,2.263c0.951,0,1.702-0.235,2.252-0.707
		c0.549-0.471,0.936-1.249,1.16-2.333l1.517-7.156H449.1z"/>
	<path fill="#808184" d="M456.748,308.292h-0.631l-3.779-9.404h-0.059c-0.112,0.728-0.229,1.394-0.352,2s-0.645,3.074-1.566,7.405
		h-0.696l2.271-10.708h0.586l3.823,9.478h0.059c0.112-0.859,0.293-1.875,0.542-3.047l1.377-6.431h0.688L456.748,308.292z"/>
	<path fill="#808184" d="M468.4,301.854c0,1.235-0.268,2.362-0.802,3.38c-0.535,1.018-1.269,1.782-2.201,2.292
		c-0.933,0.511-2.021,0.766-3.267,0.766h-2.417l2.271-10.708h2.234c1.377,0,2.418,0.36,3.123,1.08
		C468.048,299.384,468.4,300.447,468.4,301.854z M462.116,307.632c1.104,0,2.066-0.23,2.89-0.692
		c0.822-0.461,1.46-1.134,1.911-2.018c0.452-0.884,0.678-1.89,0.678-3.018c0-2.432-1.162-3.647-3.486-3.647h-1.509l-2.014,9.375
		H462.116z"/>
	<path fill="#808184" d="M479.13,301.619c0,1.245-0.229,2.42-0.688,3.527c-0.46,1.105-1.075,1.931-1.846,2.476
		c-0.772,0.544-1.663,0.816-2.674,0.816c-1.221,0-2.16-0.364-2.82-1.091c-0.658-0.728-0.988-1.777-0.988-3.149
		c0-1.279,0.227-2.445,0.682-3.498c0.453-1.052,1.076-1.86,1.867-2.424c0.791-0.564,1.701-0.846,2.732-0.846
		c1.205,0,2.13,0.363,2.771,1.087C478.809,299.243,479.13,300.276,479.13,301.619z M475.292,298.118c-0.85,0-1.603,0.247-2.259,0.74
		c-0.657,0.493-1.181,1.221-1.571,2.183s-0.586,1.98-0.586,3.054c0,1.196,0.268,2.107,0.802,2.732
		c0.535,0.625,1.315,0.938,2.341,0.938c0.824,0,1.557-0.24,2.197-0.722c0.639-0.48,1.151-1.213,1.537-2.197
		c0.386-0.983,0.579-2.035,0.579-3.153c0-1.172-0.255-2.061-0.766-2.666C477.056,298.421,476.298,298.118,475.292,298.118z"/>
	<path fill="#808184" d="M486.616,298.118c-0.963,0-1.82,0.255-2.575,0.765c-0.754,0.511-1.353,1.254-1.794,2.23
		c-0.442,0.977-0.663,2.053-0.663,3.23c0,1.099,0.27,1.943,0.81,2.534c0.539,0.591,1.314,0.886,2.325,0.886
		c0.684,0,1.426-0.125,2.227-0.374v0.688c-0.762,0.239-1.533,0.359-2.314,0.359c-1.23,0-2.173-0.354-2.827-1.062
		s-0.981-1.709-0.981-3.003c0-1.299,0.255-2.49,0.766-3.574c0.51-1.084,1.204-1.917,2.083-2.498s1.861-0.872,2.945-0.872
		c0.863,0,1.613,0.166,2.248,0.498l-0.33,0.659c-0.269-0.146-0.572-0.261-0.911-0.344
		C487.283,298.16,486.947,298.118,486.616,298.118z"/>
	<path fill="#808184" d="M498.355,297.583l-1.516,7.156c-0.283,1.318-0.765,2.265-1.443,2.838s-1.594,0.86-2.746,0.86
		c-2.148,0-3.223-0.979-3.223-2.937c0-0.405,0.066-0.896,0.197-1.472l1.363-6.445h0.754l-1.414,6.584
		c-0.098,0.435-0.146,0.884-0.146,1.348c0,1.509,0.836,2.263,2.506,2.263c0.951,0,1.702-0.235,2.252-0.707
		c0.549-0.471,0.936-1.249,1.16-2.333l1.517-7.156H498.355z"/>
	<path fill="#808184" d="M503.827,306.79l5.369-9.207h1.098l-2.204,10.708h-0.739l1.398-6.599c0.386-1.802,0.63-2.893,0.732-3.274
		h-0.044l-5.713,9.873h-0.374l-1.625-9.873h-0.045c-0.098,0.752-0.288,1.792-0.57,3.12l-1.436,6.753h-0.703l2.263-10.708h1.048
		l1.501,9.207H503.827z"/>
	<path fill="#808184" d="M516.468,308.292h-5.325l2.27-10.708h5.324l-0.153,0.688h-4.57l-0.856,4.05h4.32l-0.153,0.688h-4.307
		l-0.989,4.592h4.593L516.468,308.292z"/>
	<path fill="#808184" d="M526.041,308.292h-0.631l-3.779-9.404h-0.059c-0.112,0.728-0.229,1.394-0.352,2s-0.645,3.074-1.566,7.405
		h-0.696l2.271-10.708h0.586l3.823,9.478h0.059c0.112-0.859,0.293-1.875,0.542-3.047l1.377-6.431h0.688L526.041,308.292z"/>
	<path fill="#808184" d="M531.467,308.292h-0.747l2.117-10.02h-3.164l0.146-0.688h7.126l-0.14,0.688h-3.223L531.467,308.292z"/>
	<path fill="#808184" d="M541.547,308.292h-5.325l2.271-10.708h5.324l-0.153,0.688h-4.57l-0.856,4.05h4.32l-0.153,0.688h-4.307
		l-0.989,4.592h4.593L541.547,308.292z"/>
	<path fill="#808184" d="M552.722,301.854c0,1.235-0.268,2.362-0.802,3.38c-0.535,1.018-1.269,1.782-2.201,2.292
		c-0.933,0.511-2.021,0.766-3.267,0.766h-2.417l2.271-10.708h2.234c1.377,0,2.418,0.36,3.123,1.08
		C552.37,299.384,552.722,300.447,552.722,301.854z M546.438,307.632c1.104,0,2.066-0.23,2.89-0.692
		c0.822-0.461,1.46-1.134,1.911-2.018c0.452-0.884,0.678-1.89,0.678-3.018c0-2.432-1.162-3.647-3.486-3.647h-1.509l-2.014,9.375
		H546.438z"/>
	<path fill="#808184" d="M455.392,326.292l2.271-10.708h0.718l-2.263,10.708H455.392z"/>
	<path fill="#808184" d="M463.991,324.79l5.369-9.207h1.098l-2.204,10.708h-0.739l1.398-6.599c0.386-1.802,0.63-2.893,0.732-3.274
		h-0.044l-5.713,9.873h-0.374l-1.625-9.873h-0.045c-0.098,0.752-0.288,1.792-0.57,3.12l-1.436,6.753h-0.703l2.263-10.708h1.048
		l1.501,9.207H463.991z"/>
	<path fill="#808184" d="M476.215,324.79l5.369-9.207h1.098l-2.204,10.708h-0.739l1.398-6.599c0.386-1.802,0.63-2.893,0.732-3.274
		h-0.044l-5.713,9.873h-0.374l-1.625-9.873h-0.045c-0.098,0.752-0.288,1.792-0.57,3.12l-1.436,6.753h-0.703l2.263-10.708h1.048
		l1.501,9.207H476.215z"/>
	<path fill="#808184" d="M483.532,326.292l2.271-10.708h0.718l-2.263,10.708H483.532z"/>
	<path fill="#808184" d="M492.746,320.908h2.974l-1.099,4.995c-1.03,0.356-2.02,0.535-2.967,0.535c-1.255,0-2.224-0.356-2.907-1.069
		s-1.025-1.741-1.025-3.083c0-1.294,0.257-2.474,0.769-3.542c0.514-1.066,1.205-1.886,2.077-2.457
		c0.871-0.571,1.837-0.857,2.896-0.857c0.552,0,1.048,0.046,1.487,0.139s0.888,0.237,1.348,0.432l-0.279,0.688
		c-0.537-0.225-0.999-0.376-1.388-0.454c-0.388-0.078-0.797-0.117-1.227-0.117c-0.898,0-1.727,0.263-2.483,0.788
		s-1.353,1.261-1.787,2.208s-0.651,2.004-0.651,3.171c0,1.118,0.279,1.978,0.839,2.578c0.559,0.601,1.355,0.901,2.391,0.901
		c0.757,0,1.512-0.115,2.264-0.344l0.857-3.853h-2.22L492.746,320.908z"/>
	<path fill="#808184" d="M499.001,321.655l-0.959,4.636h-0.755l2.271-10.708h2.219c2.1,0,3.15,0.879,3.15,2.637
		c0,0.889-0.253,1.628-0.759,2.219c-0.505,0.591-1.192,0.962-2.062,1.113c0.981,2.886,1.521,4.465,1.619,4.739h-0.813l-1.546-4.636
		H499.001z M499.162,320.981h1.846c1.016,0,1.789-0.233,2.321-0.7c0.532-0.466,0.799-1.153,0.799-2.062
		c0-1.309-0.804-1.963-2.41-1.963h-1.545L499.162,320.981z"/>
	<path fill="#808184" d="M510.822,322.483h-3.75l-2.103,3.809h-0.856l6.02-10.752h0.491l1.472,10.752h-0.769L510.822,322.483z
		 M510.734,321.809l-0.286-2.131c-0.151-1.182-0.247-2.163-0.286-2.944c-0.146,0.308-0.304,0.625-0.472,0.952
		c-0.169,0.327-0.917,1.702-2.245,4.124H510.734z"/>
	<path fill="#808184" d="M520.511,326.292h-0.631l-3.779-9.404h-0.059c-0.112,0.728-0.229,1.394-0.352,2s-0.645,3.074-1.566,7.405
		h-0.696l2.271-10.708h0.586l3.823,9.478h0.059c0.112-0.859,0.293-1.875,0.542-3.047l1.377-6.431h0.688L520.511,326.292z"/>
	<path fill="#808184" d="M525.938,326.292h-0.747l2.117-10.02h-3.164l0.146-0.688h7.126l-0.14,0.688h-3.223L525.938,326.292z"/>
	<path fill="#808184" d="M536.5,323.34c0,0.615-0.159,1.164-0.479,1.644c-0.319,0.481-0.758,0.844-1.314,1.088
		s-1.214,0.366-1.97,0.366c-0.431,0-0.852-0.042-1.264-0.125c-0.413-0.083-0.832-0.225-1.256-0.425v-0.798
		c0.795,0.449,1.645,0.674,2.549,0.674c0.917,0,1.639-0.211,2.164-0.634c0.524-0.422,0.787-0.99,0.787-1.703
		c0-0.298-0.042-0.553-0.125-0.765c-0.083-0.213-0.211-0.404-0.384-0.575c-0.174-0.171-0.396-0.337-0.667-0.498
		c-0.271-0.161-0.592-0.344-0.963-0.549c-0.732-0.371-1.244-0.771-1.534-1.201c-0.291-0.43-0.437-0.933-0.437-1.509
		s0.145-1.083,0.433-1.52c0.288-0.437,0.69-0.776,1.208-1.018c0.518-0.242,1.097-0.363,1.736-0.363c0.483,0,0.923,0.043,1.318,0.128
		s0.806,0.233,1.23,0.443l-0.234,0.688c-0.322-0.195-0.692-0.349-1.109-0.461c-0.418-0.112-0.819-0.168-1.205-0.168
		c-0.796,0-1.43,0.202-1.9,0.604c-0.472,0.403-0.707,0.937-0.707,1.601c0,0.503,0.119,0.918,0.359,1.245
		c0.238,0.327,0.683,0.652,1.332,0.974c0.752,0.386,1.273,0.703,1.564,0.952c0.29,0.249,0.508,0.525,0.651,0.828
		C536.428,322.566,536.5,322.925,536.5,323.34z"/>
</g>
</svg>
