<?xml version="1.0" encoding="utf-8"?>
<!-- Generator: Adobe Illustrator 17.0.0, SVG Export Plug-In . SVG Version: 6.00 Build 0)  -->
<!DOCTYPE svg PUBLIC "-//W3C//DTD SVG 1.1//EN" "http://www.w3.org/Graphics/SVG/1.1/DTD/svg11.dtd">
<svg version="1.1" id="Layer_1" xmlns="http://www.w3.org/2000/svg" xmlns:xlink="http://www.w3.org/1999/xlink" x="0px" y="0px"
	 width="640px" height="355.101px" viewBox="0 0 640 355.101" enable-background="new 0 0 640 355.101" xml:space="preserve">
<g>
	<g>
		
			<line fill="none" stroke="#808184" stroke-width="0.5" stroke-miterlimit="10" x1="82.326" y1="266.074" x2="566.738" y2="266.074"/>
		<g>
			<g>
				
					<line fill="none" stroke="#808184" stroke-width="0.5" stroke-miterlimit="10" x1="82.326" y1="266.074" x2="82.326" y2="260.949"/>
				<line fill="none" stroke="#000000" stroke-miterlimit="10" x1="566.738" y1="266.074" x2="566.738" y2="266.074"/>
			</g>
			<g>
			</g>
		</g>
	</g>
	<g>
		<g>
			<text transform="matrix(1 0 0 1 68.1326 273.2817)" fill="#808184" font-family="'MyriadPro-Regular'" font-size="10">0</text>
			<text transform="matrix(1 0 0 1 68.1326 247.6543)" fill="#808184" font-family="'MyriadPro-Regular'" font-size="10">1</text>
			<text transform="matrix(1 0 0 1 68.1326 222.0269)" fill="#808184" font-family="'MyriadPro-Regular'" font-size="10">2</text>
			<text transform="matrix(1 0 0 1 68.1326 196.3994)" fill="#808184" font-family="'MyriadPro-Regular'" font-size="10">3</text>
			<text transform="matrix(1 0 0 1 68.1326 170.7715)" fill="#808184" font-family="'MyriadPro-Regular'" font-size="10">4</text>
			<text transform="matrix(1 0 0 1 68.1326 145.144)" fill="#808184" font-family="'MyriadPro-Regular'" font-size="10">5</text>
			<text transform="matrix(1 0 0 1 68.1326 119.5166)" fill="#808184" font-family="'MyriadPro-Regular'" font-size="10">6</text>
			<text transform="matrix(1 0 0 1 68.1326 93.8887)" fill="#808184" font-family="'MyriadPro-Regular'" font-size="10">7</text>
			<text transform="matrix(1 0 0 1 68.1326 68.2612)" fill="#808184" font-family="'MyriadPro-Regular'" font-size="10">8</text>
		</g>
		
			<line fill="none" stroke="#808184" stroke-width="0.5" stroke-miterlimit="10" x1="82.326" y1="266.074" x2="82.326" y2="61.053"/>
		<g>
			<g>
				
					<line fill="none" stroke="#808184" stroke-width="0.5" stroke-miterlimit="10" x1="82.326" y1="266.074" x2="82.326" y2="266.074"/>
				
					<line fill="none" stroke="#808184" stroke-width="0.5" stroke-miterlimit="10" x1="82.326" y1="240.447" x2="96.827" y2="240.447"/>
				
					<line fill="none" stroke="#808184" stroke-width="0.5" stroke-miterlimit="10" x1="82.326" y1="214.819" x2="96.827" y2="214.819"/>
				
					<line fill="none" stroke="#808184" stroke-width="0.5" stroke-miterlimit="10" x1="82.326" y1="189.191" x2="96.827" y2="189.191"/>
				
					<line fill="none" stroke="#808184" stroke-width="0.5" stroke-miterlimit="10" x1="82.326" y1="163.564" x2="96.827" y2="163.564"/>
				
					<line fill="none" stroke="#808184" stroke-width="0.5" stroke-miterlimit="10" x1="82.326" y1="137.936" x2="96.827" y2="137.936"/>
				
					<line fill="none" stroke="#808184" stroke-width="0.5" stroke-miterlimit="10" x1="82.326" y1="112.309" x2="96.827" y2="112.309"/>
				
					<line fill="none" stroke="#808184" stroke-width="0.5" stroke-miterlimit="10" x1="82.326" y1="86.681" x2="96.827" y2="86.681"/>
				
					<line fill="none" stroke="#808184" stroke-width="0.5" stroke-miterlimit="10" x1="82.326" y1="61.053" x2="96.827" y2="61.053"/>
			</g>
			<g>
			</g>
		</g>
	</g>
	<g>
		<g>
			<g>
				<rect x="483.209" y="86.681" fill="#952E1F" width="83.528" height="179.393"/>
			</g>
		</g>
		<g>
			<g>
				<rect x="390.4" y="189.191" fill="#664747" width="83.528" height="76.883"/>
			</g>
		</g>
		<g>
			<g>
				<rect x="297.591" y="214.819" fill="#D07567" width="83.528" height="51.255"/>
			</g>
		</g>
		<g>
			<g>
				<rect x="204.781" y="189.191" fill="#471811" width="83.528" height="76.883"/>
			</g>
		</g>
		<g>
			<g>
				<rect x="111.972" y="137.936" fill="#C73C27" width="83.528" height="128.138"/>
			</g>
		</g>
	</g>
	<g>
		<g>
		</g>
		<g>
		</g>
		<g>
		</g>
		<g>
		</g>
		<g>
		</g>
	</g>
</g>
<g>
	<path fill="#808184" d="M152.018,115.376c0.942,0,1.707,0.306,2.293,0.918c0.586,0.612,0.879,1.437,0.879,2.473
		c0,1.359-0.419,2.408-1.258,3.145c-0.839,0.737-2.052,1.105-3.641,1.105c-0.672,0-1.309-0.058-1.91-0.172s-1.043-0.273-1.324-0.477
		v-2.531c0.411,0.234,0.883,0.418,1.414,0.551s1.011,0.199,1.438,0.199c1.442,0,2.164-0.5,2.164-1.5
		c0-0.396-0.132-0.716-0.395-0.961c-0.263-0.245-0.618-0.367-1.066-0.367c-0.276,0-0.565,0.026-0.867,0.078
		c-0.302,0.052-0.542,0.109-0.719,0.172l-0.953-0.719l1.68-5.852h6.352l-0.531,2.523h-3.68l-0.461,1.445
		C151.615,115.387,151.81,115.376,152.018,115.376z"/>
</g>
<g>
	<path fill="#808184" d="M247.704,169.675c0,0.771-0.233,1.409-0.699,1.914c-0.466,0.505-1.124,0.844-1.973,1.016v0.063
		c0.672,0.13,1.198,0.421,1.578,0.871c0.38,0.451,0.57,1.004,0.57,1.66c0,1.125-0.464,1.992-1.391,2.602s-2.183,0.914-3.766,0.914
		c-0.604,0-1.171-0.054-1.699-0.16s-0.965-0.259-1.309-0.457v-2.594c0.87,0.521,1.852,0.781,2.945,0.781
		c0.719,0,1.257-0.121,1.613-0.363s0.535-0.59,0.535-1.043c0-0.281-0.07-0.492-0.211-0.633s-0.364-0.243-0.672-0.309
		c-0.308-0.065-0.739-0.098-1.297-0.098h-0.656l0.414-2.273h0.609c0.766,0,1.362-0.121,1.789-0.363s0.641-0.574,0.641-0.996
		c0-0.239-0.094-0.432-0.281-0.578c-0.188-0.146-0.445-0.219-0.773-0.219c-0.609,0-1.313,0.219-2.109,0.656l-1.234-1.938
		c0.656-0.422,1.29-0.72,1.902-0.895c0.612-0.174,1.285-0.262,2.02-0.262c1.047,0,1.884,0.242,2.512,0.727
		S247.704,168.842,247.704,169.675z"/>
</g>
<g>
	<path fill="#808184" d="M434.683,169.675c0,0.771-0.233,1.409-0.699,1.914c-0.466,0.505-1.124,0.844-1.973,1.016v0.063
		c0.672,0.13,1.198,0.421,1.578,0.871c0.38,0.451,0.57,1.004,0.57,1.66c0,1.125-0.464,1.992-1.391,2.602s-2.183,0.914-3.766,0.914
		c-0.604,0-1.171-0.054-1.699-0.16s-0.965-0.259-1.309-0.457v-2.594c0.87,0.521,1.852,0.781,2.945,0.781
		c0.719,0,1.257-0.121,1.613-0.363s0.535-0.59,0.535-1.043c0-0.281-0.07-0.492-0.211-0.633s-0.364-0.243-0.672-0.309
		c-0.308-0.065-0.739-0.098-1.297-0.098h-0.656l0.414-2.273h0.609c0.766,0,1.362-0.121,1.789-0.363s0.641-0.574,0.641-0.996
		c0-0.239-0.094-0.432-0.281-0.578c-0.188-0.146-0.445-0.219-0.773-0.219c-0.609,0-1.313,0.219-2.109,0.656l-1.234-1.938
		c0.656-0.422,1.29-0.72,1.902-0.895c0.612-0.174,1.285-0.262,2.02-0.262c1.047,0,1.884,0.242,2.512,0.727
		S434.683,168.842,434.683,169.675z"/>
</g>
<g>
	<path fill="#808184" d="M338.905,202.557h-7.852l0.414-2l3.773-3.406c1.292-1.151,1.938-2.091,1.938-2.82
		c0-0.255-0.067-0.446-0.203-0.574c-0.136-0.127-0.308-0.191-0.516-0.191c-0.625,0-1.356,0.383-2.195,1.148l-1.453-2.016
		c1.219-1.151,2.628-1.727,4.227-1.727c0.953,0,1.722,0.259,2.305,0.777c0.583,0.519,0.875,1.22,0.875,2.105
		c0,0.792-0.227,1.534-0.68,2.227c-0.453,0.693-1.229,1.513-2.328,2.461l-1.602,1.375v0.094h3.828L338.905,202.557z"/>
</g>
<g>
	<path fill="#808184" d="M522.155,74.813l5.602-8.867h-4.484l0.547-2.555h8.047l-0.398,1.805l-5.813,9.617H522.155z"/>
</g>
<g>
	<path fill="#808184" d="M158.409,294.378c-0.699,0.698-1.486,1.186-2.365,1.459c-0.879,0.272-1.727,0.29-2.543,0.051
		c-0.815-0.238-1.576-0.71-2.28-1.414l-1.367-1.367l7.342-4.773l1.264,1.264c0.779,0.779,1.165,1.572,1.155,2.378
		C159.606,292.781,159.204,293.582,158.409,294.378z M151.585,294.092c0.625,0.625,1.299,1.038,2.026,1.243s1.468,0.185,2.223-0.061
		c0.756-0.244,1.452-0.686,2.091-1.323c1.375-1.376,1.406-2.72,0.09-4.036l-0.854-0.854l-6.441,4.165L151.585,294.092z"/>
	<path fill="#808184" d="M155.446,298.699l7.343-4.772l0.405,0.405l-7.338,4.777L155.446,298.699z"/>
	<path fill="#808184" d="M162.49,302.403c-0.349,0.348-0.749,0.567-1.202,0.658c-0.452,0.092-0.905,0.049-1.357-0.127
		c-0.454-0.178-0.895-0.48-1.322-0.908c-0.244-0.244-0.459-0.506-0.645-0.785c-0.188-0.281-0.344-0.598-0.471-0.951l0.452-0.451
		c0.196,0.704,0.55,1.313,1.06,1.822c0.52,0.52,1.048,0.809,1.584,0.867c0.535,0.057,1.005-0.115,1.408-0.519
		c0.168-0.169,0.289-0.337,0.363-0.503c0.072-0.168,0.109-0.348,0.107-0.543s-0.033-0.414-0.096-0.659s-0.141-0.53-0.234-0.855
		c-0.204-0.624-0.267-1.14-0.188-1.548c0.079-0.407,0.281-0.773,0.607-1.1c0.325-0.326,0.693-0.531,1.104-0.615
		c0.41-0.084,0.829-0.049,1.259,0.107s0.825,0.415,1.188,0.777c0.273,0.273,0.497,0.545,0.673,0.817s0.324,0.588,0.445,0.947
		l-0.521,0.257c-0.072-0.293-0.193-0.588-0.367-0.889c-0.172-0.299-0.368-0.559-0.586-0.776c-0.45-0.45-0.922-0.694-1.417-0.733
		c-0.494-0.039-0.93,0.129-1.306,0.505c-0.284,0.284-0.451,0.587-0.501,0.907s0.019,0.756,0.202,1.305
		c0.208,0.645,0.324,1.119,0.347,1.424c0.024,0.306-0.01,0.584-0.099,0.838C162.887,301.925,162.725,302.169,162.49,302.403z"/>
	<path fill="#808184" d="M163.153,306.406l-0.423-0.423l6.865-4.471l-1.79-1.79l0.473-0.307l4.031,4.031l-0.468,0.312l-1.823-1.823
		L163.153,306.406z"/>
	<path fill="#808184" d="M169.434,307.441l-3.166,2.08l-0.427-0.427l7.342-4.773l1.256,1.256c1.188,1.188,1.284,2.278,0.29,3.273
		c-0.503,0.502-1.064,0.777-1.685,0.826c-0.62,0.048-1.219-0.131-1.796-0.536c-1.078,2.187-1.666,3.386-1.766,3.596l-0.46-0.46
		l1.749-3.497L169.434,307.441z M169.906,307.151l1.044,1.044c0.575,0.575,1.145,0.881,1.709,0.917
		c0.566,0.039,1.105-0.199,1.619-0.713c0.74-0.74,0.654-1.566-0.254-2.475l-0.873-0.873L169.906,307.151z"/>
	<path fill="#808184" d="M170.586,313.839l7.342-4.773l0.406,0.406l-7.338,4.777L170.586,313.839z"/>
	<path fill="#808184" d="M180.015,311.153l1.57,1.57c0.525,0.525,0.811,1.043,0.856,1.553c0.045,0.509-0.149,0.98-0.583,1.414
		c-0.423,0.422-0.891,0.643-1.403,0.66c-0.515,0.016-1.036-0.164-1.566-0.539l-0.018,0.016c0.26,0.431,0.363,0.848,0.312,1.252
		c-0.053,0.402-0.247,0.773-0.585,1.109c-0.566,0.566-1.207,0.819-1.922,0.759s-1.419-0.437-2.109-1.127l-1.894-1.894
		L180.015,311.153z M176.721,314l-3.173,2.056l1.417,1.417c0.555,0.555,1.104,0.861,1.645,0.919
		c0.542,0.059,1.045-0.146,1.512-0.613c0.4-0.4,0.575-0.822,0.522-1.268c-0.052-0.444-0.334-0.922-0.846-1.434L176.721,314z
		 M177.174,313.706l1.151,1.151c0.569,0.569,1.113,0.89,1.633,0.962c0.52,0.071,0.996-0.109,1.43-0.543
		c0.328-0.329,0.471-0.686,0.424-1.071c-0.045-0.385-0.276-0.786-0.693-1.203l-1.127-1.127L177.174,313.706z"/>
	<path fill="#808184" d="M189.069,320.207l-4.906,3.189c-0.906,0.586-1.713,0.85-2.421,0.79c-0.708-0.059-1.39-0.416-2.04-1.066
		c-1.217-1.217-1.27-2.377-0.162-3.484c0.229-0.23,0.543-0.471,0.943-0.723l4.418-2.874l0.427,0.427l-4.524,2.925
		c-0.302,0.19-0.583,0.417-0.846,0.68c-0.854,0.854-0.808,1.753,0.137,2.697c0.538,0.538,1.096,0.829,1.674,0.874
		s1.236-0.177,1.977-0.663l4.905-3.19L189.069,320.207z"/>
	<path fill="#808184" d="M184.722,327.976l-0.423-0.423l6.865-4.471l-1.79-1.79l0.473-0.307l4.031,4.031l-0.468,0.312l-1.823-1.823
		L184.722,327.976z"/>
	<path fill="#808184" d="M187.411,330.664l7.343-4.772l0.405,0.405l-7.338,4.777L187.411,330.664z"/>
	<path fill="#808184" d="M198.665,334.368c-0.705,0.704-1.5,1.239-2.385,1.605s-1.7,0.484-2.445,0.355
		c-0.743-0.127-1.402-0.479-1.973-1.049c-0.691-0.691-1.018-1.429-0.979-2.213s0.446-1.564,1.223-2.341
		c0.724-0.724,1.511-1.255,2.363-1.593c0.852-0.34,1.662-0.443,2.428-0.315s1.441,0.484,2.024,1.067c0.682,0.682,1,1.41,0.953,2.184
		C199.827,332.842,199.424,333.608,198.665,334.368z M198.473,330.216c-0.48-0.48-1.045-0.766-1.696-0.859
		c-0.65-0.092-1.358,0.023-2.124,0.346c-0.764,0.324-1.451,0.789-2.059,1.396c-0.676,0.678-1.04,1.344-1.091,2
		c-0.052,0.656,0.212,1.273,0.792,1.854c0.467,0.467,1.018,0.745,1.652,0.836c0.633,0.089,1.338-0.035,2.113-0.373
		c0.773-0.34,1.478-0.824,2.11-1.457c0.663-0.662,1.021-1.311,1.075-1.94C199.301,331.386,199.044,330.786,198.473,330.216z"/>
	<path fill="#808184" d="M199.572,342.825l-0.356-0.356l3.183-7.458l-0.033-0.033c-0.476,0.348-0.919,0.658-1.331,0.932
		c-0.411,0.273-2.103,1.375-5.075,3.303l-0.394-0.394l7.342-4.773l0.332,0.332l-3.199,7.523l0.033,0.033
		c0.55-0.423,1.227-0.895,2.03-1.417l4.417-2.858l0.39,0.39L199.572,342.825z"/>
</g>
<g>
	<path fill="#808184" d="M253.077,295.192c-1.381,1.381-2.912,1.229-4.598-0.457l-0.834-0.832l-3.028,1.96l-0.427-0.427l7.342-4.773
		l1.306,1.306c0.558,0.558,0.858,1.114,0.901,1.667C253.782,294.19,253.561,294.708,253.077,295.192z M248.093,293.589l0.793,0.791
		c0.695,0.695,1.345,1.079,1.946,1.147c0.603,0.069,1.192-0.185,1.77-0.762c0.757-0.757,0.681-1.589-0.228-2.499l-0.875-0.873
		L248.093,293.589z"/>
	<path fill="#808184" d="M252.527,298.527l-3.166,2.08l-0.427-0.427l7.342-4.773l1.256,1.256c1.188,1.188,1.284,2.278,0.289,3.273
		c-0.502,0.502-1.063,0.777-1.684,0.826c-0.62,0.048-1.219-0.131-1.796-0.536c-1.077,2.187-1.665,3.386-1.766,3.596l-0.46-0.46
		l1.749-3.497L252.527,298.527z M252.999,298.237l1.044,1.044c0.575,0.575,1.145,0.881,1.71,0.917
		c0.564,0.039,1.104-0.199,1.617-0.713c0.74-0.74,0.656-1.566-0.252-2.475l-0.875-0.873L252.999,298.237z"/>
	<path fill="#808184" d="M262.844,306.54c-0.705,0.705-1.5,1.24-2.385,1.605c-0.886,0.366-1.7,0.485-2.445,0.357
		c-0.744-0.129-1.402-0.479-1.975-1.051c-0.689-0.691-1.017-1.429-0.977-2.213c0.038-0.784,0.445-1.564,1.222-2.341
		c0.724-0.724,1.511-1.255,2.362-1.593c0.854-0.34,1.662-0.443,2.429-0.315c0.767,0.13,1.441,0.484,2.024,1.067
		c0.682,0.682,1,1.41,0.953,2.184S263.603,305.781,262.844,306.54z M262.653,302.388c-0.48-0.48-1.047-0.766-1.696-0.858
		c-0.651-0.093-1.358,0.022-2.124,0.347c-0.766,0.322-1.451,0.787-2.059,1.395c-0.678,0.678-1.041,1.344-1.092,2
		c-0.053,0.656,0.213,1.273,0.793,1.854c0.467,0.467,1.017,0.745,1.65,0.836c0.635,0.09,1.34-0.035,2.113-0.373
		c0.775-0.34,1.479-0.824,2.111-1.457c0.662-0.662,1.021-1.311,1.075-1.94C263.479,303.558,263.221,302.958,262.653,302.388z"/>
	<path fill="#808184" d="M269.059,308.794c-0.545-0.545-1.176-0.885-1.891-1.023s-1.475-0.055-2.276,0.247s-1.536,0.786-2.202,1.452
		c-0.621,0.621-0.947,1.252-0.976,1.892c-0.029,0.639,0.241,1.245,0.813,1.817c0.387,0.387,0.878,0.735,1.472,1.048l-0.39,0.39
		c-0.566-0.297-1.07-0.666-1.512-1.107c-0.697-0.695-1.029-1.43-1-2.199c0.031-0.771,0.412-1.521,1.145-2.254
		c0.734-0.734,1.553-1.266,2.455-1.59s1.766-0.402,2.591-0.233c0.826,0.168,1.546,0.56,2.159,1.173
		c0.488,0.488,0.818,1.006,0.99,1.553l-0.561,0.188c-0.068-0.234-0.175-0.472-0.32-0.711S269.247,308.981,269.059,308.794z"/>
	<path fill="#808184" d="M267.599,318.846l-3.012-3.012l7.342-4.773l3.012,3.012l-0.477,0.303l-2.585-2.585l-2.775,1.807
		l2.444,2.444l-0.477,0.303l-2.437-2.437l-3.157,2.038l2.598,2.598L267.599,318.846z"/>
	<path fill="#808184" d="M273.964,321.87c-0.348,0.348-0.748,0.568-1.201,0.658c-0.453,0.092-0.906,0.049-1.359-0.127
		c-0.453-0.178-0.893-0.48-1.322-0.908c-0.242-0.242-0.457-0.504-0.643-0.785c-0.188-0.279-0.344-0.598-0.471-0.951l0.451-0.451
		c0.196,0.704,0.549,1.313,1.061,1.822c0.52,0.52,1.047,0.809,1.582,0.867c0.537,0.057,1.006-0.115,1.409-0.519
		c0.169-0.169,0.29-0.337,0.362-0.503c0.074-0.168,0.109-0.348,0.107-0.543c0-0.195-0.033-0.414-0.095-0.659s-0.14-0.53-0.234-0.855
		c-0.204-0.624-0.267-1.14-0.188-1.547c0.078-0.408,0.28-0.774,0.606-1.101s0.694-0.53,1.104-0.615
		c0.41-0.084,0.831-0.048,1.26,0.107c0.43,0.156,0.825,0.415,1.188,0.777c0.273,0.273,0.498,0.547,0.674,0.818
		s0.323,0.587,0.444,0.946l-0.521,0.257c-0.072-0.293-0.195-0.588-0.367-0.889c-0.174-0.299-0.369-0.559-0.587-0.776
		c-0.45-0.45-0.923-0.694-1.417-0.733s-0.929,0.13-1.305,0.506c-0.284,0.284-0.451,0.586-0.502,0.906
		c-0.049,0.32,0.018,0.756,0.203,1.307c0.207,0.643,0.322,1.117,0.346,1.422c0.024,0.306-0.009,0.585-0.1,0.838
		C274.36,321.392,274.198,321.636,273.964,321.87z"/>
	<path fill="#808184" d="M278.19,326.097c-0.348,0.348-0.749,0.567-1.201,0.658c-0.453,0.092-0.906,0.049-1.359-0.129
		c-0.453-0.176-0.895-0.479-1.322-0.906c-0.242-0.244-0.457-0.506-0.645-0.785c-0.186-0.281-0.342-0.598-0.471-0.951l0.452-0.452
		c0.197,0.705,0.55,1.313,1.062,1.823c0.52,0.52,1.047,0.809,1.582,0.867c0.537,0.057,1.006-0.115,1.409-0.519
		c0.169-0.169,0.29-0.337,0.362-0.503c0.074-0.168,0.109-0.35,0.107-0.543c-0.002-0.195-0.033-0.414-0.095-0.659
		s-0.14-0.53-0.234-0.855c-0.204-0.624-0.268-1.141-0.188-1.548s0.281-0.773,0.607-1.1s0.693-0.531,1.104-0.615
		s0.83-0.049,1.26,0.107s0.825,0.415,1.187,0.776c0.273,0.273,0.499,0.546,0.674,0.818s0.324,0.588,0.445,0.947l-0.522,0.257
		c-0.072-0.293-0.193-0.59-0.367-0.889c-0.172-0.299-0.367-0.559-0.586-0.777c-0.45-0.45-0.922-0.695-1.417-0.733
		c-0.493-0.038-0.929,0.13-1.305,0.506c-0.284,0.284-0.452,0.587-0.501,0.907s0.018,0.756,0.203,1.305
		c0.207,0.645,0.322,1.119,0.346,1.424s-0.01,0.584-0.1,0.838C278.587,325.618,278.425,325.862,278.19,326.097z"/>
	<path fill="#808184" d="M277.461,328.707l7.342-4.773l0.406,0.406l-7.338,4.777L277.461,328.707z"/>
	<path fill="#808184" d="M283.555,334.802l-0.356-0.356l3.183-7.458l-0.033-0.033c-0.475,0.348-0.918,0.658-1.33,0.932
		s-2.104,1.375-5.076,3.303l-0.394-0.394l7.342-4.773l0.332,0.332l-3.199,7.523l0.033,0.033c0.55-0.423,1.227-0.895,2.03-1.417
		l4.417-2.858l0.39,0.39L283.555,334.802z"/>
	<path fill="#808184" d="M291.403,336.558l1.682,1.682l-3.447,2.205c-0.785-0.381-1.443-0.84-1.98-1.375
		c-0.709-0.711-1.057-1.461-1.04-2.251s0.404-1.564,1.164-2.324c0.731-0.731,1.546-1.255,2.438-1.567
		c0.895-0.314,1.749-0.386,2.564-0.215c0.816,0.17,1.524,0.554,2.124,1.153c0.312,0.312,0.565,0.618,0.763,0.919
		c0.195,0.303,0.369,0.637,0.518,1.008l-0.547,0.23c-0.178-0.43-0.354-0.777-0.529-1.041c-0.174-0.264-0.383-0.518-0.627-0.76
		c-0.508-0.51-1.125-0.828-1.85-0.959c-0.726-0.132-1.479-0.053-2.261,0.237c-0.78,0.29-1.502,0.766-2.162,1.426
		c-0.633,0.633-0.96,1.276-0.983,1.933c-0.025,0.656,0.256,1.277,0.842,1.863c0.428,0.428,0.92,0.789,1.476,1.085l2.663-1.694
		l-1.254-1.256L291.403,336.558z"/>
</g>
<g>
	<path fill="#808184" d="M344.245,293.767c-1.381,1.381-2.914,1.229-4.6-0.455l-0.832-0.834l-3.029,1.961l-0.427-0.427l7.342-4.773
		l1.305,1.305c0.559,0.559,0.858,1.114,0.901,1.669C344.948,292.765,344.727,293.284,344.245,293.767z M339.26,292.163l0.791,0.791
		c0.695,0.697,1.345,1.079,1.947,1.148s1.191-0.186,1.769-0.763c0.757-0.757,0.681-1.589-0.228-2.497l-0.875-0.875L339.26,292.163z"
		/>
	<path fill="#808184" d="M343.693,297.102l-3.165,2.081l-0.427-0.427l7.342-4.773l1.255,1.255c1.188,1.188,1.285,2.279,0.291,3.273
		c-0.503,0.503-1.064,0.777-1.685,0.827c-0.62,0.048-1.219-0.131-1.797-0.537c-1.077,2.188-1.665,3.386-1.765,3.597l-0.46-0.46
		l1.749-3.497L343.693,297.102z M344.166,296.813l1.044,1.044c0.574,0.574,1.144,0.88,1.709,0.918
		c0.564,0.037,1.104-0.201,1.617-0.715c0.74-0.74,0.656-1.564-0.252-2.475l-0.875-0.873L344.166,296.813z"/>
	<path fill="#808184" d="M354.01,305.114c-0.705,0.705-1.5,1.24-2.385,1.605c-0.886,0.366-1.7,0.485-2.445,0.357
		c-0.744-0.129-1.402-0.479-1.973-1.051c-0.691-0.691-1.018-1.428-0.979-2.213c0.038-0.784,0.445-1.564,1.222-2.341
		c0.724-0.724,1.512-1.254,2.364-1.593c0.852-0.338,1.662-0.443,2.428-0.314s1.441,0.484,2.023,1.066
		c0.683,0.683,1,1.41,0.953,2.184S354.769,304.355,354.01,305.114z M353.819,300.964c-0.48-0.48-1.045-0.768-1.696-0.86
		c-0.65-0.092-1.358,0.022-2.124,0.347c-0.764,0.322-1.451,0.789-2.059,1.396c-0.676,0.676-1.041,1.342-1.092,1.998
		s0.213,1.275,0.793,1.855c0.467,0.467,1.018,0.744,1.652,0.834c0.633,0.09,1.338-0.035,2.111-0.373
		c0.775-0.338,1.479-0.823,2.112-1.456c0.663-0.663,1.021-1.31,1.074-1.941C354.646,302.133,354.389,301.532,353.819,300.964z"/>
	<path fill="#808184" d="M359.466,310.837c-0.698,0.698-1.486,1.186-2.365,1.459c-0.878,0.272-1.726,0.29-2.541,0.051
		c-0.816-0.238-1.577-0.71-2.281-1.414l-1.367-1.367l7.342-4.773l1.264,1.264c0.779,0.779,1.164,1.572,1.155,2.378
		C360.664,309.24,360.261,310.041,359.466,310.837z M352.642,310.551c0.624,0.624,1.3,1.038,2.026,1.243s1.468,0.185,2.223-0.061
		c0.756-0.244,1.453-0.686,2.091-1.323c1.376-1.376,1.405-2.72,0.091-4.036l-0.854-0.854l-6.442,4.165L352.642,310.551z"/>
	<path fill="#808184" d="M367.919,314.458l-4.905,3.19c-0.906,0.586-1.714,0.849-2.422,0.789s-1.39-0.415-2.04-1.067
		c-1.217-1.215-1.27-2.377-0.162-3.484c0.229-0.229,0.543-0.469,0.945-0.721l4.416-2.875l0.427,0.427l-4.524,2.925
		c-0.302,0.19-0.583,0.417-0.846,0.68c-0.854,0.854-0.808,1.753,0.137,2.697c0.539,0.539,1.098,0.83,1.674,0.875
		c0.578,0.043,1.236-0.178,1.977-0.664l4.906-3.189L367.919,314.458z"/>
	<path fill="#808184" d="M371.495,318.638c-0.545-0.543-1.174-0.885-1.89-1.022s-1.476-0.056-2.277,0.246s-1.536,0.786-2.202,1.452
		c-0.621,0.621-0.945,1.252-0.976,1.892c-0.028,0.64,0.243,1.245,0.813,1.817c0.387,0.387,0.878,0.735,1.472,1.048l-0.39,0.39
		c-0.566-0.295-1.07-0.664-1.512-1.107c-0.695-0.695-1.029-1.428-0.998-2.199c0.029-0.77,0.41-1.521,1.143-2.254
		c0.734-0.734,1.553-1.264,2.455-1.588c0.902-0.326,1.766-0.404,2.592-0.234c0.826,0.168,1.545,0.559,2.158,1.172
		c0.489,0.489,0.819,1.007,0.99,1.555l-0.559,0.186c-0.07-0.234-0.177-0.472-0.321-0.71
		C371.848,319.04,371.682,318.825,371.495,318.638z"/>
	<path fill="#808184" d="M368.416,327.07l-0.423-0.423l6.865-4.471l-1.79-1.79l0.473-0.307l4.031,4.031l-0.468,0.312l-1.823-1.823
		L368.416,327.07z"/>
	<path fill="#808184" d="M371.104,329.759l7.343-4.772l0.405,0.405l-7.338,4.777L371.104,329.759z"/>
	<path fill="#808184" d="M382.358,333.462c-0.705,0.705-1.5,1.24-2.385,1.607c-0.885,0.365-1.7,0.483-2.445,0.355
		c-0.743-0.128-1.402-0.479-1.973-1.051c-0.691-0.689-1.018-1.428-0.979-2.213c0.039-0.783,0.446-1.563,1.223-2.34
		c0.724-0.724,1.511-1.255,2.363-1.594c0.852-0.338,1.662-0.443,2.428-0.314s1.441,0.484,2.024,1.067
		c0.682,0.682,1,1.41,0.952,2.183C383.52,331.937,383.117,332.703,382.358,333.462z M382.167,329.312
		c-0.48-0.48-1.045-0.768-1.696-0.86c-0.65-0.092-1.358,0.024-2.124,0.347c-0.764,0.322-1.451,0.789-2.059,1.396
		c-0.676,0.676-1.04,1.343-1.092,1.998c-0.051,0.656,0.213,1.275,0.793,1.855c0.467,0.467,1.018,0.744,1.652,0.834
		c0.633,0.09,1.338-0.035,2.113-0.373c0.773-0.338,1.478-0.823,2.11-1.456c0.663-0.663,1.021-1.31,1.075-1.94
		C382.994,330.48,382.737,329.88,382.167,329.312z"/>
	<path fill="#808184" d="M383.265,341.92l-0.356-0.356l3.183-7.458l-0.033-0.033c-0.476,0.349-0.919,0.659-1.331,0.933
		c-0.411,0.272-2.103,1.374-5.075,3.302l-0.394-0.394l7.342-4.773l0.332,0.332l-3.199,7.523l0.033,0.033
		c0.55-0.423,1.227-0.895,2.03-1.417l4.417-2.858l0.39,0.39L383.265,341.92z"/>
</g>
<g>
	<path fill="#808184" d="M427.776,292.076l-3.166,2.08l-0.427-0.427l7.343-4.772l1.255,1.255c1.188,1.188,1.285,2.279,0.29,3.274
		c-0.502,0.502-1.064,0.777-1.685,0.825c-0.619,0.049-1.218-0.13-1.796-0.536c-1.076,2.188-1.666,3.387-1.765,3.597l-0.46-0.46
		l1.749-3.497L427.776,292.076z M428.249,291.787l1.044,1.044c0.574,0.574,1.144,0.88,1.71,0.917
		c0.564,0.037,1.104-0.201,1.617-0.715c0.74-0.74,0.656-1.564-0.254-2.473l-0.873-0.875L428.249,291.787z"/>
	<path fill="#808184" d="M431.94,301.486l-3.013-3.013l7.343-4.772l3.012,3.012l-0.477,0.303l-2.586-2.586l-2.775,1.807l2.444,2.444
		l-0.477,0.303l-2.437-2.437l-3.156,2.039l2.598,2.598L431.94,301.486z"/>
	<path fill="#808184" d="M434.741,304.287l-0.423-0.423l6.865-4.471l-1.79-1.79l0.473-0.307l4.031,4.031l-0.468,0.312l-1.823-1.823
		L434.741,304.287z"/>
	<path fill="#808184" d="M442.497,307.734l-2.121-2.121l-3.344,0.965l-0.484-0.484l9.488-2.678l0.277,0.277l-5.25,6.916
		l-0.435-0.435L442.497,307.734z M442.829,307.302l1.043-1.367c0.584-0.754,1.086-1.363,1.505-1.827
		c-0.257,0.091-0.525,0.182-0.806,0.271c-0.28,0.091-1.482,0.445-3.604,1.064L442.829,307.302z"/>
	<path fill="#808184" d="M441.817,311.363l7.342-4.773l0.406,0.406l-7.338,4.777L441.817,311.363z"/>
	<path fill="#808184" d="M443.906,313.452l7.342-4.773l0.423,0.423l-6.857,4.461l2.572,2.574l-0.493,0.302L443.906,313.452z"/>
</g>
<g>
	<path fill="#808184" d="M522.505,295.345c-0.348,0.348-0.748,0.567-1.201,0.659c-0.453,0.091-0.906,0.048-1.359-0.129
		s-0.894-0.479-1.321-0.907c-0.243-0.243-0.458-0.505-0.645-0.785s-0.344-0.598-0.471-0.951l0.452-0.451
		c0.195,0.703,0.551,1.313,1.061,1.822c0.52,0.52,1.047,0.809,1.584,0.867c0.535,0.058,1.005-0.115,1.408-0.518
		c0.168-0.17,0.289-0.337,0.362-0.504c0.072-0.168,0.108-0.349,0.107-0.543c-0.002-0.195-0.032-0.414-0.095-0.658
		c-0.063-0.245-0.141-0.53-0.234-0.856c-0.204-0.624-0.268-1.14-0.189-1.548c0.08-0.406,0.282-0.773,0.607-1.1
		c0.326-0.326,0.694-0.531,1.104-0.615s0.829-0.049,1.259,0.107s0.826,0.416,1.188,0.777c0.273,0.273,0.498,0.546,0.674,0.818
		c0.175,0.271,0.324,0.588,0.445,0.946l-0.522,0.257c-0.072-0.293-0.194-0.589-0.366-0.889c-0.174-0.301-0.368-0.559-0.587-0.777
		c-0.45-0.45-0.923-0.694-1.417-0.733c-0.494-0.038-0.93,0.13-1.305,0.506c-0.285,0.284-0.452,0.587-0.502,0.907
		s0.019,0.756,0.203,1.305c0.208,0.645,0.323,1.119,0.347,1.424c0.022,0.305-0.011,0.584-0.101,0.836
		C522.902,294.867,522.74,295.111,522.505,295.345z"/>
	<path fill="#808184" d="M524.788,300.967l-3.012-3.012l7.342-4.772l3.012,3.012l-0.477,0.302l-2.585-2.585l-2.776,1.807
		l2.445,2.445l-0.478,0.301l-2.436-2.436l-3.157,2.039l2.598,2.598L524.788,300.967z"/>
	<path fill="#808184" d="M529.788,300.722l-3.164,2.081l-0.427-0.427l7.341-4.773l1.256,1.256c1.188,1.188,1.285,2.279,0.291,3.273
		c-0.504,0.502-1.065,0.777-1.685,0.826c-0.62,0.049-1.22-0.131-1.797-0.537c-1.077,2.188-1.665,3.387-1.765,3.597l-0.46-0.46
		l1.749-3.496L529.788,300.722z M530.261,300.433l1.044,1.044c0.574,0.574,1.145,0.881,1.709,0.918s1.104-0.201,1.617-0.716
		c0.74-0.74,0.656-1.564-0.252-2.473l-0.875-0.875L530.261,300.433z"/>
	<path fill="#808184" d="M533.02,307.982c0.447-0.166,0.96-0.336,1.537-0.51l6.795-2.055l0.484,0.484l-9.367,2.747l-0.364-0.364
		l5.302-6.813l0.416,0.416l-3.452,4.42c-0.526,0.672-0.983,1.224-1.366,1.658L533.02,307.982z"/>
	<path fill="#808184" d="M535.411,311.59l7.342-4.772l0.406,0.406L535.821,312L535.411,311.59z"/>
	<path fill="#808184" d="M546.813,311.483c-0.544-0.544-1.174-0.885-1.889-1.022c-0.716-0.139-1.475-0.057-2.277,0.246
		c-0.803,0.302-1.537,0.785-2.203,1.451c-0.621,0.621-0.945,1.253-0.975,1.893c-0.029,0.639,0.242,1.244,0.814,1.816
		c0.387,0.387,0.877,0.736,1.471,1.049l-0.39,0.389c-0.565-0.295-1.07-0.664-1.513-1.106c-0.695-0.695-1.028-1.429-0.998-2.199
		c0.031-0.771,0.411-1.522,1.143-2.255c0.735-0.734,1.554-1.264,2.455-1.589c0.902-0.324,1.766-0.403,2.592-0.234
		s1.545,0.56,2.158,1.173c0.49,0.49,0.82,1.008,0.991,1.555l-0.56,0.186c-0.069-0.234-0.176-0.471-0.321-0.711
		C547.168,311.884,547.001,311.67,546.813,311.483z"/>
	<path fill="#808184" d="M545.355,321.535l-3.013-3.013l7.342-4.772l3.012,3.012l-0.476,0.303l-2.586-2.586l-2.776,1.807
		l2.445,2.445l-0.477,0.302l-2.437-2.437l-3.157,2.039l2.598,2.598L545.355,321.535z"/>
</g>
<rect x="286.852" y="27.337" fill="none" width="88.403" height="19.499"/>
<text transform="matrix(1 0 0 1 289.7939 46.3373)" fill="#999999" font-family="'OpenSans-Extrabold'" font-size="25">Sector</text>
</svg>
