<?xml version="1.0" encoding="utf-8"?>
<!-- Generator: Adobe Illustrator 17.0.0, SVG Export Plug-In . SVG Version: 6.00 Build 0)  -->
<!DOCTYPE svg PUBLIC "-//W3C//DTD SVG 1.1//EN" "http://www.w3.org/Graphics/SVG/1.1/DTD/svg11.dtd">
<svg version="1.1" id="Layer_1" xmlns="http://www.w3.org/2000/svg" xmlns:xlink="http://www.w3.org/1999/xlink" x="0px" y="0px"
	 width="640px" height="355.101px" viewBox="0 0 640 355.101" enable-background="new 0 0 640 355.101" xml:space="preserve">
<g>
	<g>
		
			<line fill="none" stroke="#808184" stroke-width="0.5" stroke-miterlimit="10" x1="85.806" y1="307.294" x2="563.257" y2="307.294"/>
		<g>
			<g>
				
					<line fill="none" stroke="#808184" stroke-width="0.5" stroke-miterlimit="10" x1="85.806" y1="307.294" x2="85.806" y2="302.168"/>
				<line fill="none" stroke="#000000" stroke-miterlimit="10" x1="563.257" y1="307.294" x2="563.257" y2="307.294"/>
			</g>
			<g>
			</g>
		</g>
	</g>
	<g>
		<g>
			<text transform="matrix(1 0 0 1 71.613 314.5013)" fill="#808184" font-family="'MyriadPro-Regular'" font-size="10">0</text>
			<text transform="matrix(1 0 0 1 71.613 280.3314)" fill="#808184" font-family="'MyriadPro-Regular'" font-size="10">2</text>
			<text transform="matrix(1 0 0 1 71.613 246.1615)" fill="#808184" font-family="'MyriadPro-Regular'" font-size="10">4</text>
			<text transform="matrix(1 0 0 1 71.613 211.9911)" fill="#808184" font-family="'MyriadPro-Regular'" font-size="10">6</text>
			<text transform="matrix(1 0 0 1 71.613 177.8211)" fill="#808184" font-family="'MyriadPro-Regular'" font-size="10">8</text>
			<text transform="matrix(1 0 0 1 66.4832 143.6507)" fill="#808184" font-family="'MyriadPro-Regular'" font-size="10">10</text>
			<text transform="matrix(1 0 0 1 66.4832 109.4808)" fill="#808184" font-family="'MyriadPro-Regular'" font-size="10">12</text>
		</g>
		
			<line fill="none" stroke="#808184" stroke-width="0.5" stroke-miterlimit="10" x1="85.806" y1="307.294" x2="85.806" y2="102.273"/>
		<g>
			<g>
				
					<line fill="none" stroke="#808184" stroke-width="0.5" stroke-miterlimit="10" x1="85.806" y1="307.294" x2="85.806" y2="307.294"/>
				
					<line fill="none" stroke="#808184" stroke-width="0.5" stroke-miterlimit="10" x1="85.806" y1="273.124" x2="100.307" y2="273.124"/>
				
					<line fill="none" stroke="#808184" stroke-width="0.5" stroke-miterlimit="10" x1="85.806" y1="238.954" x2="100.307" y2="238.954"/>
				
					<line fill="none" stroke="#808184" stroke-width="0.5" stroke-miterlimit="10" x1="85.806" y1="204.783" x2="100.307" y2="204.783"/>
				
					<line fill="none" stroke="#808184" stroke-width="0.5" stroke-miterlimit="10" x1="85.806" y1="170.613" x2="100.307" y2="170.613"/>
				
					<line fill="none" stroke="#808184" stroke-width="0.5" stroke-miterlimit="10" x1="85.806" y1="136.443" x2="100.307" y2="136.443"/>
				
					<line fill="none" stroke="#808184" stroke-width="0.5" stroke-miterlimit="10" x1="85.806" y1="102.273" x2="100.307" y2="102.273"/>
			</g>
			<g>
			</g>
		</g>
	</g>
	<g>
		<g>
			<g>
				<rect x="354.436" y="170.613" fill="#952E1F" width="208.821" height="136.68"/>
			</g>
		</g>
		<g>
			<g>
				<rect x="122.413" y="102.273" fill="#E49F9F" width="208.821" height="205.021"/>
			</g>
		</g>
	</g>
	<g>
		<g>
		</g>
		<g>
		</g>
	</g>
</g>
<g>
	<path fill="#808184" d="M216.864,331.383l5.727-9.82h1.172l-2.352,11.422h-0.789l1.492-7.039c0.411-1.922,0.672-3.086,0.781-3.492
		h-0.047l-6.094,10.531h-0.398l-1.734-10.531h-0.047c-0.104,0.802-0.308,1.911-0.609,3.328l-1.531,7.203h-0.75l2.414-11.422h1.117
		l1.602,9.82H216.864z"/>
	<path fill="#808184" d="M230.348,332.984h-5.68l2.422-11.422h5.68l-0.164,0.734h-4.875l-0.914,4.32h4.609l-0.164,0.734h-4.594
		l-1.055,4.898h4.898L230.348,332.984z"/>
	<path fill="#808184" d="M240.559,332.984h-0.672l-4.031-10.031h-0.063c-0.12,0.776-0.245,1.487-0.375,2.133
		s-0.688,3.278-1.672,7.898h-0.742l2.422-11.422h0.625l4.078,10.109h0.063c0.12-0.917,0.313-2,0.578-3.25l1.469-6.859h0.734
		L240.559,332.984z"/>
</g>
<g>
	<path fill="#808184" d="M440.359,322.507c-0.141,0.396-0.302,0.796-0.484,1.199c-0.183,0.404-1.648,3.496-4.398,9.277h-0.641
		l-0.57-11.422h0.781l0.367,8.055l0.031,1.289l-0.016,0.672h0.047c0.442-1.177,0.886-2.213,1.328-3.109l3.391-6.906h0.82
		l0.477,6.859c0.099,1.386,0.148,2.453,0.148,3.203h0.047c0.156-0.447,0.316-0.872,0.48-1.273c0.164-0.4,1.449-3.33,3.855-8.789
		h0.844c-0.88,1.901-1.741,3.805-2.582,5.711s-1.696,3.811-2.566,5.711h-0.609l-0.609-8.398c-0.058-0.739-0.086-1.31-0.086-1.711
		l0.008-0.367H440.359z"/>
	<path fill="#808184" d="M456.664,325.866c0,1.328-0.245,2.582-0.734,3.762s-1.146,2.061-1.969,2.641
		c-0.823,0.581-1.773,0.871-2.852,0.871c-1.302,0-2.305-0.388-3.008-1.164c-0.703-0.775-1.055-1.896-1.055-3.359
		c0-1.364,0.242-2.607,0.727-3.73c0.484-1.122,1.148-1.984,1.992-2.586s1.815-0.902,2.914-0.902c1.286,0,2.272,0.387,2.957,1.16
		S456.664,324.435,456.664,325.866z M452.57,322.132c-0.906,0-1.71,0.264-2.41,0.789c-0.7,0.526-1.259,1.303-1.676,2.328
		c-0.417,1.026-0.625,2.112-0.625,3.258c0,1.276,0.285,2.248,0.855,2.914c0.57,0.667,1.402,1,2.496,1c0.88,0,1.661-0.256,2.344-0.77
		c0.683-0.513,1.229-1.294,1.641-2.344c0.411-1.049,0.617-2.17,0.617-3.363c0-1.25-0.272-2.197-0.816-2.844
		C454.452,322.455,453.643,322.132,452.57,322.132z"/>
	<path fill="#808184" d="M463.172,331.382l5.727-9.82h1.172l-2.352,11.422h-0.789l1.492-7.039c0.411-1.922,0.672-3.086,0.781-3.492
		h-0.047l-6.094,10.531h-0.398l-1.734-10.531h-0.047c-0.104,0.803-0.308,1.912-0.609,3.328l-1.531,7.203h-0.75l2.414-11.422h1.117
		l1.602,9.82H463.172z"/>
	<path fill="#808184" d="M476.656,332.983h-5.68l2.422-11.422h5.68l-0.164,0.734h-4.875l-0.914,4.32h4.609l-0.164,0.734h-4.594
		l-1.055,4.898h4.898L476.656,332.983z"/>
	<path fill="#808184" d="M486.867,332.983h-0.672l-4.031-10.031h-0.063c-0.12,0.776-0.245,1.487-0.375,2.133
		c-0.13,0.646-0.688,3.279-1.672,7.898h-0.742l2.422-11.422h0.625l4.078,10.109h0.063c0.12-0.916,0.313-2,0.578-3.25l1.469-6.859
		h0.734L486.867,332.983z"/>
</g>
<g>
	<path fill="#808184" d="M223.645,88.926h-3.039l1.359-6.242c0.146-0.688,0.344-1.354,0.594-2c-0.406,0.354-0.747,0.623-1.023,0.805
		l-1.586,0.977l-1.18-1.969l4.844-2.992h2.43L223.645,88.926z"/>
	<path fill="#808184" d="M234.286,88.926h-7.852l0.414-2l3.773-3.406c1.292-1.151,1.938-2.091,1.938-2.82
		c0-0.255-0.067-0.446-0.203-0.574c-0.136-0.127-0.308-0.191-0.516-0.191c-0.625,0-1.356,0.383-2.195,1.148l-1.453-2.016
		c1.219-1.151,2.628-1.727,4.227-1.727c0.953,0,1.722,0.259,2.305,0.777c0.583,0.519,0.875,1.22,0.875,2.105
		c0,0.792-0.227,1.534-0.68,2.227c-0.453,0.693-1.229,1.513-2.328,2.461l-1.602,1.375v0.094h3.828L234.286,88.926z"/>
</g>
<g>
	<path fill="#808184" d="M461.844,143.588c1.042,0,1.864,0.241,2.469,0.723c0.604,0.482,0.906,1.111,0.906,1.887
		c0,0.667-0.202,1.262-0.605,1.785s-0.931,0.89-1.582,1.098c0.479,0.37,0.844,0.781,1.094,1.234s0.375,0.984,0.375,1.594
		c0,1.073-0.367,1.914-1.102,2.523s-1.742,0.914-3.023,0.914c-1.172,0-2.101-0.258-2.785-0.773s-1.027-1.19-1.027-2.023
		c0-1.567,0.864-2.656,2.594-3.266c-0.813-0.63-1.219-1.435-1.219-2.414c0-0.63,0.157-1.194,0.473-1.691
		c0.315-0.497,0.769-0.887,1.359-1.168S461.052,143.588,461.844,143.588z M460.743,150.439c-0.886,0.469-1.328,1.05-1.328,1.742
		c0,0.281,0.095,0.512,0.285,0.691s0.441,0.27,0.754,0.27c0.364,0,0.657-0.109,0.879-0.328s0.332-0.505,0.332-0.859
		C461.665,151.356,461.357,150.851,460.743,150.439z M461.704,145.799c-0.25,0-0.468,0.103-0.652,0.309
		c-0.185,0.206-0.277,0.46-0.277,0.762c0,0.198,0.062,0.398,0.184,0.602s0.285,0.354,0.488,0.453
		c0.302-0.114,0.543-0.299,0.723-0.555c0.18-0.255,0.27-0.523,0.27-0.805c0-0.255-0.074-0.446-0.223-0.574
		C462.067,145.863,461.896,145.799,461.704,145.799z"/>
</g>
<rect x="294" y="27.337" fill="none" width="95.306" height="19.499"/>
<text transform="matrix(1 0 0 1 294.6677 46.3373)" fill="#999999" font-family="'OpenSans-Extrabold'" font-size="25">Gender</text>
</svg>
