<?xml version="1.0" encoding="utf-8"?>
<!-- Generator: Adobe Illustrator 17.0.0, SVG Export Plug-In . SVG Version: 6.00 Build 0)  -->
<!DOCTYPE svg PUBLIC "-//W3C//DTD SVG 1.1//EN" "http://www.w3.org/Graphics/SVG/1.1/DTD/svg11.dtd">
<svg version="1.1" id="Layer_1" xmlns="http://www.w3.org/2000/svg" xmlns:xlink="http://www.w3.org/1999/xlink" x="0px" y="0px"
	 width="640px" height="355.101px" viewBox="0 0 640 355.101" enable-background="new 0 0 640 355.101" xml:space="preserve">
<rect x="217.171" y="27.337" fill="none" width="241.119" height="19.499"/>
<text transform="matrix(1 0 0 1 313.353 46.3373)" fill="#999999" font-family="'OpenSans-Extrabold'" font-size="25">Age</text>
<g>
	<g>
		
			<line fill="none" stroke="#808184" stroke-width="0.5" stroke-miterlimit="10" x1="82.658" y1="304.872" x2="563.976" y2="304.872"/>
		<g>
			<g>
				
					<line fill="none" stroke="#808184" stroke-width="0.5" stroke-miterlimit="10" x1="82.658" y1="304.872" x2="82.658" y2="299.746"/>
				<line fill="none" stroke="#000000" stroke-miterlimit="10" x1="566.406" y1="304.597" x2="566.406" y2="304.597"/>
			</g>
			<g>
			</g>
		</g>
	</g>
	<g>
		<g>
			<text transform="matrix(1 0 0 1 68.4646 312.0792)" fill="#808184" font-family="'MyriadPro-Regular'" font-size="10">0</text>
			<text transform="matrix(1 0 0 1 68.4646 271.0753)" fill="#808184" font-family="'MyriadPro-Regular'" font-size="10">1</text>
			<text transform="matrix(1 0 0 1 68.4646 230.0709)" fill="#808184" font-family="'MyriadPro-Regular'" font-size="10">2</text>
			<text transform="matrix(1 0 0 1 68.4646 189.067)" fill="#808184" font-family="'MyriadPro-Regular'" font-size="10">3</text>
			<text transform="matrix(1 0 0 1 68.4646 148.063)" fill="#808184" font-family="'MyriadPro-Regular'" font-size="10">4</text>
			<text transform="matrix(1 0 0 1 68.4646 107.0586)" fill="#808184" font-family="'MyriadPro-Regular'" font-size="10">5</text>
		</g>
		
			<line fill="none" stroke="#808184" stroke-width="0.5" stroke-miterlimit="10" x1="82.658" y1="304.872" x2="82.658" y2="99.851"/>
		<g>
			<g>
				
					<line fill="none" stroke="#808184" stroke-width="0.5" stroke-miterlimit="10" x1="82.658" y1="304.872" x2="82.658" y2="304.872"/>
				
					<line fill="none" stroke="#808184" stroke-width="0.5" stroke-miterlimit="10" x1="82.658" y1="263.868" x2="97.159" y2="263.868"/>
				
					<line fill="none" stroke="#808184" stroke-width="0.5" stroke-miterlimit="10" x1="82.658" y1="222.863" x2="97.159" y2="222.863"/>
				
					<line fill="none" stroke="#808184" stroke-width="0.5" stroke-miterlimit="10" x1="82.658" y1="181.859" x2="97.159" y2="181.859"/>
				
					<line fill="none" stroke="#808184" stroke-width="0.5" stroke-miterlimit="10" x1="82.658" y1="140.855" x2="97.159" y2="140.855"/>
				
					<line fill="none" stroke="#808184" stroke-width="0.5" stroke-miterlimit="10" x1="82.658" y1="99.851" x2="97.159" y2="99.851"/>
			</g>
			<g>
			</g>
		</g>
	</g>
	<g>
		<g>
			<g>
				<rect x="424.762" y="181.859" fill="#664747" width="139.214" height="123.012"/>
			</g>
		</g>
		<g>
			<g>
				<rect x="270.08" y="99.851" fill="#E49F9F" width="139.214" height="205.021"/>
			</g>
		</g>
		<g>
			<g>
				<rect x="115.398" y="181.859" fill="#952E1F" width="139.214" height="123.012"/>
			</g>
		</g>
	</g>
	<g>
		<g>
		</g>
		<g>
		</g>
		<g>
		</g>
	</g>
</g>
<g>
	<path fill="#808184" d="M136.028,326.48h-6.373l0.162-0.762l3.288-2.945c0.967-0.863,1.66-1.539,2.08-2.025
		c0.42-0.484,0.729-0.94,0.927-1.365c0.197-0.425,0.297-0.864,0.297-1.318c0-0.547-0.162-0.981-0.484-1.304
		s-0.803-0.483-1.442-0.483c-0.859,0-1.673,0.314-2.438,0.945l-0.396-0.535c0.879-0.713,1.841-1.069,2.887-1.069
		c0.844,0,1.5,0.208,1.966,0.622c0.467,0.416,0.7,0.994,0.7,1.736c0,0.537-0.106,1.047-0.319,1.527
		c-0.212,0.48-0.558,0.997-1.036,1.549s-1.238,1.291-2.277,2.219l-2.806,2.477v0.029h5.391L136.028,326.48z"/>
	<path fill="#808184" d="M145.505,319.039c0,0.98-0.1,1.97-0.3,2.966s-0.484,1.841-0.854,2.534
		c-0.368,0.693-0.816,1.215-1.344,1.564c-0.527,0.349-1.118,0.523-1.772,0.523c-0.859,0-1.505-0.309-1.938-0.928
		c-0.432-0.617-0.648-1.563-0.648-2.838c0-0.908,0.109-1.839,0.326-2.793c0.218-0.955,0.521-1.771,0.908-2.447
		c0.389-0.676,0.845-1.182,1.37-1.516c0.524-0.334,1.111-0.502,1.761-0.502C144.675,315.603,145.505,316.748,145.505,319.039z
		 M142.927,316.248c-0.654,0-1.243,0.275-1.769,0.828c-0.524,0.551-0.948,1.354-1.271,2.409s-0.483,2.155-0.483,3.304
		c0,1.084,0.152,1.887,0.458,2.409c0.305,0.522,0.787,0.784,1.446,0.784c0.679,0,1.274-0.273,1.787-0.82s0.918-1.37,1.216-2.469
		s0.447-2.293,0.447-3.582c0-0.971-0.146-1.691-0.437-2.16C144.032,316.482,143.566,316.248,142.927,316.248z"/>
	<path fill="#808184" d="M146.494,322.802l0.132-0.658h3.348l-0.117,0.658H146.494z"/>
	<path fill="#808184" d="M157.158,326.48h-6.373l0.162-0.762l3.288-2.945c0.967-0.863,1.66-1.539,2.08-2.025
		c0.42-0.484,0.729-0.94,0.927-1.365c0.197-0.425,0.297-0.864,0.297-1.318c0-0.547-0.162-0.981-0.484-1.304
		s-0.803-0.483-1.442-0.483c-0.859,0-1.673,0.314-2.438,0.945l-0.396-0.535c0.879-0.713,1.841-1.069,2.887-1.069
		c0.844,0,1.5,0.208,1.966,0.622c0.467,0.416,0.7,0.994,0.7,1.736c0,0.537-0.106,1.047-0.319,1.527
		c-0.212,0.48-0.558,0.997-1.036,1.549s-1.238,1.291-2.277,2.219l-2.806,2.477v0.029h5.391L157.158,326.48z"/>
	<path fill="#808184" d="M166.517,318.921c0,1.406-0.247,2.744-0.743,4.014c-0.495,1.27-1.139,2.201-1.93,2.797
		s-1.751,0.895-2.878,0.895c-0.557,0-1.012-0.055-1.363-0.162v-0.658c0.426,0.141,0.895,0.212,1.406,0.212
		c2.314,0,3.846-1.646,4.593-4.937h-0.059c-0.684,0.938-1.58,1.406-2.688,1.406c-0.791,0-1.413-0.256-1.867-0.77
		c-0.454-0.512-0.682-1.205-0.682-2.08c0-0.756,0.146-1.442,0.437-2.058c0.29-0.615,0.706-1.094,1.249-1.436
		c0.541-0.342,1.169-0.513,1.882-0.513c0.85,0,1.503,0.281,1.959,0.846C166.29,317.042,166.517,317.857,166.517,318.921z
		 M163.786,316.277c-0.547,0-1.029,0.143-1.446,0.428c-0.418,0.287-0.736,0.684-0.956,1.191s-0.329,1.068-0.329,1.684
		c0,0.709,0.164,1.258,0.494,1.648c0.329,0.391,0.799,0.586,1.41,0.586c0.404,0,0.789-0.079,1.153-0.238
		c0.363-0.158,0.679-0.372,0.944-0.641c0.267-0.269,0.453-0.547,0.561-0.835s0.161-0.718,0.161-1.289
		c0-0.811-0.174-1.436-0.521-1.875S164.421,316.277,163.786,316.277z"/>
	<path fill="#808184" d="M174.538,321.755l3.984-5.984h0.856l-4.621,6.826l-0.791,3.883h-0.77l0.872-3.992l-1.735-6.717h0.732
		L174.538,321.755z"/>
	<path fill="#808184" d="M184.06,326.48h-5.325l2.271-10.709h5.324l-0.153,0.689h-4.57l-0.856,4.05h4.32l-0.153,0.688h-4.307
		l-0.989,4.592h4.593L184.06,326.48z"/>
	<path fill="#808184" d="M191.699,322.671h-3.75l-2.103,3.809h-0.856l6.02-10.752h0.491l1.472,10.752h-0.769L191.699,322.671z
		 M191.611,321.998l-0.286-2.132c-0.151-1.182-0.247-2.163-0.286-2.944c-0.146,0.308-0.304,0.625-0.472,0.952
		c-0.169,0.327-0.917,1.702-2.245,4.124H191.611z"/>
	<path fill="#808184" d="M196.019,321.843l-0.959,4.637h-0.755l2.271-10.709h2.219c2.1,0,3.15,0.879,3.15,2.637
		c0,0.889-0.253,1.629-0.759,2.22c-0.505,0.591-1.192,0.962-2.062,1.113c0.981,2.886,1.521,4.466,1.619,4.739h-0.813l-1.546-4.637
		H196.019z M196.18,321.169h1.846c1.016,0,1.789-0.232,2.321-0.699s0.799-1.154,0.799-2.063c0-1.309-0.804-1.963-2.41-1.963h-1.545
		L196.18,321.169z"/>
	<path fill="#808184" d="M208.5,323.528c0,0.615-0.159,1.163-0.479,1.644c-0.319,0.482-0.758,0.844-1.314,1.088
		s-1.214,0.367-1.97,0.367c-0.431,0-0.852-0.042-1.264-0.125c-0.413-0.083-0.832-0.225-1.256-0.425v-0.798
		c0.795,0.449,1.645,0.674,2.549,0.674c0.917,0,1.639-0.211,2.164-0.635c0.524-0.422,0.787-0.989,0.787-1.702
		c0-0.298-0.042-0.554-0.125-0.765c-0.083-0.213-0.211-0.404-0.384-0.576c-0.174-0.17-0.396-0.336-0.667-0.498
		c-0.271-0.16-0.592-0.344-0.963-0.549c-0.732-0.371-1.244-0.771-1.534-1.201c-0.291-0.43-0.437-0.933-0.437-1.509
		s0.145-1.083,0.433-1.521c0.288-0.436,0.69-0.775,1.208-1.018s1.097-0.362,1.736-0.362c0.483,0,0.923,0.043,1.318,0.128
		c0.396,0.086,0.806,0.233,1.23,0.443l-0.234,0.688c-0.322-0.195-0.692-0.349-1.109-0.462c-0.418-0.111-0.819-0.168-1.205-0.168
		c-0.796,0-1.43,0.201-1.9,0.604c-0.472,0.404-0.707,0.938-0.707,1.602c0,0.502,0.119,0.918,0.359,1.244
		c0.238,0.328,0.683,0.652,1.332,0.975c0.752,0.386,1.273,0.703,1.564,0.952c0.29,0.249,0.508,0.524,0.651,0.827
		C208.428,322.753,208.5,323.113,208.5,323.528z"/>
	<path fill="#808184" d="M223.588,319.807c0,1.245-0.229,2.421-0.688,3.526c-0.46,1.105-1.075,1.932-1.846,2.477
		c-0.772,0.544-1.663,0.816-2.674,0.816c-1.221,0-2.16-0.364-2.82-1.092c-0.658-0.728-0.988-1.777-0.988-3.149
		c0-1.279,0.227-2.444,0.682-3.497c0.453-1.053,1.076-1.861,1.867-2.424c0.791-0.564,1.701-0.847,2.732-0.847
		c1.205,0,2.13,0.362,2.771,1.087C223.267,317.431,223.588,318.464,223.588,319.807z M219.75,316.306
		c-0.85,0-1.603,0.246-2.259,0.74c-0.657,0.492-1.181,1.221-1.571,2.182c-0.391,0.963-0.586,1.98-0.586,3.055
		c0,1.196,0.268,2.107,0.802,2.732c0.535,0.625,1.315,0.938,2.341,0.938c0.824,0,1.557-0.24,2.197-0.723
		c0.639-0.48,1.151-1.213,1.537-2.197c0.386-0.982,0.579-2.034,0.579-3.152c0-1.172-0.255-2.061-0.766-2.666
		C221.514,316.609,220.756,316.306,219.75,316.306z"/>
	<path fill="#808184" d="M224.782,326.48l2.271-10.709h0.747l-2.116,10.006h4.548l-0.169,0.703H224.782z"/>
	<path fill="#808184" d="M240.339,320.042c0,1.235-0.268,2.362-0.802,3.38c-0.535,1.018-1.269,1.783-2.201,2.293
		s-2.021,0.766-3.267,0.766h-2.417l2.271-10.709h2.234c1.377,0,2.418,0.361,3.123,1.08
		C239.986,317.572,240.339,318.635,240.339,320.042z M234.054,325.82c1.104,0,2.066-0.23,2.89-0.691
		c0.822-0.461,1.46-1.135,1.911-2.018c0.452-0.885,0.678-1.891,0.678-3.018c0-2.432-1.162-3.648-3.486-3.648h-1.509l-2.014,9.375
		H234.054z"/>
</g>
<g>
	<path fill="#808184" d="M292.252,317.88c0,0.791-0.26,1.463-0.777,2.015s-1.215,0.901-2.094,1.048v0.029
		c0.57,0.117,1.023,0.398,1.358,0.846c0.334,0.447,0.501,1,0.501,1.658c0,0.654-0.156,1.224-0.469,1.707s-0.75,0.845-1.314,1.084
		c-0.563,0.239-1.234,0.359-2.01,0.359c-0.469,0-0.92-0.051-1.352-0.15c-0.433-0.1-0.808-0.229-1.125-0.385v-0.74
		c0.84,0.42,1.68,0.631,2.52,0.631c0.962,0,1.703-0.219,2.224-0.656c0.52-0.437,0.78-1.053,0.78-1.85
		c0-0.707-0.218-1.252-0.652-1.633s-1.038-0.571-1.809-0.571h-0.857l0.154-0.703h0.805c1.021,0,1.834-0.233,2.439-0.7
		c0.605-0.465,0.908-1.097,0.908-1.893c0-0.557-0.155-0.984-0.465-1.281c-0.311-0.299-0.771-0.447-1.381-0.447
		c-0.815,0-1.655,0.32-2.52,0.959l-0.359-0.549c0.41-0.327,0.869-0.582,1.377-0.766s1.041-0.274,1.598-0.274
		c0.785,0,1.402,0.202,1.849,0.604C292.028,316.625,292.252,317.177,292.252,317.88z"/>
	<path fill="#808184" d="M300.703,319.039c0,0.98-0.1,1.97-0.3,2.966s-0.484,1.841-0.854,2.534
		c-0.368,0.693-0.816,1.215-1.344,1.564c-0.527,0.349-1.118,0.523-1.772,0.523c-0.859,0-1.505-0.309-1.938-0.928
		c-0.432-0.617-0.648-1.563-0.648-2.838c0-0.908,0.109-1.839,0.326-2.793c0.218-0.955,0.521-1.771,0.908-2.447
		c0.389-0.676,0.845-1.182,1.37-1.516c0.524-0.334,1.111-0.502,1.761-0.502C299.873,315.603,300.703,316.748,300.703,319.039z
		 M298.125,316.248c-0.654,0-1.243,0.275-1.769,0.828c-0.524,0.551-0.948,1.354-1.271,2.409s-0.483,2.155-0.483,3.304
		c0,1.084,0.152,1.887,0.458,2.409c0.305,0.522,0.787,0.784,1.446,0.784c0.679,0,1.274-0.273,1.787-0.82s0.918-1.37,1.216-2.469
		s0.447-2.293,0.447-3.582c0-0.971-0.146-1.691-0.437-2.16C299.23,316.482,298.764,316.248,298.125,316.248z"/>
	<path fill="#808184" d="M301.692,322.802l0.132-0.658h3.348l-0.117,0.658H301.692z"/>
	<path fill="#808184" d="M313.542,323.762h-1.934l-0.586,2.718h-0.703l0.586-2.718h-5.039l0.146-0.703l6.453-7.397h0.864
		l-1.575,7.456h1.941L313.542,323.762z M311.038,323.118c0.385-1.802,0.676-3.165,0.871-4.091c0.195-0.925,0.405-1.791,0.63-2.596
		h-0.029c-0.322,0.443-0.638,0.85-0.944,1.215l-4.769,5.472H311.038z"/>
	<path fill="#808184" d="M321.833,319.039c0,0.98-0.1,1.97-0.3,2.966s-0.484,1.841-0.854,2.534
		c-0.368,0.693-0.816,1.215-1.344,1.564c-0.527,0.349-1.118,0.523-1.772,0.523c-0.859,0-1.505-0.309-1.938-0.928
		c-0.432-0.617-0.648-1.563-0.648-2.838c0-0.908,0.109-1.839,0.326-2.793c0.218-0.955,0.521-1.771,0.908-2.447
		c0.389-0.676,0.845-1.182,1.37-1.516c0.524-0.334,1.111-0.502,1.761-0.502C321.003,315.603,321.833,316.748,321.833,319.039z
		 M319.255,316.248c-0.654,0-1.243,0.275-1.769,0.828c-0.524,0.551-0.948,1.354-1.271,2.409s-0.483,2.155-0.483,3.304
		c0,1.084,0.152,1.887,0.458,2.409c0.305,0.522,0.787,0.784,1.446,0.784c0.679,0,1.274-0.273,1.787-0.82s0.918-1.37,1.216-2.469
		s0.447-2.293,0.447-3.582c0-0.971-0.146-1.691-0.437-2.16C320.36,316.482,319.894,316.248,319.255,316.248z"/>
	<path fill="#808184" d="M329.736,321.755l3.984-5.984h0.856l-4.621,6.826l-0.791,3.883h-0.77l0.872-3.992l-1.735-6.717h0.732
		L329.736,321.755z"/>
	<path fill="#808184" d="M339.259,326.48h-5.325l2.271-10.709h5.324l-0.153,0.689h-4.57l-0.856,4.05h4.32l-0.153,0.688h-4.307
		l-0.989,4.592h4.593L339.259,326.48z"/>
	<path fill="#808184" d="M346.897,322.671h-3.75l-2.103,3.809h-0.856l6.02-10.752h0.491l1.472,10.752h-0.769L346.897,322.671z
		 M346.809,321.998l-0.286-2.132c-0.151-1.182-0.247-2.163-0.286-2.944c-0.146,0.308-0.304,0.625-0.472,0.952
		c-0.169,0.327-0.917,1.702-2.245,4.124H346.809z"/>
	<path fill="#808184" d="M351.218,321.843l-0.959,4.637h-0.755l2.271-10.709h2.219c2.1,0,3.15,0.879,3.15,2.637
		c0,0.889-0.253,1.629-0.759,2.22c-0.505,0.591-1.192,0.962-2.062,1.113c0.981,2.886,1.521,4.466,1.619,4.739h-0.813l-1.546-4.637
		H351.218z M351.379,321.169h1.846c1.016,0,1.789-0.232,2.321-0.699s0.799-1.154,0.799-2.063c0-1.309-0.804-1.963-2.41-1.963h-1.545
		L351.379,321.169z"/>
	<path fill="#808184" d="M363.698,323.528c0,0.615-0.159,1.163-0.479,1.644c-0.319,0.482-0.758,0.844-1.314,1.088
		s-1.214,0.367-1.97,0.367c-0.431,0-0.852-0.042-1.264-0.125c-0.413-0.083-0.832-0.225-1.256-0.425v-0.798
		c0.795,0.449,1.645,0.674,2.549,0.674c0.917,0,1.639-0.211,2.164-0.635c0.524-0.422,0.787-0.989,0.787-1.702
		c0-0.298-0.042-0.554-0.125-0.765c-0.083-0.213-0.211-0.404-0.384-0.576c-0.174-0.17-0.396-0.336-0.667-0.498
		c-0.271-0.16-0.592-0.344-0.963-0.549c-0.732-0.371-1.244-0.771-1.534-1.201c-0.291-0.43-0.437-0.933-0.437-1.509
		s0.145-1.083,0.433-1.521c0.288-0.436,0.69-0.775,1.208-1.018s1.097-0.362,1.736-0.362c0.483,0,0.923,0.043,1.318,0.128
		c0.396,0.086,0.806,0.233,1.23,0.443l-0.234,0.688c-0.322-0.195-0.692-0.349-1.109-0.462c-0.418-0.111-0.819-0.168-1.205-0.168
		c-0.796,0-1.43,0.201-1.9,0.604c-0.472,0.404-0.707,0.938-0.707,1.602c0,0.502,0.119,0.918,0.359,1.244
		c0.238,0.328,0.683,0.652,1.332,0.975c0.752,0.386,1.273,0.703,1.564,0.952c0.29,0.249,0.508,0.524,0.651,0.827
		C363.627,322.753,363.698,323.113,363.698,323.528z"/>
	<path fill="#808184" d="M378.786,319.807c0,1.245-0.229,2.421-0.688,3.526c-0.46,1.105-1.075,1.932-1.846,2.477
		c-0.772,0.544-1.663,0.816-2.674,0.816c-1.221,0-2.16-0.364-2.82-1.092c-0.658-0.728-0.988-1.777-0.988-3.149
		c0-1.279,0.227-2.444,0.682-3.497c0.453-1.053,1.076-1.861,1.867-2.424c0.791-0.564,1.701-0.847,2.732-0.847
		c1.205,0,2.13,0.362,2.771,1.087C378.466,317.431,378.786,318.464,378.786,319.807z M374.948,316.306
		c-0.85,0-1.603,0.246-2.259,0.74c-0.657,0.492-1.181,1.221-1.571,2.182c-0.391,0.963-0.586,1.98-0.586,3.055
		c0,1.196,0.268,2.107,0.802,2.732c0.535,0.625,1.315,0.938,2.341,0.938c0.824,0,1.557-0.24,2.197-0.723
		c0.639-0.48,1.151-1.213,1.537-2.197c0.386-0.982,0.579-2.034,0.579-3.152c0-1.172-0.255-2.061-0.766-2.666
		C376.713,316.609,375.954,316.306,374.948,316.306z"/>
	<path fill="#808184" d="M379.98,326.48l2.271-10.709h0.747l-2.116,10.006h4.548l-0.169,0.703H379.98z"/>
	<path fill="#808184" d="M395.537,320.042c0,1.235-0.268,2.362-0.802,3.38c-0.535,1.018-1.269,1.783-2.201,2.293
		s-2.021,0.766-3.267,0.766h-2.417l2.271-10.709h2.234c1.377,0,2.418,0.361,3.123,1.08
		C395.184,317.572,395.537,318.635,395.537,320.042z M389.253,325.82c1.104,0,2.066-0.23,2.89-0.691
		c0.822-0.461,1.46-1.135,1.911-2.018c0.452-0.885,0.678-1.891,0.678-3.018c0-2.432-1.162-3.648-3.486-3.648h-1.509l-2.014,9.375
		H389.253z"/>
</g>
<g>
	<path fill="#808184" d="M453.383,323.762h-1.934l-0.586,2.718h-0.703l0.586-2.718h-5.039l0.146-0.703l6.453-7.397h0.864
		l-1.575,7.456h1.941L453.383,323.762z M450.879,323.118c0.385-1.802,0.676-3.165,0.871-4.091c0.195-0.925,0.405-1.791,0.63-2.596
		h-0.029c-0.322,0.443-0.638,0.85-0.944,1.215l-4.769,5.472H450.879z"/>
	<path fill="#808184" d="M461.674,319.039c0,0.98-0.1,1.97-0.3,2.966s-0.484,1.841-0.854,2.534
		c-0.368,0.693-0.816,1.215-1.344,1.564c-0.527,0.349-1.118,0.523-1.772,0.523c-0.859,0-1.505-0.309-1.938-0.928
		c-0.432-0.617-0.648-1.563-0.648-2.838c0-0.908,0.109-1.839,0.326-2.793c0.218-0.955,0.521-1.771,0.908-2.447
		c0.389-0.676,0.845-1.182,1.37-1.516c0.524-0.334,1.111-0.502,1.761-0.502C460.844,315.603,461.674,316.748,461.674,319.039z
		 M459.095,316.248c-0.654,0-1.243,0.275-1.769,0.828c-0.524,0.551-0.948,1.354-1.271,2.409s-0.483,2.155-0.483,3.304
		c0,1.084,0.152,1.887,0.458,2.409c0.305,0.522,0.787,0.784,1.446,0.784c0.679,0,1.274-0.273,1.787-0.82s0.918-1.37,1.216-2.469
		s0.447-2.293,0.447-3.582c0-0.971-0.146-1.691-0.437-2.16C460.201,316.482,459.735,316.248,459.095,316.248z"/>
	<path fill="#808184" d="M466.185,321.558h-2.937v-0.732h2.937v-2.959h0.74v2.959h2.938v0.732h-2.938v2.93h-0.74V321.558z"/>
	<path fill="#808184" d="M477.839,321.755l3.984-5.984h0.856l-4.621,6.826l-0.791,3.883h-0.77l0.872-3.992l-1.735-6.717h0.732
		L477.839,321.755z"/>
	<path fill="#808184" d="M487.361,326.48h-5.325l2.271-10.709h5.324l-0.153,0.689h-4.57l-0.856,4.05h4.32l-0.153,0.688h-4.307
		l-0.989,4.592h4.593L487.361,326.48z"/>
	<path fill="#808184" d="M495,322.671h-3.75l-2.103,3.809h-0.856l6.02-10.752h0.491l1.472,10.752h-0.769L495,322.671z
		 M494.912,321.998l-0.286-2.132c-0.151-1.182-0.247-2.163-0.286-2.944c-0.146,0.308-0.304,0.625-0.472,0.952
		c-0.169,0.327-0.917,1.702-2.245,4.124H494.912z"/>
	<path fill="#808184" d="M499.32,321.843l-0.959,4.637h-0.755l2.271-10.709h2.219c2.1,0,3.15,0.879,3.15,2.637
		c0,0.889-0.253,1.629-0.759,2.22c-0.505,0.591-1.192,0.962-2.062,1.113c0.981,2.886,1.521,4.466,1.619,4.739h-0.813l-1.546-4.637
		H499.32z M499.481,321.169h1.846c1.016,0,1.789-0.232,2.321-0.699s0.799-1.154,0.799-2.063c0-1.309-0.804-1.963-2.41-1.963h-1.545
		L499.481,321.169z"/>
	<path fill="#808184" d="M511.801,323.528c0,0.615-0.159,1.163-0.479,1.644c-0.319,0.482-0.758,0.844-1.314,1.088
		s-1.214,0.367-1.97,0.367c-0.431,0-0.852-0.042-1.264-0.125c-0.413-0.083-0.832-0.225-1.256-0.425v-0.798
		c0.795,0.449,1.645,0.674,2.549,0.674c0.917,0,1.639-0.211,2.164-0.635c0.524-0.422,0.787-0.989,0.787-1.702
		c0-0.298-0.042-0.554-0.125-0.765c-0.083-0.213-0.211-0.404-0.384-0.576c-0.174-0.17-0.396-0.336-0.667-0.498
		c-0.271-0.16-0.592-0.344-0.963-0.549c-0.732-0.371-1.244-0.771-1.534-1.201c-0.291-0.43-0.437-0.933-0.437-1.509
		s0.145-1.083,0.433-1.521c0.288-0.436,0.69-0.775,1.208-1.018s1.097-0.362,1.736-0.362c0.483,0,0.923,0.043,1.318,0.128
		c0.396,0.086,0.806,0.233,1.23,0.443l-0.234,0.688c-0.322-0.195-0.692-0.349-1.109-0.462c-0.418-0.111-0.819-0.168-1.205-0.168
		c-0.796,0-1.43,0.201-1.9,0.604c-0.472,0.404-0.707,0.938-0.707,1.602c0,0.502,0.119,0.918,0.359,1.244
		c0.238,0.328,0.683,0.652,1.332,0.975c0.752,0.386,1.273,0.703,1.564,0.952c0.29,0.249,0.508,0.524,0.651,0.827
		C511.729,322.753,511.801,323.113,511.801,323.528z"/>
	<path fill="#808184" d="M526.888,319.807c0,1.245-0.229,2.421-0.688,3.526c-0.46,1.105-1.075,1.932-1.846,2.477
		c-0.772,0.544-1.663,0.816-2.674,0.816c-1.221,0-2.16-0.364-2.82-1.092c-0.658-0.728-0.988-1.777-0.988-3.149
		c0-1.279,0.227-2.444,0.682-3.497c0.453-1.053,1.076-1.861,1.867-2.424c0.791-0.564,1.701-0.847,2.732-0.847
		c1.205,0,2.13,0.362,2.771,1.087C526.568,317.431,526.888,318.464,526.888,319.807z M523.051,316.306
		c-0.85,0-1.603,0.246-2.259,0.74c-0.657,0.492-1.181,1.221-1.571,2.182c-0.391,0.963-0.586,1.98-0.586,3.055
		c0,1.196,0.268,2.107,0.802,2.732c0.535,0.625,1.315,0.938,2.341,0.938c0.824,0,1.557-0.24,2.197-0.723
		c0.639-0.48,1.151-1.213,1.537-2.197c0.386-0.982,0.579-2.034,0.579-3.152c0-1.172-0.255-2.061-0.766-2.666
		C524.815,316.609,524.056,316.306,523.051,316.306z"/>
	<path fill="#808184" d="M528.083,326.48l2.271-10.709h0.747l-2.116,10.006h4.548l-0.169,0.703H528.083z"/>
	<path fill="#808184" d="M543.639,320.042c0,1.235-0.268,2.362-0.802,3.38c-0.535,1.018-1.269,1.783-2.201,2.293
		s-2.021,0.766-3.267,0.766h-2.417l2.271-10.709h2.234c1.377,0,2.418,0.361,3.123,1.08
		C543.287,317.572,543.639,318.635,543.639,320.042z M537.355,325.82c1.104,0,2.066-0.23,2.89-0.691
		c0.822-0.461,1.46-1.135,1.911-2.018c0.452-0.885,0.678-1.891,0.678-3.018c0-2.432-1.162-3.648-3.486-3.648h-1.509l-2.014,9.375
		H537.355z"/>
</g>
<g>
	<path fill="#808184" d="M189.238,161.093c0,0.771-0.233,1.409-0.699,1.914c-0.466,0.505-1.124,0.844-1.973,1.016v0.063
		c0.672,0.13,1.198,0.421,1.578,0.871c0.38,0.451,0.57,1.004,0.57,1.66c0,1.125-0.464,1.992-1.391,2.602s-2.183,0.914-3.766,0.914
		c-0.604,0-1.171-0.054-1.699-0.16s-0.965-0.259-1.309-0.457v-2.594c0.87,0.521,1.852,0.781,2.945,0.781
		c0.719,0,1.257-0.121,1.613-0.363s0.535-0.59,0.535-1.043c0-0.281-0.07-0.492-0.211-0.633s-0.364-0.243-0.672-0.309
		c-0.308-0.065-0.739-0.098-1.297-0.098h-0.656l0.414-2.273h0.609c0.766,0,1.362-0.121,1.789-0.363s0.641-0.574,0.641-0.996
		c0-0.239-0.094-0.432-0.281-0.578c-0.188-0.146-0.445-0.219-0.773-0.219c-0.609,0-1.313,0.219-2.109,0.656l-1.234-1.938
		c0.656-0.422,1.29-0.72,1.902-0.895c0.612-0.174,1.285-0.262,2.02-0.262c1.047,0,1.884,0.242,2.512,0.727
		S189.238,160.26,189.238,161.093z"/>
</g>
<g>
	<path fill="#808184" d="M331.921,87.635h-3.039l1.359-6.242c0.146-0.688,0.344-1.354,0.594-2c-0.406,0.354-0.747,0.623-1.023,0.805
		l-1.586,0.977l-1.18-1.969l4.844-2.992h2.43L331.921,87.635z"/>
	<path fill="#808184" d="M340.272,80.151c0.942,0,1.707,0.306,2.293,0.918c0.586,0.612,0.879,1.437,0.879,2.473
		c0,1.359-0.419,2.408-1.258,3.145c-0.839,0.737-2.052,1.105-3.641,1.105c-0.672,0-1.309-0.058-1.91-0.172s-1.043-0.273-1.324-0.477
		v-2.531c0.411,0.234,0.883,0.418,1.414,0.551s1.011,0.199,1.438,0.199c1.442,0,2.164-0.5,2.164-1.5
		c0-0.396-0.132-0.716-0.395-0.961c-0.263-0.245-0.618-0.367-1.066-0.367c-0.276,0-0.565,0.026-0.867,0.078
		c-0.302,0.052-0.542,0.109-0.719,0.172l-0.953-0.719l1.68-5.852h6.352l-0.531,2.523h-3.68l-0.461,1.445
		C339.869,80.162,340.064,80.151,340.272,80.151z"/>
</g>
<g>
	<path fill="#808184" d="M498.972,161.093c0,0.771-0.233,1.409-0.699,1.914c-0.466,0.505-1.124,0.844-1.973,1.016v0.063
		c0.672,0.13,1.198,0.421,1.578,0.871c0.38,0.451,0.57,1.004,0.57,1.66c0,1.125-0.464,1.992-1.391,2.602s-2.183,0.914-3.766,0.914
		c-0.604,0-1.171-0.054-1.699-0.16s-0.965-0.259-1.309-0.457v-2.594c0.87,0.521,1.852,0.781,2.945,0.781
		c0.719,0,1.257-0.121,1.613-0.363s0.535-0.59,0.535-1.043c0-0.281-0.07-0.492-0.211-0.633s-0.364-0.243-0.672-0.309
		c-0.308-0.065-0.739-0.098-1.297-0.098h-0.656l0.414-2.273h0.609c0.766,0,1.362-0.121,1.789-0.363s0.641-0.574,0.641-0.996
		c0-0.239-0.094-0.432-0.281-0.578c-0.188-0.146-0.445-0.219-0.773-0.219c-0.609,0-1.313,0.219-2.109,0.656l-1.234-1.938
		c0.656-0.422,1.29-0.72,1.902-0.895c0.612-0.174,1.285-0.262,2.02-0.262c1.047,0,1.884,0.242,2.512,0.727
		S498.972,160.26,498.972,161.093z"/>
</g>
</svg>
