<?xml version="1.0" encoding="utf-8"?>
<!-- Generator: Adobe Illustrator 17.0.0, SVG Export Plug-In . SVG Version: 6.00 Build 0)  -->
<!DOCTYPE svg PUBLIC "-//W3C//DTD SVG 1.1//EN" "http://www.w3.org/Graphics/SVG/1.1/DTD/svg11.dtd">
<svg version="1.1" id="Layer_1" xmlns="http://www.w3.org/2000/svg" xmlns:xlink="http://www.w3.org/1999/xlink" x="0px" y="0px"
	 width="150.667px" height="190.667px" viewBox="0 0 150.667 190.667" enable-background="new 0 0 150.667 190.667"
	 xml:space="preserve">
<path fill="#7E99AE" d="M61.424,96.366c0,0-18.305,59.769-14.257,72.079c4.048,12.31,62.451,1.161,62.451,1.161
	s-1.512-42.522-18.22-79.204S61.424,96.366,61.424,96.366"/>
<path fill="#C09C67" d="M111.468,126.261c0,0,2.152,26.746-7.351,31.222l-3.449-1.628l2.709-28.057L111.468,126.261z"/>
<path fill="#4F7698" d="M79.264,109.007L79.264,109.007c0-0.73-0.591-1.321-1.321-1.321H65.672l0,0c-0.73,0-1.321,0.591-1.321,1.321
	v14.418c0,0.002,0,0.004,0,0.006c0.002,0.725,0.59,1.311,1.315,1.309h1.883c0.432,1.523,1.828,2.569,3.41,2.558
	c1.584,0.004,2.979-1.038,3.425-2.558h8.532c0.432,1.523,1.828,2.569,3.41,2.558c1.577-0.003,2.964-1.044,3.407-2.558h1.635
	c0.002,0,0.004,0,0.006,0c0.725-0.002,1.311-0.59,1.309-1.315v-5.887c0-0.44-0.126-0.871-0.361-1.243l-3.864-6.079
	c-0.262-0.412-0.717-0.66-1.205-0.658h-5.846l0,0c-0.506,0-0.917,0.41-0.917,0.917l-0.981-1.063 M72.735,123.739
	c0.002,0.98-0.792,1.776-1.772,1.778s-1.776-0.792-1.778-1.772c0.014-0.975,0.8-1.762,1.775-1.778
	C71.939,121.967,72.733,122.76,72.735,123.739z M84.552,123.745c0.014-0.975,0.8-1.762,1.775-1.778
	c0.98,0.003,1.773,0.798,1.775,1.778c-0.016,0.974-0.801,1.759-1.775,1.775C85.348,125.517,84.555,124.724,84.552,123.745z
	 M89.824,116.159c0.033,0.052,0.05,0.112,0.051,0.173c0.001,0.18-0.144,0.327-0.324,0.328h-5.206c-0.002,0-0.004,0-0.006,0
	c-0.18-0.003-0.323-0.152-0.32-0.332v-4.289l0,0c0-0.18,0.146-0.326,0.326-0.326h2.468c0.111,0.001,0.214,0.058,0.274,0.151
	l2.732,4.295H89.824z"/>
<polyline fill="#725122" points="39.661,45.537 46.583,126.261 63.182,103.608 60.111,46.702 "/>
<polyline fill="#725122" points="109.709,41.821 102.787,122.545 89.893,95.014 89.259,42.986 "/>
<path fill="#7E99AE" d="M92.823,89.67c0,0,14.217,17.009,18.645,36.591l-9.338,4.087L86.829,96.306l6.184-6.184"/>
<path fill="#7E99AE" d="M60.867,92.151c0,0-14.758,18.645-19.187,38.227l13.002,5.747L66.86,98.786l-6.184-6.184"/>
<path fill="#C09C67" d="M41.68,130.378c0,0,1.949,24.69,11.923,27.984l5.785,0.831l-6.084-27.523L41.68,130.378z"/>
<path fill="#859BAD" d="M72.374,109.821"/>
<path fill="#9EB1BE" d="M60.111,18.932c0,0,3.624-7.988,7.721-9.466c0,0,11.227-3.868,13.864,4.408"/>
<path fill="#C09C67" d="M40.04,42.899c0,0-5.178,52.33,36.047,55.924c0,0,42.901-3.885,32.158-64.693"/>
<polygon fill="#725122" points="39.661,45.537 40.296,57.464 110.174,55.262 109.528,41.821 "/>
<path fill="#7E99AE" d="M42.213,42.923c0,0-4.792,10.997,14.376,9.945l45.525-1.42c0,0,12.228-0.937,1.797-17.319"/>
<path fill="#4F7698" d="M39.661,45.537c0,0,32.8,1.42,69.746-2.986c0,0,3.933-26.459-32.906-30.587
	C76.5,11.964,43.278,13.701,39.661,45.537z"/>
<ellipse transform="matrix(-0.9856 -0.1688 0.1688 -0.9856 132.5922 142.8347)" cx="72.368" cy="65.781" rx="2.147" ry="2.415"/>
<ellipse transform="matrix(-0.9856 -0.1688 0.1688 -0.9856 151.2761 142.3571)" cx="81.689" cy="64.748" rx="2.147" ry="2.415"/>
<path fill="none" stroke="#000000" stroke-width="0.7987" stroke-miterlimit="10" d="M70.279,85.381c0,0,8.988,3.195,12.442,0"/>
<line fill="none" stroke="#000000" stroke-width="0.4925" stroke-miterlimit="10" x1="69.695" y1="62.743" x2="70.863" y2="65.36"/>
<line fill="none" stroke="#000000" stroke-width="0.4925" stroke-miterlimit="10" x1="72.374" y1="62.34" x2="72.374" y2="64.749"/>
<line fill="none" stroke="#000000" stroke-width="0.4925" stroke-miterlimit="10" x1="75.492" y1="63.373" x2="73.712" y2="64.749"/>
<line fill="none" stroke="#000000" stroke-width="0.4925" stroke-miterlimit="10" x1="79.131" y1="62.34" x2="80.293" y2="64.354"/>
<line fill="none" stroke="#000000" stroke-width="0.4925" stroke-miterlimit="10" x1="81.696" y1="61.257" x2="81.919" y2="64.354"/>
<line fill="none" stroke="#000000" stroke-width="0.4925" stroke-miterlimit="10" x1="84.086" y1="62.806" x2="82.721" y2="64.171"/>
<path fill="#553B14" d="M54.789,138.92c0.775-1.962,2.405-0.939,1.551-1.235l45.17-0.103c0,0,1.094,0.139,1.045,1.592"/>
<path fill="#E33B3B" d="M62.156,141.462c-3.923,0.149-5.445-0.746-5.445-0.746c-1.393-3.549,1.593-11.906,1.593-11.906l7.612,0.332
	c0,0,2.958,6.998,1.566,11.574c0,0-0.207,0.597-5.445,0.746"/>
<path d="M58.453,127.085c0,0,4.028,1.791,7.262,0.597c0,0,1.99-1.281-2.852-1.791c0,0-4.012-0.432-4.559,1.044"/>
<path fill="#FFFFFF" stroke="#000000" stroke-width="0.0995" stroke-miterlimit="10" d="M58.361,126.962
	c0,0,4.134,2.038,7.715,0.148c0,0,0.039,1.6-0.161,2.031c0,0-4.543,0.829-7.612-0.332C58.303,128.81,58.113,128.223,58.361,126.962z
	"/>
<line fill="none" stroke="#000000" stroke-width="0.0597" stroke-miterlimit="10" x1="58.663" y1="126.5" x2="58.564" y2="128.904"/>
<line fill="none" stroke="#000000" stroke-width="0.0507" stroke-miterlimit="10" x1="59.124" y1="127.328" x2="59.024" y2="129.062"/>
<line fill="none" stroke="#000000" stroke-width="0.0507" stroke-miterlimit="10" x1="59.535" y1="127.433" x2="59.435" y2="129.167"/>
<line fill="none" stroke="#000000" stroke-width="0.0507" stroke-miterlimit="10" x1="59.806" y1="127.521" x2="59.706" y2="129.256"/>
<line fill="none" stroke="#000000" stroke-width="0.0597" stroke-miterlimit="10" x1="60.184" y1="126.988" x2="60.105" y2="129.202"/>
<line fill="none" stroke="#000000" stroke-width="0.0597" stroke-miterlimit="10" x1="65.826" y1="126.989" x2="65.759" y2="129.166"/>
<line fill="none" stroke="#000000" stroke-width="0.0597" stroke-miterlimit="10" x1="65.361" y1="127.271" x2="65.416" y2="129.166"/>
<line fill="none" stroke="#000000" stroke-width="0.0597" stroke-miterlimit="10" x1="60.506" y1="127.101" x2="60.506" y2="129.278"/>
<line fill="none" stroke="#000000" stroke-width="0.0597" stroke-miterlimit="10" x1="61.044" y1="127.264" x2="61.044" y2="129.354"/>
<line fill="none" stroke="#000000" stroke-width="0.0597" stroke-miterlimit="10" x1="61.379" y1="127.35" x2="61.299" y2="129.38"/>
<line fill="none" stroke="#000000" stroke-width="0.0611" stroke-miterlimit="10" x1="61.959" y1="127.417" x2="61.909" y2="129.38"/>
<line fill="none" stroke="#000000" stroke-width="0.0597" stroke-miterlimit="10" x1="60.817" y1="127.199" x2="60.776" y2="129.32"/>
<line fill="none" stroke="#000000" stroke-width="0.0597" stroke-miterlimit="10" x1="61.688" y1="127.417" x2="61.648" y2="129.354"/>
<line fill="none" stroke="#000000" stroke-width="0.0609" stroke-miterlimit="10" x1="62.519" y1="127.503" x2="62.519" y2="129.428"/>
<line fill="none" stroke="#000000" stroke-width="0.0627" stroke-miterlimit="10" x1="62.854" y1="127.469" x2="62.904" y2="129.42"/>
<line fill="none" stroke="#000000" stroke-width="0.0627" stroke-miterlimit="10" x1="62.282" y1="127.503" x2="62.212" y2="129.42"/>
<line fill="none" stroke="#000000" stroke-width="0.057" stroke-miterlimit="10" x1="63.24" y1="127.904" x2="63.315" y2="129.393"/>
<line fill="none" stroke="#000000" stroke-width="0.0627" stroke-miterlimit="10" x1="63.775" y1="127.503" x2="63.824" y2="129.354"/>
<line fill="none" stroke="#000000" stroke-width="0.0627" stroke-miterlimit="10" x1="64.371" y1="127.469" x2="64.309" y2="129.32"/>
<line fill="none" stroke="#000000" stroke-width="0.0627" stroke-miterlimit="10" x1="64.894" y1="127.449" x2="64.992" y2="129.312"/>
<line fill="none" stroke="#000000" stroke-width="0.0627" stroke-miterlimit="10" x1="64.607" y1="127.417" x2="64.683" y2="129.278"/>
<path fill="none" stroke="#FFFFFF" stroke-width="0.2985" stroke-miterlimit="10" d="M59.298,134.214c0,0,1.118,2.991,0.17,3.744
	c0,0-1.021,0.973-1.872-0.146"/>
<path fill="none" stroke="#FFFFFF" stroke-width="0.2985" stroke-miterlimit="10" d="M60.723,138.351c0,0,0.024-4.91,0.681-4.351
	c0,0,1.118,0.243,1.58,4.206"/>
<line fill="none" stroke="#FFFFFF" stroke-width="0.2985" stroke-miterlimit="10" x1="60.784" y1="136.455" x2="62.692" y2="136.455"/>
<path fill="none" stroke="#FFFFFF" stroke-width="0.2985" stroke-miterlimit="10" d="M63.696,138.231c0,0-0.729-7.392,0.754-3.161
	c0,0,0.9-2.447,1.216-1.114l0.413,4.275"/>
<line fill="none" stroke="#FFFFFF" stroke-width="0.2985" stroke-miterlimit="10" x1="58.061" y1="134.287" x2="60.225" y2="134.146"/>
<path fill="#E33B3B" d="M72.517,140.508c-3.923,0.149-5.445-0.746-5.445-0.746c-1.393-3.549,1.593-11.906,1.593-11.906l7.612,0.332
	c0,0,2.958,6.998,1.566,11.574c0,0-0.207,0.597-5.445,0.746"/>
<path d="M68.814,126.131c0,0,4.028,1.791,7.262,0.597c0,0,1.99-1.281-2.852-1.791c0,0-4.012-0.432-4.559,1.044"/>
<path fill="#FFFFFF" stroke="#000000" stroke-width="0.0995" stroke-miterlimit="10" d="M68.722,126.008
	c0,0,4.134,2.038,7.715,0.148c0,0,0.039,1.6-0.161,2.031c0,0-4.543,0.829-7.612-0.332C68.664,127.855,68.474,127.268,68.722,126.008
	z"/>
<line fill="none" stroke="#000000" stroke-width="0.0597" stroke-miterlimit="10" x1="69.024" y1="125.546" x2="68.925" y2="127.95"/>
<line fill="none" stroke="#000000" stroke-width="0.0507" stroke-miterlimit="10" x1="69.485" y1="126.374" x2="69.385" y2="128.108"/>
<line fill="none" stroke="#000000" stroke-width="0.0507" stroke-miterlimit="10" x1="69.896" y1="126.479" x2="69.796" y2="128.213"/>
<line fill="none" stroke="#000000" stroke-width="0.0507" stroke-miterlimit="10" x1="70.167" y1="126.567" x2="70.067" y2="128.301"/>
<line fill="none" stroke="#000000" stroke-width="0.0597" stroke-miterlimit="10" x1="70.545" y1="126.034" x2="70.466" y2="128.248"/>
<line fill="none" stroke="#000000" stroke-width="0.0597" stroke-miterlimit="10" x1="76.187" y1="126.035" x2="76.119" y2="128.212"/>
<line fill="none" stroke="#000000" stroke-width="0.0597" stroke-miterlimit="10" x1="75.722" y1="126.317" x2="75.777" y2="128.212"/>
<line fill="none" stroke="#000000" stroke-width="0.0597" stroke-miterlimit="10" x1="70.867" y1="126.146" x2="70.867" y2="128.324"/>
<line fill="none" stroke="#000000" stroke-width="0.0597" stroke-miterlimit="10" x1="71.405" y1="126.31" x2="71.405" y2="128.399"/>
<line fill="none" stroke="#000000" stroke-width="0.0597" stroke-miterlimit="10" x1="71.74" y1="126.395" x2="71.66" y2="128.425"/>
<line fill="none" stroke="#000000" stroke-width="0.0611" stroke-miterlimit="10" x1="72.32" y1="126.463" x2="72.27" y2="128.425"/>
<line fill="none" stroke="#000000" stroke-width="0.0597" stroke-miterlimit="10" x1="71.178" y1="126.245" x2="71.137" y2="128.366"/>
<line fill="none" stroke="#000000" stroke-width="0.0597" stroke-miterlimit="10" x1="72.049" y1="126.463" x2="72.009" y2="128.399"/>
<line fill="none" stroke="#000000" stroke-width="0.0609" stroke-miterlimit="10" x1="72.88" y1="126.549" x2="72.88" y2="128.474"/>
<line fill="none" stroke="#000000" stroke-width="0.0627" stroke-miterlimit="10" x1="73.215" y1="126.515" x2="73.265" y2="128.466"/>
<line fill="none" stroke="#000000" stroke-width="0.0627" stroke-miterlimit="10" x1="72.643" y1="126.549" x2="72.572" y2="128.466"/>
<line fill="none" stroke="#000000" stroke-width="0.057" stroke-miterlimit="10" x1="73.601" y1="126.95" x2="73.675" y2="128.439"/>
<line fill="none" stroke="#000000" stroke-width="0.0627" stroke-miterlimit="10" x1="74.136" y1="126.549" x2="74.185" y2="128.399"/>
<line fill="none" stroke="#000000" stroke-width="0.0627" stroke-miterlimit="10" x1="74.732" y1="126.515" x2="74.67" y2="128.366"/>
<line fill="none" stroke="#000000" stroke-width="0.0627" stroke-miterlimit="10" x1="75.255" y1="126.495" x2="75.353" y2="128.358"/>
<line fill="none" stroke="#000000" stroke-width="0.0627" stroke-miterlimit="10" x1="74.968" y1="126.463" x2="75.043" y2="128.324"/>
<path fill="none" stroke="#FFFFFF" stroke-width="0.2985" stroke-miterlimit="10" d="M69.659,133.26c0,0,1.118,2.991,0.17,3.744
	c0,0-1.021,0.973-1.872-0.146"/>
<path fill="none" stroke="#FFFFFF" stroke-width="0.2985" stroke-miterlimit="10" d="M71.084,137.397c0,0,0.024-4.91,0.681-4.351
	c0,0,1.118,0.243,1.58,4.206"/>
<line fill="none" stroke="#FFFFFF" stroke-width="0.2985" stroke-miterlimit="10" x1="71.145" y1="135.501" x2="73.053" y2="135.501"/>
<path fill="none" stroke="#FFFFFF" stroke-width="0.2985" stroke-miterlimit="10" d="M74.057,137.277c0,0-0.729-7.392,0.754-3.161
	c0,0,0.9-2.447,1.216-1.114l0.413,4.275"/>
<line fill="none" stroke="#FFFFFF" stroke-width="0.2985" stroke-miterlimit="10" x1="68.422" y1="133.333" x2="70.586" y2="133.192"/>
<path fill="#E33B3B" d="M81.905,141.084c-3.863-0.697-5.158-1.899-5.158-1.899c-0.598-3.765,4.114-11.285,4.114-11.285l7.362,1.96
	c0,0,1.385,7.47-0.959,11.64c0,0-0.33,0.539-5.478-0.442"/>
<path d="M81.379,126.247c0,0,3.549,2.615,6.964,2.144c0,0,2.219-0.823-2.401-2.362c0,0-3.825-1.285-4.677,0.04"/>
<path fill="#FFFFFF" stroke="#000000" stroke-width="0.0995" stroke-miterlimit="10" d="M81.315,126.107
	c0,0,3.599,2.879,7.503,1.802c0,0-0.305,1.571-0.593,1.949c0,0-4.615-0.167-7.362-1.96
	C80.862,127.899,80.802,127.285,81.315,126.107z"/>
<line fill="none" stroke="#000000" stroke-width="0.0597" stroke-miterlimit="10" x1="81.71" y1="125.721" x2="81.096" y2="128.047"/>
<line fill="none" stroke="#000000" stroke-width="0.0507" stroke-miterlimit="10" x1="81.982" y1="126.629" x2="81.512" y2="128.301"/>
<line fill="none" stroke="#000000" stroke-width="0.0507" stroke-miterlimit="10" x1="82.361" y1="126.82" x2="81.891" y2="128.492"/>
<line fill="none" stroke="#000000" stroke-width="0.0507" stroke-miterlimit="10" x1="82.606" y1="126.964" x2="82.136" y2="128.637"/>
<line fill="none" stroke="#000000" stroke-width="0.0597" stroke-miterlimit="10" x1="83.09" y1="126.525" x2="82.537" y2="128.67"/>
<line fill="none" stroke="#000000" stroke-width="0.0597" stroke-miterlimit="10" x1="88.025" y1="127.739" x2="87.491" y2="129.85"/>
<line fill="none" stroke="#000000" stroke-width="0.0597" stroke-miterlimit="10" x1="87.51" y1="127.914" x2="87.156" y2="129.777"/>
<line fill="none" stroke="#000000" stroke-width="0.0597" stroke-miterlimit="10" x1="83.38" y1="126.704" x2="82.912" y2="128.831"/>
<line fill="none" stroke="#000000" stroke-width="0.0597" stroke-miterlimit="10" x1="83.871" y1="126.979" x2="83.422" y2="129.02"/>
<line fill="none" stroke="#000000" stroke-width="0.0597" stroke-miterlimit="10" x1="84.18" y1="127.134" x2="83.665" y2="129.1"/>
<line fill="none" stroke="#000000" stroke-width="0.0611" stroke-miterlimit="10" x1="84.731" y1="127.325" x2="84.261" y2="129.231"/>
<line fill="none" stroke="#000000" stroke-width="0.0597" stroke-miterlimit="10" x1="83.663" y1="126.867" x2="83.167" y2="128.929"/>
<line fill="none" stroke="#000000" stroke-width="0.0597" stroke-miterlimit="10" x1="84.466" y1="127.267" x2="84.012" y2="129.15"/>
<line fill="none" stroke="#000000" stroke-width="0.0609" stroke-miterlimit="10" x1="85.26" y1="127.529" x2="84.846" y2="129.409"/>
<line fill="none" stroke="#000000" stroke-width="0.0627" stroke-miterlimit="10" x1="85.595" y1="127.568" x2="85.224" y2="129.484"/>
<line fill="none" stroke="#000000" stroke-width="0.0627" stroke-miterlimit="10" x1="85.029" y1="127.479" x2="84.548" y2="129.335"/>
<line fill="none" stroke="#000000" stroke-width="0.057" stroke-miterlimit="10" x1="85.878" y1="128.076" x2="85.631" y2="129.546"/>
<line fill="none" stroke="#000000" stroke-width="0.0627" stroke-miterlimit="10" x1="86.486" y1="127.799" x2="86.137" y2="129.617"/>
<line fill="none" stroke="#000000" stroke-width="0.0627" stroke-miterlimit="10" x1="87.076" y1="127.894" x2="86.618" y2="129.689"/>
<line fill="none" stroke="#000000" stroke-width="0.0627" stroke-miterlimit="10" x1="87.015" y1="127.987" x2="86.711" y2="129.828"/>
<line fill="none" stroke="#000000" stroke-width="0.0627" stroke-miterlimit="10" x1="86.742" y1="127.894" x2="86.416" y2="129.728"/>
<path fill="none" stroke="#FFFFFF" stroke-width="0.2985" stroke-miterlimit="10" d="M80.672,133.392c0,0,0.45,3.161-0.639,3.694
	c0,0-1.206,0.73-1.797-0.545"/>
<path fill="none" stroke="#FFFFFF" stroke-width="0.2985" stroke-miterlimit="10" d="M81.174,137.738c0,0,1.079-4.79,1.6-4.103
	c0,0,1.04,0.478,0.639,4.448"/>
<line fill="none" stroke="#FFFFFF" stroke-width="0.2985" stroke-miterlimit="10" x1="81.642" y1="135.9" x2="83.505" y2="136.31"/>
<path fill="none" stroke="#FFFFFF" stroke-width="0.2985" stroke-miterlimit="10" d="M84.103,138.259c0,0,0.876-7.376,1.416-2.925
	c0,0,1.405-2.197,1.427-0.827l-0.515,4.264"/>
<line fill="none" stroke="#FFFFFF" stroke-width="0.2985" stroke-miterlimit="10" x1="79.448" y1="133.197" x2="81.592" y2="133.524"/>
<path fill="#E33B3B" d="M95.142,140.517c-3.829,0.863-5.49,0.261-5.49,0.261c-2.018-3.235-0.608-11.997-0.608-11.997l7.544-1.064
	c0,0,4.187,6.34,3.653,11.094c0,0-0.094,0.625-5.217,1.728"/>
<path d="M88.876,127.058c0,0,4.287,1.025,7.249-0.739c0,0,1.722-1.623-3.131-1.24c0,0-4.023,0.307-4.292,1.859"/>
<path fill="#FFFFFF" stroke="#000000" stroke-width="0.0995" stroke-miterlimit="10" d="M88.763,126.954
	c0,0,4.437,1.249,7.612-1.264c0,0,0.331,1.566,0.213,2.026c0,0-4.316,1.645-7.544,1.064
	C89.044,128.781,88.749,128.239,88.763,126.954z"/>
<line fill="none" stroke="#000000" stroke-width="0.0597" stroke-miterlimit="10" x1="88.976" y1="126.445" x2="89.317" y2="128.826"/>
<line fill="none" stroke="#000000" stroke-width="0.0507" stroke-miterlimit="10" x1="89.58" y1="127.175" x2="89.799" y2="128.898"/>
<line fill="none" stroke="#000000" stroke-width="0.0507" stroke-miterlimit="10" x1="90.004" y1="127.203" x2="90.222" y2="128.926"/>
<line fill="none" stroke="#000000" stroke-width="0.0507" stroke-miterlimit="10" x1="90.286" y1="127.24" x2="90.505" y2="128.964"/>
<line fill="none" stroke="#000000" stroke-width="0.0597" stroke-miterlimit="10" x1="90.561" y1="126.647" x2="90.887" y2="128.838"/>
<line fill="none" stroke="#000000" stroke-width="0.0597" stroke-miterlimit="10" x1="96.108" y1="125.618" x2="96.439" y2="127.771"/>
<line fill="none" stroke="#000000" stroke-width="0.0597" stroke-miterlimit="10" x1="95.702" y1="125.98" x2="96.103" y2="127.833"/>
<line fill="none" stroke="#000000" stroke-width="0.0597" stroke-miterlimit="10" x1="90.897" y1="126.699" x2="91.295" y2="128.84"/>
<line fill="none" stroke="#000000" stroke-width="0.0597" stroke-miterlimit="10" x1="91.456" y1="126.761" x2="91.838" y2="128.816"/>
<line fill="none" stroke="#000000" stroke-width="0.0597" stroke-miterlimit="10" x1="91.801" y1="126.784" x2="92.094" y2="128.794"/>
<line fill="none" stroke="#000000" stroke-width="0.0611" stroke-miterlimit="10" x1="92.384" y1="126.745" x2="92.693" y2="128.683"/>
<line fill="none" stroke="#000000" stroke-width="0.0597" stroke-miterlimit="10" x1="91.222" y1="126.739" x2="91.568" y2="128.831"/>
<line fill="none" stroke="#000000" stroke-width="0.0597" stroke-miterlimit="10" x1="92.117" y1="126.794" x2="92.432" y2="128.705"/>
<line fill="none" stroke="#000000" stroke-width="0.0609" stroke-miterlimit="10" x1="92.95" y1="126.727" x2="93.301" y2="128.619"/>
<line fill="none" stroke="#000000" stroke-width="0.0627" stroke-miterlimit="10" x1="93.274" y1="126.632" x2="93.679" y2="128.541"/>
<line fill="none" stroke="#000000" stroke-width="0.0627" stroke-miterlimit="10" x1="92.717" y1="126.77" x2="92.998" y2="128.668"/>
<line fill="none" stroke="#000000" stroke-width="0.057" stroke-miterlimit="10" x1="93.732" y1="126.989" x2="94.077" y2="128.44"/>
<line fill="none" stroke="#000000" stroke-width="0.0627" stroke-miterlimit="10" x1="94.185" y1="126.498" x2="94.572" y2="128.308"/>
<line fill="none" stroke="#000000" stroke-width="0.0627" stroke-miterlimit="10" x1="94.765" y1="126.355" x2="95.042" y2="128.186"/>
<line fill="none" stroke="#000000" stroke-width="0.0627" stroke-miterlimit="10" x1="95.275" y1="126.24" x2="95.712" y2="128.054"/>
<line fill="none" stroke="#000000" stroke-width="0.0627" stroke-miterlimit="10" x1="94.988" y1="126.261" x2="95.402" y2="128.077"/>
<path fill="none" stroke="#FFFFFF" stroke-width="0.2985" stroke-miterlimit="10" d="M91.009,133.913c0,0,1.646,2.736,0.851,3.65
	c0,0-0.826,1.143-1.867,0.198"/>
<path fill="none" stroke="#FFFFFF" stroke-width="0.2985" stroke-miterlimit="10" d="M93.165,137.72c0,0-0.873-4.832-0.125-4.402
	c0,0,1.144,0.035,2.322,3.847"/>
<line fill="none" stroke="#FFFFFF" stroke-width="0.2985" stroke-miterlimit="10" x1="92.88" y1="135.845" x2="94.755" y2="135.497"/>
<path fill="none" stroke="#FFFFFF" stroke-width="0.2985" stroke-miterlimit="10" d="M96.066,137.059c0,0-2.067-7.134,0.164-3.245
	c0,0,0.438-2.57,0.992-1.318l1.187,4.128"/>
<line fill="none" stroke="#FFFFFF" stroke-width="0.2985" stroke-miterlimit="10" x1="89.806" y1="134.211" x2="91.908" y2="133.677"/>
<path fill="#553B14" d="M54.789,138.92c0,0,39.91,0.365,47.766-0.035c0,0,2.214,19.852-1.95,20.884c0,0-41.745,2.538-45.043,0.536
	C55.562,160.304,51.101,145.976,54.789,138.92z"/>
<rect x="4.852" y="162.236" fill="#C73A22" width="140.943" height="23.059"/>
<rect x="5.523" y="167.199" fill="none" width="140.291" height="13.525"/>
<g enable-background="new    ">
	<path fill="#FFFFFF" d="M28.014,172.575c0,1.549-0.274,2.893-0.822,4.029c-0.548,1.138-1.343,2.008-2.387,2.611
		c-1.043,0.603-2.278,0.904-3.706,0.904h-3.91l2.565-12.136h3.453c1.527,0,2.71,0.399,3.549,1.199
		C27.595,169.983,28.014,171.114,28.014,172.575z M21.589,177.43c0.609,0,1.152-0.193,1.631-0.581s0.851-0.939,1.116-1.656
		s0.398-1.534,0.398-2.452c0-0.692-0.149-1.217-0.448-1.573c-0.299-0.357-0.717-0.536-1.253-0.536h-0.589l-1.428,6.799h0.573V177.43
		z"/>
	<path fill="#FFFFFF" d="M28.803,180.12l2.565-12.136h3.295l-2.565,12.136H28.803z"/>
	<path fill="#FFFFFF" d="M42.69,176.393c0,1.229-0.407,2.184-1.22,2.867s-1.948,1.025-3.403,1.025c-0.609,0-1.184-0.067-1.727-0.203
		s-1.01-0.334-1.403-0.594v-2.905c0.465,0.293,0.998,0.54,1.598,0.739s1.144,0.299,1.631,0.299c0.41,0,0.719-0.086,0.93-0.258
		s0.315-0.415,0.315-0.73c0-0.149-0.033-0.289-0.1-0.419s-0.161-0.261-0.282-0.391s-0.448-0.416-0.979-0.858
		c-0.647-0.521-1.118-1.052-1.411-1.594c-0.293-0.543-0.44-1.138-0.44-1.785c0-0.725,0.181-1.377,0.543-1.955
		c0.363-0.578,0.875-1.026,1.536-1.345c0.661-0.318,1.401-0.478,2.22-0.478c1.323,0,2.512,0.297,3.569,0.889l-1.121,2.465
		c-0.946-0.486-1.751-0.73-2.416-0.73c-0.354,0-0.626,0.078-0.818,0.232c-0.19,0.155-0.286,0.383-0.286,0.682
		c0,0.271,0.093,0.523,0.278,0.759c0.185,0.235,0.538,0.55,1.058,0.942c0.653,0.481,1.137,0.988,1.453,1.52
		S42.69,175.707,42.69,176.393z"/>
	<path fill="#FFFFFF" d="M49.098,180.12h-3.246l1.967-9.455h-2.631l0.573-2.681h8.533l-0.589,2.681h-2.64L49.098,180.12z"/>
	<path fill="#FFFFFF" d="M57.731,175.704l-0.938,4.416h-3.246l2.565-12.136h3.212c1.395,0,2.462,0.276,3.204,0.83
		s1.112,1.386,1.112,2.499c0,0.863-0.196,1.615-0.589,2.258c-0.393,0.642-0.977,1.131-1.751,1.469l1.859,4.283l0.332,0.797h-3.536
		l-1.619-4.416L57.731,175.704L57.731,175.704z M58.254,173.239h0.423c0.526,0,0.943-0.151,1.253-0.453s0.465-0.724,0.465-1.266
		c0-0.343-0.096-0.604-0.286-0.784c-0.191-0.18-0.469-0.271-0.834-0.271h-0.44L58.254,173.239z"/>
	<path fill="#FFFFFF" d="M64.579,180.12l2.565-12.136h3.295l-2.565,12.136H64.579z"/>
	<path fill="#FFFFFF" d="M73.195,167.984h4.042c1.2,0,2.111,0.229,2.73,0.685c0.62,0.457,0.93,1.111,0.93,1.963
		c0,1.594-0.821,2.638-2.465,3.13v0.066c0.486,0.16,0.874,0.441,1.162,0.843c0.287,0.401,0.432,0.893,0.432,1.473
		c0,1.268-0.422,2.247-1.267,2.939c-0.844,0.691-2.04,1.037-3.589,1.037h-4.54L73.195,167.984z M74.963,175.04l-0.548,2.549h0.681
		c0.476,0,0.873-0.135,1.19-0.403c0.318-0.269,0.478-0.604,0.478-1.009c0-0.381-0.091-0.666-0.273-0.854s-0.504-0.282-0.963-0.282
		L74.963,175.04L74.963,175.04z M75.453,172.641h0.597c0.487,0,0.855-0.105,1.104-0.316c0.249-0.21,0.373-0.547,0.373-1.012
		c0-0.564-0.352-0.848-1.054-0.848H75.95L75.453,172.641z"/>
	<path fill="#FFFFFF" d="M93.167,167.984l-1.651,7.736c-0.327,1.555-0.949,2.705-1.868,3.449c-0.918,0.744-2.166,1.116-3.743,1.116
		c-0.742,0-1.396-0.152-1.964-0.457c-0.566-0.304-1.004-0.73-1.312-1.277c-0.307-0.549-0.46-1.16-0.46-1.835
		c0-0.354,0.033-0.711,0.1-1.071l1.651-7.661h3.246l-1.619,7.579c-0.077,0.376-0.116,0.694-0.116,0.954
		c0,0.703,0.335,1.054,1.005,1.054c0.52,0,0.928-0.178,1.224-0.535c0.297-0.356,0.522-0.903,0.677-1.639l1.586-7.413H93.167z"/>
	<path fill="#FFFFFF" d="M98.255,180.12h-3.246l1.968-9.455h-2.632l0.573-2.681h8.533l-0.59,2.681h-2.64L98.255,180.12z"/>
	<path fill="#FFFFFF" d="M102.688,180.12l2.564-12.136h3.296l-2.565,12.136H102.688z"/>
	<path fill="#FFFFFF" d="M115.911,167.793c1.439,0,2.559,0.41,3.358,1.232c0.799,0.821,1.199,1.969,1.199,3.44
		s-0.275,2.818-0.826,4.038c-0.551,1.221-1.311,2.155-2.278,2.806c-0.969,0.65-2.092,0.976-3.37,0.976
		c-1.489,0-2.639-0.412-3.449-1.236c-0.811-0.825-1.216-1.971-1.216-3.438c0-1.466,0.285-2.813,0.854-4.042
		c0.57-1.229,1.347-2.165,2.329-2.81C113.494,168.116,114.627,167.793,115.911,167.793z M117.189,172.5
		c0-0.631-0.133-1.125-0.398-1.481c-0.266-0.357-0.65-0.535-1.153-0.535c-0.548,0-1.052,0.232-1.511,0.697
		c-0.46,0.465-0.826,1.104-1.1,1.917s-0.411,1.646-0.411,2.499c0,1.339,0.553,2.008,1.66,2.008c0.525,0,1.014-0.229,1.465-0.688
		s0.806-1.079,1.063-1.859C117.061,174.276,117.189,173.423,117.189,172.5z"/>
	<path fill="#FFFFFF" d="M131.94,180.12h-3.777l-2.398-8.533h-0.066c-0.161,1.61-0.318,2.767-0.474,3.47l-1.07,5.063h-2.889
		l2.564-12.136h3.777l2.374,8.159h0.074c0.161-1.306,0.318-2.332,0.474-3.079l1.087-5.08h2.889L131.94,180.12z"/>
</g>
</svg>
