<?xml version="1.0" encoding="utf-8"?>
<!-- Generator: Adobe Illustrator 17.0.0, SVG Export Plug-In . SVG Version: 6.00 Build 0)  -->
<!DOCTYPE svg PUBLIC "-//W3C//DTD SVG 1.1//EN" "http://www.w3.org/Graphics/SVG/1.1/DTD/svg11.dtd">
<svg version="1.1" id="Layer_1" xmlns="http://www.w3.org/2000/svg" xmlns:xlink="http://www.w3.org/1999/xlink" x="0px" y="0px"
	 width="150.667px" height="190.667px" viewBox="0 0 150.667 190.667" enable-background="new 0 0 150.667 190.667"
	 xml:space="preserve">
<path d="M104.082,80.54"/>
<path d="M77.998,21.671c0,0,19.442-37.821,38.2,2.539c0,0,19.081,58.609,3.571,62.358"/>
<path fill="#5D889F" d="M95.246,90.463c0,0,32.13,45.51,21.266,88.373l-11.746-8.815C104.765,170.021,111.688,136.913,95.246,90.463
	z"/>
<path fill="#5D889F" d="M54.979,94.314c0,0-23.417,50.165-14.5,89.732l11.044-9.681C51.522,174.365,42.107,141.878,54.979,94.314z"
	/>
<path fill="#5D889F" d="M44.77,157.129l65.719-0.704l-5.953-36.561l-3.666-13.717l-3.48-9.296c0,0-3.585-12.216-4.69-12.263
	c-1.105-0.048-32.81-9.633-32.81-9.633l-9.546,37.025L44.77,157.129z"/>
<path fill="#E69863" d="M44.227,171.381c0,0-6.263-15.368,0.889-44.279l9.248-8.935l0.497-25.365l7.859,2.553l-0.638,14.771
	l26.597-0.758l0.66-15.28l0.263-6.09L95.2,88.24l0.892,27.193l13.062,5.102c0,0,5.621,20.203,2.325,48.69
	C111.478,169.222,90.584,177.802,44.227,171.381z"/>
<ellipse transform="matrix(-0.9991 -0.0431 0.0431 -0.9991 141.4176 119.66)" fill="#C09C67" cx="71.999" cy="58.306" rx="38.631" ry="40.106"/>
<polygon fill="#FFFFFF" points="52.666,67.675 90.239,66.339 94.45,85.186 48.502,86.82 "/>
<line fill="none" stroke="#FFFFFF" stroke-width="0.8846" stroke-miterlimit="10" x1="91.3" y1="71.741" x2="110.039" y2="69.402"/>
<line fill="none" stroke="#FFFFFF" stroke-width="0.8846" stroke-miterlimit="10" x1="93.289" y1="79.989" x2="102.778" y2="82.432"/>
<line fill="none" stroke="#FFFFFF" stroke-width="0.8846" stroke-miterlimit="10" x1="52.205" y1="75.897" x2="36.249" y2="73.569"/>
<line fill="none" stroke="#FFFFFF" stroke-width="0.8846" stroke-miterlimit="10" x1="49.538" y1="82.057" x2="41.846" y2="83.481"/>
<ellipse transform="matrix(-0.9774 -0.2112 0.2112 -0.9774 110.5305 118.9893)" cx="61.62" cy="53.592" rx="2.378" ry="2.675"/>
<ellipse transform="matrix(-0.9774 -0.2112 0.2112 -0.9774 147.1783 123.3994)" cx="80.179" cy="53.84" rx="2.378" ry="2.675"/>
<path d="M36.34,42.958l74.171,1.959c0,0-10.682-29.224-42.096-26.527C68.416,18.39,47.718,18.421,36.34,42.958z"/>
<path fill="#E33B3B" d="M103.694,157.234c-7.233-0.291-9.903-2.157-9.903-2.157c-2.049-6.724,4.644-21.658,4.644-21.658
	l13.945,1.707c0,0,4.43,13.291,1.21,21.504c0,0-0.466,1.068-10.118,0.587"/>
<path d="M98.958,130.27c0,0,7.147,3.873,13.264,2.144c0,0,3.843-2.068-4.985-3.703c0,0-7.313-1.373-8.533,1.262"/>
<path fill="#FFFFFF" stroke="#000000" stroke-width="0.1835" stroke-miterlimit="10" d="M98.806,130.031
	c0,0,7.306,4.342,14.162,1.383c0,0-0.158,2.947-0.588,3.711c0,0-8.472,0.869-13.945-1.707
	C98.434,133.419,98.168,132.312,98.806,130.031z"/>
<line fill="none" stroke="#000000" stroke-width="0.1102" stroke-miterlimit="10" x1="99.429" y1="129.225" x2="98.9" y2="133.63"/>
<line fill="none" stroke="#000000" stroke-width="0.0936" stroke-miterlimit="10" x1="100.157" y1="130.813" x2="99.724" y2="133.987"/>
<line fill="none" stroke="#000000" stroke-width="0.0936" stroke-miterlimit="10" x1="100.897" y1="131.066" x2="100.464" y2="134.24"/>
<line fill="none" stroke="#000000" stroke-width="0.0936" stroke-miterlimit="10" x1="101.382" y1="131.267" x2="100.949" y2="134.441"/>
<line fill="none" stroke="#000000" stroke-width="0.1102" stroke-miterlimit="10" x1="102.155" y1="130.342" x2="101.691" y2="134.401"/>
<line fill="none" stroke="#000000" stroke-width="0.1102" stroke-miterlimit="10" x1="112.527" y1="131.157" x2="112.089" y2="135.149"/>
<line fill="none" stroke="#000000" stroke-width="0.1102" stroke-miterlimit="10" x1="111.631" y1="131.608" x2="111.459" y2="135.1"/>
<line fill="none" stroke="#000000" stroke-width="0.1102" stroke-miterlimit="10" x1="102.73" y1="130.595" x2="102.416" y2="134.598"/>
<line fill="none" stroke="#000000" stroke-width="0.1102" stroke-miterlimit="10" x1="103.696" y1="130.972" x2="103.394" y2="134.814"/>
<line fill="none" stroke="#000000" stroke-width="0.1102" stroke-miterlimit="10" x1="104.299" y1="131.178" x2="103.86" y2="134.898"/>
<line fill="none" stroke="#000000" stroke-width="0.1127" stroke-miterlimit="10" x1="105.356" y1="131.386" x2="104.981" y2="134.986"/>
<line fill="none" stroke="#000000" stroke-width="0.1102" stroke-miterlimit="10" x1="103.288" y1="130.82" x2="102.907" y2="134.713"/>
<line fill="none" stroke="#000000" stroke-width="0.1102" stroke-miterlimit="10" x1="104.857" y1="131.347" x2="104.505" y2="134.901"/>
<line fill="none" stroke="#000000" stroke-width="0.1123" stroke-miterlimit="10" x1="106.372" y1="131.625" x2="106.095" y2="135.163"/>
<line fill="none" stroke="#000000" stroke-width="0.1156" stroke-miterlimit="10" x1="106.994" y1="131.61" x2="106.805" y2="135.204"/>
<line fill="none" stroke="#000000" stroke-width="0.1156" stroke-miterlimit="10" x1="105.938" y1="131.591" x2="105.531" y2="135.104"/>
<line fill="none" stroke="#000000" stroke-width="0.1051" stroke-miterlimit="10" x1="107.64" y1="132.465" x2="107.563" y2="135.214"/>
<line fill="none" stroke="#000000" stroke-width="0.1156" stroke-miterlimit="10" x1="108.681" y1="131.806" x2="108.506" y2="135.215"/>
<line fill="none" stroke="#000000" stroke-width="0.1156" stroke-miterlimit="10" x1="109.782" y1="131.829" x2="109.403" y2="135.223"/>
<line fill="none" stroke="#000000" stroke-width="0.1156" stroke-miterlimit="10" x1="110.747" y1="131.868" x2="110.658" y2="135.307"/>
<line fill="none" stroke="#000000" stroke-width="0.1156" stroke-miterlimit="10" x1="110.224" y1="131.768" x2="110.094" y2="135.2"/>
<path fill="none" stroke="#FFFFFF" stroke-width="0.5504" stroke-miterlimit="10" d="M99.484,143.498c0,0,1.625,5.659-0.227,6.908
	c0,0-2.018,1.641-3.421-0.538"/>
<path fill="none" stroke="#FFFFFF" stroke-width="0.5504" stroke-miterlimit="10" d="M101.507,151.308c0,0,0.752-9.023,1.879-7.9
	c0,0,2.021,0.608,2.299,7.961"/>
<line fill="none" stroke="#FFFFFF" stroke-width="0.5504" stroke-miterlimit="10" x1="101.894" y1="147.832" x2="105.401" y2="148.107"/>
<path fill="none" stroke="#FFFFFF" stroke-width="0.5504" stroke-miterlimit="10" d="M106.99,151.516c0,0-0.276-13.694,1.841-5.702
	c0,0,2.007-4.369,2.396-1.873l0.144,7.919"/>
<line fill="none" stroke="#FFFFFF" stroke-width="0.5504" stroke-miterlimit="10" x1="97.2" y1="143.454" x2="101.199" y2="143.506"/>
<path fill="#424242" d="M32.348,158.298h88.537c0,0,8.709-0.255,1.717,3.313H32.348C32.348,161.611,24.553,161.756,32.348,158.298z"
	/>
<path fill="#E33B3B" d="M49.508,156.055c-7.12,1.305-10.135,0.072-10.135,0.072c-3.477-6.11-0.228-22.149-0.228-22.149l13.98-1.399
	c0,0,7.242,11.993,5.905,20.713c0,0-0.22,1.144-9.742,2.796"/>
<path d="M38.964,130.79c0,0,7.823,2.208,13.411-0.822c0,0,3.294-2.862-5.677-2.518c0,0-7.436,0.267-8.047,3.106"/>
<path fill="#FFFFFF" stroke="#000000" stroke-width="0.1835" stroke-miterlimit="10" d="M38.763,130.591
	c0,0,8.082,2.631,14.119-1.762c0,0,0.493,2.91,0.242,3.75c0,0-8.074,2.709-13.98,1.399
	C39.144,133.977,38.642,132.956,38.763,130.591z"/>
<line fill="none" stroke="#000000" stroke-width="0.1102" stroke-miterlimit="10" x1="39.194" y1="129.668" x2="39.645" y2="134.081"/>
<line fill="none" stroke="#000000" stroke-width="0.0936" stroke-miterlimit="10" x1="40.252" y1="131.057" x2="40.527" y2="134.249"/>
<line fill="none" stroke="#000000" stroke-width="0.0936" stroke-miterlimit="10" x1="41.03" y1="131.141" x2="41.305" y2="134.332"/>
<line fill="none" stroke="#000000" stroke-width="0.0936" stroke-miterlimit="10" x1="41.548" y1="131.231" x2="41.823" y2="134.422"/>
<line fill="none" stroke="#000000" stroke-width="0.1102" stroke-miterlimit="10" x1="42.098" y1="130.158" x2="42.537" y2="134.22"/>
<line fill="none" stroke="#000000" stroke-width="0.1102" stroke-miterlimit="10" x1="52.396" y1="128.675" x2="52.846" y2="132.666"/>
<line fill="none" stroke="#000000" stroke-width="0.1102" stroke-miterlimit="10" x1="51.621" y1="129.311" x2="52.221" y2="132.756"/>
<line fill="none" stroke="#000000" stroke-width="0.1102" stroke-miterlimit="10" x1="42.714" y1="130.278" x2="43.288" y2="134.253"/>
<line fill="none" stroke="#000000" stroke-width="0.1102" stroke-miterlimit="10" x1="43.74" y1="130.435" x2="44.29" y2="134.249"/>
<line fill="none" stroke="#000000" stroke-width="0.1102" stroke-miterlimit="10" x1="44.374" y1="130.503" x2="44.763" y2="134.229"/>
<line fill="none" stroke="#000000" stroke-width="0.1127" stroke-miterlimit="10" x1="45.45" y1="130.473" x2="45.876" y2="134.068"/>
<line fill="none" stroke="#000000" stroke-width="0.1102" stroke-miterlimit="10" x1="43.309" y1="130.376" x2="43.792" y2="134.258"/>
<line fill="none" stroke="#000000" stroke-width="0.1102" stroke-miterlimit="10" x1="44.955" y1="130.545" x2="45.392" y2="134.09"/>
<line fill="none" stroke="#000000" stroke-width="0.1123" stroke-miterlimit="10" x1="46.494" y1="130.483" x2="47.001" y2="133.996"/>
<line fill="none" stroke="#000000" stroke-width="0.1156" stroke-miterlimit="10" x1="47.098" y1="130.332" x2="47.703" y2="133.88"/>
<line fill="none" stroke="#000000" stroke-width="0.1156" stroke-miterlimit="10" x1="46.063" y1="130.545" x2="46.438" y2="134.063"/>
<line fill="none" stroke="#000000" stroke-width="0.1051" stroke-miterlimit="10" x1="47.916" y1="131.024" x2="48.444" y2="133.723"/>
<line fill="none" stroke="#000000" stroke-width="0.1156" stroke-miterlimit="10" x1="48.787" y1="130.152" x2="49.365" y2="133.517"/>
<line fill="none" stroke="#000000" stroke-width="0.1156" stroke-miterlimit="10" x1="49.866" y1="129.933" x2="50.241" y2="133.327"/>
<line fill="none" stroke="#000000" stroke-width="0.1156" stroke-miterlimit="10" x1="50.815" y1="129.759" x2="51.485" y2="133.134"/>
<line fill="none" stroke="#000000" stroke-width="0.1156" stroke-miterlimit="10" x1="50.284" y1="129.776" x2="50.911" y2="133.153"/>
<path fill="none" stroke="#FFFFFF" stroke-width="0.5504" stroke-miterlimit="10" d="M42.383,143.58c0,0,2.829,5.164,1.297,6.789
	c0,0-1.608,2.044-3.455,0.227"/>
<path fill="none" stroke="#FFFFFF" stroke-width="0.5504" stroke-miterlimit="10" d="M46.073,150.755c0,0-1.248-8.968,0.097-8.12
	c0,0,2.105,0.149,3.992,7.261"/>
<line fill="none" stroke="#FFFFFF" stroke-width="0.5504" stroke-miterlimit="10" x1="45.686" y1="147.279" x2="49.168" y2="146.776"/>
<path fill="none" stroke="#FFFFFF" stroke-width="0.5504" stroke-miterlimit="10" d="M51.467,149.753c0,0-3.278-13.299,0.543-5.968
	c0,0,0.998-4.704,1.926-2.354l1.88,7.694"/>
<line fill="none" stroke="#FFFFFF" stroke-width="0.5504" stroke-miterlimit="10" x1="40.145" y1="144.039" x2="44.058" y2="143.211"/>
<path fill="#E33B3B" d="M76.052,156.233c-7.237,0.154-10.017-1.544-10.017-1.544c-2.459-6.586,3.304-21.903,3.304-21.903
	l14.024,0.846c0,0,5.239,12.993,2.529,21.389c0,0-0.4,1.094-10.063,1.208"/>
<path d="M69.669,129.611c0,0,7.372,3.426,13.37,1.325c0,0,3.708-2.3-5.203-3.39c0,0-7.383-0.921-8.439,1.784"/>
<path fill="#FFFFFF" stroke="#000000" stroke-width="0.1835" stroke-miterlimit="10" d="M69.502,129.382c0,0,7.559,3.885,14.22,0.51
	c0,0,0.023,2.952-0.359,3.74c0,0-8.402,1.388-14.024-0.846C69.339,132.786,69.006,131.698,69.502,129.382z"/>
<line fill="none" stroke="#000000" stroke-width="0.1102" stroke-miterlimit="10" x1="70.074" y1="128.54" x2="69.817" y2="132.968"/>
<line fill="none" stroke="#000000" stroke-width="0.0936" stroke-miterlimit="10" x1="70.898" y1="130.08" x2="70.661" y2="133.275"/>
<line fill="none" stroke="#000000" stroke-width="0.0936" stroke-miterlimit="10" x1="71.653" y1="130.286" x2="71.416" y2="133.481"/>
<line fill="none" stroke="#000000" stroke-width="0.0936" stroke-miterlimit="10" x1="72.149" y1="130.458" x2="71.912" y2="133.652"/>
<line fill="none" stroke="#000000" stroke-width="0.1102" stroke-miterlimit="10" x1="72.864" y1="129.486" x2="72.65" y2="133.566"/>
<line fill="none" stroke="#000000" stroke-width="0.1102" stroke-miterlimit="10" x1="83.266" y1="129.663" x2="83.074" y2="133.674"/>
<line fill="none" stroke="#000000" stroke-width="0.1102" stroke-miterlimit="10" x1="82.399" y1="130.168" x2="82.443" y2="133.664"/>
<line fill="none" stroke="#000000" stroke-width="0.1102" stroke-miterlimit="10" x1="73.453" y1="129.703" x2="73.386" y2="133.719"/>
<line fill="none" stroke="#000000" stroke-width="0.1102" stroke-miterlimit="10" x1="74.44" y1="130.021" x2="74.376" y2="133.874"/>
<line fill="none" stroke="#000000" stroke-width="0.1102" stroke-miterlimit="10" x1="75.055" y1="130.189" x2="74.846" y2="133.93"/>
<line fill="none" stroke="#000000" stroke-width="0.1127" stroke-miterlimit="10" x1="76.123" y1="130.332" x2="75.97" y2="133.948"/>
<line fill="none" stroke="#000000" stroke-width="0.1102" stroke-miterlimit="10" x1="74.024" y1="129.894" x2="73.883" y2="133.804"/>
<line fill="none" stroke="#000000" stroke-width="0.1102" stroke-miterlimit="10" x1="75.622" y1="130.324" x2="75.489" y2="133.893"/>
<line fill="none" stroke="#000000" stroke-width="0.1123" stroke-miterlimit="10" x1="77.152" y1="130.508" x2="77.092" y2="134.056"/>
<line fill="none" stroke="#000000" stroke-width="0.1156" stroke-miterlimit="10" x1="77.772" y1="130.455" x2="77.804" y2="134.054"/>
<line fill="none" stroke="#000000" stroke-width="0.1156" stroke-miterlimit="10" x1="76.716" y1="130.5" x2="76.526" y2="134.033"/>
<line fill="none" stroke="#000000" stroke-width="0.1051" stroke-miterlimit="10" x1="78.469" y1="131.269" x2="78.561" y2="134.017"/>
<line fill="none" stroke="#000000" stroke-width="0.1156" stroke-miterlimit="10" x1="79.468" y1="130.546" x2="79.502" y2="133.96"/>
<line fill="none" stroke="#000000" stroke-width="0.1156" stroke-miterlimit="10" x1="80.568" y1="130.502" x2="80.398" y2="133.913"/>
<line fill="none" stroke="#000000" stroke-width="0.1156" stroke-miterlimit="10" x1="81.533" y1="130.481" x2="81.656" y2="133.92"/>
<line fill="none" stroke="#000000" stroke-width="0.1156" stroke-miterlimit="10" x1="81.006" y1="130.414" x2="81.087" y2="133.848"/>
<path fill="none" stroke="#FFFFFF" stroke-width="0.5504" stroke-miterlimit="10" d="M71.007,142.782c0,0,1.97,5.549,0.198,6.909
	c0,0-1.913,1.762-3.447-0.327"/>
<path fill="none" stroke="#FFFFFF" stroke-width="0.5504" stroke-miterlimit="10" d="M73.506,150.453c0,0,0.196-9.052,1.39-8.001
	c0,0,2.055,0.483,2.784,7.805"/>
<line fill="none" stroke="#FFFFFF" stroke-width="0.5504" stroke-miterlimit="10" x1="73.678" y1="146.96" x2="77.195" y2="147.019"/>
<path fill="none" stroke="#FFFFFF" stroke-width="0.5504" stroke-miterlimit="10" d="M78.991,150.324c0,0-1.117-13.651,1.487-5.805
	c0,0,1.734-4.484,2.276-2.017l0.63,7.895"/>
<line fill="none" stroke="#FFFFFF" stroke-width="0.5504" stroke-miterlimit="10" x1="68.724" y1="142.879" x2="72.718" y2="142.685"/>
<line fill="none" stroke="#FFFFFF" stroke-width="0.2592" stroke-miterlimit="10" x1="34.472" y1="158.84" x2="32.348" y2="160.964"/>
<line fill="none" stroke="#FFFFFF" stroke-width="0.2592" stroke-miterlimit="10" x1="38.123" y1="158.84" x2="35.999" y2="160.964"/>
<line fill="none" stroke="#FFFFFF" stroke-width="0.2592" stroke-miterlimit="10" x1="41.589" y1="158.84" x2="39.465" y2="160.964"/>
<line fill="none" stroke="#FFFFFF" stroke-width="0.2592" stroke-miterlimit="10" x1="44.601" y1="158.84" x2="42.477" y2="160.964"/>
<line fill="none" stroke="#FFFFFF" stroke-width="0.2592" stroke-miterlimit="10" x1="48.252" y1="158.84" x2="46.129" y2="160.964"/>
<line fill="none" stroke="#FFFFFF" stroke-width="0.2592" stroke-miterlimit="10" x1="51.718" y1="158.84" x2="49.594" y2="160.964"/>
<line fill="none" stroke="#FFFFFF" stroke-width="0.2592" stroke-miterlimit="10" x1="54.52" y1="158.84" x2="52.396" y2="160.964"/>
<line fill="none" stroke="#FFFFFF" stroke-width="0.2592" stroke-miterlimit="10" x1="58.171" y1="158.84" x2="56.047" y2="160.964"/>
<line fill="none" stroke="#FFFFFF" stroke-width="0.2592" stroke-miterlimit="10" x1="61.637" y1="158.84" x2="59.513" y2="160.964"/>
<line fill="none" stroke="#FFFFFF" stroke-width="0.2592" stroke-miterlimit="10" x1="64.649" y1="158.84" x2="62.525" y2="160.964"/>
<line fill="none" stroke="#FFFFFF" stroke-width="0.2592" stroke-miterlimit="10" x1="68.3" y1="158.84" x2="66.176" y2="160.965"/>
<line fill="none" stroke="#FFFFFF" stroke-width="0.2592" stroke-miterlimit="10" x1="71.766" y1="158.84" x2="69.642" y2="160.965"/>
<line fill="none" stroke="#FFFFFF" stroke-width="0.2592" stroke-miterlimit="10" x1="75.51" y1="158.84" x2="73.386" y2="160.964"/>
<line fill="none" stroke="#FFFFFF" stroke-width="0.2592" stroke-miterlimit="10" x1="79.161" y1="158.84" x2="77.037" y2="160.964"/>
<line fill="none" stroke="#FFFFFF" stroke-width="0.2592" stroke-miterlimit="10" x1="82.627" y1="158.84" x2="80.503" y2="160.964"/>
<line fill="none" stroke="#FFFFFF" stroke-width="0.2592" stroke-miterlimit="10" x1="85.639" y1="158.84" x2="83.515" y2="160.964"/>
<line fill="none" stroke="#FFFFFF" stroke-width="0.2592" stroke-miterlimit="10" x1="89.29" y1="158.841" x2="87.166" y2="160.965"/>
<line fill="none" stroke="#FFFFFF" stroke-width="0.2592" stroke-miterlimit="10" x1="92.756" y1="158.841" x2="90.632" y2="160.965"/>
<line fill="none" stroke="#FFFFFF" stroke-width="0.2592" stroke-miterlimit="10" x1="95.557" y1="158.84" x2="93.433" y2="160.964"/>
<line fill="none" stroke="#FFFFFF" stroke-width="0.2592" stroke-miterlimit="10" x1="99.208" y1="158.841" x2="97.084" y2="160.965"/>
<line fill="none" stroke="#FFFFFF" stroke-width="0.2592" stroke-miterlimit="10" x1="102.674" y1="158.841" x2="100.55" y2="160.965"/>
<line fill="none" stroke="#FFFFFF" stroke-width="0.2592" stroke-miterlimit="10" x1="105.686" y1="158.841" x2="103.562" y2="160.965"/>
<line fill="none" stroke="#FFFFFF" stroke-width="0.2592" stroke-miterlimit="10" x1="109.337" y1="158.841" x2="107.213" y2="160.965"/>
<line fill="none" stroke="#FFFFFF" stroke-width="0.2592" stroke-miterlimit="10" x1="112.803" y1="158.841" x2="110.679" y2="160.965"/>
<line fill="none" stroke="#FFFFFF" stroke-width="0.2592" stroke-miterlimit="10" x1="116.075" y1="158.841" x2="113.951" y2="160.965"/>
<line fill="none" stroke="#FFFFFF" stroke-width="0.2592" stroke-miterlimit="10" x1="119.087" y1="158.841" x2="116.963" y2="160.965"/>
<line fill="none" stroke="#FFFFFF" stroke-width="0.2592" stroke-miterlimit="10" x1="122.738" y1="158.841" x2="120.614" y2="160.965"/>
<rect x="6.235" y="162.845" fill="#C73A22" width="140.943" height="23.059"/>
<rect x="6.906" y="167.808" fill="none" width="140.291" height="13.525"/>
<g enable-background="new    ">
	<path fill="#FFFFFF" d="M35.241,172.228c0,1.395-0.475,2.489-1.423,3.283c-0.949,0.794-2.249,1.191-3.897,1.191h-0.714l-0.83,4.025
		H25.13l2.565-12.136h3.096c1.433,0,2.533,0.314,3.299,0.942C34.857,170.163,35.241,171.06,35.241,172.228z M29.787,174.046h0.523
		c0.503,0,0.91-0.162,1.22-0.486c0.31-0.323,0.465-0.734,0.465-1.232c0-0.326-0.1-0.59-0.299-0.789s-0.473-0.299-0.822-0.299h-0.49
		L29.787,174.046z"/>
	<path fill="#FFFFFF" d="M39.906,176.312l-0.938,4.416h-3.246l2.565-12.136H41.5c1.395,0,2.462,0.276,3.204,0.83
		s1.112,1.386,1.112,2.499c0,0.863-0.196,1.615-0.589,2.258c-0.393,0.642-0.977,1.131-1.751,1.469l1.859,4.283l0.332,0.797H42.13
		l-1.619-4.416L39.906,176.312L39.906,176.312z M40.429,173.847h0.423c0.526,0,0.943-0.151,1.253-0.453s0.465-0.724,0.465-1.266
		c0-0.343-0.096-0.604-0.286-0.784c-0.191-0.18-0.469-0.271-0.834-0.271h-0.44L40.429,173.847z"/>
	<path fill="#FFFFFF" d="M53.942,168.402c1.439,0,2.558,0.41,3.358,1.232c0.799,0.821,1.199,1.969,1.199,3.44
		s-0.275,2.818-0.826,4.038c-0.55,1.221-1.31,2.155-2.278,2.806s-2.092,0.976-3.37,0.976c-1.489,0-2.638-0.412-3.449-1.236
		c-0.811-0.825-1.216-1.971-1.216-3.438c0-1.466,0.285-2.813,0.855-4.042s1.346-2.165,2.329-2.81
		C51.525,168.724,52.659,168.402,53.942,168.402z M55.221,173.108c0-0.631-0.133-1.125-0.398-1.481
		c-0.266-0.357-0.65-0.535-1.154-0.535c-0.548,0-1.051,0.232-1.511,0.697s-0.826,1.104-1.1,1.917s-0.411,1.646-0.411,2.499
		c0,1.339,0.553,2.008,1.66,2.008c0.526,0,1.014-0.229,1.465-0.688s0.806-1.079,1.063-1.859
		C55.092,174.884,55.221,174.032,55.221,173.108z"/>
	<path fill="#FFFFFF" d="M66.335,171.107c-0.598,0-1.137,0.217-1.619,0.648s-0.859,1.026-1.133,1.784s-0.411,1.58-0.411,2.466
		c0,0.741,0.155,1.295,0.465,1.66s0.755,0.547,1.336,0.547c0.459,0,0.924-0.057,1.395-0.17s1.024-0.306,1.66-0.576v2.681
		c-1.124,0.498-2.341,0.747-3.652,0.747c-1.439,0-2.547-0.411-3.325-1.232c-0.777-0.822-1.166-1.985-1.166-3.49
		c0-1.473,0.281-2.822,0.843-4.051c0.562-1.229,1.325-2.156,2.291-2.781c0.965-0.625,2.071-0.938,3.316-0.938
		c1.466,0,2.797,0.362,3.993,1.087l-1.229,2.532c-0.515-0.305-0.988-0.533-1.419-0.686S66.8,171.107,66.335,171.107z"/>
	<path fill="#FFFFFF" d="M77.209,180.728h-7.205l2.565-12.136h7.206l-0.54,2.632h-3.959l-0.39,1.908h3.686l-0.598,2.632h-3.686
		l-0.473,2.291h3.959L77.209,180.728z"/>
	<path fill="#FFFFFF" d="M87.394,177.001c0,1.229-0.406,2.184-1.22,2.867s-1.948,1.025-3.403,1.025
		c-0.609,0-1.184-0.067-1.727-0.203s-1.01-0.334-1.402-0.594v-2.905c0.465,0.293,0.997,0.54,1.598,0.739
		c0.6,0.199,1.145,0.299,1.631,0.299c0.41,0,0.719-0.086,0.93-0.258s0.315-0.415,0.315-0.73c0-0.149-0.033-0.289-0.1-0.419
		s-0.161-0.261-0.282-0.391s-0.448-0.416-0.979-0.858c-0.647-0.521-1.118-1.052-1.411-1.594c-0.293-0.543-0.439-1.138-0.439-1.785
		c0-0.725,0.181-1.377,0.543-1.955c0.363-0.578,0.875-1.026,1.536-1.345s1.401-0.478,2.22-0.478c1.323,0,2.513,0.297,3.57,0.889
		l-1.121,2.465c-0.946-0.486-1.752-0.73-2.416-0.73c-0.354,0-0.626,0.078-0.817,0.232c-0.19,0.155-0.286,0.383-0.286,0.682
		c0,0.271,0.093,0.523,0.278,0.759c0.185,0.235,0.538,0.55,1.058,0.942c0.653,0.481,1.138,0.988,1.453,1.52
		S87.394,176.315,87.394,177.001z"/>
	<path fill="#FFFFFF" d="M96.708,177.001c0,1.229-0.407,2.184-1.221,2.867s-1.947,1.025-3.403,1.025
		c-0.608,0-1.185-0.067-1.727-0.203s-1.01-0.334-1.403-0.594v-2.905c0.465,0.293,0.998,0.54,1.599,0.739s1.144,0.299,1.631,0.299
		c0.409,0,0.72-0.086,0.93-0.258s0.315-0.415,0.315-0.73c0-0.149-0.033-0.289-0.1-0.419s-0.16-0.261-0.282-0.391
		s-0.448-0.416-0.979-0.858c-0.647-0.521-1.117-1.052-1.411-1.594c-0.294-0.543-0.44-1.138-0.44-1.785
		c0-0.725,0.182-1.377,0.544-1.955s0.874-1.026,1.536-1.345c0.661-0.318,1.401-0.478,2.221-0.478c1.322,0,2.512,0.297,3.568,0.889
		l-1.12,2.465c-0.946-0.486-1.751-0.73-2.415-0.73c-0.354,0-0.627,0.078-0.818,0.232c-0.19,0.155-0.286,0.383-0.286,0.682
		c0,0.271,0.093,0.523,0.278,0.759s0.538,0.55,1.059,0.942c0.652,0.481,1.137,0.988,1.452,1.52S96.708,176.315,96.708,177.001z"/>
	<path fill="#FFFFFF" d="M98.169,180.728l2.564-12.136h3.295l-2.564,12.136H98.169z"/>
	<path fill="#FFFFFF" d="M114.895,180.728h-3.776l-2.399-8.533h-0.066c-0.161,1.61-0.318,2.767-0.474,3.47l-1.07,5.063h-2.889
		l2.564-12.136h3.777l2.374,8.159h0.075c0.16-1.306,0.318-2.332,0.473-3.079l1.088-5.08h2.889L114.895,180.728z"/>
	<path fill="#FFFFFF" d="M123.445,173.623h5.063l-1.386,6.6c-1.384,0.447-2.826,0.672-4.325,0.672c-1.444,0-2.565-0.421-3.362-1.262
		s-1.195-2.033-1.195-3.578c0-1.477,0.305-2.811,0.914-4c0.608-1.19,1.442-2.097,2.502-2.719c1.061-0.623,2.293-0.934,3.698-0.934
		c1.472,0,2.712,0.296,3.719,0.888l-1.22,2.565c-0.848-0.498-1.693-0.748-2.541-0.748c-0.73,0-1.376,0.201-1.938,0.603
		c-0.563,0.401-1.01,0.994-1.346,1.78c-0.334,0.786-0.502,1.624-0.502,2.516c0,1.461,0.578,2.191,1.735,2.191
		c0.349,0,0.717-0.039,1.104-0.117l0.423-1.926h-1.901L123.445,173.623z"/>
</g>
</svg>
