<?xml version="1.0" encoding="utf-8"?>
<!-- Generator: Adobe Illustrator 17.0.0, SVG Export Plug-In . SVG Version: 6.00 Build 0)  -->
<!DOCTYPE svg PUBLIC "-//W3C//DTD SVG 1.1//EN" "http://www.w3.org/Graphics/SVG/1.1/DTD/svg11.dtd">
<svg version="1.1" id="Layer_1" xmlns="http://www.w3.org/2000/svg" xmlns:xlink="http://www.w3.org/1999/xlink" x="0px" y="0px"
	 width="150.667px" height="190.667px" viewBox="0 0 150.667 190.667" enable-background="new 0 0 150.667 190.667"
	 xml:space="preserve">
<path fill="#C09C67" d="M119.998,169.286c0,0-2.792,7.3-7.773,4.527c-4.98-2.772-8.233-6.536-8.233-6.536s0.345-9.902,6.83-12.452
	L119.998,169.286z"/>
<path fill="#BCAC9B" d="M41.262,160.197c0,0-17.74-5.807-14.231-46.214l12.246,8.106C39.277,122.089,35.134,126.93,41.262,160.197z"
	/>
<path fill="#BCAC9B" d="M94.337,78.844c0,0,18.418,10.891,25.662,90.441l-11.713-8.859
	C108.285,160.427,110.606,125.355,94.337,78.844z"/>
<path fill="#BCAC9B" d="M48.368,86.464c0,0-18.097,34.166-9.18,73.733l5.724,6.318C44.912,166.514,35.497,134.027,48.368,86.464z"/>
<path fill="#BCAC9B" d="M35.546,143.64l77.209-0.208l-5.953-36.561l-3.666-13.717l-3.883-8.171c0,0-5.538-7.517-6.643-7.564
	c-1.105-0.048-45.925,1.62-45.925,1.62l-7.729,30.325L35.546,143.64z"/>
<path fill="#194A6D" d="M45.257,85.666l3.015,48.886l-10.754,2.975c0,0-3.089,15.141-1.202,27.84c0,0,45.75,11.937,75.632-3.376
	c0,0,1.162-20.094-2.23-29.538l-10.614-1.122L92.61,77.419l-3.189,2.239l4.852,50.773l-40.156,2.057l-4.913-45.149L45.257,85.666z"
	/>
<path fill="#C09C67" d="M22.019,56.758c0,0,44.874-18.536,93.303-13.088"/>
<path fill="#C09C67" d="M105.593,42.56C71.652,163.03,27.094,54.97,27.094,54.97"/>
<path fill="none" stroke="#8A5D3B" stroke-width="3.0962" stroke-miterlimit="10" d="M14.987,59.519
	c0,0,54.155-23.783,108.684-15.23"/>
<path fill="#8A5D3B" stroke="#8A5D3B" stroke-width="0.4423" stroke-miterlimit="10" d="M105.593,42.56L93.936,4.93L33.264,15.589
	l-8.688,40.25C24.577,55.839,55.718,44.107,105.593,42.56z"/>
<path fill="#C09C67" d="M42.813,54.516"/>
<path fill="#C09C67" d="M113.69,53.508"/>
<ellipse transform="matrix(-0.9991 -0.0431 0.0431 -0.9991 118.2542 138.2446)" cx="60.617" cy="67.848" rx="2.378" ry="2.675"/>
<ellipse transform="matrix(-0.9991 -0.0431 0.0431 -0.9991 155.036 133.2517)" cx="78.954" cy="64.955" rx="2.378" ry="2.675"/>
<path fill="none" stroke="#000000" stroke-width="0.8846" stroke-miterlimit="10" d="M58.575,89.736c0,0,6.102,4.986,9.002,2.75"/>
<path fill="#E33B3B" d="M25.996,102.582c0,0,7.386,15.627,16.426,13.501c0,0,4.82-1.257,3.375-20.926
	C45.797,95.157,36.459,92.119,25.996,102.582z"/>
<path fill="#2AAE58" d="M26.214,103.022c0,0-2.981-2.274,0.62-3.365c0,0-1.855-6.219,4.256-3.601c0,0,1.964-3.704,4.256-0.87
	c0,0,4.474-7.97,6.111-1.749c0,0,3.222-3.296,4.339,1.72C45.797,95.157,33.343,93.922,26.214,103.022z"/>
<path d="M29.683,103.226c-0.073-0.023-0.137-0.003-0.179,0.044c-0.044,0-0.088,0.016-0.123,0.061
	c-0.153,0.198-0.384,0.525-0.204,0.775c0.134,0.186,0.413,0.15,0.601,0.088c0.197-0.065,0.406-0.209,0.447-0.426
	C30.283,103.463,29.913,103.298,29.683,103.226z"/>
<path d="M43.161,110.701c-0.073-0.023-0.137-0.003-0.179,0.044c-0.044,0-0.088,0.016-0.123,0.061
	c-0.153,0.198-0.384,0.525-0.204,0.775c0.134,0.186,0.413,0.15,0.601,0.088c0.197-0.065,0.406-0.209,0.447-0.426
	C43.761,110.939,43.39,110.774,43.161,110.701z"/>
<path d="M38.086,109.064c-0.073-0.023-0.137-0.003-0.179,0.044c-0.044,0-0.088,0.016-0.123,0.061
	c-0.153,0.198-0.384,0.525-0.204,0.775c0.134,0.186,0.413,0.15,0.601,0.088c0.197-0.065,0.406-0.209,0.447-0.426
	C38.687,109.302,38.316,109.137,38.086,109.064z"/>
<path d="M39.163,103.347c-0.073-0.023-0.137-0.003-0.179,0.044c-0.044,0-0.088,0.016-0.123,0.061
	c-0.153,0.198-0.384,0.525-0.204,0.775c0.134,0.186,0.413,0.15,0.601,0.088c0.197-0.065,0.406-0.209,0.447-0.426
	C39.764,103.584,39.393,103.419,39.163,103.347z"/>
<path d="M41.407,106.448c-0.081-0.025-0.151-0.003-0.198,0.049c-0.048-0.001-0.097,0.018-0.136,0.068
	c-0.169,0.219-0.425,0.58-0.225,0.857c0.148,0.206,0.457,0.166,0.665,0.098c0.218-0.072,0.449-0.232,0.495-0.471
	C42.071,106.71,41.661,106.527,41.407,106.448z"/>
<path d="M42.622,97.149c-0.073-0.023-0.137-0.003-0.179,0.044c-0.044,0-0.088,0.016-0.123,0.061
	c-0.153,0.198-0.384,0.525-0.204,0.775c0.134,0.186,0.413,0.15,0.601,0.088c0.197-0.065,0.406-0.209,0.447-0.426
	C43.222,97.386,42.852,97.221,42.622,97.149z"/>
<path d="M35.435,103.03c-0.059-0.018-0.11-0.003-0.145,0.036c-0.035,0-0.071,0.013-0.099,0.05c-0.124,0.16-0.31,0.423-0.164,0.625
	c0.108,0.15,0.333,0.121,0.485,0.071c0.159-0.053,0.328-0.169,0.361-0.344C35.92,103.221,35.621,103.088,35.435,103.03z"/>
<path d="M36.971,99.352c-0.073-0.023-0.137-0.003-0.179,0.044c-0.044,0-0.088,0.016-0.123,0.061
	c-0.153,0.198-0.384,0.525-0.204,0.775c0.134,0.186,0.413,0.15,0.601,0.088c0.197-0.065,0.406-0.209,0.447-0.426
	C37.571,99.589,37.2,99.424,36.971,99.352z"/>
<path d="M32.344,106.41c-0.064-0.02-0.12-0.003-0.158,0.039c-0.038,0-0.077,0.014-0.108,0.054c-0.135,0.174-0.337,0.461-0.179,0.681
	c0.118,0.164,0.363,0.132,0.528,0.078c0.174-0.057,0.357-0.184,0.393-0.374C32.872,106.618,32.546,106.473,32.344,106.41z"/>
<path d="M38.642,112.964c-0.044-0.014-0.083-0.002-0.109,0.027c-0.027,0-0.053,0.01-0.075,0.037
	c-0.093,0.12-0.234,0.319-0.124,0.471c0.082,0.113,0.251,0.091,0.365,0.054c0.12-0.04,0.247-0.127,0.272-0.259
	C39.007,113.109,38.781,113.008,38.642,112.964z"/>
<path d="M42.596,102.24c-0.044-0.014-0.083-0.002-0.109,0.027c-0.027,0-0.053,0.01-0.075,0.037c-0.093,0.12-0.234,0.319-0.124,0.471
	c0.082,0.113,0.251,0.091,0.365,0.054c0.12-0.04,0.247-0.127,0.272-0.259C42.961,102.384,42.736,102.284,42.596,102.24z"/>
<path d="M36.039,107.548c-0.044-0.014-0.083-0.002-0.109,0.027c-0.027,0-0.053,0.01-0.075,0.037
	c-0.093,0.12-0.234,0.319-0.124,0.471c0.082,0.113,0.251,0.091,0.365,0.054c0.12-0.04,0.247-0.127,0.272-0.259
	C36.404,107.692,36.178,107.592,36.039,107.548z"/>
<path d="M34.981,111.413c-0.044-0.014-0.083-0.002-0.109,0.027c-0.027,0-0.053,0.01-0.075,0.037
	c-0.093,0.12-0.234,0.319-0.124,0.471c0.082,0.113,0.251,0.091,0.365,0.054c0.12-0.04,0.247-0.127,0.272-0.259
	C35.346,111.558,35.121,111.457,34.981,111.413z"/>
<path d="M41.363,114.28c-0.044-0.014-0.083-0.002-0.109,0.027c-0.027,0-0.053,0.01-0.075,0.037c-0.093,0.12-0.234,0.319-0.124,0.471
	c0.082,0.113,0.251,0.091,0.365,0.054c0.12-0.04,0.247-0.127,0.272-0.259C41.728,114.425,41.503,114.324,41.363,114.28z"/>
<path d="M40.059,100.064c-0.044-0.014-0.083-0.002-0.109,0.027c-0.027,0-0.053,0.01-0.075,0.037
	c-0.093,0.12-0.234,0.319-0.124,0.471c0.082,0.113,0.251,0.091,0.365,0.054c0.12-0.04,0.247-0.127,0.272-0.259
	C40.424,100.208,40.199,100.107,40.059,100.064z"/>
<path opacity="0.1" enable-background="new    " d="M43.709,114.897c0,0-0.56,1.661-3.657,1.355c0,0-2.446-0.379-3.028-0.858
	c0,0-2.605-1.33-3.102-2.054c0,0-3.242-2.978-3.945-4.285c0,0-3.478-4.966-3.763-6.033c0,0-2.719-1.951,0.063-3.165l1.069,1.851
	C27.346,101.707,38.084,116.997,43.709,114.897z"/>
<path fill="#C09C67" d="M27.031,113.982c0,0,0.107-11.458,5.637-10.076s9.649,4.171,9.649,4.171s2.241,9.651-3.359,13.8
	L27.031,113.982z"/>
<path fill="none" stroke="#725122" stroke-width="1.0368" stroke-miterlimit="10" d="M53.619,139.528"/>
<path fill="#E33B3B" d="M55.53,123.653c0,0,7.75,10.037,13.893,7.092c0,0,3.256-1.658-0.872-15.526
	C68.552,115.219,61.383,114.51,55.53,123.653z"/>
<path fill="#2AAE58" d="M55.756,123.934c0,0-2.494-1.161-0.085-2.509c0,0-2.307-4.165,2.484-3.249c0,0,0.825-2.963,2.913-1.293
	c0,0,1.953-6.415,4.104-2.214c0,0,1.791-2.869,3.38,0.55C68.552,115.219,59.433,116.292,55.756,123.934z"/>
<path d="M58.274,123.534c-0.056-0.005-0.098,0.019-0.122,0.06c-0.031,0.007-0.06,0.026-0.078,0.063
	c-0.079,0.166-0.193,0.436-0.024,0.587c0.125,0.112,0.32,0.043,0.444-0.031c0.131-0.078,0.258-0.214,0.254-0.375
	C58.741,123.61,58.449,123.55,58.274,123.534z"/>
<path d="M69.107,126.772c-0.056-0.005-0.098,0.019-0.122,0.06c-0.031,0.007-0.06,0.026-0.078,0.063
	c-0.079,0.166-0.193,0.436-0.024,0.587c0.125,0.112,0.32,0.043,0.444-0.031c0.131-0.078,0.258-0.214,0.254-0.375
	C69.574,126.848,69.282,126.788,69.107,126.772z"/>
<path d="M65.213,126.397c-0.056-0.005-0.098,0.019-0.122,0.06c-0.031,0.007-0.06,0.026-0.078,0.063
	c-0.079,0.166-0.193,0.436-0.024,0.587c0.125,0.112,0.32,0.043,0.444-0.031c0.131-0.078,0.258-0.214,0.254-0.375
	C65.68,126.473,65.389,126.413,65.213,126.397z"/>
<path d="M65.086,122.131c-0.056-0.005-0.098,0.019-0.122,0.06c-0.031,0.007-0.06,0.026-0.078,0.063
	c-0.079,0.166-0.193,0.436-0.024,0.587c0.125,0.112,0.32,0.043,0.444-0.031c0.131-0.078,0.258-0.214,0.254-0.375
	C65.553,122.206,65.261,122.146,65.086,122.131z"/>
<path d="M67.181,124c-0.062-0.005-0.109,0.021-0.134,0.066c-0.035,0.007-0.067,0.028-0.087,0.07
	c-0.087,0.183-0.213,0.483-0.027,0.649c0.139,0.124,0.354,0.047,0.492-0.034c0.145-0.086,0.286-0.237,0.28-0.415
	C67.698,124.083,67.376,124.017,67.181,124z"/>
<path d="M66.59,117.145c-0.056-0.005-0.098,0.019-0.122,0.06c-0.031,0.007-0.06,0.026-0.078,0.063
	c-0.079,0.166-0.193,0.436-0.024,0.587c0.125,0.112,0.32,0.043,0.444-0.031c0.131-0.078,0.258-0.214,0.254-0.375
	C67.057,117.221,66.766,117.161,66.59,117.145z"/>
<path d="M62.365,122.489c-0.045-0.004-0.079,0.016-0.098,0.048c-0.025,0.005-0.049,0.021-0.063,0.051
	c-0.063,0.134-0.155,0.352-0.02,0.474c0.101,0.091,0.258,0.035,0.359-0.025c0.106-0.063,0.208-0.173,0.205-0.303
	C62.742,122.55,62.506,122.502,62.365,122.489z"/>
<path d="M62.887,119.612c-0.056-0.005-0.098,0.019-0.122,0.06c-0.031,0.007-0.06,0.026-0.078,0.063
	c-0.079,0.166-0.193,0.436-0.024,0.587c0.125,0.112,0.32,0.043,0.444-0.031c0.131-0.078,0.258-0.214,0.254-0.375
	C63.354,119.688,63.062,119.628,62.887,119.612z"/>
<path d="M60.681,125.397c-0.049-0.004-0.086,0.017-0.107,0.053c-0.028,0.006-0.053,0.022-0.069,0.056
	c-0.069,0.146-0.169,0.383-0.021,0.516c0.11,0.099,0.281,0.038,0.391-0.027c0.115-0.068,0.227-0.188,0.223-0.33
	C61.092,125.464,60.836,125.411,60.681,125.397z"/>
<path d="M66.224,129.104c-0.034-0.003-0.06,0.012-0.074,0.036c-0.019,0.004-0.037,0.016-0.048,0.039
	c-0.048,0.101-0.117,0.265-0.015,0.357c0.076,0.068,0.194,0.026,0.27-0.019c0.08-0.047,0.157-0.13,0.154-0.228
	C66.508,129.15,66.331,129.114,66.224,129.104z"/>
<path d="M67.372,120.798c-0.034-0.003-0.06,0.012-0.074,0.036c-0.019,0.004-0.037,0.016-0.048,0.038
	c-0.048,0.101-0.117,0.265-0.015,0.357c0.076,0.068,0.194,0.026,0.27-0.019c0.08-0.047,0.157-0.13,0.154-0.228
	C67.656,120.844,67.479,120.807,67.372,120.798z"/>
<path d="M63.507,125.632c-0.034-0.003-0.06,0.012-0.074,0.036c-0.019,0.004-0.037,0.016-0.048,0.039
	c-0.048,0.101-0.117,0.265-0.015,0.357c0.076,0.068,0.194,0.026,0.27-0.019c0.08-0.047,0.157-0.13,0.154-0.228
	C63.791,125.678,63.614,125.642,63.507,125.632z"/>
<path d="M63.357,128.568c-0.034-0.003-0.06,0.012-0.074,0.036c-0.019,0.004-0.037,0.016-0.048,0.038
	c-0.048,0.101-0.117,0.265-0.015,0.357c0.076,0.068,0.194,0.026,0.27-0.019c0.08-0.047,0.157-0.13,0.154-0.228
	C63.642,128.614,63.464,128.578,63.357,128.568z"/>
<path d="M68.381,129.619c-0.034-0.003-0.06,0.012-0.074,0.036c-0.019,0.004-0.037,0.016-0.048,0.039
	c-0.048,0.101-0.117,0.265-0.015,0.357c0.076,0.068,0.194,0.026,0.27-0.019c0.08-0.047,0.157-0.13,0.154-0.228
	C68.666,129.665,68.488,129.629,68.381,129.619z"/>
<path d="M65.212,119.637c-0.034-0.003-0.06,0.012-0.074,0.036c-0.019,0.004-0.037,0.016-0.048,0.038
	c-0.048,0.101-0.117,0.265-0.015,0.357c0.076,0.068,0.194,0.026,0.27-0.019c0.08-0.047,0.157-0.13,0.154-0.228
	C65.496,119.683,65.318,119.646,65.212,119.637z"/>
<path opacity="0.1" enable-background="new    " d="M70.159,129.692c0,0-0.14,1.278-2.408,1.546c0,0-1.812,0.113-2.305-0.138
	c0,0-2.076-0.543-2.546-0.984c0,0-2.792-1.624-3.501-2.45c0,0-3.273-3.012-3.645-3.732c0,0-2.255-0.971-0.453-2.278l1.057,1.158
	C56.36,122.814,66.459,132.081,70.159,129.692z"/>
<path fill="#E33B3B" d="M69.034,119.99c0,0,2.131,12.5,8.938,12.783c0,0,3.654,0.064,6.519-14.118
	C84.491,118.655,78.493,114.664,69.034,119.99z"/>
<path fill="#2AAE58" d="M69.101,120.344c0,0-1.657-2.195,1.103-2.255c0,0-0.082-4.76,3.718-1.703c0,0,2.12-2.229,3.179,0.226
	c0,0,4.736-4.747,4.663-0.029c0,0,2.928-1.692,2.726,2.073C84.491,118.655,75.935,115.323,69.101,120.344z"/>
<path d="M71.512,121.173c-0.047-0.031-0.096-0.029-0.135-0.004c-0.031-0.009-0.065-0.006-0.099,0.019
	c-0.147,0.109-0.375,0.295-0.297,0.507c0.058,0.158,0.262,0.188,0.407,0.181c0.152-0.007,0.328-0.068,0.4-0.212
	C71.889,121.46,71.66,121.27,71.512,121.173z"/>
<path d="M79.557,129.117c-0.047-0.031-0.096-0.029-0.135-0.004c-0.031-0.009-0.065-0.006-0.099,0.019
	c-0.147,0.109-0.375,0.295-0.297,0.507c0.058,0.158,0.262,0.188,0.407,0.181c0.152-0.007,0.328-0.068,0.4-0.212
	C79.935,129.404,79.705,129.214,79.557,129.117z"/>
<path d="M76.295,126.958c-0.047-0.031-0.096-0.029-0.135-0.004c-0.031-0.009-0.065-0.006-0.099,0.019
	c-0.147,0.109-0.375,0.295-0.297,0.507c0.058,0.158,0.262,0.188,0.407,0.181c0.152-0.007,0.328-0.068,0.4-0.212
	C76.673,127.245,76.443,127.055,76.295,126.958z"/>
<path d="M78.186,123.132c-0.047-0.031-0.096-0.029-0.135-0.004c-0.031-0.009-0.065-0.006-0.099,0.019
	c-0.147,0.109-0.375,0.295-0.297,0.507c0.058,0.158,0.262,0.188,0.407,0.181c0.152-0.007,0.328-0.068,0.4-0.212
	C78.563,123.418,78.334,123.228,78.186,123.132z"/>
<path d="M79.159,125.766c-0.052-0.034-0.106-0.032-0.15-0.005c-0.034-0.01-0.072-0.006-0.109,0.021
	c-0.163,0.121-0.415,0.326-0.328,0.561c0.064,0.175,0.29,0.208,0.45,0.2c0.169-0.008,0.363-0.075,0.443-0.235
	C79.576,126.082,79.322,125.872,79.159,125.766z"/>
<path d="M81.854,119.436c-0.047-0.031-0.096-0.029-0.135-0.004c-0.031-0.009-0.065-0.006-0.099,0.019
	c-0.147,0.109-0.375,0.295-0.297,0.507c0.058,0.158,0.262,0.188,0.407,0.181c0.152-0.007,0.328-0.068,0.4-0.212
	C82.231,119.722,82.002,119.532,81.854,119.436z"/>
<path d="M75.615,122.171c-0.038-0.025-0.077-0.024-0.109-0.003c-0.025-0.007-0.053-0.005-0.08,0.015
	c-0.119,0.088-0.303,0.238-0.24,0.409c0.047,0.127,0.212,0.152,0.328,0.146c0.123-0.006,0.265-0.055,0.323-0.171
	C75.919,122.402,75.734,122.249,75.615,122.171z"/>
<path d="M77.426,119.876c-0.047-0.031-0.096-0.029-0.135-0.004c-0.031-0.009-0.065-0.006-0.099,0.019
	c-0.147,0.109-0.375,0.295-0.297,0.507c0.058,0.158,0.262,0.188,0.407,0.181c0.152-0.007,0.328-0.068,0.4-0.212
	C77.803,120.162,77.574,119.972,77.426,119.876z"/>
<path d="M72.763,123.948c-0.041-0.027-0.084-0.026-0.119-0.004c-0.027-0.008-0.057-0.005-0.087,0.017
	c-0.129,0.096-0.33,0.259-0.261,0.446c0.051,0.139,0.23,0.165,0.358,0.159c0.134-0.006,0.289-0.059,0.352-0.187
	C73.095,124.2,72.893,124.033,72.763,123.948z"/>
<path d="M75.917,129.823c-0.029-0.019-0.058-0.018-0.082-0.003c-0.019-0.005-0.04-0.004-0.06,0.012
	c-0.09,0.067-0.228,0.179-0.181,0.308c0.035,0.096,0.159,0.114,0.248,0.11c0.093-0.004,0.2-0.041,0.243-0.129
	C76.147,129.998,76.007,129.882,75.917,129.823z"/>
<path d="M80.83,123.028c-0.029-0.019-0.058-0.018-0.082-0.003c-0.019-0.005-0.04-0.004-0.06,0.012
	c-0.09,0.067-0.228,0.179-0.181,0.308c0.035,0.096,0.159,0.114,0.248,0.11c0.093-0.004,0.2-0.041,0.243-0.129
	C81.059,123.202,80.92,123.086,80.83,123.028z"/>
<path d="M75.148,125.483c-0.029-0.019-0.058-0.018-0.082-0.003c-0.019-0.005-0.04-0.004-0.06,0.012
	c-0.09,0.067-0.228,0.179-0.181,0.308c0.035,0.096,0.159,0.114,0.248,0.11c0.093-0.004,0.2-0.041,0.243-0.129
	C75.378,125.657,75.238,125.541,75.148,125.483z"/>
<path d="M73.638,128.004c-0.029-0.019-0.058-0.018-0.082-0.003c-0.019-0.005-0.04-0.004-0.06,0.012
	c-0.09,0.067-0.228,0.179-0.181,0.308c0.035,0.096,0.159,0.114,0.248,0.11c0.093-0.004,0.2-0.041,0.243-0.129
	C73.867,128.179,73.728,128.063,73.638,128.004z"/>
<path d="M77.58,131.291c-0.029-0.019-0.058-0.018-0.082-0.003c-0.019-0.005-0.04-0.004-0.06,0.012
	c-0.09,0.067-0.228,0.179-0.181,0.308c0.035,0.096,0.159,0.114,0.248,0.11c0.093-0.004,0.2-0.041,0.243-0.129
	C77.81,131.465,77.67,131.349,77.58,131.291z"/>
<path d="M79.467,120.989c-0.029-0.019-0.058-0.018-0.082-0.003c-0.019-0.005-0.04-0.004-0.06,0.012
	c-0.09,0.067-0.228,0.179-0.181,0.308c0.035,0.096,0.159,0.114,0.248,0.11c0.093-0.004,0.2-0.041,0.243-0.129
	C79.697,121.163,79.557,121.047,79.467,120.989z"/>
<path opacity="0.1" enable-background="new    " d="M79.116,132.19c0,0-0.724,1.063-2.851,0.235c0,0-1.653-0.751-1.97-1.204
	c0,0-1.578-1.454-1.786-2.064c0,0-1.702-2.745-1.941-3.807c0,0-1.476-4.196-1.466-5.006c0,0-1.535-1.916,0.67-2.224l0.39,1.519
	C70.161,119.639,74.727,132.562,79.116,132.19z"/>
<path fill="#E33B3B" d="M48.016,139.934c0,0,10.652,6.879,15.462,2.055c0,0,2.517-2.649-5.998-14.347
	C57.481,127.642,50.486,129.363,48.016,139.934z"/>
<path fill="#2AAE58" d="M48.322,140.124c0,0-2.738-0.263-0.916-2.337c0,0-3.564-3.157,1.258-3.891c0,0-0.21-3.069,2.315-2.19
	c0,0-0.297-6.699,3.131-3.456c0,0,0.732-3.302,3.37-0.608C57.481,127.642,49.242,131.694,48.322,140.124z"/>
<path d="M50.563,138.908c-0.054,0.014-0.086,0.051-0.095,0.097c-0.027,0.017-0.048,0.044-0.053,0.086
	c-0.019,0.183-0.036,0.476,0.173,0.562c0.156,0.064,0.316-0.066,0.409-0.177c0.098-0.117,0.172-0.288,0.114-0.438
	C51.029,138.824,50.734,138.864,50.563,138.908z"/>
<path d="M61.856,138.349c-0.054,0.014-0.086,0.051-0.095,0.097c-0.027,0.017-0.048,0.044-0.053,0.086
	c-0.019,0.183-0.036,0.476,0.173,0.562c0.156,0.064,0.316-0.066,0.409-0.177c0.098-0.117,0.172-0.288,0.114-0.438
	C62.322,138.265,62.027,138.305,61.856,138.349z"/>
<path d="M58.06,139.294c-0.054,0.014-0.086,0.051-0.095,0.097c-0.027,0.017-0.048,0.044-0.053,0.086
	c-0.019,0.183-0.036,0.476,0.173,0.562c0.156,0.064,0.316-0.066,0.409-0.177c0.098-0.117,0.172-0.288,0.114-0.438
	C58.526,139.209,58.231,139.25,58.06,139.294z"/>
<path d="M56.518,135.314c-0.054,0.014-0.086,0.051-0.095,0.097c-0.027,0.017-0.048,0.044-0.053,0.086
	c-0.019,0.183-0.036,0.476,0.173,0.562c0.156,0.064,0.316-0.066,0.409-0.177c0.098-0.117,0.172-0.288,0.114-0.438
	C56.983,135.229,56.688,135.27,56.518,135.314z"/>
<path d="M59.116,136.377c-0.06,0.015-0.095,0.056-0.105,0.107c-0.03,0.018-0.053,0.049-0.058,0.095
	c-0.021,0.202-0.04,0.526,0.191,0.621c0.172,0.071,0.349-0.073,0.452-0.196c0.108-0.129,0.19-0.318,0.126-0.485
	C59.632,136.284,59.305,136.329,59.116,136.377z"/>
<path d="M56.274,130.112c-0.054,0.014-0.086,0.051-0.095,0.097c-0.027,0.017-0.048,0.044-0.053,0.086
	c-0.019,0.183-0.036,0.476,0.173,0.562c0.156,0.064,0.316-0.066,0.409-0.177c0.098-0.117,0.172-0.288,0.114-0.438
	C56.74,130.028,56.445,130.068,56.274,130.112z"/>
<path d="M54.072,136.559c-0.044,0.011-0.07,0.041-0.076,0.078c-0.022,0.013-0.039,0.036-0.042,0.069
	c-0.015,0.147-0.029,0.384,0.139,0.453c0.126,0.052,0.255-0.053,0.33-0.143c0.079-0.094,0.139-0.232,0.092-0.354
	C54.448,136.491,54.21,136.524,54.072,136.559z"/>
<path d="M53.605,133.673c-0.054,0.014-0.086,0.051-0.095,0.097c-0.027,0.017-0.048,0.044-0.053,0.086
	c-0.019,0.183-0.036,0.476,0.173,0.562c0.156,0.064,0.316-0.066,0.409-0.177c0.098-0.117,0.172-0.288,0.114-0.438
	C54.071,133.588,53.776,133.629,53.605,133.673z"/>
<path d="M53.454,139.862c-0.048,0.012-0.076,0.045-0.083,0.085c-0.024,0.015-0.042,0.039-0.046,0.075
	c-0.017,0.16-0.032,0.418,0.152,0.494c0.137,0.056,0.278-0.058,0.359-0.156c0.086-0.103,0.151-0.253,0.1-0.385
	C53.863,139.787,53.604,139.823,53.454,139.862z"/>
<path d="M59.916,141.509c-0.033,0.008-0.052,0.031-0.058,0.059c-0.017,0.01-0.029,0.027-0.032,0.052
	c-0.011,0.111-0.022,0.289,0.105,0.342c0.095,0.039,0.192-0.04,0.249-0.108c0.059-0.071,0.105-0.175,0.069-0.267
	C60.199,141.457,60.02,141.482,59.916,141.509z"/>
<path d="M58.228,133.295c-0.033,0.008-0.052,0.031-0.058,0.059c-0.017,0.01-0.029,0.027-0.032,0.052
	c-0.011,0.111-0.022,0.289,0.105,0.342c0.095,0.039,0.192-0.04,0.249-0.108c0.059-0.071,0.105-0.175,0.069-0.267
	C58.512,133.243,58.332,133.268,58.228,133.295z"/>
<path d="M56.197,139.141c-0.033,0.008-0.052,0.031-0.058,0.059c-0.017,0.01-0.029,0.027-0.032,0.052
	c-0.011,0.111-0.022,0.289,0.105,0.342c0.095,0.039,0.192-0.04,0.249-0.108c0.059-0.071,0.105-0.175,0.069-0.267
	C56.48,139.09,56.301,139.115,56.197,139.141z"/>
<path d="M57.034,141.959c-0.033,0.008-0.052,0.031-0.058,0.059c-0.017,0.01-0.029,0.027-0.032,0.052
	c-0.011,0.111-0.022,0.289,0.105,0.342c0.095,0.039,0.192-0.04,0.249-0.108c0.059-0.071,0.105-0.175,0.069-0.267
	C57.317,141.908,57.138,141.933,57.034,141.959z"/>
<path d="M62.121,141.275c-0.033,0.008-0.052,0.031-0.058,0.059c-0.017,0.01-0.029,0.027-0.032,0.052
	c-0.011,0.111-0.022,0.289,0.105,0.342c0.095,0.039,0.192-0.04,0.249-0.108c0.059-0.071,0.105-0.175,0.069-0.267
	C62.404,141.224,62.225,141.249,62.121,141.275z"/>
<path d="M55.805,132.921c-0.033,0.008-0.052,0.031-0.058,0.059c-0.017,0.01-0.029,0.027-0.032,0.052
	c-0.011,0.111-0.022,0.289,0.105,0.342c0.095,0.039,0.192-0.04,0.249-0.108c0.059-0.071,0.105-0.175,0.069-0.267
	C56.088,132.869,55.909,132.894,55.805,132.921z"/>
<path opacity="0.1" enable-background="new    " d="M63.822,140.751c0,0,0.294,1.252-1.754,2.26c0,0-1.671,0.711-2.219,0.638
	c0,0-2.138,0.18-2.728-0.079c0,0-3.173-0.601-4.117-1.143c0,0-4.09-1.748-4.68-2.303c0,0-2.45-0.163-1.186-1.997l1.383,0.739
	C48.519,138.866,61.129,144.238,63.822,140.751z"/>
<path fill="#E33B3B" d="M59.526,131.979c0,0,6.177,11.074,12.689,9.072c0,0,3.466-1.157,1.439-15.484
	C73.654,125.568,66.669,123.805,59.526,131.979z"/>
<path fill="#2AAE58" d="M59.708,132.291c0,0-2.294-1.517,0.288-2.494c0,0-1.664-4.461,2.938-2.845c0,0,1.255-2.808,3.072-0.847
	c0,0,2.882-6.054,4.387-1.582c0,0,2.196-2.572,3.261,1.045C73.654,125.568,64.477,125.279,59.708,132.291z"/>
<path d="M62.257,132.269c-0.054-0.013-0.1,0.004-0.129,0.041c-0.032,0.002-0.063,0.016-0.087,0.051
	c-0.102,0.152-0.255,0.403-0.111,0.577c0.107,0.13,0.31,0.09,0.444,0.035c0.141-0.057,0.287-0.173,0.306-0.334
	C62.708,132.413,62.428,132.31,62.257,132.269z"/>
<path d="M72.491,137.076c-0.054-0.013-0.1,0.004-0.129,0.041c-0.032,0.002-0.063,0.016-0.087,0.051
	c-0.102,0.152-0.255,0.403-0.111,0.577c0.107,0.13,0.31,0.09,0.444,0.035c0.141-0.057,0.287-0.173,0.306-0.334
	C72.942,137.22,72.662,137.118,72.491,137.076z"/>
<path d="M68.695,136.128c-0.054-0.013-0.1,0.004-0.129,0.041c-0.032,0.002-0.063,0.016-0.087,0.051
	c-0.102,0.152-0.255,0.403-0.111,0.577c0.107,0.13,0.31,0.09,0.444,0.035c0.141-0.057,0.287-0.173,0.306-0.334
	C69.147,136.272,68.867,136.17,68.695,136.128z"/>
<path d="M69.202,131.89c-0.054-0.013-0.1,0.004-0.129,0.041c-0.032,0.002-0.063,0.016-0.087,0.051
	c-0.102,0.152-0.255,0.403-0.111,0.577c0.107,0.13,0.31,0.09,0.444,0.035c0.141-0.057,0.287-0.173,0.306-0.334
	C69.653,132.034,69.373,131.932,69.202,131.89z"/>
<path d="M70.997,134.049c-0.06-0.015-0.111,0.005-0.143,0.046c-0.035,0.002-0.07,0.018-0.096,0.056
	c-0.113,0.168-0.282,0.446-0.123,0.638c0.119,0.143,0.343,0.099,0.491,0.039c0.156-0.064,0.317-0.192,0.339-0.369
	C71.496,134.209,71.187,134.095,70.997,134.049z"/>
<path d="M71.428,127.183c-0.054-0.013-0.1,0.004-0.129,0.041c-0.032,0.002-0.063,0.016-0.087,0.051
	c-0.102,0.152-0.255,0.403-0.111,0.577c0.107,0.13,0.31,0.09,0.444,0.035c0.141-0.057,0.287-0.173,0.306-0.334
	C71.879,127.327,71.6,127.224,71.428,127.183z"/>
<path d="M66.458,131.842c-0.044-0.011-0.081,0.004-0.104,0.033c-0.026,0.001-0.051,0.013-0.07,0.041
	c-0.083,0.123-0.206,0.325-0.09,0.466c0.087,0.105,0.25,0.072,0.358,0.028c0.114-0.046,0.232-0.14,0.247-0.269
	C66.822,131.958,66.596,131.875,66.458,131.842z"/>
<path d="M67.4,129.074c-0.054-0.013-0.1,0.004-0.129,0.041c-0.032,0.002-0.063,0.016-0.087,0.051
	c-0.102,0.152-0.255,0.403-0.111,0.577c0.107,0.13,0.31,0.09,0.444,0.035c0.141-0.057,0.287-0.173,0.306-0.334
	C67.851,129.218,67.572,129.115,67.4,129.074z"/>
<path d="M64.362,134.468c-0.048-0.012-0.088,0.004-0.113,0.036c-0.028,0.002-0.056,0.014-0.076,0.045
	c-0.09,0.134-0.224,0.354-0.098,0.507c0.094,0.114,0.272,0.079,0.39,0.031c0.124-0.05,0.252-0.152,0.269-0.293
	C64.758,134.595,64.513,134.504,64.362,134.468z"/>
<path d="M69.294,138.956c-0.033-0.008-0.061,0.003-0.079,0.025c-0.019,0.001-0.039,0.01-0.053,0.031
	c-0.062,0.093-0.155,0.245-0.067,0.351c0.065,0.079,0.188,0.055,0.27,0.021c0.086-0.035,0.175-0.105,0.186-0.203
	C69.569,139.043,69.399,138.981,69.294,138.956z"/>
<path d="M71.66,130.911c-0.033-0.008-0.061,0.003-0.079,0.025c-0.019,0.001-0.039,0.01-0.053,0.031
	c-0.062,0.093-0.155,0.245-0.067,0.351c0.065,0.079,0.188,0.055,0.27,0.021c0.086-0.035,0.175-0.105,0.186-0.203
	C71.935,130.998,71.765,130.936,71.66,130.911z"/>
<path d="M67.122,135.119c-0.033-0.008-0.061,0.003-0.079,0.025c-0.019,0.001-0.039,0.01-0.053,0.031
	c-0.062,0.093-0.155,0.245-0.067,0.351c0.065,0.079,0.188,0.055,0.27,0.021c0.086-0.035,0.175-0.105,0.186-0.203
	C67.396,135.207,67.226,135.145,67.122,135.119z"/>
<path d="M66.539,138.001c-0.033-0.008-0.061,0.003-0.079,0.025c-0.019,0.001-0.039,0.01-0.053,0.031
	c-0.062,0.093-0.155,0.245-0.067,0.351c0.065,0.079,0.188,0.055,0.27,0.021c0.086-0.035,0.175-0.105,0.186-0.203
	C66.813,138.088,66.643,138.026,66.539,138.001z"/>
<path d="M71.351,139.785c-0.033-0.008-0.061,0.003-0.079,0.025c-0.019,0.001-0.039,0.01-0.053,0.031
	c-0.062,0.093-0.155,0.245-0.067,0.351c0.065,0.079,0.188,0.055,0.27,0.021c0.086-0.035,0.175-0.105,0.186-0.203
	C71.626,139.872,71.456,139.81,71.351,139.785z"/>
<path d="M69.696,129.443c-0.033-0.008-0.061,0.003-0.079,0.025c-0.019,0.001-0.039,0.01-0.053,0.031
	c-0.062,0.093-0.155,0.245-0.067,0.351c0.065,0.079,0.188,0.055,0.27,0.021c0.086-0.035,0.175-0.105,0.186-0.203
	C69.97,129.53,69.8,129.468,69.696,129.443z"/>
<path opacity="0.1" enable-background="new    " d="M73.099,140.12c0,0-0.328,1.243-2.61,1.172c0,0-1.809-0.157-2.259-0.479
	c0,0-1.973-0.845-2.372-1.351c0,0-2.52-2.02-3.099-2.942c0,0-2.79-3.463-3.051-4.231c0,0-2.086-1.294-0.11-2.32l0.874,1.302
	C60.471,131.272,69.085,141.935,73.099,140.12z"/>
<path fill="#E33B3B" d="M81.028,123.852c0,0,0.788,12.656,7.526,13.663c0,0,3.626,0.453,7.985-13.344
	C96.539,124.171,91.001,119.564,81.028,123.852z"/>
<path fill="#2AAE58" d="M79.41,124.597c0,0-1.414-2.359,1.337-2.125c0,0,0.425-4.742,3.879-1.297c0,0,2.345-1.991,3.137,0.563
	c0,0,5.214-4.216,4.64,0.468c0,0,3.091-1.371,2.49,2.351C94.892,124.557,86.74,120.333,79.41,124.597z"/>
<path d="M81.719,125.679c-0.043-0.035-0.092-0.039-0.134-0.019c-0.03-0.012-0.064-0.013-0.1,0.009
	c-0.158,0.093-0.404,0.253-0.349,0.472c0.041,0.163,0.241,0.215,0.385,0.223c0.152,0.009,0.334-0.032,0.42-0.169
	C82.064,126.004,81.856,125.79,81.719,125.679z"/>
<path d="M88.873,134.435c-0.043-0.035-0.092-0.039-0.134-0.019c-0.03-0.012-0.064-0.013-0.1,0.009
	c-0.158,0.093-0.404,0.253-0.349,0.473c0.041,0.163,0.241,0.215,0.385,0.223c0.152,0.009,0.334-0.032,0.42-0.169
	C89.217,134.759,89.01,134.546,88.873,134.435z"/>
<path d="M85.859,131.94c-0.043-0.035-0.092-0.039-0.134-0.019c-0.03-0.012-0.064-0.013-0.1,0.009
	c-0.158,0.093-0.404,0.253-0.349,0.472c0.041,0.163,0.241,0.215,0.385,0.224c0.152,0.009,0.334-0.032,0.42-0.169
	C86.204,132.265,85.996,132.052,85.859,131.94z"/>
<path d="M88.147,128.337c-0.043-0.035-0.092-0.039-0.134-0.019c-0.03-0.012-0.064-0.013-0.1,0.009
	c-0.158,0.093-0.404,0.253-0.349,0.473c0.041,0.163,0.241,0.215,0.385,0.223c0.152,0.009,0.334-0.032,0.42-0.169
	C88.491,128.661,88.283,128.448,88.147,128.337z"/>
<path d="M88.833,131.059c-0.048-0.039-0.102-0.043-0.149-0.021c-0.033-0.013-0.071-0.014-0.111,0.009
	c-0.175,0.103-0.447,0.28-0.386,0.523c0.045,0.181,0.266,0.238,0.426,0.247c0.168,0.01,0.369-0.036,0.465-0.187
	C89.215,131.419,88.985,131.183,88.833,131.059z"/>
<path d="M92.187,125.053c-0.043-0.035-0.092-0.039-0.134-0.019c-0.03-0.012-0.064-0.013-0.1,0.009
	c-0.158,0.093-0.404,0.253-0.349,0.473c0.041,0.163,0.241,0.215,0.385,0.223c0.152,0.009,0.334-0.032,0.42-0.169
	C92.532,125.377,92.324,125.164,92.187,125.053z"/>
<path d="M85.692,127.108c-0.035-0.029-0.074-0.032-0.108-0.015c-0.024-0.01-0.052-0.01-0.081,0.007
	c-0.128,0.075-0.326,0.204-0.282,0.381c0.033,0.132,0.194,0.173,0.311,0.18c0.123,0.007,0.269-0.026,0.339-0.136
	C85.97,127.37,85.803,127.198,85.692,127.108z"/>
<path d="M87.738,125.019c-0.043-0.035-0.092-0.039-0.134-0.019c-0.03-0.012-0.064-0.013-0.1,0.009
	c-0.158,0.093-0.404,0.253-0.349,0.472c0.041,0.163,0.241,0.215,0.385,0.224c0.152,0.009,0.334-0.032,0.42-0.169
	C88.082,125.343,87.874,125.13,87.738,125.019z"/>
<path d="M82.668,128.571c-0.038-0.031-0.081-0.034-0.118-0.016c-0.026-0.011-0.056-0.011-0.088,0.008
	c-0.139,0.082-0.355,0.223-0.307,0.415c0.036,0.144,0.212,0.189,0.339,0.196c0.134,0.008,0.293-0.028,0.37-0.148
	C82.971,128.857,82.788,128.669,82.668,128.571z"/>
<path d="M85.178,134.749c-0.026-0.022-0.056-0.024-0.082-0.011c-0.018-0.007-0.039-0.008-0.061,0.005
	c-0.096,0.057-0.246,0.154-0.212,0.287c0.025,0.099,0.146,0.131,0.234,0.136c0.093,0.006,0.203-0.02,0.256-0.103
	C85.388,134.947,85.262,134.817,85.178,134.749z"/>
<path d="M90.787,128.515c-0.026-0.022-0.056-0.024-0.082-0.011c-0.018-0.007-0.039-0.008-0.061,0.005
	c-0.096,0.057-0.246,0.154-0.212,0.287c0.025,0.099,0.146,0.131,0.234,0.136c0.093,0.006,0.203-0.02,0.256-0.103
	C90.996,128.713,90.87,128.583,90.787,128.515z"/>
<path d="M84.876,130.351c-0.026-0.022-0.056-0.024-0.082-0.011c-0.018-0.007-0.039-0.008-0.061,0.005
	c-0.096,0.057-0.246,0.154-0.212,0.287c0.025,0.099,0.146,0.131,0.234,0.136c0.093,0.006,0.203-0.02,0.256-0.103
	C85.085,130.548,84.959,130.419,84.876,130.351z"/>
<path d="M83.105,132.698c-0.026-0.022-0.056-0.024-0.082-0.011c-0.018-0.007-0.039-0.008-0.061,0.005
	c-0.096,0.057-0.246,0.154-0.212,0.287c0.025,0.099,0.146,0.131,0.234,0.136c0.093,0.006,0.203-0.02,0.256-0.103
	C83.315,132.895,83.188,132.765,83.105,132.698z"/>
<path d="M86.676,136.385c-0.026-0.022-0.056-0.024-0.082-0.011c-0.018-0.007-0.039-0.008-0.061,0.005
	c-0.096,0.057-0.246,0.154-0.212,0.287c0.025,0.099,0.146,0.131,0.234,0.136c0.093,0.006,0.203-0.02,0.256-0.103
	C86.885,136.583,86.759,136.453,86.676,136.385z"/>
<path d="M89.649,126.343c-0.026-0.022-0.056-0.024-0.082-0.011c-0.018-0.007-0.039-0.008-0.061,0.005
	c-0.096,0.057-0.246,0.154-0.212,0.287c0.025,0.099,0.146,0.131,0.234,0.136c0.093,0.006,0.203-0.02,0.256-0.103
	C89.859,126.54,89.732,126.41,89.649,126.343z"/>
<path opacity="0.1" enable-background="new    " d="M88.107,137.443c0,0-0.833,0.98-2.86-0.07c0,0-1.564-0.923-1.831-1.407
	c0,0-1.414-1.614-1.556-2.242c0,0-1.4-2.91-1.524-3.992c0,0-1.021-4.329-0.925-5.133c0,0-1.323-2.068,0.903-2.14l0.226,1.552
	C80.539,124.009,83.703,137.346,88.107,137.443z"/>
<path fill="#E33B3B" d="M92.616,128.778c0,0-5.245,11.545,0.232,15.597c0,0,2.989,2.102,13.314-8.034
	C106.162,136.341,103.434,129.674,92.616,128.778z"/>
<path fill="#2AAE58" d="M92.473,129.109c0,0-0.141-2.747,2.178-1.249c0,0,2.601-3.988,4.034,0.675c0,0,3.005-0.657,2.505,1.97
	c0,0,6.583-1.275,3.877,2.591c0,0,3.373,0.24,1.095,3.245C106.162,136.341,100.947,128.784,92.473,129.109z"/>
<path d="M94.004,131.148c-0.022-0.052-0.063-0.078-0.11-0.079c-0.02-0.025-0.051-0.041-0.093-0.04
	c-0.183,0.008-0.476,0.034-0.53,0.253c-0.041,0.163,0.112,0.303,0.235,0.378c0.13,0.08,0.31,0.128,0.45,0.048
	C94.156,131.596,94.072,131.31,94.004,131.148z"/>
<path d="M96.21,142.237c-0.022-0.052-0.063-0.078-0.11-0.079c-0.02-0.025-0.051-0.041-0.093-0.04
	c-0.183,0.008-0.476,0.034-0.53,0.253c-0.041,0.163,0.112,0.303,0.235,0.378c0.13,0.08,0.31,0.128,0.45,0.048
	C96.362,142.686,96.279,142.4,96.21,142.237z"/>
<path d="M94.72,138.62c-0.022-0.052-0.063-0.078-0.11-0.079c-0.02-0.025-0.051-0.041-0.093-0.04
	c-0.183,0.008-0.476,0.034-0.53,0.253c-0.041,0.163,0.112,0.303,0.235,0.378c0.13,0.08,0.31,0.128,0.45,0.048
	C94.872,139.069,94.789,138.783,94.72,138.62z"/>
<path d="M98.432,136.512c-0.022-0.052-0.063-0.078-0.11-0.079c-0.02-0.025-0.051-0.041-0.093-0.04
	c-0.183,0.008-0.476,0.034-0.53,0.253c-0.041,0.163,0.112,0.303,0.235,0.378c0.13,0.08,0.31,0.128,0.45,0.048
	C98.583,136.96,98.5,136.674,98.432,136.512z"/>
<path d="M97.76,139.238c-0.024-0.057-0.07-0.086-0.122-0.088c-0.023-0.027-0.056-0.046-0.102-0.044
	c-0.203,0.009-0.526,0.037-0.586,0.28c-0.045,0.181,0.124,0.335,0.26,0.418c0.144,0.088,0.343,0.142,0.498,0.054
	C97.928,139.734,97.836,139.418,97.76,139.238z"/>
<path d="M103.541,135.509c-0.022-0.052-0.063-0.078-0.11-0.079c-0.02-0.025-0.051-0.041-0.093-0.04
	c-0.183,0.008-0.476,0.034-0.53,0.253c-0.041,0.163,0.112,0.303,0.235,0.378c0.13,0.08,0.31,0.128,0.45,0.048
	C103.693,135.957,103.61,135.671,103.541,135.509z"/>
<path d="M96.842,134.275c-0.018-0.042-0.051-0.063-0.089-0.064c-0.016-0.02-0.041-0.033-0.075-0.032
	c-0.148,0.007-0.384,0.027-0.428,0.204c-0.033,0.132,0.09,0.244,0.19,0.305c0.105,0.064,0.25,0.103,0.363,0.039
	C96.964,134.637,96.897,134.406,96.842,134.275z"/>
<path d="M99.628,133.39c-0.022-0.052-0.063-0.078-0.11-0.079c-0.02-0.025-0.051-0.041-0.093-0.04
	c-0.183,0.008-0.476,0.034-0.53,0.253c-0.041,0.163,0.112,0.303,0.235,0.378c0.13,0.08,0.31,0.128,0.45,0.048
	C99.78,133.839,99.697,133.553,99.628,133.39z"/>
<path d="M93.484,134.147c-0.019-0.045-0.055-0.068-0.097-0.07c-0.018-0.022-0.045-0.036-0.081-0.035
	c-0.161,0.007-0.418,0.03-0.466,0.223c-0.036,0.144,0.098,0.266,0.207,0.332c0.114,0.07,0.272,0.113,0.396,0.043
	C93.617,134.541,93.544,134.29,93.484,134.147z"/>
<path d="M92.801,140.78c-0.013-0.031-0.038-0.047-0.067-0.048c-0.012-0.015-0.031-0.025-0.056-0.024
	c-0.112,0.005-0.289,0.021-0.322,0.154c-0.025,0.099,0.068,0.184,0.143,0.23c0.079,0.048,0.188,0.078,0.274,0.029
	C92.893,141.053,92.842,140.879,92.801,140.78z"/>
<path d="M100.679,137.909c-0.013-0.031-0.038-0.047-0.067-0.048c-0.012-0.015-0.031-0.025-0.056-0.024
	c-0.112,0.005-0.289,0.021-0.322,0.154c-0.025,0.099,0.068,0.184,0.143,0.23c0.079,0.048,0.188,0.078,0.274,0.029
	C100.771,138.181,100.721,138.008,100.679,137.909z"/>
<path d="M94.598,136.755c-0.013-0.031-0.038-0.047-0.067-0.048c-0.012-0.015-0.031-0.025-0.056-0.024
	c-0.112,0.005-0.289,0.021-0.322,0.154c-0.025,0.099,0.068,0.184,0.143,0.23c0.079,0.048,0.188,0.078,0.274,0.029
	C94.691,137.028,94.64,136.854,94.598,136.755z"/>
<path d="M91.933,137.996c-0.013-0.031-0.038-0.047-0.067-0.048c-0.012-0.015-0.031-0.025-0.056-0.024
	c-0.112,0.005-0.289,0.021-0.322,0.154c-0.025,0.099,0.068,0.184,0.143,0.23c0.079,0.048,0.188,0.078,0.274,0.029
	C92.026,138.269,91.975,138.095,91.933,137.996z"/>
<path d="M93.355,142.928c-0.013-0.031-0.038-0.047-0.067-0.048c-0.012-0.015-0.031-0.025-0.056-0.024
	c-0.112,0.005-0.289,0.021-0.322,0.154c-0.025,0.099,0.068,0.184,0.143,0.23c0.079,0.048,0.188,0.078,0.274,0.029
	C93.447,143.201,93.396,143.027,93.355,142.928z"/>
<path d="M100.694,135.456c-0.013-0.031-0.038-0.047-0.067-0.048c-0.012-0.015-0.031-0.025-0.056-0.024
	c-0.112,0.005-0.289,0.021-0.322,0.154c-0.025,0.099,0.068,0.184,0.143,0.23c0.079,0.048,0.188,0.078,0.274,0.029
	C100.787,135.729,100.736,135.555,100.694,135.456z"/>
<path opacity="0.1" enable-background="new    " d="M94.122,144.533c0,0-1.195,0.474-2.493-1.405c0,0-0.948-1.549-0.956-2.102
	c0,0-0.491-2.089-0.321-2.71c0,0,0.13-3.227,0.528-4.24c0,0,1.131-4.301,1.593-4.967c0,0-0.197-2.447,1.802-1.466l-0.529,1.476
	C93.746,129.119,90.279,142.38,94.122,144.533z"/>
<path fill="#E33B3B" d="M64.029,133.505c0,0,4.962,11.669,11.65,10.372c0,0,3.569-0.782,3.08-15.242
	C78.759,128.635,72.002,126.138,64.029,133.505z"/>
<path fill="#2AAE58" d="M64.177,133.834c0,0-2.12-1.753,0.552-2.449c0,0-1.18-4.613,3.224-2.516c0,0,1.547-2.659,3.145-0.515
	c0,0,3.511-5.713,4.531-1.106c0,0,2.457-2.323,3.131,1.387C78.759,128.635,69.665,127.37,64.177,133.834z"/>
<path d="M66.714,134.084c-0.053-0.019-0.1-0.006-0.133,0.027c-0.032-0.002-0.065,0.009-0.092,0.041
	c-0.118,0.141-0.297,0.373-0.172,0.562c0.093,0.14,0.299,0.122,0.438,0.082c0.147-0.042,0.304-0.142,0.34-0.299
	C67.147,134.275,66.88,134.143,66.714,134.084z"/>
<path d="M76.377,139.954c-0.053-0.019-0.1-0.006-0.133,0.027c-0.032-0.002-0.065,0.009-0.092,0.041
	c-0.118,0.141-0.297,0.373-0.172,0.562c0.093,0.14,0.299,0.122,0.438,0.082c0.147-0.042,0.304-0.142,0.34-0.299
	C76.81,140.145,76.543,140.013,76.377,139.954z"/>
<path d="M72.705,138.607c-0.053-0.019-0.1-0.006-0.133,0.027c-0.032-0.002-0.065,0.009-0.092,0.041
	c-0.118,0.141-0.297,0.373-0.172,0.562c0.093,0.14,0.299,0.122,0.438,0.082c0.147-0.042,0.304-0.142,0.34-0.299
	C73.138,138.798,72.871,138.667,72.705,138.607z"/>
<path d="M73.66,134.447c-0.053-0.019-0.1-0.006-0.133,0.027c-0.032-0.002-0.065,0.009-0.092,0.041
	c-0.118,0.141-0.297,0.373-0.172,0.562c0.093,0.14,0.299,0.122,0.438,0.082c0.147-0.042,0.304-0.142,0.34-0.299
	C74.093,134.638,73.826,134.507,73.66,134.447z"/>
<path d="M75.215,136.785c-0.058-0.021-0.111-0.007-0.147,0.03c-0.035-0.002-0.072,0.01-0.101,0.046
	c-0.131,0.155-0.328,0.413-0.19,0.622c0.103,0.155,0.33,0.135,0.484,0.091c0.162-0.047,0.336-0.157,0.376-0.331
	C75.694,136.997,75.398,136.851,75.215,136.785z"/>
<path d="M76.375,130.004c-0.053-0.019-0.1-0.006-0.133,0.027c-0.032-0.002-0.065,0.009-0.092,0.041
	c-0.118,0.141-0.297,0.373-0.172,0.562c0.093,0.14,0.299,0.122,0.438,0.082c0.147-0.042,0.304-0.142,0.34-0.299
	C76.808,130.195,76.541,130.063,76.375,130.004z"/>
<path d="M70.936,134.106c-0.043-0.015-0.081-0.005-0.107,0.022c-0.026-0.001-0.052,0.008-0.074,0.033
	c-0.095,0.113-0.239,0.301-0.139,0.453c0.075,0.113,0.241,0.099,0.353,0.066c0.118-0.034,0.245-0.114,0.274-0.241
	C71.286,134.261,71.07,134.154,70.936,134.106z"/>
<path d="M72.168,131.455c-0.053-0.019-0.1-0.006-0.133,0.027c-0.032-0.002-0.065,0.009-0.092,0.041
	c-0.118,0.141-0.297,0.373-0.172,0.562c0.093,0.14,0.299,0.122,0.438,0.082c0.147-0.042,0.304-0.142,0.34-0.299
	C72.601,131.646,72.334,131.514,72.168,131.455z"/>
<path d="M68.572,136.495c-0.046-0.017-0.088-0.005-0.117,0.024c-0.028-0.001-0.057,0.008-0.081,0.036
	c-0.104,0.124-0.261,0.328-0.151,0.494c0.082,0.123,0.262,0.107,0.385,0.072c0.129-0.037,0.267-0.125,0.299-0.263
	C68.953,136.663,68.718,136.547,68.572,136.495z"/>
<path d="M72.999,141.482c-0.032-0.011-0.061-0.004-0.081,0.017c-0.019-0.001-0.039,0.006-0.056,0.025
	c-0.072,0.085-0.18,0.227-0.104,0.342c0.057,0.085,0.182,0.074,0.266,0.05c0.089-0.026,0.185-0.086,0.207-0.182
	C73.262,141.598,73.1,141.518,72.999,141.482z"/>
<path d="M76.208,133.735c-0.032-0.012-0.061-0.004-0.081,0.017c-0.019-0.001-0.039,0.006-0.056,0.025
	c-0.072,0.085-0.18,0.227-0.104,0.342c0.057,0.085,0.182,0.074,0.266,0.05c0.089-0.026,0.185-0.086,0.207-0.182
	C76.472,133.851,76.309,133.771,76.208,133.735z"/>
<path d="M71.247,137.436c-0.032-0.012-0.061-0.004-0.081,0.017c-0.019-0.001-0.039,0.006-0.056,0.025
	c-0.072,0.085-0.18,0.227-0.104,0.342c0.057,0.085,0.182,0.074,0.266,0.05c0.089-0.026,0.185-0.086,0.207-0.182
	C71.511,137.553,71.348,137.472,71.247,137.436z"/>
<path d="M70.361,140.239c-0.032-0.011-0.061-0.004-0.081,0.017c-0.019-0.001-0.039,0.006-0.056,0.025
	c-0.072,0.085-0.18,0.227-0.104,0.342c0.057,0.085,0.182,0.074,0.266,0.05c0.089-0.026,0.185-0.086,0.207-0.182
	C70.624,140.355,70.462,140.275,70.361,140.239z"/>
<path d="M74.956,142.525c-0.032-0.011-0.061-0.004-0.081,0.017c-0.019-0.001-0.039,0.006-0.056,0.025
	c-0.072,0.085-0.18,0.227-0.104,0.342c0.057,0.085,0.182,0.074,0.266,0.05c0.089-0.026,0.185-0.086,0.207-0.182
	C75.219,142.642,75.057,142.562,74.956,142.525z"/>
<path d="M74.411,132.066c-0.032-0.012-0.061-0.004-0.081,0.017c-0.019-0.001-0.039,0.006-0.056,0.025
	c-0.072,0.085-0.18,0.227-0.104,0.342c0.057,0.085,0.182,0.074,0.266,0.05c0.089-0.026,0.185-0.086,0.207-0.182
	C74.675,132.182,74.512,132.102,74.411,132.066z"/>
<path opacity="0.1" enable-background="new    " d="M76.658,143.045c0,0-0.459,1.201-2.72,0.887c0,0-1.782-0.349-2.195-0.716
	c0,0-1.871-1.05-2.215-1.595c0,0-2.29-2.277-2.768-3.255c0,0-2.406-3.741-2.584-4.531c0,0-1.936-1.509,0.138-2.319l0.73,1.388
	C65.044,132.903,72.473,144.422,76.658,143.045z"/>
<path fill="#E33B3B" d="M78.02,133.373c0,0-1.096,12.633,5.418,14.627c0,0,3.519,0.985,9.874-12.013
	C93.313,135.988,88.518,130.611,78.02,133.373z"/>
<path fill="#2AAE58" d="M77.996,133.733c0,0-1.049-2.543,1.637-1.903c0,0,1.123-4.627,4.028-0.708c0,0,2.614-1.621,3.019,1.022
	c0,0,5.781-3.396,4.519,1.151c0,0,3.26-0.898,2.114,2.694C93.313,135.988,85.877,130.602,77.996,133.733z"/>
<path d="M80.119,135.145c-0.038-0.041-0.085-0.052-0.13-0.038c-0.027-0.016-0.062-0.022-0.1-0.006
	c-0.17,0.069-0.437,0.19-0.415,0.416c0.016,0.168,0.206,0.248,0.348,0.278c0.149,0.032,0.335,0.018,0.441-0.104
	C80.412,135.517,80.238,135.275,80.119,135.145z"/>
<path d="M85.896,144.864c-0.038-0.041-0.085-0.052-0.13-0.038c-0.027-0.016-0.062-0.022-0.1-0.006
	c-0.17,0.069-0.437,0.19-0.415,0.416c0.016,0.168,0.206,0.248,0.348,0.278c0.149,0.032,0.335,0.017,0.441-0.104
	C86.189,145.236,86.015,144.994,85.896,144.864z"/>
<path d="M83.286,141.951c-0.038-0.041-0.085-0.052-0.13-0.038c-0.027-0.016-0.062-0.022-0.1-0.006
	c-0.17,0.069-0.437,0.19-0.415,0.416c0.016,0.168,0.206,0.248,0.348,0.278c0.149,0.032,0.335,0.017,0.441-0.104
	C83.578,142.323,83.404,142.081,83.286,141.951z"/>
<path d="M86.082,138.726c-0.038-0.041-0.085-0.052-0.13-0.038c-0.027-0.016-0.062-0.022-0.1-0.006
	c-0.17,0.069-0.437,0.19-0.415,0.416c0.016,0.168,0.206,0.248,0.348,0.278c0.149,0.032,0.335,0.017,0.441-0.104
	C86.374,139.098,86.2,138.856,86.082,138.726z"/>
<path d="M86.357,141.52c-0.042-0.046-0.094-0.058-0.144-0.042c-0.03-0.018-0.068-0.024-0.111-0.007
	c-0.188,0.076-0.484,0.211-0.46,0.46c0.018,0.185,0.228,0.274,0.385,0.308c0.165,0.035,0.37,0.019,0.488-0.116
	C86.681,141.932,86.489,141.664,86.357,141.52z"/>
<path d="M90.565,136.077c-0.038-0.041-0.085-0.052-0.13-0.038c-0.027-0.016-0.062-0.022-0.1-0.006
	c-0.17,0.069-0.437,0.19-0.415,0.416c0.016,0.168,0.206,0.248,0.348,0.278c0.149,0.032,0.335,0.017,0.441-0.104
	C90.857,136.449,90.683,136.207,90.565,136.077z"/>
<path d="M83.837,137.147c-0.03-0.033-0.069-0.042-0.105-0.031c-0.022-0.013-0.05-0.018-0.081-0.005
	c-0.137,0.055-0.353,0.154-0.335,0.335c0.013,0.135,0.166,0.2,0.281,0.224c0.12,0.026,0.27,0.014,0.356-0.084
	C84.073,137.447,83.932,137.252,83.837,137.147z"/>
<path d="M86.169,135.384c-0.038-0.041-0.085-0.052-0.13-0.038c-0.027-0.016-0.062-0.022-0.1-0.006
	c-0.17,0.069-0.437,0.19-0.415,0.416c0.016,0.168,0.206,0.248,0.348,0.278c0.149,0.032,0.335,0.017,0.441-0.104
	C86.462,135.756,86.288,135.514,86.169,135.384z"/>
<path d="M80.629,138.146c-0.033-0.036-0.075-0.046-0.114-0.034c-0.024-0.014-0.054-0.019-0.088-0.006
	c-0.15,0.06-0.384,0.167-0.365,0.365c0.014,0.147,0.181,0.218,0.306,0.244c0.131,0.028,0.294,0.015,0.387-0.092
	C80.886,138.473,80.733,138.26,80.629,138.146z"/>
<path d="M82.196,144.627c-0.023-0.025-0.052-0.032-0.079-0.023c-0.017-0.01-0.038-0.013-0.061-0.004
	c-0.103,0.042-0.266,0.116-0.253,0.253c0.01,0.102,0.125,0.151,0.212,0.169c0.091,0.019,0.204,0.011,0.268-0.064
	C82.374,144.854,82.268,144.707,82.196,144.627z"/>
<path d="M88.666,139.293c-0.023-0.025-0.052-0.032-0.079-0.023c-0.017-0.01-0.037-0.013-0.061-0.004
	c-0.103,0.042-0.266,0.116-0.253,0.253c0.01,0.102,0.125,0.151,0.212,0.169c0.091,0.019,0.204,0.011,0.268-0.064
	C88.844,139.52,88.738,139.373,88.666,139.293z"/>
<path d="M82.549,140.233c-0.023-0.025-0.052-0.032-0.079-0.023c-0.017-0.01-0.038-0.013-0.061-0.004
	c-0.103,0.042-0.266,0.116-0.253,0.253c0.01,0.102,0.125,0.151,0.212,0.169c0.091,0.019,0.204,0.011,0.268-0.064
	C82.727,140.459,82.621,140.312,82.549,140.233z"/>
<path d="M80.45,142.291c-0.023-0.025-0.052-0.032-0.079-0.023c-0.017-0.01-0.038-0.013-0.061-0.004
	c-0.103,0.042-0.266,0.116-0.253,0.253c0.01,0.102,0.125,0.151,0.212,0.169c0.091,0.019,0.204,0.011,0.268-0.064
	C80.628,142.518,80.522,142.371,80.45,142.291z"/>
<path d="M83.434,146.467c-0.023-0.025-0.052-0.032-0.079-0.023c-0.017-0.01-0.038-0.013-0.061-0.004
	c-0.103,0.042-0.266,0.116-0.253,0.253c0.01,0.102,0.125,0.151,0.212,0.169c0.091,0.019,0.204,0.011,0.268-0.064
	C83.612,146.694,83.506,146.547,83.434,146.467z"/>
<path d="M87.863,136.976c-0.023-0.025-0.052-0.032-0.079-0.023c-0.017-0.01-0.037-0.013-0.061-0.004
	c-0.103,0.042-0.266,0.116-0.253,0.253c0.01,0.102,0.125,0.151,0.212,0.169c0.091,0.019,0.204,0.011,0.268-0.064
	C88.041,137.203,87.935,137.056,87.863,136.976z"/>
<path opacity="0.1" enable-background="new    " d="M84.693,147.725c0,0-0.969,0.845-2.818-0.493c0,0-1.41-1.144-1.602-1.663
	c0,0-1.159-1.806-1.207-2.448c0,0-0.953-3.086-0.916-4.174c0,0-0.368-4.432-0.154-5.214c0,0-1.002-2.241,1.21-1.983l-0.007,1.568
	C79.199,133.318,80.352,146.976,84.693,147.725z"/>
<path fill="#E33B3B" d="M53.777,125.069c0,0,7.75,10.037,13.893,7.092c0,0,3.256-1.658-0.872-15.526
	C66.799,116.635,59.63,115.926,53.777,125.069z"/>
<path fill="#2AAE58" d="M54.003,125.35c0,0-2.494-1.161-0.085-2.509c0,0-2.307-4.165,2.484-3.249c0,0,0.825-2.963,2.913-1.293
	c0,0,1.953-6.415,4.104-2.214c0,0,1.791-2.869,3.38,0.55C66.799,116.635,57.68,117.709,54.003,125.35z"/>
<path d="M56.521,124.951c-0.056-0.005-0.098,0.019-0.122,0.06c-0.031,0.007-0.06,0.026-0.078,0.063
	c-0.079,0.166-0.193,0.436-0.024,0.587c0.125,0.112,0.32,0.043,0.444-0.031c0.131-0.078,0.258-0.214,0.254-0.375
	C56.988,125.026,56.697,124.966,56.521,124.951z"/>
<path d="M67.354,128.188c-0.056-0.005-0.098,0.019-0.122,0.06c-0.031,0.007-0.06,0.026-0.078,0.063
	c-0.079,0.166-0.193,0.436-0.024,0.587c0.125,0.112,0.32,0.043,0.444-0.031c0.131-0.078,0.258-0.214,0.254-0.375
	C67.821,128.264,67.53,128.204,67.354,128.188z"/>
<path d="M63.46,127.813c-0.056-0.005-0.098,0.019-0.122,0.06c-0.031,0.007-0.06,0.026-0.078,0.063
	c-0.079,0.166-0.193,0.436-0.024,0.587c0.125,0.112,0.32,0.043,0.444-0.031c0.131-0.078,0.258-0.214,0.254-0.375
	C63.928,127.889,63.636,127.829,63.46,127.813z"/>
<path d="M63.333,123.547c-0.056-0.005-0.098,0.019-0.122,0.06c-0.031,0.007-0.06,0.026-0.078,0.063
	c-0.079,0.166-0.193,0.436-0.024,0.587c0.125,0.112,0.32,0.043,0.444-0.031c0.131-0.078,0.258-0.214,0.254-0.375
	C63.801,123.622,63.509,123.562,63.333,123.547z"/>
<path d="M65.429,125.416c-0.062-0.005-0.109,0.021-0.134,0.066c-0.035,0.007-0.067,0.028-0.087,0.07
	c-0.087,0.183-0.213,0.483-0.027,0.649c0.139,0.124,0.354,0.047,0.492-0.034c0.145-0.086,0.286-0.237,0.28-0.415
	C65.946,125.5,65.623,125.433,65.429,125.416z"/>
<path d="M64.837,118.562c-0.056-0.005-0.098,0.019-0.122,0.06c-0.031,0.007-0.06,0.026-0.078,0.063
	c-0.079,0.166-0.193,0.436-0.024,0.587c0.125,0.112,0.32,0.043,0.444-0.031c0.131-0.078,0.258-0.214,0.254-0.375
	C65.305,118.637,65.013,118.577,64.837,118.562z"/>
<path d="M60.612,123.905c-0.045-0.004-0.079,0.016-0.098,0.048c-0.025,0.005-0.049,0.021-0.063,0.051
	c-0.063,0.134-0.155,0.352-0.02,0.474c0.101,0.091,0.258,0.035,0.359-0.025c0.106-0.063,0.208-0.173,0.205-0.303
	C60.989,123.966,60.754,123.918,60.612,123.905z"/>
<path d="M61.134,121.029c-0.056-0.005-0.098,0.019-0.122,0.06c-0.031,0.007-0.06,0.026-0.078,0.063
	c-0.079,0.166-0.193,0.436-0.024,0.587c0.125,0.112,0.32,0.043,0.444-0.031c0.131-0.078,0.258-0.214,0.254-0.375
	C61.601,121.104,61.31,121.044,61.134,121.029z"/>
<path d="M58.928,126.813c-0.049-0.004-0.086,0.017-0.107,0.053c-0.028,0.006-0.053,0.022-0.069,0.056
	c-0.069,0.146-0.169,0.383-0.021,0.516c0.11,0.099,0.281,0.038,0.391-0.027c0.115-0.068,0.227-0.188,0.223-0.33
	C59.339,126.88,59.083,126.827,58.928,126.813z"/>
<path d="M64.471,130.52c-0.034-0.003-0.06,0.012-0.074,0.036c-0.019,0.004-0.037,0.016-0.048,0.038
	c-0.048,0.101-0.117,0.265-0.015,0.357c0.076,0.068,0.194,0.026,0.27-0.019c0.08-0.047,0.157-0.13,0.154-0.228
	C64.756,130.566,64.578,130.53,64.471,130.52z"/>
<path d="M65.619,122.214c-0.034-0.003-0.06,0.012-0.074,0.036c-0.019,0.004-0.037,0.016-0.048,0.039
	c-0.048,0.101-0.117,0.265-0.015,0.357c0.076,0.068,0.194,0.026,0.27-0.019c0.08-0.047,0.157-0.13,0.154-0.228
	C65.903,122.26,65.726,122.223,65.619,122.214z"/>
<path d="M61.754,127.049c-0.034-0.003-0.06,0.012-0.074,0.036c-0.019,0.004-0.037,0.016-0.048,0.039
	c-0.048,0.101-0.117,0.265-0.015,0.357c0.076,0.068,0.194,0.026,0.27-0.019c0.08-0.047,0.157-0.13,0.154-0.228
	C62.039,127.095,61.861,127.058,61.754,127.049z"/>
<path d="M61.605,129.984c-0.034-0.003-0.06,0.012-0.074,0.036c-0.019,0.004-0.037,0.016-0.048,0.038
	c-0.048,0.101-0.117,0.265-0.015,0.357c0.076,0.068,0.194,0.026,0.27-0.019c0.08-0.047,0.157-0.13,0.154-0.228
	C61.889,130.03,61.711,129.994,61.605,129.984z"/>
<path d="M66.629,131.035c-0.034-0.003-0.06,0.012-0.074,0.036c-0.019,0.004-0.037,0.016-0.048,0.038
	c-0.048,0.101-0.117,0.265-0.015,0.357c0.076,0.068,0.194,0.026,0.27-0.019c0.08-0.047,0.157-0.13,0.154-0.228
	C66.913,131.081,66.735,131.045,66.629,131.035z"/>
<path d="M63.459,121.053c-0.034-0.003-0.06,0.012-0.074,0.036c-0.019,0.004-0.037,0.016-0.048,0.038
	c-0.048,0.101-0.117,0.265-0.015,0.357c0.076,0.068,0.194,0.026,0.27-0.019c0.08-0.047,0.157-0.13,0.154-0.228
	C63.743,121.099,63.566,121.063,63.459,121.053z"/>
<path opacity="0.1" enable-background="new    " d="M68.407,131.109c0,0-0.14,1.278-2.408,1.546c0,0-1.812,0.113-2.305-0.138
	c0,0-2.076-0.543-2.546-0.984c0,0-2.792-1.624-3.501-2.45c0,0-3.273-3.012-3.645-3.732c0,0-2.255-0.971-0.453-2.278l1.057,1.158
	C54.607,124.23,64.706,133.498,68.407,131.109z"/>
<path fill="#E33B3B" d="M67.281,121.406c0,0,2.131,12.5,8.938,12.783c0,0,3.654,0.064,6.519-14.118
	C82.738,120.072,76.741,116.081,67.281,121.406z"/>
<path fill="#2AAE58" d="M67.349,121.76c0,0-1.657-2.195,1.103-2.255c0,0-0.082-4.76,3.718-1.703c0,0,2.12-2.229,3.179,0.226
	c0,0,4.736-4.747,4.663-0.029c0,0,2.928-1.692,2.726,2.073C82.738,120.072,74.182,116.739,67.349,121.76z"/>
<path d="M69.759,122.59c-0.047-0.031-0.096-0.029-0.135-0.004c-0.031-0.009-0.065-0.006-0.099,0.019
	c-0.147,0.109-0.375,0.295-0.297,0.507c0.058,0.158,0.262,0.188,0.407,0.181c0.152-0.007,0.328-0.068,0.4-0.212
	C70.136,122.876,69.907,122.686,69.759,122.59z"/>
<path d="M77.805,130.534c-0.047-0.031-0.096-0.029-0.135-0.004c-0.031-0.009-0.065-0.006-0.099,0.019
	c-0.147,0.109-0.375,0.295-0.297,0.507c0.058,0.158,0.262,0.188,0.407,0.181c0.152-0.007,0.328-0.068,0.4-0.212
	C78.182,130.82,77.953,130.63,77.805,130.534z"/>
<path d="M74.543,128.375c-0.047-0.031-0.096-0.029-0.135-0.004c-0.031-0.009-0.065-0.006-0.099,0.019
	c-0.147,0.109-0.375,0.295-0.297,0.507c0.058,0.158,0.262,0.188,0.407,0.181c0.152-0.007,0.328-0.068,0.4-0.212
	C74.92,128.661,74.691,128.471,74.543,128.375z"/>
<path d="M76.433,124.548c-0.047-0.031-0.096-0.029-0.135-0.004c-0.031-0.009-0.065-0.006-0.099,0.019
	c-0.147,0.109-0.375,0.295-0.297,0.507c0.058,0.158,0.262,0.188,0.407,0.181c0.152-0.007,0.328-0.068,0.4-0.212
	C76.81,124.834,76.581,124.644,76.433,124.548z"/>
<path d="M77.406,127.182c-0.052-0.034-0.106-0.032-0.15-0.005c-0.034-0.01-0.072-0.006-0.109,0.021
	c-0.163,0.121-0.415,0.326-0.328,0.561c0.064,0.175,0.29,0.208,0.45,0.2c0.169-0.008,0.363-0.075,0.443-0.235
	C77.823,127.498,77.57,127.288,77.406,127.182z"/>
<path d="M80.101,120.852c-0.047-0.031-0.096-0.029-0.135-0.004c-0.031-0.009-0.065-0.006-0.099,0.019
	c-0.147,0.109-0.375,0.295-0.297,0.507c0.058,0.158,0.262,0.188,0.407,0.181c0.152-0.007,0.328-0.068,0.4-0.212
	C80.479,121.138,80.249,120.948,80.101,120.852z"/>
<path d="M73.862,123.587c-0.038-0.025-0.077-0.024-0.109-0.003c-0.025-0.007-0.053-0.005-0.08,0.015
	c-0.119,0.088-0.302,0.238-0.24,0.409c0.047,0.127,0.212,0.152,0.328,0.146c0.123-0.006,0.265-0.055,0.323-0.171
	C74.166,123.818,73.981,123.665,73.862,123.587z"/>
<path d="M75.673,121.292c-0.047-0.031-0.096-0.029-0.135-0.004c-0.031-0.009-0.065-0.006-0.099,0.019
	c-0.147,0.109-0.375,0.295-0.297,0.507c0.058,0.158,0.262,0.188,0.407,0.181c0.152-0.007,0.328-0.068,0.4-0.212
	C76.051,121.578,75.821,121.388,75.673,121.292z"/>
<path d="M71.011,125.365c-0.041-0.027-0.084-0.026-0.119-0.004c-0.027-0.008-0.057-0.005-0.087,0.017
	c-0.129,0.096-0.33,0.259-0.261,0.446c0.051,0.139,0.23,0.165,0.358,0.159c0.134-0.006,0.289-0.059,0.352-0.187
	C71.342,125.616,71.14,125.449,71.011,125.365z"/>
<path d="M74.165,131.24c-0.029-0.019-0.058-0.018-0.082-0.003c-0.019-0.005-0.04-0.004-0.06,0.012
	c-0.09,0.067-0.228,0.179-0.181,0.308c0.035,0.096,0.159,0.114,0.248,0.11c0.093-0.004,0.2-0.041,0.243-0.129
	C74.394,131.414,74.255,131.298,74.165,131.24z"/>
<path d="M79.077,124.444c-0.029-0.019-0.058-0.018-0.082-0.003c-0.019-0.005-0.04-0.004-0.06,0.012
	c-0.09,0.067-0.228,0.179-0.181,0.308c0.035,0.096,0.159,0.114,0.248,0.11c0.093-0.004,0.2-0.041,0.243-0.129
	C79.307,124.618,79.167,124.503,79.077,124.444z"/>
<path d="M73.396,126.899c-0.029-0.019-0.058-0.018-0.082-0.003c-0.019-0.005-0.04-0.004-0.06,0.012
	c-0.09,0.067-0.228,0.179-0.181,0.308c0.035,0.096,0.159,0.114,0.248,0.11c0.093-0.004,0.2-0.041,0.243-0.129
	C73.625,127.073,73.485,126.957,73.396,126.899z"/>
<path d="M71.885,129.421c-0.029-0.019-0.058-0.018-0.082-0.003c-0.019-0.005-0.04-0.004-0.06,0.012
	c-0.09,0.067-0.228,0.179-0.181,0.308c0.035,0.096,0.159,0.114,0.248,0.11c0.093-0.004,0.2-0.041,0.243-0.129
	C72.115,129.595,71.975,129.479,71.885,129.421z"/>
<path d="M75.828,132.707c-0.029-0.019-0.058-0.018-0.082-0.003c-0.019-0.005-0.04-0.004-0.06,0.012
	c-0.09,0.067-0.228,0.179-0.181,0.308c0.035,0.096,0.159,0.114,0.248,0.11c0.093-0.004,0.2-0.041,0.243-0.129
	C76.057,132.881,75.918,132.766,75.828,132.707z"/>
<path d="M77.715,122.405c-0.029-0.019-0.058-0.018-0.082-0.003c-0.019-0.005-0.04-0.004-0.06,0.012
	c-0.09,0.067-0.228,0.179-0.181,0.308c0.035,0.096,0.159,0.114,0.248,0.11c0.093-0.004,0.2-0.041,0.243-0.129
	C77.944,122.579,77.805,122.464,77.715,122.405z"/>
<path opacity="0.1" enable-background="new    " d="M77.363,133.606c0,0-0.724,1.063-2.851,0.235c0,0-1.653-0.751-1.97-1.204
	c0,0-1.578-1.454-1.786-2.064c0,0-1.702-2.745-1.941-3.807c0,0-1.476-4.196-1.466-5.006c0,0-1.535-1.916,0.67-2.224l0.39,1.519
	C68.408,121.055,72.974,133.979,77.363,133.606z"/>
<path fill="#E33B3B" d="M46.263,141.35c0,0,10.652,6.879,15.462,2.055c0,0,2.517-2.649-5.998-14.347
	C55.728,129.058,48.733,130.78,46.263,141.35z"/>
<path fill="#2AAE58" d="M46.57,141.54c0,0-2.738-0.263-0.916-2.337c0,0-3.564-3.157,1.258-3.891c0,0-0.21-3.069,2.315-2.19
	c0,0-0.297-6.699,3.131-3.456c0,0,0.732-3.302,3.37-0.608C55.728,129.058,47.489,133.11,46.57,141.54z"/>
<path d="M48.81,140.324c-0.054,0.014-0.086,0.051-0.095,0.097c-0.027,0.017-0.048,0.044-0.053,0.086
	c-0.019,0.183-0.036,0.476,0.173,0.562c0.156,0.064,0.316-0.066,0.409-0.177c0.098-0.117,0.172-0.288,0.114-0.438
	C49.276,140.24,48.981,140.281,48.81,140.324z"/>
<path d="M60.103,139.765c-0.054,0.014-0.086,0.051-0.095,0.097c-0.027,0.017-0.048,0.044-0.053,0.086
	c-0.019,0.183-0.036,0.476,0.173,0.562c0.156,0.064,0.316-0.066,0.409-0.177c0.098-0.117,0.172-0.288,0.114-0.438
	C60.569,139.681,60.274,139.722,60.103,139.765z"/>
<path d="M56.307,140.71c-0.054,0.014-0.086,0.051-0.095,0.097c-0.027,0.017-0.048,0.044-0.053,0.086
	c-0.019,0.183-0.036,0.476,0.173,0.562c0.156,0.064,0.316-0.066,0.409-0.177c0.098-0.117,0.172-0.288,0.114-0.438
	C56.773,140.625,56.478,140.666,56.307,140.71z"/>
<path d="M54.765,136.73c-0.054,0.014-0.086,0.051-0.095,0.097c-0.027,0.017-0.048,0.044-0.053,0.086
	c-0.019,0.183-0.036,0.476,0.173,0.562c0.156,0.064,0.316-0.066,0.409-0.177c0.098-0.117,0.172-0.288,0.114-0.438
	C55.231,136.645,54.936,136.686,54.765,136.73z"/>
<path d="M57.364,137.794c-0.06,0.015-0.095,0.056-0.105,0.107c-0.03,0.018-0.053,0.049-0.058,0.095
	c-0.021,0.202-0.04,0.526,0.191,0.621c0.172,0.071,0.349-0.073,0.452-0.196c0.108-0.129,0.19-0.318,0.126-0.485
	C57.879,137.7,57.553,137.745,57.364,137.794z"/>
<path d="M54.521,131.528c-0.054,0.014-0.086,0.051-0.095,0.097c-0.027,0.017-0.048,0.044-0.053,0.086
	c-0.019,0.183-0.036,0.476,0.173,0.562c0.156,0.064,0.316-0.066,0.409-0.177c0.098-0.117,0.172-0.288,0.114-0.438
	C54.987,131.444,54.692,131.485,54.521,131.528z"/>
<path d="M52.319,137.975c-0.044,0.011-0.07,0.041-0.076,0.078c-0.022,0.013-0.039,0.036-0.042,0.069
	c-0.015,0.147-0.029,0.384,0.139,0.453c0.126,0.052,0.255-0.053,0.33-0.143c0.079-0.094,0.139-0.232,0.092-0.354
	C52.695,137.907,52.457,137.94,52.319,137.975z"/>
<path d="M51.852,135.089c-0.054,0.014-0.086,0.051-0.095,0.097c-0.027,0.017-0.048,0.044-0.053,0.086
	c-0.019,0.183-0.036,0.476,0.173,0.562c0.156,0.064,0.316-0.066,0.409-0.177c0.098-0.117,0.172-0.288,0.114-0.438
	C52.318,135.004,52.023,135.045,51.852,135.089z"/>
<path d="M51.701,141.278c-0.048,0.012-0.076,0.045-0.083,0.085c-0.024,0.015-0.042,0.039-0.046,0.075
	c-0.017,0.16-0.032,0.418,0.152,0.494c0.137,0.056,0.278-0.058,0.359-0.156c0.086-0.103,0.151-0.253,0.1-0.385
	C52.111,141.204,51.851,141.239,51.701,141.278z"/>
<path d="M58.163,142.925c-0.033,0.008-0.052,0.031-0.058,0.059c-0.017,0.01-0.029,0.027-0.032,0.052
	c-0.011,0.111-0.022,0.289,0.105,0.342c0.095,0.039,0.192-0.04,0.249-0.108c0.059-0.071,0.105-0.175,0.069-0.267
	C58.446,142.874,58.267,142.898,58.163,142.925z"/>
<path d="M56.476,134.711c-0.033,0.008-0.052,0.031-0.058,0.059c-0.017,0.01-0.029,0.027-0.032,0.052
	c-0.011,0.111-0.022,0.289,0.105,0.342c0.095,0.039,0.192-0.04,0.249-0.108c0.059-0.071,0.105-0.175,0.069-0.267
	C56.759,134.66,56.58,134.684,56.476,134.711z"/>
<path d="M54.444,140.558c-0.033,0.008-0.052,0.031-0.058,0.059c-0.017,0.01-0.029,0.027-0.032,0.052
	c-0.011,0.111-0.022,0.289,0.105,0.342c0.095,0.039,0.192-0.04,0.249-0.108c0.059-0.071,0.105-0.175,0.069-0.267
	C54.727,140.506,54.548,140.531,54.444,140.558z"/>
<path d="M55.281,143.375c-0.033,0.008-0.052,0.031-0.058,0.059c-0.017,0.01-0.029,0.027-0.032,0.052
	c-0.011,0.111-0.022,0.289,0.105,0.342c0.095,0.039,0.192-0.04,0.249-0.108c0.059-0.071,0.105-0.175,0.069-0.267
	C55.565,143.324,55.385,143.349,55.281,143.375z"/>
<path d="M60.368,142.691c-0.033,0.008-0.052,0.031-0.058,0.059c-0.017,0.01-0.029,0.027-0.032,0.052
	c-0.011,0.111-0.022,0.289,0.105,0.342c0.095,0.039,0.192-0.04,0.249-0.108c0.059-0.071,0.105-0.175,0.069-0.267
	C60.652,142.64,60.472,142.665,60.368,142.691z"/>
<path d="M54.052,134.337c-0.033,0.008-0.052,0.031-0.058,0.059c-0.017,0.01-0.029,0.027-0.032,0.052
	c-0.011,0.111-0.022,0.289,0.105,0.342c0.095,0.039,0.192-0.04,0.249-0.108c0.059-0.071,0.105-0.175,0.069-0.267
	C54.336,134.286,54.156,134.31,54.052,134.337z"/>
<path opacity="0.1" enable-background="new    " d="M62.069,142.168c0,0,0.294,1.252-1.754,2.26c0,0-1.671,0.711-2.219,0.638
	c0,0-2.138,0.18-2.728-0.079c0,0-3.173-0.601-4.117-1.143c0,0-4.09-1.748-4.68-2.303c0,0-2.45-0.163-1.186-1.997l1.383,0.739
	C46.766,140.283,59.376,145.654,62.069,142.168z"/>
<path fill="#E33B3B" d="M57.774,133.395c0,0,6.177,11.074,12.689,9.072c0,0,3.466-1.157,1.439-15.484
	C71.901,126.984,64.916,125.221,57.774,133.395z"/>
<path fill="#2AAE58" d="M57.955,133.707c0,0-2.294-1.517,0.288-2.494c0,0-1.664-4.461,2.938-2.845c0,0,1.255-2.808,3.072-0.847
	c0,0,2.882-6.054,4.387-1.582c0,0,2.196-2.572,3.261,1.045C71.901,126.984,62.724,126.695,57.955,133.707z"/>
<path d="M60.504,133.685c-0.054-0.013-0.1,0.004-0.129,0.041c-0.032,0.002-0.063,0.016-0.087,0.051
	c-0.102,0.152-0.255,0.403-0.111,0.577c0.107,0.13,0.31,0.09,0.444,0.035c0.141-0.057,0.287-0.173,0.306-0.334
	C60.955,133.829,60.676,133.727,60.504,133.685z"/>
<path d="M70.738,138.493c-0.054-0.013-0.1,0.004-0.129,0.041c-0.032,0.002-0.063,0.016-0.087,0.051
	c-0.102,0.152-0.255,0.403-0.111,0.577c0.107,0.13,0.31,0.09,0.444,0.035c0.141-0.057,0.287-0.173,0.306-0.334
	C71.189,138.637,70.909,138.534,70.738,138.493z"/>
<path d="M66.943,137.545c-0.054-0.013-0.1,0.004-0.129,0.041c-0.032,0.002-0.063,0.016-0.087,0.051
	c-0.102,0.152-0.255,0.403-0.111,0.577c0.107,0.13,0.31,0.09,0.444,0.035c0.141-0.057,0.287-0.173,0.306-0.334
	C67.394,137.689,67.114,137.586,66.943,137.545z"/>
<path d="M67.449,133.306c-0.054-0.013-0.1,0.004-0.129,0.041c-0.032,0.002-0.063,0.016-0.087,0.051
	c-0.102,0.152-0.255,0.403-0.111,0.577c0.107,0.13,0.31,0.09,0.444,0.035c0.141-0.057,0.287-0.173,0.306-0.334
	C67.9,133.451,67.621,133.348,67.449,133.306z"/>
<path d="M69.245,135.465c-0.06-0.015-0.111,0.005-0.143,0.046c-0.035,0.002-0.07,0.018-0.096,0.056
	c-0.113,0.169-0.282,0.446-0.123,0.638c0.119,0.143,0.343,0.099,0.491,0.039c0.156-0.064,0.317-0.192,0.339-0.369
	C69.744,135.625,69.434,135.511,69.245,135.465z"/>
<path d="M69.676,128.599c-0.054-0.013-0.1,0.004-0.129,0.041c-0.032,0.002-0.063,0.016-0.087,0.051
	c-0.102,0.152-0.255,0.403-0.111,0.577c0.107,0.13,0.31,0.09,0.444,0.035c0.141-0.057,0.287-0.173,0.306-0.334
	C70.127,128.743,69.847,128.641,69.676,128.599z"/>
<path d="M64.705,133.258c-0.044-0.011-0.081,0.004-0.104,0.033c-0.026,0.001-0.051,0.013-0.07,0.041
	c-0.083,0.123-0.206,0.325-0.09,0.466c0.087,0.105,0.25,0.072,0.358,0.028c0.114-0.046,0.232-0.14,0.247-0.269
	C65.069,133.374,64.843,133.291,64.705,133.258z"/>
<path d="M65.648,130.49c-0.054-0.013-0.1,0.004-0.129,0.041c-0.032,0.002-0.063,0.016-0.087,0.051
	c-0.102,0.152-0.255,0.403-0.111,0.577c0.107,0.13,0.31,0.09,0.444,0.035c0.141-0.057,0.287-0.173,0.306-0.334
	C66.099,130.634,65.819,130.532,65.648,130.49z"/>
<path d="M62.609,135.884c-0.048-0.012-0.088,0.004-0.113,0.036c-0.028,0.002-0.056,0.014-0.076,0.045
	c-0.09,0.134-0.224,0.354-0.098,0.507c0.094,0.114,0.272,0.079,0.39,0.031c0.124-0.05,0.252-0.152,0.269-0.293
	C63.006,136.011,62.76,135.921,62.609,135.884z"/>
<path d="M67.542,140.372c-0.033-0.008-0.061,0.003-0.079,0.025c-0.019,0.001-0.039,0.01-0.053,0.031
	c-0.062,0.093-0.155,0.245-0.067,0.351c0.065,0.079,0.188,0.055,0.27,0.021c0.086-0.035,0.175-0.105,0.186-0.203
	C67.816,140.459,67.646,140.397,67.542,140.372z"/>
<path d="M69.908,132.327c-0.033-0.008-0.061,0.003-0.079,0.025c-0.019,0.001-0.039,0.01-0.053,0.031
	c-0.062,0.093-0.155,0.245-0.067,0.351c0.065,0.079,0.188,0.055,0.27,0.021c0.086-0.035,0.175-0.105,0.186-0.203
	C70.182,132.415,70.012,132.352,69.908,132.327z"/>
<path d="M65.369,136.536c-0.033-0.008-0.061,0.003-0.079,0.025c-0.019,0.001-0.039,0.01-0.053,0.031
	c-0.062,0.093-0.155,0.245-0.067,0.351c0.065,0.079,0.188,0.055,0.27,0.021c0.086-0.035,0.175-0.105,0.186-0.203
	C65.644,136.623,65.473,136.561,65.369,136.536z"/>
<path d="M64.786,139.417c-0.033-0.008-0.061,0.003-0.079,0.025c-0.019,0.001-0.039,0.01-0.053,0.031
	c-0.062,0.093-0.155,0.245-0.067,0.351c0.065,0.079,0.188,0.055,0.27,0.021c0.086-0.035,0.175-0.105,0.186-0.203
	C65.06,139.504,64.89,139.442,64.786,139.417z"/>
<path d="M69.599,141.201c-0.033-0.008-0.061,0.003-0.079,0.025c-0.019,0.001-0.039,0.01-0.053,0.031
	c-0.062,0.093-0.155,0.245-0.067,0.351c0.065,0.079,0.188,0.055,0.27,0.021c0.086-0.035,0.175-0.105,0.186-0.203
	C69.873,141.288,69.703,141.226,69.599,141.201z"/>
<path d="M67.943,130.859c-0.033-0.008-0.061,0.003-0.079,0.025c-0.019,0.001-0.039,0.01-0.053,0.031
	c-0.062,0.093-0.155,0.245-0.067,0.351c0.065,0.079,0.188,0.055,0.27,0.021c0.086-0.035,0.175-0.105,0.186-0.203
	C68.218,130.947,68.048,130.884,67.943,130.859z"/>
<path opacity="0.1" enable-background="new    " d="M71.346,141.537c0,0-0.328,1.243-2.61,1.172c0,0-1.809-0.157-2.259-0.479
	c0,0-1.973-0.845-2.372-1.351c0,0-2.52-2.02-3.099-2.942c0,0-2.79-3.463-3.051-4.231c0,0-2.086-1.294-0.11-2.32l0.874,1.302
	C58.719,132.689,67.332,143.351,71.346,141.537z"/>
<path fill="#E33B3B" d="M79.275,125.268c0,0,0.788,12.656,7.526,13.663c0,0,3.626,0.453,7.985-13.344
	C94.786,125.587,89.248,120.98,79.275,125.268z"/>
<path fill="#2AAE58" d="M77.658,126.014c0,0-1.414-2.359,1.337-2.125c0,0,0.425-4.742,3.879-1.297c0,0,2.345-1.991,3.137,0.563
	c0,0,5.214-4.216,4.64,0.468c0,0,3.091-1.371,2.49,2.351C93.14,125.974,84.987,121.749,77.658,126.014z"/>
<path d="M79.966,127.095c-0.043-0.035-0.092-0.039-0.134-0.019c-0.03-0.012-0.064-0.013-0.1,0.009
	c-0.158,0.093-0.404,0.253-0.349,0.472c0.041,0.163,0.241,0.215,0.385,0.223c0.152,0.009,0.334-0.032,0.42-0.169
	C80.311,127.42,80.103,127.207,79.966,127.095z"/>
<path d="M87.12,135.851c-0.043-0.035-0.092-0.039-0.134-0.019c-0.03-0.012-0.064-0.013-0.1,0.009
	c-0.158,0.093-0.404,0.253-0.349,0.473c0.041,0.163,0.241,0.215,0.385,0.223c0.152,0.009,0.334-0.032,0.42-0.169
	C87.465,136.176,87.257,135.962,87.12,135.851z"/>
<path d="M84.107,133.357c-0.043-0.035-0.092-0.039-0.134-0.019c-0.03-0.012-0.064-0.013-0.1,0.009
	c-0.158,0.093-0.404,0.253-0.349,0.472c0.041,0.163,0.241,0.215,0.385,0.224c0.152,0.009,0.334-0.032,0.42-0.169
	C84.451,133.681,84.243,133.468,84.107,133.357z"/>
<path d="M86.394,129.753c-0.043-0.035-0.092-0.039-0.134-0.019c-0.03-0.012-0.064-0.013-0.1,0.009
	c-0.158,0.093-0.404,0.253-0.349,0.473c0.041,0.163,0.241,0.215,0.385,0.223c0.152,0.009,0.334-0.032,0.42-0.169
	C86.738,130.078,86.531,129.864,86.394,129.753z"/>
<path d="M87.081,132.476c-0.048-0.039-0.102-0.043-0.149-0.021c-0.033-0.013-0.071-0.014-0.111,0.009
	c-0.175,0.103-0.447,0.28-0.386,0.523c0.045,0.181,0.266,0.238,0.426,0.247c0.168,0.01,0.369-0.036,0.465-0.187
	C87.462,132.835,87.232,132.599,87.081,132.476z"/>
<path d="M90.435,126.469c-0.043-0.035-0.092-0.039-0.134-0.019c-0.03-0.012-0.064-0.013-0.1,0.009
	c-0.158,0.093-0.404,0.253-0.349,0.473c0.041,0.163,0.241,0.215,0.385,0.223c0.152,0.009,0.334-0.032,0.42-0.169
	C90.779,126.794,90.572,126.58,90.435,126.469z"/>
<path d="M83.94,128.524c-0.035-0.029-0.074-0.032-0.108-0.015c-0.024-0.01-0.052-0.01-0.081,0.007
	c-0.128,0.075-0.326,0.204-0.282,0.381c0.033,0.132,0.194,0.173,0.311,0.18c0.123,0.007,0.269-0.026,0.339-0.136
	C84.218,128.786,84.05,128.614,83.94,128.524z"/>
<path d="M85.985,126.435c-0.043-0.035-0.092-0.039-0.134-0.019c-0.03-0.012-0.064-0.013-0.1,0.009
	c-0.158,0.093-0.404,0.253-0.349,0.472c0.041,0.163,0.241,0.215,0.385,0.224c0.152,0.009,0.334-0.032,0.42-0.169
	C86.33,126.76,86.122,126.546,85.985,126.435z"/>
<path d="M80.915,129.988c-0.038-0.031-0.081-0.034-0.118-0.016c-0.026-0.011-0.056-0.011-0.088,0.008
	c-0.139,0.082-0.355,0.223-0.307,0.415c0.036,0.144,0.212,0.189,0.339,0.196c0.134,0.008,0.293-0.028,0.37-0.148
	C81.218,130.273,81.035,130.086,80.915,129.988z"/>
<path d="M83.426,136.165c-0.026-0.022-0.056-0.024-0.082-0.011c-0.018-0.007-0.039-0.008-0.061,0.005
	c-0.096,0.057-0.246,0.154-0.212,0.287c0.025,0.099,0.146,0.131,0.234,0.136c0.093,0.006,0.203-0.02,0.256-0.103
	C83.635,136.363,83.509,136.233,83.426,136.165z"/>
<path d="M89.034,129.931c-0.026-0.022-0.056-0.024-0.082-0.011c-0.018-0.007-0.039-0.008-0.061,0.005
	c-0.096,0.057-0.246,0.154-0.212,0.287c0.025,0.099,0.146,0.131,0.234,0.136c0.093,0.006,0.203-0.02,0.256-0.103
	C89.244,130.129,89.117,129.999,89.034,129.931z"/>
<path d="M83.123,131.767c-0.026-0.022-0.056-0.024-0.082-0.011c-0.018-0.007-0.039-0.008-0.061,0.005
	c-0.096,0.057-0.246,0.154-0.212,0.287c0.025,0.099,0.146,0.131,0.234,0.136c0.093,0.006,0.203-0.02,0.256-0.103
	C83.333,131.965,83.206,131.835,83.123,131.767z"/>
<path d="M81.353,134.114c-0.026-0.022-0.056-0.024-0.082-0.011c-0.018-0.007-0.039-0.008-0.061,0.005
	c-0.096,0.057-0.246,0.154-0.212,0.287c0.025,0.099,0.146,0.131,0.234,0.136c0.093,0.006,0.203-0.02,0.256-0.103
	C81.562,134.311,81.436,134.182,81.353,134.114z"/>
<path d="M84.923,137.801c-0.026-0.022-0.056-0.024-0.082-0.011c-0.018-0.007-0.039-0.008-0.061,0.005
	c-0.096,0.057-0.246,0.154-0.212,0.287c0.025,0.099,0.146,0.131,0.234,0.136c0.093,0.006,0.203-0.02,0.256-0.103
	C85.133,137.999,85.006,137.869,84.923,137.801z"/>
<path d="M87.896,127.759c-0.026-0.022-0.056-0.024-0.082-0.011c-0.018-0.007-0.039-0.008-0.061,0.005
	c-0.096,0.057-0.246,0.154-0.212,0.287c0.025,0.099,0.146,0.131,0.234,0.136c0.093,0.006,0.203-0.02,0.256-0.103
	C88.106,127.956,87.98,127.827,87.896,127.759z"/>
<path opacity="0.1" enable-background="new    " d="M86.354,138.859c0,0-0.833,0.98-2.86-0.07c0,0-1.564-0.923-1.831-1.407
	c0,0-1.414-1.614-1.556-2.242c0,0-1.4-2.91-1.524-3.992c0,0-1.021-4.329-0.925-5.133c0,0-1.323-2.068,0.903-2.14l0.226,1.552
	C78.786,125.425,81.95,138.762,86.354,138.859z"/>
<path fill="#E33B3B" d="M90.863,130.195c0,0-5.245,11.545,0.232,15.597c0,0,2.989,2.102,13.314-8.034
	C104.409,137.757,101.682,131.09,90.863,130.195z"/>
<path fill="#2AAE58" d="M90.72,130.525c0,0-0.141-2.747,2.178-1.249c0,0,2.601-3.988,4.034,0.675c0,0,3.005-0.657,2.505,1.97
	c0,0,6.583-1.275,3.877,2.591c0,0,3.373,0.24,1.095,3.245C104.409,137.757,99.194,130.201,90.72,130.525z"/>
<path d="M92.251,132.564c-0.022-0.052-0.063-0.078-0.11-0.079c-0.02-0.025-0.051-0.041-0.093-0.04
	c-0.183,0.008-0.476,0.034-0.53,0.253c-0.041,0.163,0.112,0.303,0.235,0.378c0.13,0.08,0.31,0.128,0.45,0.048
	C92.403,133.013,92.32,132.727,92.251,132.564z"/>
<path d="M94.458,143.653c-0.022-0.052-0.063-0.078-0.11-0.079c-0.02-0.025-0.051-0.041-0.093-0.04
	c-0.183,0.008-0.476,0.034-0.53,0.253c-0.041,0.163,0.112,0.303,0.235,0.378c0.13,0.08,0.31,0.128,0.45,0.048
	C94.61,144.102,94.526,143.816,94.458,143.653z"/>
<path d="M92.968,140.036c-0.022-0.052-0.063-0.078-0.11-0.079c-0.02-0.025-0.051-0.041-0.093-0.04
	c-0.183,0.008-0.476,0.034-0.53,0.253c-0.041,0.163,0.112,0.303,0.235,0.378c0.13,0.08,0.31,0.128,0.45,0.048
	C93.12,140.485,93.036,140.199,92.968,140.036z"/>
<path d="M96.679,137.928c-0.022-0.052-0.063-0.078-0.11-0.079c-0.02-0.025-0.051-0.041-0.093-0.04
	c-0.183,0.008-0.476,0.034-0.53,0.253c-0.041,0.163,0.112,0.303,0.235,0.378c0.13,0.08,0.31,0.128,0.45,0.048
	C96.831,138.377,96.747,138.091,96.679,137.928z"/>
<path d="M96.007,140.655c-0.024-0.057-0.07-0.086-0.122-0.088c-0.023-0.027-0.056-0.046-0.102-0.044
	c-0.203,0.009-0.526,0.037-0.586,0.28c-0.045,0.181,0.124,0.335,0.26,0.418c0.144,0.088,0.343,0.142,0.498,0.054
	C96.175,141.151,96.083,140.834,96.007,140.655z"/>
<path d="M101.789,136.925c-0.022-0.052-0.063-0.078-0.11-0.079c-0.02-0.025-0.051-0.041-0.093-0.04
	c-0.183,0.008-0.476,0.034-0.53,0.253c-0.041,0.163,0.112,0.303,0.235,0.378c0.13,0.08,0.31,0.128,0.45,0.048
	C101.94,137.374,101.857,137.088,101.789,136.925z"/>
<path d="M95.089,135.691c-0.018-0.042-0.051-0.063-0.089-0.064c-0.016-0.02-0.041-0.033-0.075-0.032
	c-0.148,0.007-0.384,0.027-0.428,0.204c-0.033,0.132,0.09,0.244,0.19,0.305c0.105,0.064,0.25,0.103,0.363,0.039
	C95.211,136.053,95.144,135.822,95.089,135.691z"/>
<path d="M97.876,134.806c-0.022-0.052-0.063-0.078-0.11-0.079c-0.02-0.025-0.051-0.041-0.093-0.04
	c-0.183,0.008-0.476,0.034-0.53,0.253c-0.041,0.163,0.112,0.303,0.235,0.378c0.13,0.08,0.31,0.128,0.45,0.048
	C98.027,135.255,97.944,134.969,97.876,134.806z"/>
<path d="M91.731,135.563c-0.019-0.045-0.055-0.068-0.097-0.07c-0.018-0.022-0.045-0.036-0.081-0.035
	c-0.161,0.007-0.418,0.03-0.466,0.223c-0.036,0.144,0.098,0.266,0.207,0.332c0.114,0.07,0.272,0.113,0.396,0.043
	C91.865,135.958,91.791,135.706,91.731,135.563z"/>
<path d="M91.048,142.197c-0.013-0.031-0.038-0.047-0.067-0.048c-0.012-0.015-0.031-0.025-0.056-0.024
	c-0.112,0.005-0.289,0.021-0.322,0.154c-0.025,0.099,0.068,0.184,0.143,0.23c0.079,0.048,0.188,0.078,0.274,0.029
	C91.14,142.469,91.09,142.296,91.048,142.197z"/>
<path d="M98.926,139.325c-0.013-0.031-0.038-0.047-0.067-0.048c-0.012-0.015-0.031-0.025-0.056-0.024
	c-0.112,0.005-0.289,0.021-0.322,0.154c-0.025,0.099,0.068,0.184,0.143,0.23c0.079,0.048,0.188,0.078,0.274,0.029
	C99.019,139.598,98.968,139.424,98.926,139.325z"/>
<path d="M92.846,138.171c-0.013-0.031-0.038-0.047-0.067-0.048c-0.012-0.015-0.031-0.025-0.056-0.024
	c-0.112,0.005-0.289,0.021-0.322,0.154c-0.025,0.099,0.068,0.184,0.143,0.23c0.079,0.048,0.188,0.078,0.274,0.029
	C92.938,138.444,92.887,138.27,92.846,138.171z"/>
<path d="M90.181,139.412c-0.013-0.031-0.038-0.047-0.067-0.048c-0.012-0.015-0.031-0.025-0.056-0.024
	c-0.112,0.005-0.289,0.021-0.322,0.154c-0.025,0.099,0.068,0.184,0.143,0.23c0.079,0.048,0.188,0.078,0.274,0.029
	C90.273,139.685,90.222,139.511,90.181,139.412z"/>
<path d="M91.602,144.344c-0.013-0.031-0.038-0.047-0.067-0.048c-0.012-0.015-0.031-0.025-0.056-0.024
	c-0.112,0.005-0.289,0.021-0.322,0.154c-0.025,0.099,0.068,0.184,0.143,0.23c0.079,0.048,0.188,0.078,0.274,0.029
	C91.694,144.617,91.644,144.443,91.602,144.344z"/>
<path d="M98.942,136.873c-0.013-0.031-0.038-0.047-0.067-0.048c-0.012-0.015-0.031-0.025-0.056-0.024
	c-0.112,0.005-0.289,0.021-0.322,0.154c-0.025,0.099,0.068,0.184,0.143,0.23c0.079,0.048,0.188,0.078,0.274,0.029
	C99.034,137.145,98.983,136.972,98.942,136.873z"/>
<path opacity="0.1" enable-background="new    " d="M92.369,145.95c0,0-1.195,0.474-2.493-1.405c0,0-0.948-1.549-0.956-2.102
	c0,0-0.491-2.089-0.321-2.71c0,0,0.13-3.227,0.528-4.24c0,0,1.131-4.301,1.593-4.967c0,0-0.197-2.447,1.802-1.466l-0.529,1.476
	C91.993,130.536,88.526,143.797,92.369,145.95z"/>
<path fill="#E33B3B" d="M62.277,134.921c0,0,4.962,11.669,11.65,10.372c0,0,3.569-0.782,3.08-15.242
	C77.007,130.051,70.249,127.554,62.277,134.921z"/>
<path fill="#2AAE58" d="M62.424,135.25c0,0-2.12-1.753,0.552-2.449c0,0-1.18-4.613,3.224-2.516c0,0,1.547-2.659,3.145-0.515
	c0,0,3.511-5.713,4.531-1.106c0,0,2.457-2.323,3.131,1.387C77.007,130.051,67.913,128.786,62.424,135.25z"/>
<path d="M64.961,135.5c-0.053-0.019-0.1-0.006-0.133,0.027c-0.032-0.002-0.065,0.009-0.092,0.041
	c-0.118,0.141-0.297,0.373-0.172,0.562c0.093,0.14,0.299,0.122,0.438,0.082c0.147-0.042,0.304-0.142,0.34-0.299
	C65.394,135.691,65.127,135.56,64.961,135.5z"/>
<path d="M74.624,141.37c-0.053-0.019-0.1-0.006-0.133,0.027c-0.032-0.002-0.065,0.009-0.092,0.041
	c-0.118,0.141-0.297,0.373-0.172,0.562c0.093,0.14,0.299,0.122,0.438,0.082c0.147-0.042,0.304-0.142,0.34-0.299
	C75.058,141.561,74.791,141.43,74.624,141.37z"/>
<path d="M70.952,140.023c-0.053-0.019-0.1-0.006-0.133,0.027c-0.032-0.002-0.065,0.009-0.092,0.041
	c-0.118,0.141-0.297,0.373-0.172,0.562c0.093,0.14,0.299,0.122,0.438,0.082c0.147-0.042,0.304-0.142,0.34-0.299
	C71.385,140.215,71.118,140.083,70.952,140.023z"/>
<path d="M71.907,135.863c-0.053-0.019-0.1-0.006-0.133,0.027c-0.032-0.002-0.065,0.009-0.092,0.041
	c-0.118,0.141-0.297,0.373-0.172,0.562c0.093,0.14,0.299,0.122,0.438,0.082c0.147-0.042,0.304-0.142,0.34-0.299
	C72.34,136.055,72.073,135.923,71.907,135.863z"/>
<path d="M73.462,138.201c-0.058-0.021-0.111-0.007-0.147,0.03c-0.035-0.002-0.072,0.01-0.101,0.046
	c-0.131,0.155-0.328,0.413-0.19,0.622c0.103,0.155,0.33,0.135,0.484,0.091c0.162-0.047,0.336-0.157,0.376-0.331
	C73.941,138.413,73.646,138.267,73.462,138.201z"/>
<path d="M74.622,131.42c-0.053-0.019-0.1-0.006-0.133,0.027c-0.032-0.002-0.065,0.009-0.092,0.041
	c-0.118,0.141-0.297,0.373-0.172,0.562c0.093,0.14,0.299,0.122,0.438,0.082c0.147-0.042,0.304-0.142,0.34-0.299
	C75.055,131.611,74.788,131.479,74.622,131.42z"/>
<path d="M69.183,135.523c-0.043-0.015-0.081-0.005-0.107,0.022c-0.026-0.001-0.052,0.008-0.074,0.033
	c-0.095,0.113-0.239,0.301-0.139,0.453c0.075,0.113,0.241,0.099,0.353,0.066c0.118-0.034,0.245-0.114,0.274-0.241
	C69.533,135.677,69.317,135.571,69.183,135.523z"/>
<path d="M70.415,132.871c-0.053-0.019-0.1-0.006-0.133,0.027c-0.032-0.002-0.065,0.009-0.092,0.041
	c-0.118,0.141-0.297,0.373-0.172,0.562c0.093,0.14,0.299,0.122,0.438,0.082c0.147-0.042,0.304-0.142,0.34-0.299
	C70.848,133.062,70.581,132.931,70.415,132.871z"/>
<path d="M66.82,137.911c-0.046-0.017-0.088-0.005-0.117,0.024c-0.028-0.001-0.057,0.008-0.081,0.036
	c-0.104,0.124-0.261,0.328-0.151,0.494c0.082,0.123,0.262,0.107,0.385,0.072c0.129-0.037,0.267-0.125,0.299-0.263
	C67.2,138.079,66.966,137.963,66.82,137.911z"/>
<path d="M71.246,142.898c-0.032-0.011-0.061-0.004-0.081,0.017c-0.019-0.001-0.039,0.006-0.056,0.025
	c-0.072,0.085-0.18,0.227-0.104,0.342c0.057,0.085,0.182,0.074,0.266,0.05c0.089-0.026,0.185-0.086,0.207-0.182
	C71.51,143.015,71.347,142.934,71.246,142.898z"/>
<path d="M74.456,135.151c-0.032-0.012-0.061-0.004-0.081,0.017c-0.019-0.001-0.039,0.006-0.056,0.025
	c-0.072,0.085-0.18,0.227-0.104,0.342c0.057,0.085,0.182,0.074,0.266,0.05c0.089-0.026,0.185-0.086,0.207-0.182
	C74.719,135.268,74.557,135.187,74.456,135.151z"/>
<path d="M69.495,138.852c-0.032-0.012-0.061-0.004-0.081,0.017c-0.019-0.001-0.039,0.006-0.056,0.025
	c-0.072,0.085-0.18,0.227-0.104,0.342c0.057,0.085,0.182,0.074,0.266,0.05c0.089-0.026,0.185-0.086,0.207-0.182
	C69.758,138.969,69.596,138.889,69.495,138.852z"/>
<path d="M68.608,141.655c-0.032-0.011-0.061-0.004-0.081,0.017c-0.019-0.001-0.039,0.006-0.056,0.025
	c-0.072,0.085-0.18,0.227-0.104,0.342c0.057,0.085,0.182,0.074,0.266,0.05c0.089-0.026,0.185-0.086,0.207-0.182
	C68.871,141.772,68.709,141.691,68.608,141.655z"/>
<path d="M73.203,143.942c-0.032-0.011-0.061-0.004-0.081,0.017c-0.019-0.001-0.039,0.006-0.056,0.025
	c-0.072,0.085-0.18,0.227-0.104,0.342c0.057,0.085,0.182,0.074,0.266,0.05c0.089-0.026,0.185-0.086,0.207-0.182
	C73.467,144.058,73.304,143.978,73.203,143.942z"/>
<path d="M72.659,133.482c-0.032-0.012-0.061-0.004-0.081,0.017c-0.019-0.001-0.039,0.006-0.056,0.025
	c-0.072,0.085-0.18,0.227-0.104,0.342c0.057,0.085,0.182,0.074,0.266,0.05c0.089-0.026,0.185-0.086,0.207-0.182
	C72.922,133.599,72.76,133.519,72.659,133.482z"/>
<path opacity="0.1" enable-background="new    " d="M74.905,144.462c0,0-0.459,1.201-2.72,0.887c0,0-1.782-0.349-2.195-0.716
	c0,0-1.871-1.05-2.215-1.595c0,0-2.29-2.277-2.768-3.255c0,0-2.406-3.741-2.583-4.531c0,0-1.937-1.509,0.138-2.319l0.73,1.388
	C63.292,134.319,70.721,145.838,74.905,144.462z"/>
<path fill="#E33B3B" d="M76.268,134.79c0,0-1.096,12.633,5.418,14.627c0,0,3.519,0.985,9.874-12.013
	C91.56,137.404,86.766,132.027,76.268,134.79z"/>
<path fill="#2AAE58" d="M76.243,135.149c0,0-1.049-2.543,1.637-1.903c0,0,1.123-4.627,4.028-0.708c0,0,2.614-1.621,3.019,1.022
	c0,0,5.781-3.396,4.519,1.151c0,0,3.26-0.898,2.114,2.694C91.56,137.404,84.124,132.018,76.243,135.149z"/>
<path d="M78.366,136.561c-0.038-0.041-0.085-0.052-0.13-0.038c-0.027-0.016-0.062-0.022-0.1-0.006
	c-0.17,0.069-0.437,0.19-0.415,0.416c0.016,0.168,0.206,0.248,0.348,0.278c0.149,0.032,0.335,0.018,0.441-0.104
	C78.659,136.933,78.485,136.691,78.366,136.561z"/>
<path d="M84.143,146.28c-0.038-0.041-0.085-0.052-0.13-0.038c-0.027-0.016-0.062-0.022-0.1-0.006
	c-0.17,0.069-0.437,0.19-0.415,0.416c0.016,0.168,0.206,0.248,0.348,0.278c0.149,0.032,0.335,0.017,0.441-0.104
	C84.436,146.652,84.262,146.411,84.143,146.28z"/>
<path d="M81.533,143.367c-0.038-0.041-0.085-0.052-0.13-0.038c-0.027-0.016-0.062-0.022-0.1-0.006
	c-0.17,0.069-0.437,0.19-0.415,0.416c0.016,0.168,0.206,0.248,0.348,0.278c0.149,0.032,0.335,0.017,0.441-0.104
	C81.826,143.739,81.652,143.497,81.533,143.367z"/>
<path d="M84.329,140.142c-0.038-0.041-0.085-0.052-0.13-0.038c-0.027-0.016-0.062-0.022-0.1-0.006
	c-0.17,0.069-0.437,0.19-0.415,0.416c0.016,0.168,0.206,0.248,0.348,0.278c0.149,0.032,0.335,0.017,0.441-0.104
	C84.622,140.514,84.448,140.272,84.329,140.142z"/>
<path d="M84.605,142.936c-0.042-0.046-0.094-0.058-0.144-0.042c-0.03-0.018-0.068-0.024-0.111-0.007
	c-0.188,0.076-0.484,0.211-0.46,0.46c0.018,0.185,0.228,0.274,0.385,0.308c0.165,0.035,0.37,0.019,0.488-0.116
	C84.928,143.348,84.736,143.081,84.605,142.936z"/>
<path d="M88.812,137.493c-0.038-0.041-0.085-0.052-0.13-0.038c-0.027-0.016-0.062-0.022-0.1-0.006
	c-0.17,0.069-0.437,0.19-0.415,0.416c0.016,0.168,0.206,0.248,0.348,0.278c0.149,0.032,0.335,0.017,0.441-0.104
	C89.105,137.865,88.931,137.623,88.812,137.493z"/>
<path d="M82.084,138.563c-0.03-0.033-0.069-0.042-0.105-0.031c-0.022-0.013-0.05-0.018-0.081-0.005
	c-0.137,0.055-0.353,0.154-0.335,0.335c0.013,0.135,0.166,0.2,0.281,0.224c0.12,0.026,0.27,0.014,0.356-0.084
	C82.32,138.863,82.18,138.668,82.084,138.563z"/>
<path d="M84.416,136.8c-0.038-0.041-0.085-0.052-0.13-0.038c-0.027-0.016-0.062-0.022-0.1-0.006c-0.17,0.069-0.437,0.19-0.415,0.416
	c0.016,0.168,0.206,0.248,0.348,0.278c0.149,0.032,0.335,0.017,0.441-0.104C84.709,137.172,84.535,136.93,84.416,136.8z"/>
<path d="M78.876,139.562c-0.033-0.036-0.075-0.046-0.114-0.034c-0.024-0.014-0.054-0.019-0.088-0.006
	c-0.15,0.06-0.384,0.167-0.365,0.365c0.014,0.147,0.181,0.218,0.306,0.244c0.131,0.028,0.294,0.015,0.387-0.092
	C79.133,139.889,78.98,139.677,78.876,139.562z"/>
<path d="M80.443,146.044c-0.023-0.025-0.052-0.032-0.079-0.023c-0.017-0.01-0.037-0.013-0.061-0.004
	c-0.103,0.042-0.266,0.116-0.253,0.253c0.01,0.102,0.125,0.151,0.212,0.169c0.091,0.019,0.204,0.011,0.268-0.064
	C80.621,146.27,80.515,146.123,80.443,146.044z"/>
<path d="M86.914,140.71c-0.023-0.025-0.052-0.032-0.079-0.023c-0.017-0.01-0.037-0.013-0.061-0.004
	c-0.103,0.042-0.266,0.116-0.253,0.253c0.01,0.102,0.125,0.151,0.212,0.169c0.091,0.019,0.204,0.011,0.268-0.064
	C87.092,140.936,86.986,140.789,86.914,140.71z"/>
<path d="M80.796,141.649c-0.023-0.025-0.052-0.032-0.079-0.023c-0.017-0.01-0.037-0.013-0.061-0.004
	c-0.103,0.042-0.266,0.116-0.253,0.253c0.01,0.102,0.125,0.151,0.212,0.169c0.091,0.019,0.204,0.011,0.268-0.064
	C80.974,141.875,80.868,141.728,80.796,141.649z"/>
<path d="M78.697,143.708c-0.023-0.025-0.052-0.032-0.079-0.023c-0.017-0.01-0.037-0.013-0.061-0.004
	c-0.103,0.042-0.266,0.116-0.253,0.253c0.01,0.102,0.125,0.151,0.212,0.169c0.091,0.019,0.204,0.011,0.268-0.064
	C78.875,143.934,78.769,143.787,78.697,143.708z"/>
<path d="M81.682,147.883c-0.023-0.025-0.052-0.032-0.079-0.023c-0.017-0.01-0.037-0.013-0.061-0.004
	c-0.103,0.042-0.266,0.116-0.253,0.253c0.01,0.102,0.125,0.151,0.212,0.169c0.091,0.019,0.204,0.011,0.268-0.064
	C81.86,148.11,81.754,147.963,81.682,147.883z"/>
<path d="M86.11,138.393c-0.023-0.025-0.052-0.032-0.079-0.023c-0.017-0.01-0.038-0.013-0.061-0.004
	c-0.103,0.042-0.266,0.116-0.253,0.253c0.01,0.102,0.125,0.151,0.212,0.169c0.091,0.019,0.204,0.011,0.268-0.064
	C86.288,138.619,86.183,138.472,86.11,138.393z"/>
<path opacity="0.1" enable-background="new    " d="M82.94,149.141c0,0-0.969,0.845-2.818-0.493c0,0-1.41-1.144-1.602-1.663
	c0,0-1.159-1.806-1.207-2.448c0,0-0.953-3.086-0.916-4.174c0,0-0.368-4.432-0.154-5.214c0,0-1.002-2.241,1.21-1.983l-0.007,1.568
	C77.447,134.735,78.599,148.393,82.94,149.141z"/>
<polygon fill="none" stroke="#AD7B40" stroke-width="1.0368" stroke-miterlimit="10" points="35.051,129.489 112.795,129.489 
	101.596,156.966 47.25,156.966 "/>
<line fill="none" stroke="#AD7B40" stroke-width="1.0368" stroke-miterlimit="10" x1="40.581" y1="129.489" x2="52.716" y2="156.966"/>
<line fill="none" stroke="#AD7B40" stroke-width="1.0368" stroke-miterlimit="10" x1="60.608" y1="129.489" x2="71.031" y2="156.966"/>
<line fill="none" stroke="#AD7B40" stroke-width="1.0368" stroke-miterlimit="10" x1="70.304" y1="129.489" x2="81.034" y2="156.966"/>
<line fill="none" stroke="#AD7B40" stroke-width="1.0368" stroke-miterlimit="10" x1="83.049" y1="129.489" x2="89.984" y2="156.966"/>
<line fill="none" stroke="#AD7B40" stroke-width="1.0368" stroke-miterlimit="10" x1="93.452" y1="129.489" x2="98.293" y2="156.966"/>
<line fill="none" stroke="#AD7B40" stroke-width="1.0368" stroke-miterlimit="10" x1="100.856" y1="129.489" x2="105.199" y2="148.381"/>
<line fill="none" stroke="#AD7B40" stroke-width="1.0368" stroke-miterlimit="10" x1="105.902" y1="129.489" x2="108.896" y2="139.73"/>
<line fill="none" stroke="#AD7B40" stroke-width="1.0368" stroke-miterlimit="10" x1="55.967" y1="129.489" x2="39.347" y2="139.166"/>
<line fill="none" stroke="#AD7B40" stroke-width="1.0368" stroke-miterlimit="10" x1="67.196" y1="129.489" x2="45.021" y2="152.254"/>
<line fill="none" stroke="#AD7B40" stroke-width="1.0368" stroke-miterlimit="10" x1="78.801" y1="129.489" x2="47.25" y2="156.966"/>
<polyline fill="none" stroke="#AD7B40" stroke-width="1.0368" stroke-miterlimit="10" points="93.525,130.046 62.45,156.966 
	48.884,129.489 "/>
<line fill="none" stroke="#AD7B40" stroke-width="1.0368" stroke-miterlimit="10" x1="100.856" y1="130.18" x2="81.721" y2="156.274"/>
<line fill="none" stroke="#AD7B40" stroke-width="1.0368" stroke-miterlimit="10" x1="112.795" y1="129.489" x2="97.094" y2="156.966"/>
<rect x="4.852" y="163.701" fill="#C73A22" width="140.943" height="23.059"/>
<rect x="5.523" y="167.641" fill="none" width="140.291" height="13.525"/>
<g enable-background="new    ">
	<path fill="#FFFFFF" d="M31.156,172.061c0,1.395-0.475,2.489-1.423,3.283c-0.949,0.794-2.249,1.191-3.897,1.191h-0.714l-0.83,4.025
		h-3.246l2.565-12.136h3.096c1.433,0,2.533,0.314,3.299,0.942C30.772,169.996,31.156,170.893,31.156,172.061z M25.702,173.879h0.523
		c0.503,0,0.91-0.162,1.22-0.486c0.31-0.323,0.465-0.734,0.465-1.232c0-0.326-0.1-0.59-0.299-0.789s-0.473-0.299-0.822-0.299H26.3
		L25.702,173.879z"/>
	<path fill="#FFFFFF" d="M35.821,176.145l-0.938,4.416h-3.246l2.565-12.136h3.212c1.395,0,2.462,0.276,3.204,0.83
		s1.112,1.386,1.112,2.499c0,0.863-0.196,1.615-0.589,2.258c-0.393,0.642-0.977,1.131-1.751,1.469l1.859,4.283l0.332,0.797h-3.536
		l-1.619-4.416L35.821,176.145L35.821,176.145z M36.344,173.68h0.423c0.526,0,0.943-0.151,1.253-0.453s0.465-0.724,0.465-1.266
		c0-0.343-0.096-0.604-0.286-0.784c-0.191-0.18-0.469-0.271-0.834-0.271h-0.44L36.344,173.68z"/>
	<path fill="#FFFFFF" d="M49.857,168.235c1.439,0,2.558,0.41,3.358,1.232c0.799,0.821,1.199,1.969,1.199,3.44
		s-0.275,2.818-0.826,4.038c-0.55,1.221-1.31,2.155-2.278,2.806s-2.092,0.976-3.37,0.976c-1.489,0-2.638-0.412-3.449-1.236
		c-0.811-0.825-1.216-1.971-1.216-3.438c0-1.466,0.285-2.813,0.855-4.042s1.346-2.165,2.329-2.81
		C47.44,168.557,48.574,168.235,49.857,168.235z M51.136,172.941c0-0.631-0.133-1.125-0.398-1.481
		c-0.266-0.357-0.65-0.535-1.154-0.535c-0.548,0-1.051,0.232-1.511,0.697s-0.826,1.104-1.1,1.917s-0.411,1.646-0.411,2.499
		c0,1.339,0.553,2.008,1.66,2.008c0.526,0,1.014-0.229,1.465-0.688s0.806-1.079,1.063-1.859
		C51.007,174.717,51.136,173.865,51.136,172.941z"/>
	<path fill="#FFFFFF" d="M66.036,173.016c0,1.549-0.274,2.893-0.822,4.029c-0.548,1.138-1.343,2.008-2.387,2.611
		c-1.043,0.603-2.278,0.904-3.706,0.904h-3.91l2.565-12.136h3.453c1.527,0,2.71,0.399,3.549,1.199
		C65.616,170.424,66.036,171.555,66.036,173.016z M59.611,177.872c0.609,0,1.152-0.193,1.631-0.581s0.851-0.939,1.116-1.656
		s0.398-1.534,0.398-2.452c0-0.692-0.149-1.217-0.448-1.573c-0.299-0.357-0.717-0.536-1.253-0.536h-0.589l-1.428,6.799h0.573
		V177.872z"/>
	<path fill="#FFFFFF" d="M78.603,168.425l-1.652,7.736c-0.326,1.555-0.949,2.705-1.867,3.449s-2.167,1.116-3.744,1.116
		c-0.742,0-1.396-0.152-1.963-0.457c-0.567-0.304-1.004-0.73-1.312-1.277c-0.307-0.549-0.46-1.16-0.46-1.835
		c0-0.354,0.033-0.711,0.1-1.071l1.652-7.661h3.246l-1.619,7.579c-0.078,0.376-0.116,0.694-0.116,0.954
		c0,0.703,0.335,1.054,1.004,1.054c0.52,0,0.928-0.178,1.224-0.535c0.296-0.356,0.522-0.903,0.677-1.639l1.585-7.413H78.603z"/>
	<path fill="#FFFFFF" d="M85.799,170.94c-0.598,0-1.137,0.217-1.618,0.648s-0.859,1.026-1.133,1.784s-0.411,1.58-0.411,2.466
		c0,0.741,0.154,1.295,0.465,1.66c0.31,0.365,0.755,0.547,1.336,0.547c0.46,0,0.925-0.057,1.395-0.17
		c0.471-0.113,1.024-0.306,1.66-0.576v2.681c-1.123,0.498-2.341,0.747-3.652,0.747c-1.438,0-2.547-0.411-3.324-1.232
		c-0.777-0.822-1.166-1.985-1.166-3.49c0-1.473,0.28-2.822,0.843-4.051c0.562-1.229,1.325-2.156,2.291-2.781
		c0.965-0.625,2.07-0.938,3.315-0.938c1.467,0,2.798,0.362,3.993,1.087l-1.229,2.532c-0.515-0.305-0.988-0.533-1.42-0.686
		S86.264,170.94,85.799,170.94z"/>
	<path fill="#FFFFFF" d="M94.399,180.561h-3.245l1.967-9.455H90.49l0.572-2.681h8.533l-0.589,2.681h-2.64L94.399,180.561z"/>
	<path fill="#FFFFFF" d="M98.832,180.561l2.565-12.136h3.295l-2.564,12.136H98.832z"/>
	<path fill="#FFFFFF" d="M112.055,168.235c1.438,0,2.558,0.41,3.357,1.232c0.8,0.821,1.199,1.969,1.199,3.44
		s-0.275,2.818-0.826,4.038c-0.55,1.221-1.31,2.155-2.278,2.806c-0.968,0.65-2.092,0.976-3.37,0.976
		c-1.488,0-2.638-0.412-3.449-1.236c-0.811-0.825-1.216-1.971-1.216-3.438c0-1.466,0.285-2.813,0.855-4.042
		c0.569-1.229,1.346-2.165,2.328-2.81S110.771,168.235,112.055,168.235z M113.333,172.941c0-0.631-0.133-1.125-0.398-1.481
		c-0.266-0.357-0.65-0.535-1.154-0.535c-0.548,0-1.051,0.232-1.511,0.697c-0.459,0.465-0.826,1.104-1.1,1.917
		s-0.411,1.646-0.411,2.499c0,1.339,0.554,2.008,1.66,2.008c0.526,0,1.015-0.229,1.465-0.688c0.451-0.459,0.806-1.079,1.063-1.859
		C113.205,174.717,113.333,173.865,113.333,172.941z"/>
	<path fill="#FFFFFF" d="M128.083,180.561h-3.776l-2.399-8.533h-0.066c-0.16,1.61-0.318,2.767-0.473,3.47l-1.071,5.063h-2.889
		l2.565-12.136h3.776l2.374,8.159h0.075c0.16-1.306,0.318-2.332,0.473-3.079l1.088-5.08h2.889L128.083,180.561z"/>
</g>
</svg>
