<?xml version="1.0" encoding="utf-8"?>
<!-- Generator: Adobe Illustrator 17.0.0, SVG Export Plug-In . SVG Version: 6.00 Build 0)  -->
<!DOCTYPE svg PUBLIC "-//W3C//DTD SVG 1.1//EN" "http://www.w3.org/Graphics/SVG/1.1/DTD/svg11.dtd">
<svg version="1.1" id="Layer_1" xmlns="http://www.w3.org/2000/svg" xmlns:xlink="http://www.w3.org/1999/xlink" x="0px" y="0px"
	 width="150.667px" height="190.667px" viewBox="0 0 150.667 190.667" enable-background="new 0 0 150.667 190.667"
	 xml:space="preserve">
<path d="M104.704,84.108"/>
<path fill="#BBBDBF" d="M95.237,91.188c0,0,31.291,44.323,20.711,86.067l-11.44-8.585C104.508,168.67,111.25,136.426,95.237,91.188z
	"/>
<path fill="#BBBDBF" d="M56.02,94.939c0,0-22.806,48.856-14.121,87.39l10.755-9.429C52.654,172.9,43.485,141.261,56.02,94.939z"/>
<path fill="#BBBDBF" d="M46.078,156.114l64.004-0.686l-5.798-35.607l-3.57-13.359l-3.39-9.053c0,0-3.491-11.897-4.567-11.943
	c-1.076-0.046-31.954-9.382-31.954-9.382l-9.297,36.058L46.078,156.114z"/>
<polygon points="74.03,97.724 71.824,103.593 63.228,102.459 56.489,99.767 58.812,94.26 "/>
<polygon points="73.414,98.516 76.653,102.318 92.088,100.009 92.671,92.71 "/>
<path fill="#006838" d="M46.078,169.953c0,0-6.628-14.926,0.337-43.083l9.007-8.702l1.815-28.25l6.323,6.033l-0.621,14.385
	l25.903-0.739l0.643-14.882l0.256-5.931l5.451,0.235l0.869,26.483l12.721,4.969c0,0,5.474,19.675,2.264,47.42
	C111.045,167.892,91.226,176.207,46.078,169.953z"/>
<rect x="84.722" y="124.291" fill="#FFFFFF" width="16.8" height="6.98"/>
<path fill="#C09C67" d="M107.546,58.294c4.25,21.198-15.218,39.146-33.991,39.146s-38.034-17.908-33.99-39.146
	c4.423-23.227,15.218-33.546,33.991-33.546S102.914,35.189,107.546,58.294z"/>
<path fill="#5B462A" d="M40.903,74.435l22.187,7.904l4.223,5.764l13.536-1.151l5.194-4.284l20.822-9.95
	c0,0-5.342,17.848-21.962,23.297c-13.843,4.539-23.947,0.68-28.263-2.934C56.64,93.082,47.076,88.485,40.903,74.435z"/>
<ellipse transform="matrix(-0.9774 -0.2112 0.2112 -0.9774 123.9138 133.7316)" cx="69.099" cy="60.248" rx="2.592" ry="2.916"/>
<ellipse transform="matrix(-0.9774 -0.2112 0.2112 -0.9774 148.1522 136.5909)" cx="81.371" cy="60.383" rx="2.592" ry="2.916"/>
<path fill="none" stroke="#000000" stroke-width="0.5106" stroke-miterlimit="10" d="M62.371,75.366c0,0,12.978,12.765,25.743,1.277
	"/>
<path fill="#52A476" d="M58.216,21.907c0,0,3.361-7.407,7.16-8.778c0,0,10.411-3.587,12.857,4.087"/>
<path fill="#52A476" d="M43.101,44.154c0,0-4.444,10.198,13.332,9.223l42.216-1.317c0,0,11.34-0.869,1.666-16.06"/>
<path fill="#006838" d="M43.101,44.154c0,0,30.228,0.494,59.952-3.051c0,0,0-21.287-29.639-24.609
	C73.414,16.494,46.012,18.54,43.101,44.154z"/>
<path fill="#E33B3B" d="M58.867,138.199c-3.896-0.703-5.202-1.915-5.202-1.915c-0.603-3.797,4.15-11.382,4.15-11.382l7.425,1.977
	c0,0,1.397,7.534-0.967,11.74c0,0-0.333,0.543-5.525-0.445"/>
<path d="M58.336,123.236c0,0,3.579,2.637,7.023,2.162c0,0,2.238-0.83-2.421-2.382c0,0-3.858-1.296-4.717,0.04"/>
<path fill="#FFFFFF" stroke="#000000" stroke-width="0.1003" stroke-miterlimit="10" d="M58.272,123.095c0,0,3.63,2.904,7.567,1.818
	c0,0-0.308,1.585-0.599,1.966c0,0-4.655-0.168-7.425-1.977C57.815,124.902,57.754,124.283,58.272,123.095z"/>
<line fill="none" stroke="#000000" stroke-width="0.0602" stroke-miterlimit="10" x1="57.613" y1="123.134" x2="56.994" y2="125.48"/>
<line fill="none" stroke="#000000" stroke-width="0.0512" stroke-miterlimit="10" x1="57.887" y1="124.049" x2="57.413" y2="125.736"/>
<line fill="none" stroke="#000000" stroke-width="0.0512" stroke-miterlimit="10" x1="59.327" y1="123.814" x2="58.853" y2="125.5"/>
<line fill="none" stroke="#000000" stroke-width="0.0512" stroke-miterlimit="10" x1="59.574" y1="123.959" x2="59.1" y2="125.646"/>
<line fill="none" stroke="#000000" stroke-width="0.0602" stroke-miterlimit="10" x1="60.063" y1="123.516" x2="59.505" y2="125.68"/>
<line fill="none" stroke="#000000" stroke-width="0.0602" stroke-miterlimit="10" x1="65.039" y1="124.74" x2="64.5" y2="126.87"/>
<line fill="none" stroke="#000000" stroke-width="0.0602" stroke-miterlimit="10" x1="64.519" y1="124.917" x2="64.163" y2="126.796"/>
<line fill="none" stroke="#000000" stroke-width="0.0602" stroke-miterlimit="10" x1="60.355" y1="123.696" x2="59.883" y2="125.841"/>
<line fill="none" stroke="#000000" stroke-width="0.0602" stroke-miterlimit="10" x1="60.849" y1="123.974" x2="60.396" y2="126.032"/>
<line fill="none" stroke="#000000" stroke-width="0.0602" stroke-miterlimit="10" x1="61.161" y1="124.131" x2="60.642" y2="126.113"/>
<line fill="none" stroke="#000000" stroke-width="0.0616" stroke-miterlimit="10" x1="61.717" y1="124.323" x2="61.243" y2="126.245"/>
<line fill="none" stroke="#000000" stroke-width="0.0602" stroke-miterlimit="10" x1="60.64" y1="123.861" x2="60.14" y2="125.941"/>
<line fill="none" stroke="#000000" stroke-width="0.0602" stroke-miterlimit="10" x1="61.45" y1="124.264" x2="60.991" y2="126.163"/>
<line fill="none" stroke="#000000" stroke-width="0.0614" stroke-miterlimit="10" x1="62.25" y1="124.529" x2="61.833" y2="126.425"/>
<line fill="none" stroke="#000000" stroke-width="0.0632" stroke-miterlimit="10" x1="62.588" y1="124.568" x2="62.215" y2="126.501"/>
<line fill="none" stroke="#000000" stroke-width="0.0632" stroke-miterlimit="10" x1="62.017" y1="124.478" x2="61.532" y2="126.351"/>
<line fill="none" stroke="#000000" stroke-width="0.0575" stroke-miterlimit="10" x1="62.874" y1="125.08" x2="62.624" y2="126.563"/>
<line fill="none" stroke="#000000" stroke-width="0.0632" stroke-miterlimit="10" x1="63.487" y1="124.801" x2="63.135" y2="126.635"/>
<line fill="none" stroke="#000000" stroke-width="0.0632" stroke-miterlimit="10" x1="64.082" y1="124.897" x2="63.62" y2="126.707"/>
<line fill="none" stroke="#000000" stroke-width="0.0632" stroke-miterlimit="10" x1="65.346" y1="124.991" x2="65.039" y2="126.847"/>
<line fill="none" stroke="#000000" stroke-width="0.0632" stroke-miterlimit="10" x1="63.746" y1="124.897" x2="63.416" y2="126.747"/>
<path fill="none" stroke="#FFFFFF" stroke-width="0.301" stroke-miterlimit="10" d="M57.623,130.441c0,0,0.453,3.188-0.644,3.725
	c0,0-1.217,0.737-1.812-0.55"/>
<path fill="none" stroke="#FFFFFF" stroke-width="0.301" stroke-miterlimit="10" d="M58.13,134.825c0,0,1.088-4.831,1.614-4.138
	c0,0,1.049,0.482,0.645,4.486"/>
<line fill="none" stroke="#FFFFFF" stroke-width="0.301" stroke-miterlimit="10" x1="58.601" y1="132.971" x2="60.48" y2="133.384"/>
<path fill="none" stroke="#FFFFFF" stroke-width="0.301" stroke-miterlimit="10" d="M61.084,135.351c0,0,0.884-7.439,1.428-2.95
	c0,0,1.417-2.215,1.439-0.834l-0.52,4.3"/>
<line fill="none" stroke="#FFFFFF" stroke-width="0.301" stroke-miterlimit="10" x1="56.389" y1="130.245" x2="58.551" y2="130.575"/>
<path fill="#E33B3B" d="M72.691,137.927c-3.862,0.87-5.537,0.263-5.537,0.263c-2.035-3.262-0.614-12.099-0.614-12.099l7.609-1.073
	c0,0,4.222,6.394,3.684,11.189c0,0-0.095,0.63-5.262,1.743"/>
<path d="M65.314,124.782c0,0,4.324,1.034,7.31-0.745c0,0,1.737-1.637-3.158-1.251c0,0-4.057,0.31-4.329,1.875"/>
<path fill="#FFFFFF" stroke="#000000" stroke-width="0.1003" stroke-miterlimit="10" d="M66.257,124.249
	c0,0,4.475,1.259,7.677-1.274c0,0,0.334,1.579,0.215,2.044c0,0-4.352,1.659-7.609,1.073
	C66.541,126.091,66.243,125.544,66.257,124.249z"/>
<line fill="none" stroke="#000000" stroke-width="0.0619" stroke-miterlimit="10" x1="66.612" y1="123.652" x2="66.981" y2="126.189"/>
<line fill="none" stroke="#000000" stroke-width="0.0512" stroke-miterlimit="10" x1="67.081" y1="124.471" x2="67.302" y2="126.209"/>
<line fill="none" stroke="#000000" stroke-width="0.0512" stroke-miterlimit="10" x1="67.508" y1="124.499" x2="67.729" y2="126.237"/>
<line fill="none" stroke="#000000" stroke-width="0.0557" stroke-miterlimit="10" x1="67.793" y1="124.071" x2="68.072" y2="126.123"/>
<line fill="none" stroke="#000000" stroke-width="0.0602" stroke-miterlimit="10" x1="68.07" y1="123.938" x2="68.4" y2="126.148"/>
<line fill="none" stroke="#000000" stroke-width="0.0602" stroke-miterlimit="10" x1="72.608" y1="123.329" x2="72.942" y2="125.5"/>
<line fill="none" stroke="#000000" stroke-width="0.0602" stroke-miterlimit="10" x1="72.198" y1="123.694" x2="72.602" y2="125.563"/>
<line fill="none" stroke="#000000" stroke-width="0.0602" stroke-miterlimit="10" x1="68.41" y1="123.991" x2="68.811" y2="126.15"/>
<line fill="none" stroke="#000000" stroke-width="0.0602" stroke-miterlimit="10" x1="68.974" y1="124.054" x2="69.358" y2="126.126"/>
<line fill="none" stroke="#000000" stroke-width="0.0602" stroke-miterlimit="10" x1="69.322" y1="124.077" x2="69.616" y2="126.104"/>
<line fill="none" stroke="#000000" stroke-width="0.0616" stroke-miterlimit="10" x1="69.909" y1="124.037" x2="70.221" y2="125.992"/>
<line fill="none" stroke="#000000" stroke-width="0.0602" stroke-miterlimit="10" x1="68.737" y1="124.031" x2="69.087" y2="126.141"/>
<line fill="none" stroke="#000000" stroke-width="0.0602" stroke-miterlimit="10" x1="69.64" y1="124.087" x2="69.957" y2="126.014"/>
<line fill="none" stroke="#000000" stroke-width="0.0614" stroke-miterlimit="10" x1="70.48" y1="124.019" x2="70.834" y2="125.928"/>
<line fill="none" stroke="#000000" stroke-width="0.0632" stroke-miterlimit="10" x1="70.806" y1="123.923" x2="71.215" y2="125.849"/>
<line fill="none" stroke="#000000" stroke-width="0.0632" stroke-miterlimit="10" x1="70.245" y1="124.063" x2="70.528" y2="125.976"/>
<line fill="none" stroke="#000000" stroke-width="0.0575" stroke-miterlimit="10" x1="71.269" y1="124.284" x2="71.617" y2="125.746"/>
<line fill="none" stroke="#000000" stroke-width="0.0632" stroke-miterlimit="10" x1="71.725" y1="123.788" x2="72.115" y2="125.614"/>
<line fill="none" stroke="#000000" stroke-width="0.0632" stroke-miterlimit="10" x1="72.31" y1="123.644" x2="72.59" y2="125.491"/>
<line fill="none" stroke="#000000" stroke-width="0.0632" stroke-miterlimit="10" x1="72.825" y1="123.528" x2="73.265" y2="125.358"/>
<line fill="none" stroke="#000000" stroke-width="0.0632" stroke-miterlimit="10" x1="72.535" y1="123.549" x2="72.952" y2="125.381"/>
<path fill="none" stroke="#FFFFFF" stroke-width="0.301" stroke-miterlimit="10" d="M68.522,131.267c0,0,1.66,2.76,0.858,3.682
	c0,0-0.833,1.152-1.883,0.2"/>
<path fill="none" stroke="#FFFFFF" stroke-width="0.301" stroke-miterlimit="10" d="M70.697,135.106c0,0-0.88-4.873-0.126-4.439
	c0,0,1.154,0.035,2.342,3.88"/>
<line fill="none" stroke="#FFFFFF" stroke-width="0.301" stroke-miterlimit="10" x1="70.409" y1="133.215" x2="72.3" y2="132.864"/>
<path fill="none" stroke="#FFFFFF" stroke-width="0.301" stroke-miterlimit="10" d="M73.623,134.44c0,0-2.085-7.195,0.165-3.273
	c0,0,0.441-2.592,1-1.329l1.197,4.163"/>
<line fill="none" stroke="#FFFFFF" stroke-width="0.301" stroke-miterlimit="10" x1="67.309" y1="131.567" x2="69.429" y2="131.028"/>
<path fill="#E33B3B" d="M59.998,140.734c-3.956,0.151-5.492-0.753-5.492-0.753c-1.405-3.579,1.606-12.008,1.606-12.008l7.677,0.334
	c0,0,2.984,7.057,1.579,11.673c0,0-0.209,0.602-5.492,0.753"/>
<path d="M56.264,126.234c0,0,4.063,1.806,7.324,0.602c0,0,2.007-1.292-2.876-1.806c0,0-4.046-0.436-4.598,1.053"/>
<path fill="#FFFFFF" stroke="#000000" stroke-width="0.1003" stroke-miterlimit="10" d="M56.171,126.111
	c0,0,4.169,2.055,7.781,0.149c0,0,0.04,1.614-0.162,2.049c0,0-4.582,0.836-7.677-0.334C56.113,127.974,55.92,127.382,56.171,126.111
	z"/>
<line fill="none" stroke="#000000" stroke-width="0.0602" stroke-miterlimit="10" x1="56.476" y1="125.645" x2="56.375" y2="128.069"/>
<line fill="none" stroke="#000000" stroke-width="0.0512" stroke-miterlimit="10" x1="56.94" y1="126.479" x2="56.84" y2="128.229"/>
<line fill="none" stroke="#000000" stroke-width="0.0512" stroke-miterlimit="10" x1="57.355" y1="126.585" x2="57.255" y2="128.335"/>
<line fill="none" stroke="#000000" stroke-width="0.0512" stroke-miterlimit="10" x1="57.628" y1="126.674" x2="57.528" y2="128.424"/>
<line fill="none" stroke="#000000" stroke-width="0.0602" stroke-miterlimit="10" x1="58.01" y1="126.137" x2="57.93" y2="128.37"/>
<line fill="none" stroke="#000000" stroke-width="0.0602" stroke-miterlimit="10" x1="63.7" y1="126.138" x2="63.632" y2="128.334"/>
<line fill="none" stroke="#000000" stroke-width="0.0602" stroke-miterlimit="10" x1="63.231" y1="126.422" x2="63.287" y2="128.334"/>
<line fill="none" stroke="#000000" stroke-width="0.0602" stroke-miterlimit="10" x1="58.334" y1="126.25" x2="58.334" y2="128.446"/>
<line fill="none" stroke="#000000" stroke-width="0.0602" stroke-miterlimit="10" x1="58.877" y1="126.415" x2="58.877" y2="128.522"/>
<line fill="none" stroke="#000000" stroke-width="0.0602" stroke-miterlimit="10" x1="59.215" y1="126.501" x2="59.134" y2="128.548"/>
<line fill="none" stroke="#000000" stroke-width="0.0616" stroke-miterlimit="10" x1="59.8" y1="126.569" x2="59.749" y2="128.548"/>
<line fill="none" stroke="#000000" stroke-width="0.0602" stroke-miterlimit="10" x1="58.648" y1="126.349" x2="58.607" y2="128.488"/>
<line fill="none" stroke="#000000" stroke-width="0.0602" stroke-miterlimit="10" x1="59.526" y1="126.569" x2="59.486" y2="128.522"/>
<line fill="none" stroke="#000000" stroke-width="0.0614" stroke-miterlimit="10" x1="60.364" y1="126.656" x2="60.364" y2="128.597"/>
<line fill="none" stroke="#000000" stroke-width="0.0632" stroke-miterlimit="10" x1="60.703" y1="126.621" x2="60.753" y2="128.589"/>
<line fill="none" stroke="#000000" stroke-width="0.0632" stroke-miterlimit="10" x1="60.126" y1="126.656" x2="60.054" y2="128.589"/>
<line fill="none" stroke="#000000" stroke-width="0.0575" stroke-miterlimit="10" x1="61.092" y1="127.06" x2="61.167" y2="128.562"/>
<line fill="none" stroke="#000000" stroke-width="0.0632" stroke-miterlimit="10" x1="61.631" y1="126.656" x2="61.681" y2="128.522"/>
<line fill="none" stroke="#000000" stroke-width="0.0632" stroke-miterlimit="10" x1="62.232" y1="126.621" x2="62.17" y2="128.488"/>
<line fill="none" stroke="#000000" stroke-width="0.0632" stroke-miterlimit="10" x1="62.76" y1="126.602" x2="62.858" y2="128.481"/>
<line fill="none" stroke="#000000" stroke-width="0.0632" stroke-miterlimit="10" x1="62.471" y1="126.569" x2="62.547" y2="128.446"/>
<path fill="none" stroke="#FFFFFF" stroke-width="0.301" stroke-miterlimit="10" d="M57.116,133.425c0,0,1.128,3.016,0.172,3.776
	c0,0-1.03,0.981-1.888-0.147"/>
<path fill="none" stroke="#FFFFFF" stroke-width="0.301" stroke-miterlimit="10" d="M58.553,137.596c0,0,0.025-4.952,0.687-4.388
	c0,0,1.128,0.245,1.594,4.242"/>
<path fill="none" stroke="#FFFFFF" stroke-width="0.301" stroke-miterlimit="10" d="M61.551,137.475c0,0-0.736-7.455,0.76-3.188
	c0,0,0.907-2.468,1.226-1.124l0.417,4.312"/>
<line fill="none" stroke="#FFFFFF" stroke-width="0.301" stroke-miterlimit="10" x1="55.869" y1="133.498" x2="58.051" y2="133.356"/>
<path fill="#E33B3B" d="M71.612,140.074c-3.956,0.151-5.492-0.753-5.492-0.753c-1.405-3.579,1.606-12.008,1.606-12.008l7.677,0.334
	c0,0,2.984,7.057,1.579,11.673c0,0-0.209,0.602-5.492,0.753"/>
<path d="M67.877,125.575c0,0,4.063,1.806,7.324,0.602c0,0,2.007-1.292-2.876-1.806c0,0-4.046-0.436-4.598,1.053"/>
<path fill="#FFFFFF" stroke="#000000" stroke-width="0.1003" stroke-miterlimit="10" d="M67.784,125.451
	c0,0,4.169,2.055,7.781,0.149c0,0,0.04,1.614-0.162,2.049c0,0-4.582,0.836-7.677-0.334
	C67.726,127.314,67.534,126.722,67.784,125.451z"/>
<line fill="none" stroke="#000000" stroke-width="0.0602" stroke-miterlimit="10" x1="68.089" y1="124.985" x2="67.989" y2="127.409"/>
<line fill="none" stroke="#000000" stroke-width="0.0512" stroke-miterlimit="10" x1="68.554" y1="125.82" x2="68.454" y2="127.569"/>
<line fill="none" stroke="#000000" stroke-width="0.0512" stroke-miterlimit="10" x1="68.968" y1="125.926" x2="68.868" y2="127.675"/>
<line fill="none" stroke="#000000" stroke-width="0.0512" stroke-miterlimit="10" x1="69.241" y1="126.015" x2="69.141" y2="127.764"/>
<line fill="none" stroke="#000000" stroke-width="0.0602" stroke-miterlimit="10" x1="69.623" y1="125.477" x2="69.544" y2="127.71"/>
<line fill="none" stroke="#000000" stroke-width="0.0602" stroke-miterlimit="10" x1="74.844" y1="125.763" x2="74.9" y2="127.674"/>
<line fill="none" stroke="#000000" stroke-width="0.0602" stroke-miterlimit="10" x1="69.947" y1="125.591" x2="69.947" y2="127.787"/>
<line fill="none" stroke="#000000" stroke-width="0.0602" stroke-miterlimit="10" x1="70.49" y1="125.755" x2="70.49" y2="127.863"/>
<line fill="none" stroke="#000000" stroke-width="0.0602" stroke-miterlimit="10" x1="70.828" y1="125.842" x2="70.748" y2="127.889"/>
<line fill="none" stroke="#000000" stroke-width="0.0616" stroke-miterlimit="10" x1="71.413" y1="125.91" x2="71.363" y2="127.889"/>
<line fill="none" stroke="#000000" stroke-width="0.0602" stroke-miterlimit="10" x1="70.262" y1="125.69" x2="70.22" y2="127.829"/>
<line fill="none" stroke="#000000" stroke-width="0.0602" stroke-miterlimit="10" x1="71.139" y1="125.91" x2="71.099" y2="127.863"/>
<line fill="none" stroke="#000000" stroke-width="0.0614" stroke-miterlimit="10" x1="71.977" y1="125.997" x2="71.977" y2="127.938"/>
<line fill="none" stroke="#000000" stroke-width="0.0632" stroke-miterlimit="10" x1="72.316" y1="125.962" x2="72.367" y2="127.93"/>
<line fill="none" stroke="#000000" stroke-width="0.0632" stroke-miterlimit="10" x1="71.739" y1="125.997" x2="71.668" y2="127.93"/>
<line fill="none" stroke="#000000" stroke-width="0.0575" stroke-miterlimit="10" x1="72.705" y1="126.401" x2="72.78" y2="127.903"/>
<line fill="none" stroke="#000000" stroke-width="0.0632" stroke-miterlimit="10" x1="73.244" y1="125.997" x2="73.294" y2="127.863"/>
<line fill="none" stroke="#000000" stroke-width="0.0632" stroke-miterlimit="10" x1="73.846" y1="125.962" x2="73.784" y2="127.829"/>
<line fill="none" stroke="#000000" stroke-width="0.0632" stroke-miterlimit="10" x1="74.373" y1="125.942" x2="74.472" y2="127.821"/>
<line fill="none" stroke="#000000" stroke-width="0.0632" stroke-miterlimit="10" x1="74.084" y1="125.91" x2="74.16" y2="127.787"/>
<path fill="none" stroke="#FFFFFF" stroke-width="0.301" stroke-miterlimit="10" d="M68.73,132.765c0,0,1.128,3.016,0.172,3.776
	c0,0-1.03,0.981-1.888-0.147"/>
<path fill="none" stroke="#FFFFFF" stroke-width="0.301" stroke-miterlimit="10" d="M70.166,136.937c0,0,0.025-4.952,0.687-4.388
	c0,0,1.128,0.245,1.594,4.242"/>
<line fill="none" stroke="#FFFFFF" stroke-width="0.301" stroke-miterlimit="10" x1="70.228" y1="135.025" x2="72.152" y2="135.025"/>
<path fill="none" stroke="#FFFFFF" stroke-width="0.301" stroke-miterlimit="10" d="M73.165,136.816c0,0-0.736-7.455,0.76-3.188
	c0,0,0.907-2.468,1.226-1.124l0.417,4.312"/>
<line fill="none" stroke="#FFFFFF" stroke-width="0.301" stroke-miterlimit="10" x1="67.482" y1="132.839" x2="69.665" y2="132.696"/>
<line fill="none" stroke="#FFFFFF" stroke-width="0.301" stroke-miterlimit="10" x1="58.564" y1="136.294" x2="60.488" y2="136.294"/>
<polygon fill="#5E5E5E" points="84.756,119.239 84.26,118.247 92.88,118.247 92.695,119.239 "/>
<path fill="#D5D5D5" d="M93.392,119.968h-8.478l-5.541,7.195c0,0-2.646,19.765,1.902,19.765h17.863c0,0,1.985-3.556,0.744-13.066
	C99.882,133.861,104.639,119.968,93.392,119.968z M96.822,131.463l-1.819-9.262C103.686,123.441,96.822,131.463,96.822,131.463z"/>
<path fill="#515AA7" d="M93.449,119.818c0,0.32-0.259,0.579-0.579,0.579h-8.6c-0.32,0-0.579-0.259-0.579-0.579l0,0
	c0-0.32,0.259-0.579,0.579-0.579h8.601C93.19,119.239,93.449,119.498,93.449,119.818L93.449,119.818z"/>
<polyline fill="#5E5E5E" points="81.347,135.455 81.347,130.584 94.507,130.584 94.507,136.619 80.749,138.03 81.347,135.455 "/>
<path fill="none" stroke="#FFFFFF" stroke-width="0.301" stroke-miterlimit="10" d="M82.914,137.077c0,0-0.736-7.455,0.76-3.188
	c0,0,0.907-2.468,1.226-1.124l0.417,4.312"/>
<line fill="none" stroke="#FFFFFF" stroke-width="0.301" stroke-miterlimit="10" x1="86.872" y1="132.839" x2="86.872" y2="138.009"/>
<polyline fill="none" stroke="#FFFFFF" stroke-width="0.301" stroke-miterlimit="10" points="88.84,132.696 88.84,137.2 
	90.808,137.077 "/>
<line fill="none" stroke="#FFFFFF" stroke-width="0.301" stroke-miterlimit="10" x1="91.318" y1="132.364" x2="91.318" y2="136.247"/>
<line fill="none" stroke="#FFFFFF" stroke-width="0.301" stroke-miterlimit="10" x1="92.922" y1="132.873" x2="91.391" y2="133.879"/>
<polygon fill="#8A5D3B" stroke="#8A5D3B" stroke-width="0.0535" stroke-miterlimit="10" points="51.514,134.411 50.202,161.071 
	102.399,161.071 101.741,134.411 96.056,137.124 91.391,134.758 86.58,137.124 80.312,134.758 76.3,137.124 69.962,135.821 
	67.146,138.098 63.693,134.411 59.926,137.458 57.681,135.642 54.218,137.124 "/>
<line fill="none" stroke="#FFFFFF" stroke-width="0.301" stroke-miterlimit="10" x1="91.214" y1="133.703" x2="92.411" y2="135.424"/>
<rect x="4.852" y="163.041" fill="#C73A22" width="140.943" height="23.059"/>
<rect x="5.523" y="168.004" fill="none" width="140.291" height="13.525"/>
<g enable-background="new    ">
	<path fill="#FFFFFF" d="M51.895,176.508l-0.938,4.416h-3.246l2.565-12.136h3.212c1.395,0,2.462,0.276,3.204,0.83
		s1.112,1.386,1.112,2.499c0,0.863-0.196,1.615-0.589,2.258c-0.393,0.642-0.977,1.131-1.751,1.469l1.859,4.283l0.332,0.797H54.12
		l-1.619-4.416L51.895,176.508L51.895,176.508z M52.418,174.043h0.423c0.526,0,0.943-0.151,1.253-0.453s0.465-0.724,0.465-1.266
		c0-0.343-0.096-0.604-0.286-0.784c-0.191-0.18-0.469-0.271-0.834-0.271h-0.44L52.418,174.043z"/>
	<path fill="#FFFFFF" d="M65.965,180.924H58.76l2.565-12.136h7.205l-0.54,2.632h-3.959l-0.39,1.908h3.686l-0.598,2.632h-3.686
		l-0.473,2.291h3.959L65.965,180.924z"/>
	<path fill="#FFFFFF" d="M73.245,180.924h-3.246l1.967-9.455h-2.631l0.573-2.681h8.533l-0.59,2.681h-2.639L73.245,180.924z"/>
	<path fill="#FFFFFF" d="M84.542,178.65h-3.719l-1.037,2.274h-3.37l6.176-12.136h4.175l1.021,12.136h-3.163L84.542,178.65z
		 M82.01,176.06h2.432l-0.141-3.52l-0.017-0.714c0-0.415,0.011-0.777,0.033-1.088c-0.133,0.477-0.302,0.936-0.507,1.379
		L82.01,176.06z"/>
	<path fill="#FFFFFF" d="M89.166,180.924l2.564-12.136h3.296l-2.565,12.136H89.166z"/>
	<path fill="#FFFFFF" d="M95.216,180.924l2.565-12.136h3.245l-2,9.487h3.959l-0.564,2.648h-7.205V180.924z"/>
</g>
</svg>
