<?xml version="1.0" encoding="utf-8"?>
<!-- Generator: Adobe Illustrator 17.0.0, SVG Export Plug-In . SVG Version: 6.00 Build 0)  -->
<!DOCTYPE svg PUBLIC "-//W3C//DTD SVG 1.1//EN" "http://www.w3.org/Graphics/SVG/1.1/DTD/svg11.dtd">
<svg version="1.1" id="Layer_1" xmlns="http://www.w3.org/2000/svg" xmlns:xlink="http://www.w3.org/1999/xlink" x="0px" y="0px"
	 width="150.667px" height="190.667px" viewBox="0 0 150.667 190.667" enable-background="new 0 0 150.667 190.667"
	 xml:space="preserve">
<path fill="#476B6F" d="M85.298,109.009c0,0,2.392,6.802,2.21,7.721c0,0,32.906,3.363,48.322-1.337c0,0,0.757-7.212,2.444-8.036
	c1.687-0.824-53.161-0.707-53.161-0.707L85.298,109.009z"/>
<path fill="#BB9E50" d="M84.998,104.684c0,0,17.368-24.991,54.028-3.183C139.026,101.501,118.765,112.19,84.998,104.684z"/>
<path fill="#BB9E50" d="M88.268,99.963c0,0-5.436-2.425-5.824,1.893c0,0-4.705,1.69-0.757,4.793c0,0-0.766,4.231,11.085,1.411
	c0,0,4.33,8.46,12.414,1.692c0,0,10.452,3.196,12.934-0.376c0,0,14.138,2.728,15.078-2.02c0,0,15.04-0.8,8.084-3.996
	c0,0,4.136-5.144-4.324-4.076"/>
<path fill="#E33B3B" d="M103.306,96.028c0,0-3.518-0.933-4.605,0.738C98.701,96.767,99.054,98.716,103.306,96.028z"/>
<path fill="#E33B3B" d="M106.222,98.271c0,0-0.233,4.094-2.916,3.342C103.306,101.613,101.125,100.193,106.222,98.271z"/>
<path fill="#E33B3B" d="M110.483,97.853c0,0-0.418,5.431,1.671,4.679C112.154,102.532,113.784,101.154,110.483,97.853z"/>
<path fill="#E33B3B" d="M115.998,97.853c0,0,2.089,4.094,3.844,2.757C119.842,100.61,121.931,98.856,115.998,97.853z"/>
<path fill="#E33B3B" d="M119.424,95.769c0,0,4.094,1.917,4.93,0.413C124.354,96.182,124.271,93.1,119.424,95.769z"/>
<path fill="#E33B3B" d="M105.633,93.102c0,0,1.809,3.828,4.024,3.307c0,0,1.181-0.308,0.827-5.126
	C110.484,91.283,108.196,90.539,105.633,93.102z"/>
<path fill="#2AAE58" d="M105.687,93.21c0,0-0.73-0.557,0.152-0.824c0,0-0.454-1.523,1.043-0.882c0,0,0.481-0.907,1.043-0.213
	c0,0,1.096-1.952,1.497-0.429c0,0,0.789-0.807,1.063,0.421C110.484,91.283,107.433,90.981,105.687,93.21z"/>
<path d="M106.536,93.26c-0.018-0.006-0.033-0.001-0.044,0.011c-0.011,0-0.021,0.004-0.03,0.015c-0.038,0.048-0.094,0.128-0.05,0.19
	c0.033,0.046,0.101,0.037,0.147,0.022c0.048-0.016,0.1-0.051,0.11-0.104C106.683,93.318,106.592,93.277,106.536,93.26z"/>
<path d="M109.838,95.091c-0.018-0.006-0.033-0.001-0.044,0.011c-0.011,0-0.021,0.004-0.03,0.015c-0.038,0.048-0.094,0.129-0.05,0.19
	c0.033,0.046,0.101,0.037,0.147,0.022c0.048-0.016,0.1-0.051,0.11-0.104C109.985,95.149,109.894,95.109,109.838,95.091z"/>
<path d="M108.595,94.69c-0.018-0.006-0.033-0.001-0.044,0.011c-0.011,0-0.021,0.004-0.03,0.015c-0.038,0.048-0.094,0.129-0.05,0.19
	c0.033,0.046,0.101,0.037,0.147,0.022c0.048-0.016,0.1-0.051,0.11-0.104C108.742,94.748,108.651,94.708,108.595,94.69z"/>
<path d="M108.859,93.289c-0.018-0.006-0.033-0.001-0.044,0.011c-0.011,0-0.021,0.004-0.03,0.015c-0.038,0.048-0.094,0.129-0.05,0.19
	c0.033,0.046,0.101,0.037,0.147,0.022c0.048-0.016,0.1-0.051,0.11-0.104C109.006,93.347,108.915,93.307,108.859,93.289z"/>
<path d="M109.408,94.049c-0.02-0.006-0.037-0.001-0.049,0.012c-0.012,0-0.024,0.004-0.033,0.017
	c-0.042,0.054-0.104,0.142-0.055,0.21c0.036,0.05,0.112,0.041,0.163,0.024c0.053-0.018,0.11-0.057,0.121-0.115
	C109.571,94.113,109.47,94.068,109.408,94.049z"/>
<path d="M109.399,91.771c-0.018-0.006-0.033-0.001-0.044,0.011c-0.011,0-0.021,0.004-0.03,0.015c-0.038,0.048-0.094,0.129-0.05,0.19
	c0.033,0.046,0.101,0.037,0.147,0.022c0.048-0.016,0.1-0.051,0.11-0.104C109.546,91.829,109.455,91.789,109.399,91.771z"/>
<path d="M107.945,93.212c-0.014-0.005-0.027-0.001-0.035,0.009c-0.009,0-0.017,0.003-0.024,0.012
	c-0.03,0.039-0.076,0.104-0.04,0.153c0.027,0.037,0.082,0.03,0.119,0.017c0.039-0.013,0.08-0.041,0.088-0.084
	C108.064,93.258,107.991,93.226,107.945,93.212z"/>
<path d="M108.014,92.311c-0.018-0.006-0.033-0.001-0.044,0.011c-0.011,0-0.021,0.004-0.03,0.015c-0.038,0.048-0.094,0.128-0.05,0.19
	c0.033,0.046,0.101,0.037,0.147,0.022c0.048-0.016,0.1-0.051,0.11-0.104C108.161,92.369,108.07,92.328,108.014,92.311z"/>
<path d="M107.188,94.039c-0.016-0.005-0.029-0.001-0.039,0.01c-0.009,0-0.019,0.004-0.026,0.013
	c-0.033,0.043-0.083,0.113-0.044,0.167c0.029,0.04,0.089,0.032,0.129,0.019c0.043-0.014,0.087-0.045,0.096-0.092
	C107.317,94.091,107.238,94.055,107.188,94.039z"/>
<path d="M108.731,95.645c-0.011-0.003-0.02,0-0.027,0.007c-0.006,0-0.013,0.002-0.018,0.009c-0.023,0.029-0.057,0.078-0.03,0.115
	c0.02,0.028,0.062,0.022,0.09,0.013c0.029-0.01,0.061-0.031,0.067-0.063C108.82,95.681,108.765,95.656,108.731,95.645z"/>
<path d="M109.7,93.018c-0.011-0.003-0.02,0-0.027,0.007c-0.006,0-0.013,0.002-0.018,0.009c-0.023,0.029-0.057,0.078-0.03,0.115
	c0.02,0.028,0.062,0.022,0.09,0.013c0.029-0.01,0.061-0.031,0.067-0.063C109.789,93.053,109.734,93.029,109.7,93.018z"/>
<path d="M108.093,94.318c-0.011-0.003-0.02,0-0.027,0.007c-0.006,0-0.013,0.002-0.018,0.009c-0.023,0.029-0.057,0.078-0.03,0.115
	c0.02,0.028,0.062,0.022,0.09,0.013c0.029-0.01,0.061-0.031,0.067-0.063C108.183,94.354,108.127,94.329,108.093,94.318z"/>
<path d="M107.834,95.265c-0.011-0.003-0.02,0-0.027,0.007c-0.006,0-0.013,0.002-0.018,0.009c-0.023,0.029-0.057,0.078-0.03,0.115
	c0.02,0.028,0.062,0.022,0.09,0.013c0.029-0.01,0.061-0.031,0.067-0.063C107.924,95.301,107.868,95.276,107.834,95.265z"/>
<path d="M109.398,95.968c-0.011-0.003-0.02,0-0.027,0.007c-0.006,0-0.013,0.002-0.018,0.009c-0.023,0.029-0.057,0.078-0.03,0.115
	c0.02,0.028,0.062,0.022,0.09,0.013c0.029-0.01,0.061-0.031,0.067-0.063C109.487,96.003,109.432,95.978,109.398,95.968z"/>
<path d="M109.078,92.485c-0.011-0.003-0.02,0-0.027,0.007c-0.006,0-0.013,0.002-0.018,0.009c-0.023,0.029-0.057,0.078-0.03,0.115
	c0.02,0.028,0.062,0.022,0.09,0.013c0.029-0.01,0.061-0.031,0.067-0.063C109.167,92.52,109.112,92.496,109.078,92.485z"/>
<path fill="#E33B3B" d="M112.849,91.273c0,0-1.815,3.825-0.009,5.208c0,0,0.986,0.718,4.489-2.609
	C117.329,93.873,116.456,91.632,112.849,91.273z"/>
<path fill="#2AAE58" d="M112.799,91.383c0,0-0.032-0.918,0.734-0.405c0,0,0.89-1.317,1.343,0.248c0,0,1.007-0.203,0.826,0.671
	c0,0,2.205-0.389,1.28,0.887c0,0,1.125,0.099,0.348,1.089C117.329,93.873,115.63,91.321,112.799,91.383z"/>
<path d="M113.299,92.072c-0.007-0.017-0.021-0.026-0.036-0.027c-0.007-0.008-0.017-0.014-0.031-0.014
	c-0.061,0.002-0.159,0.009-0.178,0.082c-0.014,0.054,0.036,0.102,0.076,0.128c0.043,0.027,0.103,0.044,0.15,0.019
	C113.347,92.223,113.321,92.127,113.299,92.072z"/>
<path d="M113.975,95.787c-0.007-0.017-0.021-0.026-0.036-0.027c-0.007-0.008-0.017-0.014-0.031-0.014
	c-0.061,0.002-0.159,0.009-0.178,0.082c-0.014,0.054,0.036,0.102,0.077,0.128c0.043,0.027,0.103,0.044,0.15,0.019
	C114.023,95.937,113.997,95.841,113.975,95.787z"/>
<path d="M113.497,94.571c-0.007-0.017-0.021-0.026-0.036-0.027c-0.007-0.008-0.017-0.014-0.031-0.014
	c-0.061,0.002-0.159,0.009-0.178,0.082c-0.014,0.054,0.036,0.102,0.077,0.128c0.043,0.027,0.103,0.044,0.15,0.019
	C113.545,94.721,113.519,94.626,113.497,94.571z"/>
<path d="M114.748,93.887c-0.007-0.017-0.021-0.026-0.036-0.027c-0.007-0.008-0.017-0.014-0.031-0.014
	c-0.061,0.002-0.159,0.009-0.178,0.082c-0.014,0.054,0.036,0.102,0.077,0.128c0.043,0.027,0.103,0.044,0.15,0.019
	C114.796,94.038,114.77,93.942,114.748,93.887z"/>
<path d="M114.508,94.794c-0.008-0.019-0.023-0.029-0.04-0.03c-0.007-0.009-0.019-0.016-0.034-0.015
	c-0.068,0.002-0.176,0.01-0.197,0.09c-0.016,0.06,0.039,0.112,0.085,0.141c0.048,0.03,0.114,0.049,0.166,0.021
	C114.562,94.961,114.533,94.854,114.508,94.794z"/>
<path d="M116.264,93.343c-0.007-0.017-0.021-0.026-0.036-0.027c-0.007-0.008-0.017-0.014-0.031-0.014
	c-0.061,0.002-0.159,0.009-0.178,0.082c-0.014,0.054,0.036,0.102,0.077,0.128c0.043,0.027,0.103,0.044,0.15,0.019
	C116.313,93.494,116.286,93.398,116.264,93.343z"/>
<path d="M114.229,93.132c-0.006-0.014-0.017-0.021-0.029-0.022c-0.005-0.007-0.013-0.011-0.025-0.011
	c-0.049,0.001-0.128,0.007-0.144,0.066c-0.012,0.044,0.029,0.082,0.062,0.103c0.035,0.022,0.083,0.036,0.121,0.015
	C114.268,93.253,114.247,93.176,114.229,93.132z"/>
<path d="M114.97,92.614c-0.007-0.017-0.021-0.026-0.036-0.027c-0.007-0.008-0.017-0.014-0.031-0.014
	c-0.061,0.002-0.159,0.009-0.178,0.082c-0.014,0.054,0.036,0.102,0.076,0.128c0.043,0.027,0.103,0.044,0.15,0.019
	C115.018,92.765,114.992,92.669,114.97,92.614z"/>
<path d="M113.109,93.071c-0.006-0.015-0.018-0.023-0.032-0.024c-0.006-0.007-0.015-0.012-0.027-0.012
	c-0.054,0.001-0.14,0.008-0.157,0.072c-0.013,0.048,0.031,0.089,0.067,0.112c0.038,0.024,0.09,0.039,0.132,0.016
	C113.151,93.203,113.128,93.119,113.109,93.071z"/>
<path d="M112.844,95.282c-0.004-0.011-0.013-0.016-0.022-0.016c-0.004-0.005-0.01-0.009-0.019-0.008
	c-0.037,0.001-0.097,0.005-0.108,0.05c-0.009,0.033,0.022,0.062,0.047,0.078c0.026,0.017,0.062,0.027,0.091,0.011
	C112.874,95.373,112.858,95.315,112.844,95.282z"/>
<path d="M115.49,94.366c-0.004-0.011-0.013-0.016-0.022-0.016c-0.004-0.005-0.01-0.009-0.019-0.008
	c-0.037,0.001-0.097,0.005-0.108,0.05c-0.009,0.033,0.022,0.062,0.047,0.078c0.026,0.017,0.062,0.027,0.091,0.011
	C115.52,94.458,115.504,94.399,115.49,94.366z"/>
<path d="M113.466,93.947c-0.004-0.011-0.013-0.016-0.022-0.016c-0.004-0.005-0.01-0.009-0.019-0.008
	c-0.037,0.001-0.097,0.005-0.108,0.05c-0.009,0.033,0.022,0.062,0.047,0.078c0.026,0.017,0.062,0.027,0.091,0.011
	C113.496,94.039,113.48,93.981,113.466,93.947z"/>
<path d="M112.57,94.347c-0.004-0.011-0.013-0.016-0.022-0.016c-0.004-0.005-0.01-0.009-0.019-0.008
	c-0.037,0.001-0.097,0.005-0.108,0.05c-0.009,0.033,0.022,0.062,0.047,0.078c0.026,0.017,0.062,0.027,0.091,0.011
	C112.599,94.439,112.583,94.38,112.57,94.347z"/>
<path d="M113.017,96.002c-0.004-0.011-0.013-0.016-0.022-0.016c-0.004-0.005-0.01-0.009-0.019-0.008
	c-0.037,0.001-0.097,0.005-0.108,0.05c-0.009,0.033,0.022,0.062,0.047,0.078c0.026,0.017,0.062,0.027,0.091,0.011
	C113.047,96.093,113.031,96.035,113.017,96.002z"/>
<path d="M115.509,93.548c-0.004-0.011-0.013-0.016-0.022-0.016c-0.004-0.005-0.01-0.009-0.019-0.008
	c-0.037,0.001-0.097,0.005-0.108,0.05c-0.009,0.033,0.022,0.062,0.047,0.078c0.026,0.017,0.062,0.027,0.091,0.011
	C115.538,93.639,115.522,93.581,115.509,93.548z"/>
<path fill="#E33B3B" d="M108.443,90.001c0,0,0.128,4.232,2.366,4.64c0,0,1.205,0.19,2.808-4.368
	C113.616,90.273,111.817,88.676,108.443,90.001z"/>
<path fill="#2AAE58" d="M108.449,90.121c0,0-0.447-0.803,0.469-0.695c0,0,0.193-1.578,1.308-0.392c0,0,0.804-0.639,1.041,0.221
	c0,0,1.785-1.351,1.544,0.206c0,0,1.046-0.425,0.806,0.811C113.616,90.273,110.94,88.776,108.449,90.121z"/>
<path d="M109.207,90.507c-0.014-0.012-0.03-0.014-0.045-0.008c-0.01-0.004-0.021-0.005-0.034,0.002
	c-0.054,0.029-0.138,0.08-0.122,0.154c0.012,0.055,0.078,0.074,0.126,0.079c0.051,0.005,0.112-0.007,0.142-0.052
	C109.319,90.619,109.252,90.545,109.207,90.507z"/>
<path d="M111.501,93.505c-0.014-0.012-0.03-0.014-0.045-0.008c-0.01-0.004-0.021-0.005-0.034,0.002
	c-0.054,0.029-0.138,0.08-0.122,0.154c0.012,0.055,0.078,0.074,0.126,0.079c0.051,0.005,0.112-0.007,0.142-0.052
	C111.613,93.617,111.546,93.544,111.501,93.505z"/>
<path d="M110.522,92.641c-0.014-0.012-0.03-0.014-0.045-0.008c-0.01-0.004-0.021-0.005-0.034,0.002
	c-0.054,0.029-0.138,0.08-0.122,0.154c0.012,0.055,0.078,0.074,0.126,0.079c0.051,0.005,0.112-0.007,0.142-0.052
	C110.634,92.753,110.567,92.679,110.522,92.641z"/>
<path d="M111.324,91.462c-0.014-0.012-0.03-0.014-0.045-0.008c-0.01-0.004-0.021-0.005-0.034,0.002
	c-0.054,0.029-0.138,0.08-0.122,0.154c0.012,0.055,0.078,0.074,0.126,0.079c0.051,0.005,0.112-0.007,0.142-0.052
	C111.436,91.574,111.369,91.501,111.324,91.462z"/>
<path d="M111.524,92.378c-0.016-0.014-0.034-0.016-0.049-0.008c-0.011-0.005-0.024-0.005-0.037,0.002
	c-0.059,0.033-0.152,0.089-0.135,0.17c0.013,0.061,0.086,0.082,0.14,0.087c0.056,0.005,0.124-0.008,0.157-0.057
	C111.648,92.502,111.573,92.421,111.524,92.378z"/>
<path d="M112.426,90.287c-0.014-0.012-0.03-0.014-0.045-0.008c-0.01-0.004-0.021-0.005-0.034,0.002
	c-0.054,0.029-0.138,0.08-0.122,0.154c0.012,0.055,0.078,0.074,0.126,0.079c0.051,0.005,0.112-0.007,0.142-0.052
	C112.538,90.399,112.471,90.325,112.426,90.287z"/>
<path d="M110.518,91.026c-0.011-0.01-0.024-0.011-0.036-0.006c-0.008-0.004-0.017-0.004-0.027,0.001
	c-0.043,0.024-0.111,0.065-0.098,0.124c0.01,0.044,0.063,0.06,0.102,0.064c0.041,0.004,0.09-0.006,0.115-0.042
	C110.608,91.116,110.554,91.057,110.518,91.026z"/>
<path d="M110.942,90.228c-0.014-0.012-0.03-0.014-0.045-0.008c-0.01-0.004-0.021-0.005-0.034,0.002
	c-0.054,0.029-0.138,0.08-0.122,0.154c0.012,0.055,0.078,0.074,0.126,0.079c0.051,0.005,0.112-0.007,0.142-0.052
	C111.053,90.34,110.986,90.266,110.942,90.228z"/>
<path d="M109.493,91.482c-0.012-0.011-0.027-0.012-0.039-0.007c-0.009-0.004-0.019-0.004-0.029,0.002
	c-0.047,0.026-0.121,0.07-0.107,0.135c0.01,0.048,0.069,0.065,0.111,0.069c0.045,0.004,0.098-0.006,0.125-0.046
	C109.591,91.581,109.532,91.516,109.493,91.482z"/>
<path d="M110.265,93.571c-0.009-0.007-0.018-0.009-0.027-0.005c-0.006-0.003-0.013-0.003-0.02,0.001
	c-0.033,0.018-0.084,0.049-0.074,0.094c0.007,0.033,0.047,0.045,0.077,0.048c0.031,0.003,0.068-0.004,0.086-0.031
	C110.333,93.639,110.292,93.594,110.265,93.571z"/>
<path d="M112.203,91.55c-0.009-0.007-0.018-0.009-0.027-0.005c-0.006-0.003-0.013-0.003-0.02,0.001
	c-0.033,0.018-0.084,0.049-0.074,0.094c0.007,0.033,0.047,0.045,0.077,0.048c0.031,0.003,0.068-0.004,0.086-0.031
	C112.271,91.618,112.23,91.574,112.203,91.55z"/>
<path d="M110.211,92.1c-0.009-0.007-0.018-0.009-0.027-0.005c-0.006-0.003-0.013-0.003-0.02,0.001
	c-0.033,0.018-0.084,0.049-0.074,0.094c0.007,0.033,0.047,0.045,0.077,0.048c0.031,0.003,0.068-0.004,0.086-0.031
	C110.279,92.168,110.238,92.123,110.211,92.1z"/>
<path d="M109.595,92.864c-0.009-0.007-0.018-0.009-0.027-0.005c-0.006-0.003-0.013-0.003-0.02,0.001
	c-0.033,0.018-0.084,0.049-0.074,0.094c0.007,0.033,0.047,0.045,0.077,0.048c0.031,0.003,0.068-0.004,0.086-0.031
	C109.663,92.932,109.622,92.887,109.595,92.864z"/>
<path d="M110.747,94.133c-0.009-0.007-0.018-0.009-0.027-0.005c-0.006-0.003-0.013-0.003-0.02,0.001
	c-0.033,0.018-0.084,0.049-0.074,0.094c0.007,0.033,0.047,0.045,0.077,0.048c0.031,0.003,0.068-0.004,0.086-0.031
	C110.815,94.201,110.774,94.156,110.747,94.133z"/>
<path d="M111.847,90.813c-0.009-0.007-0.018-0.009-0.027-0.005c-0.006-0.003-0.013-0.003-0.02,0.001
	c-0.033,0.018-0.084,0.049-0.074,0.094c0.007,0.033,0.047,0.045,0.077,0.048c0.031,0.003,0.068-0.004,0.086-0.031
	C111.915,90.881,111.874,90.836,111.847,90.813z"/>
<path d="M73.248,148.014c0,0-1.031,16.706-4.05,24.256l-53.211,1.767l-2.817-28.914h35.018"/>
<path fill="#9B7E54" d="M70.162,142.813c0,0,26.8-5.432,30.316-14.775l-0.293-7.704l-28.828,10.063L70.162,142.813z"/>
<path fill="#E6E7E8" d="M63.625,85.578c0,0,12.469,20.289,16.211,41.597l-7.053,4.236L58.561,92.799l5.225-6.729"/>
<path fill="#E6E7E8" d="M24.429,89.976c0,0-12.469,20.289-16.211,41.597l12.823,8.087l8.452-42.464l-1.155-10.799"/>
<path fill="#E6E7E8" d="M28.956,92.175c0,0-14.888,44.434-11.033,55.678l55.325,0.161c0,0,5.486-33.091-11.232-56.543
	S28.956,92.175,28.956,92.175z"/>
<path fill="#E6E7E8" d="M60.752,82.504"/>
<path fill="#E6E7E8" d="M25.401,87.069"/>
<path fill="#838383" d="M82.803,120.334c0,0,32.361,7.596,57.172,0.054L82.803,120.334z"/>
<polygon points="44.752,91.446 42.284,98.012 32.668,96.743 25.128,93.732 27.728,87.572 "/>
<polygon points="42.617,93.296 46.24,97.549 63.507,94.966 64.159,86.801 "/>
<ellipse cx="44.403" cy="102.119" rx="1.365" ry="1.124"/>
<ellipse cx="44.403" cy="110.954" rx="1.365" ry="1.124"/>
<ellipse cx="44.403" cy="120.334" rx="1.365" ry="1.124"/>
<ellipse cx="44.403" cy="127.339" rx="1.365" ry="1.124"/>
<path fill="#9B7E54" d="M8.222,131.573c0,0-0.429,27.341,7.945,32.775l7.588,1.363l-3.661-30.314L8.222,131.573z"/>
<ellipse transform="matrix(-0.9991 -0.0431 0.0431 -0.9991 87.4586 122.3384)" fill="#9B7E54" cx="45.048" cy="60.226" rx="32.471" ry="33.71"/>
<ellipse transform="matrix(-0.9774 -0.2112 0.2112 -0.9774 57.38 132.9953)" cx="35.793" cy="63.433" rx="2.591" ry="2.914"/>
<ellipse transform="matrix(-0.9774 -0.2112 0.2112 -0.9774 92.2119 136.7164)" cx="53.407" cy="63.434" rx="2.591" ry="2.914"/>
<path fill="none" stroke="#000000" stroke-width="0.771" stroke-miterlimit="10" d="M33.962,82.337c0,0,10.602,6.543,20.882,0"/>
<line fill="none" stroke="#000000" stroke-width="0.5109" stroke-miterlimit="10" x1="32.286" y1="60.532" x2="34.261" y2="63.434"/>
<line fill="none" stroke="#000000" stroke-width="0.5109" stroke-miterlimit="10" x1="35.799" y1="59.022" x2="35.799" y2="62.556"/>
<line fill="none" stroke="#000000" stroke-width="0.5109" stroke-miterlimit="10" x1="39.836" y1="60.789" x2="37.192" y2="63.434"/>
<line fill="none" stroke="#000000" stroke-width="0.5109" stroke-miterlimit="10" x1="49.795" y1="60.532" x2="52.15" y2="62.887"/>
<line fill="none" stroke="#000000" stroke-width="0.5109" stroke-miterlimit="10" x1="53.415" y1="59.022" x2="53.415" y2="62.556"/>
<line fill="none" stroke="#000000" stroke-width="0.5109" stroke-miterlimit="10" x1="57.184" y1="60.789" x2="54.54" y2="63.434"/>
<path d="M12.604,58.827c0,0,45.245-5.219,45.957-29.298C58.561,29.529,19.427,13.653,12.604,58.827z"/>
<path d="M57.184,32.678c0,0,2.48,17.483,19.874,33.078c0,0,5.087-27.225-21.196-37.352"/>
<path d="M32.953,31.332c0,0-14.434-0.851-5.629-12.322c0,0,25.226-17.72,19.986,8.539"/>
<rect x="4.853" y="162.432" fill="#C73A22" width="140.943" height="23.059"/>
<rect x="5.523" y="167.395" fill="none" width="140.291" height="13.525"/>
<g enable-background="new    ">
	<path fill="#FFFFFF" d="M50.426,176.589c0,1.229-0.407,2.184-1.22,2.867s-1.948,1.025-3.403,1.025
		c-0.609,0-1.184-0.067-1.727-0.203s-1.01-0.334-1.403-0.594v-2.905c0.465,0.293,0.998,0.54,1.598,0.739s1.144,0.299,1.631,0.299
		c0.41,0,0.719-0.086,0.93-0.258s0.315-0.415,0.315-0.73c0-0.149-0.033-0.289-0.1-0.419s-0.161-0.261-0.282-0.391
		s-0.448-0.416-0.979-0.858c-0.647-0.521-1.118-1.052-1.411-1.594c-0.293-0.543-0.44-1.138-0.44-1.785
		c0-0.725,0.181-1.377,0.543-1.955c0.363-0.578,0.875-1.026,1.536-1.345c0.661-0.318,1.401-0.478,2.22-0.478
		c1.323,0,2.512,0.297,3.569,0.889l-1.121,2.465c-0.946-0.486-1.751-0.73-2.416-0.73c-0.354,0-0.626,0.078-0.818,0.232
		c-0.19,0.155-0.286,0.383-0.286,0.682c0,0.271,0.093,0.523,0.278,0.759c0.185,0.235,0.538,0.55,1.058,0.942
		c0.653,0.481,1.137,0.988,1.453,1.52S50.426,175.903,50.426,176.589z"/>
	<path fill="#FFFFFF" d="M59.109,180.316h-7.205l2.565-12.136h7.205l-0.54,2.632h-3.959l-0.39,1.908h3.686l-0.598,2.632h-3.686
		l-0.473,2.291h3.959L59.109,180.316z"/>
	<path fill="#FFFFFF" d="M65.642,175.9l-0.938,4.416h-3.246l2.565-12.136h3.212c1.395,0,2.462,0.276,3.204,0.83
		s1.112,1.386,1.112,2.499c0,0.863-0.196,1.615-0.589,2.258c-0.393,0.642-0.977,1.131-1.751,1.469l1.859,4.283l0.332,0.797h-3.536
		l-1.619-4.416L65.642,175.9L65.642,175.9z M66.165,173.435h0.423c0.526,0,0.943-0.151,1.253-0.453s0.465-0.724,0.465-1.266
		c0-0.343-0.096-0.604-0.286-0.784c-0.191-0.18-0.469-0.271-0.834-0.271h-0.44L66.165,173.435z"/>
	<path fill="#FFFFFF" d="M80.542,168.18h3.437l-6.019,12.136h-3.619l-0.863-12.136h3.17l0.225,6.649v0.423
		c0,0.797-0.045,1.505-0.133,2.125h0.066c0.077-0.354,0.2-0.79,0.369-1.308s0.322-0.92,0.461-1.207L80.542,168.18z"/>
	<path fill="#FFFFFF" d="M82.982,180.316l2.564-12.136h3.296l-2.565,12.136H82.982z"/>
	<path fill="#FFFFFF" d="M96.072,170.695c-0.598,0-1.137,0.217-1.618,0.648s-0.859,1.026-1.133,1.784s-0.411,1.58-0.411,2.466
		c0,0.741,0.154,1.295,0.465,1.66c0.31,0.365,0.755,0.547,1.336,0.547c0.46,0,0.925-0.057,1.395-0.17
		c0.471-0.113,1.024-0.306,1.66-0.576v2.681c-1.123,0.498-2.341,0.747-3.652,0.747c-1.438,0-2.547-0.411-3.324-1.232
		c-0.777-0.822-1.166-1.985-1.166-3.49c0-1.473,0.28-2.822,0.843-4.051c0.562-1.229,1.325-2.156,2.291-2.781
		c0.965-0.625,2.07-0.938,3.315-0.938c1.467,0,2.798,0.362,3.993,1.087l-1.229,2.532c-0.515-0.305-0.988-0.533-1.42-0.686
		S96.537,170.695,96.072,170.695z"/>
	<path fill="#FFFFFF" d="M106.946,180.316h-7.205l2.565-12.136h7.205l-0.54,2.632h-3.959l-0.391,1.908h3.686l-0.598,2.632h-3.686
		l-0.473,2.291h3.959L106.946,180.316z"/>
</g>
</svg>
