<?xml version="1.0" encoding="utf-8"?>
<!-- Generator: Adobe Illustrator 17.0.0, SVG Export Plug-In . SVG Version: 6.00 Build 0)  -->
<!DOCTYPE svg PUBLIC "-//W3C//DTD SVG 1.1//EN" "http://www.w3.org/Graphics/SVG/1.1/DTD/svg11.dtd">
<svg version="1.1" id="Layer_1" xmlns="http://www.w3.org/2000/svg" xmlns:xlink="http://www.w3.org/1999/xlink" x="0px" y="0px"
	 width="640px" height="549.59px" viewBox="0 0 640 549.59" enable-background="new 0 0 640 549.59" xml:space="preserve">
<path fill="#C73A22" d="M608.05,55.572c0,3.905-4.988,7.07-11.14,7.07H23.545c-6.153,0-11.14-3.165-11.14-7.07V23.76
	c0-3.905,4.988-7.07,11.14-7.07h573.364c6.153,0,11.14,3.165,11.14,7.07L608.05,55.572L608.05,55.572z"/>
<line fill="none" stroke="#FFFFFF" stroke-width="8" stroke-miterlimit="10" x1="47.507" y1="39.666" x2="572.948" y2="39.666"/>
<circle fill="#D58C84" cx="47.507" cy="39.666" r="10.214"/>
<circle fill="#D58C84" cx="310.228" cy="39.666" r="10.214"/>
<circle fill="#FFFFFF" cx="572.948" cy="39.666" r="10.214"/>
<circle fill="#D58C84" cx="178.867" cy="39.666" r="10.214"/>
<circle fill="#D58C84" cx="441.588" cy="39.666" r="10.214"/>
<line fill="none" stroke="#D58C84" stroke-width="8" stroke-miterlimit="10" x1="47.507" y1="39.666" x2="512.783" y2="39.666"/>
<rect x="17.935" y="193.973" fill="#808184" width="591.526" height="32.389"/>
<g>
	<rect x="25.615" y="88.576" fill="none" width="582.435" height="93.619"/>
	<g enable-background="new    ">
		<path fill="#808184" d="M31.357,103.776h-1.006v-13.34h-4.639v-0.938h10.283v0.938h-4.639V103.776z"/>
		<path fill="#808184" d="M45.273,103.776v-6.885c0-1.067-0.225-1.844-0.674-2.329s-1.146-0.728-2.09-0.728
			c-1.27,0-2.199,0.32-2.788,0.962s-0.884,1.682-0.884,3.12v5.859h-0.967V88.58h0.967v4.834l-0.049,1.357h0.068
			c0.397-0.638,0.898-1.101,1.504-1.387s1.357-0.43,2.256-0.43c2.409,0,3.613,1.292,3.613,3.877v6.943H45.273z"/>
		<path fill="#808184" d="M53.955,103.971c-1.543,0-2.746-0.476-3.608-1.426s-1.294-2.282-1.294-3.994
			c0-1.692,0.417-3.049,1.25-4.067s1.957-1.528,3.369-1.528c1.25,0,2.236,0.437,2.959,1.309s1.084,2.058,1.084,3.555V98.6h-7.646
			c0.013,1.458,0.353,2.571,1.021,3.34s1.623,1.152,2.866,1.152c0.605,0,1.138-0.042,1.597-0.127s1.04-0.267,1.743-0.547v0.879
			c-0.599,0.261-1.152,0.438-1.66,0.532S54.567,103.971,53.955,103.971z M53.672,93.815c-1.022,0-1.842,0.337-2.461,1.011
			s-0.98,1.646-1.084,2.915h6.563c0-1.23-0.267-2.192-0.801-2.886S54.616,93.815,53.672,93.815z"/>
		<path fill="#808184" d="M68.164,103.776L64.063,93.16h0.996l2.744,7.217c0.365,0.925,0.638,1.731,0.82,2.422h0.059
			c0.267-0.886,0.541-1.699,0.82-2.441l2.744-7.197h0.996l-4.102,10.615H68.164z"/>
		<path fill="#808184" d="M81.465,103.776l-0.244-1.68h-0.078c-0.534,0.684-1.083,1.167-1.646,1.45s-1.229,0.425-1.997,0.425
			c-1.042,0-1.852-0.267-2.432-0.801s-0.869-1.272-0.869-2.217c0-1.035,0.431-1.839,1.294-2.412s2.111-0.876,3.745-0.908
			l2.021-0.059v-0.703c0-1.009-0.205-1.771-0.615-2.285s-1.071-0.771-1.982-0.771c-0.983,0-2.002,0.273-3.057,0.82l-0.361-0.84
			c1.166-0.547,2.318-0.82,3.457-0.82c1.166,0,2.036,0.303,2.612,0.908s0.864,1.55,0.864,2.832v7.061H81.465z M77.559,103.092
			c1.133,0,2.026-0.324,2.681-0.972s0.981-1.548,0.981-2.7v-1.045l-1.855,0.078c-1.491,0.071-2.554,0.305-3.188,0.698
			s-0.952,1.008-0.952,1.841c0,0.664,0.204,1.18,0.61,1.548S76.816,103.092,77.559,103.092z"/>
		<path fill="#808184" d="M92.197,101.012c0,0.95-0.361,1.682-1.084,2.192s-1.748,0.767-3.076,0.767
			c-1.419,0-2.545-0.218-3.379-0.654v-1.045c1.068,0.534,2.194,0.801,3.379,0.801c1.048,0,1.844-0.174,2.388-0.522
			s0.815-0.813,0.815-1.392c0-0.534-0.216-0.983-0.649-1.348s-1.144-0.723-2.134-1.074c-1.061-0.384-1.807-0.715-2.236-0.991
			s-0.753-0.589-0.972-0.938s-0.327-0.773-0.327-1.274c0-0.794,0.333-1.423,1.001-1.885s1.6-0.693,2.798-0.693
			c1.146,0,2.233,0.215,3.262,0.645l-0.361,0.879c-1.042-0.43-2.008-0.645-2.9-0.645c-0.866,0-1.553,0.144-2.061,0.43
			s-0.762,0.684-0.762,1.191c0,0.554,0.197,0.996,0.591,1.328s1.164,0.703,2.31,1.113c0.957,0.345,1.654,0.656,2.09,0.933
			s0.763,0.591,0.981,0.942S92.197,100.536,92.197,101.012z"/>
		<path fill="#808184" d="M97.734,103.111c0.612,0,1.146-0.052,1.602-0.156v0.781c-0.469,0.156-1.009,0.234-1.621,0.234
			c-0.938,0-1.629-0.251-2.075-0.752s-0.669-1.289-0.669-2.363V94h-1.572v-0.566l1.572-0.439l0.488-2.402h0.498v2.568h3.115V94
			h-3.115v6.719c0,0.813,0.143,1.416,0.43,1.807S97.123,103.111,97.734,103.111z"/>
		<path fill="#808184" d="M120.088,103.776v-6.963c0-1.035-0.202-1.79-0.605-2.266s-1.022-0.713-1.855-0.713
			c-1.087,0-1.891,0.3-2.412,0.898s-0.781,1.54-0.781,2.822v6.221h-0.986V96.52c0-1.79-0.82-2.686-2.461-2.686
			c-1.113,0-1.924,0.324-2.432,0.972s-0.762,1.685-0.762,3.11v5.859h-0.967V93.16h0.801l0.205,1.455h0.059
			c0.293-0.527,0.709-0.936,1.25-1.226s1.136-0.435,1.787-0.435c1.673,0,2.748,0.628,3.223,1.885h0.039
			c0.345-0.605,0.809-1.071,1.392-1.396s1.245-0.488,1.987-0.488c1.159,0,2.028,0.31,2.607,0.928s0.869,1.602,0.869,2.949v6.943
			H120.088z"/>
		<path fill="#808184" d="M130.928,103.776l-0.244-1.68h-0.078c-0.534,0.684-1.083,1.167-1.646,1.45s-1.229,0.425-1.997,0.425
			c-1.042,0-1.852-0.267-2.432-0.801s-0.869-1.272-0.869-2.217c0-1.035,0.431-1.839,1.294-2.412s2.111-0.876,3.745-0.908
			l2.021-0.059v-0.703c0-1.009-0.205-1.771-0.615-2.285s-1.071-0.771-1.982-0.771c-0.983,0-2.002,0.273-3.057,0.82l-0.361-0.84
			c1.166-0.547,2.318-0.82,3.457-0.82c1.166,0,2.036,0.303,2.612,0.908s0.864,1.55,0.864,2.832v7.061H130.928z M127.021,103.092
			c1.133,0,2.026-0.324,2.681-0.972s0.981-1.548,0.981-2.7v-1.045l-1.855,0.078c-1.491,0.071-2.554,0.305-3.188,0.698
			s-0.952,1.008-0.952,1.841c0,0.664,0.204,1.18,0.61,1.548S126.279,103.092,127.021,103.092z"/>
		<path fill="#808184" d="M133.662,108.58c-0.521,0-0.96-0.081-1.318-0.244v-0.84c0.449,0.13,0.869,0.195,1.26,0.195
			c0.983,0,1.475-0.573,1.475-1.719V93.16h0.967v12.676c0,0.879-0.207,1.556-0.62,2.031S134.424,108.58,133.662,108.58z
			 M134.941,90.211c0-0.625,0.205-0.938,0.615-0.938c0.202,0,0.36,0.081,0.474,0.244s0.171,0.394,0.171,0.693
			c0,0.293-0.057,0.524-0.171,0.693s-0.272,0.254-0.474,0.254C135.146,91.158,134.941,90.843,134.941,90.211z"/>
		<path fill="#808184" d="M148.379,98.453c0,1.731-0.42,3.084-1.26,4.058s-1.999,1.46-3.477,1.46c-0.931,0-1.751-0.225-2.461-0.674
			s-1.253-1.094-1.631-1.934s-0.566-1.81-0.566-2.91c0-1.731,0.42-3.081,1.26-4.048s1.992-1.45,3.457-1.45
			c1.458,0,2.603,0.49,3.433,1.47S148.379,96.747,148.379,98.453z M140,98.453c0,1.458,0.321,2.596,0.962,3.413
			s1.548,1.226,2.72,1.226s2.079-0.408,2.72-1.226s0.962-1.955,0.962-3.413c0-1.465-0.324-2.601-0.972-3.408
			s-1.558-1.211-2.729-1.211s-2.075,0.402-2.71,1.206S140,96.982,140,98.453z"/>
		<path fill="#808184" d="M155.498,92.955c0.449,0,0.931,0.046,1.445,0.137l-0.186,0.928c-0.443-0.11-0.902-0.166-1.377-0.166
			c-0.905,0-1.647,0.384-2.227,1.152s-0.869,1.738-0.869,2.91v5.859h-0.967V93.16h0.82l0.098,1.914h0.068
			c0.436-0.781,0.902-1.33,1.396-1.646S154.795,92.955,155.498,92.955z"/>
		<path fill="#808184" d="M158.965,90.211c0-0.625,0.205-0.938,0.615-0.938c0.202,0,0.36,0.081,0.474,0.244s0.171,0.394,0.171,0.693
			c0,0.293-0.057,0.524-0.171,0.693s-0.272,0.254-0.474,0.254C159.17,91.158,158.965,90.843,158.965,90.211z M160.068,103.776
			h-0.967V93.16h0.967V103.776z"/>
		<path fill="#808184" d="M166.426,103.111c0.612,0,1.146-0.052,1.602-0.156v0.781c-0.469,0.156-1.009,0.234-1.621,0.234
			c-0.938,0-1.629-0.251-2.075-0.752s-0.669-1.289-0.669-2.363V94h-1.572v-0.566l1.572-0.439l0.488-2.402h0.498v2.568h3.115V94
			h-3.115v6.719c0,0.813,0.143,1.416,0.43,1.807S165.814,103.111,166.426,103.111z"/>
		<path fill="#808184" d="M168.545,93.16h0.996l2.246,5.957c0.684,1.829,1.117,3.063,1.299,3.701h0.059
			c0.273-0.84,0.719-2.093,1.338-3.76l2.246-5.898h0.996l-4.756,12.334c-0.384,1.003-0.707,1.68-0.967,2.031
			s-0.565,0.615-0.913,0.791s-0.77,0.264-1.265,0.264c-0.371,0-0.785-0.068-1.24-0.205v-0.84c0.377,0.104,0.785,0.156,1.221,0.156
			c0.332,0,0.625-0.078,0.879-0.234s0.483-0.398,0.688-0.728s0.443-0.85,0.713-1.563s0.444-1.177,0.522-1.392L168.545,93.16z"/>
		<path fill="#808184" d="M193.477,98.453c0,1.731-0.42,3.084-1.26,4.058s-1.999,1.46-3.477,1.46c-0.931,0-1.751-0.225-2.461-0.674
			s-1.253-1.094-1.631-1.934s-0.566-1.81-0.566-2.91c0-1.731,0.42-3.081,1.26-4.048s1.992-1.45,3.457-1.45
			c1.458,0,2.603,0.49,3.433,1.47S193.477,96.747,193.477,98.453z M185.098,98.453c0,1.458,0.321,2.596,0.962,3.413
			s1.548,1.226,2.72,1.226s2.079-0.408,2.72-1.226s0.962-1.955,0.962-3.413c0-1.465-0.324-2.601-0.972-3.408
			s-1.558-1.211-2.729-1.211s-2.075,0.402-2.71,1.206S185.098,96.982,185.098,98.453z"/>
		<path fill="#808184" d="M200.361,94h-2.5v9.775h-0.967V94h-1.973v-0.566l1.973-0.361v-0.82c0-1.302,0.239-2.258,0.718-2.866
			s1.261-0.913,2.349-0.913c0.586,0,1.172,0.088,1.758,0.264l-0.225,0.84c-0.521-0.163-1.039-0.244-1.553-0.244
			c-0.755,0-1.291,0.223-1.606,0.669s-0.474,1.17-0.474,2.173v0.986h2.5V94z"/>
		<path fill="#808184" d="M211.553,94h-2.5v9.775h-0.967V94h-1.973v-0.566l1.973-0.361v-0.82c0-1.302,0.239-2.258,0.718-2.866
			s1.261-0.913,2.349-0.913c0.586,0,1.172,0.088,1.758,0.264l-0.225,0.84c-0.521-0.163-1.039-0.244-1.553-0.244
			c-0.755,0-1.291,0.223-1.606,0.669s-0.474,1.17-0.474,2.173v0.986h2.5V94z"/>
		<path fill="#808184" d="M222.383,98.453c0,1.731-0.42,3.084-1.26,4.058s-1.999,1.46-3.477,1.46c-0.931,0-1.751-0.225-2.461-0.674
			s-1.253-1.094-1.631-1.934s-0.566-1.81-0.566-2.91c0-1.731,0.42-3.081,1.26-4.048s1.992-1.45,3.457-1.45
			c1.458,0,2.603,0.49,3.433,1.47S222.383,96.747,222.383,98.453z M214.004,98.453c0,1.458,0.321,2.596,0.962,3.413
			s1.548,1.226,2.72,1.226s2.079-0.408,2.72-1.226s0.962-1.955,0.962-3.413c0-1.465-0.324-2.601-0.972-3.408
			s-1.558-1.211-2.729-1.211s-2.075,0.402-2.71,1.206S214.004,96.982,214.004,98.453z"/>
		<path fill="#808184" d="M234.102,98.453c0,1.731-0.42,3.084-1.26,4.058s-1.999,1.46-3.477,1.46c-0.931,0-1.751-0.225-2.461-0.674
			s-1.253-1.094-1.631-1.934s-0.566-1.81-0.566-2.91c0-1.731,0.42-3.081,1.26-4.048s1.992-1.45,3.457-1.45
			c1.458,0,2.603,0.49,3.433,1.47S234.102,96.747,234.102,98.453z M225.723,98.453c0,1.458,0.321,2.596,0.962,3.413
			s1.548,1.226,2.72,1.226s2.079-0.408,2.72-1.226s0.962-1.955,0.962-3.413c0-1.465-0.324-2.601-0.972-3.408
			s-1.558-1.211-2.729-1.211s-2.075,0.402-2.71,1.206S225.723,96.982,225.723,98.453z"/>
		<path fill="#808184" d="M240.928,92.955c0.768,0,1.432,0.14,1.992,0.42s1.061,0.759,1.504,1.436h0.059
			c-0.039-0.82-0.059-1.624-0.059-2.412V88.58h0.957v15.195h-0.635l-0.244-1.621h-0.078c-0.807,1.211-1.966,1.816-3.477,1.816
			c-1.465,0-2.584-0.456-3.359-1.367s-1.162-2.239-1.162-3.984c0-1.836,0.384-3.239,1.152-4.209S239.463,92.955,240.928,92.955z
			 M240.928,93.834c-1.159,0-2.03,0.407-2.612,1.221s-0.874,1.995-0.874,3.545c0,3.008,1.168,4.512,3.506,4.512
			c1.198,0,2.077-0.349,2.637-1.045s0.84-1.846,0.84-3.447v-0.166c0-1.641-0.275-2.82-0.825-3.54S242.158,93.834,240.928,93.834z"/>
		<path fill="#808184" d="M262.627,103.776l-2.324-7.1c-0.15-0.481-0.342-1.188-0.576-2.119h-0.059l-0.205,0.723l-0.439,1.416
			l-2.363,7.08h-0.957l-3.037-10.615h1.035l1.699,6.152c0.397,1.523,0.658,2.644,0.781,3.359h0.059
			c0.384-1.523,0.664-2.536,0.84-3.037l2.188-6.475h0.879l2.08,6.455c0.469,1.53,0.755,2.542,0.859,3.037h0.059
			c0.052-0.423,0.313-1.556,0.781-3.398l1.621-6.094h0.977l-2.881,10.615H262.627z"/>
		<path fill="#808184" d="M277.383,98.453c0,1.731-0.42,3.084-1.26,4.058s-1.999,1.46-3.477,1.46c-0.931,0-1.751-0.225-2.461-0.674
			s-1.253-1.094-1.631-1.934s-0.566-1.81-0.566-2.91c0-1.731,0.42-3.081,1.26-4.048s1.992-1.45,3.457-1.45
			c1.458,0,2.603,0.49,3.433,1.47S277.383,96.747,277.383,98.453z M269.004,98.453c0,1.458,0.321,2.596,0.962,3.413
			s1.548,1.226,2.72,1.226s2.079-0.408,2.72-1.226s0.962-1.955,0.962-3.413c0-1.465-0.324-2.601-0.972-3.408
			s-1.558-1.211-2.729-1.211s-2.075,0.402-2.71,1.206S269.004,96.982,269.004,98.453z"/>
		<path fill="#808184" d="M284.502,92.955c0.449,0,0.931,0.046,1.445,0.137l-0.186,0.928c-0.443-0.11-0.902-0.166-1.377-0.166
			c-0.905,0-1.647,0.384-2.227,1.152s-0.869,1.738-0.869,2.91v5.859h-0.967V93.16h0.82l0.098,1.914h0.068
			c0.436-0.781,0.902-1.33,1.396-1.646S283.799,92.955,284.502,92.955z"/>
		<path fill="#808184" d="M289.053,99.117l5.42-5.957h1.172l-4.18,4.531l4.541,6.084h-1.162l-4.033-5.361l-1.738,1.582v3.779h-0.967
			V88.58h0.967v7.617l-0.068,2.92H289.053z"/>
		<path fill="#808184" d="M302.07,103.971c-1.543,0-2.746-0.476-3.608-1.426s-1.294-2.282-1.294-3.994
			c0-1.692,0.417-3.049,1.25-4.067s1.957-1.528,3.369-1.528c1.25,0,2.236,0.437,2.959,1.309s1.084,2.058,1.084,3.555V98.6h-7.646
			c0.013,1.458,0.353,2.571,1.021,3.34s1.623,1.152,2.866,1.152c0.605,0,1.138-0.042,1.597-0.127s1.04-0.267,1.743-0.547v0.879
			c-0.599,0.261-1.152,0.438-1.66,0.532S302.682,103.971,302.07,103.971z M301.787,93.815c-1.022,0-1.842,0.337-2.461,1.011
			s-0.98,1.646-1.084,2.915h6.563c0-1.23-0.267-2.192-0.801-2.886S302.731,93.815,301.787,93.815z"/>
		<path fill="#808184" d="M312.939,92.955c0.449,0,0.931,0.046,1.445,0.137l-0.186,0.928c-0.443-0.11-0.902-0.166-1.377-0.166
			c-0.905,0-1.647,0.384-2.227,1.152s-0.869,1.738-0.869,2.91v5.859h-0.967V93.16h0.82l0.098,1.914h0.068
			c0.436-0.781,0.902-1.33,1.396-1.646S312.236,92.955,312.939,92.955z"/>
		<path fill="#808184" d="M323.125,101.012c0,0.95-0.361,1.682-1.084,2.192s-1.748,0.767-3.076,0.767
			c-1.419,0-2.545-0.218-3.379-0.654v-1.045c1.068,0.534,2.194,0.801,3.379,0.801c1.048,0,1.844-0.174,2.388-0.522
			c0.543-0.349,0.815-0.813,0.815-1.392c0-0.534-0.217-0.983-0.649-1.348c-0.434-0.364-1.144-0.723-2.134-1.074
			c-1.061-0.384-1.807-0.715-2.236-0.991s-0.753-0.589-0.972-0.938s-0.327-0.773-0.327-1.274c0-0.794,0.333-1.423,1.001-1.885
			s1.6-0.693,2.798-0.693c1.146,0,2.232,0.215,3.262,0.645l-0.361,0.879c-1.042-0.43-2.009-0.645-2.9-0.645
			c-0.866,0-1.553,0.144-2.061,0.43s-0.762,0.684-0.762,1.191c0,0.554,0.197,0.996,0.591,1.328s1.164,0.703,2.31,1.113
			c0.957,0.345,1.653,0.656,2.09,0.933c0.436,0.276,0.763,0.591,0.981,0.942C323.016,100.123,323.125,100.536,323.125,101.012z"/>
		<path fill="#808184" d="M338.457,103.776v-6.885c0-1.067-0.225-1.844-0.674-2.329s-1.146-0.728-2.09-0.728
			c-1.27,0-2.199,0.32-2.788,0.962c-0.59,0.642-0.884,1.682-0.884,3.12v5.859h-0.967V88.58h0.967v4.834l-0.049,1.357h0.068
			c0.396-0.638,0.898-1.101,1.504-1.387s1.357-0.43,2.256-0.43c2.408,0,3.613,1.292,3.613,3.877v6.943H338.457z"/>
		<path fill="#808184" d="M349.297,103.776l-0.244-1.68h-0.078c-0.534,0.684-1.082,1.167-1.646,1.45s-1.229,0.425-1.997,0.425
			c-1.042,0-1.853-0.267-2.432-0.801c-0.58-0.534-0.869-1.272-0.869-2.217c0-1.035,0.431-1.839,1.294-2.412
			c0.862-0.573,2.11-0.876,3.745-0.908l2.021-0.059v-0.703c0-1.009-0.205-1.771-0.615-2.285s-1.071-0.771-1.982-0.771
			c-0.983,0-2.002,0.273-3.057,0.82l-0.361-0.84c1.165-0.547,2.317-0.82,3.457-0.82c1.165,0,2.036,0.303,2.612,0.908
			s0.864,1.55,0.864,2.832v7.061H349.297z M345.391,103.092c1.133,0,2.026-0.324,2.681-0.972s0.981-1.548,0.981-2.7v-1.045
			l-1.855,0.078c-1.49,0.071-2.554,0.305-3.188,0.698s-0.952,1.008-0.952,1.841c0,0.664,0.203,1.18,0.61,1.548
			C344.073,102.908,344.648,103.092,345.391,103.092z"/>
		<path fill="#808184" d="M355.771,103.776L351.67,93.16h0.996l2.744,7.217c0.364,0.925,0.638,1.731,0.82,2.422h0.059
			c0.267-0.886,0.54-1.699,0.82-2.441l2.744-7.197h0.996l-4.102,10.615H355.771z"/>
		<path fill="#808184" d="M366.914,103.971c-1.543,0-2.746-0.476-3.608-1.426s-1.294-2.282-1.294-3.994
			c0-1.692,0.417-3.049,1.25-4.067s1.956-1.528,3.369-1.528c1.25,0,2.236,0.437,2.959,1.309s1.084,2.058,1.084,3.555V98.6h-7.646
			c0.013,1.458,0.354,2.571,1.021,3.34s1.623,1.152,2.866,1.152c0.605,0,1.138-0.042,1.597-0.127s1.04-0.267,1.743-0.547v0.879
			c-0.599,0.261-1.152,0.438-1.66,0.532S367.526,103.971,366.914,103.971z M366.631,93.815c-1.022,0-1.843,0.337-2.461,1.011
			s-0.979,1.646-1.084,2.915h6.563c0-1.23-0.267-2.192-0.801-2.886S367.575,93.815,366.631,93.815z"/>
		<path fill="#808184" d="M379.766,103.776h-0.967V88.58h0.967V103.776z"/>
		<path fill="#808184" d="M392.1,98.453c0,1.731-0.42,3.084-1.26,4.058s-1.999,1.46-3.477,1.46c-0.931,0-1.751-0.225-2.461-0.674
			s-1.253-1.094-1.631-1.934s-0.566-1.81-0.566-2.91c0-1.731,0.42-3.081,1.26-4.048s1.992-1.45,3.457-1.45
			c1.458,0,2.603,0.49,3.433,1.47S392.1,96.747,392.1,98.453z M383.721,98.453c0,1.458,0.32,2.596,0.962,3.413
			s1.548,1.226,2.72,1.226s2.078-0.408,2.72-1.226s0.962-1.955,0.962-3.413c0-1.465-0.324-2.601-0.972-3.408
			s-1.558-1.211-2.729-1.211s-2.075,0.402-2.71,1.206S383.721,96.982,383.721,98.453z"/>
		<path fill="#808184" d="M403.525,103.776l-2.324-7.1c-0.149-0.481-0.342-1.188-0.576-2.119h-0.059l-0.205,0.723l-0.439,1.416
			l-2.363,7.08h-0.957l-3.037-10.615h1.035l1.699,6.152c0.397,1.523,0.657,2.644,0.781,3.359h0.059
			c0.384-1.523,0.664-2.536,0.84-3.037l2.188-6.475h0.879l2.08,6.455c0.469,1.53,0.755,2.542,0.859,3.037h0.059
			c0.052-0.423,0.313-1.556,0.781-3.398l1.621-6.094h0.977l-2.881,10.615H403.525z"/>
		<path fill="#808184" d="M408.623,98.776v-0.801h4.639v0.801H408.623z"/>
		<path fill="#808184" d="M424.424,103.776l-2.324-7.1c-0.149-0.481-0.342-1.188-0.576-2.119h-0.059l-0.205,0.723l-0.439,1.416
			l-2.363,7.08H417.5l-3.037-10.615h1.035l1.699,6.152c0.397,1.523,0.657,2.644,0.781,3.359h0.059
			c0.384-1.523,0.664-2.536,0.84-3.037l2.188-6.475h0.879l2.08,6.455c0.469,1.53,0.755,2.542,0.859,3.037h0.059
			c0.052-0.423,0.313-1.556,0.781-3.398l1.621-6.094h0.977l-2.881,10.615H424.424z"/>
		<path fill="#808184" d="M436.846,103.776l-0.244-1.68h-0.078c-0.534,0.684-1.082,1.167-1.646,1.45s-1.229,0.425-1.997,0.425
			c-1.042,0-1.853-0.267-2.432-0.801s-0.869-1.272-0.869-2.217c0-1.035,0.432-1.839,1.294-2.412s2.111-0.876,3.745-0.908
			l2.021-0.059v-0.703c0-1.009-0.205-1.771-0.615-2.285s-1.071-0.771-1.982-0.771c-0.983,0-2.002,0.273-3.057,0.82l-0.361-0.84
			c1.165-0.547,2.317-0.82,3.457-0.82c1.165,0,2.036,0.303,2.612,0.908s0.864,1.55,0.864,2.832v7.061H436.846z M432.939,103.092
			c1.133,0,2.026-0.324,2.681-0.972s0.981-1.548,0.981-2.7v-1.045l-1.855,0.078c-1.491,0.071-2.554,0.305-3.188,0.698
			s-0.952,1.008-0.952,1.841c0,0.664,0.203,1.18,0.61,1.548S432.197,103.092,432.939,103.092z"/>
		<path fill="#808184" d="M449.277,93.16v0.674l-2.197,0.137c0.586,0.729,0.879,1.53,0.879,2.402c0,1.022-0.34,1.851-1.021,2.485
			s-1.594,0.952-2.739,0.952c-0.481,0-0.82-0.02-1.016-0.059c-0.384,0.202-0.677,0.439-0.879,0.713s-0.303,0.563-0.303,0.869
			c0,0.339,0.129,0.586,0.386,0.742s0.688,0.234,1.294,0.234h1.855c1.152,0,2.034,0.232,2.646,0.698s0.918,1.154,0.918,2.065
			c0,1.12-0.454,1.984-1.362,2.593s-2.202,0.913-3.882,0.913c-1.335,0-2.368-0.257-3.101-0.771s-1.099-1.23-1.099-2.148
			c0-0.729,0.227-1.335,0.679-1.816s1.066-0.811,1.841-0.986c-0.319-0.137-0.574-0.33-0.767-0.581s-0.288-0.539-0.288-0.864
			c0-0.71,0.452-1.335,1.357-1.875c-0.618-0.254-1.101-0.652-1.445-1.196s-0.518-1.167-0.518-1.87c0-1.062,0.337-1.912,1.011-2.554
			s1.584-0.962,2.729-0.962c0.696,0,1.237,0.068,1.621,0.205H449.277z M440.684,105.572c0,1.458,1.084,2.188,3.252,2.188
			c2.786,0,4.18-0.889,4.18-2.666c0-0.638-0.218-1.101-0.654-1.387s-1.143-0.43-2.119-0.43h-1.738
			C441.657,103.277,440.684,104.042,440.684,105.572z M441.494,96.471c0,0.82,0.249,1.457,0.747,1.909s1.164,0.679,1.997,0.679
			c0.886,0,1.564-0.225,2.036-0.674s0.708-1.101,0.708-1.953c0-0.905-0.242-1.584-0.728-2.036s-1.164-0.679-2.036-0.679
			c-0.847,0-1.512,0.242-1.997,0.728S441.494,95.605,441.494,96.471z"/>
		<path fill="#808184" d="M455.742,103.971c-1.543,0-2.746-0.476-3.608-1.426s-1.294-2.282-1.294-3.994
			c0-1.692,0.417-3.049,1.25-4.067s1.956-1.528,3.369-1.528c1.25,0,2.236,0.437,2.959,1.309s1.084,2.058,1.084,3.555V98.6h-7.646
			c0.013,1.458,0.354,2.571,1.021,3.34s1.623,1.152,2.866,1.152c0.605,0,1.138-0.042,1.597-0.127s1.04-0.267,1.743-0.547v0.879
			c-0.599,0.261-1.152,0.438-1.66,0.532S456.354,103.971,455.742,103.971z M455.459,93.815c-1.022,0-1.843,0.337-2.461,1.011
			s-0.979,1.646-1.084,2.915h6.563c0-1.23-0.267-2.192-0.801-2.886S456.403,93.815,455.459,93.815z"/>
		<path fill="#808184" d="M466.211,108.58c-0.521,0-0.96-0.081-1.318-0.244v-0.84c0.449,0.13,0.869,0.195,1.26,0.195
			c0.983,0,1.475-0.573,1.475-1.719V93.16h0.967v12.676c0,0.879-0.207,1.556-0.62,2.031S466.973,108.58,466.211,108.58z
			 M467.49,90.211c0-0.625,0.205-0.938,0.615-0.938c0.202,0,0.359,0.081,0.474,0.244s0.171,0.394,0.171,0.693
			c0,0.293-0.057,0.524-0.171,0.693s-0.271,0.254-0.474,0.254C467.695,91.158,467.49,90.843,467.49,90.211z"/>
		<path fill="#808184" d="M480.928,98.453c0,1.731-0.42,3.084-1.26,4.058s-1.999,1.46-3.477,1.46c-0.931,0-1.751-0.225-2.461-0.674
			s-1.253-1.094-1.631-1.934s-0.566-1.81-0.566-2.91c0-1.731,0.42-3.081,1.26-4.048s1.992-1.45,3.457-1.45
			c1.458,0,2.603,0.49,3.433,1.47S480.928,96.747,480.928,98.453z M472.549,98.453c0,1.458,0.32,2.596,0.962,3.413
			s1.548,1.226,2.72,1.226s2.078-0.408,2.72-1.226s0.962-1.955,0.962-3.413c0-1.465-0.324-2.601-0.972-3.408
			s-1.558-1.211-2.729-1.211s-2.075,0.402-2.71,1.206S472.549,96.982,472.549,98.453z"/>
		<path fill="#808184" d="M488.35,92.955c1.484,0,2.603,0.467,3.354,1.401s1.128,2.3,1.128,4.097c0,1.765-0.396,3.125-1.187,4.082
			s-1.902,1.436-3.335,1.436c-0.755,0-1.436-0.156-2.041-0.469s-1.084-0.755-1.436-1.328h-0.088l-0.273,1.602h-0.605V88.58h0.967
			v3.818c0,0.573-0.013,1.101-0.039,1.582l-0.029,0.83h0.068c0.403-0.638,0.891-1.106,1.46-1.406S487.549,92.955,488.35,92.955z
			 M488.33,93.834c-1.25,0-2.146,0.358-2.686,1.074s-0.811,1.897-0.811,3.545v0.166c0,1.602,0.281,2.751,0.845,3.447
			s1.44,1.045,2.632,1.045c1.159,0,2.031-0.405,2.617-1.216s0.879-1.965,0.879-3.462C491.807,95.367,490.647,93.834,488.33,93.834z"
			/>
		<path fill="#808184" d="M502.354,101.012c0,0.95-0.361,1.682-1.084,2.192s-1.748,0.767-3.076,0.767
			c-1.419,0-2.546-0.218-3.379-0.654v-1.045c1.067,0.534,2.194,0.801,3.379,0.801c1.048,0,1.844-0.174,2.388-0.522
			s0.815-0.813,0.815-1.392c0-0.534-0.217-0.983-0.649-1.348s-1.145-0.723-2.134-1.074c-1.062-0.384-1.807-0.715-2.236-0.991
			s-0.754-0.589-0.972-0.938s-0.327-0.773-0.327-1.274c0-0.794,0.334-1.423,1.001-1.885s1.6-0.693,2.798-0.693
			c1.146,0,2.233,0.215,3.262,0.645l-0.361,0.879c-1.042-0.43-2.009-0.645-2.9-0.645c-0.866,0-1.553,0.144-2.061,0.43
			s-0.762,0.684-0.762,1.191c0,0.554,0.197,0.996,0.591,1.328s1.164,0.703,2.31,1.113c0.957,0.345,1.653,0.656,2.09,0.933
			s0.764,0.591,0.981,0.942S502.354,100.536,502.354,101.012z"/>
		<path fill="#808184" d="M504.893,103.014c0-0.638,0.261-0.957,0.781-0.957c0.534,0,0.801,0.319,0.801,0.957
			s-0.267,0.957-0.801,0.957C505.153,103.971,504.893,103.651,504.893,103.014z"/>
		<path fill="#808184" d="M522.158,98.736h-5.801l-1.992,5.039h-1.104l5.742-14.336h0.635l5.625,14.336h-1.123L522.158,98.736z
			 M516.719,97.838h5.107l-1.943-5.146c-0.163-0.403-0.358-0.964-0.586-1.68c-0.176,0.625-0.368,1.191-0.576,1.699L516.719,97.838z"
			/>
		<path fill="#808184" d="M528.008,103.776h-0.967V88.58h0.967V103.776z"/>
		<path fill="#808184" d="M534.365,103.111c0.612,0,1.146-0.052,1.602-0.156v0.781c-0.469,0.156-1.009,0.234-1.621,0.234
			c-0.938,0-1.629-0.251-2.075-0.752s-0.669-1.289-0.669-2.363V94h-1.572v-0.566l1.572-0.439l0.488-2.402h0.498v2.568h3.115V94
			h-3.115v6.719c0,0.813,0.144,1.416,0.43,1.807S533.753,103.111,534.365,103.111z"/>
		<path fill="#808184" d="M545.664,103.776v-6.885c0-1.067-0.225-1.844-0.674-2.329s-1.146-0.728-2.09-0.728
			c-1.27,0-2.199,0.32-2.788,0.962s-0.884,1.682-0.884,3.12v5.859h-0.967V88.58h0.967v4.834l-0.049,1.357h0.068
			c0.397-0.638,0.898-1.101,1.504-1.387s1.357-0.43,2.256-0.43c2.409,0,3.613,1.292,3.613,3.877v6.943H545.664z"/>
		<path fill="#808184" d="M558.838,98.453c0,1.731-0.42,3.084-1.26,4.058s-1.999,1.46-3.477,1.46c-0.931,0-1.751-0.225-2.461-0.674
			s-1.253-1.094-1.631-1.934s-0.566-1.81-0.566-2.91c0-1.731,0.42-3.081,1.26-4.048s1.992-1.45,3.457-1.45
			c1.458,0,2.603,0.49,3.433,1.47S558.838,96.747,558.838,98.453z M550.459,98.453c0,1.458,0.32,2.596,0.962,3.413
			s1.548,1.226,2.72,1.226s2.078-0.408,2.72-1.226s0.962-1.955,0.962-3.413c0-1.465-0.324-2.601-0.972-3.408
			s-1.558-1.211-2.729-1.211s-2.075,0.402-2.71,1.206S550.459,96.982,550.459,98.453z"/>
		<path fill="#808184" d="M562.617,93.16v6.875c0,1.067,0.225,1.844,0.674,2.329s1.146,0.728,2.09,0.728
			c1.263,0,2.192-0.319,2.788-0.957s0.894-1.677,0.894-3.115V93.16h0.957v10.615h-0.82l-0.176-1.465h-0.059
			c-0.69,1.106-1.917,1.66-3.682,1.66c-2.415,0-3.623-1.292-3.623-3.877V93.16H562.617z"/>
		<path fill="#808184" d="M581.855,93.16v0.674l-2.197,0.137c0.586,0.729,0.879,1.53,0.879,2.402c0,1.022-0.34,1.851-1.021,2.485
			s-1.594,0.952-2.739,0.952c-0.481,0-0.82-0.02-1.016-0.059c-0.384,0.202-0.677,0.439-0.879,0.713s-0.303,0.563-0.303,0.869
			c0,0.339,0.129,0.586,0.386,0.742s0.688,0.234,1.294,0.234h1.855c1.152,0,2.034,0.232,2.646,0.698s0.918,1.154,0.918,2.065
			c0,1.12-0.454,1.984-1.362,2.593s-2.202,0.913-3.882,0.913c-1.335,0-2.368-0.257-3.101-0.771s-1.099-1.23-1.099-2.148
			c0-0.729,0.227-1.335,0.679-1.816s1.066-0.811,1.841-0.986c-0.319-0.137-0.574-0.33-0.767-0.581s-0.288-0.539-0.288-0.864
			c0-0.71,0.452-1.335,1.357-1.875c-0.618-0.254-1.101-0.652-1.445-1.196s-0.518-1.167-0.518-1.87c0-1.062,0.337-1.912,1.011-2.554
			s1.584-0.962,2.729-0.962c0.696,0,1.237,0.068,1.621,0.205H581.855z M573.262,105.572c0,1.458,1.084,2.188,3.252,2.188
			c2.786,0,4.18-0.889,4.18-2.666c0-0.638-0.218-1.101-0.654-1.387s-1.143-0.43-2.119-0.43h-1.738
			C574.235,103.277,573.262,104.042,573.262,105.572z M574.072,96.471c0,0.82,0.249,1.457,0.747,1.909s1.164,0.679,1.997,0.679
			c0.886,0,1.564-0.225,2.036-0.674s0.708-1.101,0.708-1.953c0-0.905-0.242-1.584-0.728-2.036s-1.164-0.679-2.036-0.679
			c-0.847,0-1.512,0.242-1.997,0.728S574.072,95.605,574.072,96.471z"/>
		<path fill="#808184" d="M591.436,103.776v-6.885c0-1.067-0.225-1.844-0.674-2.329s-1.146-0.728-2.09-0.728
			c-1.27,0-2.199,0.32-2.788,0.962S585,96.478,585,97.916v5.859h-0.967V88.58H585v4.834l-0.049,1.357h0.068
			c0.397-0.638,0.898-1.101,1.504-1.387s1.357-0.43,2.256-0.43c2.409,0,3.613,1.292,3.613,3.877v6.943H591.436z"/>
	</g>
	<g enable-background="new    ">
		<path fill="#808184" d="M30.195,127.111c0.612,0,1.146-0.052,1.602-0.156v0.781c-0.469,0.156-1.009,0.234-1.621,0.234
			c-0.938,0-1.629-0.251-2.075-0.752s-0.669-1.289-0.669-2.363V118h-1.572v-0.566l1.572-0.439l0.488-2.402h0.498v2.568h3.115V118
			h-3.115v6.719c0,0.813,0.143,1.416,0.43,1.807S29.583,127.111,30.195,127.111z"/>
		<path fill="#808184" d="M41.494,127.776v-6.885c0-1.067-0.225-1.844-0.674-2.329s-1.146-0.728-2.09-0.728
			c-1.27,0-2.199,0.32-2.788,0.962s-0.884,1.682-0.884,3.12v5.859h-0.967V112.58h0.967v4.834l-0.049,1.357h0.068
			c0.397-0.638,0.898-1.101,1.504-1.387s1.357-0.43,2.256-0.43c2.409,0,3.613,1.292,3.613,3.877v6.943H41.494z"/>
		<path fill="#808184" d="M50.176,127.971c-1.543,0-2.746-0.476-3.608-1.426s-1.294-2.282-1.294-3.994
			c0-1.692,0.417-3.049,1.25-4.067s1.957-1.528,3.369-1.528c1.25,0,2.236,0.437,2.959,1.309s1.084,2.058,1.084,3.555v0.781h-7.646
			c0.013,1.458,0.353,2.571,1.021,3.34s1.623,1.152,2.866,1.152c0.605,0,1.138-0.042,1.597-0.127s1.04-0.267,1.743-0.547v0.879
			c-0.599,0.261-1.152,0.438-1.66,0.532S50.788,127.971,50.176,127.971z M49.893,117.815c-1.022,0-1.842,0.337-2.461,1.011
			s-0.98,1.646-1.084,2.915h6.563c0-1.23-0.267-2.192-0.801-2.886S50.836,117.815,49.893,117.815z"/>
		<path fill="#808184" d="M66.006,118h-2.5v9.775h-0.967V118h-1.973v-0.566l1.973-0.361v-0.82c0-1.302,0.239-2.258,0.718-2.866
			s1.261-0.913,2.349-0.913c0.586,0,1.172,0.088,1.758,0.264l-0.225,0.84c-0.521-0.163-1.039-0.244-1.553-0.244
			c-0.755,0-1.291,0.223-1.606,0.669s-0.474,1.17-0.474,2.173v0.986h2.5V118z"/>
		<path fill="#808184" d="M76.836,122.453c0,1.731-0.42,3.084-1.26,4.058s-1.999,1.46-3.477,1.46c-0.931,0-1.751-0.225-2.461-0.674
			s-1.253-1.094-1.631-1.934s-0.566-1.81-0.566-2.91c0-1.731,0.42-3.081,1.26-4.048s1.992-1.45,3.457-1.45
			c1.458,0,2.603,0.49,3.433,1.47S76.836,120.747,76.836,122.453z M68.457,122.453c0,1.458,0.321,2.596,0.962,3.413
			s1.548,1.226,2.72,1.226s2.079-0.408,2.72-1.226s0.962-1.955,0.962-3.413c0-1.465-0.324-2.601-0.972-3.408
			s-1.558-1.211-2.729-1.211s-2.075,0.402-2.71,1.206S68.457,120.982,68.457,122.453z"/>
		<path fill="#808184" d="M88.555,122.453c0,1.731-0.42,3.084-1.26,4.058s-1.999,1.46-3.477,1.46c-0.931,0-1.751-0.225-2.461-0.674
			s-1.253-1.094-1.631-1.934s-0.566-1.81-0.566-2.91c0-1.731,0.42-3.081,1.26-4.048s1.992-1.45,3.457-1.45
			c1.458,0,2.603,0.49,3.433,1.47S88.555,120.747,88.555,122.453z M80.176,122.453c0,1.458,0.321,2.596,0.962,3.413
			s1.548,1.226,2.72,1.226s2.079-0.408,2.72-1.226s0.962-1.955,0.962-3.413c0-1.465-0.324-2.601-0.972-3.408
			s-1.558-1.211-2.729-1.211s-2.075,0.402-2.71,1.206S80.176,120.982,80.176,122.453z"/>
		<path fill="#808184" d="M95.381,116.955c0.768,0,1.432,0.14,1.992,0.42s1.061,0.759,1.504,1.436h0.059
			c-0.039-0.82-0.059-1.624-0.059-2.412v-3.818h0.957v15.195h-0.635l-0.244-1.621h-0.078c-0.807,1.211-1.966,1.816-3.477,1.816
			c-1.465,0-2.584-0.456-3.359-1.367s-1.162-2.239-1.162-3.984c0-1.836,0.384-3.239,1.152-4.209S93.916,116.955,95.381,116.955z
			 M95.381,117.834c-1.159,0-2.03,0.407-2.612,1.221s-0.874,1.995-0.874,3.545c0,3.008,1.168,4.512,3.506,4.512
			c1.198,0,2.077-0.349,2.637-1.045s0.84-1.846,0.84-3.447v-0.166c0-1.641-0.275-2.82-0.825-3.54S96.611,117.834,95.381,117.834z"/>
		<path fill="#808184" d="M115.176,125.012c0,0.95-0.361,1.682-1.084,2.192s-1.748,0.767-3.076,0.767
			c-1.419,0-2.545-0.218-3.379-0.654v-1.045c1.068,0.534,2.194,0.801,3.379,0.801c1.048,0,1.844-0.174,2.388-0.522
			s0.815-0.813,0.815-1.392c0-0.534-0.216-0.983-0.649-1.348s-1.144-0.723-2.134-1.074c-1.061-0.384-1.807-0.715-2.236-0.991
			s-0.753-0.589-0.972-0.938s-0.327-0.773-0.327-1.274c0-0.794,0.333-1.423,1.001-1.885s1.6-0.693,2.798-0.693
			c1.146,0,2.233,0.215,3.262,0.645l-0.361,0.879c-1.042-0.43-2.008-0.645-2.9-0.645c-0.866,0-1.553,0.144-2.061,0.43
			s-0.762,0.684-0.762,1.191c0,0.554,0.197,0.996,0.591,1.328s1.164,0.703,2.31,1.113c0.957,0.345,1.654,0.656,2.09,0.933
			s0.763,0.591,0.981,0.942S115.176,124.536,115.176,125.012z"/>
		<path fill="#808184" d="M116.133,117.16h0.996l2.246,5.957c0.684,1.829,1.117,3.063,1.299,3.701h0.059
			c0.273-0.84,0.719-2.093,1.338-3.76l2.246-5.898h0.996l-4.756,12.334c-0.384,1.003-0.707,1.68-0.967,2.031
			s-0.565,0.615-0.913,0.791s-0.77,0.264-1.265,0.264c-0.371,0-0.785-0.068-1.24-0.205v-0.84c0.377,0.104,0.785,0.156,1.221,0.156
			c0.332,0,0.625-0.078,0.879-0.234s0.483-0.398,0.688-0.728s0.443-0.85,0.713-1.563s0.444-1.177,0.522-1.392L116.133,117.16z"/>
		<path fill="#808184" d="M133.672,125.012c0,0.95-0.361,1.682-1.084,2.192s-1.748,0.767-3.076,0.767
			c-1.419,0-2.545-0.218-3.379-0.654v-1.045c1.068,0.534,2.194,0.801,3.379,0.801c1.048,0,1.844-0.174,2.388-0.522
			s0.815-0.813,0.815-1.392c0-0.534-0.216-0.983-0.649-1.348s-1.144-0.723-2.134-1.074c-1.061-0.384-1.807-0.715-2.236-0.991
			s-0.753-0.589-0.972-0.938s-0.327-0.773-0.327-1.274c0-0.794,0.333-1.423,1.001-1.885s1.6-0.693,2.798-0.693
			c1.146,0,2.233,0.215,3.262,0.645l-0.361,0.879c-1.042-0.43-2.008-0.645-2.9-0.645c-0.866,0-1.553,0.144-2.061,0.43
			s-0.762,0.684-0.762,1.191c0,0.554,0.197,0.996,0.591,1.328s1.164,0.703,2.31,1.113c0.957,0.345,1.654,0.656,2.09,0.933
			s0.763,0.591,0.981,0.942S133.672,124.536,133.672,125.012z"/>
		<path fill="#808184" d="M139.209,127.111c0.612,0,1.146-0.052,1.602-0.156v0.781c-0.469,0.156-1.009,0.234-1.621,0.234
			c-0.938,0-1.629-0.251-2.075-0.752s-0.669-1.289-0.669-2.363V118h-1.572v-0.566l1.572-0.439l0.488-2.402h0.498v2.568h3.115V118
			h-3.115v6.719c0,0.813,0.143,1.416,0.43,1.807S138.597,127.111,139.209,127.111z"/>
		<path fill="#808184" d="M147.393,127.971c-1.543,0-2.746-0.476-3.608-1.426s-1.294-2.282-1.294-3.994
			c0-1.692,0.417-3.049,1.25-4.067s1.957-1.528,3.369-1.528c1.25,0,2.236,0.437,2.959,1.309s1.084,2.058,1.084,3.555v0.781h-7.646
			c0.013,1.458,0.353,2.571,1.021,3.34s1.623,1.152,2.866,1.152c0.605,0,1.138-0.042,1.597-0.127s1.04-0.267,1.743-0.547v0.879
			c-0.599,0.261-1.152,0.438-1.66,0.532S148.004,127.971,147.393,127.971z M147.109,117.815c-1.022,0-1.842,0.337-2.461,1.011
			s-0.98,1.646-1.084,2.915h6.563c0-1.23-0.267-2.192-0.801-2.886S148.053,117.815,147.109,117.815z"/>
		<path fill="#808184" d="M167.344,127.776v-6.963c0-1.035-0.202-1.79-0.605-2.266s-1.022-0.713-1.855-0.713
			c-1.087,0-1.891,0.3-2.412,0.898s-0.781,1.54-0.781,2.822v6.221h-0.986v-7.256c0-1.79-0.82-2.686-2.461-2.686
			c-1.113,0-1.924,0.324-2.432,0.972s-0.762,1.685-0.762,3.11v5.859h-0.967V117.16h0.801l0.205,1.455h0.059
			c0.293-0.527,0.709-0.936,1.25-1.226s1.136-0.435,1.787-0.435c1.673,0,2.748,0.628,3.223,1.885h0.039
			c0.345-0.605,0.809-1.071,1.392-1.396s1.245-0.488,1.987-0.488c1.159,0,2.028,0.31,2.607,0.928s0.869,1.602,0.869,2.949v6.943
			H167.344z"/>
		<path fill="#808184" d="M176.797,114.211c0-0.625,0.205-0.938,0.615-0.938c0.202,0,0.36,0.081,0.474,0.244
			s0.171,0.394,0.171,0.693c0,0.293-0.057,0.524-0.171,0.693s-0.272,0.254-0.474,0.254
			C177.002,115.158,176.797,114.843,176.797,114.211z M177.9,127.776h-0.967V117.16h0.967V127.776z"/>
		<path fill="#808184" d="M188.037,125.012c0,0.95-0.361,1.682-1.084,2.192s-1.748,0.767-3.076,0.767
			c-1.419,0-2.545-0.218-3.379-0.654v-1.045c1.068,0.534,2.194,0.801,3.379,0.801c1.048,0,1.844-0.174,2.388-0.522
			s0.815-0.813,0.815-1.392c0-0.534-0.216-0.983-0.649-1.348s-1.144-0.723-2.134-1.074c-1.061-0.384-1.807-0.715-2.236-0.991
			s-0.753-0.589-0.972-0.938s-0.327-0.773-0.327-1.274c0-0.794,0.333-1.423,1.001-1.885s1.6-0.693,2.798-0.693
			c1.146,0,2.233,0.215,3.262,0.645l-0.361,0.879c-1.042-0.43-2.008-0.645-2.9-0.645c-0.866,0-1.553,0.144-2.061,0.43
			s-0.762,0.684-0.762,1.191c0,0.554,0.197,0.996,0.591,1.328s1.164,0.703,2.31,1.113c0.957,0.345,1.654,0.656,2.09,0.933
			s0.763,0.591,0.981,0.942S188.037,124.536,188.037,125.012z"/>
		<path fill="#808184" d="M204.746,122.453c0,1.731-0.42,3.084-1.26,4.058s-1.999,1.46-3.477,1.46c-0.931,0-1.751-0.225-2.461-0.674
			s-1.253-1.094-1.631-1.934s-0.566-1.81-0.566-2.91c0-1.731,0.42-3.081,1.26-4.048s1.992-1.45,3.457-1.45
			c1.458,0,2.603,0.49,3.433,1.47S204.746,120.747,204.746,122.453z M196.367,122.453c0,1.458,0.321,2.596,0.962,3.413
			s1.548,1.226,2.72,1.226s2.079-0.408,2.72-1.226s0.962-1.955,0.962-3.413c0-1.465-0.324-2.601-0.972-3.408
			s-1.558-1.211-2.729-1.211s-2.075,0.402-2.71,1.206S196.367,120.982,196.367,122.453z"/>
		<path fill="#808184" d="M215.088,127.776v-6.885c0-1.067-0.225-1.844-0.674-2.329s-1.146-0.728-2.09-0.728
			c-1.27,0-2.199,0.32-2.788,0.962s-0.884,1.682-0.884,3.12v5.859h-0.967V117.16h0.82l0.186,1.455h0.059
			c0.69-1.106,1.917-1.66,3.682-1.66c2.409,0,3.613,1.292,3.613,3.877v6.943H215.088z"/>
		<path fill="#808184" d="M223.77,127.971c-1.543,0-2.746-0.476-3.608-1.426s-1.294-2.282-1.294-3.994
			c0-1.692,0.417-3.049,1.25-4.067s1.957-1.528,3.369-1.528c1.25,0,2.236,0.437,2.959,1.309s1.084,2.058,1.084,3.555v0.781h-7.646
			c0.013,1.458,0.353,2.571,1.021,3.34s1.623,1.152,2.866,1.152c0.605,0,1.138-0.042,1.597-0.127s1.04-0.267,1.743-0.547v0.879
			c-0.599,0.261-1.152,0.438-1.66,0.532S224.381,127.971,223.77,127.971z M223.486,117.815c-1.022,0-1.842,0.337-2.461,1.011
			s-0.98,1.646-1.084,2.915h6.563c0-1.23-0.267-2.192-0.801-2.886S224.43,117.815,223.486,117.815z"/>
		<path fill="#808184" d="M244.434,122.453c0,1.731-0.42,3.084-1.26,4.058s-1.999,1.46-3.477,1.46c-0.931,0-1.751-0.225-2.461-0.674
			s-1.253-1.094-1.631-1.934s-0.566-1.81-0.566-2.91c0-1.731,0.42-3.081,1.26-4.048s1.992-1.45,3.457-1.45
			c1.458,0,2.603,0.49,3.433,1.47S244.434,120.747,244.434,122.453z M236.055,122.453c0,1.458,0.321,2.596,0.962,3.413
			s1.548,1.226,2.72,1.226s2.079-0.408,2.72-1.226s0.962-1.955,0.962-3.413c0-1.465-0.324-2.601-0.972-3.408
			s-1.558-1.211-2.729-1.211s-2.075,0.402-2.71,1.206S236.055,120.982,236.055,122.453z"/>
		<path fill="#808184" d="M251.318,118h-2.5v9.775h-0.967V118h-1.973v-0.566l1.973-0.361v-0.82c0-1.302,0.239-2.258,0.718-2.866
			s1.261-0.913,2.349-0.913c0.586,0,1.172,0.088,1.758,0.264l-0.225,0.84c-0.521-0.163-1.039-0.244-1.553-0.244
			c-0.755,0-1.291,0.223-1.606,0.669s-0.474,1.17-0.474,2.173v0.986h2.5V118z"/>
		<path fill="#808184" d="M261.367,127.111c0.612,0,1.146-0.052,1.602-0.156v0.781c-0.469,0.156-1.009,0.234-1.621,0.234
			c-0.938,0-1.629-0.251-2.075-0.752s-0.669-1.289-0.669-2.363V118h-1.572v-0.566l1.572-0.439l0.488-2.402h0.498v2.568h3.115V118
			h-3.115v6.719c0,0.813,0.143,1.416,0.43,1.807S260.755,127.111,261.367,127.111z"/>
		<path fill="#808184" d="M272.666,127.776v-6.885c0-1.067-0.225-1.844-0.674-2.329s-1.146-0.728-2.09-0.728
			c-1.27,0-2.199,0.32-2.788,0.962s-0.884,1.682-0.884,3.12v5.859h-0.967V112.58h0.967v4.834l-0.049,1.357h0.068
			c0.397-0.638,0.898-1.101,1.504-1.387s1.357-0.43,2.256-0.43c2.409,0,3.613,1.292,3.613,3.877v6.943H272.666z"/>
		<path fill="#808184" d="M281.348,127.971c-1.543,0-2.746-0.476-3.608-1.426s-1.294-2.282-1.294-3.994
			c0-1.692,0.417-3.049,1.25-4.067s1.957-1.528,3.369-1.528c1.25,0,2.236,0.437,2.959,1.309s1.084,2.058,1.084,3.555v0.781h-7.646
			c0.013,1.458,0.353,2.571,1.021,3.34s1.623,1.152,2.866,1.152c0.605,0,1.138-0.042,1.597-0.127s1.04-0.267,1.743-0.547v0.879
			c-0.599,0.261-1.152,0.438-1.66,0.532S281.959,127.971,281.348,127.971z M281.064,117.815c-1.022,0-1.842,0.337-2.461,1.011
			s-0.98,1.646-1.084,2.915h6.563c0-1.23-0.267-2.192-0.801-2.886S282.008,117.815,281.064,117.815z"/>
		<path fill="#808184" d="M297.178,118h-2.5v9.775h-0.967V118h-1.973v-0.566l1.973-0.361v-0.82c0-1.302,0.239-2.258,0.718-2.866
			s1.261-0.913,2.349-0.913c0.586,0,1.172,0.088,1.758,0.264l-0.225,0.84c-0.521-0.163-1.039-0.244-1.553-0.244
			c-0.755,0-1.291,0.223-1.606,0.669s-0.474,1.17-0.474,2.173v0.986h2.5V118z"/>
		<path fill="#808184" d="M305.674,127.776l-0.244-1.68h-0.078c-0.534,0.684-1.083,1.167-1.646,1.45s-1.229,0.425-1.997,0.425
			c-1.042,0-1.852-0.267-2.432-0.801s-0.869-1.272-0.869-2.217c0-1.035,0.431-1.839,1.294-2.412s2.111-0.876,3.745-0.908
			l2.021-0.059v-0.703c0-1.009-0.205-1.771-0.615-2.285s-1.071-0.771-1.982-0.771c-0.983,0-2.002,0.273-3.057,0.82l-0.361-0.84
			c1.166-0.547,2.318-0.82,3.457-0.82c1.166,0,2.036,0.303,2.612,0.908s0.864,1.55,0.864,2.832v7.061H305.674z M301.768,127.092
			c1.133,0,2.026-0.324,2.681-0.972s0.981-1.548,0.981-2.7v-1.045l-1.855,0.078c-1.491,0.071-2.554,0.305-3.188,0.698
			s-0.952,1.008-0.952,1.841c0,0.664,0.204,1.18,0.61,1.548S301.025,127.092,301.768,127.092z"/>
		<path fill="#808184" d="M316.406,125.012c0,0.95-0.361,1.682-1.084,2.192s-1.748,0.767-3.076,0.767
			c-1.419,0-2.545-0.218-3.379-0.654v-1.045c1.068,0.534,2.194,0.801,3.379,0.801c1.048,0,1.844-0.174,2.388-0.522
			s0.815-0.813,0.815-1.392c0-0.534-0.216-0.983-0.649-1.348s-1.144-0.723-2.134-1.074c-1.061-0.384-1.807-0.715-2.236-0.991
			s-0.753-0.589-0.972-0.938s-0.327-0.773-0.327-1.274c0-0.794,0.333-1.423,1.001-1.885s1.6-0.693,2.798-0.693
			c1.146,0,2.233,0.215,3.262,0.645l-0.361,0.879c-1.042-0.43-2.008-0.645-2.9-0.645c-0.866,0-1.553,0.144-2.061,0.43
			s-0.762,0.684-0.762,1.191c0,0.554,0.197,0.996,0.591,1.328s1.164,0.703,2.31,1.113c0.957,0.345,1.654,0.656,2.09,0.933
			s0.763,0.591,0.981,0.942S316.406,124.536,316.406,125.012z"/>
		<path fill="#808184" d="M321.943,127.111c0.611,0,1.146-0.052,1.602-0.156v0.781c-0.469,0.156-1.01,0.234-1.621,0.234
			c-0.938,0-1.629-0.251-2.075-0.752s-0.669-1.289-0.669-2.363V118h-1.572v-0.566l1.572-0.439l0.488-2.402h0.498v2.568h3.115V118
			h-3.115v6.719c0,0.813,0.143,1.416,0.43,1.807C320.882,126.916,321.331,127.111,321.943,127.111z"/>
		<path fill="#808184" d="M330.127,127.971c-1.543,0-2.746-0.476-3.608-1.426c-0.863-0.95-1.294-2.282-1.294-3.994
			c0-1.692,0.416-3.049,1.25-4.067c0.833-1.019,1.956-1.528,3.369-1.528c1.25,0,2.236,0.437,2.959,1.309s1.084,2.058,1.084,3.555
			v0.781h-7.646c0.013,1.458,0.353,2.571,1.021,3.34c0.667,0.769,1.622,1.152,2.866,1.152c0.605,0,1.138-0.042,1.597-0.127
			s1.04-0.267,1.743-0.547v0.879c-0.6,0.261-1.152,0.438-1.66,0.532S330.738,127.971,330.127,127.971z M329.844,117.815
			c-1.022,0-1.843,0.337-2.461,1.011c-0.619,0.674-0.98,1.646-1.084,2.915h6.563c0-1.23-0.268-2.192-0.801-2.886
			C331.526,118.161,330.787,117.815,329.844,117.815z"/>
		<path fill="#808184" d="M343.398,125.012c0,0.95-0.361,1.682-1.084,2.192s-1.748,0.767-3.076,0.767
			c-1.42,0-2.546-0.218-3.379-0.654v-1.045c1.067,0.534,2.193,0.801,3.379,0.801c1.048,0,1.844-0.174,2.388-0.522
			c0.543-0.349,0.815-0.813,0.815-1.392c0-0.534-0.217-0.983-0.649-1.348c-0.434-0.364-1.145-0.723-2.134-1.074
			c-1.062-0.384-1.807-0.715-2.236-0.991s-0.754-0.589-0.972-0.938c-0.219-0.349-0.327-0.773-0.327-1.274
			c0-0.794,0.333-1.423,1.001-1.885c0.667-0.462,1.6-0.693,2.798-0.693c1.146,0,2.232,0.215,3.262,0.645l-0.361,0.879
			c-1.042-0.43-2.009-0.645-2.9-0.645c-0.866,0-1.553,0.144-2.061,0.43s-0.762,0.684-0.762,1.191c0,0.554,0.196,0.996,0.591,1.328
			c0.394,0.332,1.163,0.703,2.31,1.113c0.957,0.345,1.653,0.656,2.09,0.933c0.436,0.276,0.763,0.591,0.981,0.942
			C343.289,124.123,343.398,124.536,343.398,125.012z"/>
		<path fill="#808184" d="M348.936,127.111c0.612,0,1.146-0.052,1.602-0.156v0.781c-0.469,0.156-1.009,0.234-1.621,0.234
			c-0.938,0-1.629-0.251-2.075-0.752s-0.669-1.289-0.669-2.363V118H344.6v-0.566l1.572-0.439l0.488-2.402h0.498v2.568h3.115V118
			h-3.115v6.719c0,0.813,0.144,1.416,0.43,1.807S348.323,127.111,348.936,127.111z"/>
		<path fill="#808184" d="M366.309,117.16v0.674l-2.197,0.137c0.586,0.729,0.879,1.53,0.879,2.402c0,1.022-0.34,1.851-1.021,2.485
			s-1.594,0.952-2.739,0.952c-0.481,0-0.82-0.02-1.016-0.059c-0.384,0.202-0.677,0.439-0.879,0.713s-0.303,0.563-0.303,0.869
			c0,0.339,0.129,0.586,0.386,0.742s0.688,0.234,1.294,0.234h1.855c1.152,0,2.034,0.232,2.646,0.698s0.918,1.154,0.918,2.065
			c0,1.12-0.454,1.984-1.362,2.593s-2.202,0.913-3.882,0.913c-1.335,0-2.368-0.257-3.101-0.771s-1.099-1.23-1.099-2.148
			c0-0.729,0.227-1.335,0.679-1.816s1.066-0.811,1.841-0.986c-0.319-0.137-0.574-0.33-0.767-0.581s-0.288-0.539-0.288-0.864
			c0-0.71,0.452-1.335,1.357-1.875c-0.618-0.254-1.101-0.652-1.445-1.196s-0.518-1.167-0.518-1.87c0-1.062,0.337-1.912,1.011-2.554
			s1.584-0.962,2.729-0.962c0.696,0,1.237,0.068,1.621,0.205H366.309z M357.715,129.572c0,1.458,1.084,2.188,3.252,2.188
			c2.786,0,4.18-0.889,4.18-2.666c0-0.638-0.218-1.101-0.654-1.387s-1.143-0.43-2.119-0.43h-1.738
			C358.688,127.277,357.715,128.042,357.715,129.572z M358.525,120.471c0,0.82,0.249,1.457,0.747,1.909s1.164,0.679,1.997,0.679
			c0.886,0,1.564-0.225,2.036-0.674s0.708-1.101,0.708-1.953c0-0.905-0.242-1.584-0.728-2.036s-1.164-0.679-2.036-0.679
			c-0.847,0-1.512,0.242-1.997,0.728S358.525,119.605,358.525,120.471z"/>
		<path fill="#808184" d="M372.666,116.955c0.449,0,0.931,0.046,1.445,0.137l-0.186,0.928c-0.442-0.11-0.901-0.166-1.377-0.166
			c-0.905,0-1.647,0.384-2.227,1.152s-0.869,1.738-0.869,2.91v5.859h-0.967V117.16h0.82l0.098,1.914h0.068
			c0.437-0.781,0.901-1.33,1.396-1.646S371.963,116.955,372.666,116.955z"/>
		<path fill="#808184" d="M385.049,122.453c0,1.731-0.42,3.084-1.26,4.058s-1.999,1.46-3.477,1.46c-0.931,0-1.751-0.225-2.461-0.674
			s-1.253-1.094-1.631-1.934s-0.566-1.81-0.566-2.91c0-1.731,0.42-3.081,1.26-4.048s1.992-1.45,3.457-1.45
			c1.458,0,2.603,0.49,3.433,1.47S385.049,120.747,385.049,122.453z M376.67,122.453c0,1.458,0.32,2.596,0.962,3.413
			s1.548,1.226,2.72,1.226s2.078-0.408,2.72-1.226s0.962-1.955,0.962-3.413c0-1.465-0.324-2.601-0.972-3.408
			s-1.558-1.211-2.729-1.211s-2.075,0.402-2.71,1.206S376.67,120.982,376.67,122.453z"/>
		<path fill="#808184" d="M396.475,127.776l-2.324-7.1c-0.149-0.481-0.342-1.188-0.576-2.119h-0.059l-0.205,0.723l-0.439,1.416
			l-2.363,7.08h-0.957l-3.037-10.615h1.035l1.699,6.152c0.397,1.523,0.657,2.644,0.781,3.359h0.059
			c0.384-1.523,0.664-2.536,0.84-3.037l2.188-6.475h0.879l2.08,6.455c0.469,1.53,0.755,2.542,0.859,3.037h0.059
			c0.052-0.423,0.313-1.556,0.781-3.398l1.621-6.094h0.977l-2.881,10.615H396.475z"/>
		<path fill="#808184" d="M402.314,114.211c0-0.625,0.205-0.938,0.615-0.938c0.202,0,0.359,0.081,0.474,0.244
			s0.171,0.394,0.171,0.693c0,0.293-0.057,0.524-0.171,0.693s-0.271,0.254-0.474,0.254
			C402.52,115.158,402.314,114.843,402.314,114.211z M403.418,127.776h-0.967V117.16h0.967V127.776z"/>
		<path fill="#808184" d="M414.375,127.776v-6.885c0-1.067-0.225-1.844-0.674-2.329s-1.146-0.728-2.09-0.728
			c-1.27,0-2.199,0.32-2.788,0.962s-0.884,1.682-0.884,3.12v5.859h-0.967V117.16h0.82l0.186,1.455h0.059
			c0.69-1.106,1.917-1.66,3.682-1.66c2.409,0,3.613,1.292,3.613,3.877v6.943H414.375z"/>
		<path fill="#808184" d="M427.051,117.16v0.674l-2.197,0.137c0.586,0.729,0.879,1.53,0.879,2.402c0,1.022-0.34,1.851-1.021,2.485
			s-1.594,0.952-2.739,0.952c-0.481,0-0.82-0.02-1.016-0.059c-0.384,0.202-0.677,0.439-0.879,0.713s-0.303,0.563-0.303,0.869
			c0,0.339,0.129,0.586,0.386,0.742s0.688,0.234,1.294,0.234h1.855c1.152,0,2.034,0.232,2.646,0.698s0.918,1.154,0.918,2.065
			c0,1.12-0.454,1.984-1.362,2.593s-2.202,0.913-3.882,0.913c-1.335,0-2.368-0.257-3.101-0.771s-1.099-1.23-1.099-2.148
			c0-0.729,0.227-1.335,0.679-1.816s1.066-0.811,1.841-0.986c-0.319-0.137-0.574-0.33-0.767-0.581s-0.288-0.539-0.288-0.864
			c0-0.71,0.452-1.335,1.357-1.875c-0.618-0.254-1.101-0.652-1.445-1.196s-0.518-1.167-0.518-1.87c0-1.062,0.337-1.912,1.011-2.554
			s1.584-0.962,2.729-0.962c0.696,0,1.237,0.068,1.621,0.205H427.051z M418.457,129.572c0,1.458,1.084,2.188,3.252,2.188
			c2.786,0,4.18-0.889,4.18-2.666c0-0.638-0.218-1.101-0.654-1.387s-1.143-0.43-2.119-0.43h-1.738
			C419.431,127.277,418.457,128.042,418.457,129.572z M419.268,120.471c0,0.82,0.249,1.457,0.747,1.909s1.164,0.679,1.997,0.679
			c0.886,0,1.564-0.225,2.036-0.674s0.708-1.101,0.708-1.953c0-0.905-0.242-1.584-0.728-2.036s-1.164-0.679-2.036-0.679
			c-0.847,0-1.512,0.242-1.997,0.728S419.268,119.605,419.268,120.471z"/>
		<path fill="#808184" d="M434.287,114.211c0-0.625,0.205-0.938,0.615-0.938c0.202,0,0.359,0.081,0.474,0.244
			s0.171,0.394,0.171,0.693c0,0.293-0.057,0.524-0.171,0.693s-0.271,0.254-0.474,0.254
			C434.492,115.158,434.287,114.843,434.287,114.211z M435.391,127.776h-0.967V117.16h0.967V127.776z"/>
		<path fill="#808184" d="M446.348,127.776v-6.885c0-1.067-0.225-1.844-0.674-2.329s-1.146-0.728-2.09-0.728
			c-1.27,0-2.199,0.32-2.788,0.962s-0.884,1.682-0.884,3.12v5.859h-0.967V117.16h0.82l0.186,1.455h0.059
			c0.69-1.106,1.917-1.66,3.682-1.66c2.409,0,3.613,1.292,3.613,3.877v6.943H446.348z"/>
		<path fill="#808184" d="M454.629,116.955c0.769,0,1.433,0.14,1.992,0.42s1.062,0.759,1.504,1.436h0.059
			c-0.039-0.82-0.059-1.624-0.059-2.412v-3.818h0.957v15.195h-0.635l-0.244-1.621h-0.078c-0.808,1.211-1.966,1.816-3.477,1.816
			c-1.465,0-2.585-0.456-3.359-1.367s-1.162-2.239-1.162-3.984c0-1.836,0.384-3.239,1.152-4.209S453.164,116.955,454.629,116.955z
			 M454.629,117.834c-1.159,0-2.029,0.407-2.612,1.221s-0.874,1.995-0.874,3.545c0,3.008,1.169,4.512,3.506,4.512
			c1.198,0,2.077-0.349,2.637-1.045s0.84-1.846,0.84-3.447v-0.166c0-1.641-0.275-2.82-0.825-3.54S455.859,117.834,454.629,117.834z"
			/>
		<path fill="#808184" d="M463.486,117.16v6.875c0,1.067,0.225,1.844,0.674,2.329s1.146,0.728,2.09,0.728
			c1.263,0,2.192-0.319,2.788-0.957s0.894-1.677,0.894-3.115v-5.859h0.957v10.615h-0.82l-0.176-1.465h-0.059
			c-0.69,1.106-1.917,1.66-3.682,1.66c-2.415,0-3.623-1.292-3.623-3.877v-6.934H463.486z"/>
		<path fill="#808184" d="M481.025,125.012c0,0.95-0.361,1.682-1.084,2.192s-1.748,0.767-3.076,0.767
			c-1.419,0-2.546-0.218-3.379-0.654v-1.045c1.067,0.534,2.194,0.801,3.379,0.801c1.048,0,1.844-0.174,2.388-0.522
			s0.815-0.813,0.815-1.392c0-0.534-0.217-0.983-0.649-1.348s-1.145-0.723-2.134-1.074c-1.062-0.384-1.807-0.715-2.236-0.991
			s-0.754-0.589-0.972-0.938s-0.327-0.773-0.327-1.274c0-0.794,0.334-1.423,1.001-1.885s1.6-0.693,2.798-0.693
			c1.146,0,2.233,0.215,3.262,0.645l-0.361,0.879c-1.042-0.43-2.009-0.645-2.9-0.645c-0.866,0-1.553,0.144-2.061,0.43
			s-0.762,0.684-0.762,1.191c0,0.554,0.197,0.996,0.591,1.328s1.164,0.703,2.31,1.113c0.957,0.345,1.653,0.656,2.09,0.933
			s0.764,0.591,0.981,0.942S481.025,124.536,481.025,125.012z"/>
		<path fill="#808184" d="M486.563,127.111c0.612,0,1.146-0.052,1.602-0.156v0.781c-0.469,0.156-1.009,0.234-1.621,0.234
			c-0.938,0-1.629-0.251-2.075-0.752s-0.669-1.289-0.669-2.363V118h-1.572v-0.566l1.572-0.439l0.488-2.402h0.498v2.568h3.115V118
			h-3.115v6.719c0,0.813,0.144,1.416,0.43,1.807S485.95,127.111,486.563,127.111z"/>
		<path fill="#808184" d="M494.639,116.955c0.449,0,0.931,0.046,1.445,0.137l-0.186,0.928c-0.442-0.11-0.901-0.166-1.377-0.166
			c-0.905,0-1.647,0.384-2.227,1.152s-0.869,1.738-0.869,2.91v5.859h-0.967V117.16h0.82l0.098,1.914h0.068
			c0.437-0.781,0.901-1.33,1.396-1.646S493.936,116.955,494.639,116.955z"/>
		<path fill="#808184" d="M498.105,114.211c0-0.625,0.205-0.938,0.615-0.938c0.202,0,0.359,0.081,0.474,0.244
			s0.171,0.394,0.171,0.693c0,0.293-0.057,0.524-0.171,0.693s-0.271,0.254-0.474,0.254
			C498.311,115.158,498.105,114.843,498.105,114.211z M499.209,127.776h-0.967V117.16h0.967V127.776z"/>
		<path fill="#808184" d="M507.051,127.971c-1.543,0-2.746-0.476-3.608-1.426s-1.294-2.282-1.294-3.994
			c0-1.692,0.417-3.049,1.25-4.067s1.956-1.528,3.369-1.528c1.25,0,2.236,0.437,2.959,1.309s1.084,2.058,1.084,3.555v0.781h-7.646
			c0.013,1.458,0.354,2.571,1.021,3.34s1.623,1.152,2.866,1.152c0.605,0,1.138-0.042,1.597-0.127s1.04-0.267,1.743-0.547v0.879
			c-0.599,0.261-1.152,0.438-1.66,0.532S507.663,127.971,507.051,127.971z M506.768,117.815c-1.022,0-1.843,0.337-2.461,1.011
			s-0.979,1.646-1.084,2.915h6.563c0-1.23-0.267-2.192-0.801-2.886S507.712,117.815,506.768,117.815z"/>
		<path fill="#808184" d="M520.322,125.012c0,0.95-0.361,1.682-1.084,2.192s-1.748,0.767-3.076,0.767
			c-1.419,0-2.546-0.218-3.379-0.654v-1.045c1.067,0.534,2.194,0.801,3.379,0.801c1.048,0,1.844-0.174,2.388-0.522
			s0.815-0.813,0.815-1.392c0-0.534-0.217-0.983-0.649-1.348s-1.145-0.723-2.134-1.074c-1.062-0.384-1.807-0.715-2.236-0.991
			s-0.754-0.589-0.972-0.938s-0.327-0.773-0.327-1.274c0-0.794,0.334-1.423,1.001-1.885s1.6-0.693,2.798-0.693
			c1.146,0,2.233,0.215,3.262,0.645l-0.361,0.879c-1.042-0.43-2.009-0.645-2.9-0.645c-0.866,0-1.553,0.144-2.061,0.43
			s-0.762,0.684-0.762,1.191c0,0.554,0.197,0.996,0.591,1.328s1.164,0.703,2.31,1.113c0.957,0.345,1.653,0.656,2.09,0.933
			s0.764,0.591,0.981,0.942S520.322,124.536,520.322,125.012z"/>
		<path fill="#808184" d="M524.16,125.451l0.117,0.205c-0.488,1.726-1.055,3.291-1.699,4.697h-0.635
			c0.501-1.79,0.859-3.425,1.074-4.902H524.16z"/>
		<path fill="#808184" d="M532.412,114.211c0-0.625,0.205-0.938,0.615-0.938c0.202,0,0.359,0.081,0.474,0.244
			s0.171,0.394,0.171,0.693c0,0.293-0.057,0.524-0.171,0.693s-0.271,0.254-0.474,0.254
			C532.617,115.158,532.412,114.843,532.412,114.211z M533.516,127.776h-0.967V117.16h0.967V127.776z"/>
		<path fill="#808184" d="M539.873,127.111c0.612,0,1.146-0.052,1.602-0.156v0.781c-0.469,0.156-1.009,0.234-1.621,0.234
			c-0.938,0-1.629-0.251-2.075-0.752s-0.669-1.289-0.669-2.363V118h-1.572v-0.566l1.572-0.439l0.488-2.402h0.498v2.568h3.115V118
			h-3.115v6.719c0,0.813,0.144,1.416,0.43,1.807S539.261,127.111,539.873,127.111z"/>
		<path fill="#808184" d="M556.367,127.776v-6.885c0-1.067-0.225-1.844-0.674-2.329s-1.146-0.728-2.09-0.728
			c-1.27,0-2.199,0.32-2.788,0.962s-0.884,1.682-0.884,3.12v5.859h-0.967V112.58h0.967v4.834l-0.049,1.357h0.068
			c0.397-0.638,0.898-1.101,1.504-1.387s1.357-0.43,2.256-0.43c2.409,0,3.613,1.292,3.613,3.877v6.943H556.367z"/>
		<path fill="#808184" d="M567.207,127.776l-0.244-1.68h-0.078c-0.534,0.684-1.082,1.167-1.646,1.45s-1.229,0.425-1.997,0.425
			c-1.042,0-1.853-0.267-2.432-0.801s-0.869-1.272-0.869-2.217c0-1.035,0.432-1.839,1.294-2.412s2.111-0.876,3.745-0.908
			l2.021-0.059v-0.703c0-1.009-0.205-1.771-0.615-2.285s-1.071-0.771-1.982-0.771c-0.983,0-2.002,0.273-3.057,0.82l-0.361-0.84
			c1.165-0.547,2.317-0.82,3.457-0.82c1.165,0,2.036,0.303,2.612,0.908s0.864,1.55,0.864,2.832v7.061H567.207z M563.301,127.092
			c1.133,0,2.026-0.324,2.681-0.972s0.981-1.548,0.981-2.7v-1.045l-1.855,0.078c-1.491,0.071-2.554,0.305-3.188,0.698
			s-0.952,1.008-0.952,1.841c0,0.664,0.203,1.18,0.61,1.548S562.559,127.092,563.301,127.092z"/>
		<path fill="#808184" d="M577.939,125.012c0,0.95-0.361,1.682-1.084,2.192s-1.748,0.767-3.076,0.767
			c-1.419,0-2.546-0.218-3.379-0.654v-1.045c1.067,0.534,2.194,0.801,3.379,0.801c1.048,0,1.844-0.174,2.388-0.522
			s0.815-0.813,0.815-1.392c0-0.534-0.217-0.983-0.649-1.348s-1.145-0.723-2.134-1.074c-1.062-0.384-1.807-0.715-2.236-0.991
			s-0.754-0.589-0.972-0.938s-0.327-0.773-0.327-1.274c0-0.794,0.334-1.423,1.001-1.885s1.6-0.693,2.798-0.693
			c1.146,0,2.233,0.215,3.262,0.645l-0.361,0.879c-1.042-0.43-2.009-0.645-2.9-0.645c-0.866,0-1.553,0.144-2.061,0.43
			s-0.762,0.684-0.762,1.191c0,0.554,0.197,0.996,0.591,1.328s1.164,0.703,2.31,1.113c0.957,0.345,1.653,0.656,2.09,0.933
			s0.764,0.591,0.981,0.942S577.939,124.536,577.939,125.012z"/>
	</g>
	<g enable-background="new    ">
		<path fill="#808184" d="M30.195,151.111c0.612,0,1.146-0.052,1.602-0.156v0.781c-0.469,0.156-1.009,0.234-1.621,0.234
			c-0.938,0-1.629-0.251-2.075-0.752s-0.669-1.289-0.669-2.363V142h-1.572v-0.566l1.572-0.439l0.488-2.402h0.498v2.568h3.115V142
			h-3.115v6.719c0,0.813,0.143,1.416,0.43,1.807S29.583,151.111,30.195,151.111z"/>
		<path fill="#808184" d="M41.494,151.776v-6.885c0-1.067-0.225-1.844-0.674-2.329s-1.146-0.728-2.09-0.728
			c-1.27,0-2.199,0.32-2.788,0.962s-0.884,1.682-0.884,3.12v5.859h-0.967V136.58h0.967v4.834l-0.049,1.357h0.068
			c0.397-0.638,0.898-1.101,1.504-1.387s1.357-0.43,2.256-0.43c2.409,0,3.613,1.292,3.613,3.877v6.943H41.494z"/>
		<path fill="#808184" d="M50.176,151.971c-1.543,0-2.746-0.476-3.608-1.426s-1.294-2.282-1.294-3.994
			c0-1.692,0.417-3.049,1.25-4.067s1.957-1.528,3.369-1.528c1.25,0,2.236,0.437,2.959,1.309s1.084,2.058,1.084,3.555v0.781h-7.646
			c0.013,1.458,0.353,2.571,1.021,3.34s1.623,1.152,2.866,1.152c0.605,0,1.138-0.042,1.597-0.127s1.04-0.267,1.743-0.547v0.879
			c-0.599,0.261-1.152,0.438-1.66,0.532S50.788,151.971,50.176,151.971z M49.893,141.815c-1.022,0-1.842,0.337-2.461,1.011
			s-0.98,1.646-1.084,2.915h6.563c0-1.23-0.267-2.192-0.801-2.886S50.836,141.815,49.893,141.815z"/>
		<path fill="#808184" d="M63.027,151.776h-0.967V136.58h0.967V151.776z"/>
		<path fill="#808184" d="M75.361,146.453c0,1.731-0.42,3.084-1.26,4.058s-1.999,1.46-3.477,1.46c-0.931,0-1.751-0.225-2.461-0.674
			s-1.253-1.094-1.631-1.934s-0.566-1.81-0.566-2.91c0-1.731,0.42-3.081,1.26-4.048s1.992-1.45,3.457-1.45
			c1.458,0,2.603,0.49,3.433,1.47S75.361,144.747,75.361,146.453z M66.982,146.453c0,1.458,0.321,2.596,0.962,3.413
			s1.548,1.226,2.72,1.226s2.079-0.408,2.72-1.226s0.962-1.955,0.962-3.413c0-1.465-0.324-2.601-0.972-3.408
			s-1.558-1.211-2.729-1.211s-2.075,0.402-2.71,1.206S66.982,144.982,66.982,146.453z"/>
		<path fill="#808184" d="M86.787,151.776l-2.324-7.1c-0.15-0.481-0.342-1.188-0.576-2.119h-0.059l-0.205,0.723l-0.439,1.416
			l-2.363,7.08h-0.957l-3.037-10.615h1.035l1.699,6.152c0.397,1.523,0.658,2.644,0.781,3.359H80.4
			c0.384-1.523,0.664-2.536,0.84-3.037l2.188-6.475h0.879l2.08,6.455c0.469,1.53,0.755,2.542,0.859,3.037h0.059
			c0.052-0.423,0.313-1.556,0.781-3.398l1.621-6.094h0.977l-2.881,10.615H86.787z"/>
		<path fill="#808184" d="M97.051,151.971c-1.543,0-2.746-0.476-3.608-1.426s-1.294-2.282-1.294-3.994
			c0-1.692,0.417-3.049,1.25-4.067s1.957-1.528,3.369-1.528c1.25,0,2.236,0.437,2.959,1.309s1.084,2.058,1.084,3.555v0.781h-7.646
			c0.013,1.458,0.353,2.571,1.021,3.34s1.623,1.152,2.866,1.152c0.605,0,1.138-0.042,1.597-0.127s1.04-0.267,1.743-0.547v0.879
			c-0.599,0.261-1.152,0.438-1.66,0.532S97.663,151.971,97.051,151.971z M96.768,141.815c-1.022,0-1.842,0.337-2.461,1.011
			s-0.98,1.646-1.084,2.915h6.563c0-1.23-0.267-2.192-0.801-2.886S97.711,141.815,96.768,141.815z"/>
		<path fill="#808184" d="M110.322,149.012c0,0.95-0.361,1.682-1.084,2.192s-1.748,0.767-3.076,0.767
			c-1.419,0-2.545-0.218-3.379-0.654v-1.045c1.068,0.534,2.194,0.801,3.379,0.801c1.048,0,1.844-0.174,2.388-0.522
			s0.815-0.813,0.815-1.392c0-0.534-0.216-0.983-0.649-1.348s-1.144-0.723-2.134-1.074c-1.061-0.384-1.807-0.715-2.236-0.991
			s-0.753-0.589-0.972-0.938s-0.327-0.773-0.327-1.274c0-0.794,0.333-1.423,1.001-1.885s1.6-0.693,2.798-0.693
			c1.146,0,2.233,0.215,3.262,0.645l-0.361,0.879c-1.042-0.43-2.008-0.645-2.9-0.645c-0.866,0-1.553,0.144-2.061,0.43
			s-0.762,0.684-0.762,1.191c0,0.554,0.197,0.996,0.591,1.328s1.164,0.703,2.31,1.113c0.957,0.345,1.654,0.656,2.09,0.933
			s0.763,0.591,0.981,0.942S110.322,148.536,110.322,149.012z"/>
		<path fill="#808184" d="M115.859,151.111c0.612,0,1.146-0.052,1.602-0.156v0.781c-0.469,0.156-1.009,0.234-1.621,0.234
			c-0.938,0-1.629-0.251-2.075-0.752s-0.669-1.289-0.669-2.363V142h-1.572v-0.566l1.572-0.439l0.488-2.402h0.498v2.568h3.115V142
			h-3.115v6.719c0,0.813,0.143,1.416,0.43,1.807S115.248,151.111,115.859,151.111z"/>
		<path fill="#808184" d="M138.213,151.776v-6.963c0-1.035-0.202-1.79-0.605-2.266s-1.022-0.713-1.855-0.713
			c-1.087,0-1.891,0.3-2.412,0.898s-0.781,1.54-0.781,2.822v6.221h-0.986v-7.256c0-1.79-0.82-2.686-2.461-2.686
			c-1.113,0-1.924,0.324-2.432,0.972s-0.762,1.685-0.762,3.11v5.859h-0.967V141.16h0.801l0.205,1.455h0.059
			c0.293-0.527,0.709-0.936,1.25-1.226s1.136-0.435,1.787-0.435c1.673,0,2.748,0.628,3.223,1.885h0.039
			c0.345-0.605,0.809-1.071,1.392-1.396s1.245-0.488,1.987-0.488c1.159,0,2.028,0.31,2.607,0.928s0.869,1.602,0.869,2.949v6.943
			H138.213z"/>
		<path fill="#808184" d="M146.895,151.971c-1.543,0-2.746-0.476-3.608-1.426s-1.294-2.282-1.294-3.994
			c0-1.692,0.417-3.049,1.25-4.067s1.957-1.528,3.369-1.528c1.25,0,2.236,0.437,2.959,1.309s1.084,2.058,1.084,3.555v0.781h-7.646
			c0.013,1.458,0.353,2.571,1.021,3.34s1.623,1.152,2.866,1.152c0.605,0,1.138-0.042,1.597-0.127s1.04-0.267,1.743-0.547v0.879
			c-0.599,0.261-1.152,0.438-1.66,0.532S147.506,151.971,146.895,151.971z M146.611,141.815c-1.022,0-1.842,0.337-2.461,1.011
			s-0.98,1.646-1.084,2.915h6.563c0-1.23-0.267-2.192-0.801-2.886S147.555,141.815,146.611,141.815z"/>
		<path fill="#808184" d="M157.471,140.955c0.768,0,1.432,0.14,1.992,0.42s1.061,0.759,1.504,1.436h0.059
			c-0.039-0.82-0.059-1.624-0.059-2.412v-3.818h0.957v15.195h-0.635l-0.244-1.621h-0.078c-0.807,1.211-1.966,1.816-3.477,1.816
			c-1.465,0-2.584-0.456-3.359-1.367s-1.162-2.239-1.162-3.984c0-1.836,0.384-3.239,1.152-4.209S156.006,140.955,157.471,140.955z
			 M157.471,141.834c-1.159,0-2.03,0.407-2.612,1.221s-0.874,1.995-0.874,3.545c0,3.008,1.168,4.512,3.506,4.512
			c1.198,0,2.077-0.349,2.637-1.045s0.84-1.846,0.84-3.447v-0.166c0-1.641-0.275-2.82-0.825-3.54S158.701,141.834,157.471,141.834z"
			/>
		<path fill="#808184" d="M165.352,138.211c0-0.625,0.205-0.938,0.615-0.938c0.202,0,0.36,0.081,0.474,0.244
			s0.171,0.394,0.171,0.693c0,0.293-0.057,0.524-0.171,0.693s-0.272,0.254-0.474,0.254
			C165.557,139.158,165.352,138.843,165.352,138.211z M166.455,151.776h-0.967V141.16h0.967V151.776z"/>
		<path fill="#808184" d="M176.455,151.776l-0.244-1.68h-0.078c-0.534,0.684-1.083,1.167-1.646,1.45s-1.229,0.425-1.997,0.425
			c-1.042,0-1.852-0.267-2.432-0.801s-0.869-1.272-0.869-2.217c0-1.035,0.431-1.839,1.294-2.412s2.111-0.876,3.745-0.908
			l2.021-0.059v-0.703c0-1.009-0.205-1.771-0.615-2.285s-1.071-0.771-1.982-0.771c-0.983,0-2.002,0.273-3.057,0.82l-0.361-0.84
			c1.166-0.547,2.318-0.82,3.457-0.82c1.166,0,2.036,0.303,2.612,0.908s0.864,1.55,0.864,2.832v7.061H176.455z M172.549,151.092
			c1.133,0,2.026-0.324,2.681-0.972s0.981-1.548,0.981-2.7v-1.045l-1.855,0.078c-1.491,0.071-2.554,0.305-3.188,0.698
			s-0.952,1.008-0.952,1.841c0,0.664,0.204,1.18,0.61,1.548S171.807,151.092,172.549,151.092z"/>
		<path fill="#808184" d="M188.008,151.776v-6.885c0-1.067-0.225-1.844-0.674-2.329s-1.146-0.728-2.09-0.728
			c-1.27,0-2.199,0.32-2.788,0.962s-0.884,1.682-0.884,3.12v5.859h-0.967V141.16h0.82l0.186,1.455h0.059
			c0.69-1.106,1.917-1.66,3.682-1.66c2.409,0,3.613,1.292,3.613,3.877v6.943H188.008z"/>
		<path fill="#808184" d="M206.084,151.776l-2.324-7.1c-0.15-0.481-0.342-1.188-0.576-2.119h-0.059l-0.205,0.723l-0.439,1.416
			l-2.363,7.08h-0.957l-3.037-10.615h1.035l1.699,6.152c0.397,1.523,0.658,2.644,0.781,3.359h0.059
			c0.384-1.523,0.664-2.536,0.84-3.037l2.188-6.475h0.879l2.08,6.455c0.469,1.53,0.755,2.542,0.859,3.037h0.059
			c0.052-0.423,0.313-1.556,0.781-3.398l1.621-6.094h0.977l-2.881,10.615H206.084z"/>
		<path fill="#808184" d="M218.506,151.776l-0.244-1.68h-0.078c-0.534,0.684-1.083,1.167-1.646,1.45s-1.229,0.425-1.997,0.425
			c-1.042,0-1.852-0.267-2.432-0.801s-0.869-1.272-0.869-2.217c0-1.035,0.431-1.839,1.294-2.412s2.111-0.876,3.745-0.908
			l2.021-0.059v-0.703c0-1.009-0.205-1.771-0.615-2.285s-1.071-0.771-1.982-0.771c-0.983,0-2.002,0.273-3.057,0.82l-0.361-0.84
			c1.166-0.547,2.318-0.82,3.457-0.82c1.166,0,2.036,0.303,2.612,0.908s0.864,1.55,0.864,2.832v7.061H218.506z M214.6,151.092
			c1.133,0,2.026-0.324,2.681-0.972s0.981-1.548,0.981-2.7v-1.045l-1.855,0.078c-1.491,0.071-2.554,0.305-3.188,0.698
			s-0.952,1.008-0.952,1.841c0,0.664,0.204,1.18,0.61,1.548S213.857,151.092,214.6,151.092z"/>
		<path fill="#808184" d="M230.938,141.16v0.674l-2.197,0.137c0.586,0.729,0.879,1.53,0.879,2.402c0,1.022-0.34,1.851-1.021,2.485
			s-1.593,0.952-2.739,0.952c-0.482,0-0.82-0.02-1.016-0.059c-0.384,0.202-0.677,0.439-0.879,0.713s-0.303,0.563-0.303,0.869
			c0,0.339,0.128,0.586,0.386,0.742s0.688,0.234,1.294,0.234h1.855c1.152,0,2.035,0.232,2.646,0.698s0.918,1.154,0.918,2.065
			c0,1.12-0.454,1.984-1.362,2.593s-2.202,0.913-3.882,0.913c-1.334,0-2.368-0.257-3.101-0.771s-1.099-1.23-1.099-2.148
			c0-0.729,0.226-1.335,0.679-1.816s1.066-0.811,1.841-0.986c-0.319-0.137-0.575-0.33-0.767-0.581s-0.288-0.539-0.288-0.864
			c0-0.71,0.453-1.335,1.357-1.875c-0.619-0.254-1.1-0.652-1.445-1.196s-0.518-1.167-0.518-1.87c0-1.062,0.337-1.912,1.011-2.554
			s1.583-0.962,2.729-0.962c0.697,0,1.237,0.068,1.621,0.205H230.938z M222.344,153.572c0,1.458,1.084,2.188,3.252,2.188
			c2.787,0,4.18-0.889,4.18-2.666c0-0.638-0.218-1.101-0.654-1.387s-1.143-0.43-2.119-0.43h-1.738
			C223.317,151.277,222.344,152.042,222.344,153.572z M223.154,144.471c0,0.82,0.249,1.457,0.747,1.909s1.164,0.679,1.997,0.679
			c0.885,0,1.564-0.225,2.036-0.674s0.708-1.101,0.708-1.953c0-0.905-0.243-1.584-0.728-2.036s-1.164-0.679-2.036-0.679
			c-0.846,0-1.512,0.242-1.997,0.728S223.154,143.605,223.154,144.471z"/>
		<path fill="#808184" d="M237.402,151.971c-1.543,0-2.746-0.476-3.608-1.426s-1.294-2.282-1.294-3.994
			c0-1.692,0.417-3.049,1.25-4.067s1.957-1.528,3.369-1.528c1.25,0,2.236,0.437,2.959,1.309s1.084,2.058,1.084,3.555v0.781h-7.646
			c0.013,1.458,0.353,2.571,1.021,3.34s1.623,1.152,2.866,1.152c0.605,0,1.138-0.042,1.597-0.127s1.04-0.267,1.743-0.547v0.879
			c-0.599,0.261-1.152,0.438-1.66,0.532S238.014,151.971,237.402,151.971z M237.119,141.815c-1.022,0-1.842,0.337-2.461,1.011
			s-0.98,1.646-1.084,2.915h6.563c0-1.23-0.267-2.192-0.801-2.886S238.063,141.815,237.119,141.815z"/>
		<path fill="#808184" d="M245.195,149.451l0.117,0.205c-0.488,1.726-1.055,3.291-1.699,4.697h-0.635
			c0.501-1.79,0.859-3.425,1.074-4.902H245.195z"/>
		<path fill="#808184" d="M257.529,142h-2.5v9.775h-0.967V142h-1.973v-0.566l1.973-0.361v-0.82c0-1.302,0.239-2.258,0.718-2.866
			s1.261-0.913,2.349-0.913c0.586,0,1.172,0.088,1.758,0.264l-0.225,0.84c-0.521-0.163-1.039-0.244-1.553-0.244
			c-0.755,0-1.291,0.223-1.606,0.669s-0.474,1.17-0.474,2.173v0.986h2.5V142z"/>
		<path fill="#808184" d="M266.025,151.776l-0.244-1.68h-0.078c-0.534,0.684-1.083,1.167-1.646,1.45s-1.229,0.425-1.997,0.425
			c-1.042,0-1.852-0.267-2.432-0.801s-0.869-1.272-0.869-2.217c0-1.035,0.431-1.839,1.294-2.412s2.111-0.876,3.745-0.908
			l2.021-0.059v-0.703c0-1.009-0.205-1.771-0.615-2.285s-1.071-0.771-1.982-0.771c-0.983,0-2.002,0.273-3.057,0.82l-0.361-0.84
			c1.166-0.547,2.318-0.82,3.457-0.82c1.166,0,2.036,0.303,2.612,0.908s0.864,1.55,0.864,2.832v7.061H266.025z M262.119,151.092
			c1.133,0,2.026-0.324,2.681-0.972s0.981-1.548,0.981-2.7v-1.045l-1.855,0.078c-1.491,0.071-2.554,0.305-3.188,0.698
			s-0.952,1.008-0.952,1.841c0,0.664,0.204,1.18,0.61,1.548S261.377,151.092,262.119,151.092z"/>
		<path fill="#808184" d="M274.355,140.955c0.449,0,0.931,0.046,1.445,0.137l-0.186,0.928c-0.443-0.11-0.902-0.166-1.377-0.166
			c-0.905,0-1.647,0.384-2.227,1.152s-0.869,1.738-0.869,2.91v5.859h-0.967V141.16h0.82l0.098,1.914h0.068
			c0.436-0.781,0.902-1.33,1.396-1.646S273.652,140.955,274.355,140.955z"/>
		<path fill="#808184" d="M287.637,140.955c1.484,0,2.603,0.467,3.354,1.401s1.128,2.3,1.128,4.097c0,1.765-0.396,3.125-1.187,4.082
			s-1.903,1.436-3.335,1.436c-0.755,0-1.436-0.156-2.041-0.469s-1.084-0.755-1.436-1.328h-0.088l-0.273,1.602h-0.605V136.58h0.967
			v3.818c0,0.573-0.013,1.101-0.039,1.582l-0.029,0.83h0.068c0.404-0.638,0.89-1.106,1.46-1.406S286.836,140.955,287.637,140.955z
			 M287.617,141.834c-1.25,0-2.145,0.358-2.686,1.074s-0.811,1.897-0.811,3.545v0.166c0,1.602,0.282,2.751,0.845,3.447
			s1.44,1.045,2.632,1.045c1.159,0,2.031-0.405,2.617-1.216s0.879-1.965,0.879-3.462
			C291.094,143.367,289.935,141.834,287.617,141.834z"/>
		<path fill="#808184" d="M299.346,151.971c-1.543,0-2.746-0.476-3.608-1.426s-1.294-2.282-1.294-3.994
			c0-1.692,0.417-3.049,1.25-4.067s1.957-1.528,3.369-1.528c1.25,0,2.236,0.437,2.959,1.309s1.084,2.058,1.084,3.555v0.781h-7.646
			c0.013,1.458,0.353,2.571,1.021,3.34s1.623,1.152,2.866,1.152c0.605,0,1.138-0.042,1.597-0.127s1.04-0.267,1.743-0.547v0.879
			c-0.599,0.261-1.152,0.438-1.66,0.532S299.958,151.971,299.346,151.971z M299.063,141.815c-1.022,0-1.842,0.337-2.461,1.011
			s-0.98,1.646-1.084,2.915h6.563c0-1.23-0.267-2.192-0.801-2.886S300.006,141.815,299.063,141.815z"/>
		<path fill="#808184" d="M307.002,151.776h-0.967V136.58h0.967V151.776z"/>
		<path fill="#808184" d="M319.336,146.453c0,1.731-0.42,3.084-1.26,4.058s-1.999,1.46-3.477,1.46c-0.931,0-1.751-0.225-2.461-0.674
			s-1.253-1.094-1.631-1.934s-0.566-1.81-0.566-2.91c0-1.731,0.42-3.081,1.26-4.048s1.992-1.45,3.457-1.45
			c1.458,0,2.603,0.49,3.433,1.47S319.336,144.747,319.336,146.453z M310.957,146.453c0,1.458,0.321,2.596,0.962,3.413
			s1.548,1.226,2.72,1.226s2.079-0.408,2.72-1.226s0.962-1.955,0.962-3.413c0-1.465-0.324-2.601-0.972-3.408
			s-1.558-1.211-2.729-1.211s-2.075,0.402-2.71,1.206S310.957,144.982,310.957,146.453z"/>
		<path fill="#808184" d="M330.762,151.776l-2.324-7.1c-0.15-0.481-0.342-1.188-0.576-2.119h-0.059l-0.205,0.723l-0.439,1.416
			l-2.363,7.08h-0.957l-3.037-10.615h1.035l1.699,6.152c0.396,1.523,0.657,2.644,0.781,3.359h0.059
			c0.384-1.523,0.664-2.536,0.84-3.037l2.188-6.475h0.879l2.08,6.455c0.469,1.53,0.755,2.542,0.859,3.037h0.059
			c0.052-0.423,0.313-1.556,0.781-3.398l1.621-6.094h0.977l-2.881,10.615H330.762z"/>
		<path fill="#808184" d="M344.736,151.111c0.611,0,1.146-0.052,1.602-0.156v0.781c-0.469,0.156-1.01,0.234-1.621,0.234
			c-0.938,0-1.63-0.251-2.075-0.752c-0.446-0.501-0.669-1.289-0.669-2.363V142H340.4v-0.566l1.572-0.439l0.488-2.402h0.498v2.568
			h3.115V142h-3.115v6.719c0,0.813,0.143,1.416,0.43,1.807C343.675,150.916,344.124,151.111,344.736,151.111z"/>
		<path fill="#808184" d="M356.035,151.776v-6.885c0-1.067-0.225-1.844-0.674-2.329s-1.146-0.728-2.09-0.728
			c-1.27,0-2.199,0.32-2.788,0.962s-0.884,1.682-0.884,3.12v5.859h-0.967V136.58h0.967v4.834l-0.049,1.357h0.068
			c0.397-0.638,0.898-1.101,1.504-1.387s1.357-0.43,2.256-0.43c2.409,0,3.613,1.292,3.613,3.877v6.943H356.035z"/>
		<path fill="#808184" d="M364.717,151.971c-1.543,0-2.746-0.476-3.608-1.426s-1.294-2.282-1.294-3.994
			c0-1.692,0.417-3.049,1.25-4.067s1.956-1.528,3.369-1.528c1.25,0,2.236,0.437,2.959,1.309s1.084,2.058,1.084,3.555v0.781h-7.646
			c0.013,1.458,0.354,2.571,1.021,3.34s1.623,1.152,2.866,1.152c0.605,0,1.138-0.042,1.597-0.127s1.04-0.267,1.743-0.547v0.879
			c-0.599,0.261-1.152,0.438-1.66,0.532S365.329,151.971,364.717,151.971z M364.434,141.815c-1.022,0-1.843,0.337-2.461,1.011
			s-0.979,1.646-1.084,2.915h6.563c0-1.23-0.267-2.192-0.801-2.886S365.378,141.815,364.434,141.815z"/>
		<path fill="#808184" d="M383.047,151.776l-0.244-1.68h-0.078c-0.534,0.684-1.082,1.167-1.646,1.45s-1.229,0.425-1.997,0.425
			c-1.042,0-1.853-0.267-2.432-0.801s-0.869-1.272-0.869-2.217c0-1.035,0.432-1.839,1.294-2.412s2.111-0.876,3.745-0.908
			l2.021-0.059v-0.703c0-1.009-0.205-1.771-0.615-2.285s-1.071-0.771-1.982-0.771c-0.983,0-2.002,0.273-3.057,0.82l-0.361-0.84
			c1.165-0.547,2.317-0.82,3.457-0.82c1.165,0,2.036,0.303,2.612,0.908s0.864,1.55,0.864,2.832v7.061H383.047z M379.141,151.092
			c1.133,0,2.026-0.324,2.681-0.972s0.981-1.548,0.981-2.7v-1.045l-1.855,0.078c-1.491,0.071-2.554,0.305-3.188,0.698
			s-0.952,1.008-0.952,1.841c0,0.664,0.203,1.18,0.61,1.548S378.398,151.092,379.141,151.092z"/>
		<path fill="#808184" d="M388.164,151.776h-0.967V136.58h0.967V151.776z"/>
		<path fill="#808184" d="M392.686,151.776h-0.967V136.58h0.967V151.776z"/>
		<path fill="#808184" d="M410.215,146.453c0,1.731-0.42,3.084-1.26,4.058s-1.999,1.46-3.477,1.46c-0.931,0-1.751-0.225-2.461-0.674
			s-1.253-1.094-1.631-1.934s-0.566-1.81-0.566-2.91c0-1.731,0.42-3.081,1.26-4.048s1.992-1.45,3.457-1.45
			c1.458,0,2.603,0.49,3.433,1.47S410.215,144.747,410.215,146.453z M401.836,146.453c0,1.458,0.32,2.596,0.962,3.413
			s1.548,1.226,2.72,1.226s2.078-0.408,2.72-1.226s0.962-1.955,0.962-3.413c0-1.465-0.324-2.601-0.972-3.408
			s-1.558-1.211-2.729-1.211s-2.075,0.402-2.71,1.206S401.836,144.982,401.836,146.453z"/>
		<path fill="#808184" d="M415.957,151.111c0.612,0,1.146-0.052,1.602-0.156v0.781c-0.469,0.156-1.009,0.234-1.621,0.234
			c-0.938,0-1.629-0.251-2.075-0.752s-0.669-1.289-0.669-2.363V142h-1.572v-0.566l1.572-0.439l0.488-2.402h0.498v2.568h3.115V142
			h-3.115v6.719c0,0.813,0.144,1.416,0.43,1.807S415.345,151.111,415.957,151.111z"/>
		<path fill="#808184" d="M427.256,151.776v-6.885c0-1.067-0.225-1.844-0.674-2.329s-1.146-0.728-2.09-0.728
			c-1.27,0-2.199,0.32-2.788,0.962s-0.884,1.682-0.884,3.12v5.859h-0.967V136.58h0.967v4.834l-0.049,1.357h0.068
			c0.397-0.638,0.898-1.101,1.504-1.387s1.357-0.43,2.256-0.43c2.409,0,3.613,1.292,3.613,3.877v6.943H427.256z"/>
		<path fill="#808184" d="M435.938,151.971c-1.543,0-2.746-0.476-3.608-1.426s-1.294-2.282-1.294-3.994
			c0-1.692,0.417-3.049,1.25-4.067s1.956-1.528,3.369-1.528c1.25,0,2.236,0.437,2.959,1.309s1.084,2.058,1.084,3.555v0.781h-7.646
			c0.013,1.458,0.354,2.571,1.021,3.34s1.623,1.152,2.866,1.152c0.605,0,1.138-0.042,1.597-0.127s1.04-0.267,1.743-0.547v0.879
			c-0.599,0.261-1.152,0.438-1.66,0.532S436.55,151.971,435.938,151.971z M435.654,141.815c-1.022,0-1.843,0.337-2.461,1.011
			s-0.979,1.646-1.084,2.915h6.563c0-1.23-0.267-2.192-0.801-2.886S436.599,141.815,435.654,141.815z"/>
		<path fill="#808184" d="M446.807,140.955c0.449,0,0.931,0.046,1.445,0.137l-0.186,0.928c-0.442-0.11-0.901-0.166-1.377-0.166
			c-0.905,0-1.647,0.384-2.227,1.152s-0.869,1.738-0.869,2.91v5.859h-0.967V141.16h0.82l0.098,1.914h0.068
			c0.437-0.781,0.901-1.33,1.396-1.646S446.104,140.955,446.807,140.955z"/>
		<path fill="#808184" d="M455.469,138.211c0-0.625,0.205-0.938,0.615-0.938c0.202,0,0.359,0.081,0.474,0.244
			s0.171,0.394,0.171,0.693c0,0.293-0.057,0.524-0.171,0.693s-0.271,0.254-0.474,0.254
			C455.674,139.158,455.469,138.843,455.469,138.211z M456.572,151.776h-0.967V141.16h0.967V151.776z"/>
		<path fill="#808184" d="M467.529,151.776v-6.885c0-1.067-0.225-1.844-0.674-2.329s-1.146-0.728-2.09-0.728
			c-1.27,0-2.199,0.32-2.788,0.962s-0.884,1.682-0.884,3.12v5.859h-0.967V141.16h0.82l0.186,1.455h0.059
			c0.69-1.106,1.917-1.66,3.682-1.66c2.409,0,3.613,1.292,3.613,3.877v6.943H467.529z"/>
		<path fill="#808184" d="M475.811,140.955c0.769,0,1.433,0.14,1.992,0.42s1.062,0.759,1.504,1.436h0.059
			c-0.039-0.82-0.059-1.624-0.059-2.412v-3.818h0.957v15.195h-0.635l-0.244-1.621h-0.078c-0.808,1.211-1.966,1.816-3.477,1.816
			c-1.465,0-2.585-0.456-3.359-1.367s-1.162-2.239-1.162-3.984c0-1.836,0.384-3.239,1.152-4.209S474.346,140.955,475.811,140.955z
			 M475.811,141.834c-1.159,0-2.029,0.407-2.612,1.221s-0.874,1.995-0.874,3.545c0,3.008,1.169,4.512,3.506,4.512
			c1.198,0,2.077-0.349,2.637-1.045s0.84-1.846,0.84-3.447v-0.166c0-1.641-0.275-2.82-0.825-3.54S477.041,141.834,475.811,141.834z"
			/>
		<path fill="#808184" d="M484.668,141.16v6.875c0,1.067,0.225,1.844,0.674,2.329s1.146,0.728,2.09,0.728
			c1.263,0,2.192-0.319,2.788-0.957s0.894-1.677,0.894-3.115v-5.859h0.957v10.615h-0.82l-0.176-1.465h-0.059
			c-0.69,1.106-1.917,1.66-3.682,1.66c-2.415,0-3.623-1.292-3.623-3.877v-6.934H484.668z"/>
		<path fill="#808184" d="M502.207,149.012c0,0.95-0.361,1.682-1.084,2.192s-1.748,0.767-3.076,0.767
			c-1.419,0-2.546-0.218-3.379-0.654v-1.045c1.067,0.534,2.194,0.801,3.379,0.801c1.048,0,1.844-0.174,2.388-0.522
			s0.815-0.813,0.815-1.392c0-0.534-0.217-0.983-0.649-1.348s-1.145-0.723-2.134-1.074c-1.062-0.384-1.807-0.715-2.236-0.991
			s-0.754-0.589-0.972-0.938s-0.327-0.773-0.327-1.274c0-0.794,0.334-1.423,1.001-1.885s1.6-0.693,2.798-0.693
			c1.146,0,2.233,0.215,3.262,0.645l-0.361,0.879c-1.042-0.43-2.009-0.645-2.9-0.645c-0.866,0-1.553,0.144-2.061,0.43
			s-0.762,0.684-0.762,1.191c0,0.554,0.197,0.996,0.591,1.328s1.164,0.703,2.31,1.113c0.957,0.345,1.653,0.656,2.09,0.933
			s0.764,0.591,0.981,0.942S502.207,148.536,502.207,149.012z"/>
		<path fill="#808184" d="M507.744,151.111c0.612,0,1.146-0.052,1.602-0.156v0.781c-0.469,0.156-1.009,0.234-1.621,0.234
			c-0.938,0-1.629-0.251-2.075-0.752s-0.669-1.289-0.669-2.363V142h-1.572v-0.566l1.572-0.439l0.488-2.402h0.498v2.568h3.115V142
			h-3.115v6.719c0,0.813,0.144,1.416,0.43,1.807S507.132,151.111,507.744,151.111z"/>
		<path fill="#808184" d="M515.82,140.955c0.449,0,0.931,0.046,1.445,0.137l-0.186,0.928c-0.442-0.11-0.901-0.166-1.377-0.166
			c-0.905,0-1.647,0.384-2.227,1.152s-0.869,1.738-0.869,2.91v5.859h-0.967V141.16h0.82l0.098,1.914h0.068
			c0.437-0.781,0.901-1.33,1.396-1.646S515.117,140.955,515.82,140.955z"/>
		<path fill="#808184" d="M519.287,138.211c0-0.625,0.205-0.938,0.615-0.938c0.202,0,0.359,0.081,0.474,0.244
			s0.171,0.394,0.171,0.693c0,0.293-0.057,0.524-0.171,0.693s-0.271,0.254-0.474,0.254
			C519.492,139.158,519.287,138.843,519.287,138.211z M520.391,151.776h-0.967V141.16h0.967V151.776z"/>
		<path fill="#808184" d="M528.232,151.971c-1.543,0-2.746-0.476-3.608-1.426s-1.294-2.282-1.294-3.994
			c0-1.692,0.417-3.049,1.25-4.067s1.956-1.528,3.369-1.528c1.25,0,2.236,0.437,2.959,1.309s1.084,2.058,1.084,3.555v0.781h-7.646
			c0.013,1.458,0.354,2.571,1.021,3.34s1.623,1.152,2.866,1.152c0.605,0,1.138-0.042,1.597-0.127s1.04-0.267,1.743-0.547v0.879
			c-0.599,0.261-1.152,0.438-1.66,0.532S528.845,151.971,528.232,151.971z M527.949,141.815c-1.022,0-1.843,0.337-2.461,1.011
			s-0.979,1.646-1.084,2.915h6.563c0-1.23-0.267-2.192-0.801-2.886S528.894,141.815,527.949,141.815z"/>
		<path fill="#808184" d="M541.504,149.012c0,0.95-0.361,1.682-1.084,2.192s-1.748,0.767-3.076,0.767
			c-1.419,0-2.546-0.218-3.379-0.654v-1.045c1.067,0.534,2.194,0.801,3.379,0.801c1.048,0,1.844-0.174,2.388-0.522
			s0.815-0.813,0.815-1.392c0-0.534-0.217-0.983-0.649-1.348s-1.145-0.723-2.134-1.074c-1.062-0.384-1.807-0.715-2.236-0.991
			s-0.754-0.589-0.972-0.938s-0.327-0.773-0.327-1.274c0-0.794,0.334-1.423,1.001-1.885s1.6-0.693,2.798-0.693
			c1.146,0,2.233,0.215,3.262,0.645l-0.361,0.879c-1.042-0.43-2.009-0.645-2.9-0.645c-0.866,0-1.553,0.144-2.061,0.43
			s-0.762,0.684-0.762,1.191c0,0.554,0.197,0.996,0.591,1.328s1.164,0.703,2.31,1.113c0.957,0.345,1.653,0.656,2.09,0.933
			s0.764,0.591,0.981,0.942S541.504,148.536,541.504,149.012z"/>
		<path fill="#808184" d="M544.043,151.014c0-0.638,0.261-0.957,0.781-0.957c0.534,0,0.801,0.319,0.801,0.957
			s-0.267,0.957-0.801,0.957C544.304,151.971,544.043,151.651,544.043,151.014z"/>
	</g>
</g>
<g>
	<g>
		<g>
			<rect x="327.28" y="272.694" fill="#A9807D" width="153.47" height="272.152"/>
		</g>
	</g>
	<g>
		<g>
			<rect x="156.757" y="389.597" fill="#C63D27" width="153.47" height="155.25"/>
		</g>
	</g>
</g>
<g>
	<path fill="#FFFFFF" d="M168.974,418.08h-3.364l2.659-12.579h7.416l-0.576,2.728h-4.053l-0.5,2.4h3.752l-0.594,2.745h-3.769
		L168.974,418.08z"/>
	<path fill="#FFFFFF" d="M183.068,405.303c1.491,0,2.651,0.426,3.48,1.277c0.829,0.852,1.243,2.041,1.243,3.567
		s-0.286,2.921-0.856,4.186c-0.571,1.265-1.358,2.234-2.362,2.908c-1.005,0.674-2.169,1.011-3.493,1.011
		c-1.543,0-2.735-0.427-3.576-1.282c-0.84-0.855-1.26-2.043-1.26-3.562c0-1.52,0.296-2.917,0.887-4.19
		c0.59-1.274,1.394-2.244,2.413-2.913C180.563,405.636,181.737,405.303,183.068,405.303z M184.392,410.181
		c0-0.654-0.137-1.166-0.413-1.536c-0.276-0.37-0.675-0.555-1.196-0.555c-0.568,0-1.09,0.24-1.567,0.723
		c-0.476,0.481-0.856,1.144-1.14,1.987s-0.426,1.706-0.426,2.59c0,1.388,0.574,2.082,1.721,2.082c0.545,0,1.052-0.238,1.519-0.714
		c0.468-0.476,0.835-1.119,1.102-1.927C184.259,412.023,184.392,411.14,184.392,410.181z"/>
	<path fill="#FFFFFF" d="M196.051,405.303c1.491,0,2.651,0.426,3.48,1.277c0.829,0.852,1.243,2.041,1.243,3.567
		s-0.286,2.921-0.856,4.186c-0.571,1.265-1.358,2.234-2.362,2.908c-1.005,0.674-2.169,1.011-3.493,1.011
		c-1.543,0-2.735-0.427-3.576-1.282c-0.84-0.855-1.26-2.043-1.26-3.562c0-1.52,0.296-2.917,0.887-4.19
		c0.59-1.274,1.394-2.244,2.413-2.913C193.546,405.636,194.72,405.303,196.051,405.303z M197.376,410.181
		c0-0.654-0.137-1.166-0.413-1.536c-0.276-0.37-0.675-0.555-1.196-0.555c-0.568,0-1.09,0.24-1.567,0.723
		c-0.476,0.481-0.856,1.144-1.14,1.987s-0.426,1.706-0.426,2.59c0,1.388,0.574,2.082,1.721,2.082c0.545,0,1.052-0.238,1.519-0.714
		c0.468-0.476,0.835-1.119,1.102-1.927C197.242,412.023,197.376,411.14,197.376,410.181z"/>
	<path fill="#FFFFFF" d="M212.821,410.258c0,1.607-0.285,2.999-0.852,4.178c-0.568,1.179-1.393,2.081-2.473,2.706
		c-1.082,0.625-2.362,0.937-3.842,0.937H201.6l2.659-12.579h3.579c1.583,0,2.809,0.414,3.678,1.243
		C212.386,407.573,212.821,408.744,212.821,410.258z M206.161,415.292c0.631,0,1.195-0.2,1.691-0.602
		c0.496-0.402,0.882-0.974,1.157-1.717c0.276-0.743,0.413-1.59,0.413-2.542c0-0.717-0.155-1.26-0.465-1.63
		c-0.309-0.37-0.743-0.556-1.299-0.556h-0.61l-1.48,7.047H206.161z"/>
	<path fill="#FFFFFF" d="M222.139,415.033l0.344-0.895l0.81-1.995l2.882-6.643h2.891v6.814c0,0.895-0.075,1.801-0.224,2.719
		c0.057-0.16,0.439-1.152,1.144-2.976l2.607-6.557h3.329l-5.463,12.579h-3.966v-5.335c0-0.889,0.037-1.819,0.112-2.788
		c-0.189,0.763-0.528,1.764-1.015,3.003l-2.177,5.12h-3.733l-0.422-12.579h3.183l-0.086,6.307
		C222.319,413.339,222.248,414.414,222.139,415.033z"/>
	<path fill="#FFFFFF" d="M242.143,405.303c1.491,0,2.651,0.426,3.48,1.277c0.829,0.852,1.243,2.041,1.243,3.567
		s-0.286,2.921-0.856,4.186c-0.571,1.265-1.358,2.234-2.362,2.908c-1.005,0.674-2.169,1.011-3.493,1.011
		c-1.543,0-2.735-0.427-3.576-1.282c-0.84-0.855-1.26-2.043-1.26-3.562c0-1.52,0.296-2.917,0.887-4.19
		c0.59-1.274,1.394-2.244,2.413-2.913C239.638,405.636,240.812,405.303,242.143,405.303z M243.468,410.181
		c0-0.654-0.137-1.166-0.413-1.536s-0.675-0.555-1.196-0.555c-0.568,0-1.09,0.24-1.567,0.723c-0.476,0.481-0.856,1.144-1.14,1.987
		s-0.426,1.706-0.426,2.59c0,1.388,0.574,2.082,1.721,2.082c0.545,0,1.052-0.238,1.519-0.714c0.468-0.476,0.835-1.119,1.102-1.927
		C243.334,412.023,243.468,411.14,243.468,410.181z"/>
	<path fill="#FFFFFF" d="M252.029,413.502l-0.972,4.577h-3.364l2.659-12.579h3.329c1.446,0,2.553,0.287,3.322,0.86
		c0.769,0.574,1.152,1.437,1.152,2.59c0,0.895-0.203,1.675-0.61,2.34c-0.408,0.665-1.013,1.173-1.816,1.523l1.927,4.44l0.345,0.826
		h-3.665l-1.678-4.577L252.029,413.502L252.029,413.502z M252.571,410.946h0.439c0.545,0,0.978-0.156,1.299-0.469
		c0.322-0.313,0.482-0.75,0.482-1.312c0-0.355-0.099-0.626-0.297-0.813c-0.198-0.186-0.486-0.279-0.864-0.279h-0.456
		L252.571,410.946z"/>
	<path fill="#FFFFFF" d="M269.539,418.08h-3.769l-1.498-4.973l-0.834,0.481l-0.929,4.491h-3.364l2.659-12.579h3.364l-1.161,5.369
		l0.327-0.508c0.505-0.82,0.878-1.379,1.119-1.678l2.555-3.183h3.949l-4.741,5.8L269.539,418.08z"/>
	<path fill="#FFFFFF" d="M278.401,418.08h-7.469l2.659-12.579h7.468l-0.559,2.728h-4.103l-0.404,1.978h3.82l-0.619,2.728h-3.82
		l-0.49,2.374h4.104L278.401,418.08z"/>
	<path fill="#FFFFFF" d="M285.172,413.502l-0.972,4.577h-3.364l2.659-12.579h3.329c1.446,0,2.553,0.287,3.322,0.86
		c0.769,0.574,1.152,1.437,1.152,2.59c0,0.895-0.203,1.675-0.61,2.34c-0.408,0.665-1.013,1.173-1.816,1.523l1.927,4.44l0.345,0.826
		h-3.665l-1.678-4.577L285.172,413.502L285.172,413.502z M285.714,410.946h0.439c0.545,0,0.978-0.156,1.299-0.469
		c0.322-0.313,0.482-0.75,0.482-1.312c0-0.355-0.099-0.626-0.297-0.813c-0.198-0.186-0.486-0.279-0.864-0.279h-0.456
		L285.714,410.946z"/>
	<path fill="#FFFFFF" d="M300.41,414.217c0,1.273-0.422,2.264-1.265,2.973c-0.843,0.708-2.019,1.063-3.528,1.063
		c-0.631,0-1.228-0.071-1.79-0.211c-0.562-0.141-1.047-0.345-1.454-0.615v-3.012c0.482,0.305,1.034,0.559,1.656,0.766
		s1.186,0.309,1.691,0.309c0.424,0,0.745-0.089,0.964-0.267c0.218-0.178,0.326-0.43,0.326-0.757c0-0.155-0.034-0.299-0.102-0.434
		c-0.069-0.135-0.167-0.27-0.293-0.404c-0.126-0.135-0.465-0.432-1.015-0.891c-0.671-0.539-1.159-1.09-1.462-1.652
		c-0.305-0.562-0.456-1.179-0.456-1.849c0-0.752,0.188-1.427,0.563-2.026c0.376-0.599,0.907-1.064,1.592-1.394
		c0.685-0.329,1.452-0.494,2.302-0.494c1.371,0,2.604,0.306,3.7,0.92l-1.162,2.556c-0.981-0.505-1.815-0.757-2.503-0.757
		c-0.367,0-0.65,0.08-0.848,0.24c-0.198,0.161-0.297,0.396-0.297,0.706c0,0.281,0.096,0.543,0.288,0.787s0.558,0.569,1.097,0.976
		c0.677,0.5,1.18,1.024,1.506,1.575C300.247,412.874,300.41,413.505,300.41,414.217z"/>
</g>
<g>
	<path fill="#FFFFFF" d="M365.551,297.477h-3.855l-1.075,2.357h-3.493l6.402-12.579h4.327l1.058,12.579h-3.277L365.551,297.477z
		 M362.926,294.792h2.521l-0.146-3.648l-0.017-0.74c0-0.431,0.011-0.806,0.034-1.128c-0.138,0.494-0.313,0.97-0.525,1.429
		L362.926,294.792z"/>
	<path fill="#FFFFFF" d="M370.361,299.834l2.659-12.579h3.364l-2.073,9.835h4.104l-0.585,2.744L370.361,299.834L370.361,299.834z"/>
	<path fill="#FFFFFF" d="M379.644,299.834l2.659-12.579h3.364l-2.073,9.835h4.104l-0.585,2.744L379.644,299.834L379.644,299.834z"/>
	<path fill="#FFFFFF" d="M400.94,287.057c1.491,0,2.651,0.426,3.48,1.277c0.829,0.852,1.243,2.041,1.243,3.567
		s-0.286,2.921-0.856,4.186c-0.571,1.265-1.358,2.234-2.362,2.908c-1.005,0.674-2.169,1.011-3.493,1.011
		c-1.543,0-2.735-0.427-3.576-1.282c-0.84-0.855-1.26-2.043-1.26-3.562c0-1.52,0.296-2.917,0.887-4.19
		c0.59-1.274,1.394-2.244,2.413-2.913C398.435,287.391,399.609,287.057,400.94,287.057z M402.264,291.936
		c0-0.654-0.137-1.166-0.413-1.536c-0.276-0.37-0.674-0.555-1.196-0.555c-0.568,0-1.09,0.24-1.567,0.723
		c-0.476,0.481-0.856,1.144-1.14,1.987s-0.426,1.706-0.426,2.59c0,1.388,0.574,2.082,1.721,2.082c0.545,0,1.052-0.238,1.519-0.714
		c0.468-0.476,0.835-1.119,1.102-1.927C402.131,293.777,402.264,292.894,402.264,291.936z"/>
	<path fill="#FFFFFF" d="M411.599,299.834h-3.364l2.039-9.8h-2.727l0.593-2.779h8.845l-0.61,2.779h-2.736L411.599,299.834z"/>
	<path fill="#FFFFFF" d="M425.934,299.834h-3.364l1.075-5.128h-2.977l-1.092,5.128h-3.364l2.659-12.579h3.364l-0.963,4.664h2.994
		l0.964-4.664h3.373L425.934,299.834z"/>
	<path fill="#FFFFFF" d="M436.259,299.834h-7.469l2.659-12.579h7.468l-0.559,2.728h-4.103l-0.404,1.978h3.82l-0.619,2.728h-3.82
		l-0.49,2.374h4.104L436.259,299.834z"/>
	<path fill="#FFFFFF" d="M443.03,295.257l-0.972,4.577h-3.364l2.659-12.579h3.329c1.446,0,2.553,0.287,3.322,0.86
		c0.769,0.574,1.152,1.437,1.152,2.59c0,0.895-0.203,1.675-0.61,2.34c-0.408,0.665-1.013,1.173-1.816,1.523l1.927,4.44l0.345,0.826
		h-3.665l-1.678-4.577L443.03,295.257L443.03,295.257z M443.572,292.701h0.439c0.545,0,0.978-0.156,1.299-0.469
		c0.322-0.313,0.482-0.75,0.482-1.312c0-0.355-0.099-0.626-0.297-0.813c-0.198-0.186-0.486-0.279-0.864-0.279h-0.456
		L443.572,292.701z"/>
	<path fill="#FFFFFF" d="M353.668,320.98l2.659-12.579h3.415l-2.658,12.579H353.668z"/>
	<path fill="#FFFFFF" d="M371.006,320.98h-3.915l-2.487-8.845h-0.069c-0.167,1.669-0.33,2.868-0.49,3.597l-1.11,5.248h-2.995
		l2.659-12.579h3.915l2.461,8.458h0.078c0.166-1.354,0.329-2.418,0.49-3.192l1.128-5.266h2.994L371.006,320.98z"/>
	<path fill="#FFFFFF" d="M385.082,313.159c0,1.607-0.285,2.999-0.852,4.178s-1.393,2.081-2.473,2.706
		c-1.082,0.625-2.362,0.937-3.842,0.937h-4.053l2.659-12.579h3.579c1.583,0,2.809,0.414,3.678,1.243
		C384.647,310.473,385.082,311.645,385.082,313.159z M378.422,318.192c0.631,0,1.195-0.2,1.691-0.602
		c0.496-0.402,0.882-0.974,1.157-1.717c0.276-0.743,0.413-1.59,0.413-2.542c0-0.717-0.155-1.26-0.465-1.63
		c-0.309-0.37-0.743-0.556-1.299-0.556h-0.61l-1.48,7.047H378.422z"/>
	<path fill="#FFFFFF" d="M398.108,308.401l-1.713,8.019c-0.338,1.612-0.984,2.803-1.936,3.575s-2.246,1.158-3.88,1.158
		c-0.769,0-1.447-0.158-2.035-0.473c-0.587-0.316-1.041-0.757-1.359-1.325c-0.318-0.568-0.478-1.201-0.478-1.901
		c0-0.367,0.034-0.737,0.103-1.11l1.713-7.942h3.364l-1.678,7.856c-0.081,0.39-0.121,0.72-0.121,0.989
		c0,0.729,0.347,1.092,1.041,1.092c0.539,0,0.963-0.185,1.269-0.555c0.307-0.37,0.54-0.936,0.702-1.699l1.643-7.684L398.108,308.401
		L398.108,308.401z"/>
	<path fill="#FFFFFF" d="M406.394,317.117c0,1.273-0.422,2.264-1.265,2.973c-0.843,0.708-2.019,1.063-3.528,1.063
		c-0.631,0-1.228-0.071-1.79-0.211c-0.562-0.141-1.047-0.345-1.454-0.615v-3.012c0.482,0.305,1.034,0.559,1.656,0.766
		s1.186,0.309,1.691,0.309c0.424,0,0.745-0.089,0.964-0.267c0.218-0.178,0.326-0.43,0.326-0.757c0-0.155-0.034-0.299-0.102-0.434
		c-0.069-0.135-0.167-0.27-0.293-0.404c-0.126-0.135-0.465-0.432-1.015-0.891c-0.671-0.539-1.159-1.09-1.462-1.652
		c-0.305-0.562-0.456-1.179-0.456-1.849c0-0.752,0.188-1.427,0.563-2.026c0.376-0.599,0.907-1.064,1.592-1.394
		c0.685-0.329,1.452-0.494,2.302-0.494c1.371,0,2.604,0.306,3.7,0.92l-1.162,2.556c-0.981-0.505-1.815-0.757-2.503-0.757
		c-0.367,0-0.65,0.08-0.848,0.24c-0.198,0.161-0.297,0.396-0.297,0.706c0,0.281,0.096,0.543,0.288,0.787s0.558,0.569,1.097,0.976
		c0.677,0.5,1.18,1.024,1.506,1.575C406.231,315.774,406.394,316.405,406.394,317.117z"/>
	<path fill="#FFFFFF" d="M413.036,320.98h-3.364l2.039-9.8h-2.727l0.593-2.779h8.845l-0.61,2.779h-2.736L413.036,320.98z"/>
	<path fill="#FFFFFF" d="M421.984,316.402l-0.972,4.577h-3.364l2.659-12.579h3.329c1.446,0,2.553,0.287,3.322,0.86
		c0.769,0.574,1.152,1.437,1.152,2.59c0,0.895-0.203,1.674-0.61,2.34c-0.408,0.665-1.013,1.173-1.816,1.523l1.927,4.44l0.345,0.826
		h-3.665l-1.678-4.577L421.984,316.402L421.984,316.402z M422.526,313.847h0.439c0.545,0,0.978-0.156,1.299-0.469
		c0.322-0.313,0.482-0.75,0.482-1.312c0-0.355-0.099-0.626-0.297-0.813c-0.198-0.186-0.486-0.279-0.864-0.279h-0.456
		L422.526,313.847z"/>
	<path fill="#FFFFFF" d="M429.083,320.98l2.659-12.579h3.415l-2.658,12.579H429.083z"/>
	<path fill="#FFFFFF" d="M442.823,320.98h-7.469l2.659-12.579h7.468l-0.559,2.728h-4.103l-0.404,1.978h3.82l-0.619,2.728h-3.82
		l-0.49,2.374h4.104L442.823,320.98z"/>
	<path fill="#FFFFFF" d="M453.38,317.117c0,1.273-0.422,2.264-1.265,2.973c-0.843,0.708-2.019,1.063-3.528,1.063
		c-0.631,0-1.228-0.071-1.79-0.211c-0.562-0.141-1.047-0.345-1.454-0.615v-3.012c0.482,0.305,1.034,0.559,1.656,0.766
		s1.186,0.309,1.691,0.309c0.424,0,0.745-0.089,0.964-0.267c0.218-0.178,0.326-0.43,0.326-0.757c0-0.155-0.034-0.299-0.102-0.434
		c-0.069-0.135-0.167-0.27-0.293-0.404c-0.126-0.135-0.465-0.432-1.015-0.891c-0.671-0.539-1.159-1.09-1.462-1.652
		c-0.305-0.562-0.456-1.179-0.456-1.849c0-0.752,0.188-1.427,0.563-2.026c0.376-0.599,0.907-1.064,1.592-1.394
		c0.685-0.329,1.452-0.494,2.302-0.494c1.371,0,2.604,0.306,3.7,0.92l-1.162,2.556c-0.981-0.505-1.815-0.757-2.503-0.757
		c-0.367,0-0.65,0.08-0.848,0.24c-0.198,0.161-0.297,0.396-0.297,0.706c0,0.281,0.096,0.543,0.288,0.787s0.558,0.569,1.097,0.976
		c0.677,0.5,1.18,1.024,1.506,1.575C453.216,315.774,453.38,316.405,453.38,317.117z"/>
</g>
<g>
	<path fill="#404041" d="M227.34,367.855c0,1.021-0.382,1.853-1.144,2.495c-0.763,0.643-1.798,1.001-3.106,1.076l-0.327,1.608
		h-1.445l0.353-1.643c-1.267-0.092-2.263-0.356-2.985-0.791v-2.676c0.723,0.338,1.376,0.585,1.962,0.74
		c0.585,0.155,1.167,0.232,1.746,0.232c0.998,0,1.498-0.301,1.498-0.903c0-0.229-0.093-0.437-0.28-0.624
		c-0.187-0.187-0.587-0.426-1.2-0.719c-0.797-0.355-1.411-0.814-1.841-1.376c-0.43-0.562-0.645-1.213-0.645-1.953
		c0-1.01,0.383-1.836,1.148-2.479c0.766-0.642,1.791-1.006,3.076-1.092l0.25-1.144h1.445l-0.267,1.179
		c0.923,0.086,1.824,0.345,2.702,0.774l-1.205,2.324c-0.907-0.407-1.752-0.611-2.539-0.611c-0.378,0-0.675,0.081-0.89,0.241
		s-0.323,0.355-0.323,0.585c0,0.304,0.112,0.56,0.335,0.77c0.224,0.209,0.677,0.48,1.36,0.813c0.803,0.391,1.391,0.836,1.763,1.338
		C227.154,366.521,227.34,367.133,227.34,367.855z"/>
	<path fill="#404041" d="M235.042,371.994h-3.347l1.497-6.875c0.16-0.757,0.379-1.491,0.654-2.202
		c-0.447,0.39-0.823,0.685-1.127,0.886l-1.746,1.075l-1.299-2.168l5.334-3.296h2.675L235.042,371.994z"/>
	<path fill="#404041" d="M248.558,363.536c0,1.709-0.244,3.228-0.731,4.556c-0.488,1.328-1.162,2.339-2.023,3.033
		c-0.86,0.694-1.858,1.042-2.994,1.042c-1.205,0-2.117-0.362-2.736-1.084s-0.929-1.753-0.929-3.089c0-1.692,0.244-3.222,0.732-4.59
		c0.487-1.368,1.161-2.408,2.022-3.119c0.86-0.712,1.859-1.067,2.994-1.067c0.775,0,1.436,0.18,1.984,0.538
		c0.548,0.358,0.965,0.859,1.252,1.501C248.415,361.899,248.558,362.659,248.558,363.536z M244.506,361.936
		c-0.316,0-0.631,0.318-0.947,0.955c-0.315,0.636-0.57,1.446-0.765,2.426c-0.195,0.981-0.293,1.897-0.293,2.745
		c0,0.481,0.044,0.834,0.13,1.058c0.085,0.224,0.257,0.335,0.516,0.335c0.333,0,0.653-0.271,0.959-0.813
		c0.306-0.541,0.568-1.303,0.783-2.284c0.215-0.981,0.323-1.945,0.323-2.891c0-0.488-0.053-0.865-0.16-1.131
		C244.946,362.069,244.764,361.936,244.506,361.936z"/>
</g>
<g>
	<path fill="#404041" d="M384.943,251.134c0,1.021-0.382,1.853-1.144,2.495c-0.763,0.642-1.798,1.001-3.106,1.075l-0.327,1.609
		h-1.445l0.353-1.644c-1.267-0.092-2.263-0.355-2.985-0.791v-2.676c0.723,0.339,1.376,0.585,1.962,0.74
		c0.585,0.155,1.167,0.233,1.746,0.233c0.998,0,1.498-0.301,1.498-0.903c0-0.229-0.093-0.437-0.28-0.624s-0.587-0.426-1.2-0.718
		c-0.797-0.355-1.411-0.815-1.841-1.377s-0.645-1.213-0.645-1.953c0-1.01,0.383-1.835,1.148-2.478
		c0.766-0.642,1.791-1.007,3.076-1.093l0.25-1.144h1.445l-0.267,1.179c0.923,0.086,1.824,0.345,2.702,0.775l-1.205,2.323
		c-0.907-0.407-1.752-0.611-2.539-0.611c-0.378,0-0.675,0.08-0.89,0.241c-0.215,0.161-0.323,0.356-0.323,0.585
		c0,0.304,0.112,0.561,0.335,0.77c0.224,0.209,0.677,0.48,1.36,0.813c0.803,0.39,1.391,0.836,1.763,1.338
		C384.757,249.799,384.943,250.412,384.943,251.134z"/>
	<path fill="#404041" d="M392.645,255.273h-3.347l1.497-6.875c0.16-0.757,0.379-1.491,0.654-2.203
		c-0.447,0.39-0.823,0.686-1.127,0.886l-1.746,1.076l-1.299-2.168l5.335-3.296h2.675L392.645,255.273z"/>
	<path fill="#404041" d="M396.508,255.273l6.169-9.766h-4.939l0.603-2.814h8.862l-0.439,1.988l-6.402,10.591L396.508,255.273
		L396.508,255.273z"/>
	<path fill="#404041" d="M406.429,254.18c0-0.625,0.187-1.116,0.559-1.471c0.373-0.356,0.886-0.534,1.54-0.534
		c0.481,0,0.86,0.115,1.135,0.344c0.276,0.229,0.413,0.559,0.413,0.99c0,0.677-0.172,1.176-0.516,1.497
		c-0.345,0.321-0.889,0.482-1.635,0.482c-0.447,0-0.809-0.107-1.083-0.319C406.567,254.957,406.429,254.627,406.429,254.18z"/>
	<path fill="#404041" d="M417.459,247.03c1.038,0,1.88,0.337,2.526,1.011c0.645,0.674,0.967,1.582,0.967,2.723
		c0,1.497-0.461,2.651-1.385,3.463c-0.923,0.812-2.26,1.218-4.009,1.218c-0.74,0-1.442-0.063-2.104-0.189
		c-0.662-0.126-1.149-0.301-1.458-0.525v-2.788c0.453,0.258,0.972,0.461,1.558,0.607c0.585,0.146,1.112,0.219,1.583,0.219
		c1.588,0,2.383-0.551,2.383-1.652c0-0.436-0.145-0.788-0.435-1.058c-0.289-0.27-0.681-0.404-1.174-0.404
		c-0.304,0-0.623,0.029-0.955,0.086c-0.334,0.058-0.597,0.121-0.792,0.189l-1.049-0.791l1.849-6.445h6.995l-0.586,2.779h-4.053
		l-0.508,1.592C417.015,247.042,417.23,247.03,417.459,247.03z"/>
	<path fill="#404041" d="M431.733,245.49c0,0.849-0.257,1.552-0.77,2.108c-0.514,0.557-1.238,0.929-2.173,1.119v0.068
		c0.741,0.144,1.32,0.463,1.739,0.96c0.418,0.496,0.627,1.106,0.627,1.828c0,1.239-0.51,2.194-1.531,2.865s-2.403,1.007-4.147,1.007
		c-0.665,0-1.289-0.059-1.871-0.176c-0.583-0.118-1.063-0.286-1.441-0.504v-2.856c0.957,0.573,2.039,0.86,3.244,0.86
		c0.791,0,1.384-0.134,1.777-0.4c0.393-0.267,0.589-0.65,0.589-1.149c0-0.31-0.078-0.542-0.233-0.697
		c-0.154-0.155-0.402-0.268-0.74-0.34s-0.814-0.107-1.428-0.107h-0.723l0.456-2.504h0.671c0.843,0,1.5-0.133,1.97-0.4
		c0.471-0.267,0.705-0.632,0.705-1.097c0-0.264-0.103-0.476-0.309-0.637c-0.207-0.16-0.49-0.241-0.852-0.241
		c-0.671,0-1.445,0.241-2.323,0.723l-1.36-2.134c0.723-0.465,1.422-0.793,2.095-0.985c0.674-0.192,1.415-0.288,2.224-0.288
		c1.153,0,2.075,0.267,2.767,0.8C431.388,243.847,431.733,244.572,431.733,245.49z"/>
</g>
<g>
	<path fill="#FFFFFF" d="M209.071,203.869v7.572c0,1.646-0.466,2.921-1.398,3.825s-2.276,1.355-4.031,1.355
		c-1.715,0-3.034-0.439-3.954-1.316c-0.921-0.878-1.381-2.14-1.381-3.786v-7.649h3.415v7.383c0,0.889,0.167,1.534,0.5,1.936
		c0.333,0.402,0.822,0.602,1.471,0.602c0.694,0,1.197-0.199,1.51-0.598c0.313-0.399,0.469-1.051,0.469-1.957v-7.365h3.399V203.869z"
		/>
	<path fill="#FFFFFF" d="M211.093,215.02c0-0.528,0.156-0.935,0.469-1.222c0.313-0.287,0.768-0.43,1.364-0.43
		c0.568,0,1.004,0.143,1.307,0.43s0.456,0.694,0.456,1.222c0,0.516-0.156,0.919-0.469,1.209c-0.313,0.29-0.744,0.435-1.295,0.435
		c-0.568,0-1.015-0.144-1.343-0.431C211.256,215.946,211.093,215.542,211.093,215.02z"/>
	<path fill="#FFFFFF" d="M225.031,212.628c0,0.78-0.198,1.473-0.594,2.077c-0.395,0.606-0.966,1.076-1.712,1.411
		c-0.746,0.335-1.621,0.504-2.625,0.504c-0.838,0-1.539-0.059-2.108-0.176c-0.568-0.118-1.159-0.323-1.772-0.616V212.8
		c0.648,0.333,1.322,0.592,2.022,0.779s1.343,0.28,1.927,0.28c0.505,0,0.875-0.087,1.11-0.262c0.236-0.175,0.354-0.4,0.354-0.675
		c0-0.172-0.048-0.323-0.142-0.452s-0.247-0.259-0.456-0.391s-0.767-0.402-1.674-0.809c-0.82-0.373-1.435-0.734-1.846-1.084
		c-0.41-0.35-0.714-0.752-0.912-1.204c-0.198-0.453-0.296-0.99-0.296-1.609c0-1.159,0.422-2.062,1.265-2.71
		c0.843-0.648,2.002-0.972,3.476-0.972c1.302,0,2.63,0.301,3.984,0.903l-1.041,2.625c-1.176-0.539-2.191-0.809-3.046-0.809
		c-0.442,0-0.762,0.078-0.964,0.233c-0.2,0.155-0.301,0.347-0.301,0.577c0,0.247,0.128,0.467,0.383,0.662
		c0.255,0.195,0.947,0.551,2.078,1.067c1.083,0.487,1.837,1.011,2.258,1.57C224.821,211.075,225.031,211.779,225.031,212.628z"/>
	<path fill="#FFFFFF" d="M226.356,215.02c0-0.528,0.156-0.935,0.469-1.222c0.313-0.287,0.768-0.43,1.364-0.43
		c0.568,0,1.004,0.143,1.307,0.43s0.456,0.694,0.456,1.222c0,0.516-0.156,0.919-0.469,1.209c-0.313,0.29-0.744,0.435-1.295,0.435
		c-0.568,0-1.015-0.144-1.343-0.431C226.52,215.946,226.356,215.542,226.356,215.02z"/>
	<path fill="#FFFFFF" d="M247.428,216.448h-3.416v-5.128h-3.949v5.128h-3.416v-12.579h3.416v4.664h3.949v-4.664h3.416V216.448z"/>
	<path fill="#FFFFFF" d="M261.916,210.141c0,2.116-0.519,3.726-1.557,4.827c-1.039,1.102-2.558,1.652-4.56,1.652
		c-1.974,0-3.487-0.553-4.539-1.661c-1.053-1.107-1.578-2.719-1.578-4.835c0-2.093,0.523-3.693,1.57-4.797
		c1.047-1.104,2.568-1.656,4.565-1.656c2.002,0,3.519,0.548,4.551,1.643S261.916,208.019,261.916,210.141z M253.261,210.141
		c0,2.432,0.846,3.648,2.539,3.648c0.86,0,1.498-0.296,1.914-0.886c0.416-0.591,0.624-1.511,0.624-2.762
		c0-1.256-0.21-2.184-0.632-2.783s-1.052-0.899-1.888-0.899C254.113,206.459,253.261,207.686,253.261,210.141z"/>
	<path fill="#FFFFFF" d="M274.883,203.869v7.572c0,1.646-0.466,2.921-1.398,3.825c-0.932,0.903-2.276,1.355-4.031,1.355
		c-1.715,0-3.034-0.439-3.954-1.316c-0.921-0.878-1.381-2.14-1.381-3.786v-7.649h3.415v7.383c0,0.889,0.167,1.534,0.5,1.936
		c0.333,0.402,0.822,0.602,1.471,0.602c0.694,0,1.197-0.199,1.509-0.598c0.313-0.399,0.469-1.051,0.469-1.957v-7.365h3.4V203.869z"
		/>
	<path fill="#FFFFFF" d="M280.923,211.871v4.577h-3.399v-12.579h4.121c3.419,0,5.129,1.239,5.129,3.717
		c0,1.457-0.712,2.584-2.134,3.381l3.665,5.481h-3.855l-2.667-4.577H280.923z M280.923,209.315h0.636
		c1.188,0,1.781-0.525,1.781-1.575c0-0.866-0.582-1.299-1.747-1.299h-0.671v2.874H280.923z"/>
	<path fill="#FFFFFF" d="M289.449,216.448v-12.579h3.399v9.834h4.844v2.745H289.449z"/>
	<path fill="#FFFFFF" d="M304.197,208.533l2.169-4.664h3.683l-4.139,7.666v4.913h-3.424v-4.81l-4.139-7.77h3.7L304.197,208.533z"/>
	<path fill="#FFFFFF" d="M321.466,216.448l-2.573-9.06h-0.077c0.121,1.543,0.18,2.742,0.18,3.597v5.464h-3.012V203.87h4.526
		l2.625,8.931h0.069l2.573-8.931h4.534v12.579h-3.123v-5.515c0-0.286,0.005-0.605,0.013-0.955c0.009-0.349,0.047-1.207,0.116-2.572
		h-0.077l-2.539,9.043h-3.235V216.448z"/>
	<path fill="#FFFFFF" d="M340.49,216.448h-7.469v-12.579h7.469v2.728h-4.07v1.979h3.769v2.727h-3.769v2.375h4.07V216.448z"/>
	<path fill="#FFFFFF" d="M353.37,209.892c0,2.099-0.578,3.717-1.733,4.853c-1.156,1.136-2.781,1.704-4.875,1.704h-4.07V203.87h4.354
		c2.019,0,3.577,0.516,4.676,1.549C352.82,206.45,353.37,207.942,353.37,209.892z M349.842,210.012c0-1.153-0.228-2.007-0.684-2.564
		c-0.456-0.556-1.149-0.835-2.078-0.835h-0.99v7.047h0.757c1.033,0,1.79-0.3,2.272-0.899
		C349.601,212.162,349.842,211.246,349.842,210.012z"/>
	<path fill="#FFFFFF" d="M355.624,216.448v-12.579h3.416v12.579H355.624z"/>
	<path fill="#FFFFFF" d="M369.477,216.448l-0.619-2.358h-4.087l-0.636,2.358H360.4l4.104-12.631h4.534l4.156,12.631H369.477z
		 M368.152,211.303l-0.542-2.065c-0.126-0.459-0.279-1.053-0.461-1.781c-0.18-0.728-0.299-1.25-0.357-1.566
		c-0.052,0.292-0.153,0.774-0.306,1.445c-0.151,0.671-0.489,1.994-1.011,3.966L368.152,211.303L368.152,211.303z"/>
	<path fill="#FFFFFF" d="M386.53,216.448h-4.457l-4.595-8.862h-0.077c0.109,1.394,0.163,2.458,0.163,3.192v5.67h-3.012v-12.579
		h4.441l4.577,8.742h0.052c-0.08-1.268-0.121-2.286-0.121-3.055v-5.687h3.029V216.448z"/>
	<path fill="#FFFFFF" d="M407.413,216.448h-4.018l-1.205-5.481c-0.057-0.229-0.148-0.685-0.271-1.368
		c-0.123-0.682-0.214-1.253-0.271-1.712c-0.045,0.373-0.121,0.836-0.224,1.39c-0.102,0.553-0.205,1.063-0.305,1.527
		c-0.101,0.465-0.518,2.346-1.252,5.644h-4.018l-3.115-12.579h3.278l1.368,6.307c0.31,1.394,0.522,2.504,0.636,3.33
		c0.074-0.585,0.209-1.38,0.401-2.383c0.192-1.004,0.371-1.835,0.538-2.495l1.11-4.758h3.149l1.076,4.758
		c0.183,0.763,0.37,1.644,0.559,2.642s0.316,1.743,0.378,2.237c0.074-0.637,0.278-1.741,0.611-3.313l1.394-6.324h3.277
		L407.413,216.448z"/>
	<path fill="#FFFFFF" d="M419.854,216.448l-0.619-2.358h-4.087l-0.636,2.358h-3.734l4.104-12.631h4.534l4.156,12.631H419.854z
		 M418.53,211.303l-0.542-2.065c-0.126-0.459-0.279-1.053-0.461-1.781c-0.18-0.728-0.299-1.25-0.357-1.566
		c-0.052,0.292-0.153,0.774-0.306,1.445c-0.151,0.671-0.489,1.994-1.011,3.966L418.53,211.303L418.53,211.303z"/>
	<path fill="#FFFFFF" d="M429.981,209.083h5.43v6.78c-1.474,0.505-3.095,0.757-4.861,0.757c-1.939,0-3.438-0.562-4.496-1.687
		c-1.058-1.124-1.587-2.728-1.587-4.81c0-2.03,0.579-3.611,1.738-4.741c1.159-1.13,2.782-1.695,4.87-1.695
		c0.791,0,1.539,0.074,2.241,0.223c0.703,0.149,1.315,0.339,1.837,0.568l-1.075,2.667c-0.907-0.447-1.902-0.671-2.985-0.671
		c-0.993,0-1.76,0.323-2.302,0.968s-0.813,1.567-0.813,2.766c0,1.176,0.246,2.072,0.736,2.689c0.49,0.617,1.197,0.925,2.121,0.925
		c0.505,0,0.969-0.049,1.393-0.146v-1.97h-2.246v-2.623H429.981z"/>
	<path fill="#FFFFFF" d="M445.442,216.448h-7.469v-12.579h7.469v2.728h-4.07v1.979h3.769v2.727h-3.769v2.375h4.07V216.448z"/>
</g>
<polyline fill="none" stroke="#808184" stroke-width="0.8391" stroke-miterlimit="10" points="17.935,193.973 17.935,544.846 
	609.462,544.846 609.462,193.973 "/>
</svg>
