<?xml version="1.0" encoding="utf-8"?>
<!-- Generator: Adobe Illustrator 17.0.0, SVG Export Plug-In . SVG Version: 6.00 Build 0)  -->
<!DOCTYPE svg PUBLIC "-//W3C//DTD SVG 1.1//EN" "http://www.w3.org/Graphics/SVG/1.1/DTD/svg11.dtd">
<svg version="1.1" id="Layer_1" xmlns="http://www.w3.org/2000/svg" xmlns:xlink="http://www.w3.org/1999/xlink" x="0px" y="0px"
	 width="640px" height="544.846px" viewBox="0 0 640 544.846" enable-background="new 0 0 640 544.846" xml:space="preserve">
<path fill="#61935F" d="M231.305,204.095c0,0,49-47.998,97-29.499c0,0-6,47.499-28,67.499
	C300.305,242.095,248.305,236.095,231.305,204.095z"/>
<path fill="#61935F" d="M283.63,241.574c0,0-145.663,134.091-71.596,219.339c38.573,44.396,164.32,92.197,234.137-22.845
	c32.558-53.648,36.015-124.992-134.375-212.021"/>
<g>
	<rect x="33.91" y="86.822" fill="none" width="586.968" height="45.143"/>
	<g enable-background="new    ">
		<path fill="#808184" d="M36.928,102.022h-0.996V87.744h7.822v0.918h-6.826v6.055h6.445v0.928h-6.445V102.022z"/>
		<path fill="#808184" d="M54.506,96.699c0,1.731-0.42,3.084-1.26,4.058s-1.999,1.46-3.477,1.46c-0.931,0-1.751-0.225-2.461-0.674
			s-1.253-1.094-1.631-1.934s-0.566-1.81-0.566-2.91c0-1.731,0.42-3.081,1.26-4.048s1.992-1.45,3.457-1.45
			c1.458,0,2.603,0.49,3.433,1.47S54.506,94.993,54.506,96.699z M46.127,96.699c0,1.458,0.321,2.596,0.962,3.413
			s1.548,1.226,2.72,1.226s2.079-0.408,2.72-1.226s0.962-1.955,0.962-3.413c0-1.465-0.324-2.601-0.972-3.408
			s-1.558-1.211-2.729-1.211s-2.075,0.402-2.71,1.206S46.127,95.228,46.127,96.699z"/>
		<path fill="#808184" d="M66.225,96.699c0,1.731-0.42,3.084-1.26,4.058s-1.999,1.46-3.477,1.46c-0.931,0-1.751-0.225-2.461-0.674
			s-1.253-1.094-1.631-1.934s-0.566-1.81-0.566-2.91c0-1.731,0.42-3.081,1.26-4.048s1.992-1.45,3.457-1.45
			c1.458,0,2.603,0.49,3.433,1.47S66.225,94.993,66.225,96.699z M57.846,96.699c0,1.458,0.321,2.596,0.962,3.413
			s1.548,1.226,2.72,1.226s2.079-0.408,2.72-1.226s0.962-1.955,0.962-3.413c0-1.465-0.324-2.601-0.972-3.408
			s-1.558-1.211-2.729-1.211s-2.075,0.402-2.71,1.206S57.846,95.228,57.846,96.699z"/>
		<path fill="#808184" d="M73.051,91.201c0.768,0,1.432,0.14,1.992,0.42s1.061,0.759,1.504,1.436h0.059
			c-0.039-0.82-0.059-1.624-0.059-2.412v-3.818h0.957v15.195h-0.635l-0.244-1.621h-0.078c-0.807,1.211-1.966,1.816-3.477,1.816
			c-1.465,0-2.584-0.456-3.359-1.367s-1.162-2.239-1.162-3.984c0-1.836,0.384-3.239,1.152-4.209S71.586,91.201,73.051,91.201z
			 M73.051,92.08c-1.159,0-2.03,0.407-2.612,1.221s-0.874,1.995-0.874,3.545c0,3.008,1.168,4.512,3.506,4.512
			c1.198,0,2.077-0.349,2.637-1.045s0.84-1.846,0.84-3.447v-0.166c0-1.641-0.275-2.82-0.825-3.54S74.281,92.08,73.051,92.08z"/>
		<path fill="#808184" d="M80.189,97.022v-0.801h4.639v0.801H80.189z"/>
		<path fill="#808184" d="M91.684,91.201c0.449,0,0.931,0.046,1.445,0.137l-0.186,0.928c-0.443-0.11-0.902-0.166-1.377-0.166
			c-0.905,0-1.647,0.384-2.227,1.152s-0.869,1.738-0.869,2.91v5.859h-0.967V91.406h0.82l0.098,1.914h0.068
			c0.436-0.781,0.902-1.33,1.396-1.646S90.98,91.201,91.684,91.201z"/>
		<path fill="#808184" d="M99.574,102.217c-1.543,0-2.746-0.476-3.608-1.426s-1.294-2.282-1.294-3.994
			c0-1.692,0.417-3.049,1.25-4.067s1.957-1.528,3.369-1.528c1.25,0,2.236,0.437,2.959,1.309s1.084,2.058,1.084,3.555v0.781h-7.646
			c0.013,1.458,0.353,2.571,1.021,3.34s1.623,1.152,2.866,1.152c0.605,0,1.138-0.042,1.597-0.127s1.04-0.267,1.743-0.547v0.879
			c-0.599,0.261-1.152,0.438-1.66,0.532S100.186,102.217,99.574,102.217z M99.291,92.061c-1.022,0-1.842,0.337-2.461,1.011
			s-0.98,1.646-1.084,2.915h6.563c0-1.23-0.267-2.192-0.801-2.886S100.235,92.061,99.291,92.061z"/>
		<path fill="#808184" d="M107.23,102.022h-0.967V86.826h0.967V102.022z"/>
		<path fill="#808184" d="M117.23,102.022l-0.244-1.68h-0.078c-0.534,0.684-1.083,1.167-1.646,1.45s-1.229,0.425-1.997,0.425
			c-1.042,0-1.852-0.267-2.432-0.801s-0.869-1.272-0.869-2.217c0-1.035,0.431-1.839,1.294-2.412s2.111-0.876,3.745-0.908
			l2.021-0.059v-0.703c0-1.009-0.205-1.771-0.615-2.285s-1.071-0.771-1.982-0.771c-0.983,0-2.002,0.273-3.057,0.82l-0.361-0.84
			c1.166-0.547,2.318-0.82,3.457-0.82c1.166,0,2.036,0.303,2.612,0.908s0.864,1.55,0.864,2.832v7.061H117.23z M113.324,101.338
			c1.133,0,2.026-0.324,2.681-0.972s0.981-1.548,0.981-2.7v-1.045l-1.855,0.078c-1.491,0.071-2.554,0.305-3.188,0.698
			s-0.952,1.008-0.952,1.841c0,0.664,0.204,1.18,0.61,1.548S112.582,101.338,113.324,101.338z"/>
		<path fill="#808184" d="M124.184,101.358c0.612,0,1.146-0.052,1.602-0.156v0.781c-0.469,0.156-1.009,0.234-1.621,0.234
			c-0.938,0-1.629-0.251-2.075-0.752s-0.669-1.289-0.669-2.363v-6.855h-1.572V91.68l1.572-0.439l0.488-2.402h0.498v2.568h3.115v0.84
			h-3.115v6.719c0,0.813,0.143,1.416,0.43,1.807S123.572,101.358,124.184,101.358z"/>
		<path fill="#808184" d="M132.367,102.217c-1.543,0-2.746-0.476-3.608-1.426s-1.294-2.282-1.294-3.994
			c0-1.692,0.417-3.049,1.25-4.067s1.957-1.528,3.369-1.528c1.25,0,2.236,0.437,2.959,1.309s1.084,2.058,1.084,3.555v0.781h-7.646
			c0.013,1.458,0.353,2.571,1.021,3.34s1.623,1.152,2.866,1.152c0.605,0,1.138-0.042,1.597-0.127s1.04-0.267,1.743-0.547v0.879
			c-0.599,0.261-1.152,0.438-1.66,0.532S132.979,102.217,132.367,102.217z M132.084,92.061c-1.022,0-1.842,0.337-2.461,1.011
			s-0.98,1.646-1.084,2.915h6.563c0-1.23-0.267-2.192-0.801-2.886S133.028,92.061,132.084,92.061z"/>
		<path fill="#808184" d="M142.943,91.201c0.768,0,1.432,0.14,1.992,0.42s1.061,0.759,1.504,1.436h0.059
			c-0.039-0.82-0.059-1.624-0.059-2.412v-3.818h0.957v15.195h-0.635l-0.244-1.621h-0.078c-0.807,1.211-1.966,1.816-3.477,1.816
			c-1.465,0-2.584-0.456-3.359-1.367s-1.162-2.239-1.162-3.984c0-1.836,0.384-3.239,1.152-4.209S141.479,91.201,142.943,91.201z
			 M142.943,92.08c-1.159,0-2.03,0.407-2.612,1.221s-0.874,1.995-0.874,3.545c0,3.008,1.168,4.512,3.506,4.512
			c1.198,0,2.077-0.349,2.637-1.045s0.84-1.846,0.84-3.447v-0.166c0-1.641-0.275-2.82-0.825-3.54S144.174,92.08,142.943,92.08z"/>
		<path fill="#808184" d="M156.02,88.457c0-0.625,0.205-0.938,0.615-0.938c0.202,0,0.36,0.081,0.474,0.244s0.171,0.394,0.171,0.693
			c0,0.293-0.057,0.524-0.171,0.693s-0.272,0.254-0.474,0.254C156.225,89.404,156.02,89.089,156.02,88.457z M157.123,102.022h-0.967
			V91.406h0.967V102.022z"/>
		<path fill="#808184" d="M168.08,102.022v-6.885c0-1.067-0.225-1.844-0.674-2.329s-1.146-0.728-2.09-0.728
			c-1.27,0-2.199,0.32-2.788,0.962s-0.884,1.682-0.884,3.12v5.859h-0.967V91.406h0.82l0.186,1.455h0.059
			c0.69-1.106,1.917-1.66,3.682-1.66c2.409,0,3.613,1.292,3.613,3.877v6.943H168.08z"/>
		<path fill="#808184" d="M176.361,91.201c0.768,0,1.432,0.14,1.992,0.42s1.061,0.759,1.504,1.436h0.059
			c-0.039-0.82-0.059-1.624-0.059-2.412v-3.818h0.957v15.195h-0.635l-0.244-1.621h-0.078c-0.807,1.211-1.966,1.816-3.477,1.816
			c-1.465,0-2.584-0.456-3.359-1.367s-1.162-2.239-1.162-3.984c0-1.836,0.384-3.239,1.152-4.209S174.896,91.201,176.361,91.201z
			 M176.361,92.08c-1.159,0-2.03,0.407-2.612,1.221s-0.874,1.995-0.874,3.545c0,3.008,1.168,4.512,3.506,4.512
			c1.198,0,2.077-0.349,2.637-1.045s0.84-1.846,0.84-3.447v-0.166c0-1.641-0.275-2.82-0.825-3.54S177.592,92.08,176.361,92.08z"/>
		<path fill="#808184" d="M185.219,91.406v6.875c0,1.067,0.225,1.844,0.674,2.329s1.146,0.728,2.09,0.728
			c1.263,0,2.192-0.319,2.788-0.957s0.894-1.677,0.894-3.115v-5.859h0.957v10.615h-0.82l-0.176-1.465h-0.059
			c-0.69,1.106-1.917,1.66-3.682,1.66c-2.416,0-3.623-1.292-3.623-3.877v-6.934H185.219z"/>
		<path fill="#808184" d="M202.758,99.258c0,0.95-0.361,1.682-1.084,2.192s-1.748,0.767-3.076,0.767
			c-1.419,0-2.545-0.218-3.379-0.654v-1.045c1.068,0.534,2.194,0.801,3.379,0.801c1.048,0,1.844-0.174,2.388-0.522
			s0.815-0.813,0.815-1.392c0-0.534-0.216-0.983-0.649-1.348s-1.144-0.723-2.134-1.074c-1.061-0.384-1.807-0.715-2.236-0.991
			s-0.753-0.589-0.972-0.938s-0.327-0.773-0.327-1.274c0-0.794,0.333-1.423,1.001-1.885s1.6-0.693,2.798-0.693
			c1.146,0,2.233,0.215,3.262,0.645l-0.361,0.879c-1.042-0.43-2.008-0.645-2.9-0.645c-0.866,0-1.553,0.144-2.061,0.43
			s-0.762,0.684-0.762,1.191c0,0.554,0.197,0.996,0.591,1.328s1.164,0.703,2.31,1.113c0.957,0.345,1.654,0.656,2.09,0.933
			s0.763,0.591,0.981,0.942S202.758,98.782,202.758,99.258z"/>
		<path fill="#808184" d="M208.295,101.358c0.612,0,1.146-0.052,1.602-0.156v0.781c-0.469,0.156-1.009,0.234-1.621,0.234
			c-0.938,0-1.629-0.251-2.075-0.752s-0.669-1.289-0.669-2.363v-6.855h-1.572V91.68l1.572-0.439l0.488-2.402h0.498v2.568h3.115v0.84
			h-3.115v6.719c0,0.813,0.143,1.416,0.43,1.807S207.683,101.358,208.295,101.358z"/>
		<path fill="#808184" d="M216.371,91.201c0.449,0,0.931,0.046,1.445,0.137l-0.186,0.928c-0.443-0.11-0.902-0.166-1.377-0.166
			c-0.905,0-1.647,0.384-2.227,1.152s-0.869,1.738-0.869,2.91v5.859h-0.967V91.406h0.82l0.098,1.914h0.068
			c0.436-0.781,0.902-1.33,1.396-1.646S215.668,91.201,216.371,91.201z"/>
		<path fill="#808184" d="M219.838,88.457c0-0.625,0.205-0.938,0.615-0.938c0.202,0,0.36,0.081,0.474,0.244s0.171,0.394,0.171,0.693
			c0,0.293-0.057,0.524-0.171,0.693s-0.272,0.254-0.474,0.254C220.043,89.404,219.838,89.089,219.838,88.457z M220.941,102.022
			h-0.967V91.406h0.967V102.022z"/>
		<path fill="#808184" d="M228.783,102.217c-1.543,0-2.746-0.476-3.608-1.426s-1.294-2.282-1.294-3.994
			c0-1.692,0.417-3.049,1.25-4.067s1.957-1.528,3.369-1.528c1.25,0,2.236,0.437,2.959,1.309s1.084,2.058,1.084,3.555v0.781h-7.646
			c0.013,1.458,0.353,2.571,1.021,3.34s1.623,1.152,2.866,1.152c0.605,0,1.138-0.042,1.597-0.127s1.04-0.267,1.743-0.547v0.879
			c-0.599,0.261-1.152,0.438-1.66,0.532S229.395,102.217,228.783,102.217z M228.5,92.061c-1.022,0-1.842,0.337-2.461,1.011
			s-0.98,1.646-1.084,2.915h6.563c0-1.23-0.267-2.192-0.801-2.886S229.444,92.061,228.5,92.061z"/>
		<path fill="#808184" d="M242.055,99.258c0,0.95-0.361,1.682-1.084,2.192s-1.748,0.767-3.076,0.767
			c-1.419,0-2.545-0.218-3.379-0.654v-1.045c1.068,0.534,2.194,0.801,3.379,0.801c1.048,0,1.844-0.174,2.388-0.522
			s0.815-0.813,0.815-1.392c0-0.534-0.216-0.983-0.649-1.348s-1.144-0.723-2.134-1.074c-1.061-0.384-1.807-0.715-2.236-0.991
			s-0.753-0.589-0.972-0.938s-0.327-0.773-0.327-1.274c0-0.794,0.333-1.423,1.001-1.885s1.6-0.693,2.798-0.693
			c1.146,0,2.233,0.215,3.262,0.645l-0.361,0.879c-1.042-0.43-2.008-0.645-2.9-0.645c-0.866,0-1.553,0.144-2.061,0.43
			s-0.762,0.684-0.762,1.191c0,0.554,0.197,0.996,0.591,1.328s1.164,0.703,2.31,1.113c0.957,0.345,1.654,0.656,2.09,0.933
			s0.763,0.591,0.981,0.942S242.055,98.782,242.055,99.258z"/>
		<path fill="#808184" d="M254.223,102.217c-1.517,0-2.705-0.479-3.564-1.436s-1.289-2.292-1.289-4.004
			c0-1.758,0.446-3.127,1.338-4.106s2.113-1.47,3.662-1.47c0.918,0,1.797,0.159,2.637,0.479l-0.264,0.859
			c-0.918-0.306-1.715-0.459-2.393-0.459c-1.302,0-2.289,0.402-2.959,1.206s-1.006,1.961-1.006,3.472
			c0,1.433,0.335,2.554,1.006,3.364s1.608,1.216,2.813,1.216c0.963,0,1.859-0.173,2.686-0.518v0.898
			C256.211,102.051,255.323,102.217,254.223,102.217z"/>
		<path fill="#808184" d="M268.266,96.699c0,1.731-0.42,3.084-1.26,4.058s-1.999,1.46-3.477,1.46c-0.931,0-1.751-0.225-2.461-0.674
			s-1.253-1.094-1.631-1.934s-0.566-1.81-0.566-2.91c0-1.731,0.42-3.081,1.26-4.048s1.992-1.45,3.457-1.45
			c1.458,0,2.603,0.49,3.433,1.47S268.266,94.993,268.266,96.699z M259.887,96.699c0,1.458,0.321,2.596,0.962,3.413
			s1.548,1.226,2.72,1.226s2.079-0.408,2.72-1.226s0.962-1.955,0.962-3.413c0-1.465-0.324-2.601-0.972-3.408
			s-1.558-1.211-2.729-1.211s-2.075,0.402-2.71,1.206S259.887,95.228,259.887,96.699z"/>
		<path fill="#808184" d="M284.467,102.022v-6.963c0-1.035-0.202-1.79-0.605-2.266s-1.022-0.713-1.855-0.713
			c-1.087,0-1.891,0.3-2.412,0.898s-0.781,1.54-0.781,2.822v6.221h-0.986v-7.256c0-1.79-0.82-2.686-2.461-2.686
			c-1.113,0-1.924,0.324-2.432,0.972s-0.762,1.685-0.762,3.11v5.859h-0.967V91.406h0.801l0.205,1.455h0.059
			c0.293-0.527,0.709-0.936,1.25-1.226s1.136-0.435,1.787-0.435c1.673,0,2.748,0.628,3.223,1.885h0.039
			c0.345-0.605,0.809-1.071,1.392-1.396s1.245-0.488,1.987-0.488c1.159,0,2.028,0.31,2.607,0.928s0.869,1.602,0.869,2.949v6.943
			H284.467z"/>
		<path fill="#808184" d="M293.402,102.217c-1.634,0-2.826-0.612-3.574-1.836h-0.068l0.029,0.82
			c0.026,0.481,0.039,1.009,0.039,1.582v4.043h-0.967v-15.42h0.82l0.186,1.514h0.059c0.729-1.146,1.895-1.719,3.496-1.719
			c1.432,0,2.524,0.471,3.276,1.411s1.128,2.31,1.128,4.106c0,1.745-0.396,3.098-1.187,4.058S294.77,102.217,293.402,102.217z
			 M293.383,101.358c1.087,0,1.929-0.403,2.524-1.211s0.894-1.937,0.894-3.389c0-3.118-1.126-4.678-3.379-4.678
			c-1.237,0-2.145,0.34-2.725,1.021s-0.869,1.789-0.869,3.325v0.313c0,1.66,0.278,2.845,0.835,3.555
			S292.126,101.358,293.383,101.358z"/>
		<path fill="#808184" d="M304.945,91.201c0.449,0,0.931,0.046,1.445,0.137l-0.186,0.928c-0.443-0.11-0.902-0.166-1.377-0.166
			c-0.905,0-1.647,0.384-2.227,1.152s-0.869,1.738-0.869,2.91v5.859h-0.967V91.406h0.82l0.098,1.914h0.068
			c0.436-0.781,0.902-1.33,1.396-1.646S304.242,91.201,304.945,91.201z"/>
		<path fill="#808184" d="M308.412,88.457c0-0.625,0.205-0.938,0.615-0.938c0.202,0,0.36,0.081,0.474,0.244s0.171,0.394,0.171,0.693
			c0,0.293-0.057,0.524-0.171,0.693s-0.272,0.254-0.474,0.254C308.617,89.404,308.412,89.089,308.412,88.457z M309.516,102.022
			h-0.967V91.406h0.967V102.022z"/>
		<path fill="#808184" d="M319.652,99.258c0,0.95-0.361,1.682-1.084,2.192s-1.748,0.767-3.076,0.767
			c-1.419,0-2.545-0.218-3.379-0.654v-1.045c1.068,0.534,2.194,0.801,3.379,0.801c1.048,0,1.844-0.174,2.388-0.522
			s0.815-0.813,0.815-1.392c0-0.534-0.216-0.983-0.649-1.348s-1.144-0.723-2.134-1.074c-1.061-0.384-1.807-0.715-2.236-0.991
			s-0.753-0.589-0.972-0.938s-0.327-0.773-0.327-1.274c0-0.794,0.333-1.423,1.001-1.885s1.6-0.693,2.798-0.693
			c1.146,0,2.233,0.215,3.262,0.645l-0.361,0.879c-1.042-0.43-2.008-0.645-2.9-0.645c-0.866,0-1.553,0.144-2.061,0.43
			s-0.762,0.684-0.762,1.191c0,0.554,0.197,0.996,0.591,1.328s1.164,0.703,2.31,1.113c0.957,0.345,1.654,0.656,2.09,0.933
			s0.763,0.591,0.981,0.942S319.652,98.782,319.652,99.258z"/>
		<path fill="#808184" d="M326.674,102.217c-1.543,0-2.745-0.476-3.608-1.426c-0.862-0.95-1.294-2.282-1.294-3.994
			c0-1.692,0.417-3.049,1.25-4.067c0.834-1.019,1.957-1.528,3.369-1.528c1.25,0,2.236,0.437,2.959,1.309s1.084,2.058,1.084,3.555
			v0.781h-7.646c0.014,1.458,0.354,2.571,1.021,3.34c0.668,0.769,1.623,1.152,2.866,1.152c0.605,0,1.138-0.042,1.597-0.127
			s1.04-0.267,1.743-0.547v0.879c-0.599,0.261-1.152,0.438-1.66,0.532S327.286,102.217,326.674,102.217z M326.391,92.061
			c-1.021,0-1.842,0.337-2.461,1.011c-0.618,0.674-0.979,1.646-1.084,2.915h6.563c0-1.23-0.267-2.192-0.801-2.886
			C328.074,92.407,327.335,92.061,326.391,92.061z"/>
		<path fill="#808184" d="M341.361,101.358c0.612,0,1.146-0.052,1.602-0.156v0.781c-0.469,0.156-1.009,0.234-1.621,0.234
			c-0.938,0-1.629-0.251-2.075-0.752c-0.445-0.501-0.669-1.289-0.669-2.363v-6.855h-1.572V91.68l1.572-0.439l0.488-2.402h0.498
			v2.568h3.115v0.84h-3.115v6.719c0,0.813,0.144,1.416,0.43,1.807C340.301,101.162,340.75,101.358,341.361,101.358z"/>
		<path fill="#808184" d="M352.66,102.022v-6.885c0-1.067-0.225-1.844-0.674-2.329s-1.146-0.728-2.09-0.728
			c-1.27,0-2.198,0.32-2.788,0.962c-0.589,0.642-0.884,1.682-0.884,3.12v5.859h-0.967V86.826h0.967v4.834l-0.049,1.357h0.068
			c0.397-0.638,0.898-1.101,1.504-1.387s1.357-0.43,2.256-0.43c2.409,0,3.613,1.292,3.613,3.877v6.943H352.66z"/>
		<path fill="#808184" d="M361.342,102.217c-1.543,0-2.746-0.476-3.608-1.426s-1.294-2.282-1.294-3.994
			c0-1.692,0.417-3.049,1.25-4.067s1.956-1.528,3.369-1.528c1.25,0,2.236,0.437,2.959,1.309s1.084,2.058,1.084,3.555v0.781h-7.646
			c0.013,1.458,0.354,2.571,1.021,3.34s1.623,1.152,2.866,1.152c0.605,0,1.138-0.042,1.597-0.127s1.04-0.267,1.743-0.547v0.879
			c-0.599,0.261-1.152,0.438-1.66,0.532S361.954,102.217,361.342,102.217z M361.059,92.061c-1.022,0-1.843,0.337-2.461,1.011
			s-0.979,1.646-1.084,2.915h6.563c0-1.23-0.267-2.192-0.801-2.886S362.003,92.061,361.059,92.061z"/>
		<path fill="#808184" d="M376.029,101.358c0.612,0,1.146-0.052,1.602-0.156v0.781c-0.469,0.156-1.009,0.234-1.621,0.234
			c-0.938,0-1.629-0.251-2.075-0.752s-0.669-1.289-0.669-2.363v-6.855h-1.572V91.68l1.572-0.439l0.488-2.402h0.498v2.568h3.115v0.84
			h-3.115v6.719c0,0.813,0.144,1.416,0.43,1.807S375.417,101.358,376.029,101.358z"/>
		<path fill="#808184" d="M387.328,102.022v-6.885c0-1.067-0.225-1.844-0.674-2.329s-1.146-0.728-2.09-0.728
			c-1.27,0-2.199,0.32-2.788,0.962s-0.884,1.682-0.884,3.12v5.859h-0.967V86.826h0.967v4.834l-0.049,1.357h0.068
			c0.397-0.638,0.898-1.101,1.504-1.387s1.357-0.43,2.256-0.43c2.409,0,3.613,1.292,3.613,3.877v6.943H387.328z"/>
		<path fill="#808184" d="M391.586,88.457c0-0.625,0.205-0.938,0.615-0.938c0.202,0,0.359,0.081,0.474,0.244
			s0.171,0.394,0.171,0.693c0,0.293-0.057,0.524-0.171,0.693s-0.271,0.254-0.474,0.254
			C391.791,89.404,391.586,89.089,391.586,88.457z M392.689,102.022h-0.967V91.406h0.967V102.022z"/>
		<path fill="#808184" d="M400.424,91.201c0.449,0,0.931,0.046,1.445,0.137l-0.186,0.928c-0.442-0.11-0.901-0.166-1.377-0.166
			c-0.905,0-1.647,0.384-2.227,1.152s-0.869,1.738-0.869,2.91v5.859h-0.967V91.406h0.82l0.098,1.914h0.068
			c0.437-0.781,0.901-1.33,1.396-1.646S399.721,91.201,400.424,91.201z"/>
		<path fill="#808184" d="M407.914,91.201c0.769,0,1.433,0.14,1.992,0.42s1.062,0.759,1.504,1.436h0.059
			c-0.039-0.82-0.059-1.624-0.059-2.412v-3.818h0.957v15.195h-0.635l-0.244-1.621h-0.078c-0.808,1.211-1.966,1.816-3.477,1.816
			c-1.465,0-2.585-0.456-3.359-1.367s-1.162-2.239-1.162-3.984c0-1.836,0.384-3.239,1.152-4.209S406.449,91.201,407.914,91.201z
			 M407.914,92.08c-1.159,0-2.029,0.407-2.612,1.221s-0.874,1.995-0.874,3.545c0,3.008,1.169,4.512,3.506,4.512
			c1.198,0,2.077-0.349,2.637-1.045s0.84-1.846,0.84-3.447v-0.166c0-1.641-0.275-2.82-0.825-3.54S409.145,92.08,407.914,92.08z"/>
		<path fill="#808184" d="M422.094,102.022h-0.967V86.826h0.967V102.022z"/>
		<path fill="#808184" d="M432.094,102.022l-0.244-1.68h-0.078c-0.534,0.684-1.082,1.167-1.646,1.45s-1.229,0.425-1.997,0.425
			c-1.042,0-1.853-0.267-2.432-0.801s-0.869-1.272-0.869-2.217c0-1.035,0.432-1.839,1.294-2.412s2.111-0.876,3.745-0.908
			l2.021-0.059v-0.703c0-1.009-0.205-1.771-0.615-2.285s-1.071-0.771-1.982-0.771c-0.983,0-2.002,0.273-3.057,0.82l-0.361-0.84
			c1.165-0.547,2.317-0.82,3.457-0.82c1.165,0,2.036,0.303,2.612,0.908s0.864,1.55,0.864,2.832v7.061H432.094z M428.188,101.338
			c1.133,0,2.026-0.324,2.681-0.972s0.981-1.548,0.981-2.7v-1.045l-1.855,0.078c-1.491,0.071-2.554,0.305-3.188,0.698
			s-0.952,1.008-0.952,1.841c0,0.664,0.203,1.18,0.61,1.548S427.445,101.338,428.188,101.338z"/>
		<path fill="#808184" d="M440.424,91.201c0.449,0,0.931,0.046,1.445,0.137l-0.186,0.928c-0.442-0.11-0.901-0.166-1.377-0.166
			c-0.905,0-1.647,0.384-2.227,1.152s-0.869,1.738-0.869,2.91v5.859h-0.967V91.406h0.82l0.098,1.914h0.068
			c0.437-0.781,0.901-1.33,1.396-1.646S439.721,91.201,440.424,91.201z"/>
		<path fill="#808184" d="M452.309,91.406v0.674l-2.197,0.137c0.586,0.729,0.879,1.53,0.879,2.402c0,1.022-0.34,1.851-1.021,2.485
			s-1.594,0.952-2.739,0.952c-0.481,0-0.82-0.02-1.016-0.059c-0.384,0.202-0.677,0.439-0.879,0.713s-0.303,0.563-0.303,0.869
			c0,0.339,0.129,0.586,0.386,0.742s0.688,0.234,1.294,0.234h1.855c1.152,0,2.034,0.232,2.646,0.698s0.918,1.154,0.918,2.065
			c0,1.12-0.454,1.984-1.362,2.593s-2.202,0.913-3.882,0.913c-1.335,0-2.368-0.257-3.101-0.771s-1.099-1.23-1.099-2.148
			c0-0.729,0.227-1.335,0.679-1.816s1.066-0.811,1.841-0.986c-0.319-0.137-0.574-0.33-0.767-0.581s-0.288-0.539-0.288-0.864
			c0-0.71,0.452-1.335,1.357-1.875c-0.618-0.254-1.101-0.652-1.445-1.196s-0.518-1.167-0.518-1.87c0-1.062,0.337-1.912,1.011-2.554
			s1.584-0.962,2.729-0.962c0.696,0,1.237,0.068,1.621,0.205H452.309z M443.715,103.818c0,1.458,1.084,2.188,3.252,2.188
			c2.786,0,4.18-0.889,4.18-2.666c0-0.638-0.218-1.101-0.654-1.387s-1.143-0.43-2.119-0.43h-1.738
			C444.688,101.524,443.715,102.288,443.715,103.818z M444.525,94.717c0,0.82,0.249,1.457,0.747,1.909s1.164,0.679,1.997,0.679
			c0.886,0,1.564-0.225,2.036-0.674s0.708-1.101,0.708-1.953c0-0.905-0.242-1.584-0.728-2.036s-1.164-0.679-2.036-0.679
			c-0.847,0-1.512,0.242-1.997,0.728S444.525,93.851,444.525,94.717z"/>
		<path fill="#808184" d="M458.773,102.217c-1.543,0-2.746-0.476-3.608-1.426s-1.294-2.282-1.294-3.994
			c0-1.692,0.417-3.049,1.25-4.067s1.956-1.528,3.369-1.528c1.25,0,2.236,0.437,2.959,1.309s1.084,2.058,1.084,3.555v0.781h-7.646
			c0.013,1.458,0.354,2.571,1.021,3.34s1.623,1.152,2.866,1.152c0.605,0,1.138-0.042,1.597-0.127s1.04-0.267,1.743-0.547v0.879
			c-0.599,0.261-1.152,0.438-1.66,0.532S459.386,102.217,458.773,102.217z M458.49,92.061c-1.022,0-1.843,0.337-2.461,1.011
			s-0.979,1.646-1.084,2.915h6.563c0-1.23-0.267-2.192-0.801-2.886S459.435,92.061,458.49,92.061z"/>
		<path fill="#808184" d="M472.045,99.258c0,0.95-0.361,1.682-1.084,2.192s-1.748,0.767-3.076,0.767
			c-1.419,0-2.546-0.218-3.379-0.654v-1.045c1.067,0.534,2.194,0.801,3.379,0.801c1.048,0,1.844-0.174,2.388-0.522
			s0.815-0.813,0.815-1.392c0-0.534-0.217-0.983-0.649-1.348s-1.145-0.723-2.134-1.074c-1.062-0.384-1.807-0.715-2.236-0.991
			s-0.754-0.589-0.972-0.938s-0.327-0.773-0.327-1.274c0-0.794,0.334-1.423,1.001-1.885s1.6-0.693,2.798-0.693
			c1.146,0,2.233,0.215,3.262,0.645l-0.361,0.879c-1.042-0.43-2.009-0.645-2.9-0.645c-0.866,0-1.553,0.144-2.061,0.43
			s-0.762,0.684-0.762,1.191c0,0.554,0.197,0.996,0.591,1.328s1.164,0.703,2.31,1.113c0.957,0.345,1.653,0.656,2.09,0.933
			s0.764,0.591,0.981,0.942S472.045,98.782,472.045,99.258z"/>
		<path fill="#808184" d="M477.582,101.358c0.612,0,1.146-0.052,1.602-0.156v0.781c-0.469,0.156-1.009,0.234-1.621,0.234
			c-0.938,0-1.629-0.251-2.075-0.752s-0.669-1.289-0.669-2.363v-6.855h-1.572V91.68l1.572-0.439l0.488-2.402h0.498v2.568h3.115v0.84
			h-3.115v6.719c0,0.813,0.144,1.416,0.43,1.807S476.97,101.358,477.582,101.358z"/>
		<path fill="#808184" d="M490.912,102.217c-1.517,0-2.705-0.479-3.564-1.436s-1.289-2.292-1.289-4.004
			c0-1.758,0.446-3.127,1.338-4.106s2.112-1.47,3.662-1.47c0.918,0,1.797,0.159,2.637,0.479l-0.264,0.859
			c-0.918-0.306-1.716-0.459-2.393-0.459c-1.302,0-2.288,0.402-2.959,1.206s-1.006,1.961-1.006,3.472
			c0,1.433,0.335,2.554,1.006,3.364s1.608,1.216,2.813,1.216c0.964,0,1.858-0.173,2.686-0.518v0.898
			C492.901,102.051,492.013,102.217,490.912,102.217z"/>
		<path fill="#808184" d="M504.955,96.699c0,1.731-0.42,3.084-1.26,4.058s-1.999,1.46-3.477,1.46c-0.931,0-1.751-0.225-2.461-0.674
			s-1.253-1.094-1.631-1.934s-0.566-1.81-0.566-2.91c0-1.731,0.42-3.081,1.26-4.048s1.992-1.45,3.457-1.45
			c1.458,0,2.603,0.49,3.433,1.47S504.955,94.993,504.955,96.699z M496.576,96.699c0,1.458,0.32,2.596,0.962,3.413
			s1.548,1.226,2.72,1.226s2.078-0.408,2.72-1.226s0.962-1.955,0.962-3.413c0-1.465-0.324-2.601-0.972-3.408
			s-1.558-1.211-2.729-1.211s-2.075,0.402-2.71,1.206S496.576,95.228,496.576,96.699z"/>
		<path fill="#808184" d="M515.297,102.022v-6.885c0-1.067-0.225-1.844-0.674-2.329s-1.146-0.728-2.09-0.728
			c-1.27,0-2.199,0.32-2.788,0.962s-0.884,1.682-0.884,3.12v5.859h-0.967V91.406h0.82l0.186,1.455h0.059
			c0.69-1.106,1.917-1.66,3.682-1.66c2.409,0,3.613,1.292,3.613,3.877v6.943H515.297z"/>
		<path fill="#808184" d="M522.494,101.358c0.612,0,1.146-0.052,1.602-0.156v0.781c-0.469,0.156-1.009,0.234-1.621,0.234
			c-0.938,0-1.629-0.251-2.075-0.752s-0.669-1.289-0.669-2.363v-6.855h-1.572V91.68l1.572-0.439l0.488-2.402h0.498v2.568h3.115v0.84
			h-3.115v6.719c0,0.813,0.144,1.416,0.43,1.807S521.882,101.358,522.494,101.358z"/>
		<path fill="#808184" d="M530.57,91.201c0.449,0,0.931,0.046,1.445,0.137l-0.186,0.928c-0.442-0.11-0.901-0.166-1.377-0.166
			c-0.905,0-1.647,0.384-2.227,1.152s-0.869,1.738-0.869,2.91v5.859h-0.967V91.406h0.82l0.098,1.914h0.068
			c0.437-0.781,0.901-1.33,1.396-1.646S529.867,91.201,530.57,91.201z"/>
		<path fill="#808184" d="M534.037,88.457c0-0.625,0.205-0.938,0.615-0.938c0.202,0,0.359,0.081,0.474,0.244
			s0.171,0.394,0.171,0.693c0,0.293-0.057,0.524-0.171,0.693s-0.271,0.254-0.474,0.254
			C534.242,89.404,534.037,89.089,534.037,88.457z M535.141,102.022h-0.967V91.406h0.967V102.022z"/>
		<path fill="#808184" d="M543.178,91.201c1.484,0,2.603,0.467,3.354,1.401s1.128,2.3,1.128,4.097c0,1.765-0.396,3.125-1.187,4.082
			s-1.902,1.436-3.335,1.436c-0.755,0-1.436-0.156-2.041-0.469s-1.084-0.755-1.436-1.328h-0.088l-0.273,1.602h-0.605V86.826h0.967
			v3.818c0,0.573-0.013,1.101-0.039,1.582l-0.029,0.83h0.068c0.403-0.638,0.891-1.106,1.46-1.406S542.377,91.201,543.178,91.201z
			 M543.158,92.08c-1.25,0-2.146,0.358-2.686,1.074s-0.811,1.897-0.811,3.545v0.166c0,1.602,0.281,2.751,0.845,3.447
			s1.44,1.045,2.632,1.045c1.159,0,2.031-0.405,2.617-1.216s0.879-1.965,0.879-3.462C546.635,93.613,545.476,92.08,543.158,92.08z"
			/>
		<path fill="#808184" d="M551.439,91.406v6.875c0,1.067,0.225,1.844,0.674,2.329s1.146,0.728,2.09,0.728
			c1.263,0,2.192-0.319,2.788-0.957s0.894-1.677,0.894-3.115v-5.859h0.957v10.615h-0.82l-0.176-1.465h-0.059
			c-0.69,1.106-1.917,1.66-3.682,1.66c-2.415,0-3.623-1.292-3.623-3.877v-6.934H551.439z"/>
		<path fill="#808184" d="M565.199,101.358c0.612,0,1.146-0.052,1.602-0.156v0.781c-0.469,0.156-1.009,0.234-1.621,0.234
			c-0.938,0-1.629-0.251-2.075-0.752s-0.669-1.289-0.669-2.363v-6.855h-1.572V91.68l1.572-0.439l0.488-2.402h0.498v2.568h3.115v0.84
			h-3.115v6.719c0,0.813,0.144,1.416,0.43,1.807S564.587,101.358,565.199,101.358z"/>
		<path fill="#808184" d="M568.959,88.457c0-0.625,0.205-0.938,0.615-0.938c0.202,0,0.359,0.081,0.474,0.244
			s0.171,0.394,0.171,0.693c0,0.293-0.057,0.524-0.171,0.693s-0.271,0.254-0.474,0.254
			C569.164,89.404,568.959,89.089,568.959,88.457z M570.063,102.022h-0.967V91.406h0.967V102.022z"/>
		<path fill="#808184" d="M582.396,96.699c0,1.731-0.42,3.084-1.26,4.058s-1.999,1.46-3.477,1.46c-0.931,0-1.751-0.225-2.461-0.674
			s-1.253-1.094-1.631-1.934s-0.566-1.81-0.566-2.91c0-1.731,0.42-3.081,1.26-4.048s1.992-1.45,3.457-1.45
			c1.458,0,2.603,0.49,3.433,1.47S582.396,94.993,582.396,96.699z M574.018,96.699c0,1.458,0.32,2.596,0.962,3.413
			s1.548,1.226,2.72,1.226s2.078-0.408,2.72-1.226s0.962-1.955,0.962-3.413c0-1.465-0.324-2.601-0.972-3.408
			s-1.558-1.211-2.729-1.211s-2.075,0.402-2.71,1.206S574.018,95.228,574.018,96.699z"/>
		<path fill="#808184" d="M592.738,102.022v-6.885c0-1.067-0.225-1.844-0.674-2.329s-1.146-0.728-2.09-0.728
			c-1.27,0-2.199,0.32-2.788,0.962s-0.884,1.682-0.884,3.12v5.859h-0.967V91.406h0.82l0.186,1.455h0.059
			c0.69-1.106,1.917-1.66,3.682-1.66c2.409,0,3.613,1.292,3.613,3.877v6.943H592.738z"/>
		<path fill="#808184" d="M605.131,101.358c0.612,0,1.146-0.052,1.602-0.156v0.781c-0.469,0.156-1.009,0.234-1.621,0.234
			c-0.938,0-1.629-0.251-2.075-0.752s-0.669-1.289-0.669-2.363v-6.855h-1.572V91.68l1.572-0.439l0.488-2.402h0.498v2.568h3.115v0.84
			h-3.115v6.719c0,0.813,0.144,1.416,0.43,1.807S604.519,101.358,605.131,101.358z"/>
		<path fill="#808184" d="M617.807,96.699c0,1.731-0.42,3.084-1.26,4.058s-1.999,1.46-3.477,1.46c-0.931,0-1.751-0.225-2.461-0.674
			s-1.253-1.094-1.631-1.934s-0.566-1.81-0.566-2.91c0-1.731,0.42-3.081,1.26-4.048s1.992-1.45,3.457-1.45
			c1.458,0,2.603,0.49,3.433,1.47S617.807,94.993,617.807,96.699z M609.428,96.699c0,1.458,0.32,2.596,0.962,3.413
			s1.548,1.226,2.72,1.226s2.078-0.408,2.72-1.226s0.962-1.955,0.962-3.413c0-1.465-0.324-2.601-0.972-3.408
			s-1.558-1.211-2.729-1.211s-2.075,0.402-2.71,1.206S609.428,95.228,609.428,96.699z"/>
	</g>
	<g enable-background="new    ">
		<path fill="#808184" d="M38.49,125.358c0.612,0,1.146-0.052,1.602-0.156v0.781c-0.469,0.156-1.009,0.234-1.621,0.234
			c-0.938,0-1.629-0.251-2.075-0.752s-0.669-1.289-0.669-2.363v-6.855h-1.572v-0.566l1.572-0.439l0.488-2.402h0.498v2.568h3.115
			v0.84h-3.115v6.719c0,0.813,0.143,1.416,0.43,1.807S37.878,125.358,38.49,125.358z"/>
		<path fill="#808184" d="M49.789,126.022v-6.885c0-1.067-0.225-1.844-0.674-2.329s-1.146-0.728-2.09-0.728
			c-1.27,0-2.199,0.32-2.788,0.962s-0.884,1.682-0.884,3.12v5.859h-0.967v-15.195h0.967v4.834l-0.049,1.357h0.068
			c0.397-0.638,0.898-1.101,1.504-1.387s1.357-0.43,2.256-0.43c2.409,0,3.613,1.292,3.613,3.877v6.943H49.789z"/>
		<path fill="#808184" d="M58.471,126.217c-1.543,0-2.746-0.476-3.608-1.426s-1.294-2.282-1.294-3.994
			c0-1.692,0.417-3.049,1.25-4.067s1.957-1.528,3.369-1.528c1.25,0,2.236,0.437,2.959,1.309s1.084,2.058,1.084,3.555v0.781h-7.646
			c0.013,1.458,0.353,2.571,1.021,3.34s1.623,1.152,2.866,1.152c0.605,0,1.138-0.042,1.597-0.127s1.04-0.267,1.743-0.547v0.879
			c-0.599,0.261-1.152,0.438-1.66,0.532S59.083,126.217,58.471,126.217z M58.188,116.061c-1.022,0-1.842,0.337-2.461,1.011
			s-0.98,1.646-1.084,2.915h6.563c0-1.23-0.267-2.192-0.801-2.886S59.131,116.061,58.188,116.061z"/>
		<path fill="#808184" d="M77.758,126.022v-6.885c0-1.067-0.225-1.844-0.674-2.329s-1.146-0.728-2.09-0.728
			c-1.27,0-2.199,0.32-2.788,0.962s-0.884,1.682-0.884,3.12v5.859h-0.967v-10.615h0.82l0.186,1.455h0.059
			c0.69-1.106,1.917-1.66,3.682-1.66c2.409,0,3.613,1.292,3.613,3.877v6.943H77.758z"/>
		<path fill="#808184" d="M88.598,126.022l-0.244-1.68h-0.078c-0.534,0.684-1.083,1.167-1.646,1.45s-1.229,0.425-1.997,0.425
			c-1.042,0-1.852-0.267-2.432-0.801s-0.869-1.272-0.869-2.217c0-1.035,0.431-1.839,1.294-2.412s2.111-0.876,3.745-0.908
			l2.021-0.059v-0.703c0-1.009-0.205-1.771-0.615-2.285s-1.071-0.771-1.982-0.771c-0.983,0-2.002,0.273-3.057,0.82l-0.361-0.84
			c1.166-0.547,2.318-0.82,3.457-0.82c1.166,0,2.036,0.303,2.612,0.908s0.864,1.55,0.864,2.832v7.061H88.598z M84.691,125.338
			c1.133,0,2.026-0.324,2.681-0.972s0.981-1.548,0.981-2.7v-1.045l-1.855,0.078c-1.491,0.071-2.554,0.305-3.188,0.698
			s-0.952,1.008-0.952,1.841c0,0.664,0.204,1.18,0.61,1.548S83.949,125.338,84.691,125.338z"/>
		<path fill="#808184" d="M95.551,125.358c0.612,0,1.146-0.052,1.602-0.156v0.781c-0.469,0.156-1.009,0.234-1.621,0.234
			c-0.938,0-1.629-0.251-2.075-0.752s-0.669-1.289-0.669-2.363v-6.855h-1.572v-0.566l1.572-0.439l0.488-2.402h0.498v2.568h3.115
			v0.84h-3.115v6.719c0,0.813,0.143,1.416,0.43,1.807S94.939,125.358,95.551,125.358z"/>
		<path fill="#808184" d="M99.311,112.457c0-0.625,0.205-0.938,0.615-0.938c0.202,0,0.36,0.081,0.474,0.244s0.171,0.394,0.171,0.693
			c0,0.293-0.057,0.524-0.171,0.693s-0.272,0.254-0.474,0.254C99.516,113.404,99.311,113.089,99.311,112.457z M100.414,126.022
			h-0.967v-10.615h0.967V126.022z"/>
		<path fill="#808184" d="M112.748,120.699c0,1.731-0.42,3.084-1.26,4.058s-1.999,1.46-3.477,1.46c-0.931,0-1.751-0.225-2.461-0.674
			s-1.253-1.094-1.631-1.934s-0.566-1.81-0.566-2.91c0-1.731,0.42-3.081,1.26-4.048s1.992-1.45,3.457-1.45
			c1.458,0,2.603,0.49,3.433,1.47S112.748,118.993,112.748,120.699z M104.369,120.699c0,1.458,0.321,2.596,0.962,3.413
			s1.548,1.226,2.72,1.226s2.079-0.408,2.72-1.226s0.962-1.955,0.962-3.413c0-1.465-0.324-2.601-0.972-3.408
			s-1.558-1.211-2.729-1.211s-2.075,0.402-2.71,1.206S104.369,119.228,104.369,120.699z"/>
		<path fill="#808184" d="M123.09,126.022v-6.885c0-1.067-0.225-1.844-0.674-2.329s-1.146-0.728-2.09-0.728
			c-1.27,0-2.199,0.32-2.788,0.962s-0.884,1.682-0.884,3.12v5.859h-0.967v-10.615h0.82l0.186,1.455h0.059
			c0.69-1.106,1.917-1.66,3.682-1.66c2.409,0,3.613,1.292,3.613,3.877v6.943H123.09z"/>
		<path fill="#808184" d="M128.207,111.744l0.117,0.195c-0.488,1.726-1.055,3.291-1.699,4.697h-0.635
			c0.189-0.625,0.387-1.411,0.596-2.358s0.368-1.792,0.479-2.534H128.207z"/>
		<path fill="#808184" d="M136.967,123.258c0,0.95-0.361,1.682-1.084,2.192s-1.748,0.767-3.076,0.767
			c-1.419,0-2.545-0.218-3.379-0.654v-1.045c1.068,0.534,2.194,0.801,3.379,0.801c1.048,0,1.844-0.174,2.388-0.522
			s0.815-0.813,0.815-1.392c0-0.534-0.216-0.983-0.649-1.348s-1.144-0.723-2.134-1.074c-1.061-0.384-1.807-0.715-2.236-0.991
			s-0.753-0.589-0.972-0.938s-0.327-0.773-0.327-1.274c0-0.794,0.333-1.423,1.001-1.885s1.6-0.693,2.798-0.693
			c1.146,0,2.233,0.215,3.262,0.645l-0.361,0.879c-1.042-0.43-2.008-0.645-2.9-0.645c-0.866,0-1.553,0.144-2.061,0.43
			s-0.762,0.684-0.762,1.191c0,0.554,0.197,0.996,0.591,1.328s1.164,0.703,2.31,1.113c0.957,0.345,1.654,0.656,2.09,0.933
			s0.763,0.591,0.981,0.942S136.967,122.782,136.967,123.258z"/>
		<path fill="#808184" d="M153.178,115.406v0.674l-2.197,0.137c0.586,0.729,0.879,1.53,0.879,2.402c0,1.022-0.34,1.851-1.021,2.485
			s-1.593,0.952-2.739,0.952c-0.482,0-0.82-0.02-1.016-0.059c-0.384,0.202-0.677,0.439-0.879,0.713s-0.303,0.563-0.303,0.869
			c0,0.339,0.128,0.586,0.386,0.742s0.688,0.234,1.294,0.234h1.855c1.152,0,2.035,0.232,2.646,0.698s0.918,1.154,0.918,2.065
			c0,1.12-0.454,1.984-1.362,2.593s-2.202,0.913-3.882,0.913c-1.334,0-2.368-0.257-3.101-0.771s-1.099-1.23-1.099-2.148
			c0-0.729,0.226-1.335,0.679-1.816s1.066-0.811,1.841-0.986c-0.319-0.137-0.575-0.33-0.767-0.581s-0.288-0.539-0.288-0.864
			c0-0.71,0.453-1.335,1.357-1.875c-0.619-0.254-1.1-0.652-1.445-1.196s-0.518-1.167-0.518-1.87c0-1.062,0.337-1.912,1.011-2.554
			s1.583-0.962,2.729-0.962c0.697,0,1.237,0.068,1.621,0.205H153.178z M144.584,127.818c0,1.458,1.084,2.188,3.252,2.188
			c2.787,0,4.18-0.889,4.18-2.666c0-0.638-0.218-1.101-0.654-1.387s-1.143-0.43-2.119-0.43h-1.738
			C145.557,125.524,144.584,126.288,144.584,127.818z M145.395,118.717c0,0.82,0.249,1.457,0.747,1.909s1.164,0.679,1.997,0.679
			c0.885,0,1.564-0.225,2.036-0.674s0.708-1.101,0.708-1.953c0-0.905-0.243-1.584-0.728-2.036s-1.164-0.679-2.036-0.679
			c-0.846,0-1.512,0.242-1.997,0.728S145.395,117.851,145.395,118.717z"/>
		<path fill="#808184" d="M159.535,115.201c0.449,0,0.931,0.046,1.445,0.137l-0.186,0.928c-0.443-0.11-0.902-0.166-1.377-0.166
			c-0.905,0-1.647,0.384-2.227,1.152s-0.869,1.738-0.869,2.91v5.859h-0.967v-10.615h0.82l0.098,1.914h0.068
			c0.436-0.781,0.902-1.33,1.396-1.646S158.832,115.201,159.535,115.201z"/>
		<path fill="#808184" d="M171.918,120.699c0,1.731-0.42,3.084-1.26,4.058s-1.999,1.46-3.477,1.46c-0.931,0-1.751-0.225-2.461-0.674
			s-1.253-1.094-1.631-1.934s-0.566-1.81-0.566-2.91c0-1.731,0.42-3.081,1.26-4.048s1.992-1.45,3.457-1.45
			c1.458,0,2.603,0.49,3.433,1.47S171.918,118.993,171.918,120.699z M163.539,120.699c0,1.458,0.321,2.596,0.962,3.413
			s1.548,1.226,2.72,1.226s2.079-0.408,2.72-1.226s0.962-1.955,0.962-3.413c0-1.465-0.324-2.601-0.972-3.408
			s-1.558-1.211-2.729-1.211s-2.075,0.402-2.71,1.206S163.539,119.228,163.539,120.699z"/>
		<path fill="#808184" d="M181.439,123.258c0,0.95-0.361,1.682-1.084,2.192s-1.748,0.767-3.076,0.767
			c-1.419,0-2.545-0.218-3.379-0.654v-1.045c1.068,0.534,2.194,0.801,3.379,0.801c1.048,0,1.844-0.174,2.388-0.522
			s0.815-0.813,0.815-1.392c0-0.534-0.216-0.983-0.649-1.348s-1.144-0.723-2.134-1.074c-1.061-0.384-1.807-0.715-2.236-0.991
			s-0.753-0.589-0.972-0.938s-0.327-0.773-0.327-1.274c0-0.794,0.333-1.423,1.001-1.885s1.6-0.693,2.798-0.693
			c1.146,0,2.233,0.215,3.262,0.645l-0.361,0.879c-1.042-0.43-2.008-0.645-2.9-0.645c-0.866,0-1.553,0.144-2.061,0.43
			s-0.762,0.684-0.762,1.191c0,0.554,0.197,0.996,0.591,1.328s1.164,0.703,2.31,1.113c0.957,0.345,1.654,0.656,2.09,0.933
			s0.763,0.591,0.981,0.942S181.439,122.782,181.439,123.258z"/>
		<path fill="#808184" d="M190.756,123.258c0,0.95-0.361,1.682-1.084,2.192s-1.748,0.767-3.076,0.767
			c-1.419,0-2.545-0.218-3.379-0.654v-1.045c1.068,0.534,2.194,0.801,3.379,0.801c1.048,0,1.844-0.174,2.388-0.522
			s0.815-0.813,0.815-1.392c0-0.534-0.216-0.983-0.649-1.348s-1.144-0.723-2.134-1.074c-1.061-0.384-1.807-0.715-2.236-0.991
			s-0.753-0.589-0.972-0.938s-0.327-0.773-0.327-1.274c0-0.794,0.333-1.423,1.001-1.885s1.6-0.693,2.798-0.693
			c1.146,0,2.233,0.215,3.262,0.645l-0.361,0.879c-1.042-0.43-2.008-0.645-2.9-0.645c-0.866,0-1.553,0.144-2.061,0.43
			s-0.762,0.684-0.762,1.191c0,0.554,0.197,0.996,0.591,1.328s1.164,0.703,2.31,1.113c0.957,0.345,1.654,0.656,2.09,0.933
			s0.763,0.591,0.981,0.942S190.756,122.782,190.756,123.258z"/>
		<path fill="#808184" d="M207.465,120.699c0,1.731-0.42,3.084-1.26,4.058s-1.999,1.46-3.477,1.46c-0.931,0-1.751-0.225-2.461-0.674
			s-1.253-1.094-1.631-1.934s-0.566-1.81-0.566-2.91c0-1.731,0.42-3.081,1.26-4.048s1.992-1.45,3.457-1.45
			c1.458,0,2.603,0.49,3.433,1.47S207.465,118.993,207.465,120.699z M199.086,120.699c0,1.458,0.321,2.596,0.962,3.413
			s1.548,1.226,2.72,1.226s2.079-0.408,2.72-1.226s0.962-1.955,0.962-3.413c0-1.465-0.324-2.601-0.972-3.408
			s-1.558-1.211-2.729-1.211s-2.075,0.402-2.71,1.206S199.086,119.228,199.086,120.699z"/>
		<path fill="#808184" d="M211.244,115.406v6.875c0,1.067,0.225,1.844,0.674,2.329s1.146,0.728,2.09,0.728
			c1.263,0,2.192-0.319,2.788-0.957s0.894-1.677,0.894-3.115v-5.859h0.957v10.615h-0.82l-0.176-1.465h-0.059
			c-0.69,1.106-1.917,1.66-3.682,1.66c-2.416,0-3.623-1.292-3.623-3.877v-6.934H211.244z"/>
		<path fill="#808184" d="M225.004,125.358c0.612,0,1.146-0.052,1.602-0.156v0.781c-0.469,0.156-1.009,0.234-1.621,0.234
			c-0.938,0-1.629-0.251-2.075-0.752s-0.669-1.289-0.669-2.363v-6.855h-1.572v-0.566l1.572-0.439l0.488-2.402h0.498v2.568h3.115
			v0.84h-3.115v6.719c0,0.813,0.143,1.416,0.43,1.807S224.392,125.358,225.004,125.358z"/>
		<path fill="#808184" d="M233.441,126.217c-1.634,0-2.826-0.612-3.574-1.836h-0.068l0.029,0.82
			c0.026,0.481,0.039,1.009,0.039,1.582v4.043H228.9v-15.42h0.82l0.186,1.514h0.059c0.729-1.146,1.895-1.719,3.496-1.719
			c1.432,0,2.524,0.471,3.276,1.411s1.128,2.31,1.128,4.106c0,1.745-0.396,3.098-1.187,4.058S234.809,126.217,233.441,126.217z
			 M233.422,125.358c1.087,0,1.929-0.403,2.524-1.211s0.894-1.937,0.894-3.389c0-3.118-1.126-4.678-3.379-4.678
			c-1.237,0-2.145,0.34-2.725,1.021s-0.869,1.789-0.869,3.325v0.313c0,1.66,0.278,2.845,0.835,3.555
			S232.166,125.358,233.422,125.358z"/>
		<path fill="#808184" d="M241.645,115.406v6.875c0,1.067,0.225,1.844,0.674,2.329s1.146,0.728,2.09,0.728
			c1.263,0,2.192-0.319,2.788-0.957s0.894-1.677,0.894-3.115v-5.859h0.957v10.615h-0.82l-0.176-1.465h-0.059
			c-0.69,1.106-1.917,1.66-3.682,1.66c-2.416,0-3.623-1.292-3.623-3.877v-6.934H241.645z"/>
		<path fill="#808184" d="M255.404,125.358c0.612,0,1.146-0.052,1.602-0.156v0.781c-0.469,0.156-1.009,0.234-1.621,0.234
			c-0.938,0-1.629-0.251-2.075-0.752s-0.669-1.289-0.669-2.363v-6.855h-1.572v-0.566l1.572-0.439l0.488-2.402h0.498v2.568h3.115
			v0.84h-3.115v6.719c0,0.813,0.143,1.416,0.43,1.807S254.792,125.358,255.404,125.358z"/>
		<path fill="#808184" d="M259.105,125.26c0-0.638,0.26-0.957,0.781-0.957c0.534,0,0.801,0.319,0.801,0.957
			s-0.267,0.957-0.801,0.957C259.366,126.217,259.105,125.898,259.105,125.26z"/>
	</g>
</g>
<g>
	<path fill="#FFFFFF" d="M264.791,413.448c-5.068-0.249-9.951-1.478-14.649-3.683v-12.48c2.684,1.48,5.6,2.713,8.748,3.703
		c3.147,0.99,5.913,1.484,8.297,1.484c1.967,0,3.407-0.256,4.322-0.771c0.915-0.513,1.371-1.372,1.371-2.574
		c0-0.827-0.33-1.528-0.989-2.106c-0.66-0.576-1.759-1.227-3.298-1.955c-1.539-0.727-3.617-1.603-6.231-2.631
		c-2.939-1.177-5.311-2.501-7.116-3.966c-1.805-1.466-3.118-3.108-3.94-4.925s-1.232-4.078-1.232-6.785
		c0-4.135,1.226-7.368,3.68-9.698c2.453-2.331,6.133-3.772,11.039-4.323v-5.15h7.186v5.075c4.605,0.275,9.245,1.503,13.921,3.683
		l-4.132,10.713c-4.837-2.355-9.199-3.533-13.087-3.533c-1.852,0-3.153,0.245-3.906,0.733c-0.753,0.488-1.128,1.21-1.128,2.161
		c0,0.827,0.272,1.51,0.817,2.048c0.543,0.539,1.487,1.141,2.828,1.804c1.342,0.664,3.206,1.435,5.589,2.312
		c4.836,1.855,8.308,3.966,10.415,6.334c2.106,2.368,3.158,5.418,3.158,9.153c0,4.21-1.232,7.631-3.697,10.262
		c-2.465,2.632-6.058,4.261-10.779,4.887v7.254h-7.186v-7.029H264.791z"/>
	<path fill="#FFFFFF" d="M329.755,372.964c0,3.409-0.96,6.334-2.882,8.777c-1.921,2.444-4.698,4.217-8.332,5.32v0.226
		c8.471,1.152,12.705,5.488,12.705,13.006c0,5.113-1.869,9.134-5.606,12.066c-3.738,2.931-8.928,4.398-15.569,4.398
		c-2.731,0-5.26-0.214-7.585-0.64c-2.327-0.425-4.843-1.203-7.551-2.331v-12.329c2.221,1.228,4.483,2.136,6.786,2.725
		c2.303,0.589,4.426,0.883,6.369,0.883c3.009,0,5.202-0.457,6.578-1.372c1.376-0.915,2.066-2.35,2.066-4.305
		c0-1.503-0.359-2.662-1.077-3.476c-0.718-0.815-1.875-1.428-3.471-1.842c-1.597-0.414-3.681-0.621-6.249-0.621h-3.124v-11.164
		h3.193c6.966,0,10.449-1.929,10.449-5.789c0-1.454-0.515-2.531-1.544-3.233c-1.03-0.702-2.413-1.052-4.148-1.052
		c-3.24,0-6.596,1.178-10.068,3.533l-5.693-9.924c2.684-2.005,5.433-3.433,8.245-4.285c2.812-0.852,6.035-1.279,9.668-1.279
		c5.253,0,9.373,1.128,12.358,3.384C328.263,365.897,329.755,369.004,329.755,372.964z"/>
	<path fill="#FFFFFF" d="M340.704,409.764c0-2.305,0.63-4.085,1.892-5.338c1.261-1.253,3.094-1.879,5.502-1.879
		c2.291,0,4.049,0.626,5.276,1.879c1.227,1.253,1.84,3.033,1.84,5.338c0,2.256-0.63,4.016-1.891,5.282
		c-1.262,1.265-3.003,1.898-5.224,1.898c-2.292,0-4.097-0.626-5.415-1.879C341.364,413.812,340.704,412.045,340.704,409.764z"/>
	<path fill="#FFFFFF" d="M384.875,379.993c2.916,0,5.548,0.733,7.898,2.199c2.348,1.465,4.177,3.539,5.485,6.221
		c1.307,2.682,1.961,5.776,1.961,9.285c0,6.141-1.706,10.851-5.12,14.134c-3.414,3.284-8.581,4.925-15.5,4.925
		c-5.924,0-10.761-0.99-14.511-2.97v-12.179c2.014,1.003,4.287,1.83,6.821,2.482c2.534,0.651,4.715,0.977,6.544,0.977
		c2.545,0,4.501-0.582,5.866-1.748c1.366-1.166,2.048-2.888,2.048-5.169c0-2.105-0.694-3.745-2.083-4.924
		c-1.389-1.177-3.495-1.767-6.318-1.767c-2.152,0-4.479,0.439-6.978,1.316l-5.034-2.707l1.91-29.021h28.952v12.368h-17.288
		l-0.625,7.255c1.805-0.376,3.09-0.583,3.853-0.621C383.521,380.011,384.227,379.993,384.875,379.993z"/>
</g>
<path fill="#C73A22" d="M620.878,51.852c0,3.905-4.988,7.07-11.14,7.07H36.374c-6.153,0-11.14-3.165-11.14-7.07V20.04
	c0-3.905,4.988-7.07,11.14-7.07h573.364c6.153,0,11.14,3.165,11.14,7.07L620.878,51.852L620.878,51.852z"/>
<line fill="none" stroke="#FFFFFF" stroke-width="8" stroke-miterlimit="10" x1="60.335" y1="35.946" x2="585.776" y2="35.946"/>
<circle fill="#D58C84" cx="60.335" cy="35.946" r="10.214"/>
<circle fill="#FFFFFF" cx="323.056" cy="35.946" r="10.214"/>
<circle fill="#FFFFFF" cx="585.776" cy="35.946" r="10.214"/>
<circle fill="#D58C84" cx="191.695" cy="35.946" r="10.214"/>
<circle fill="#FFFFFF" cx="454.416" cy="35.946" r="10.214"/>
<line fill="none" stroke="#D58C84" stroke-width="8" stroke-miterlimit="10" x1="60.335" y1="35.946" x2="266.425" y2="35.946"/>
<line fill="none" stroke="#5D5D5D" stroke-width="7" stroke-miterlimit="10" x1="279.805" y1="242.095" x2="319.305" y2="224.095"/>
<g>
	<path fill="#FFFFFF" d="M259.722,337.611h-5.82l-1.999,5.055h-1.107l5.761-14.383h0.637l5.643,14.383h-1.127L259.722,337.611z
		 M254.265,336.709h5.124l-1.95-5.163c-0.163-0.405-0.359-0.967-0.588-1.685c-0.176,0.627-0.369,1.195-0.578,1.705L254.265,336.709z
		"/>
	<path fill="#FFFFFF" d="M273.488,332.457c0,1.385-0.47,2.446-1.411,3.184s-2.273,1.107-3.997,1.107h-2.214v5.918h-0.999v-14.324
		h3.507C271.783,328.342,273.488,329.714,273.488,332.457z M265.865,335.886h1.969c1.613,0,2.779-0.266,3.498-0.798
		c0.719-0.532,1.078-1.396,1.078-2.591c0-1.104-0.34-1.922-1.019-2.454c-0.679-0.532-1.731-0.798-3.155-0.798h-2.371V335.886z"/>
	<path fill="#FFFFFF" d="M285.225,332.457c0,1.385-0.47,2.446-1.411,3.184s-2.273,1.107-3.997,1.107h-2.214v5.918h-0.999v-14.324
		h3.508C283.52,328.342,285.225,329.714,285.225,332.457z M277.603,335.886h1.969c1.613,0,2.779-0.266,3.498-0.798
		s1.078-1.396,1.078-2.591c0-1.104-0.34-1.922-1.019-2.454c-0.679-0.532-1.731-0.798-3.155-0.798h-2.371V335.886z"/>
	<path fill="#FFFFFF" d="M289.34,336.425v6.241h-0.999v-14.324h3.41c1.777,0,3.089,0.328,3.939,0.985
		c0.849,0.656,1.274,1.644,1.274,2.964c0,0.96-0.253,1.77-0.759,2.43s-1.275,1.133-2.307,1.421l3.89,6.525h-1.195l-3.694-6.241
		H289.34z M289.34,335.563h2.733c1.208,0,2.146-0.269,2.812-0.808c0.666-0.539,0.999-1.334,0.999-2.386
		c0-1.091-0.327-1.884-0.98-2.381c-0.653-0.496-1.718-0.745-3.194-0.745h-2.371V335.563z"/>
	<path fill="#FFFFFF" d="M312.305,335.485c0,2.273-0.568,4.071-1.705,5.394s-2.704,1.984-4.703,1.984
		c-1.992,0-3.556-0.661-4.693-1.984s-1.705-3.127-1.705-5.413c0-2.28,0.573-4.074,1.719-5.384c1.146-1.31,2.712-1.964,4.698-1.964
		c1.999,0,3.563,0.658,4.693,1.974C311.74,331.407,312.305,333.205,312.305,335.485z M300.587,335.485
		c0,2.051,0.457,3.637,1.372,4.757s2.227,1.68,3.939,1.68c1.724,0,3.042-0.555,3.953-1.666s1.367-2.701,1.367-4.771
		c0-2.064-0.456-3.646-1.367-4.747c-0.911-1.101-2.222-1.651-3.934-1.651c-1.705,0-3.019,0.555-3.943,1.666
		S300.587,333.44,300.587,335.485z"/>
	<path fill="#FFFFFF" d="M324.366,342.666h-1.146l-4.233-6.682l-4.311,6.682h-1.107l4.82-7.466l-4.379-6.858h1.127l3.87,6.133
		l3.929-6.133h1.068l-4.438,6.839L324.366,342.666z"/>
	<path fill="#FFFFFF" d="M326.394,342.666v-14.324h0.999v14.324H326.394z"/>
	<path fill="#FFFFFF" d="M337.749,342.666l-5.34-13.227h-0.078c0.052,0.81,0.078,1.639,0.078,2.489v10.738h-0.96v-14.324h1.548
		l5.075,12.6h0.059l5.075-12.6h1.509v14.324h-1.009v-10.856c0-0.758,0.039-1.541,0.118-2.351h-0.078l-5.359,13.207H337.749z"/>
	<path fill="#FFFFFF" d="M355.659,337.611h-5.82l-1.999,5.055h-1.107l5.761-14.383h0.637l5.643,14.383h-1.127L355.659,337.611z
		 M350.202,336.709h5.124l-1.95-5.163c-0.163-0.405-0.359-0.967-0.588-1.685c-0.176,0.627-0.369,1.195-0.578,1.705L350.202,336.709z
		"/>
	<path fill="#FFFFFF" d="M364.536,342.666h-1.009v-13.383h-4.654v-0.941h10.317v0.941h-4.654V342.666z"/>
	<path fill="#FFFFFF" d="M379.144,342.666h-7.828v-14.324h7.828v0.921h-6.829v5.418h6.447v0.921h-6.447v6.143h6.829V342.666z"/>
	<path fill="#FFFFFF" d="M382.387,342.666v-14.324h0.999v13.383h6.829v0.941H382.387z"/>
	<path fill="#FFFFFF" d="M395.976,336.18l4.193-7.838h1.078l-4.771,8.788v5.536h-1.029v-5.457l-4.791-8.867h1.146L395.976,336.18z"
		/>
</g>
<g>
	<path fill="#FFFFFF" d="M258.451,449.866h-3.027v-11.758h-3.877v-2.52h10.781v2.52h-3.877V449.866z"/>
	<path fill="#FFFFFF" d="M275.552,444.388v5.479h-3.027v-14.277h4.16c1.94,0,3.376,0.354,4.307,1.06s1.396,1.779,1.396,3.218
		c0,0.84-0.231,1.587-0.693,2.241s-1.116,1.167-1.963,1.538c2.148,3.21,3.548,5.283,4.199,6.221h-3.359l-3.408-5.479H275.552z
		 M275.552,441.927h0.977c0.957,0,1.663-0.159,2.119-0.479s0.684-0.82,0.684-1.504c0-0.677-0.232-1.159-0.698-1.445
		s-1.187-0.43-2.163-0.43h-0.918V441.927z"/>
	<path fill="#FFFFFF" d="M293.728,449.866v-14.277h3.027v14.277H293.728z"/>
	<path fill="#FFFFFF" d="M308.349,449.866v-14.277h3.027v11.777h5.791v2.5H308.349z"/>
	<path fill="#FFFFFF" d="M327.647,449.866v-14.277h3.027v11.777h5.791v2.5H327.647z"/>
	<path fill="#FFFFFF" d="M346.946,449.866v-14.277h3.027v14.277H346.946z"/>
	<path fill="#FFFFFF" d="M374.526,442.708c0,2.363-0.586,4.18-1.758,5.449s-2.852,1.904-5.039,1.904s-3.867-0.635-5.039-1.904
		s-1.758-3.093-1.758-5.469s0.588-4.191,1.763-5.444s2.859-1.88,5.054-1.88s3.872,0.632,5.034,1.895
		S374.526,440.338,374.526,442.708z M364.106,442.708c0,1.595,0.303,2.796,0.908,3.604s1.511,1.211,2.715,1.211
		c2.415,0,3.623-1.604,3.623-4.814c0-3.216-1.201-4.824-3.604-4.824c-1.204,0-2.112,0.405-2.725,1.216
		S364.106,441.113,364.106,442.708z"/>
	<path fill="#FFFFFF" d="M398.151,449.866h-3.848l-6.211-10.801h-0.088c0.124,1.907,0.186,3.269,0.186,4.082v6.719h-2.705v-14.277
		h3.818l6.201,10.693h0.068c-0.098-1.855-0.146-3.167-0.146-3.936v-6.758h2.725V449.866z"/>
</g>
</svg>
