<?xml version="1.0" encoding="utf-8"?>
<!-- Generator: Adobe Illustrator 17.0.0, SVG Export Plug-In . SVG Version: 6.00 Build 0)  -->
<!DOCTYPE svg PUBLIC "-//W3C//DTD SVG 1.1//EN" "http://www.w3.org/Graphics/SVG/1.1/DTD/svg11.dtd">
<svg version="1.1" id="Layer_1" xmlns="http://www.w3.org/2000/svg" xmlns:xlink="http://www.w3.org/1999/xlink" x="0px" y="0px"
	 width="640px" height="544.846px" viewBox="0 0 640 544.846" enable-background="new 0 0 640 544.846" xml:space="preserve">
<path fill="#C73A22" d="M592.747,49.868c0,3.576-4.568,6.475-10.202,6.475H57.455c-5.635,0-10.202-2.899-10.202-6.475V20.734
	c0-3.576,4.568-6.475,10.202-6.475h525.089c5.635,0,10.202,2.899,10.202,6.475L592.747,49.868L592.747,49.868z"/>
<line fill="none" stroke="#FFFFFF" stroke-width="1.7004" stroke-miterlimit="10" x1="79.399" y1="35.301" x2="560.601" y2="35.301"/>
<circle fill="#D48B83" cx="79.399" cy="35.301" r="9.354"/>
<circle fill="#D48B83" cx="320" cy="35.301" r="9.354"/>
<circle fill="#D48B83" cx="560.601" cy="35.301" r="9.354"/>
<circle fill="#D48B83" cx="199.7" cy="35.301" r="9.354"/>
<circle fill="#D48B83" cx="440.3" cy="35.301" r="9.354"/>
<line fill="none" stroke="#D48B83" stroke-width="6.8016" stroke-miterlimit="10" x1="79.399" y1="35.301" x2="560.601" y2="35.301"/>
<circle fill="#CCCF38" cx="310.498" cy="402.84" r="119.746"/>
<g>
	<path fill="#C43E27" d="M218.198,205.463c-1.336,0-2.542,0.482-3.618,1.447s-1.92,2.295-2.533,3.989
		c-0.611,1.695-0.918,3.532-0.918,5.511c0,1.658,0.346,2.895,1.039,3.711c0.692,0.816,1.688,1.225,2.987,1.225
		c1.026,0,2.065-0.126,3.117-0.38c1.051-0.253,2.288-0.683,3.711-1.29v5.993c-2.512,1.113-5.232,1.67-8.164,1.67
		c-3.217,0-5.693-0.918-7.431-2.755s-2.607-4.438-2.607-7.802c0-3.29,0.628-6.309,1.883-9.055c1.256-2.746,2.963-4.818,5.121-6.216
		c2.159-1.397,4.63-2.097,7.413-2.097c3.277,0,6.253,0.811,8.925,2.431l-2.746,5.659c-1.15-0.68-2.208-1.19-3.173-1.531
		C220.239,205.634,219.237,205.463,218.198,205.463z"/>
	<path fill="#C43E27" d="M235.436,227.339c-2.586,0-4.58-0.699-5.984-2.097c-1.403-1.397-2.105-3.396-2.105-5.993
		s0.492-4.945,1.475-7.042c0.984-2.097,2.366-3.726,4.147-4.889c1.781-1.163,3.859-1.744,6.234-1.744
		c2.585,0,4.58,0.699,5.983,2.097c1.404,1.398,2.106,3.396,2.106,5.993s-0.491,4.945-1.476,7.042
		c-0.982,2.097-2.365,3.727-4.146,4.889C239.889,226.758,237.811,227.339,235.436,227.339z M238.367,210.974
		c-1.015,0-1.883,0.863-2.607,2.588c-0.723,1.726-1.085,3.702-1.085,5.928c0,1.646,0.52,2.468,1.559,2.468
		c1.002,0,1.874-0.859,2.616-2.579c0.742-1.719,1.113-3.698,1.113-5.938c0-0.816-0.143-1.432-0.427-1.846
		C239.251,211.182,238.861,210.974,238.367,210.974z"/>
	<path fill="#C43E27" d="M260.818,226.968l2.431-11.708c0.186-1.113,0.278-1.861,0.278-2.245c0-1.163-0.445-1.744-1.336-1.744
		c-0.842,0-1.543,0.461-2.106,1.382c-0.563,0.922-1.042,2.286-1.438,4.091l-2.189,10.224h-7.181l4.435-21.022h5.733l-0.297,3.47
		h0.148c0.754-1.41,1.602-2.403,2.542-2.978c0.939-0.575,2.121-0.863,3.544-0.863c1.447,0,2.563,0.331,3.349,0.993
		s1.339,1.611,1.661,2.848h0.148c0.804-1.311,1.726-2.279,2.765-2.904s2.245-0.937,3.618-0.937c1.744,0,3.067,0.523,3.971,1.568
		c0.902,1.045,1.354,2.588,1.354,4.629c0,1.2-0.137,2.468-0.408,3.804l-2.319,11.393h-7.181l2.394-11.708
		c0.173-0.692,0.26-1.515,0.26-2.468c0-0.495-0.118-0.872-0.353-1.132c-0.235-0.26-0.551-0.39-0.946-0.39
		c-0.916,0-1.654,0.47-2.218,1.41c-0.563,0.94-1.036,2.344-1.419,4.212l-2.06,10.075L260.818,226.968L260.818,226.968z"/>
	<path fill="#C43E27" d="M296.109,227.339c-1.77,0-3.198-0.896-4.286-2.69h-0.148c-0.148,2.054-0.495,4.348-1.039,6.884
		l-0.946,4.564h-7.181l6.383-30.151h5.733l-0.223,2.356h0.148c1.188-1.818,2.783-2.728,4.787-2.728c1.93,0,3.444,0.69,4.546,2.069
		c1.101,1.379,1.651,3.275,1.651,5.687c0,2.511-0.434,4.877-1.299,7.097c-0.866,2.221-2.013,3.928-3.442,5.121
		C299.366,226.743,297.804,227.339,296.109,227.339z M296.61,211.345c-0.619,0-1.206,0.353-1.763,1.058s-0.999,1.658-1.327,2.857
		c-0.327,1.2-0.491,2.418-0.491,3.655c0,0.804,0.142,1.447,0.427,1.93c0.284,0.482,0.687,0.724,1.206,0.724
		c0.594,0,1.162-0.353,1.707-1.058c0.544-0.705,0.986-1.651,1.327-2.839c0.34-1.188,0.51-2.406,0.51-3.655
		C298.206,212.236,297.674,211.345,296.61,211.345z"/>
	<path fill="#C43E27" d="M314.701,226.968h-7.181l6.104-28.871h7.181L314.701,226.968z"/>
	<path fill="#C43E27" d="M329.322,227.339c-2.623,0-4.664-0.733-6.123-2.199c-1.46-1.466-2.189-3.503-2.189-6.114
		c0-2.61,0.517-4.963,1.549-7.06c1.033-2.097,2.449-3.686,4.25-4.769c1.799-1.082,3.88-1.624,6.243-1.624
		c2.35,0,4.199,0.532,5.548,1.596c1.348,1.064,2.022,2.48,2.022,4.249c0,2.486-0.968,4.395-2.903,5.724
		c-1.937,1.33-4.735,1.995-8.396,1.995h-1.095v0.297c0,1.831,1.014,2.746,3.043,2.746c0.977,0,1.936-0.145,2.876-0.436
		c0.939-0.291,2.01-0.751,3.21-1.382v5.084c-1.386,0.705-2.679,1.197-3.878,1.475C332.278,227.2,330.893,227.339,329.322,227.339z
		 M332.254,210.436c-0.755,0-1.46,0.43-2.115,1.29c-0.656,0.86-1.052,1.834-1.188,2.922h0.538c1.348,0,2.405-0.256,3.173-0.77
		c0.767-0.513,1.15-1.19,1.15-2.032c0-0.396-0.124-0.729-0.371-1.002C333.193,210.572,332.798,210.436,332.254,210.436z"/>
	<path fill="#C43E27" d="M351.978,221.569c0.816,0,1.948-0.291,3.396-0.872v5.399c-1.683,0.829-3.785,1.243-6.309,1.243
		c-1.831,0-3.219-0.393-4.166-1.178c-0.945-0.785-1.419-2.075-1.419-3.869c0-0.94,0.148-2.103,0.445-3.488l1.559-7.459h-2.857
		l0.761-3.525l4.045-1.633l2.542-4.453h4.787l-0.909,4.212h5.344l-1.169,5.399h-5.362l-1.559,7.106
		c-0.198,0.953-0.297,1.602-0.297,1.948C350.809,221.179,351.198,221.569,351.978,221.569z"/>
	<path fill="#C43E27" d="M368.695,227.339c-2.623,0-4.664-0.733-6.123-2.199c-1.46-1.466-2.189-3.503-2.189-6.114
		c0-2.61,0.517-4.963,1.549-7.06c1.033-2.097,2.449-3.686,4.25-4.769c1.799-1.082,3.88-1.624,6.243-1.624
		c2.35,0,4.199,0.532,5.548,1.596c1.348,1.064,2.022,2.48,2.022,4.249c0,2.486-0.968,4.395-2.903,5.724
		c-1.937,1.33-4.735,1.995-8.396,1.995h-1.095v0.297c0,1.831,1.014,2.746,3.043,2.746c0.977,0,1.936-0.145,2.876-0.436
		c0.939-0.291,2.01-0.751,3.21-1.382v5.084c-1.386,0.705-2.679,1.197-3.878,1.475C371.651,227.2,370.266,227.339,368.695,227.339z
		 M371.627,210.436c-0.755,0-1.46,0.43-2.115,1.29c-0.656,0.86-1.052,1.834-1.188,2.922h0.538c1.348,0,2.405-0.256,3.173-0.77
		c0.767-0.513,1.15-1.19,1.15-2.032c0-0.396-0.124-0.729-0.371-1.002C372.566,210.572,372.171,210.436,371.627,210.436z"/>
	<path fill="#C43E27" d="M391.703,205.575c0.928,0,1.707,0.189,2.338,0.566s1.317,1.129,2.06,2.254h0.148l0.037-0.687
		c0.086-1.707,0.241-3.049,0.464-4.026l1.15-5.585h7.255l-6.123,28.871h-5.733l0.186-2.282h-0.148
		c-0.705,0.978-1.447,1.664-2.227,2.06s-1.695,0.594-2.746,0.594c-1.955,0-3.439-0.689-4.453-2.069
		c-1.015-1.379-1.521-3.361-1.521-5.947c0-2.202,0.442-4.447,1.326-6.735c0.885-2.288,2.02-4.029,3.405-5.223
		C388.505,206.172,390.033,205.575,391.703,205.575z M391.313,221.569c0.618,0,1.209-0.362,1.772-1.085
		c0.563-0.724,1.011-1.691,1.345-2.904c0.334-1.212,0.501-2.399,0.501-3.563c0-1.781-0.495-2.672-1.484-2.672
		c-0.606,0-1.2,0.365-1.781,1.095c-0.582,0.73-1.052,1.692-1.41,2.885c-0.359,1.194-0.538,2.391-0.538,3.59
		C389.718,220.685,390.249,221.569,391.313,221.569z"/>
	<path fill="#C43E27" d="M404.005,224.612c0-1.323,0.401-2.375,1.206-3.154c0.804-0.779,1.911-1.169,3.321-1.169
		c1.076,0,1.902,0.25,2.477,0.751c0.576,0.501,0.863,1.209,0.863,2.125c0,1.361-0.393,2.412-1.178,3.154
		c-0.786,0.742-1.859,1.113-3.22,1.113c-1.089,0-1.938-0.238-2.552-0.714C404.312,226.242,404.005,225.54,404.005,224.612z
		 M412.188,217.394h-6.086l2.895-17.553h7.904L412.188,217.394z"/>
</g>
<path fill="#E33C3B" d="M252.588,409.881c0,0,41.222,87.215,91.674,75.348c0,0,26.899-7.014,18.837-116.79
	C363.098,368.439,310.982,351.486,252.588,409.881z"/>
<path fill="#29AD57" d="M253.806,412.336c0,0-16.639-12.69,3.46-18.781c0,0-10.354-34.708,23.753-20.095
	c0,0,10.963-20.675,23.754-4.858c0,0,24.972-44.481,34.108-9.764c0,0,17.983-18.398,24.218,9.601
	C363.098,368.439,293.59,361.552,253.806,412.336z"/>
<path d="M273.167,413.475c-0.407-0.128-0.762-0.017-1.001,0.247c-0.243-0.003-0.49,0.091-0.685,0.343
	c-0.855,1.104-2.143,2.928-1.137,4.323c0.749,1.039,2.306,0.839,3.353,0.494c1.102-0.364,2.267-1.168,2.496-2.376
	C276.517,414.799,274.447,413.878,273.167,413.475z"/>
<path d="M348.386,455.196c-0.407-0.128-0.762-0.017-1.001,0.247c-0.243-0.003-0.49,0.091-0.685,0.343
	c-0.855,1.104-2.143,2.928-1.137,4.323c0.749,1.039,2.306,0.839,3.353,0.494c1.102-0.364,2.267-1.168,2.496-2.376
	C351.736,456.52,349.667,455.599,348.386,455.196z"/>
<path d="M320.065,446.06c-0.407-0.128-0.762-0.017-1.001,0.247c-0.243-0.003-0.49,0.091-0.685,0.343
	c-0.855,1.104-2.143,2.928-1.137,4.323c0.749,1.039,2.306,0.839,3.353,0.494c1.102-0.364,2.267-1.168,2.496-2.376
	C323.415,447.384,321.345,446.463,320.065,446.06z"/>
<path d="M326.076,414.15c-0.407-0.128-0.762-0.017-1.001,0.247c-0.243-0.003-0.49,0.091-0.685,0.343
	c-0.855,1.104-2.143,2.928-1.137,4.323c0.749,1.039,2.306,0.839,3.353,0.494c1.102-0.364,2.267-1.168,2.496-2.376
	C329.426,415.474,327.356,414.553,326.076,414.15z"/>
<path d="M338.599,431.456c-0.45-0.141-0.843-0.019-1.107,0.274c-0.269-0.003-0.542,0.101-0.757,0.379
	c-0.945,1.221-2.37,3.238-1.258,4.782c0.828,1.149,2.551,0.929,3.709,0.546c1.219-0.402,2.508-1.292,2.761-2.628
	C342.305,432.92,340.015,431.901,338.599,431.456z"/>
<path d="M345.38,379.559c-0.407-0.128-0.762-0.017-1.001,0.247c-0.243-0.003-0.49,0.091-0.685,0.343
	c-0.855,1.104-2.143,2.928-1.137,4.323c0.749,1.039,2.306,0.839,3.353,0.494c1.102-0.364,2.267-1.168,2.496-2.376
	C348.73,380.883,346.66,379.961,345.38,379.559z"/>
<path d="M305.271,412.379c-0.328-0.103-0.615-0.014-0.808,0.2c-0.196-0.002-0.395,0.074-0.552,0.277
	c-0.69,0.891-1.729,2.362-0.917,3.488c0.604,0.838,1.861,0.677,2.706,0.398c0.889-0.294,1.829-0.943,2.014-1.917
	C307.974,413.447,306.303,412.704,305.271,412.379z"/>
<path d="M313.839,391.854c-0.407-0.128-0.762-0.017-1.001,0.247c-0.243-0.003-0.49,0.091-0.685,0.343
	c-0.855,1.104-2.143,2.928-1.137,4.323c0.749,1.039,2.306,0.839,3.353,0.494c1.102-0.364,2.267-1.168,2.496-2.376
	C317.189,393.177,315.12,392.256,313.839,391.854z"/>
<path d="M288.02,431.243c-0.358-0.112-0.67-0.015-0.88,0.217c-0.214-0.002-0.431,0.08-0.602,0.301
	c-0.751,0.97-1.884,2.573-0.999,3.8c0.658,0.913,2.027,0.738,2.947,0.434c0.968-0.32,1.993-1.027,2.194-2.089
	C290.964,432.406,289.145,431.596,288.02,431.243z"/>
<path d="M323.165,467.826c-0.247-0.078-0.463-0.011-0.609,0.15c-0.148-0.002-0.298,0.056-0.416,0.209
	c-0.52,0.671-1.303,1.78-0.692,2.629c0.455,0.632,1.402,0.511,2.039,0.3c0.67-0.221,1.379-0.711,1.518-1.445
	C325.202,468.631,323.943,468.07,323.165,467.826z"/>
<path d="M345.236,407.973c-0.247-0.078-0.463-0.011-0.609,0.15c-0.148-0.002-0.298,0.056-0.416,0.209
	c-0.52,0.671-1.303,1.78-0.692,2.629c0.455,0.632,1.402,0.51,2.039,0.3c0.67-0.221,1.379-0.711,1.518-1.445
	C347.273,408.778,346.014,408.218,345.236,407.973z"/>
<path d="M308.636,437.597c-0.247-0.078-0.463-0.011-0.609,0.15c-0.148-0.002-0.298,0.056-0.416,0.209
	c-0.52,0.671-1.303,1.78-0.692,2.629c0.455,0.632,1.402,0.511,2.039,0.3c0.67-0.221,1.379-0.711,1.518-1.445
	C310.674,438.402,309.415,437.842,308.636,437.597z"/>
<path d="M302.736,459.169c-0.247-0.078-0.463-0.011-0.609,0.15c-0.148-0.002-0.298,0.056-0.416,0.209
	c-0.52,0.671-1.303,1.78-0.691,2.629c0.455,0.632,1.402,0.511,2.039,0.3c0.67-0.221,1.379-0.711,1.518-1.445
	C304.773,459.974,303.515,459.414,302.736,459.169z"/>
<path d="M338.355,475.17c-0.247-0.078-0.463-0.011-0.609,0.15c-0.148-0.002-0.298,0.056-0.416,0.209
	c-0.52,0.671-1.303,1.78-0.692,2.629c0.455,0.632,1.402,0.511,2.039,0.3c0.67-0.221,1.379-0.711,1.518-1.445
	C340.392,475.975,339.133,475.415,338.355,475.17z"/>
<path d="M331.076,395.826c-0.247-0.078-0.463-0.011-0.609,0.15c-0.148-0.002-0.298,0.056-0.416,0.209
	c-0.52,0.671-1.303,1.78-0.692,2.629c0.455,0.632,1.402,0.511,2.039,0.3c0.67-0.221,1.379-0.711,1.518-1.445
	C333.113,396.631,331.855,396.071,331.076,395.826z"/>
<path opacity="0.1" enable-background="new    " d="M351.447,478.611c0,0-3.125,9.269-20.41,7.562c0,0-13.65-2.115-16.902-4.787
	c0,0-14.541-7.421-17.313-11.463c0,0-18.095-16.623-22.017-23.916c0,0-19.409-27.715-20.999-33.671c0,0-15.173-10.89,0.35-17.667
	l5.967,10.33C260.123,404.999,320.052,490.332,351.447,478.611z"/>
<g>
	<path fill="#C43E27" d="M167.195,169.088h-1.107l-4.232-14.871c-0.352-1.222-0.615-2.224-0.791-3.006
		c-0.141,0.765-0.34,1.644-0.6,2.637c-0.259,0.993-1.677,6.073-4.252,15.24h-1.133l-5.301-19.274h1.411l3.375,12.419
		c0.132,0.501,0.255,0.965,0.369,1.391c0.114,0.427,0.218,0.827,0.31,1.2c0.093,0.374,0.176,0.734,0.251,1.081
		c0.074,0.347,0.143,0.696,0.204,1.048c0.211-1.195,0.659-3.01,1.345-5.445l3.296-11.694h1.49l3.862,13.421
		c0.448,1.547,0.769,2.795,0.962,3.744c0.114-0.633,0.262-1.305,0.442-2.017c0.18-0.712,1.536-5.761,4.067-15.148h1.357
		L167.195,169.088z"/>
	<path fill="#C43E27" d="M189.884,169.088h-1.358v-9.479h-11.258v9.479h-1.346v-19.274h1.346v8.556h11.258v-8.556h1.358V169.088z"/>
	<path fill="#C43E27" d="M204.623,162.285h-7.83l-2.689,6.803h-1.49l7.752-19.354h0.857l7.594,19.354H207.3L204.623,162.285z
		 M197.28,161.072h6.896l-2.624-6.948c-0.22-0.545-0.483-1.301-0.791-2.268c-0.237,0.844-0.497,1.608-0.778,2.294L197.28,161.072z"
		/>
	<path fill="#C43E27" d="M216.568,169.088h-1.357v-18.009h-6.263v-1.266h13.882v1.266h-6.262L216.568,169.088L216.568,169.088z"/>
	<path fill="#C43E27" d="M232.705,169.088v-19.274h1.346v19.274H232.705z"/>
	<path fill="#C43E27" d="M250.147,164.118c0,1.608-0.591,2.883-1.773,3.823c-1.182,0.94-2.753,1.411-4.713,1.411
		c-2.355,0-4.162-0.259-5.419-0.778v-1.345c1.389,0.589,3.16,0.883,5.313,0.883c1.582,0,2.837-0.362,3.764-1.088
		c0.928-0.725,1.392-1.676,1.392-2.854c0-0.729-0.154-1.333-0.462-1.813c-0.308-0.479-0.809-0.916-1.503-1.312
		s-1.714-0.822-3.059-1.279c-1.969-0.677-3.329-1.408-4.08-2.195c-0.752-0.787-1.127-1.835-1.127-3.145
		c0-1.441,0.564-2.617,1.693-3.526c1.13-0.91,2.582-1.365,4.357-1.365c1.811,0,3.511,0.343,5.102,1.028l-0.487,1.16
		c-1.6-0.668-3.129-1.002-4.588-1.002c-1.424,0-2.558,0.33-3.401,0.989s-1.266,1.556-1.266,2.689c0,0.712,0.13,1.296,0.389,1.753
		c0.26,0.457,0.684,0.868,1.272,1.233s1.6,0.802,3.032,1.312c1.503,0.519,2.632,1.021,3.389,1.51
		c0.755,0.487,1.307,1.041,1.654,1.661C249.974,162.489,250.147,163.239,250.147,164.118z"/>
	<path fill="#C43E27" d="M266.258,169.088H264.9v-18.009h-6.263v-1.266h13.882v1.266h-6.262v18.009H266.258z"/>
	<path fill="#C43E27" d="M289.343,169.088h-1.358v-9.479h-11.258v9.479h-1.346v-19.274h1.346v8.556h11.258v-8.556h1.358V169.088z"/>
	<path fill="#C43E27" d="M305.335,169.088h-10.534v-19.274h10.534v1.239h-9.188v7.291h8.674v1.239h-8.674v8.266h9.188V169.088z"/>
	<path fill="#C43E27" d="M318.058,169.088h-1.346v-19.274h10.561v1.239h-9.215v8.174h8.701v1.252h-8.701V169.088z"/>
	<path fill="#C43E27" d="M346.468,159.424c0,3.059-0.765,5.478-2.294,7.257c-1.529,1.78-3.639,2.67-6.328,2.67
		c-2.681,0-4.786-0.89-6.315-2.67c-1.529-1.779-2.293-4.208-2.293-7.284c0-3.067,0.771-5.482,2.313-7.245
		c1.542-1.762,3.649-2.643,6.321-2.643c2.689,0,4.794,0.886,6.314,2.657S346.468,156.357,346.468,159.424z M330.7,159.424
		c0,2.76,0.615,4.894,1.846,6.401s2.997,2.261,5.3,2.261c2.32,0,4.094-0.747,5.319-2.241c1.227-1.494,1.84-3.634,1.84-6.42
		c0-2.777-0.613-4.906-1.84-6.387c-1.226-1.481-2.99-2.222-5.293-2.222c-2.294,0-4.063,0.747-5.307,2.241
		C331.322,154.551,330.7,156.673,330.7,159.424z"/>
	<path fill="#C43E27" d="M367.1,159.424c0,3.059-0.765,5.478-2.294,7.257c-1.529,1.78-3.639,2.67-6.328,2.67
		c-2.681,0-4.786-0.89-6.315-2.67c-1.529-1.779-2.293-4.208-2.293-7.284c0-3.067,0.771-5.482,2.313-7.245
		c1.542-1.762,3.649-2.643,6.321-2.643c2.689,0,4.794,0.886,6.314,2.657S367.1,156.357,367.1,159.424z M351.332,159.424
		c0,2.76,0.615,4.894,1.846,6.401s2.997,2.261,5.3,2.261c2.32,0,4.094-0.747,5.319-2.241c1.227-1.494,1.84-3.634,1.84-6.42
		c0-2.777-0.613-4.906-1.84-6.387c-1.226-1.481-2.99-2.222-5.293-2.222c-2.294,0-4.063,0.747-5.307,2.241
		C351.954,154.551,351.332,156.673,351.332,159.424z"/>
	<path fill="#C43E27" d="M386.164,159.266c0,3.234-0.849,5.68-2.545,7.336c-1.696,1.657-4.188,2.485-7.475,2.485h-4.615v-19.274
		h5.208c3.076,0,5.416,0.804,7.021,2.413C385.361,153.834,386.164,156.181,386.164,159.266z M384.7,159.319
		c0-2.76-0.701-4.836-2.103-6.229s-3.461-2.09-6.177-2.09h-3.546v16.901h3.189C381.821,167.901,384.7,165.041,384.7,159.319z"/>
	<path fill="#C43E27" d="M408.246,164.118c0,1.608-0.591,2.883-1.773,3.823s-2.753,1.411-4.713,1.411
		c-2.355,0-4.162-0.259-5.419-0.778v-1.345c1.389,0.589,3.16,0.883,5.313,0.883c1.582,0,2.837-0.362,3.764-1.088
		c0.928-0.725,1.392-1.676,1.392-2.854c0-0.729-0.154-1.333-0.462-1.813c-0.308-0.479-0.809-0.916-1.503-1.312
		s-1.714-0.822-3.059-1.279c-1.969-0.677-3.329-1.408-4.08-2.195c-0.752-0.787-1.127-1.835-1.127-3.145
		c0-1.441,0.564-2.617,1.693-3.526c1.13-0.91,2.582-1.365,4.357-1.365c1.811,0,3.511,0.343,5.102,1.028l-0.487,1.16
		c-1.6-0.668-3.129-1.002-4.588-1.002c-1.424,0-2.558,0.33-3.401,0.989s-1.266,1.556-1.266,2.689c0,0.712,0.13,1.296,0.389,1.753
		c0.26,0.457,0.684,0.868,1.272,1.233s1.6,0.802,3.032,1.312c1.503,0.519,2.632,1.021,3.389,1.51
		c0.755,0.487,1.307,1.041,1.654,1.661C408.072,162.489,408.246,163.239,408.246,164.118z"/>
	<path fill="#C43E27" d="M416.749,160.36l5.643-10.547h1.451l-6.421,11.826v7.449h-1.384v-7.343l-6.447-11.931h1.543L416.749,160.36
		z"/>
	<path fill="#C43E27" d="M437.21,164.118c0,1.608-0.591,2.883-1.773,3.823s-2.753,1.411-4.713,1.411
		c-2.355,0-4.162-0.259-5.419-0.778v-1.345c1.389,0.589,3.16,0.883,5.313,0.883c1.582,0,2.837-0.362,3.764-1.088
		c0.928-0.725,1.392-1.676,1.392-2.854c0-0.729-0.154-1.333-0.462-1.813c-0.308-0.479-0.809-0.916-1.503-1.312
		s-1.714-0.822-3.059-1.279c-1.969-0.677-3.329-1.408-4.08-2.195c-0.752-0.787-1.127-1.835-1.127-3.145
		c0-1.441,0.564-2.617,1.693-3.526c1.13-0.91,2.582-1.365,4.357-1.365c1.811,0,3.511,0.343,5.102,1.028l-0.487,1.16
		c-1.6-0.668-3.129-1.002-4.588-1.002c-1.424,0-2.558,0.33-3.401,0.989s-1.266,1.556-1.266,2.689c0,0.712,0.13,1.296,0.389,1.753
		c0.26,0.457,0.684,0.868,1.272,1.233s1.6,0.802,3.032,1.312c1.503,0.519,2.632,1.021,3.389,1.51
		c0.755,0.487,1.307,1.041,1.654,1.661C437.036,162.489,437.21,163.239,437.21,164.118z"/>
	<path fill="#C43E27" d="M446.307,169.088h-1.357v-18.009h-6.263v-1.266h13.882v1.266h-6.262V169.088z"/>
	<path fill="#C43E27" d="M465.964,169.088H455.43v-19.274h10.534v1.239h-9.188v7.291h8.674v1.239h-8.674v8.266h9.188V169.088z"/>
	<path fill="#C43E27" d="M478.805,169.088l-7.185-17.798h-0.105c0.069,1.09,0.105,2.206,0.105,3.349v14.449h-1.293v-19.274h2.084
		l6.828,16.954h0.08l6.828-16.954h2.031v19.274h-1.358V154.48c0-1.02,0.053-2.074,0.158-3.164h-0.105l-7.212,17.771h-0.856V169.088z
		"/>
</g>
<g>
	<g opacity="0.75">
		<g>
			<g>
				<defs>
					<circle id="SVGID_1_" cx="312.649" cy="404.84" r="119.746"/>
				</defs>
				<clipPath id="SVGID_2_">
					<use xlink:href="#SVGID_1_"  overflow="visible"/>
				</clipPath>
				<path clip-path="url(#SVGID_2_)" d="M116.174,296.593c0,0,41.322,60.372,101.652,88.636c0,0-0.374,27.179,8.521,43.675
					c0,0,10.105,17.861,7.264-35.932c0,0-1.146,8.199,16.888,31.319c0,0,14.786,11.936-5.675-37.366
					c0,0,16.258,32.216,31.066,43.159c0,0,11.328-0.673-20.715-48.74c0,0,8.546,9.654,27.899,18.702c0,0,16.25,6.587-20.131-25.78
					c0,0,13.915,9.091,23.704,6.596c0,0,6.207-2.942-22.05-16.115l-7.077-2.118l-79.844-99.199"/>
			</g>
			<g>
				<defs>
					<circle id="SVGID_3_" cx="312.649" cy="404.84" r="119.746"/>
				</defs>
				<clipPath id="SVGID_4_">
					<use xlink:href="#SVGID_3_"  overflow="visible"/>
				</clipPath>
				<path clip-path="url(#SVGID_4_)" d="M444.335,303.59c0,0-24.96,51.703-68.445,80.729c0,0,3.487,21.044-1.474,34.89
					c0,0-5.74,15.047-9.862-27.025c0,0,1.853,6.227-9.419,26.287c0,0-10.069,11,0.008-29.66c0,0-8.825,26.908-19.027,37.141
					c0,0-8.868,0.81,10.339-40.254c0,0-5.495,8.495-19.446,17.792c0,0-11.833,7.022,12.587-22.371c0,0-9.727,8.69-17.616,7.906
					c0,0-5.162-1.553,15.213-15.097l5.242-2.476l50.282-86.36"/>
			</g>
		</g>
	</g>
	<g>
		<g>
			<g>
				<defs>
					<circle id="SVGID_5_" cx="310.649" cy="402.84" r="119.746"/>
				</defs>
				<clipPath id="SVGID_6_">
					<use xlink:href="#SVGID_5_"  overflow="visible"/>
				</clipPath>
				<g clip-path="url(#SVGID_6_)">
					<path fill="#B99C4E" d="M114.174,294.593c0,0,41.322,60.372,101.652,88.636c0,0-0.374,27.179,8.521,43.675
						c0,0,10.105,17.861,7.264-35.932c0,0-1.146,8.199,16.888,31.319c0,0,14.786,11.936-5.675-37.366
						c0,0,16.258,32.216,31.066,43.159c0,0,11.328-0.673-20.715-48.74c0,0,8.546,9.654,27.899,18.702c0,0,16.25,6.587-20.131-25.78
						c0,0,13.915,9.091,23.704,6.596c0,0,6.207-2.942-22.05-16.115l-7.077-2.118l-79.844-99.199"/>
					<path fill="#B99C4E" d="M442.335,301.59c0,0-24.96,51.703-68.445,80.729c0,0,3.487,21.044-1.474,34.89
						c0,0-5.74,15.047-9.862-27.025c0,0,1.853,6.227-9.419,26.287c0,0-10.069,11,0.008-29.66c0,0-8.825,26.908-19.027,37.141
						c0,0-8.868,0.81,10.339-40.254c0,0-5.495,8.495-19.446,17.792c0,0-11.833,7.022,12.587-22.371c0,0-9.727,8.69-17.616,7.906
						c0,0-5.162-1.553,15.213-15.097l5.242-2.476l50.282-86.36"/>
				</g>
			</g>
		</g>
	</g>
</g>
</svg>
