<?xml version="1.0" encoding="utf-8"?>
<!-- Generator: Adobe Illustrator 17.0.0, SVG Export Plug-In . SVG Version: 6.00 Build 0)  -->
<!DOCTYPE svg PUBLIC "-//W3C//DTD SVG 1.1//EN" "http://www.w3.org/Graphics/SVG/1.1/DTD/svg11.dtd">
<svg version="1.1" id="Layer_1" xmlns="http://www.w3.org/2000/svg" xmlns:xlink="http://www.w3.org/1999/xlink" x="0px" y="0px"
	 width="640px" height="155.871px" viewBox="1320 0 640 155.871" enable-background="new 1320 0 640 155.871" xml:space="preserve">
<rect x="1367.507" y="61.57" fill="#C73D27" width="17.112" height="17.112"/>
<rect x="1401.436" y="61.57" fill="#C73D27" width="17.112" height="17.112"/>
<rect x="1435.365" y="61.57" fill="#C73D27" width="17.112" height="17.112"/>
<rect x="1401.436" y="96.974" fill="#C73D27" width="17.112" height="17.112"/>
<rect x="1435.365" y="96.974" fill="#C73D27" width="17.112" height="17.112"/>
<rect x="1367.507" y="94.91" fill="#C73D27" width="17.112" height="17.112"/>
<path fill="#C73D27" d="M1469.884,131.398V32.068c0-1.956-1.584-3.541-3.541-3.541h-35.208v-5.41h-12.579V10.539h-16.539v12.579
	h-12.578v5.41h-34.618c-1.956,0-3.541,1.585-3.541,3.541v99.329h-5.508v13.376H1474.8v-13.376H1469.884L1469.884,131.398z
	 M1358.361,35.609h31.077v4.051h12.579v12.579h16.541V39.66h12.578v-4.051h31.668v95.789h-104.443V35.609L1358.361,35.609z"/>
<g>
	<path fill="#C73D27" d="M1516.419,77.417l-1.669-5.48h-8.394l-1.669,5.48h-5.26l8.125-23.117h5.969l8.157,23.117H1516.419z
		 M1513.584,67.843c-1.543-4.965-2.412-7.773-2.605-8.425c-0.194-0.651-0.334-1.165-0.418-1.543
		c-0.346,1.344-1.338,4.667-2.976,9.968H1513.584z"/>
	<path fill="#C73D27" d="M1533.93,63.418h-4.157v13.999h-4.803V63.418h-2.646v-2.315l2.646-1.292v-1.291
		c0-2.005,0.493-3.47,1.48-4.394c0.986-0.923,2.566-1.386,4.74-1.386c1.658,0,3.133,0.247,4.425,0.74l-1.229,3.527
		c-0.966-0.304-1.858-0.457-2.677-0.457c-0.683,0-1.176,0.202-1.48,0.606c-0.305,0.404-0.457,0.921-0.457,1.551v1.102h4.157V63.418z
		 M1546.417,63.418h-4.157v13.999h-4.803V63.418h-2.646v-2.315l2.646-1.292v-1.291c0-2.005,0.493-3.47,1.48-4.394
		c0.986-0.923,2.566-1.386,4.74-1.386c1.658,0,3.134,0.247,4.425,0.74l-1.229,3.527c-0.966-0.304-1.858-0.457-2.677-0.457
		c-0.683,0-1.176,0.202-1.48,0.606c-0.305,0.404-0.457,0.921-0.457,1.551v1.102h4.157V63.418z"/>
	<path fill="#C73D27" d="M1565.156,68.583c0,2.866-0.756,5.107-2.268,6.724c-1.512,1.617-3.616,2.425-6.314,2.425
		c-1.69,0-3.181-0.37-4.473-1.11c-1.291-0.74-2.283-1.803-2.976-3.188c-0.693-1.386-1.039-3.002-1.039-4.85
		c0-2.876,0.75-5.112,2.251-6.708c1.502-1.596,3.611-2.394,6.331-2.394c1.689,0,3.181,0.368,4.472,1.103s2.283,1.79,2.977,3.165
		C1564.81,65.124,1565.156,66.735,1565.156,68.583z M1552.983,68.583c0,1.743,0.286,3.06,0.858,3.952
		c0.572,0.893,1.504,1.339,2.795,1.339c1.281,0,2.202-0.443,2.764-1.331s0.843-2.207,0.843-3.96c0-1.743-0.283-3.05-0.851-3.921
		c-0.566-0.872-1.496-1.307-2.787-1.307c-1.281,0-2.204,0.433-2.771,1.299C1553.268,65.52,1552.983,66.83,1552.983,68.583z"/>
	<path fill="#C73D27" d="M1578.951,59.481c0.65,0,1.191,0.047,1.622,0.142l-0.362,4.503c-0.389-0.105-0.861-0.158-1.417-0.158
		c-1.533,0-2.728,0.394-3.583,1.181c-0.855,0.788-1.283,1.89-1.283,3.307v8.96h-4.803V59.812h3.638l0.708,2.961h0.236
		c0.546-0.987,1.284-1.782,2.213-2.386S1577.859,59.481,1578.951,59.481z"/>
	<path fill="#C73D27" d="M1589.344,77.732c-2.068,0-3.692-0.803-4.873-2.409c-1.182-1.606-1.771-3.832-1.771-6.677
		c0-2.887,0.601-5.136,1.803-6.748s2.857-2.417,4.968-2.417c2.215,0,3.905,0.861,5.071,2.583h0.157
		c-0.242-1.312-0.362-2.482-0.362-3.512v-5.637h4.818v24.502h-3.685l-0.929-2.283h-0.205
		C1593.244,76.866,1591.58,77.732,1589.344,77.732z M1591.029,73.905c1.228,0,2.128-0.356,2.7-1.071
		c0.572-0.714,0.885-1.926,0.937-3.637v-0.52c0-1.89-0.291-3.244-0.873-4.063c-0.583-0.819-1.53-1.229-2.843-1.229
		c-1.071,0-1.903,0.454-2.496,1.362s-0.89,2.228-0.89,3.96c0,1.732,0.299,3.031,0.897,3.897
		C1589.061,73.472,1589.916,73.905,1591.029,73.905z"/>
	<path fill="#C73D27" d="M1615.358,77.417l-0.93-2.394h-0.126c-0.809,1.019-1.64,1.724-2.495,2.118
		c-0.856,0.394-1.972,0.59-3.347,0.59c-1.69,0-3.021-0.483-3.992-1.449c-0.971-0.966-1.456-2.341-1.456-4.126
		c0-1.868,0.653-3.246,1.96-4.133c1.308-0.887,3.278-1.378,5.913-1.472l3.056-0.095v-0.771c0-1.785-0.914-2.677-2.74-2.677
		c-1.407,0-3.061,0.425-4.961,1.276l-1.59-3.244c2.025-1.06,4.272-1.59,6.739-1.59c2.362,0,4.173,0.514,5.433,1.543
		c1.26,1.029,1.89,2.593,1.89,4.693v11.731H1615.358z M1613.941,69.26l-1.858,0.063c-1.396,0.042-2.436,0.294-3.118,0.756
		s-1.023,1.165-1.023,2.11c0,1.354,0.776,2.031,2.33,2.031c1.113,0,2.003-0.32,2.67-0.96c0.666-0.64,1-1.491,1-2.551V69.26z"/>
	<path fill="#C73D27" d="M1633.452,59.481c2.078,0,3.705,0.811,4.881,2.433s1.764,3.845,1.764,6.669c0,2.908-0.605,5.16-1.818,6.755
		s-2.863,2.394-4.952,2.394c-2.068,0-3.69-0.75-4.866-2.252h-0.33l-0.804,1.937h-3.669V52.915h4.803v5.701
		c0,0.724-0.063,1.884-0.188,3.48h0.188C1629.583,60.353,1631.247,59.481,1633.452,59.481z M1631.909,63.323
		c-1.187,0-2.053,0.365-2.599,1.095s-0.829,1.934-0.851,3.614v0.52c0,1.89,0.281,3.244,0.843,4.063s1.451,1.228,2.669,1.228
		c0.986,0,1.771-0.454,2.354-1.362c0.582-0.908,0.874-2.229,0.874-3.96c0-1.732-0.294-3.031-0.882-3.897
		C1633.729,63.756,1632.927,63.323,1631.909,63.323z"/>
	<path fill="#C73D27" d="M1648.868,77.417h-4.803V52.915h4.803V77.417z"/>
	<path fill="#C73D27" d="M1661.875,77.732c-2.834,0-5.05-0.782-6.646-2.346s-2.393-3.779-2.393-6.646c0-2.95,0.737-5.23,2.212-6.842
		s3.514-2.417,6.118-2.417c2.487,0,4.425,0.708,5.811,2.126s2.078,3.375,2.078,5.874v2.331h-11.354
		c0.053,1.365,0.457,2.431,1.213,3.197c0.756,0.767,1.815,1.149,3.181,1.149c1.061,0,2.063-0.11,3.008-0.331
		c0.944-0.22,1.932-0.572,2.96-1.055v3.716c-0.84,0.42-1.737,0.732-2.692,0.937S1663.25,77.732,1661.875,77.732z M1661.198,62.898
		c-1.019,0-1.816,0.323-2.394,0.968s-0.908,1.562-0.992,2.748h6.739c-0.021-1.186-0.33-2.102-0.929-2.748
		S1662.216,62.898,1661.198,62.898z"/>
	<path fill="#C73D27" d="M1697.589,77.417h-4.803V67.134c0-2.541-0.945-3.811-2.835-3.811c-1.344,0-2.314,0.457-2.913,1.37
		s-0.897,2.394-0.897,4.44v8.283h-4.803V52.915h4.803v4.992c0,0.389-0.037,1.302-0.11,2.74l-0.11,1.417h0.252
		c1.071-1.722,2.771-2.583,5.103-2.583c2.068,0,3.638,0.557,4.708,1.669c1.071,1.113,1.606,2.708,1.606,4.787V77.417z"/>
	<path fill="#C73D27" d="M1710.501,77.732c-2.834,0-5.05-0.782-6.646-2.346s-2.393-3.779-2.393-6.646c0-2.95,0.737-5.23,2.212-6.842
		s3.514-2.417,6.118-2.417c2.487,0,4.425,0.708,5.811,2.126s2.078,3.375,2.078,5.874v2.331h-11.354
		c0.053,1.365,0.457,2.431,1.213,3.197c0.756,0.767,1.815,1.149,3.181,1.149c1.061,0,2.063-0.11,3.008-0.331
		c0.944-0.22,1.932-0.572,2.96-1.055v3.716c-0.84,0.42-1.737,0.732-2.692,0.937S1711.876,77.732,1710.501,77.732z M1709.824,62.898
		c-1.019,0-1.816,0.323-2.394,0.968s-0.908,1.562-0.992,2.748h6.739c-0.021-1.186-0.33-2.102-0.929-2.748
		S1710.842,62.898,1709.824,62.898z"/>
	<path fill="#C73D27" d="M1732.768,77.417l-0.93-2.394h-0.126c-0.809,1.019-1.64,1.724-2.495,2.118
		c-0.856,0.394-1.972,0.59-3.347,0.59c-1.69,0-3.021-0.483-3.992-1.449c-0.971-0.966-1.456-2.341-1.456-4.126
		c0-1.868,0.653-3.246,1.96-4.133c1.308-0.887,3.278-1.378,5.913-1.472l3.056-0.095v-0.771c0-1.785-0.914-2.677-2.74-2.677
		c-1.407,0-3.061,0.425-4.961,1.276l-1.59-3.244c2.025-1.06,4.272-1.59,6.739-1.59c2.362,0,4.173,0.514,5.433,1.543
		c1.26,1.029,1.89,2.593,1.89,4.693v11.731H1732.768z M1731.351,69.26l-1.858,0.063c-1.396,0.042-2.436,0.294-3.118,0.756
		s-1.023,1.165-1.023,2.11c0,1.354,0.776,2.031,2.33,2.031c1.113,0,2.003-0.32,2.67-0.96c0.666-0.64,1-1.491,1-2.551V69.26z"/>
	<path fill="#C73D27" d="M1745.869,77.417h-4.803V52.915h4.803V77.417z"/>
	<path fill="#C73D27" d="M1758.325,73.905c0.84,0,1.848-0.184,3.023-0.551v3.574c-1.197,0.536-2.667,0.803-4.409,0.803
		c-1.921,0-3.32-0.485-4.196-1.457c-0.877-0.971-1.315-2.428-1.315-4.37v-8.487h-2.299v-2.031l2.646-1.606l1.386-3.716h3.07v3.748
		h4.929v3.606h-4.929v8.487c0,0.683,0.191,1.187,0.575,1.512C1757.188,73.743,1757.695,73.905,1758.325,73.905z"/>
	<path fill="#C73D27" d="M1781.158,77.417h-4.803V67.134c0-2.541-0.945-3.811-2.835-3.811c-1.344,0-2.314,0.457-2.913,1.37
		s-0.897,2.394-0.897,4.44v8.283h-4.803V52.915h4.803v4.992c0,0.389-0.037,1.302-0.11,2.74l-0.11,1.417h0.252
		c1.071-1.722,2.771-2.583,5.103-2.583c2.068,0,3.638,0.557,4.708,1.669c1.071,1.113,1.606,2.708,1.606,4.787V77.417z"/>
	<path fill="#C73D27" d="M1793.252,77.732c-5.48,0-8.22-3.008-8.22-9.023c0-2.992,0.745-5.278,2.235-6.858
		c1.491-1.58,3.627-2.37,6.409-2.37c2.037,0,3.863,0.399,5.48,1.197l-1.418,3.716c-0.756-0.304-1.459-0.554-2.109-0.748
		c-0.651-0.194-1.302-0.291-1.953-0.291c-2.498,0-3.748,1.774-3.748,5.322c0,3.443,1.25,5.165,3.748,5.165
		c0.924,0,1.779-0.123,2.566-0.37c0.788-0.247,1.575-0.632,2.362-1.157v4.11c-0.776,0.494-1.562,0.835-2.354,1.023
		C1795.459,77.638,1794.459,77.732,1793.252,77.732z"/>
	<path fill="#C73D27" d="M1813.865,77.417l-0.93-2.394h-0.126c-0.809,1.019-1.64,1.724-2.495,2.118
		c-0.856,0.394-1.972,0.59-3.347,0.59c-1.69,0-3.021-0.483-3.992-1.449c-0.971-0.966-1.456-2.341-1.456-4.126
		c0-1.868,0.653-3.246,1.96-4.133c1.308-0.887,3.278-1.378,5.913-1.472l3.056-0.095v-0.771c0-1.785-0.914-2.677-2.74-2.677
		c-1.407,0-3.061,0.425-4.961,1.276l-1.59-3.244c2.025-1.06,4.272-1.59,6.739-1.59c2.362,0,4.173,0.514,5.433,1.543
		c1.26,1.029,1.89,2.593,1.89,4.693v11.731H1813.865z M1812.448,69.26l-1.858,0.063c-1.396,0.042-2.436,0.294-3.118,0.756
		s-1.023,1.165-1.023,2.11c0,1.354,0.776,2.031,2.33,2.031c1.113,0,2.003-0.32,2.67-0.96c0.666-0.64,1-1.491,1-2.551V69.26z"/>
	<path fill="#C73D27" d="M1831.99,59.481c0.65,0,1.191,0.047,1.622,0.142l-0.362,4.503c-0.389-0.105-0.861-0.158-1.417-0.158
		c-1.533,0-2.728,0.394-3.583,1.181c-0.855,0.788-1.283,1.89-1.283,3.307v8.96h-4.803V59.812h3.638l0.708,2.961h0.236
		c0.546-0.987,1.284-1.782,2.213-2.386S1830.898,59.481,1831.99,59.481z"/>
	<path fill="#C73D27" d="M1844.776,77.732c-2.834,0-5.05-0.782-6.646-2.346s-2.393-3.779-2.393-6.646c0-2.95,0.737-5.23,2.212-6.842
		s3.514-2.417,6.118-2.417c2.487,0,4.425,0.708,5.811,2.126s2.078,3.375,2.078,5.874v2.331h-11.354
		c0.053,1.365,0.457,2.431,1.213,3.197c0.756,0.767,1.815,1.149,3.181,1.149c1.061,0,2.063-0.11,3.008-0.331
		c0.944-0.22,1.932-0.572,2.96-1.055v3.716c-0.84,0.42-1.737,0.732-2.692,0.937S1846.151,77.732,1844.776,77.732z M1844.1,62.898
		c-1.019,0-1.816,0.323-2.394,0.968s-0.908,1.562-0.992,2.748h6.739c-0.021-1.186-0.33-2.102-0.929-2.748
		S1845.117,62.898,1844.1,62.898z"/>
	<path fill="#C73D27" d="M1880.003,77.417h-4.803V67.134c0-1.27-0.213-2.223-0.638-2.858c-0.425-0.635-1.095-0.953-2.008-0.953
		c-1.229,0-2.121,0.452-2.677,1.354c-0.557,0.903-0.835,2.388-0.835,4.456v8.283h-4.803V59.812h3.669l0.646,2.252h0.268
		c0.473-0.808,1.155-1.441,2.048-1.897c0.892-0.457,1.915-0.685,3.07-0.685c2.635,0,4.42,0.861,5.354,2.583h0.425
		c0.473-0.819,1.168-1.454,2.086-1.905c0.919-0.451,1.955-0.677,3.11-0.677c1.994,0,3.504,0.512,4.527,1.536
		c1.023,1.023,1.535,2.664,1.535,4.921v11.479h-4.818V67.134c0-1.27-0.213-2.223-0.638-2.858c-0.425-0.635-1.095-0.953-2.008-0.953
		c-1.176,0-2.055,0.42-2.638,1.26c-0.583,0.84-0.874,2.173-0.874,4V77.417z"/>
	<path fill="#C73D27" d="M1908.379,77.417l-0.646-2.252h-0.252c-0.515,0.819-1.244,1.452-2.189,1.897
		c-0.944,0.446-2.021,0.669-3.228,0.669c-2.068,0-3.627-0.554-4.677-1.661s-1.575-2.701-1.575-4.779v-11.48h4.803v10.283
		c0,1.27,0.226,2.223,0.678,2.858c0.451,0.635,1.17,0.953,2.157,0.953c1.344,0,2.314-0.449,2.913-1.346s0.897-2.386,0.897-4.464
		v-8.283h4.803v17.605H1908.379z"/>
	<path fill="#C73D27" d="M1929.386,72.189c0,1.806-0.628,3.181-1.882,4.125c-1.255,0.945-3.132,1.417-5.63,1.417
		c-1.281,0-2.373-0.086-3.275-0.26c-0.903-0.173-1.748-0.428-2.535-0.764V72.74c0.892,0.42,1.897,0.771,3.016,1.055
		c1.118,0.284,2.102,0.425,2.952,0.425c1.742,0,2.614-0.504,2.614-1.512c0-0.378-0.116-0.685-0.347-0.921
		c-0.23-0.236-0.63-0.504-1.196-0.803c-0.567-0.299-1.323-0.648-2.268-1.047c-1.354-0.567-2.35-1.092-2.984-1.575
		c-0.636-0.482-1.098-1.037-1.386-1.661c-0.289-0.625-0.433-1.394-0.433-2.307c0-1.564,0.605-2.774,1.818-3.629
		s2.932-1.284,5.157-1.284c2.12,0,4.184,0.462,6.188,1.386l-1.449,3.464c-0.881-0.378-1.706-0.688-2.472-0.929
		c-0.767-0.242-1.549-0.362-2.347-0.362c-1.417,0-2.126,0.383-2.126,1.149c0,0.431,0.229,0.803,0.686,1.118
		c0.456,0.315,1.456,0.782,3,1.401c1.375,0.557,2.383,1.076,3.023,1.559c0.64,0.483,1.112,1.039,1.417,1.669
		S1929.386,71.318,1929.386,72.189z"/>
	<path fill="#C73D27" d="M1940.55,73.905c0.84,0,1.848-0.184,3.023-0.551v3.574c-1.197,0.536-2.667,0.803-4.409,0.803
		c-1.921,0-3.32-0.485-4.196-1.457c-0.877-0.971-1.315-2.428-1.315-4.37v-8.487h-2.299v-2.031l2.646-1.606l1.386-3.716h3.07v3.748
		h4.929v3.606h-4.929v8.487c0,0.683,0.191,1.187,0.575,1.512C1939.413,73.743,1939.92,73.905,1940.55,73.905z"/>
	<path fill="#C73D27" d="M1517.206,98.181c2.078,0,3.705,0.811,4.881,2.433s1.764,3.845,1.764,6.669c0,2.908-0.605,5.16-1.818,6.755
		s-2.863,2.394-4.952,2.394c-2.068,0-3.69-0.75-4.866-2.252h-0.33l-0.804,1.937h-3.669V91.615h4.803v5.701
		c0,0.724-0.063,1.884-0.188,3.48h0.188C1513.337,99.053,1515.001,98.181,1517.206,98.181z M1515.663,102.023
		c-1.187,0-2.053,0.365-2.599,1.095s-0.829,1.934-0.851,3.614v0.52c0,1.89,0.281,3.244,0.843,4.063s1.451,1.228,2.669,1.228
		c0.986,0,1.771-0.454,2.354-1.362c0.582-0.908,0.874-2.229,0.874-3.96c0-1.732-0.294-3.031-0.882-3.897
		C1517.483,102.457,1516.681,102.023,1515.663,102.023z"/>
	<path fill="#C73D27" d="M1535.787,116.432c-2.834,0-5.05-0.782-6.646-2.346s-2.393-3.779-2.393-6.646
		c0-2.95,0.737-5.23,2.212-6.842s3.514-2.417,6.118-2.417c2.487,0,4.425,0.708,5.811,2.126s2.078,3.375,2.078,5.874v2.331h-11.354
		c0.053,1.365,0.457,2.431,1.213,3.197c0.756,0.767,1.815,1.149,3.181,1.149c1.061,0,2.063-0.11,3.008-0.331
		c0.944-0.22,1.932-0.572,2.96-1.055v3.716c-0.84,0.42-1.737,0.732-2.692,0.937S1537.162,116.432,1535.787,116.432z
		 M1535.11,101.599c-1.019,0-1.816,0.323-2.394,0.968s-0.908,1.562-0.992,2.748h6.739c-0.021-1.186-0.33-2.102-0.929-2.748
		S1536.128,101.599,1535.11,101.599z"/>
	<path fill="#C73D27" d="M1564.919,116.432c-2.068,0-3.69-0.75-4.866-2.252h-0.252c0.168,1.47,0.252,2.32,0.252,2.551v7.133h-4.803
		V98.512h3.905l0.677,2.284h0.221c1.123-1.743,2.787-2.614,4.992-2.614c2.078,0,3.705,0.803,4.881,2.41
		c1.176,1.606,1.764,3.837,1.764,6.692c0,1.879-0.275,3.512-0.826,4.897s-1.336,2.44-2.354,3.165
		C1567.49,116.07,1566.294,116.432,1564.919,116.432z M1563.502,102.023c-1.187,0-2.053,0.365-2.599,1.095s-0.829,1.934-0.851,3.614
		v0.52c0,1.89,0.281,3.244,0.843,4.063s1.451,1.228,2.669,1.228c2.152,0,3.229-1.774,3.229-5.322c0-1.732-0.266-3.031-0.796-3.897
		S1564.635,102.023,1563.502,102.023z"/>
	<path fill="#C73D27" d="M1585.484,98.181c0.65,0,1.191,0.047,1.622,0.142l-0.362,4.503c-0.389-0.105-0.861-0.158-1.417-0.158
		c-1.533,0-2.728,0.394-3.583,1.181c-0.855,0.788-1.283,1.89-1.283,3.307v8.96h-4.803V98.512h3.638l0.708,2.961h0.236
		c0.546-0.987,1.284-1.782,2.213-2.386S1584.393,98.181,1585.484,98.181z"/>
	<path fill="#C73D27" d="M1606.302,107.283c0,2.866-0.756,5.107-2.268,6.724c-1.512,1.617-3.616,2.425-6.314,2.425
		c-1.69,0-3.181-0.37-4.473-1.11c-1.291-0.74-2.283-1.803-2.976-3.188c-0.693-1.386-1.039-3.002-1.039-4.85
		c0-2.876,0.75-5.112,2.251-6.708c1.502-1.596,3.611-2.394,6.331-2.394c1.689,0,3.181,0.368,4.472,1.103s2.283,1.79,2.977,3.165
		C1605.955,103.824,1606.302,105.436,1606.302,107.283z M1594.129,107.283c0,1.743,0.286,3.06,0.858,3.952
		c0.572,0.893,1.504,1.339,2.795,1.339c1.281,0,2.202-0.443,2.764-1.331s0.843-2.207,0.843-3.96c0-1.743-0.283-3.05-0.851-3.921
		c-0.566-0.872-1.496-1.307-2.787-1.307c-1.281,0-2.204,0.433-2.771,1.299C1594.413,104.22,1594.129,105.53,1594.129,107.283z"/>
	<path fill="#C73D27" d="M1614.458,116.117l-6.708-17.605h5.023l3.401,10.031c0.378,1.27,0.614,2.472,0.708,3.606h0.095
		c0.053-1.008,0.289-2.21,0.709-3.606l3.386-10.031h5.023l-6.709,17.605H1614.458z"/>
	<path fill="#C73D27" d="M1628.41,93.961c0-1.564,0.872-2.346,2.614-2.346s2.614,0.782,2.614,2.346c0,0.746-0.218,1.326-0.653,1.74
		c-0.437,0.415-1.09,0.622-1.961,0.622C1629.282,96.323,1628.41,95.536,1628.41,93.961z M1633.418,116.117h-4.803V98.512h4.803
		V116.117z"/>
	<path fill="#C73D27" d="M1644.031,116.432c-2.068,0-3.692-0.803-4.873-2.409c-1.182-1.606-1.771-3.832-1.771-6.677
		c0-2.887,0.601-5.136,1.803-6.748s2.857-2.417,4.968-2.417c2.215,0,3.905,0.861,5.071,2.583h0.157
		c-0.242-1.312-0.362-2.482-0.362-3.512v-5.637h4.818v24.502h-3.685l-0.929-2.283h-0.205
		C1647.932,115.566,1646.268,116.432,1644.031,116.432z M1645.717,112.605c1.228,0,2.128-0.356,2.7-1.071
		c0.572-0.714,0.885-1.926,0.937-3.637v-0.52c0-1.89-0.291-3.244-0.873-4.063c-0.583-0.819-1.53-1.229-2.843-1.229
		c-1.071,0-1.903,0.454-2.496,1.362s-0.89,2.228-0.89,3.96c0,1.732,0.299,3.031,0.897,3.897
		C1643.748,112.172,1644.604,112.605,1645.717,112.605z"/>
	<path fill="#C73D27" d="M1666.833,116.432c-2.834,0-5.05-0.782-6.646-2.346s-2.393-3.779-2.393-6.646
		c0-2.95,0.737-5.23,2.212-6.842s3.514-2.417,6.118-2.417c2.487,0,4.425,0.708,5.811,2.126s2.078,3.375,2.078,5.874v2.331h-11.354
		c0.053,1.365,0.457,2.431,1.213,3.197c0.756,0.767,1.815,1.149,3.181,1.149c1.061,0,2.063-0.11,3.008-0.331
		c0.944-0.22,1.932-0.572,2.96-1.055v3.716c-0.84,0.42-1.737,0.732-2.692,0.937S1668.208,116.432,1666.833,116.432z
		 M1666.156,101.599c-1.019,0-1.816,0.323-2.394,0.968s-0.908,1.562-0.992,2.748h6.739c-0.021-1.186-0.33-2.102-0.929-2.748
		S1667.174,101.599,1666.156,101.599z"/>
	<path fill="#C73D27" d="M1683.493,116.432c-2.068,0-3.692-0.803-4.873-2.409c-1.182-1.606-1.771-3.832-1.771-6.677
		c0-2.887,0.601-5.136,1.803-6.748s2.857-2.417,4.968-2.417c2.215,0,3.905,0.861,5.071,2.583h0.157
		c-0.242-1.312-0.362-2.482-0.362-3.512v-5.637h4.818v24.502h-3.685l-0.929-2.283h-0.205
		C1687.394,115.566,1685.729,116.432,1683.493,116.432z M1685.179,112.605c1.228,0,2.128-0.356,2.7-1.071
		c0.572-0.714,0.885-1.926,0.937-3.637v-0.52c0-1.89-0.291-3.244-0.873-4.063c-0.583-0.819-1.53-1.229-2.843-1.229
		c-1.071,0-1.903,0.454-2.496,1.362s-0.89,2.228-0.89,3.96c0,1.732,0.299,3.031,0.897,3.897
		C1683.21,112.172,1684.065,112.605,1685.179,112.605z"/>
	<path fill="#C73D27" d="M1716.437,102.118h-4.157v13.999h-4.803v-13.999h-2.646v-2.315l2.646-1.292v-1.291
		c0-2.005,0.493-3.47,1.48-4.394c0.986-0.923,2.566-1.386,4.74-1.386c1.658,0,3.133,0.247,4.425,0.74l-1.229,3.527
		c-0.966-0.304-1.858-0.457-2.677-0.457c-0.683,0-1.176,0.202-1.48,0.606c-0.305,0.404-0.457,0.921-0.457,1.551v1.102h4.157V102.118
		z"/>
	<path fill="#C73D27" d="M1735.191,107.283c0,2.866-0.756,5.107-2.268,6.724c-1.512,1.617-3.616,2.425-6.314,2.425
		c-1.69,0-3.181-0.37-4.473-1.11c-1.291-0.74-2.283-1.803-2.976-3.188c-0.693-1.386-1.039-3.002-1.039-4.85
		c0-2.876,0.75-5.112,2.251-6.708c1.502-1.596,3.611-2.394,6.331-2.394c1.689,0,3.181,0.368,4.472,1.103s2.283,1.79,2.977,3.165
		C1734.845,103.824,1735.191,105.436,1735.191,107.283z M1723.019,107.283c0,1.743,0.286,3.06,0.858,3.952
		c0.572,0.893,1.504,1.339,2.795,1.339c1.281,0,2.202-0.443,2.764-1.331s0.843-2.207,0.843-3.96c0-1.743-0.283-3.05-0.851-3.921
		c-0.566-0.872-1.496-1.307-2.787-1.307c-1.281,0-2.204,0.433-2.771,1.299C1723.303,104.22,1723.019,105.53,1723.019,107.283z"/>
	<path fill="#C73D27" d="M1748.986,98.181c0.65,0,1.191,0.047,1.622,0.142l-0.362,4.503c-0.389-0.105-0.861-0.158-1.417-0.158
		c-1.533,0-2.728,0.394-3.583,1.181c-0.855,0.788-1.283,1.89-1.283,3.307v8.96h-4.803V98.512h3.638l0.708,2.961h0.236
		c0.546-0.987,1.284-1.782,2.213-2.386S1747.895,98.181,1748.986,98.181z"/>
	<path fill="#C73D27" d="M1773.362,116.117l-0.93-2.394h-0.126c-0.809,1.019-1.64,1.724-2.495,2.118
		c-0.856,0.394-1.972,0.59-3.347,0.59c-1.69,0-3.021-0.483-3.992-1.449c-0.971-0.966-1.456-2.341-1.456-4.126
		c0-1.868,0.653-3.246,1.96-4.133c1.308-0.887,3.278-1.378,5.913-1.472l3.056-0.095v-0.771c0-1.785-0.914-2.677-2.74-2.677
		c-1.407,0-3.061,0.425-4.961,1.276l-1.59-3.244c2.025-1.06,4.272-1.59,6.739-1.59c2.362,0,4.173,0.514,5.433,1.543
		c1.26,1.029,1.89,2.593,1.89,4.693v11.731H1773.362z M1771.945,107.96l-1.858,0.063c-1.396,0.042-2.436,0.294-3.118,0.756
		s-1.023,1.165-1.023,2.11c0,1.354,0.776,2.031,2.33,2.031c1.113,0,2.003-0.32,2.67-0.96c0.666-0.64,1-1.491,1-2.551V107.96z"/>
	<path fill="#C73D27" d="M1786.464,116.117h-4.803V91.615h4.803V116.117z"/>
	<path fill="#C73D27" d="M1796.306,116.117h-4.803V91.615h4.803V116.117z"/>
	<path fill="#C73D27" d="M1824.194,116.117l-1.354-6.157l-1.826-7.779h-0.11l-3.213,13.936h-5.165l-5.008-17.605h4.787l2.032,7.795
		c0.325,1.396,0.655,3.323,0.991,5.779h0.095c0.042-0.798,0.226-2.063,0.552-3.795l0.252-1.339l2.173-8.44h5.291l2.063,8.44
		c0.042,0.231,0.107,0.573,0.197,1.024c0.089,0.451,0.176,0.932,0.26,1.441s0.16,1.008,0.229,1.496
		c0.067,0.488,0.107,0.879,0.118,1.173h0.094c0.095-0.756,0.263-1.792,0.504-3.11c0.242-1.317,0.415-2.207,0.52-2.669l2.11-7.795
		h4.709l-5.071,17.605H1824.194z"/>
	<path fill="#C73D27" d="M1853.326,107.283c0,2.866-0.756,5.107-2.268,6.724c-1.512,1.617-3.616,2.425-6.314,2.425
		c-1.69,0-3.181-0.37-4.473-1.11c-1.291-0.74-2.283-1.803-2.976-3.188c-0.693-1.386-1.039-3.002-1.039-4.85
		c0-2.876,0.75-5.112,2.251-6.708c1.502-1.596,3.611-2.394,6.331-2.394c1.689,0,3.181,0.368,4.472,1.103s2.283,1.79,2.977,3.165
		C1852.979,103.824,1853.326,105.436,1853.326,107.283z M1841.153,107.283c0,1.743,0.286,3.06,0.858,3.952
		c0.572,0.893,1.504,1.339,2.795,1.339c1.281,0,2.202-0.443,2.764-1.331s0.843-2.207,0.843-3.96c0-1.743-0.283-3.05-0.851-3.921
		c-0.566-0.872-1.496-1.307-2.787-1.307c-1.281,0-2.204,0.433-2.771,1.299C1841.438,104.22,1841.153,105.53,1841.153,107.283z"/>
	<path fill="#C73D27" d="M1867.121,98.181c0.65,0,1.191,0.047,1.622,0.142l-0.362,4.503c-0.389-0.105-0.861-0.158-1.417-0.158
		c-1.533,0-2.728,0.394-3.583,1.181c-0.855,0.788-1.283,1.89-1.283,3.307v8.96h-4.803V98.512h3.638l0.708,2.961h0.236
		c0.546-0.987,1.284-1.782,2.213-2.386S1866.029,98.181,1867.121,98.181z"/>
	<path fill="#C73D27" d="M1876.554,106.543l2.094-2.677l4.929-5.354h5.417l-6.991,7.638l7.417,9.968h-5.543l-5.071-7.133
		l-2.063,1.653v5.48h-4.803V91.615h4.803v10.928l-0.252,4H1876.554z"/>
	<path fill="#C73D27" d="M1899.906,116.432c-2.834,0-5.05-0.782-6.646-2.346s-2.393-3.779-2.393-6.646
		c0-2.95,0.737-5.23,2.212-6.842s3.514-2.417,6.118-2.417c2.487,0,4.425,0.708,5.811,2.126s2.078,3.375,2.078,5.874v2.331h-11.354
		c0.053,1.365,0.457,2.431,1.213,3.197c0.756,0.767,1.815,1.149,3.181,1.149c1.061,0,2.063-0.11,3.008-0.331
		c0.944-0.22,1.932-0.572,2.96-1.055v3.716c-0.84,0.42-1.737,0.732-2.692,0.937S1901.281,116.432,1899.906,116.432z
		 M1899.229,101.599c-1.019,0-1.816,0.323-2.394,0.968s-0.908,1.562-0.992,2.748h6.739c-0.021-1.186-0.33-2.102-0.929-2.748
		S1900.247,101.599,1899.229,101.599z"/>
	<path fill="#C73D27" d="M1920.818,98.181c0.65,0,1.191,0.047,1.622,0.142l-0.362,4.503c-0.389-0.105-0.861-0.158-1.417-0.158
		c-1.533,0-2.728,0.394-3.583,1.181c-0.855,0.788-1.283,1.89-1.283,3.307v8.96h-4.803V98.512h3.638l0.708,2.961h0.236
		c0.546-0.987,1.284-1.782,2.213-2.386S1919.727,98.181,1920.818,98.181z"/>
	<path fill="#C73D27" d="M1937.92,110.889c0,1.806-0.628,3.181-1.882,4.125c-1.255,0.945-3.132,1.417-5.63,1.417
		c-1.281,0-2.373-0.086-3.275-0.26c-0.903-0.173-1.748-0.428-2.535-0.764v-3.968c0.892,0.42,1.897,0.771,3.016,1.055
		c1.118,0.284,2.102,0.425,2.952,0.425c1.742,0,2.614-0.504,2.614-1.512c0-0.378-0.116-0.685-0.347-0.921
		c-0.23-0.236-0.63-0.504-1.196-0.803c-0.567-0.299-1.323-0.648-2.268-1.047c-1.354-0.567-2.35-1.092-2.984-1.575
		c-0.636-0.482-1.098-1.037-1.386-1.661c-0.289-0.625-0.433-1.394-0.433-2.307c0-1.564,0.605-2.774,1.818-3.629
		s2.932-1.284,5.157-1.284c2.12,0,4.184,0.462,6.188,1.386l-1.449,3.464c-0.881-0.378-1.706-0.688-2.472-0.929
		c-0.767-0.242-1.549-0.362-2.347-0.362c-1.417,0-2.126,0.383-2.126,1.149c0,0.431,0.229,0.803,0.686,1.118
		c0.456,0.315,1.456,0.782,3,1.401c1.375,0.557,2.383,1.076,3.023,1.559c0.64,0.483,1.112,1.039,1.417,1.669
		S1937.92,110.018,1937.92,110.889z"/>
</g>
</svg>
