<?xml version="1.0" encoding="utf-8"?>
<!-- Generator: Adobe Illustrator 17.0.0, SVG Export Plug-In . SVG Version: 6.00 Build 0)  -->
<!DOCTYPE svg PUBLIC "-//W3C//DTD SVG 1.1//EN" "http://www.w3.org/Graphics/SVG/1.1/DTD/svg11.dtd">
<svg version="1.1" id="Layer_1" xmlns="http://www.w3.org/2000/svg" xmlns:xlink="http://www.w3.org/1999/xlink" x="0px" y="0px"
	 width="640px" height="155.871px" viewBox="3300 0 640 155.871" enable-background="new 3300 0 640 155.871" xml:space="preserve">
<path fill="#C73D27" d="M3452.553,24.78l-0.3,0.129l-26.677,12.395l-0.257,0.086l0.086,0.3l8.749,18.828l0.086,0.257l0.3-0.129
	l12.095-5.576l10.551,22.688l-4.418,4.761l-4.46-5.876c-0.229-0.739-0.899-1.287-1.716-1.287h-12.223
	c-1.005,0-1.844,0.839-1.844,1.844v21.316l-3.174,18.099h4.16c0.004,0.818-0.013,1.635,0,2.445c0.002,0.086-0.009,0.173,0,0.257
	c-0.021,0.139-0.042,0.284-0.043,0.429v17.241c0,0.754,0.619,1.372,1.372,1.372h3.174c0.754,0,1.33-0.619,1.33-1.372v-17.241
	c-0.001-0.101,0.011-0.202,0-0.3c0.02-0.14,0.043-0.283,0.043-0.429c-0.008-0.789,0.004-1.606,0-2.402h2.23
	c0.004,0.818-0.013,1.635,0,2.445c0.001,0.073,0.036,0.143,0.043,0.214c-0.025,0.153-0.042,0.311-0.043,0.472v17.241
	c0,0.754,0.619,1.372,1.372,1.372h3.174c0.754,0,1.33-0.619,1.33-1.372v-17.241c-0.001-0.101,0.011-0.202,0-0.3
	c0.02-0.14,0.043-0.283,0.043-0.429c-0.008-0.789,0.004-1.606,0-2.402h4.032l-3.174-18.099V80.234l2.488,3.26l0.043,0.043
	c0.773,0.94,2.155,1.13,3.131,0.386c0.286-0.219,0.494-0.514,0.643-0.815l4.589-4.889l0.343,0.729l0.086,0.3l0.257-0.172
	l2.016-0.858l0.257-0.172l-0.129-0.257l-0.815-1.758l0.472-0.472c0.514-0.551,0.465-1.416-0.086-1.93l-1.33-1.244
	c-0.253-0.236-0.582-0.377-0.901-0.386l-10.293-22.174l12.052-5.619l0.3-0.086l-0.129-0.3l-8.749-18.786L3452.553,24.78z
	 M3342.284,24.823l-0.086,0.257l-7.034,19.515l-0.086,0.257l0.257,0.129l12.609,4.503l-7.549,21.23l-1.587,0.815
	c-0.667,0.351-0.909,1.177-0.558,1.844l0.686,1.33l-1.33,3.774l-0.129,0.257l0.257,0.129l2.059,0.686l0.257,0.129l0.129-0.3
	l0.515-1.415l3.002,5.747c0.013,0.025,0.029,0.019,0.043,0.043c0.377,0.657,1.051,1.089,1.758,1.158
	c0.762,0.143,1.557-0.108,2.102-0.729c0.013-0.015,0.03-0.027,0.043-0.043l3.774-4.546v21.616c0,0.683,0.388,1.278,0.944,1.587
	c-0.015,0.081-0.043,0.172-0.043,0.257v11.709v0.043c0.001,0.104,0.034,0.198,0.043,0.3c-0.011,0.116-0.043,0.224-0.043,0.343
	v17.499c0,0.754,0.619,1.372,1.372,1.372h4.546c0.754,0,1.372-0.619,1.372-1.372v-17.499c0-0.119-0.032-0.227-0.043-0.343
	c0.009-0.102,0.042-0.196,0.043-0.3c0-0.007,0-0.036,0-0.043v-11.709h1.716v11.58c0,0.075,0.038,0.141,0.043,0.214
	c-0.017,0.145-0.043,0.28-0.043,0.429v17.542c0,0.754,0.619,1.33,1.372,1.33h4.503c0.754,0,1.372-0.576,1.372-1.33v-17.542
	c0-0.119-0.032-0.227-0.043-0.343c0.009-0.102,0.042-0.196,0.043-0.3v-11.752c0-0.031,0.002-0.056,0-0.086
	c0.577-0.303,0.986-0.888,0.986-1.587V73.115c0-1.005-0.797-1.801-1.801-1.801h-14.491c-0.754,0-1.398,0.421-1.673,1.072
	l-5.361,6.433l-3.474-6.648l7.763-21.788l12.609,4.503l0.257,0.086l0.086-0.257l6.991-19.515l0.129-0.257l-0.3-0.129l-27.706-9.95
	L3342.284,24.823z M3342.627,25.552l27.192,9.693L3363,54.202l-12.524-4.461l-0.3-0.086l-0.086,0.257l-7.72,21.616l-0.129-0.3
	c-0.249-0.473-0.704-0.697-1.201-0.686l7.549-21.187l0.129-0.257l-0.3-0.129l-12.567-4.418L3342.627,25.552z M3452.252,25.638
	l8.449,18.142l-12.052,5.704l-0.3,0.086l0.129,0.257l10.379,22.345c-0.142,0.071-0.314,0.134-0.429,0.257l-0.815,0.901
	l-10.594-22.817l-0.086-0.3l-0.3,0.129l-12.095,5.619l-8.492-18.228L3452.252,25.638z M3380.327,27.911l-0.043,0.3l-4.889,20.158
	l-0.086,0.3l0.3,0.043l12.995,3.174l-5.361,22.002c-0.11,0.064-0.209,0.118-0.3,0.214l-1.244,1.287
	c-0.52,0.546-0.503,1.41,0.043,1.93l0.558,0.515l-0.986,3.989l-0.086,0.257l0.257,0.043l2.144,0.558l0.3,0.043l0.043-0.3l0.6-2.402
	l4.503,4.289c0.186,0.361,0.44,0.674,0.815,0.901c1.05,0.634,2.421,0.331,3.088-0.686c0.016-0.024,0.028-0.018,0.043-0.043
	l1.501-2.488v12.867l-3.174,18.142h4.117c0.004,0.812-0.013,1.64,0,2.445c0.001,0.072-0.006,0.144,0,0.214
	c-0.021,0.139-0.042,0.284-0.043,0.429c0,0.007,0,0.036,0,0.043v17.241c0,0.754,0.619,1.33,1.372,1.33h3.174
	c0.754,0,1.372-0.576,1.372-1.33v-17.241c0-0.007,0-0.036,0-0.043c-0.001-0.073-0.037-0.142-0.043-0.214
	c0.025-0.154,0.043-0.31,0.043-0.472c-0.008-0.789,0.004-1.606,0-2.402h2.273c0.004,0.812-0.013,1.64,0,2.445
	c0.001,0.072-0.006,0.144,0,0.214c-0.021,0.139-0.042,0.284-0.043,0.429c0,0.007,0,0.036,0,0.043v17.241
	c0,0.754,0.619,1.33,1.372,1.33h3.174c0.754,0,1.33-0.576,1.33-1.33v-17.241c0-0.007,0-0.036,0-0.043c0-0.029,0.001-0.057,0-0.086
	c0.039-0.193,0.043-0.395,0.043-0.6c-0.008-0.789,0.004-1.606,0-2.402h4.074l-3.174-18.142V73.545c0-1.005-0.84-1.801-1.844-1.801
	h-12.223c-0.879,0-1.633,0.63-1.801,1.458l-3.86,6.348l-4.846-4.632l5.447-22.388l12.91,3.131l0.343,0.086l0.043-0.343l4.932-20.072
	l0.043-0.257l-0.257-0.129l-28.65-6.991L3380.327,27.911z M3380.799,28.64l28.05,6.862l-4.804,19.557l-12.953-3.174l-0.3-0.043
	l-0.043,0.257l-5.404,22.345l-0.472-0.429c-0.283-0.27-0.666-0.366-1.029-0.343l5.361-21.959l0.086-0.3l-0.343-0.043l-12.953-3.174
	L3380.799,28.64z M3360.512,56.775c-3.756,0-6.819,3.063-6.819,6.819c0,3.756,3.063,6.777,6.819,6.777
	c3.756,0,6.777-3.021,6.777-6.777C3367.289,59.839,3364.268,56.775,3360.512,56.775z M3440.458,56.861
	c-3.756,0-6.819,3.063-6.819,6.819c-0.063,2.144-0.193,3.618-0.386,5.018c-0.182,0.595-1.195-0.061-2.102-0.515
	c0.421,2.094,1.165,2.74,2.23,2.745c0.888-0.032,1.93-0.856,1.844-2.745c0-0.059-0.001-0.11,0-0.172
	c1.247,1.511,3.12,2.445,5.232,2.445c2.098,0,3.942-0.951,5.19-2.445c0.001,0.053,0,0.121,0,0.172
	c-0.086,1.889,0.957,2.713,1.844,2.745c1.065-0.005,1.852-0.651,2.273-2.745c-0.907,0.453-1.962,1.109-2.144,0.515
	c-0.187-1.36-0.32-2.802-0.386-4.846c0.002-0.062,0-0.109,0-0.172C3447.234,59.925,3444.214,56.861,3440.458,56.861z
	 M3402.458,57.247c-3.756,0-6.819,3.063-6.819,6.819c0,1.878-0.214,6.776-0.214,6.776h0.214c0.144,0,0.43-0.472,0.686-0.472
	c0.256,0,0.48,0.472,0.815,0.472s0.606-0.472,0.986-0.472c0.38,0,0.893,0.472,1.287,0.472s0.613-0.472,0.986-0.472
	s0.88,0.472,1.201,0.472s0.366-0.472,0.6-0.472c0.235,0,0.752,0.472,1.072,0.472c0.32,0,1.299-0.472,1.673-0.472
	c0.373,0,0.164,0.472,0.558,0.472s0.863-0.472,1.244-0.472c0.381,0,0.652,0.472,0.986,0.472s0.559-0.472,0.815-0.472
	c0.256,0,0.542,0.472,0.686,0.472h0.214c0,0-0.214-4.898-0.214-6.776C3409.234,60.311,3406.214,57.247,3402.458,57.247z
	 M3371.277,71.744c-0.754,0-1.372,0.619-1.372,1.372v11.966v0.086c0.003,0.123,0.064,0.225,0.086,0.343
	c-0.019,0.107-0.083,0.232-0.086,0.343c-0.001,0.028,0,0.015,0,0.043l0.086,11.709c0.006,0.754,0.619,1.335,1.372,1.33h1.844
	c0.754-0.006,1.335-0.619,1.33-1.372l-0.086-11.666c0-0.028,0.001-0.058,0-0.086c-0.005-0.109-0.023-0.239-0.043-0.343
	c0.017-0.102,0.04-0.194,0.043-0.3c0.001-0.02,0-0.066,0-0.086V73.117c0-0.754-0.619-1.372-1.372-1.372L3371.277,71.744
	L3371.277,71.744z M3428.963,71.83c-0.754-0.004-1.411,0.576-1.415,1.33l-0.043,10.851v0.043c0.005,0.167,0.004,0.359,0.043,0.515
	c-0.004,0.056,0,0.115,0,0.172V95.42c0,0.754,0.619,1.33,1.372,1.33h1.801c0.754,0,1.373-0.576,1.372-1.33V84.741
	c0-0.219-0.028-0.444-0.086-0.643c0.001-0.029,0.043-0.057,0.043-0.086l0.043-10.808c0.004-0.754-0.576-1.368-1.33-1.373
	L3428.963,71.83L3428.963,71.83z M3412.322,72.216c-0.754-0.005-1.411,0.576-1.415,1.329l-0.043,10.808v0.086
	c0.005,0.152,0.01,0.329,0.043,0.472c-0.007,0.07-0.043,0.143-0.043,0.214l0.043,10.636c0,0.754,0.619,1.373,1.372,1.372h1.801
	c0.754,0,1.373-0.619,1.372-1.372l-0.043-10.636c0-0.157-0.013-0.324-0.043-0.472c0.007-0.059-0.003-0.111,0-0.172
	c0.001-0.029,0.043-0.057,0.043-0.086l0.043-10.808c0.004-0.754-0.576-1.368-1.33-1.372L3412.322,72.216L3412.322,72.216z
	 M3339.325,75.389l0.986,1.93l-0.558,1.587l-1.501-0.515L3339.325,75.389z M3460.873,76.505l0.558,1.201l-1.458,0.729l-0.3-0.643
	L3460.873,76.505z M3382.729,78.263l1.372,1.287l-0.6,2.445l-1.587-0.343L3382.729,78.263z"/>
<g>
	<path fill="#C73D27" d="M3558.44,51.091h-4.882V32.132h-6.252v-4.063h17.385v4.063h-6.251V51.091z"/>
	<path fill="#C73D27" d="M3584.107,51.091h-4.803V40.809c0-2.541-0.945-3.811-2.835-3.811c-1.344,0-2.314,0.457-2.913,1.37
		s-0.897,2.394-0.897,4.44v8.283h-4.803V26.589h4.803v4.992c0,0.389-0.037,1.302-0.11,2.74l-0.11,1.417h0.252
		c1.071-1.722,2.771-2.583,5.103-2.583c2.068,0,3.638,0.557,4.708,1.669c1.071,1.113,1.606,2.708,1.606,4.787V51.091z"/>
	<path fill="#C73D27" d="M3597.02,51.406c-2.834,0-5.05-0.782-6.646-2.346s-2.393-3.779-2.393-6.646c0-2.95,0.737-5.23,2.212-6.842
		s3.514-2.417,6.118-2.417c2.487,0,4.425,0.708,5.811,2.126s2.078,3.375,2.078,5.874v2.331h-11.354
		c0.053,1.365,0.457,2.431,1.213,3.197c0.756,0.767,1.815,1.149,3.181,1.149c1.061,0,2.063-0.11,3.008-0.331
		c0.944-0.22,1.932-0.572,2.96-1.055v3.716c-0.84,0.42-1.737,0.732-2.692,0.937S3598.395,51.406,3597.02,51.406z M3596.343,36.573
		c-1.019,0-1.816,0.323-2.394,0.968s-0.908,1.562-0.992,2.748h6.739c-0.021-1.186-0.33-2.102-0.929-2.748
		S3597.36,36.573,3596.343,36.573z"/>
	<path fill="#C73D27" d="M3626.309,33.155c0.65,0,1.191,0.047,1.622,0.142l-0.362,4.503c-0.389-0.105-0.861-0.158-1.417-0.158
		c-1.533,0-2.728,0.394-3.583,1.181c-0.855,0.788-1.283,1.89-1.283,3.307v8.96h-4.803V33.486h3.638l0.708,2.961h0.236
		c0.546-0.987,1.284-1.782,2.213-2.386S3625.217,33.155,3626.309,33.155z"/>
	<path fill="#C73D27" d="M3630.922,28.935c0-1.564,0.872-2.346,2.614-2.346s2.614,0.782,2.614,2.346c0,0.746-0.218,1.326-0.653,1.74
		c-0.437,0.415-1.09,0.622-1.961,0.622C3631.794,31.297,3630.922,30.51,3630.922,28.935z M3635.93,51.091h-4.803V33.486h4.803
		V51.091z"/>
	<path fill="#C73D27" d="M3656.291,33.486v2.441l-2.756,0.708c0.504,0.788,0.756,1.669,0.756,2.646c0,1.89-0.659,3.362-1.977,4.417
		c-1.317,1.055-3.146,1.583-5.488,1.583l-0.865-0.047l-0.709-0.079c-0.493,0.378-0.74,0.798-0.74,1.26
		c0,0.693,0.882,1.039,2.646,1.039h2.992c1.932,0,3.403,0.415,4.417,1.244c1.013,0.83,1.52,2.047,1.52,3.653
		c0,2.058-0.858,3.653-2.574,4.787c-1.717,1.134-4.182,1.701-7.394,1.701c-2.457,0-4.333-0.428-5.63-1.283
		c-1.297-0.856-1.944-2.055-1.944-3.598c0-1.061,0.33-1.948,0.992-2.662c0.661-0.714,1.632-1.223,2.913-1.527
		c-0.494-0.21-0.924-0.554-1.291-1.031c-0.368-0.478-0.552-0.984-0.552-1.52c0-0.671,0.194-1.23,0.583-1.677
		c0.388-0.446,0.95-0.884,1.685-1.315c-0.924-0.399-1.656-1.04-2.196-1.921c-0.541-0.882-0.812-1.921-0.812-3.118
		c0-1.921,0.625-3.407,1.874-4.457c1.249-1.049,3.034-1.575,5.354-1.575c0.493,0,1.078,0.045,1.756,0.134
		c0.677,0.089,1.109,0.155,1.299,0.197H3656.291z M3642.701,53.58c0,0.661,0.317,1.181,0.952,1.559
		c0.636,0.378,1.525,0.567,2.669,0.567c1.722,0,3.071-0.236,4.048-0.708c0.976-0.473,1.464-1.118,1.464-1.937
		c0-0.661-0.289-1.118-0.866-1.37s-1.47-0.378-2.677-0.378h-2.488c-0.882,0-1.619,0.207-2.212,0.622
		C3642.997,52.348,3642.701,52.897,3642.701,53.58z M3644.449,39.25c0,0.956,0.218,1.711,0.653,2.268
		c0.436,0.557,1.1,0.834,1.992,0.834c0.902,0,1.563-0.278,1.983-0.834c0.42-0.556,0.63-1.312,0.63-2.268
		c0-2.121-0.871-3.181-2.613-3.181C3645.331,36.069,3644.449,37.129,3644.449,39.25z"/>
	<path fill="#C73D27" d="M3675.439,51.091h-4.803V40.809c0-2.541-0.945-3.811-2.835-3.811c-1.344,0-2.314,0.457-2.913,1.37
		s-0.897,2.394-0.897,4.44v8.283h-4.803V26.589h4.803v4.992c0,0.389-0.037,1.302-0.11,2.74l-0.11,1.417h0.252
		c1.071-1.722,2.771-2.583,5.103-2.583c2.068,0,3.638,0.557,4.708,1.669c1.071,1.113,1.606,2.708,1.606,4.787V51.091z"/>
	<path fill="#C73D27" d="M3687.801,47.58c0.84,0,1.848-0.184,3.023-0.551v3.574c-1.197,0.536-2.667,0.803-4.409,0.803
		c-1.921,0-3.32-0.485-4.196-1.457c-0.877-0.971-1.315-2.428-1.315-4.37v-8.487h-2.299v-2.031l2.646-1.606l1.386-3.716h3.07v3.748
		h4.929v3.606h-4.929v8.487c0,0.683,0.191,1.187,0.575,1.512C3686.664,47.417,3687.171,47.58,3687.801,47.58z"/>
	<path fill="#C73D27" d="M3710.177,47.58c0.84,0,1.848-0.184,3.023-0.551v3.574c-1.197,0.536-2.667,0.803-4.409,0.803
		c-1.921,0-3.32-0.485-4.196-1.457c-0.877-0.971-1.315-2.428-1.315-4.37v-8.487h-2.299v-2.031l2.646-1.606l1.386-3.716h3.07v3.748
		h4.929v3.606h-4.929v8.487c0,0.683,0.191,1.187,0.575,1.512C3709.04,47.417,3709.547,47.58,3710.177,47.58z"/>
	<path fill="#C73D27" d="M3732.758,42.257c0,2.866-0.756,5.107-2.268,6.724c-1.512,1.617-3.616,2.425-6.314,2.425
		c-1.69,0-3.181-0.37-4.473-1.11c-1.291-0.74-2.283-1.803-2.976-3.188c-0.693-1.386-1.039-3.002-1.039-4.85
		c0-2.876,0.75-5.112,2.251-6.708c1.502-1.596,3.611-2.394,6.331-2.394c1.689,0,3.181,0.368,4.472,1.103s2.283,1.79,2.977,3.165
		C3732.411,38.798,3732.758,40.41,3732.758,42.257z M3720.585,42.257c0,1.743,0.286,3.06,0.858,3.952
		c0.572,0.893,1.504,1.339,2.795,1.339c1.281,0,2.202-0.443,2.764-1.331s0.843-2.207,0.843-3.96c0-1.743-0.283-3.05-0.851-3.921
		c-0.566-0.872-1.496-1.307-2.787-1.307c-1.281,0-2.204,0.433-2.771,1.299C3720.869,39.194,3720.585,40.504,3720.585,42.257z"/>
	<path fill="#C73D27" d="M3761.103,42.257c0,2.866-0.756,5.107-2.268,6.724c-1.512,1.617-3.616,2.425-6.314,2.425
		c-1.69,0-3.181-0.37-4.473-1.11c-1.291-0.74-2.283-1.803-2.976-3.188c-0.693-1.386-1.039-3.002-1.039-4.85
		c0-2.876,0.75-5.112,2.251-6.708c1.502-1.596,3.611-2.394,6.331-2.394c1.689,0,3.181,0.368,4.472,1.103s2.283,1.79,2.977,3.165
		C3760.756,38.798,3761.103,40.41,3761.103,42.257z M3748.93,42.257c0,1.743,0.286,3.06,0.858,3.952
		c0.572,0.893,1.504,1.339,2.795,1.339c1.281,0,2.202-0.443,2.764-1.331s0.843-2.207,0.843-3.96c0-1.743-0.283-3.05-0.851-3.921
		c-0.566-0.872-1.496-1.307-2.787-1.307c-1.281,0-2.204,0.433-2.771,1.299C3749.214,39.194,3748.93,40.504,3748.93,42.257z"/>
	<path fill="#C73D27" d="M3774.896,33.155c0.65,0,1.191,0.047,1.622,0.142l-0.362,4.503c-0.389-0.105-0.861-0.158-1.417-0.158
		c-1.533,0-2.728,0.394-3.583,1.181c-0.855,0.788-1.283,1.89-1.283,3.307v8.96h-4.803V33.486h3.638l0.708,2.961h0.236
		c0.546-0.987,1.284-1.782,2.213-2.386S3773.805,33.155,3774.896,33.155z"/>
	<path fill="#C73D27" d="M3795.037,33.486v2.441l-2.756,0.708c0.504,0.788,0.756,1.669,0.756,2.646c0,1.89-0.659,3.362-1.977,4.417
		c-1.317,1.055-3.146,1.583-5.488,1.583l-0.865-0.047l-0.709-0.079c-0.493,0.378-0.74,0.798-0.74,1.26
		c0,0.693,0.882,1.039,2.646,1.039h2.992c1.932,0,3.403,0.415,4.417,1.244c1.013,0.83,1.52,2.047,1.52,3.653
		c0,2.058-0.858,3.653-2.574,4.787c-1.717,1.134-4.182,1.701-7.394,1.701c-2.457,0-4.333-0.428-5.63-1.283
		c-1.297-0.856-1.944-2.055-1.944-3.598c0-1.061,0.33-1.948,0.992-2.662c0.661-0.714,1.632-1.223,2.913-1.527
		c-0.494-0.21-0.924-0.554-1.291-1.031c-0.368-0.478-0.552-0.984-0.552-1.52c0-0.671,0.194-1.23,0.583-1.677
		c0.388-0.446,0.95-0.884,1.685-1.315c-0.924-0.399-1.656-1.04-2.196-1.921c-0.541-0.882-0.812-1.921-0.812-3.118
		c0-1.921,0.625-3.407,1.874-4.457c1.249-1.049,3.034-1.575,5.354-1.575c0.493,0,1.078,0.045,1.756,0.134
		c0.677,0.089,1.109,0.155,1.299,0.197H3795.037z M3781.447,53.58c0,0.661,0.317,1.181,0.952,1.559
		c0.636,0.378,1.525,0.567,2.669,0.567c1.722,0,3.071-0.236,4.048-0.708c0.976-0.473,1.464-1.118,1.464-1.937
		c0-0.661-0.289-1.118-0.866-1.37s-1.47-0.378-2.677-0.378h-2.488c-0.882,0-1.619,0.207-2.212,0.622
		C3781.743,52.348,3781.447,52.897,3781.447,53.58z M3783.195,39.25c0,0.956,0.218,1.711,0.653,2.268
		c0.436,0.557,1.1,0.834,1.992,0.834c0.902,0,1.563-0.278,1.983-0.834c0.42-0.556,0.63-1.312,0.63-2.268
		c0-2.121-0.871-3.181-2.613-3.181C3784.077,36.069,3783.195,37.129,3783.195,39.25z"/>
	<path fill="#C73D27" d="M3809.115,51.091l-0.93-2.394h-0.126c-0.809,1.019-1.64,1.724-2.495,2.118
		c-0.856,0.394-1.972,0.59-3.347,0.59c-1.69,0-3.021-0.483-3.992-1.449c-0.971-0.966-1.456-2.341-1.456-4.126
		c0-1.868,0.653-3.246,1.96-4.133c1.308-0.887,3.278-1.378,5.913-1.472l3.056-0.095V39.36c0-1.785-0.914-2.677-2.74-2.677
		c-1.407,0-3.061,0.425-4.961,1.276l-1.59-3.244c2.025-1.06,4.272-1.59,6.739-1.59c2.362,0,4.173,0.514,5.433,1.543
		c1.26,1.029,1.89,2.593,1.89,4.693v11.731H3809.115z M3807.698,42.934l-1.858,0.063c-1.396,0.042-2.436,0.294-3.118,0.756
		s-1.023,1.165-1.023,2.11c0,1.354,0.776,2.031,2.33,2.031c1.113,0,2.003-0.32,2.67-0.96c0.666-0.64,1-1.491,1-2.551V42.934z"/>
	<path fill="#C73D27" d="M3833.665,51.091h-4.803V40.809c0-1.27-0.226-2.223-0.677-2.858c-0.452-0.635-1.171-0.953-2.158-0.953
		c-1.344,0-2.314,0.449-2.913,1.347c-0.599,0.897-0.897,2.386-0.897,4.464v8.283h-4.803V33.486h3.669l0.646,2.252h0.268
		c0.536-0.85,1.273-1.493,2.213-1.929s2.008-0.654,3.204-0.654c2.048,0,3.601,0.554,4.661,1.662s1.591,2.706,1.591,4.795V51.091z"/>
	<path fill="#C73D27" d="M3838.404,28.935c0-1.564,0.872-2.346,2.614-2.346s2.614,0.782,2.614,2.346c0,0.746-0.218,1.326-0.653,1.74
		c-0.437,0.415-1.09,0.622-1.961,0.622C3839.276,31.297,3838.404,30.51,3838.404,28.935z M3843.412,51.091h-4.803V33.486h4.803
		V51.091z"/>
	<path fill="#C73D27" d="M3860.702,51.091h-13.904v-2.834l8.157-11.102h-7.669v-3.669h13.133v3.118l-7.937,10.818h8.22V51.091z"/>
	<path fill="#C73D27" d="M3872.15,51.406c-2.834,0-5.05-0.782-6.646-2.346s-2.393-3.779-2.393-6.646c0-2.95,0.737-5.23,2.212-6.842
		s3.514-2.417,6.118-2.417c2.487,0,4.425,0.708,5.811,2.126s2.078,3.375,2.078,5.874v2.331h-11.354
		c0.053,1.365,0.457,2.431,1.213,3.197c0.756,0.767,1.815,1.149,3.181,1.149c1.061,0,2.063-0.11,3.008-0.331
		c0.944-0.22,1.932-0.572,2.96-1.055v3.716c-0.84,0.42-1.737,0.732-2.692,0.937S3873.525,51.406,3872.15,51.406z M3871.474,36.573
		c-1.019,0-1.816,0.323-2.394,0.968s-0.908,1.562-0.992,2.748h6.739c-0.021-1.186-0.33-2.102-0.929-2.748
		S3872.491,36.573,3871.474,36.573z"/>
	<path fill="#C73D27" d="M3531.528,84.563c0,1.806-0.628,3.181-1.882,4.125c-1.255,0.945-3.132,1.417-5.63,1.417
		c-1.281,0-2.373-0.086-3.275-0.26c-0.903-0.173-1.748-0.428-2.535-0.764v-3.968c0.892,0.42,1.897,0.771,3.016,1.055
		c1.118,0.284,2.102,0.425,2.952,0.425c1.742,0,2.614-0.504,2.614-1.512c0-0.378-0.116-0.685-0.347-0.921
		c-0.23-0.236-0.63-0.504-1.196-0.803c-0.567-0.299-1.323-0.648-2.268-1.047c-1.354-0.567-2.35-1.092-2.984-1.575
		c-0.636-0.482-1.098-1.037-1.386-1.661c-0.289-0.625-0.433-1.394-0.433-2.307c0-1.564,0.605-2.774,1.818-3.629
		s2.932-1.284,5.157-1.284c2.12,0,4.184,0.462,6.188,1.386l-1.449,3.464c-0.881-0.378-1.706-0.688-2.472-0.929
		c-0.767-0.242-1.549-0.362-2.347-0.362c-1.417,0-2.126,0.383-2.126,1.149c0,0.431,0.229,0.803,0.686,1.118
		c0.456,0.315,1.456,0.782,3,1.401c1.375,0.557,2.383,1.076,3.023,1.559c0.64,0.483,1.112,1.039,1.417,1.669
		S3531.528,83.692,3531.528,84.563z"/>
	<path fill="#C73D27" d="M3551.526,89.792h-4.803V79.509c0-2.541-0.945-3.811-2.835-3.811c-1.344,0-2.314,0.457-2.913,1.37
		s-0.897,2.394-0.897,4.44v8.283h-4.803V65.289h4.803v4.992c0,0.389-0.037,1.302-0.11,2.74l-0.11,1.417h0.252
		c1.071-1.722,2.771-2.583,5.103-2.583c2.068,0,3.638,0.557,4.708,1.669c1.071,1.113,1.606,2.708,1.606,4.787V89.792z"/>
	<path fill="#C73D27" d="M3572.47,80.958c0,2.866-0.756,5.107-2.268,6.724c-1.512,1.617-3.616,2.425-6.314,2.425
		c-1.69,0-3.181-0.37-4.473-1.11c-1.291-0.74-2.283-1.803-2.976-3.188c-0.693-1.386-1.039-3.002-1.039-4.85
		c0-2.876,0.75-5.112,2.251-6.708c1.502-1.596,3.611-2.394,6.331-2.394c1.689,0,3.181,0.368,4.472,1.103s2.283,1.79,2.977,3.165
		C3572.123,77.499,3572.47,79.11,3572.47,80.958z M3560.297,80.958c0,1.743,0.286,3.06,0.858,3.952
		c0.572,0.893,1.504,1.339,2.795,1.339c1.281,0,2.202-0.443,2.764-1.331s0.843-2.207,0.843-3.96c0-1.743-0.283-3.05-0.851-3.921
		c-0.566-0.872-1.496-1.307-2.787-1.307c-1.281,0-2.204,0.433-2.771,1.299C3560.581,77.895,3560.297,79.204,3560.297,80.958z"/>
	<path fill="#C73D27" d="M3588.909,89.792l-0.646-2.252h-0.252c-0.515,0.819-1.244,1.452-2.189,1.897
		c-0.944,0.446-2.021,0.669-3.228,0.669c-2.068,0-3.627-0.554-4.677-1.661s-1.575-2.701-1.575-4.779v-11.48h4.803v10.283
		c0,1.27,0.226,2.223,0.678,2.858c0.451,0.635,1.17,0.953,2.157,0.953c1.344,0,2.314-0.449,2.913-1.346s0.897-2.386,0.897-4.464
		v-8.283h4.803v17.605H3588.909z"/>
	<path fill="#C73D27" d="M3602.436,89.792h-4.803V65.289h4.803V89.792z"/>
	<path fill="#C73D27" d="M3613.049,90.106c-2.068,0-3.692-0.803-4.873-2.409c-1.182-1.606-1.771-3.832-1.771-6.677
		c0-2.887,0.601-5.136,1.803-6.748s2.857-2.417,4.968-2.417c2.215,0,3.905,0.861,5.071,2.583h0.157
		c-0.242-1.312-0.362-2.482-0.362-3.512v-5.637h4.818v24.502h-3.685l-0.929-2.283h-0.205
		C3616.949,89.24,3615.285,90.106,3613.049,90.106z M3614.734,86.28c1.228,0,2.128-0.356,2.7-1.071
		c0.572-0.714,0.885-1.926,0.937-3.637v-0.52c0-1.89-0.291-3.244-0.873-4.063c-0.583-0.819-1.53-1.229-2.843-1.229
		c-1.071,0-1.903,0.454-2.496,1.362s-0.89,2.228-0.89,3.96c0,1.732,0.299,3.031,0.897,3.897
		C3612.766,85.847,3613.621,86.28,3614.734,86.28z"/>
	<path fill="#C73D27" d="M3646.055,71.855c2.078,0,3.705,0.811,4.881,2.433s1.764,3.845,1.764,6.669c0,2.908-0.605,5.16-1.818,6.755
		s-2.863,2.394-4.952,2.394c-2.068,0-3.69-0.75-4.866-2.252h-0.33l-0.804,1.937h-3.669V65.289h4.803v5.701
		c0,0.724-0.063,1.884-0.188,3.48h0.188C3642.186,72.727,3643.85,71.855,3646.055,71.855z M3644.512,75.698
		c-1.187,0-2.053,0.365-2.599,1.095s-0.829,1.934-0.851,3.614v0.52c0,1.89,0.281,3.244,0.843,4.063s1.451,1.228,2.669,1.228
		c0.986,0,1.771-0.454,2.354-1.362c0.582-0.908,0.874-2.229,0.874-3.96c0-1.732-0.294-3.031-0.882-3.897
		C3646.332,76.131,3645.529,75.698,3644.512,75.698z"/>
	<path fill="#C73D27" d="M3664.636,90.106c-2.834,0-5.05-0.782-6.646-2.346s-2.393-3.779-2.393-6.646c0-2.95,0.737-5.23,2.212-6.842
		s3.514-2.417,6.118-2.417c2.487,0,4.425,0.708,5.811,2.126s2.078,3.375,2.078,5.874v2.331h-11.354
		c0.053,1.365,0.457,2.431,1.213,3.197c0.756,0.767,1.815,1.149,3.181,1.149c1.061,0,2.063-0.11,3.008-0.331
		c0.944-0.22,1.932-0.572,2.96-1.055v3.716c-0.84,0.42-1.737,0.732-2.692,0.937S3666.011,90.106,3664.636,90.106z M3663.959,75.273
		c-1.019,0-1.816,0.323-2.394,0.968s-0.908,1.562-0.992,2.748h6.739c-0.021-1.186-0.33-2.102-0.929-2.748
		S3664.977,75.273,3663.959,75.273z"/>
	<path fill="#C73D27" d="M3699.422,72.186v2.441l-2.756,0.708c0.504,0.788,0.756,1.669,0.756,2.646c0,1.89-0.659,3.362-1.977,4.417
		c-1.317,1.055-3.146,1.583-5.488,1.583l-0.865-0.047l-0.709-0.079c-0.493,0.378-0.74,0.798-0.74,1.26
		c0,0.693,0.882,1.039,2.646,1.039h2.992c1.932,0,3.403,0.415,4.417,1.244c1.013,0.83,1.52,2.047,1.52,3.653
		c0,2.058-0.858,3.653-2.574,4.787c-1.717,1.134-4.182,1.701-7.394,1.701c-2.457,0-4.333-0.428-5.63-1.283
		c-1.297-0.856-1.944-2.055-1.944-3.598c0-1.061,0.33-1.948,0.992-2.662c0.661-0.714,1.632-1.223,2.913-1.527
		c-0.494-0.21-0.924-0.554-1.291-1.031c-0.368-0.478-0.552-0.984-0.552-1.52c0-0.671,0.194-1.23,0.583-1.677
		c0.388-0.446,0.95-0.884,1.685-1.315c-0.924-0.399-1.656-1.04-2.196-1.921c-0.541-0.882-0.812-1.921-0.812-3.118
		c0-1.921,0.625-3.407,1.874-4.457c1.249-1.049,3.034-1.575,5.354-1.575c0.493,0,1.078,0.045,1.756,0.134
		c0.677,0.089,1.109,0.155,1.299,0.197H3699.422z M3685.832,92.28c0,0.661,0.317,1.181,0.952,1.559
		c0.636,0.378,1.525,0.567,2.669,0.567c1.722,0,3.071-0.236,4.048-0.708c0.976-0.473,1.464-1.118,1.464-1.937
		c0-0.661-0.289-1.118-0.866-1.37s-1.47-0.378-2.677-0.378h-2.488c-0.882,0-1.619,0.207-2.212,0.622
		C3686.128,91.048,3685.832,91.597,3685.832,92.28z M3687.58,77.95c0,0.956,0.218,1.711,0.653,2.268
		c0.436,0.557,1.1,0.834,1.992,0.834c0.902,0,1.563-0.278,1.983-0.834c0.42-0.556,0.63-1.312,0.63-2.268
		c0-2.121-0.871-3.181-2.613-3.181C3688.462,74.769,3687.58,75.829,3687.58,77.95z"/>
	<path fill="#C73D27" d="M3714.791,89.792l-0.646-2.252h-0.252c-0.515,0.819-1.244,1.452-2.189,1.897
		c-0.944,0.446-2.021,0.669-3.228,0.669c-2.068,0-3.627-0.554-4.677-1.661s-1.575-2.701-1.575-4.779v-11.48h4.803v10.283
		c0,1.27,0.226,2.223,0.678,2.858c0.451,0.635,1.17,0.953,2.157,0.953c1.344,0,2.314-0.449,2.913-1.346s0.897-2.386,0.897-4.464
		v-8.283h4.803v17.605H3714.791z"/>
	<path fill="#C73D27" d="M3734.695,89.792l-0.93-2.394h-0.126c-0.809,1.019-1.64,1.724-2.495,2.118
		c-0.856,0.394-1.972,0.59-3.347,0.59c-1.69,0-3.021-0.483-3.992-1.449c-0.971-0.966-1.456-2.341-1.456-4.126
		c0-1.868,0.653-3.246,1.96-4.133c1.308-0.887,3.278-1.378,5.913-1.472l3.056-0.095V78.06c0-1.785-0.914-2.677-2.74-2.677
		c-1.407,0-3.061,0.425-4.961,1.276l-1.59-3.244c2.025-1.06,4.272-1.59,6.739-1.59c2.362,0,4.173,0.514,5.433,1.543
		c1.26,1.029,1.89,2.593,1.89,4.693v11.731H3734.695z M3733.278,81.634l-1.858,0.063c-1.396,0.042-2.436,0.294-3.118,0.756
		s-1.023,1.165-1.023,2.11c0,1.354,0.776,2.031,2.33,2.031c1.113,0,2.003-0.32,2.67-0.96c0.666-0.64,1-1.491,1-2.551V81.634z"/>
	<path fill="#C73D27" d="M3752.82,71.855c0.65,0,1.191,0.047,1.622,0.142l-0.362,4.503c-0.389-0.105-0.861-0.158-1.417-0.158
		c-1.533,0-2.728,0.394-3.583,1.181c-0.855,0.788-1.283,1.89-1.283,3.307v8.96h-4.803V72.186h3.638l0.708,2.961h0.236
		c0.546-0.987,1.284-1.782,2.213-2.386S3751.729,71.855,3752.82,71.855z"/>
	<path fill="#C73D27" d="M3768.819,89.792l-0.93-2.394h-0.126c-0.809,1.019-1.64,1.724-2.495,2.118
		c-0.856,0.394-1.972,0.59-3.347,0.59c-1.69,0-3.021-0.483-3.992-1.449c-0.971-0.966-1.456-2.341-1.456-4.126
		c0-1.868,0.653-3.246,1.96-4.133c1.308-0.887,3.278-1.378,5.913-1.472l3.056-0.095V78.06c0-1.785-0.914-2.677-2.74-2.677
		c-1.407,0-3.061,0.425-4.961,1.276l-1.59-3.244c2.025-1.06,4.272-1.59,6.739-1.59c2.362,0,4.173,0.514,5.433,1.543
		c1.26,1.029,1.89,2.593,1.89,4.693v11.731H3768.819z M3767.402,81.634l-1.858,0.063c-1.396,0.042-2.436,0.294-3.118,0.756
		s-1.023,1.165-1.023,2.11c0,1.354,0.776,2.031,2.33,2.031c1.113,0,2.003-0.32,2.67-0.96c0.666-0.64,1-1.491,1-2.551V81.634z"/>
	<path fill="#C73D27" d="M3793.369,89.792h-4.803V79.509c0-1.27-0.226-2.223-0.677-2.858c-0.452-0.635-1.171-0.953-2.158-0.953
		c-1.344,0-2.314,0.449-2.913,1.347c-0.599,0.897-0.897,2.386-0.897,4.464v8.283h-4.803V72.186h3.669l0.646,2.252h0.268
		c0.536-0.85,1.273-1.493,2.213-1.929s2.008-0.654,3.204-0.654c2.048,0,3.601,0.554,4.661,1.662s1.591,2.706,1.591,4.795V89.792z"/>
	<path fill="#C73D27" d="M3805.73,86.28c0.84,0,1.848-0.184,3.023-0.551v3.574c-1.197,0.536-2.667,0.803-4.409,0.803
		c-1.921,0-3.32-0.485-4.196-1.457c-0.877-0.971-1.315-2.428-1.315-4.37v-8.487h-2.299v-2.031l2.646-1.606l1.386-3.716h3.07v3.748
		h4.929v3.606h-4.929v8.487c0,0.683,0.191,1.187,0.575,1.512C3804.594,86.117,3805.101,86.28,3805.73,86.28z"/>
	<path fill="#C73D27" d="M3820.28,90.106c-2.834,0-5.05-0.782-6.646-2.346s-2.393-3.779-2.393-6.646c0-2.95,0.737-5.23,2.212-6.842
		s3.514-2.417,6.118-2.417c2.487,0,4.425,0.708,5.811,2.126s2.078,3.375,2.078,5.874v2.331h-11.354
		c0.053,1.365,0.457,2.431,1.213,3.197c0.756,0.767,1.815,1.149,3.181,1.149c1.061,0,2.063-0.11,3.008-0.331
		c0.944-0.22,1.932-0.572,2.96-1.055v3.716c-0.84,0.42-1.737,0.732-2.692,0.937S3821.655,90.106,3820.28,90.106z M3819.604,75.273
		c-1.019,0-1.816,0.323-2.394,0.968s-0.908,1.562-0.992,2.748h6.739c-0.021-1.186-0.33-2.102-0.929-2.748
		S3820.621,75.273,3819.604,75.273z"/>
	<path fill="#C73D27" d="M3839.334,90.106c-2.834,0-5.05-0.782-6.646-2.346s-2.393-3.779-2.393-6.646c0-2.95,0.737-5.23,2.212-6.842
		s3.514-2.417,6.118-2.417c2.487,0,4.425,0.708,5.811,2.126s2.078,3.375,2.078,5.874v2.331h-11.354
		c0.053,1.365,0.457,2.431,1.213,3.197c0.756,0.767,1.815,1.149,3.181,1.149c1.061,0,2.063-0.11,3.008-0.331
		c0.944-0.22,1.932-0.572,2.96-1.055v3.716c-0.84,0.42-1.737,0.732-2.692,0.937S3840.709,90.106,3839.334,90.106z M3838.657,75.273
		c-1.019,0-1.816,0.323-2.394,0.968s-0.908,1.562-0.992,2.748h6.739c-0.021-1.186-0.33-2.102-0.929-2.748
		S3839.675,75.273,3838.657,75.273z"/>
	<path fill="#C73D27" d="M3855.994,90.106c-2.068,0-3.692-0.803-4.873-2.409c-1.182-1.606-1.771-3.832-1.771-6.677
		c0-2.887,0.601-5.136,1.803-6.748s2.857-2.417,4.968-2.417c2.215,0,3.905,0.861,5.071,2.583h0.157
		c-0.242-1.312-0.362-2.482-0.362-3.512v-5.637h4.818v24.502h-3.685l-0.929-2.283h-0.205
		C3859.895,89.24,3858.23,90.106,3855.994,90.106z M3857.68,86.28c1.228,0,2.128-0.356,2.7-1.071
		c0.572-0.714,0.885-1.926,0.937-3.637v-0.52c0-1.89-0.291-3.244-0.873-4.063c-0.583-0.819-1.53-1.229-2.843-1.229
		c-1.071,0-1.903,0.454-2.496,1.362s-0.89,2.228-0.89,3.96c0,1.732,0.299,3.031,0.897,3.897
		C3855.711,85.847,3856.566,86.28,3857.68,86.28z"/>
	<path fill="#C73D27" d="M3886.622,86.28c0.84,0,1.848-0.184,3.023-0.551v3.574c-1.197,0.536-2.667,0.803-4.409,0.803
		c-1.921,0-3.32-0.485-4.196-1.457c-0.877-0.971-1.315-2.428-1.315-4.37v-8.487h-2.299v-2.031l2.646-1.606l1.386-3.716h3.07v3.748
		h4.929v3.606h-4.929v8.487c0,0.683,0.191,1.187,0.575,1.512C3885.485,86.117,3885.992,86.28,3886.622,86.28z"/>
	<path fill="#C73D27" d="M3909.203,80.958c0,2.866-0.756,5.107-2.268,6.724c-1.512,1.617-3.616,2.425-6.314,2.425
		c-1.69,0-3.181-0.37-4.473-1.11c-1.291-0.74-2.283-1.803-2.976-3.188c-0.693-1.386-1.039-3.002-1.039-4.85
		c0-2.876,0.75-5.112,2.251-6.708c1.502-1.596,3.611-2.394,6.331-2.394c1.689,0,3.181,0.368,4.472,1.103s2.283,1.79,2.977,3.165
		C3908.856,77.499,3909.203,79.11,3909.203,80.958z M3897.03,80.958c0,1.743,0.286,3.06,0.858,3.952
		c0.572,0.893,1.504,1.339,2.795,1.339c1.281,0,2.202-0.443,2.764-1.331s0.843-2.207,0.843-3.96c0-1.743-0.283-3.05-0.851-3.921
		c-0.566-0.872-1.496-1.307-2.787-1.307c-1.281,0-2.204,0.433-2.771,1.299C3897.314,77.895,3897.03,79.204,3897.03,80.958z"/>
	<path fill="#C73D27" d="M3597.044,128.491l-0.93-2.394h-0.126c-0.809,1.019-1.64,1.724-2.495,2.118
		c-0.856,0.394-1.972,0.59-3.347,0.59c-1.69,0-3.021-0.483-3.992-1.449c-0.971-0.966-1.456-2.341-1.456-4.126
		c0-1.868,0.653-3.246,1.96-4.133c1.308-0.887,3.278-1.378,5.913-1.472l3.056-0.095v-0.771c0-1.785-0.914-2.677-2.74-2.677
		c-1.407,0-3.061,0.425-4.961,1.276l-1.59-3.244c2.025-1.06,4.272-1.59,6.739-1.59c2.362,0,4.173,0.514,5.433,1.543
		c1.26,1.029,1.89,2.593,1.89,4.693v11.731H3597.044z M3595.627,120.334l-1.858,0.063c-1.396,0.042-2.436,0.294-3.118,0.756
		s-1.023,1.165-1.023,2.11c0,1.354,0.776,2.031,2.33,2.031c1.113,0,2.003-0.32,2.67-0.96c0.666-0.64,1-1.491,1-2.551V120.334z"/>
	<path fill="#C73D27" d="M3610.146,128.491h-4.803v-24.502h4.803V128.491z"/>
	<path fill="#C73D27" d="M3619.987,128.491h-4.803v-24.502h4.803V128.491z"/>
	<path fill="#C73D27" d="M3643.136,114.492h-4.157v13.999h-4.803v-13.999h-2.646v-2.315l2.646-1.292v-1.291
		c0-2.005,0.493-3.47,1.48-4.394c0.986-0.923,2.566-1.386,4.74-1.386c1.658,0,3.133,0.247,4.425,0.74l-1.229,3.527
		c-0.966-0.304-1.858-0.457-2.677-0.457c-0.683,0-1.176,0.202-1.48,0.606c-0.305,0.404-0.457,0.921-0.457,1.551v1.102h4.157V114.492
		z"/>
	<path fill="#C73D27" d="M3661.891,119.657c0,2.866-0.756,5.107-2.268,6.724c-1.512,1.617-3.616,2.425-6.314,2.425
		c-1.69,0-3.181-0.37-4.473-1.11c-1.291-0.74-2.283-1.803-2.976-3.188c-0.693-1.386-1.039-3.002-1.039-4.85
		c0-2.876,0.75-5.112,2.251-6.708c1.502-1.596,3.611-2.394,6.331-2.394c1.689,0,3.181,0.368,4.472,1.103s2.283,1.79,2.977,3.165
		C3661.544,116.198,3661.891,117.81,3661.891,119.657z M3649.718,119.657c0,1.743,0.286,3.06,0.858,3.952
		c0.572,0.893,1.504,1.339,2.795,1.339c1.281,0,2.202-0.443,2.764-1.331s0.843-2.207,0.843-3.96c0-1.743-0.283-3.05-0.851-3.921
		c-0.566-0.872-1.496-1.307-2.787-1.307c-1.281,0-2.204,0.433-2.771,1.299C3650.002,116.594,3649.718,117.904,3649.718,119.657z"/>
	<path fill="#C73D27" d="M3681.858,119.657c0,2.866-0.756,5.107-2.268,6.724c-1.512,1.617-3.616,2.425-6.314,2.425
		c-1.69,0-3.181-0.37-4.473-1.11c-1.291-0.74-2.283-1.803-2.976-3.188c-0.693-1.386-1.039-3.002-1.039-4.85
		c0-2.876,0.75-5.112,2.251-6.708c1.502-1.596,3.611-2.394,6.331-2.394c1.689,0,3.181,0.368,4.472,1.103s2.283,1.79,2.977,3.165
		C3681.512,116.198,3681.858,117.81,3681.858,119.657z M3669.686,119.657c0,1.743,0.286,3.06,0.858,3.952
		c0.572,0.893,1.504,1.339,2.795,1.339c1.281,0,2.202-0.443,2.764-1.331s0.843-2.207,0.843-3.96c0-1.743-0.283-3.05-0.851-3.921
		c-0.566-0.872-1.496-1.307-2.787-1.307c-1.281,0-2.204,0.433-2.771,1.299C3669.97,116.594,3669.686,117.904,3669.686,119.657z"/>
	<path fill="#C73D27" d="M3691.4,128.806c-2.068,0-3.692-0.803-4.873-2.409c-1.182-1.606-1.771-3.832-1.771-6.677
		c0-2.887,0.601-5.136,1.803-6.748s2.857-2.417,4.968-2.417c2.215,0,3.905,0.861,5.071,2.583h0.157
		c-0.242-1.312-0.362-2.482-0.362-3.512v-5.637h4.818v24.502h-3.685l-0.929-2.283h-0.205
		C3695.301,127.94,3693.637,128.806,3691.4,128.806z M3693.086,124.979c1.228,0,2.128-0.356,2.7-1.071
		c0.572-0.714,0.885-1.926,0.937-3.637v-0.52c0-1.89-0.291-3.244-0.873-4.063c-0.583-0.819-1.53-1.229-2.843-1.229
		c-1.071,0-1.903,0.454-2.496,1.362s-0.89,2.228-0.89,3.96c0,1.732,0.299,3.031,0.897,3.897
		C3691.117,124.546,3691.973,124.979,3693.086,124.979z"/>
	<path fill="#C73D27" d="M3729.083,128.491l-1.354-6.157l-1.826-7.779h-0.11l-3.213,13.936h-5.165l-5.008-17.605h4.787l2.032,7.795
		c0.325,1.396,0.655,3.323,0.991,5.779h0.095c0.042-0.798,0.226-2.063,0.552-3.795l0.252-1.339l2.173-8.44h5.291l2.063,8.44
		c0.042,0.231,0.107,0.573,0.197,1.024c0.089,0.451,0.176,0.932,0.26,1.441s0.16,1.008,0.229,1.496
		c0.067,0.488,0.107,0.879,0.118,1.173h0.094c0.095-0.756,0.263-1.792,0.504-3.11c0.242-1.317,0.415-2.207,0.52-2.669l2.11-7.795
		h4.709l-5.071,17.605H3729.083z"/>
	<path fill="#C73D27" d="M3758.215,119.657c0,2.866-0.756,5.107-2.268,6.724c-1.512,1.617-3.616,2.425-6.314,2.425
		c-1.69,0-3.181-0.37-4.473-1.11c-1.291-0.74-2.283-1.803-2.976-3.188c-0.693-1.386-1.039-3.002-1.039-4.85
		c0-2.876,0.75-5.112,2.251-6.708c1.502-1.596,3.611-2.394,6.331-2.394c1.689,0,3.181,0.368,4.472,1.103s2.283,1.79,2.977,3.165
		C3757.868,116.198,3758.215,117.81,3758.215,119.657z M3746.042,119.657c0,1.743,0.286,3.06,0.858,3.952
		c0.572,0.893,1.504,1.339,2.795,1.339c1.281,0,2.202-0.443,2.764-1.331s0.843-2.207,0.843-3.96c0-1.743-0.283-3.05-0.851-3.921
		c-0.566-0.872-1.496-1.307-2.787-1.307c-1.281,0-2.204,0.433-2.771,1.299C3746.326,116.594,3746.042,117.904,3746.042,119.657z"/>
	<path fill="#C73D27" d="M3772.01,110.555c0.65,0,1.191,0.047,1.622,0.142l-0.362,4.503c-0.389-0.105-0.861-0.158-1.417-0.158
		c-1.533,0-2.728,0.394-3.583,1.181c-0.855,0.788-1.283,1.89-1.283,3.307v8.96h-4.803v-17.605h3.638l0.708,2.961h0.236
		c0.546-0.987,1.284-1.782,2.213-2.386S3770.918,110.555,3772.01,110.555z"/>
	<path fill="#C73D27" d="M3781.442,118.917l2.094-2.677l4.929-5.354h5.417l-6.991,7.638l7.417,9.968h-5.543l-5.071-7.133
		l-2.063,1.653v5.48h-4.803v-24.502h4.803v10.928l-0.252,4H3781.442z"/>
	<path fill="#C73D27" d="M3804.795,128.806c-2.834,0-5.05-0.782-6.646-2.346s-2.393-3.779-2.393-6.646
		c0-2.95,0.737-5.23,2.212-6.842s3.514-2.417,6.118-2.417c2.487,0,4.425,0.708,5.811,2.126s2.078,3.375,2.078,5.874v2.331h-11.354
		c0.053,1.365,0.457,2.431,1.213,3.197c0.756,0.767,1.815,1.149,3.181,1.149c1.061,0,2.063-0.11,3.008-0.331
		c0.944-0.22,1.932-0.572,2.96-1.055v3.716c-0.84,0.42-1.737,0.732-2.692,0.937S3806.17,128.806,3804.795,128.806z
		 M3804.118,113.973c-1.019,0-1.816,0.323-2.394,0.968s-0.908,1.562-0.992,2.748h6.739c-0.021-1.186-0.33-2.102-0.929-2.748
		S3805.136,113.973,3804.118,113.973z"/>
	<path fill="#C73D27" d="M3825.707,110.555c0.65,0,1.191,0.047,1.622,0.142l-0.362,4.503c-0.389-0.105-0.861-0.158-1.417-0.158
		c-1.533,0-2.728,0.394-3.583,1.181c-0.855,0.788-1.283,1.89-1.283,3.307v8.96h-4.803v-17.605h3.638l0.708,2.961h0.236
		c0.546-0.987,1.284-1.782,2.213-2.386S3824.615,110.555,3825.707,110.555z"/>
	<path fill="#C73D27" d="M3842.809,123.263c0,1.806-0.628,3.181-1.882,4.125c-1.255,0.945-3.132,1.417-5.63,1.417
		c-1.281,0-2.373-0.086-3.275-0.26c-0.903-0.173-1.748-0.428-2.535-0.764v-3.968c0.892,0.42,1.897,0.771,3.016,1.055
		c1.118,0.284,2.102,0.425,2.952,0.425c1.742,0,2.614-0.504,2.614-1.512c0-0.378-0.116-0.685-0.347-0.921
		c-0.23-0.236-0.63-0.504-1.196-0.803c-0.567-0.299-1.323-0.648-2.268-1.047c-1.354-0.567-2.35-1.092-2.984-1.575
		c-0.636-0.482-1.098-1.037-1.386-1.661c-0.289-0.625-0.433-1.394-0.433-2.307c0-1.564,0.605-2.774,1.818-3.629
		s2.932-1.284,5.157-1.284c2.12,0,4.184,0.462,6.188,1.386l-1.449,3.464c-0.881-0.378-1.706-0.688-2.472-0.929
		c-0.767-0.242-1.549-0.362-2.347-0.362c-1.417,0-2.126,0.383-2.126,1.149c0,0.431,0.229,0.803,0.686,1.118
		c0.456,0.315,1.456,0.782,3,1.401c1.375,0.557,2.383,1.076,3.023,1.559c0.64,0.483,1.112,1.039,1.417,1.669
		S3842.809,122.392,3842.809,123.263z"/>
</g>
</svg>
