<?xml version="1.0" encoding="utf-8"?>
<!-- Generator: Adobe Illustrator 17.0.0, SVG Export Plug-In . SVG Version: 6.00 Build 0)  -->
<!DOCTYPE svg PUBLIC "-//W3C//DTD SVG 1.1//EN" "http://www.w3.org/Graphics/SVG/1.1/DTD/svg11.dtd">
<svg version="1.1" id="Layer_1" xmlns="http://www.w3.org/2000/svg" xmlns:xlink="http://www.w3.org/1999/xlink" x="0px" y="0px"
	 width="640px" height="155.871px" viewBox="2640 0 640 155.871" enable-background="new 2640 0 640 155.871" xml:space="preserve">
<g>
	<g>
		<path fill="#C73D27" d="M2735.703,69.168l-13.259-13.259h11.749l4.612,7.991v4.199c0,3.799,2.995,6.912,6.748,7.103v-0.315V57.713
			l-4.112-7.12l13.63,7.87c3.576,2.065,8.15,0.84,10.217-2.737l-19.058-11.003h15.446c4.131,0,7.48-3.349,7.48-7.477h-23.469
			l6.675-3.854c3.01-1.737,4.174-5.458,2.802-8.566l-21.45,12.381l-0.062,0.036h-29.874l-23.833-23.833l-8.559,24.73l53.74,31.028
			l10.575,10.575C2738.621,76.823,2738.621,72.088,2735.703,69.168z"/>
		<path fill="#C73D27" d="M2770.919,92.951l1.925-7.19l-32.364-8.671l-4.251,15.861h-5.064v36.759l22.086,12.752l22.087-12.752
			V92.951H2770.919z M2742.334,80.3l27.298,7.316l-1.429,5.335h-29.259L2742.334,80.3z"/>
	</g>
</g>
<g>
	<path fill="#C73D27" d="M2849.271,51.091h-4.882V32.132h-6.252v-4.063h17.385v4.063h-6.251V51.091z"/>
	<path fill="#C73D27" d="M2874.938,51.091h-4.803V40.809c0-2.541-0.945-3.811-2.835-3.811c-1.344,0-2.314,0.457-2.913,1.37
		s-0.897,2.394-0.897,4.44v8.283h-4.803V26.589h4.803v4.992c0,0.389-0.037,1.302-0.11,2.74l-0.11,1.417h0.252
		c1.071-1.722,2.771-2.583,5.103-2.583c2.068,0,3.638,0.557,4.708,1.669c1.071,1.113,1.606,2.708,1.606,4.787V51.091z"/>
	<path fill="#C73D27" d="M2887.851,51.406c-2.834,0-5.05-0.782-6.646-2.346s-2.393-3.779-2.393-6.646c0-2.95,0.737-5.23,2.212-6.842
		s3.514-2.417,6.118-2.417c2.487,0,4.425,0.708,5.811,2.126s2.078,3.375,2.078,5.874v2.331h-11.354
		c0.053,1.365,0.457,2.431,1.213,3.197c0.756,0.767,1.815,1.149,3.181,1.149c1.061,0,2.063-0.11,3.008-0.331
		c0.944-0.22,1.932-0.572,2.96-1.055v3.716c-0.84,0.42-1.737,0.732-2.692,0.937S2889.226,51.406,2887.851,51.406z M2887.174,36.573
		c-1.019,0-1.816,0.323-2.394,0.968s-0.908,1.562-0.992,2.748h6.739c-0.021-1.186-0.33-2.102-0.929-2.748
		S2888.191,36.573,2887.174,36.573z"/>
	<path fill="#C73D27" d="M2908.763,33.155c0.65,0,1.191,0.047,1.622,0.142l-0.362,4.503c-0.389-0.105-0.861-0.158-1.417-0.158
		c-1.533,0-2.728,0.394-3.583,1.181c-0.855,0.788-1.283,1.89-1.283,3.307v8.96h-4.803V33.486h3.638l0.708,2.961h0.236
		c0.546-0.987,1.284-1.782,2.213-2.386S2907.671,33.155,2908.763,33.155z"/>
	<path fill="#C73D27" d="M2921.549,51.406c-2.834,0-5.05-0.782-6.646-2.346s-2.393-3.779-2.393-6.646c0-2.95,0.737-5.23,2.212-6.842
		s3.514-2.417,6.118-2.417c2.487,0,4.425,0.708,5.811,2.126s2.078,3.375,2.078,5.874v2.331h-11.354
		c0.053,1.365,0.457,2.431,1.213,3.197c0.756,0.767,1.815,1.149,3.181,1.149c1.061,0,2.063-0.11,3.008-0.331
		c0.944-0.22,1.932-0.572,2.96-1.055v3.716c-0.84,0.42-1.737,0.732-2.692,0.937S2922.924,51.406,2921.549,51.406z M2920.872,36.573
		c-1.019,0-1.816,0.323-2.394,0.968s-0.908,1.562-0.992,2.748h6.739c-0.021-1.186-0.33-2.102-0.929-2.748
		S2921.89,36.573,2920.872,36.573z"/>
	<path fill="#C73D27" d="M2956.775,51.091h-4.803V40.809c0-1.27-0.213-2.223-0.638-2.858c-0.425-0.635-1.095-0.953-2.008-0.953
		c-1.229,0-2.121,0.452-2.677,1.354c-0.557,0.903-0.835,2.388-0.835,4.456v8.283h-4.803V33.486h3.669l0.646,2.252h0.268
		c0.473-0.808,1.155-1.441,2.048-1.897c0.892-0.457,1.915-0.685,3.07-0.685c2.635,0,4.42,0.861,5.354,2.583h0.425
		c0.473-0.819,1.168-1.454,2.086-1.905c0.919-0.451,1.955-0.677,3.11-0.677c1.994,0,3.504,0.512,4.527,1.536
		c1.023,1.023,1.535,2.664,1.535,4.921v11.479h-4.818V40.809c0-1.27-0.213-2.223-0.638-2.858c-0.425-0.635-1.095-0.953-2.008-0.953
		c-1.176,0-2.055,0.42-2.638,1.26c-0.583,0.84-0.874,2.173-0.874,4V51.091z"/>
	<path fill="#C73D27" d="M2985.151,51.091l-0.646-2.252h-0.252c-0.515,0.819-1.244,1.452-2.189,1.897
		c-0.944,0.446-2.021,0.669-3.228,0.669c-2.068,0-3.627-0.554-4.677-1.661s-1.575-2.701-1.575-4.779v-11.48h4.803v10.283
		c0,1.27,0.226,2.223,0.678,2.858c0.451,0.635,1.17,0.953,2.157,0.953c1.344,0,2.314-0.449,2.913-1.346s0.897-2.386,0.897-4.464
		v-8.283h4.803v17.605H2985.151z"/>
	<path fill="#C73D27" d="M3006.158,45.863c0,1.806-0.628,3.181-1.882,4.125c-1.255,0.945-3.132,1.417-5.63,1.417
		c-1.281,0-2.373-0.086-3.275-0.26c-0.903-0.173-1.748-0.428-2.535-0.764v-3.968c0.892,0.42,1.897,0.771,3.016,1.055
		c1.118,0.284,2.102,0.425,2.952,0.425c1.742,0,2.614-0.504,2.614-1.512c0-0.378-0.116-0.685-0.347-0.921
		c-0.23-0.236-0.63-0.504-1.196-0.803c-0.567-0.299-1.323-0.648-2.268-1.047c-1.354-0.567-2.35-1.092-2.984-1.575
		c-0.636-0.482-1.098-1.037-1.386-1.661c-0.289-0.625-0.433-1.394-0.433-2.307c0-1.564,0.605-2.774,1.818-3.629
		s2.932-1.284,5.157-1.284c2.12,0,4.184,0.462,6.188,1.386l-1.449,3.464c-0.881-0.378-1.706-0.688-2.472-0.929
		c-0.767-0.242-1.549-0.362-2.347-0.362c-1.417,0-2.126,0.383-2.126,1.149c0,0.431,0.229,0.803,0.686,1.118
		c0.456,0.315,1.456,0.782,3,1.401c1.375,0.557,2.383,1.076,3.023,1.559c0.64,0.483,1.112,1.039,1.417,1.669
		S3006.158,44.992,3006.158,45.863z"/>
	<path fill="#C73D27" d="M3017.322,47.58c0.84,0,1.848-0.184,3.023-0.551v3.574c-1.197,0.536-2.667,0.803-4.409,0.803
		c-1.921,0-3.32-0.485-4.196-1.457c-0.877-0.971-1.315-2.428-1.315-4.37v-8.487h-2.299v-2.031l2.646-1.606l1.386-3.716h3.07v3.748
		h4.929v3.606h-4.929v8.487c0,0.683,0.191,1.187,0.575,1.512C3016.186,47.417,3016.692,47.58,3017.322,47.58z"/>
	<path fill="#C73D27" d="M3042.077,33.155c2.078,0,3.705,0.811,4.881,2.433s1.764,3.845,1.764,6.669c0,2.908-0.605,5.16-1.818,6.755
		s-2.863,2.394-4.952,2.394c-2.068,0-3.69-0.75-4.866-2.252h-0.33l-0.804,1.937h-3.669V26.589h4.803v5.701
		c0,0.724-0.063,1.884-0.188,3.48h0.188C3038.208,34.027,3039.872,33.155,3042.077,33.155z M3040.534,36.998
		c-1.187,0-2.053,0.365-2.599,1.095s-0.829,1.934-0.851,3.614v0.52c0,1.89,0.281,3.244,0.843,4.063s1.451,1.228,2.669,1.228
		c0.986,0,1.771-0.454,2.354-1.362c0.582-0.908,0.874-2.229,0.874-3.96c0-1.732-0.294-3.031-0.882-3.897
		C3042.354,37.431,3041.552,36.998,3040.534,36.998z"/>
	<path fill="#C73D27" d="M3060.658,51.406c-2.834,0-5.05-0.782-6.646-2.346s-2.393-3.779-2.393-6.646c0-2.95,0.737-5.23,2.212-6.842
		s3.514-2.417,6.118-2.417c2.487,0,4.425,0.708,5.811,2.126s2.078,3.375,2.078,5.874v2.331h-11.354
		c0.053,1.365,0.457,2.431,1.213,3.197c0.756,0.767,1.815,1.149,3.181,1.149c1.061,0,2.063-0.11,3.008-0.331
		c0.944-0.22,1.932-0.572,2.96-1.055v3.716c-0.84,0.42-1.737,0.732-2.692,0.937S3062.033,51.406,3060.658,51.406z M3059.981,36.573
		c-1.019,0-1.816,0.323-2.394,0.968s-0.908,1.562-0.992,2.748h6.739c-0.021-1.186-0.33-2.102-0.929-2.748
		S3060.999,36.573,3059.981,36.573z"/>
	<path fill="#C73D27" d="M3084.925,51.091h-4.803V26.589h4.803V51.091z"/>
	<path fill="#C73D27" d="M3097.932,51.406c-2.834,0-5.05-0.782-6.646-2.346s-2.393-3.779-2.393-6.646c0-2.95,0.737-5.23,2.212-6.842
		s3.514-2.417,6.118-2.417c2.487,0,4.425,0.708,5.811,2.126s2.078,3.375,2.078,5.874v2.331h-11.354
		c0.053,1.365,0.457,2.431,1.213,3.197c0.756,0.767,1.815,1.149,3.181,1.149c1.061,0,2.063-0.11,3.008-0.331
		c0.944-0.22,1.932-0.572,2.96-1.055v3.716c-0.84,0.42-1.737,0.732-2.692,0.937S3099.307,51.406,3097.932,51.406z M3097.255,36.573
		c-1.019,0-1.816,0.323-2.394,0.968s-0.908,1.562-0.992,2.748h6.739c-0.021-1.186-0.33-2.102-0.929-2.748
		S3098.272,36.573,3097.255,36.573z"/>
	<path fill="#C73D27" d="M3124.34,33.486v2.441l-2.756,0.708c0.504,0.788,0.756,1.669,0.756,2.646c0,1.89-0.659,3.362-1.977,4.417
		c-1.317,1.055-3.146,1.583-5.488,1.583l-0.865-0.047l-0.709-0.079c-0.493,0.378-0.74,0.798-0.74,1.26
		c0,0.693,0.882,1.039,2.646,1.039h2.992c1.932,0,3.403,0.415,4.417,1.244c1.013,0.83,1.52,2.047,1.52,3.653
		c0,2.058-0.858,3.653-2.574,4.787c-1.717,1.134-4.182,1.701-7.394,1.701c-2.457,0-4.333-0.428-5.63-1.283
		c-1.297-0.856-1.944-2.055-1.944-3.598c0-1.061,0.33-1.948,0.992-2.662c0.661-0.714,1.632-1.223,2.913-1.527
		c-0.494-0.21-0.924-0.554-1.291-1.031c-0.368-0.478-0.552-0.984-0.552-1.52c0-0.671,0.194-1.23,0.583-1.677
		c0.388-0.446,0.95-0.884,1.685-1.315c-0.924-0.399-1.656-1.04-2.196-1.921c-0.541-0.882-0.812-1.921-0.812-3.118
		c0-1.921,0.625-3.407,1.874-4.457c1.249-1.049,3.034-1.575,5.354-1.575c0.493,0,1.078,0.045,1.756,0.134
		c0.677,0.089,1.109,0.155,1.299,0.197H3124.34z M3110.75,53.58c0,0.661,0.317,1.181,0.952,1.559
		c0.636,0.378,1.525,0.567,2.669,0.567c1.722,0,3.071-0.236,4.048-0.708c0.976-0.473,1.464-1.118,1.464-1.937
		c0-0.661-0.289-1.118-0.866-1.37s-1.47-0.378-2.677-0.378h-2.488c-0.882,0-1.619,0.207-2.212,0.622
		C3111.046,52.348,3110.75,52.897,3110.75,53.58z M3112.498,39.25c0,0.956,0.218,1.711,0.653,2.268
		c0.436,0.557,1.1,0.834,1.992,0.834c0.902,0,1.563-0.278,1.983-0.834c0.42-0.556,0.63-1.312,0.63-2.268
		c0-2.121-0.871-3.181-2.613-3.181C3113.38,36.069,3112.498,37.129,3112.498,39.25z"/>
	<path fill="#C73D27" d="M3127.032,28.935c0-1.564,0.872-2.346,2.614-2.346s2.614,0.782,2.614,2.346c0,0.746-0.218,1.326-0.653,1.74
		c-0.437,0.415-1.09,0.622-1.961,0.622C3127.904,31.297,3127.032,30.51,3127.032,28.935z M3132.04,51.091h-4.803V33.486h4.803
		V51.091z"/>
	<path fill="#C73D27" d="M3149.362,45.863c0,1.806-0.628,3.181-1.882,4.125c-1.255,0.945-3.132,1.417-5.63,1.417
		c-1.281,0-2.373-0.086-3.275-0.26c-0.903-0.173-1.748-0.428-2.535-0.764v-3.968c0.892,0.42,1.897,0.771,3.016,1.055
		c1.118,0.284,2.102,0.425,2.952,0.425c1.742,0,2.614-0.504,2.614-1.512c0-0.378-0.116-0.685-0.347-0.921
		c-0.23-0.236-0.63-0.504-1.196-0.803c-0.567-0.299-1.323-0.648-2.268-1.047c-1.354-0.567-2.35-1.092-2.984-1.575
		c-0.636-0.482-1.098-1.037-1.386-1.661c-0.289-0.625-0.433-1.394-0.433-2.307c0-1.564,0.605-2.774,1.818-3.629
		s2.932-1.284,5.157-1.284c2.12,0,4.184,0.462,6.188,1.386l-1.449,3.464c-0.881-0.378-1.706-0.688-2.472-0.929
		c-0.767-0.242-1.549-0.362-2.347-0.362c-1.417,0-2.126,0.383-2.126,1.149c0,0.431,0.229,0.803,0.686,1.118
		c0.456,0.315,1.456,0.782,3,1.401c1.375,0.557,2.383,1.076,3.023,1.559c0.64,0.483,1.112,1.039,1.417,1.669
		S3149.362,44.992,3149.362,45.863z"/>
	<path fill="#C73D27" d="M3157.912,51.091h-4.803V26.589h4.803V51.091z"/>
	<path fill="#C73D27" d="M3174.132,51.091l-0.93-2.394h-0.126c-0.809,1.019-1.64,1.724-2.495,2.118
		c-0.856,0.394-1.972,0.59-3.347,0.59c-1.69,0-3.021-0.483-3.992-1.449c-0.971-0.966-1.456-2.341-1.456-4.126
		c0-1.868,0.653-3.246,1.96-4.133c1.308-0.887,3.278-1.378,5.913-1.472l3.056-0.095V39.36c0-1.785-0.914-2.677-2.74-2.677
		c-1.407,0-3.061,0.425-4.961,1.276l-1.59-3.244c2.025-1.06,4.272-1.59,6.739-1.59c2.362,0,4.173,0.514,5.433,1.543
		c1.26,1.029,1.89,2.593,1.89,4.693v11.731H3174.132z M3172.715,42.934l-1.858,0.063c-1.396,0.042-2.436,0.294-3.118,0.756
		s-1.023,1.165-1.023,2.11c0,1.354,0.776,2.031,2.33,2.031c1.113,0,2.003-0.32,2.67-0.96c0.666-0.64,1-1.491,1-2.551V42.934z"/>
	<path fill="#C73D27" d="M3189.848,47.58c0.84,0,1.848-0.184,3.023-0.551v3.574c-1.197,0.536-2.667,0.803-4.409,0.803
		c-1.921,0-3.32-0.485-4.196-1.457c-0.877-0.971-1.315-2.428-1.315-4.37v-8.487h-2.299v-2.031l2.646-1.606l1.386-3.716h3.07v3.748
		h4.929v3.606h-4.929v8.487c0,0.683,0.191,1.187,0.575,1.512C3188.711,47.417,3189.218,47.58,3189.848,47.58z"/>
	<path fill="#C73D27" d="M3196.225,28.935c0-1.564,0.872-2.346,2.614-2.346s2.614,0.782,2.614,2.346c0,0.746-0.218,1.326-0.653,1.74
		c-0.437,0.415-1.09,0.622-1.961,0.622C3197.097,31.297,3196.225,30.51,3196.225,28.935z M3201.232,51.091h-4.803V33.486h4.803
		V51.091z"/>
	<path fill="#C73D27" d="M3222.271,42.257c0,2.866-0.756,5.107-2.268,6.724c-1.512,1.617-3.616,2.425-6.314,2.425
		c-1.69,0-3.181-0.37-4.473-1.11c-1.291-0.74-2.283-1.803-2.976-3.188c-0.693-1.386-1.039-3.002-1.039-4.85
		c0-2.876,0.75-5.112,2.251-6.708c1.502-1.596,3.611-2.394,6.331-2.394c1.689,0,3.181,0.368,4.472,1.103s2.283,1.79,2.977,3.165
		C3221.924,38.798,3222.271,40.41,3222.271,42.257z M3210.098,42.257c0,1.743,0.286,3.06,0.858,3.952
		c0.572,0.893,1.504,1.339,2.795,1.339c1.281,0,2.202-0.443,2.764-1.331s0.843-2.207,0.843-3.96c0-1.743-0.283-3.05-0.851-3.921
		c-0.566-0.872-1.496-1.307-2.787-1.307c-1.281,0-2.204,0.433-2.771,1.299C3210.382,39.194,3210.098,40.504,3210.098,42.257z"/>
	<path fill="#C73D27" d="M3242.49,51.091h-4.803V40.809c0-1.27-0.226-2.223-0.677-2.858c-0.452-0.635-1.171-0.953-2.158-0.953
		c-1.344,0-2.314,0.449-2.913,1.347c-0.599,0.897-0.897,2.386-0.897,4.464v8.283h-4.803V33.486h3.669l0.646,2.252h0.268
		c0.536-0.85,1.273-1.493,2.213-1.929s2.008-0.654,3.204-0.654c2.048,0,3.601,0.554,4.661,1.662s1.591,2.706,1.591,4.795V51.091z"/>
	<path fill="#C73D27" d="M2856.909,86.28c0.84,0,1.848-0.184,3.023-0.551v3.574c-1.197,0.536-2.667,0.803-4.409,0.803
		c-1.921,0-3.32-0.485-4.196-1.457c-0.877-0.971-1.315-2.428-1.315-4.37v-8.487h-2.299v-2.031l2.646-1.606l1.386-3.716h3.07v3.748
		h4.929v3.606h-4.929v8.487c0,0.683,0.191,1.187,0.575,1.512C2855.772,86.117,2856.279,86.28,2856.909,86.28z"/>
	<path fill="#C73D27" d="M2879.49,80.958c0,2.866-0.756,5.107-2.268,6.724c-1.512,1.617-3.616,2.425-6.314,2.425
		c-1.69,0-3.181-0.37-4.473-1.11c-1.291-0.74-2.283-1.803-2.976-3.188c-0.693-1.386-1.039-3.002-1.039-4.85
		c0-2.876,0.75-5.112,2.251-6.708c1.502-1.596,3.611-2.394,6.331-2.394c1.689,0,3.181,0.368,4.472,1.103s2.283,1.79,2.977,3.165
		C2879.144,77.499,2879.49,79.11,2879.49,80.958z M2867.317,80.958c0,1.743,0.286,3.06,0.858,3.952
		c0.572,0.893,1.504,1.339,2.795,1.339c1.281,0,2.202-0.443,2.764-1.331s0.843-2.207,0.843-3.96c0-1.743-0.283-3.05-0.851-3.921
		c-0.566-0.872-1.496-1.307-2.787-1.307c-1.281,0-2.204,0.433-2.771,1.299C2867.602,77.895,2867.317,79.204,2867.317,80.958z"/>
	<path fill="#C73D27" d="M2901.504,90.106c-2.068,0-3.69-0.75-4.866-2.252h-0.252c0.168,1.47,0.252,2.32,0.252,2.551v7.133h-4.803
		V72.186h3.905l0.677,2.284h0.221c1.123-1.743,2.787-2.614,4.992-2.614c2.078,0,3.705,0.803,4.881,2.41
		c1.176,1.606,1.764,3.837,1.764,6.692c0,1.879-0.275,3.512-0.826,4.897s-1.336,2.44-2.354,3.165
		C2904.075,89.744,2902.879,90.106,2901.504,90.106z M2900.087,75.698c-1.187,0-2.053,0.365-2.599,1.095s-0.829,1.934-0.851,3.614
		v0.52c0,1.89,0.281,3.244,0.843,4.063s1.451,1.228,2.669,1.228c2.152,0,3.229-1.774,3.229-5.322c0-1.732-0.266-3.031-0.796-3.897
		S2901.22,75.698,2900.087,75.698z"/>
	<path fill="#C73D27" d="M2922.069,71.855c0.65,0,1.191,0.047,1.622,0.142l-0.362,4.503c-0.389-0.105-0.861-0.158-1.417-0.158
		c-1.533,0-2.728,0.394-3.583,1.181c-0.855,0.788-1.283,1.89-1.283,3.307v8.96h-4.803V72.186h3.638l0.708,2.961h0.236
		c0.546-0.987,1.284-1.782,2.213-2.386S2920.978,71.855,2922.069,71.855z"/>
	<path fill="#C73D27" d="M2942.887,80.958c0,2.866-0.756,5.107-2.268,6.724c-1.512,1.617-3.616,2.425-6.314,2.425
		c-1.69,0-3.181-0.37-4.473-1.11c-1.291-0.74-2.283-1.803-2.976-3.188c-0.693-1.386-1.039-3.002-1.039-4.85
		c0-2.876,0.75-5.112,2.251-6.708c1.502-1.596,3.611-2.394,6.331-2.394c1.689,0,3.181,0.368,4.472,1.103s2.283,1.79,2.977,3.165
		C2942.54,77.499,2942.887,79.11,2942.887,80.958z M2930.714,80.958c0,1.743,0.286,3.06,0.858,3.952
		c0.572,0.893,1.504,1.339,2.795,1.339c1.281,0,2.202-0.443,2.764-1.331s0.843-2.207,0.843-3.96c0-1.743-0.283-3.05-0.851-3.921
		c-0.566-0.872-1.496-1.307-2.787-1.307c-1.281,0-2.204,0.433-2.771,1.299C2930.998,77.895,2930.714,79.204,2930.714,80.958z"/>
	<path fill="#C73D27" d="M2954.271,86.28c0.84,0,1.848-0.184,3.023-0.551v3.574c-1.197,0.536-2.667,0.803-4.409,0.803
		c-1.921,0-3.32-0.485-4.196-1.457c-0.877-0.971-1.315-2.428-1.315-4.37v-8.487h-2.299v-2.031l2.646-1.606l1.386-3.716h3.07v3.748
		h4.929v3.606h-4.929v8.487c0,0.683,0.191,1.187,0.575,1.512C2953.135,86.117,2953.642,86.28,2954.271,86.28z"/>
	<path fill="#C73D27" d="M2968.821,90.106c-2.834,0-5.05-0.782-6.646-2.346s-2.393-3.779-2.393-6.646c0-2.95,0.737-5.23,2.212-6.842
		s3.514-2.417,6.118-2.417c2.487,0,4.425,0.708,5.811,2.126s2.078,3.375,2.078,5.874v2.331h-11.354
		c0.053,1.365,0.457,2.431,1.213,3.197c0.756,0.767,1.815,1.149,3.181,1.149c1.061,0,2.063-0.11,3.008-0.331
		c0.944-0.22,1.932-0.572,2.96-1.055v3.716c-0.84,0.42-1.737,0.732-2.692,0.937S2970.196,90.106,2968.821,90.106z M2968.145,75.273
		c-1.019,0-1.816,0.323-2.394,0.968s-0.908,1.562-0.992,2.748h6.739c-0.021-1.186-0.33-2.102-0.929-2.748
		S2969.162,75.273,2968.145,75.273z"/>
	<path fill="#C73D27" d="M2987.057,90.106c-5.48,0-8.22-3.008-8.22-9.023c0-2.992,0.745-5.278,2.235-6.858
		c1.491-1.58,3.627-2.37,6.409-2.37c2.037,0,3.863,0.399,5.48,1.197l-1.418,3.716c-0.756-0.304-1.459-0.554-2.109-0.748
		c-0.651-0.194-1.302-0.291-1.953-0.291c-2.498,0-3.748,1.774-3.748,5.322c0,3.443,1.25,5.165,3.748,5.165
		c0.924,0,1.779-0.123,2.566-0.37c0.788-0.247,1.575-0.632,2.362-1.157v4.11c-0.776,0.494-1.562,0.835-2.354,1.023
		C2989.264,90.012,2988.264,90.106,2987.057,90.106z"/>
	<path fill="#C73D27" d="M3003.906,86.28c0.84,0,1.848-0.184,3.023-0.551v3.574c-1.197,0.536-2.667,0.803-4.409,0.803
		c-1.921,0-3.32-0.485-4.196-1.457c-0.877-0.971-1.315-2.428-1.315-4.37v-8.487h-2.299v-2.031l2.646-1.606l1.386-3.716h3.07v3.748
		h4.929v3.606h-4.929v8.487c0,0.683,0.191,1.187,0.575,1.512C3002.77,86.117,3003.276,86.28,3003.906,86.28z"/>
	<path fill="#C73D27" d="M3033.338,89.792l-1.354-6.157l-1.826-7.779h-0.11l-3.213,13.936h-5.165l-5.008-17.605h4.787l2.032,7.795
		c0.325,1.396,0.655,3.323,0.991,5.779h0.095c0.042-0.798,0.226-2.063,0.552-3.795l0.252-1.339l2.173-8.44h5.291l2.063,8.44
		c0.042,0.231,0.107,0.573,0.197,1.024c0.089,0.451,0.176,0.932,0.26,1.441s0.16,1.008,0.229,1.496
		c0.067,0.488,0.107,0.879,0.118,1.173h0.094c0.095-0.756,0.263-1.792,0.504-3.11c0.242-1.317,0.415-2.207,0.52-2.669l2.11-7.795
		h4.709l-5.071,17.605H3033.338z"/>
	<path fill="#C73D27" d="M3062.47,80.958c0,2.866-0.756,5.107-2.268,6.724c-1.512,1.617-3.616,2.425-6.314,2.425
		c-1.69,0-3.181-0.37-4.473-1.11c-1.291-0.74-2.283-1.803-2.976-3.188c-0.693-1.386-1.039-3.002-1.039-4.85
		c0-2.876,0.75-5.112,2.251-6.708c1.502-1.596,3.611-2.394,6.331-2.394c1.689,0,3.181,0.368,4.472,1.103s2.283,1.79,2.977,3.165
		C3062.123,77.499,3062.47,79.11,3062.47,80.958z M3050.297,80.958c0,1.743,0.286,3.06,0.858,3.952
		c0.572,0.893,1.504,1.339,2.795,1.339c1.281,0,2.202-0.443,2.764-1.331s0.843-2.207,0.843-3.96c0-1.743-0.283-3.05-0.851-3.921
		c-0.566-0.872-1.496-1.307-2.787-1.307c-1.281,0-2.204,0.433-2.771,1.299C3050.581,77.895,3050.297,79.204,3050.297,80.958z"/>
	<path fill="#C73D27" d="M3076.265,71.855c0.65,0,1.191,0.047,1.622,0.142l-0.362,4.503c-0.389-0.105-0.861-0.158-1.417-0.158
		c-1.533,0-2.728,0.394-3.583,1.181c-0.855,0.788-1.283,1.89-1.283,3.307v8.96h-4.803V72.186h3.638l0.708,2.961h0.236
		c0.546-0.987,1.284-1.782,2.213-2.386S3075.173,71.855,3076.265,71.855z"/>
	<path fill="#C73D27" d="M3085.697,80.217l2.094-2.677l4.929-5.354h5.417l-6.991,7.638l7.417,9.968h-5.543l-5.071-7.133
		l-2.063,1.653v5.48h-4.803V65.289h4.803v10.928l-0.252,4H3085.697z"/>
	<path fill="#C73D27" d="M3109.05,90.106c-2.834,0-5.05-0.782-6.646-2.346s-2.393-3.779-2.393-6.646c0-2.95,0.737-5.23,2.212-6.842
		s3.514-2.417,6.118-2.417c2.487,0,4.425,0.708,5.811,2.126s2.078,3.375,2.078,5.874v2.331h-11.354
		c0.053,1.365,0.457,2.431,1.213,3.197c0.756,0.767,1.815,1.149,3.181,1.149c1.061,0,2.063-0.11,3.008-0.331
		c0.944-0.22,1.932-0.572,2.96-1.055v3.716c-0.84,0.42-1.737,0.732-2.692,0.937S3110.425,90.106,3109.05,90.106z M3108.373,75.273
		c-1.019,0-1.816,0.323-2.394,0.968s-0.908,1.562-0.992,2.748h6.739c-0.021-1.186-0.33-2.102-0.929-2.748
		S3109.391,75.273,3108.373,75.273z"/>
	<path fill="#C73D27" d="M3129.962,71.855c0.65,0,1.191,0.047,1.622,0.142l-0.362,4.503c-0.389-0.105-0.861-0.158-1.417-0.158
		c-1.533,0-2.728,0.394-3.583,1.181c-0.855,0.788-1.283,1.89-1.283,3.307v8.96h-4.803V72.186h3.638l0.708,2.961h0.236
		c0.546-0.987,1.284-1.782,2.213-2.386S3128.87,71.855,3129.962,71.855z"/>
	<path fill="#C73D27" d="M3147.063,84.563c0,1.806-0.628,3.181-1.882,4.125c-1.255,0.945-3.132,1.417-5.63,1.417
		c-1.281,0-2.373-0.086-3.275-0.26c-0.903-0.173-1.748-0.428-2.535-0.764v-3.968c0.892,0.42,1.897,0.771,3.016,1.055
		c1.118,0.284,2.102,0.425,2.952,0.425c1.742,0,2.614-0.504,2.614-1.512c0-0.378-0.116-0.685-0.347-0.921
		c-0.23-0.236-0.63-0.504-1.196-0.803c-0.567-0.299-1.323-0.648-2.268-1.047c-1.354-0.567-2.35-1.092-2.984-1.575
		c-0.636-0.482-1.098-1.037-1.386-1.661c-0.289-0.625-0.433-1.394-0.433-2.307c0-1.564,0.605-2.774,1.818-3.629
		s2.932-1.284,5.157-1.284c2.12,0,4.184,0.462,6.188,1.386l-1.449,3.464c-0.881-0.378-1.706-0.688-2.472-0.929
		c-0.767-0.242-1.549-0.362-2.347-0.362c-1.417,0-2.126,0.383-2.126,1.149c0,0.431,0.229,0.803,0.686,1.118
		c0.456,0.315,1.456,0.782,3,1.401c1.375,0.557,2.383,1.076,3.023,1.559c0.64,0.483,1.112,1.039,1.417,1.669
		S3147.063,83.692,3147.063,84.563z"/>
	<path fill="#C73D27" d="M3168.92,75.792h-4.157v13.999h-4.803V75.792h-2.646v-2.315l2.646-1.292v-1.291
		c0-2.005,0.493-3.47,1.48-4.394c0.986-0.923,2.566-1.386,4.74-1.386c1.658,0,3.133,0.247,4.425,0.74l-1.229,3.527
		c-0.966-0.304-1.858-0.457-2.677-0.457c-0.683,0-1.176,0.202-1.48,0.606c-0.305,0.404-0.457,0.921-0.457,1.551v1.102h4.157V75.792z
		"/>
	<path fill="#C73D27" d="M3181.502,71.855c0.65,0,1.191,0.047,1.622,0.142l-0.362,4.503c-0.389-0.105-0.861-0.158-1.417-0.158
		c-1.533,0-2.728,0.394-3.583,1.181c-0.855,0.788-1.283,1.89-1.283,3.307v8.96h-4.803V72.186h3.638l0.708,2.961h0.236
		c0.546-0.987,1.284-1.782,2.213-2.386S3180.41,71.855,3181.502,71.855z"/>
	<path fill="#C73D27" d="M3202.319,80.958c0,2.866-0.756,5.107-2.268,6.724c-1.512,1.617-3.616,2.425-6.314,2.425
		c-1.69,0-3.181-0.37-4.473-1.11c-1.291-0.74-2.283-1.803-2.976-3.188c-0.693-1.386-1.039-3.002-1.039-4.85
		c0-2.876,0.75-5.112,2.251-6.708c1.502-1.596,3.611-2.394,6.331-2.394c1.689,0,3.181,0.368,4.472,1.103s2.283,1.79,2.977,3.165
		C3201.973,77.499,3202.319,79.11,3202.319,80.958z M3190.146,80.958c0,1.743,0.286,3.06,0.858,3.952
		c0.572,0.893,1.504,1.339,2.795,1.339c1.281,0,2.202-0.443,2.764-1.331s0.843-2.207,0.843-3.96c0-1.743-0.283-3.05-0.851-3.921
		c-0.566-0.872-1.496-1.307-2.787-1.307c-1.281,0-2.204,0.433-2.771,1.299C3190.431,77.895,3190.146,79.204,3190.146,80.958z"/>
	<path fill="#C73D27" d="M3222.051,89.792h-4.803V79.509c0-1.27-0.213-2.223-0.638-2.858c-0.425-0.635-1.095-0.953-2.008-0.953
		c-1.229,0-2.121,0.452-2.677,1.354c-0.557,0.903-0.835,2.388-0.835,4.456v8.283h-4.803V72.186h3.669l0.646,2.252h0.268
		c0.473-0.808,1.155-1.441,2.048-1.897c0.892-0.457,1.915-0.685,3.07-0.685c2.635,0,4.42,0.861,5.354,2.583h0.425
		c0.473-0.819,1.168-1.454,2.086-1.905c0.919-0.451,1.955-0.677,3.11-0.677c1.994,0,3.504,0.512,4.527,1.536
		c1.023,1.023,1.535,2.664,1.535,4.921v11.479h-4.818V79.509c0-1.27-0.213-2.223-0.638-2.858c-0.425-0.635-1.095-0.953-2.008-0.953
		c-1.176,0-2.055,0.42-2.638,1.26c-0.583,0.84-0.874,2.173-0.874,4V89.792z"/>
	<path fill="#C73D27" d="M2971.461,128.491l-1.354-6.157l-1.826-7.779h-0.11l-3.213,13.936h-5.165l-5.008-17.605h4.787l2.032,7.795
		c0.325,1.396,0.655,3.323,0.991,5.779h0.095c0.042-0.798,0.226-2.063,0.552-3.795l0.252-1.339l2.173-8.44h5.291l2.063,8.44
		c0.042,0.231,0.107,0.573,0.197,1.024c0.089,0.451,0.176,0.932,0.26,1.441s0.16,1.008,0.229,1.496
		c0.067,0.488,0.107,0.879,0.118,1.173h0.094c0.095-0.756,0.263-1.792,0.504-3.11c0.242-1.317,0.415-2.207,0.52-2.669l2.11-7.795
		h4.709l-5.071,17.605H2971.461z"/>
	<path fill="#C73D27" d="M2995.774,128.491l-0.93-2.394h-0.126c-0.809,1.019-1.64,1.724-2.495,2.118
		c-0.856,0.394-1.972,0.59-3.347,0.59c-1.69,0-3.021-0.483-3.992-1.449c-0.971-0.966-1.456-2.341-1.456-4.126
		c0-1.868,0.653-3.246,1.96-4.133c1.308-0.887,3.278-1.378,5.913-1.472l3.056-0.095v-0.771c0-1.785-0.914-2.677-2.74-2.677
		c-1.407,0-3.061,0.425-4.961,1.276l-1.59-3.244c2.025-1.06,4.272-1.59,6.739-1.59c2.362,0,4.173,0.514,5.433,1.543
		c1.26,1.029,1.89,2.593,1.89,4.693v11.731H2995.774z M2994.357,120.334l-1.858,0.063c-1.396,0.042-2.436,0.294-3.118,0.756
		s-1.023,1.165-1.023,2.11c0,1.354,0.776,2.031,2.33,2.031c1.113,0,2.003-0.32,2.67-0.96c0.666-0.64,1-1.491,1-2.551V120.334z"/>
	<path fill="#C73D27" d="M3019.396,110.886v2.441l-2.756,0.708c0.504,0.788,0.756,1.669,0.756,2.646c0,1.89-0.659,3.362-1.977,4.417
		c-1.317,1.055-3.146,1.583-5.488,1.583l-0.865-0.047l-0.709-0.079c-0.493,0.378-0.74,0.798-0.74,1.26
		c0,0.693,0.882,1.039,2.646,1.039h2.992c1.932,0,3.403,0.415,4.417,1.244c1.013,0.83,1.52,2.047,1.52,3.653
		c0,2.058-0.858,3.653-2.574,4.787c-1.717,1.134-4.182,1.701-7.394,1.701c-2.457,0-4.333-0.428-5.63-1.283
		c-1.297-0.856-1.944-2.055-1.944-3.598c0-1.061,0.33-1.948,0.992-2.662c0.661-0.714,1.632-1.223,2.913-1.527
		c-0.494-0.21-0.924-0.554-1.291-1.031c-0.368-0.478-0.552-0.984-0.552-1.52c0-0.671,0.194-1.23,0.583-1.677
		c0.388-0.446,0.95-0.884,1.685-1.315c-0.924-0.399-1.656-1.04-2.196-1.921c-0.541-0.882-0.812-1.921-0.812-3.118
		c0-1.921,0.625-3.407,1.874-4.457c1.249-1.049,3.034-1.575,5.354-1.575c0.493,0,1.078,0.045,1.756,0.134
		c0.677,0.089,1.109,0.155,1.299,0.197H3019.396z M3005.806,130.979c0,0.661,0.317,1.181,0.952,1.559
		c0.636,0.378,1.525,0.567,2.669,0.567c1.722,0,3.071-0.236,4.048-0.708c0.976-0.473,1.464-1.118,1.464-1.937
		c0-0.661-0.289-1.118-0.866-1.37s-1.47-0.378-2.677-0.378h-2.488c-0.882,0-1.619,0.207-2.212,0.622
		C3006.102,129.748,3005.806,130.297,3005.806,130.979z M3007.554,116.649c0,0.956,0.218,1.711,0.653,2.268
		c0.436,0.557,1.1,0.834,1.992,0.834c0.902,0,1.563-0.278,1.983-0.834c0.42-0.556,0.63-1.312,0.63-2.268
		c0-2.121-0.871-3.181-2.613-3.181C3008.436,113.469,3007.554,114.529,3007.554,116.649z"/>
	<path fill="#C73D27" d="M3030.261,128.806c-2.834,0-5.05-0.782-6.646-2.346s-2.393-3.779-2.393-6.646
		c0-2.95,0.737-5.23,2.212-6.842s3.514-2.417,6.118-2.417c2.487,0,4.425,0.708,5.811,2.126s2.078,3.375,2.078,5.874v2.331h-11.354
		c0.053,1.365,0.457,2.431,1.213,3.197c0.756,0.767,1.815,1.149,3.181,1.149c1.061,0,2.063-0.11,3.008-0.331
		c0.944-0.22,1.932-0.572,2.96-1.055v3.716c-0.84,0.42-1.737,0.732-2.692,0.937S3031.636,128.806,3030.261,128.806z
		 M3029.584,113.973c-1.019,0-1.816,0.323-2.394,0.968s-0.908,1.562-0.992,2.748h6.739c-0.021-1.186-0.33-2.102-0.929-2.748
		S3030.602,113.973,3029.584,113.973z"/>
	<path fill="#C73D27" d="M3057.141,124.979c0.84,0,1.848-0.184,3.023-0.551v3.574c-1.197,0.536-2.667,0.803-4.409,0.803
		c-1.921,0-3.32-0.485-4.196-1.457c-0.877-0.971-1.315-2.428-1.315-4.37v-8.487h-2.299v-2.031l2.646-1.606l1.386-3.716h3.07v3.748
		h4.929v3.606h-4.929v8.487c0,0.683,0.191,1.187,0.575,1.512C3056.004,124.817,3056.511,124.979,3057.141,124.979z"/>
	<path fill="#C73D27" d="M3079.974,128.491h-4.803v-10.283c0-2.541-0.945-3.811-2.835-3.811c-1.344,0-2.314,0.457-2.913,1.37
		s-0.897,2.394-0.897,4.44v8.283h-4.803v-24.502h4.803v4.992c0,0.389-0.037,1.302-0.11,2.74l-0.11,1.417h0.252
		c1.071-1.722,2.771-2.583,5.103-2.583c2.068,0,3.638,0.557,4.708,1.669c1.071,1.113,1.606,2.708,1.606,4.787V128.491z"/>
	<path fill="#C73D27" d="M3092.886,128.806c-2.834,0-5.05-0.782-6.646-2.346s-2.393-3.779-2.393-6.646
		c0-2.95,0.737-5.23,2.212-6.842s3.514-2.417,6.118-2.417c2.487,0,4.425,0.708,5.811,2.126s2.078,3.375,2.078,5.874v2.331h-11.354
		c0.053,1.365,0.457,2.431,1.213,3.197c0.756,0.767,1.815,1.149,3.181,1.149c1.061,0,2.063-0.11,3.008-0.331
		c0.944-0.22,1.932-0.572,2.96-1.055v3.716c-0.84,0.42-1.737,0.732-2.692,0.937S3094.261,128.806,3092.886,128.806z
		 M3092.209,113.973c-1.019,0-1.816,0.323-2.394,0.968s-0.908,1.562-0.992,2.748h6.739c-0.021-1.186-0.33-2.102-0.929-2.748
		S3093.227,113.973,3092.209,113.973z"/>
	<path fill="#C73D27" d="M3113.703,114.492h-4.157v13.999h-4.803v-13.999h-2.646v-2.315l2.646-1.292v-1.291
		c0-2.005,0.493-3.47,1.48-4.394c0.986-0.923,2.566-1.386,4.74-1.386c1.658,0,3.133,0.247,4.425,0.74l-1.229,3.527
		c-0.966-0.304-1.858-0.457-2.677-0.457c-0.683,0-1.176,0.202-1.48,0.606c-0.305,0.404-0.457,0.921-0.457,1.551v1.102h4.157V114.492
		z"/>
	<path fill="#C73D27" d="M3123.876,124.979c0.84,0,1.848-0.184,3.023-0.551v3.574c-1.197,0.536-2.667,0.803-4.409,0.803
		c-1.921,0-3.32-0.485-4.196-1.457c-0.877-0.971-1.315-2.428-1.315-4.37v-8.487h-2.299v-2.031l2.646-1.606l1.386-3.716h3.07v3.748
		h4.929v3.606h-4.929v8.487c0,0.683,0.191,1.187,0.575,1.512C3122.739,124.817,3123.246,124.979,3123.876,124.979z"/>
</g>
</svg>
