<?xml version="1.0" encoding="utf-8"?>
<!-- Generator: Adobe Illustrator 17.0.0, SVG Export Plug-In . SVG Version: 6.00 Build 0)  -->
<!DOCTYPE svg PUBLIC "-//W3C//DTD SVG 1.1//EN" "http://www.w3.org/Graphics/SVG/1.1/DTD/svg11.dtd">
<svg version="1.1" id="Layer_1" xmlns="http://www.w3.org/2000/svg" xmlns:xlink="http://www.w3.org/1999/xlink" x="0px" y="0px"
	 width="640px" height="155.871px" viewBox="660 26.118 640 155.871" enable-background="new 660 26.118 640 155.871"
	 xml:space="preserve">
<path fill="#C73D27" d="M728.522,35.238l-32.34,81.5l148.181,58.799l32.34-81.5L728.522,35.238z M737.46,55.935l48.159,19.109
	l-1.471,3.704L735.99,59.64L737.46,55.935z M727.17,81.868l100.022,39.689l-2.94,7.409L724.23,89.276L727.17,81.868z
	 M763.569,130.614l-48.157-19.109l1.471-3.704l48.159,19.109L763.569,130.614z M833.955,158.542l-48.159-19.109l1.471-3.704
	l48.159,19.109L833.955,158.542z M847.356,131.439c-1.561,0.599-3.613,0.972-5.774,0.114l-0.109-0.043l-1.61,3.37
	c-0.253,0.528-0.466,0.612-0.842,0.75c-0.376,0.136-0.811-0.038-1.4-0.272c-0.497-0.197-1.392-0.759-1.522-1.074
	c-0.132-0.317-0.678-1.047-0.469-1.576l0.114-0.288l2.548-3.848c-0.38-0.235-0.447-0.383-0.8-0.686
	c-0.355-0.299-0.555-0.584-0.902-0.973c-0.278,0.17-0.472,0.291-0.737,0.306c-0.26,0.015-0.571-0.05-1.008-0.223
	c-0.652-0.259-0.716-0.469-0.833-0.883c-0.115-0.419,0.312-0.922,0.646-1.765l0.868-2.19c0.311-0.781,0.385-1.413,0.812-1.647
	c0.428-0.234,0.808-0.286,1.434-0.037c0.941,0.373,1.324,1.111,1.294,2.271c-0.003,0.293-0.04,0.49-0.043,0.633
	c0.041,0.67,0.355,1.323,0.976,1.969c0.624,0.642,1.423,1.158,2.41,1.55c0.892,0.354,1.664,0.426,2.323,0.219
	c0.661-0.203,1.133-0.667,1.42-1.392c0.383-0.965-0.317-2.266-2.093-3.909l-0.095-0.08l-2.812-2.623
	c-1.117-1.016-1.82-2.114-2.105-3.295c-0.286-1.181-0.161-2.439,0.37-3.778c0.718-1.809,1.799-2.994,3.244-3.561
	c1.445-0.562,3.235-0.491,5.372,0.215l0.719-1.389c0.229-0.469,0.536-0.772,0.928-0.91c0.392-0.139,0.83-0.109,1.327,0.087
	c0.506,0.201,1.615,0.772,1.805,1.104c0.189,0.333,0.963,1.009,0.8,1.42l-0.093,0.235l-1.539,1.231
	c0.269,0.163,0.164,0.198,0.435,0.402c0.277,0.209,0.373,0.364,0.675,0.623c0.24-0.215,0.402-0.38,0.678-0.432
	c0.28-0.05,0.541-0.025,0.877,0.108c0.589,0.234,0.923,0.537,1.049,0.929c0.126,0.391,0.254,1.059-0.04,1.836l-0.633,2.326
	l-0.043,0.109c-0.238,0.602-0.814,0.905-1.268,1.087c-0.457,0.181-1.117,0.102-1.758-0.152c-0.398-0.158-0.734-0.382-0.892-0.626
	c-0.161-0.247-0.302-0.692-0.361-1.317c-0.071-0.74-0.328-1.386-0.746-1.929c-0.42-0.544-0.982-0.956-1.669-1.228
	c-0.987-0.392-1.848-0.493-2.567-0.296s-1.225,0.655-1.512,1.379c-0.22,0.556-0.237,1.068-0.047,1.542
	c0.189,0.473,0.777,1.176,1.759,2.111l2.854,2.619c1.4,1.323,2.274,2.553,2.619,3.687c0.345,1.135,0.142,2.651-0.413,4.049
	C850.186,129.288,848.912,130.834,847.356,131.439z"/>
<g>
	<path fill="#C73D27" d="M959.655,96.907l-5.543-18.062h-0.142c0.199,3.675,0.3,6.125,0.3,7.354v10.708h-4.362V73.885h6.646
		l5.448,17.605h0.095l5.779-17.605h6.645v23.022h-4.551V86.01c0-0.514,0.008-1.107,0.023-1.779c0.017-0.672,0.087-2.457,0.213-5.354
		h-0.142l-5.937,18.03H959.655z"/>
	<path fill="#C73D27" d="M979.732,74.751c0-1.564,0.872-2.346,2.614-2.346s2.614,0.782,2.614,2.346c0,0.746-0.218,1.326-0.653,1.74
		c-0.437,0.415-1.09,0.622-1.961,0.622C980.604,77.113,979.732,76.326,979.732,74.751z M984.74,96.907h-4.803V79.302h4.803V96.907z"
		/>
	<path fill="#C73D27" d="M1006.03,96.907h-4.803V86.625c0-1.27-0.226-2.223-0.677-2.858c-0.452-0.635-1.171-0.953-2.158-0.953
		c-1.344,0-2.314,0.449-2.913,1.347c-0.599,0.897-0.897,2.386-0.897,4.464v8.283h-4.803V79.302h3.669l0.646,2.252h0.268
		c0.536-0.85,1.273-1.493,2.213-1.929s2.008-0.654,3.204-0.654c2.048,0,3.601,0.554,4.661,1.662s1.591,2.706,1.591,4.795V96.907z"/>
	<path fill="#C73D27" d="M1010.77,74.751c0-1.564,0.872-2.346,2.614-2.346s2.614,0.782,2.614,2.346c0,0.746-0.218,1.326-0.653,1.74
		c-0.437,0.415-1.09,0.622-1.961,0.622C1011.642,77.113,1010.77,76.326,1010.77,74.751z M1015.777,96.907h-4.803V79.302h4.803
		V96.907z"/>
	<path fill="#C73D27" d="M1036.579,96.907h-4.803V86.625c0-1.27-0.213-2.223-0.638-2.858c-0.425-0.635-1.095-0.953-2.008-0.953
		c-1.229,0-2.121,0.452-2.677,1.354c-0.557,0.903-0.835,2.388-0.835,4.456v8.283h-4.803V79.302h3.669l0.646,2.252h0.268
		c0.473-0.808,1.155-1.441,2.048-1.897c0.892-0.457,1.915-0.685,3.07-0.685c2.635,0,4.42,0.861,5.354,2.583h0.425
		c0.473-0.819,1.168-1.454,2.086-1.905c0.919-0.451,1.955-0.677,3.11-0.677c1.994,0,3.504,0.512,4.527,1.536
		c1.023,1.023,1.535,2.664,1.535,4.921v11.479h-4.818V86.625c0-1.27-0.213-2.223-0.638-2.858c-0.425-0.635-1.095-0.953-2.008-0.953
		c-1.176,0-2.055,0.42-2.638,1.26c-0.583,0.84-0.874,2.173-0.874,4V96.907z"/>
	<path fill="#C73D27" d="M1064.955,96.907l-0.646-2.252h-0.252c-0.515,0.819-1.244,1.452-2.189,1.897
		c-0.944,0.446-2.021,0.669-3.228,0.669c-2.068,0-3.627-0.554-4.677-1.661s-1.575-2.701-1.575-4.779v-11.48h4.803v10.283
		c0,1.27,0.226,2.223,0.678,2.858c0.451,0.635,1.17,0.953,2.157,0.953c1.344,0,2.314-0.449,2.913-1.346s0.897-2.386,0.897-4.464
		v-8.283h4.803v17.605H1064.955z"/>
	<path fill="#C73D27" d="M1089.441,96.907h-4.803V86.625c0-1.27-0.213-2.223-0.638-2.858c-0.425-0.635-1.095-0.953-2.008-0.953
		c-1.229,0-2.121,0.452-2.677,1.354c-0.557,0.903-0.835,2.388-0.835,4.456v8.283h-4.803V79.302h3.669l0.646,2.252h0.268
		c0.473-0.808,1.155-1.441,2.048-1.897c0.892-0.457,1.915-0.685,3.07-0.685c2.635,0,4.42,0.861,5.354,2.583h0.425
		c0.473-0.819,1.168-1.454,2.086-1.905c0.919-0.451,1.955-0.677,3.11-0.677c1.994,0,3.504,0.512,4.527,1.536
		c1.023,1.023,1.535,2.664,1.535,4.921v11.479h-4.818V86.625c0-1.27-0.213-2.223-0.638-2.858c-0.425-0.635-1.095-0.953-2.008-0.953
		c-1.176,0-2.055,0.42-2.638,1.26c-0.583,0.84-0.874,2.173-0.874,4V96.907z"/>
	<path fill="#C73D27" d="M1128.194,96.907l-1.354-6.157l-1.826-7.779h-0.11l-3.213,13.936h-5.165l-5.008-17.605h4.787l2.032,7.795
		c0.325,1.396,0.655,3.323,0.991,5.779h0.095c0.042-0.798,0.226-2.063,0.552-3.795l0.252-1.339l2.173-8.44h5.291l2.063,8.44
		c0.042,0.231,0.107,0.573,0.197,1.024c0.089,0.451,0.176,0.932,0.26,1.441s0.16,1.008,0.229,1.496
		c0.067,0.488,0.107,0.879,0.118,1.173h0.094c0.095-0.756,0.263-1.792,0.504-3.11c0.242-1.317,0.415-2.207,0.52-2.669l2.11-7.795
		h4.709l-5.071,17.605H1128.194z"/>
	<path fill="#C73D27" d="M1152.508,96.907l-0.93-2.394h-0.126c-0.809,1.019-1.64,1.724-2.495,2.118
		c-0.856,0.394-1.972,0.59-3.347,0.59c-1.69,0-3.021-0.483-3.992-1.449c-0.971-0.966-1.456-2.341-1.456-4.126
		c0-1.868,0.653-3.246,1.96-4.133c1.308-0.887,3.278-1.378,5.913-1.472l3.056-0.095v-0.771c0-1.785-0.914-2.677-2.74-2.677
		c-1.407,0-3.061,0.425-4.961,1.276l-1.59-3.244c2.025-1.06,4.272-1.59,6.739-1.59c2.362,0,4.173,0.514,5.433,1.543
		c1.26,1.029,1.89,2.593,1.89,4.693v11.731H1152.508z M1151.091,88.75l-1.858,0.063c-1.396,0.042-2.436,0.294-3.118,0.756
		s-1.023,1.165-1.023,2.11c0,1.354,0.776,2.031,2.33,2.031c1.113,0,2.003-0.32,2.67-0.96c0.666-0.64,1-1.491,1-2.551V88.75z"/>
	<path fill="#C73D27" d="M1176.129,79.302v2.441l-2.756,0.708c0.504,0.788,0.756,1.669,0.756,2.646c0,1.89-0.659,3.362-1.977,4.417
		c-1.317,1.055-3.146,1.583-5.488,1.583l-0.865-0.047l-0.709-0.079c-0.493,0.378-0.74,0.798-0.74,1.26
		c0,0.693,0.882,1.039,2.646,1.039h2.992c1.932,0,3.403,0.415,4.417,1.244c1.013,0.83,1.52,2.047,1.52,3.653
		c0,2.058-0.858,3.653-2.574,4.787c-1.717,1.134-4.182,1.701-7.394,1.701c-2.457,0-4.333-0.428-5.63-1.283
		c-1.297-0.856-1.944-2.055-1.944-3.598c0-1.061,0.33-1.948,0.992-2.662c0.661-0.714,1.632-1.223,2.913-1.527
		c-0.494-0.21-0.924-0.554-1.291-1.031c-0.368-0.478-0.552-0.984-0.552-1.52c0-0.671,0.194-1.23,0.583-1.677
		c0.388-0.446,0.95-0.884,1.685-1.315c-0.924-0.399-1.656-1.04-2.196-1.921c-0.541-0.882-0.812-1.921-0.812-3.118
		c0-1.921,0.625-3.407,1.874-4.457c1.249-1.049,3.034-1.575,5.354-1.575c0.493,0,1.078,0.045,1.756,0.134
		c0.677,0.089,1.109,0.155,1.299,0.197H1176.129z M1162.539,99.396c0,0.661,0.317,1.181,0.952,1.559
		c0.636,0.378,1.525,0.567,2.669,0.567c1.722,0,3.071-0.236,4.048-0.708c0.976-0.473,1.464-1.118,1.464-1.937
		c0-0.661-0.289-1.118-0.866-1.37s-1.47-0.378-2.677-0.378h-2.488c-0.882,0-1.619,0.207-2.212,0.622
		C1162.835,98.164,1162.539,98.713,1162.539,99.396z M1164.287,85.065c0,0.956,0.218,1.711,0.653,2.268
		c0.436,0.557,1.1,0.834,1.992,0.834c0.902,0,1.563-0.278,1.983-0.834c0.42-0.556,0.63-1.312,0.63-2.268
		c0-2.121-0.871-3.181-2.613-3.181C1165.169,81.885,1164.287,82.945,1164.287,85.065z"/>
	<path fill="#C73D27" d="M1186.994,97.222c-2.834,0-5.05-0.782-6.646-2.346s-2.393-3.779-2.393-6.646c0-2.95,0.737-5.23,2.212-6.842
		s3.514-2.417,6.118-2.417c2.487,0,4.425,0.708,5.811,2.126s2.078,3.375,2.078,5.874v2.331h-11.354
		c0.053,1.365,0.457,2.431,1.213,3.197c0.756,0.767,1.815,1.149,3.181,1.149c1.061,0,2.063-0.11,3.008-0.331
		c0.944-0.22,1.932-0.572,2.96-1.055v3.716c-0.84,0.42-1.737,0.732-2.692,0.937S1188.369,97.222,1186.994,97.222z M1186.317,82.389
		c-1.019,0-1.816,0.323-2.394,0.968s-0.908,1.562-0.992,2.748h6.739c-0.021-1.186-0.33-2.102-0.929-2.748
		S1187.335,82.389,1186.317,82.389z"/>
	<path fill="#C73D27" d="M1210.363,91.679c0,1.806-0.628,3.181-1.882,4.125c-1.255,0.945-3.132,1.417-5.63,1.417
		c-1.281,0-2.373-0.086-3.275-0.26c-0.903-0.173-1.748-0.428-2.535-0.764V92.23c0.892,0.42,1.897,0.771,3.016,1.055
		c1.118,0.284,2.102,0.425,2.952,0.425c1.742,0,2.614-0.504,2.614-1.512c0-0.378-0.116-0.685-0.347-0.921
		c-0.23-0.236-0.63-0.504-1.196-0.803c-0.567-0.299-1.323-0.648-2.268-1.047c-1.354-0.567-2.35-1.092-2.984-1.575
		c-0.636-0.482-1.098-1.037-1.386-1.661c-0.289-0.625-0.433-1.394-0.433-2.307c0-1.564,0.605-2.774,1.818-3.629
		s2.932-1.284,5.157-1.284c2.12,0,4.184,0.462,6.188,1.386l-1.449,3.464c-0.881-0.378-1.706-0.688-2.472-0.929
		c-0.767-0.242-1.549-0.362-2.347-0.362c-1.417,0-2.126,0.383-2.126,1.149c0,0.431,0.229,0.803,0.686,1.118
		c0.456,0.315,1.456,0.782,3,1.401c1.375,0.557,2.383,1.076,3.023,1.559c0.64,0.483,1.112,1.039,1.417,1.669
		S1210.363,90.808,1210.363,91.679z"/>
	<path fill="#C73D27" d="M949.885,135.607h-4.803v-10.283c0-1.27-0.213-2.223-0.638-2.858c-0.425-0.635-1.095-0.953-2.008-0.953
		c-1.229,0-2.121,0.452-2.677,1.354c-0.557,0.903-0.835,2.388-0.835,4.456v8.283h-4.803v-17.605h3.669l0.646,2.252h0.268
		c0.473-0.808,1.155-1.441,2.048-1.897c0.892-0.457,1.915-0.685,3.07-0.685c2.635,0,4.42,0.861,5.354,2.583h0.425
		c0.473-0.819,1.168-1.454,2.086-1.905c0.919-0.451,1.955-0.677,3.11-0.677c1.994,0,3.504,0.512,4.527,1.536
		c1.023,1.023,1.535,2.664,1.535,4.921v11.479h-4.818v-10.283c0-1.27-0.213-2.223-0.638-2.858c-0.425-0.635-1.095-0.953-2.008-0.953
		c-1.176,0-2.055,0.42-2.638,1.26c-0.583,0.84-0.874,2.173-0.874,4V135.607z"/>
	<path fill="#C73D27" d="M978.261,135.607l-0.646-2.252h-0.252c-0.515,0.819-1.244,1.452-2.189,1.897
		c-0.944,0.446-2.021,0.669-3.228,0.669c-2.068,0-3.627-0.554-4.677-1.661s-1.575-2.701-1.575-4.779v-11.48h4.803v10.283
		c0,1.27,0.226,2.223,0.678,2.858c0.451,0.635,1.17,0.953,2.157,0.953c1.344,0,2.314-0.449,2.913-1.346s0.897-2.386,0.897-4.464
		v-8.283h4.803v17.605H978.261z"/>
	<path fill="#C73D27" d="M999.268,130.379c0,1.806-0.628,3.181-1.882,4.125c-1.255,0.945-3.132,1.417-5.63,1.417
		c-1.281,0-2.373-0.086-3.275-0.26c-0.903-0.173-1.748-0.428-2.535-0.764v-3.968c0.892,0.42,1.897,0.771,3.016,1.055
		c1.118,0.284,2.102,0.425,2.952,0.425c1.742,0,2.614-0.504,2.614-1.512c0-0.378-0.116-0.685-0.347-0.921
		c-0.23-0.236-0.63-0.504-1.196-0.803c-0.567-0.299-1.323-0.648-2.268-1.047c-1.354-0.567-2.35-1.092-2.984-1.575
		c-0.636-0.482-1.098-1.037-1.386-1.661c-0.289-0.625-0.433-1.394-0.433-2.307c0-1.564,0.605-2.774,1.818-3.629
		s2.932-1.284,5.157-1.284c2.12,0,4.184,0.462,6.188,1.386l-1.449,3.464c-0.881-0.378-1.706-0.688-2.472-0.929
		c-0.767-0.242-1.549-0.362-2.347-0.362c-1.417,0-2.126,0.383-2.126,1.149c0,0.431,0.229,0.803,0.686,1.118
		c0.456,0.315,1.456,0.782,3,1.401c1.375,0.557,2.383,1.076,3.023,1.559c0.64,0.483,1.112,1.039,1.417,1.669
		S999.268,129.508,999.268,130.379z"/>
	<path fill="#C73D27" d="M1010.432,132.096c0.84,0,1.848-0.184,3.023-0.551v3.574c-1.197,0.536-2.667,0.803-4.409,0.803
		c-1.921,0-3.32-0.485-4.196-1.457c-0.877-0.971-1.315-2.428-1.315-4.37v-8.487h-2.299v-2.031l2.646-1.606l1.386-3.716h3.07v3.748
		h4.929v3.606h-4.929v8.487c0,0.683,0.191,1.187,0.575,1.512C1009.295,131.933,1009.802,132.096,1010.432,132.096z"/>
	<path fill="#C73D27" d="M1035.186,117.671c2.078,0,3.705,0.811,4.881,2.433s1.764,3.845,1.764,6.669
		c0,2.908-0.605,5.16-1.818,6.755s-2.863,2.394-4.952,2.394c-2.068,0-3.69-0.75-4.866-2.252h-0.33l-0.804,1.937h-3.669v-24.502
		h4.803v5.701c0,0.724-0.063,1.884-0.188,3.48h0.188C1031.316,118.543,1032.98,117.671,1035.186,117.671z M1033.643,121.514
		c-1.187,0-2.053,0.365-2.599,1.095s-0.829,1.934-0.851,3.614v0.52c0,1.89,0.281,3.244,0.843,4.063s1.451,1.228,2.669,1.228
		c0.986,0,1.771-0.454,2.354-1.362c0.582-0.908,0.874-2.229,0.874-3.96c0-1.732-0.294-3.031-0.882-3.897
		C1035.463,121.947,1034.66,121.514,1033.643,121.514z"/>
	<path fill="#C73D27" d="M1053.767,135.922c-2.834,0-5.05-0.782-6.646-2.346s-2.393-3.779-2.393-6.646
		c0-2.95,0.737-5.23,2.212-6.842s3.514-2.417,6.118-2.417c2.487,0,4.425,0.708,5.811,2.126s2.078,3.375,2.078,5.874v2.331h-11.354
		c0.053,1.365,0.457,2.431,1.213,3.197c0.756,0.767,1.815,1.149,3.181,1.149c1.061,0,2.063-0.11,3.008-0.331
		c0.944-0.22,1.932-0.572,2.96-1.055v3.716c-0.84,0.42-1.737,0.732-2.692,0.937S1055.142,135.922,1053.767,135.922z
		 M1053.09,121.089c-1.019,0-1.816,0.323-2.394,0.968s-0.908,1.562-0.992,2.748h6.739c-0.021-1.186-0.33-2.102-0.929-2.748
		S1054.107,121.089,1053.09,121.089z"/>
	<path fill="#C73D27" d="M1073.025,113.451c0-1.564,0.872-2.346,2.614-2.346s2.614,0.782,2.614,2.346
		c0,0.746-0.218,1.326-0.653,1.74c-0.437,0.415-1.09,0.622-1.961,0.622C1073.897,115.813,1073.025,115.026,1073.025,113.451z
		 M1078.033,135.607h-4.803v-17.605h4.803V135.607z"/>
	<path fill="#C73D27" d="M1099.323,135.607h-4.803v-10.283c0-1.27-0.226-2.223-0.677-2.858c-0.452-0.635-1.171-0.953-2.158-0.953
		c-1.344,0-2.314,0.449-2.913,1.347c-0.599,0.897-0.897,2.386-0.897,4.464v8.283h-4.803v-17.605h3.669l0.646,2.252h0.268
		c0.536-0.85,1.273-1.493,2.213-1.929s2.008-0.654,3.204-0.654c2.048,0,3.601,0.554,4.661,1.662s1.591,2.706,1.591,4.795V135.607z"
		/>
	<path fill="#C73D27" d="M1111.417,135.922c-5.48,0-8.22-3.008-8.22-9.023c0-2.992,0.745-5.278,2.235-6.858
		c1.491-1.58,3.627-2.37,6.409-2.37c2.037,0,3.863,0.399,5.48,1.197l-1.418,3.716c-0.756-0.304-1.459-0.554-2.109-0.748
		c-0.651-0.194-1.302-0.291-1.953-0.291c-2.498,0-3.748,1.774-3.748,5.322c0,3.443,1.25,5.165,3.748,5.165
		c0.924,0,1.779-0.123,2.566-0.37c0.788-0.247,1.575-0.632,2.362-1.157v4.11c-0.776,0.494-1.562,0.835-2.354,1.023
		C1113.624,135.828,1112.624,135.922,1111.417,135.922z"/>
	<path fill="#C73D27" d="M1130.676,117.671c0.65,0,1.191,0.047,1.622,0.142l-0.362,4.503c-0.389-0.105-0.861-0.158-1.417-0.158
		c-1.533,0-2.728,0.394-3.583,1.181c-0.855,0.788-1.283,1.89-1.283,3.307v8.96h-4.803v-17.605h3.638l0.708,2.961h0.236
		c0.546-0.987,1.284-1.782,2.213-2.386S1129.584,117.671,1130.676,117.671z"/>
	<path fill="#C73D27" d="M1143.462,135.922c-2.834,0-5.05-0.782-6.646-2.346s-2.393-3.779-2.393-6.646
		c0-2.95,0.737-5.23,2.212-6.842s3.514-2.417,6.118-2.417c2.487,0,4.425,0.708,5.811,2.126s2.078,3.375,2.078,5.874v2.331h-11.354
		c0.053,1.365,0.457,2.431,1.213,3.197c0.756,0.767,1.815,1.149,3.181,1.149c1.061,0,2.063-0.11,3.008-0.331
		c0.944-0.22,1.932-0.572,2.96-1.055v3.716c-0.84,0.42-1.737,0.732-2.692,0.937S1144.837,135.922,1143.462,135.922z
		 M1142.785,121.089c-1.019,0-1.816,0.323-2.394,0.968s-0.908,1.562-0.992,2.748h6.739c-0.021-1.186-0.33-2.102-0.929-2.748
		S1143.803,121.089,1142.785,121.089z"/>
	<path fill="#C73D27" d="M1165.729,135.607l-0.93-2.394h-0.126c-0.809,1.019-1.64,1.724-2.495,2.118
		c-0.856,0.394-1.972,0.59-3.347,0.59c-1.69,0-3.021-0.483-3.992-1.449c-0.971-0.966-1.456-2.341-1.456-4.126
		c0-1.868,0.653-3.246,1.96-4.133c1.308-0.887,3.278-1.378,5.913-1.472l3.056-0.095v-0.771c0-1.785-0.914-2.677-2.74-2.677
		c-1.407,0-3.061,0.425-4.961,1.276l-1.59-3.244c2.025-1.06,4.272-1.59,6.739-1.59c2.362,0,4.173,0.514,5.433,1.543
		c1.26,1.029,1.89,2.593,1.89,4.693v11.731H1165.729z M1164.312,127.45l-1.858,0.063c-1.396,0.042-2.436,0.294-3.118,0.756
		s-1.023,1.165-1.023,2.11c0,1.354,0.776,2.031,2.33,2.031c1.113,0,2.003-0.32,2.67-0.96c0.666-0.64,1-1.491,1-2.551V127.45z"/>
	<path fill="#C73D27" d="M1186.311,130.379c0,1.806-0.628,3.181-1.882,4.125c-1.255,0.945-3.132,1.417-5.63,1.417
		c-1.281,0-2.373-0.086-3.275-0.26c-0.903-0.173-1.748-0.428-2.535-0.764v-3.968c0.892,0.42,1.897,0.771,3.016,1.055
		c1.118,0.284,2.102,0.425,2.952,0.425c1.742,0,2.614-0.504,2.614-1.512c0-0.378-0.116-0.685-0.347-0.921
		c-0.23-0.236-0.63-0.504-1.196-0.803c-0.567-0.299-1.323-0.648-2.268-1.047c-1.354-0.567-2.35-1.092-2.984-1.575
		c-0.636-0.482-1.098-1.037-1.386-1.661c-0.289-0.625-0.433-1.394-0.433-2.307c0-1.564,0.605-2.774,1.818-3.629
		s2.932-1.284,5.157-1.284c2.12,0,4.184,0.462,6.188,1.386l-1.449,3.464c-0.881-0.378-1.706-0.688-2.472-0.929
		c-0.767-0.242-1.549-0.362-2.347-0.362c-1.417,0-2.126,0.383-2.126,1.149c0,0.431,0.229,0.803,0.686,1.118
		c0.456,0.315,1.456,0.782,3,1.401c1.375,0.557,2.383,1.076,3.023,1.559c0.64,0.483,1.112,1.039,1.417,1.669
		S1186.311,129.508,1186.311,130.379z"/>
	<path fill="#C73D27" d="M1198.025,135.922c-2.834,0-5.05-0.782-6.646-2.346s-2.393-3.779-2.393-6.646
		c0-2.95,0.737-5.23,2.212-6.842s3.514-2.417,6.118-2.417c2.487,0,4.425,0.708,5.811,2.126s2.078,3.375,2.078,5.874v2.331h-11.354
		c0.053,1.365,0.457,2.431,1.213,3.197c0.756,0.767,1.815,1.149,3.181,1.149c1.061,0,2.063-0.11,3.008-0.331
		c0.944-0.22,1.932-0.572,2.96-1.055v3.716c-0.84,0.42-1.737,0.732-2.692,0.937S1199.4,135.922,1198.025,135.922z M1197.349,121.089
		c-1.019,0-1.816,0.323-2.394,0.968s-0.908,1.562-0.992,2.748h6.739c-0.021-1.186-0.33-2.102-0.929-2.748
		S1198.366,121.089,1197.349,121.089z"/>
	<path fill="#C73D27" d="M1214.686,135.922c-2.068,0-3.692-0.803-4.873-2.409c-1.182-1.606-1.771-3.832-1.771-6.677
		c0-2.887,0.601-5.136,1.803-6.748s2.857-2.417,4.968-2.417c2.215,0,3.905,0.861,5.071,2.583h0.157
		c-0.242-1.312-0.362-2.482-0.362-3.512v-5.637h4.818v24.502h-3.685l-0.929-2.283h-0.205
		C1218.586,135.056,1216.922,135.922,1214.686,135.922z M1216.371,132.096c1.228,0,2.128-0.356,2.7-1.071
		c0.572-0.714,0.885-1.926,0.937-3.637v-0.52c0-1.89-0.291-3.244-0.873-4.063c-0.583-0.819-1.53-1.229-2.843-1.229
		c-1.071,0-1.903,0.454-2.496,1.362s-0.89,2.228-0.89,3.96c0,1.732,0.299,3.031,0.897,3.897
		C1214.402,131.663,1215.258,132.096,1216.371,132.096z"/>
</g>
</svg>
