<?xml version="1.0" encoding="utf-8"?>
<!-- Generator: Adobe Illustrator 17.0.0, SVG Export Plug-In . SVG Version: 6.00 Build 0)  -->
<!DOCTYPE svg PUBLIC "-//W3C//DTD SVG 1.1//EN" "http://www.w3.org/Graphics/SVG/1.1/DTD/svg11.dtd">
<svg version="1.1" id="Layer_1" xmlns="http://www.w3.org/2000/svg" xmlns:xlink="http://www.w3.org/1999/xlink" x="0px" y="0px"
	 width="640px" height="155.871px" viewBox="1980 0 640 155.871" enable-background="new 1980 0 640 155.871" xml:space="preserve">
<g>
	<path fill="#C73D27" d="M2083.716,38.508c1.269-1.142,2.317-2.569,3.032-4.241c2.633-6.158-0.225-13.284-6.383-15.915
		c-6.158-2.633-13.284,0.225-15.917,6.382c-2.632,6.158,0.226,13.285,6.384,15.916c4.197,1.794,8.84,1.036,12.207-1.576
		C2083.249,38.864,2083.478,38.679,2083.716,38.508z"/>
	<path fill="#C73D27" d="M2048.564,86.985c1.264,3.384,3.484,10.728,3.474,20.418c-0.002,6.788-1.067,14.733-4.29,23.445
		c-1.293,3.49,0.489,7.367,3.98,8.659c0.771,0.286,1.562,0.421,2.338,0.421c2.738,0.001,5.313-1.681,6.32-4.4
		c3.822-10.322,5.131-19.919,5.13-28.124c-0.012-12.25-2.864-21.372-4.547-25.706c0.015-0.118,0.031-0.232,0.045-0.354
		c0.295-7.034,2.9-14.554,5.351-20.902l-7.731-7.603c-1.024-1.01-1.596-2.358-1.61-3.798c-0.012-1.44,0.539-2.798,1.548-3.824
		c1.021-1.039,2.387-1.611,3.844-1.611c1.424,0,2.765,0.55,3.779,1.547l3.792,3.729c0.031-3.448-1.318-6.634-4.092-7.871
		c-4.331-1.931-11.336-0.633-15.384,6.666c-5.507,10.069-7.518,16.901-8.231,28.937
		C2042.381,82.799,2045.207,85.591,2048.564,86.985z"/>
	<path fill="#C73D27" d="M2103.647,48.331c-1.275-0.44-2.236,0.037-3.251-1.121c-0.57-0.651-0.876-1.469-1.613-1.967
		c-1.793-1.209-4.511,1.021-5.738,2.056c-0.494,0.416,1.495,0.227,1.897-0.112c1.991-1.679,2.003-1.184,3.308,0.509
		c0.933,1.211,1.965,1.431,3.44,1.446c2.564,0.027,1.588,4.053,1.118,5.365c-0.15,0.423-0.853,2.266-1.374,2.306
		c-0.878,0.067-1.773-0.16-2.656-0.119c-1.331,0.062-3.029,0.347-3.975,1.398c-1.355,1.504-1.506,3.908-3.971,2.434
		c-3.907-2.334-3.238-7.101,0.839-8.691c1.377-0.537,0.08-0.879-0.743-0.558c-2.06,0.804-4.598,2.153-4.848,4.638
		c-0.221,2.187,1.039,4.14,2.797,5.344c1.4,0.96,3.427,1.116,4.937,0.301c0.829-0.447,1.384-1.006,1.845-1.828
		c1.247-2.228,2.762-2.01,4.897-2.004C2104.506,57.737,2107.934,49.811,2103.647,48.331z"/>
	<path fill="#C73D27" d="M2093.542,52.312c0.237,0.592,1.064,0.702,1.845,0.276c0.78-0.426,0.963-1.292,0.413-1.892
		c-1.603-1.63-3.473-2.774-5.413-3.602l-0.381,0.478C2091.512,48.969,2092.771,50.588,2093.542,52.312z"/>
	<path fill="#C73D27" d="M2059.339,45.972c-1.67,1.698-1.648,4.428,0.052,6.098h-0.001l10.961,10.781
		c0.805,0.793,1.901,1.238,3.026,1.238c0.086,0,0.171-0.003,0.257-0.008c1.215-0.073,2.353-0.664,3.112-1.616l13.475-16.89
		c1.487-1.862,1.181-4.574-0.68-6.059c-1.862-1.486-4.574-1.181-6.06,0.681l-10.492,13.15l-7.551-7.425
		C2063.74,44.25,2061.01,44.274,2059.339,45.972z"/>
	<path fill="#C73D27" d="M2063.208,18.612c0.039,0.009,0.077,0.013,0.116,0.013c0.247,0,0.471-0.172,0.527-0.424h-0.001
		c0.372-1.707,1.889-2.872,3.566-2.872c0.258,0,0.521,0.028,0.786,0.086c0.291,0.065,0.577-0.119,0.642-0.41
		c0.063-0.291-0.119-0.578-0.41-0.643c-0.343-0.075-0.684-0.111-1.019-0.111c-2.176,0-4.133,1.508-4.619,3.718
		C2062.732,18.259,2062.916,18.548,2063.208,18.612z"/>
	<path fill="#C73D27" d="M2068.405,16.28c-0.236-0.053-0.47-0.078-0.699-0.078c-1.488,0-2.824,1.032-3.156,2.542
		c-0.064,0.291,0.12,0.579,0.411,0.643c0.039,0.009,0.078,0.012,0.117,0.012c0.247,0,0.471-0.172,0.527-0.424v-0.001
		c0.219-1.006,1.113-1.694,2.101-1.694c0.153,0,0.306,0.016,0.464,0.051c0.291,0.065,0.579-0.118,0.644-0.409
		C2068.877,16.632,2068.695,16.345,2068.405,16.28z"/>
	<path fill="#C73D27" d="M2075.177,69.414c0.37,0.089,0.743,0.132,1.111,0.132c2.136,0,4.075-1.455,4.596-3.622
		c0.07-0.289-0.108-0.581-0.398-0.65c-0.289-0.07-0.58,0.109-0.648,0.398h-0.002c-0.401,1.673-1.901,2.797-3.548,2.797
		c-0.283,0-0.572-0.034-0.86-0.103c-0.289-0.07-0.58,0.109-0.65,0.398C2074.709,69.054,2074.887,69.345,2075.177,69.414z"/>
	<path fill="#C73D27" d="M2075.246,67.498c0.247,0.06,0.498,0.091,0.747,0.091c0.005,0,0.01,0,0.015,0
		c1.461,0.001,2.783-0.993,3.142-2.475c0.07-0.289-0.109-0.581-0.398-0.65c-0.289-0.07-0.58,0.108-0.651,0.398
		c-0.238,0.986-1.122,1.649-2.093,1.649c-0.169,0-0.339-0.02-0.508-0.06c-0.291-0.07-0.581,0.109-0.651,0.398
		C2074.777,67.137,2074.955,67.428,2075.246,67.498z"/>
	<path fill="#C73D27" d="M2092.226,35.869h-0.002c1.821,0.26,3.134,1.827,3.134,3.611c0,0.174-0.012,0.348-0.038,0.528
		c-0.041,0.295,0.163,0.568,0.459,0.609c0.026,0.004,0.052,0.005,0.077,0.005c0.264,0,0.495-0.195,0.533-0.465
		c0.032-0.227,0.047-0.453,0.046-0.678c0-2.316-1.698-4.339-4.056-4.678c-0.297-0.042-0.569,0.162-0.611,0.458
		C2091.726,35.554,2091.93,35.827,2092.226,35.869z"/>
	<path fill="#C73D27" d="M2091.582,37.674h-0.002c1.074,0.154,1.849,1.077,1.848,2.129c0,0.102-0.008,0.208-0.022,0.318
		c-0.04,0.296,0.167,0.567,0.462,0.606c0.024,0.003,0.05,0.005,0.074,0.005c0.266,0,0.496-0.196,0.533-0.466
		c0.021-0.154,0.033-0.308,0.032-0.464c0-1.584-1.161-2.962-2.772-3.197c-0.296-0.042-0.568,0.163-0.61,0.458
		C2091.08,37.36,2091.286,37.632,2091.582,37.674z"/>
</g>
<g>
	<path fill="#C73D27" d="M2247.842,67.73h-5.559l-3.118-12.094c-0.115-0.43-0.313-1.32-0.591-2.669s-0.438-2.254-0.479-2.717
		c-0.063,0.567-0.221,1.478-0.473,2.732s-0.446,2.149-0.583,2.685l-3.102,12.063h-5.543l-5.874-23.022h4.803l2.945,12.566
		c0.514,2.32,0.887,4.331,1.117,6.031c0.063-0.599,0.208-1.525,0.434-2.779s0.438-2.229,0.638-2.921l3.354-12.897h4.613
		l3.354,12.897c0.146,0.578,0.33,1.459,0.551,2.646c0.221,1.187,0.389,2.205,0.504,3.055c0.104-0.819,0.273-1.84,0.504-3.063
		c0.23-1.223,0.441-2.212,0.63-2.968l2.929-12.566h4.804L2247.842,67.73z"/>
	<path fill="#C73D27" d="M2272.218,58.896c0,2.866-0.756,5.107-2.268,6.724c-1.512,1.617-3.616,2.425-6.314,2.425
		c-1.69,0-3.181-0.37-4.473-1.11c-1.291-0.74-2.283-1.803-2.976-3.188c-0.693-1.386-1.039-3.002-1.039-4.85
		c0-2.876,0.75-5.112,2.251-6.708c1.502-1.596,3.611-2.394,6.331-2.394c1.689,0,3.181,0.368,4.472,1.103s2.283,1.79,2.977,3.165
		C2271.871,55.438,2272.218,57.049,2272.218,58.896z M2260.045,58.896c0,1.743,0.286,3.06,0.858,3.952
		c0.572,0.893,1.504,1.339,2.795,1.339c1.281,0,2.202-0.443,2.764-1.331s0.843-2.207,0.843-3.96c0-1.743-0.283-3.05-0.851-3.921
		c-0.566-0.872-1.496-1.307-2.787-1.307c-1.281,0-2.204,0.433-2.771,1.299C2260.329,55.833,2260.045,57.143,2260.045,58.896z"/>
	<path fill="#C73D27" d="M2286.012,49.794c0.65,0,1.191,0.047,1.622,0.142l-0.362,4.503c-0.389-0.105-0.861-0.158-1.417-0.158
		c-1.533,0-2.728,0.394-3.583,1.181c-0.855,0.788-1.283,1.89-1.283,3.307v8.96h-4.803V50.125h3.638l0.708,2.961h0.236
		c0.546-0.987,1.284-1.782,2.213-2.386S2284.92,49.794,2286.012,49.794z"/>
	<path fill="#C73D27" d="M2295.444,58.156l2.094-2.677l4.929-5.354h5.417l-6.991,7.638l7.417,9.968h-5.543l-5.071-7.133
		l-2.063,1.653v5.48h-4.803V43.228h4.803v10.928l-0.252,4H2295.444z"/>
	<path fill="#C73D27" d="M2318.797,68.045c-2.834,0-5.05-0.782-6.646-2.346s-2.393-3.779-2.393-6.646c0-2.95,0.737-5.23,2.212-6.842
		s3.514-2.417,6.118-2.417c2.487,0,4.425,0.708,5.811,2.126s2.078,3.375,2.078,5.874v2.331h-11.354
		c0.053,1.365,0.457,2.431,1.213,3.197c0.756,0.767,1.815,1.149,3.181,1.149c1.061,0,2.063-0.11,3.008-0.331
		c0.944-0.22,1.932-0.572,2.96-1.055v3.716c-0.84,0.42-1.737,0.732-2.692,0.937S2320.172,68.045,2318.797,68.045z M2318.12,53.212
		c-1.019,0-1.816,0.323-2.394,0.968s-0.908,1.562-0.992,2.748h6.739c-0.021-1.186-0.33-2.102-0.929-2.748
		S2319.138,53.212,2318.12,53.212z"/>
	<path fill="#C73D27" d="M2339.709,49.794c0.65,0,1.191,0.047,1.622,0.142l-0.362,4.503c-0.389-0.105-0.861-0.158-1.417-0.158
		c-1.533,0-2.728,0.394-3.583,1.181c-0.855,0.788-1.283,1.89-1.283,3.307v8.96h-4.803V50.125h3.638l0.708,2.961h0.236
		c0.546-0.987,1.284-1.782,2.213-2.386S2338.617,49.794,2339.709,49.794z"/>
	<path fill="#C73D27" d="M2356.811,62.502c0,1.806-0.628,3.181-1.882,4.125c-1.255,0.945-3.132,1.417-5.63,1.417
		c-1.281,0-2.373-0.086-3.275-0.26c-0.903-0.173-1.748-0.428-2.535-0.764v-3.968c0.892,0.42,1.897,0.771,3.016,1.055
		c1.118,0.284,2.102,0.425,2.952,0.425c1.742,0,2.614-0.504,2.614-1.512c0-0.378-0.116-0.685-0.347-0.921
		c-0.23-0.236-0.63-0.504-1.196-0.803c-0.567-0.299-1.323-0.648-2.268-1.047c-1.354-0.567-2.35-1.092-2.984-1.575
		c-0.636-0.482-1.098-1.037-1.386-1.661c-0.289-0.625-0.433-1.394-0.433-2.307c0-1.564,0.605-2.774,1.818-3.629
		s2.932-1.284,5.157-1.284c2.12,0,4.184,0.462,6.188,1.386l-1.449,3.464c-0.881-0.378-1.706-0.688-2.472-0.929
		c-0.767-0.242-1.549-0.362-2.347-0.362c-1.417,0-2.126,0.383-2.126,1.149c0,0.431,0.229,0.803,0.686,1.118
		c0.456,0.315,1.456,0.782,3,1.401c1.375,0.557,2.383,1.076,3.023,1.559c0.64,0.483,1.112,1.039,1.417,1.669
		S2356.811,61.631,2356.811,62.502z"/>
	<path fill="#C73D27" d="M2385.187,67.73h-4.803V57.448c0-1.27-0.226-2.223-0.677-2.858c-0.452-0.635-1.171-0.953-2.158-0.953
		c-1.344,0-2.314,0.449-2.913,1.347c-0.599,0.897-0.897,2.386-0.897,4.464v8.283h-4.803V50.125h3.669l0.646,2.252h0.268
		c0.536-0.85,1.273-1.493,2.213-1.929s2.008-0.654,3.204-0.654c2.048,0,3.601,0.554,4.661,1.662s1.591,2.706,1.591,4.795V67.73z"/>
	<path fill="#C73D27" d="M2398.099,68.045c-2.834,0-5.05-0.782-6.646-2.346s-2.393-3.779-2.393-6.646c0-2.95,0.737-5.23,2.212-6.842
		s3.514-2.417,6.118-2.417c2.487,0,4.425,0.708,5.811,2.126s2.078,3.375,2.078,5.874v2.331h-11.354
		c0.053,1.365,0.457,2.431,1.213,3.197c0.756,0.767,1.815,1.149,3.181,1.149c1.061,0,2.063-0.11,3.008-0.331
		c0.944-0.22,1.932-0.572,2.96-1.055v3.716c-0.84,0.42-1.737,0.732-2.692,0.937S2399.474,68.045,2398.099,68.045z M2397.422,53.212
		c-1.019,0-1.816,0.323-2.394,0.968s-0.908,1.562-0.992,2.748h6.739c-0.021-1.186-0.33-2.102-0.929-2.748
		S2398.439,53.212,2397.422,53.212z"/>
	<path fill="#C73D27" d="M2417.152,68.045c-2.834,0-5.05-0.782-6.646-2.346s-2.393-3.779-2.393-6.646c0-2.95,0.737-5.23,2.212-6.842
		s3.514-2.417,6.118-2.417c2.487,0,4.425,0.708,5.811,2.126s2.078,3.375,2.078,5.874v2.331h-11.354
		c0.053,1.365,0.457,2.431,1.213,3.197c0.756,0.767,1.815,1.149,3.181,1.149c1.061,0,2.063-0.11,3.008-0.331
		c0.944-0.22,1.932-0.572,2.96-1.055v3.716c-0.84,0.42-1.737,0.732-2.692,0.937S2418.527,68.045,2417.152,68.045z M2416.476,53.212
		c-1.019,0-1.816,0.323-2.394,0.968s-0.908,1.562-0.992,2.748h6.739c-0.021-1.186-0.33-2.102-0.929-2.748
		S2417.493,53.212,2416.476,53.212z"/>
	<path fill="#C73D27" d="M2433.813,68.045c-2.068,0-3.692-0.803-4.873-2.409c-1.182-1.606-1.771-3.832-1.771-6.677
		c0-2.887,0.601-5.136,1.803-6.748s2.857-2.417,4.968-2.417c2.215,0,3.905,0.861,5.071,2.583h0.157
		c-0.242-1.312-0.362-2.482-0.362-3.512v-5.637h4.818V67.73h-3.685l-0.929-2.283h-0.205
		C2437.713,67.179,2436.049,68.045,2433.813,68.045z M2435.498,64.219c1.228,0,2.128-0.356,2.7-1.071
		c0.572-0.714,0.885-1.926,0.937-3.637v-0.52c0-1.89-0.291-3.244-0.873-4.063c-0.583-0.819-1.53-1.229-2.843-1.229
		c-1.071,0-1.903,0.454-2.496,1.362s-0.89,2.228-0.89,3.96c0,1.732,0.299,3.031,0.897,3.897
		C2433.529,63.786,2434.385,64.219,2435.498,64.219z"/>
	<path fill="#C73D27" d="M2464.44,64.219c0.84,0,1.848-0.184,3.023-0.551v3.574c-1.197,0.536-2.667,0.803-4.409,0.803
		c-1.921,0-3.32-0.485-4.196-1.457c-0.877-0.971-1.315-2.428-1.315-4.37v-8.487h-2.299V51.7l2.646-1.606l1.386-3.716h3.07v3.748
		h4.929v3.606h-4.929v8.487c0,0.683,0.191,1.187,0.575,1.512C2463.304,64.056,2463.811,64.219,2464.44,64.219z"/>
	<path fill="#C73D27" d="M2487.021,58.896c0,2.866-0.756,5.107-2.268,6.724c-1.512,1.617-3.616,2.425-6.314,2.425
		c-1.69,0-3.181-0.37-4.473-1.11c-1.291-0.74-2.283-1.803-2.976-3.188c-0.693-1.386-1.039-3.002-1.039-4.85
		c0-2.876,0.75-5.112,2.251-6.708c1.502-1.596,3.611-2.394,6.331-2.394c1.689,0,3.181,0.368,4.472,1.103s2.283,1.79,2.977,3.165
		C2486.675,55.438,2487.021,57.049,2487.021,58.896z M2474.849,58.896c0,1.743,0.286,3.06,0.858,3.952
		c0.572,0.893,1.504,1.339,2.795,1.339c1.281,0,2.202-0.443,2.764-1.331s0.843-2.207,0.843-3.96c0-1.743-0.283-3.05-0.851-3.921
		c-0.566-0.872-1.496-1.307-2.787-1.307c-1.281,0-2.204,0.433-2.771,1.299C2475.133,55.833,2474.849,57.143,2474.849,58.896z"/>
	<path fill="#C73D27" d="M2213.482,106.431h-4.803V96.148c0-2.541-0.945-3.811-2.835-3.811c-1.344,0-2.314,0.457-2.913,1.37
		s-0.897,2.394-0.897,4.44v8.283h-4.803V81.928h4.803v4.992c0,0.389-0.037,1.302-0.11,2.74l-0.11,1.417h0.252
		c1.071-1.722,2.771-2.583,5.103-2.583c2.068,0,3.638,0.557,4.708,1.669c1.071,1.113,1.606,2.708,1.606,4.787V106.431z"/>
	<path fill="#C73D27" d="M2229.607,106.431l-0.93-2.394h-0.126c-0.809,1.019-1.64,1.724-2.495,2.118
		c-0.856,0.394-1.972,0.59-3.347,0.59c-1.69,0-3.021-0.483-3.992-1.449c-0.971-0.966-1.456-2.341-1.456-4.126
		c0-1.868,0.653-3.246,1.96-4.133c1.308-0.887,3.278-1.378,5.913-1.472l3.056-0.095v-0.771c0-1.785-0.914-2.677-2.74-2.677
		c-1.407,0-3.061,0.425-4.961,1.276l-1.59-3.244c2.025-1.06,4.272-1.59,6.739-1.59c2.362,0,4.173,0.514,5.433,1.543
		c1.26,1.029,1.89,2.593,1.89,4.693v11.731H2229.607z M2228.19,98.273l-1.858,0.063c-1.396,0.042-2.436,0.294-3.118,0.756
		s-1.023,1.165-1.023,2.11c0,1.354,0.776,2.031,2.33,2.031c1.113,0,2.003-0.32,2.67-0.96c0.666-0.64,1-1.491,1-2.551V98.273z"/>
	<path fill="#C73D27" d="M2242.095,106.431l-6.708-17.605h5.023l3.401,10.031c0.378,1.27,0.614,2.472,0.708,3.606h0.095
		c0.053-1.008,0.289-2.21,0.709-3.606l3.386-10.031h5.023l-6.709,17.605H2242.095z"/>
	<path fill="#C73D27" d="M2264.22,106.746c-2.834,0-5.05-0.782-6.646-2.346s-2.393-3.779-2.393-6.646c0-2.95,0.737-5.23,2.212-6.842
		s3.514-2.417,6.118-2.417c2.487,0,4.425,0.708,5.811,2.126s2.078,3.375,2.078,5.874v2.331h-11.354
		c0.053,1.365,0.457,2.431,1.213,3.197c0.756,0.767,1.815,1.149,3.181,1.149c1.061,0,2.063-0.11,3.008-0.331
		c0.944-0.22,1.932-0.572,2.96-1.055v3.716c-0.84,0.42-1.737,0.732-2.692,0.937S2265.595,106.746,2264.22,106.746z M2263.543,91.912
		c-1.019,0-1.816,0.323-2.394,0.968s-0.908,1.562-0.992,2.748h6.739c-0.021-1.186-0.33-2.102-0.929-2.748
		S2264.561,91.912,2263.543,91.912z"/>
	<path fill="#C73D27" d="M2293.353,106.746c-2.068,0-3.69-0.75-4.866-2.252h-0.252c0.168,1.47,0.252,2.32,0.252,2.551v7.133h-4.803
		V88.825h3.905l0.677,2.284h0.221c1.123-1.743,2.787-2.614,4.992-2.614c2.078,0,3.705,0.803,4.881,2.41
		c1.176,1.606,1.764,3.837,1.764,6.692c0,1.879-0.275,3.512-0.826,4.897s-1.336,2.44-2.354,3.165
		C2295.924,106.383,2294.728,106.746,2293.353,106.746z M2291.936,92.337c-1.187,0-2.053,0.365-2.599,1.095
		s-0.829,1.934-0.851,3.614v0.52c0,1.89,0.281,3.244,0.843,4.063s1.451,1.228,2.669,1.228c2.152,0,3.229-1.774,3.229-5.322
		c0-1.732-0.266-3.031-0.796-3.897S2293.068,92.337,2291.936,92.337z"/>
	<path fill="#C73D27" d="M2315.272,106.431l-0.93-2.394h-0.126c-0.809,1.019-1.64,1.724-2.495,2.118
		c-0.856,0.394-1.972,0.59-3.347,0.59c-1.69,0-3.021-0.483-3.992-1.449c-0.971-0.966-1.456-2.341-1.456-4.126
		c0-1.868,0.653-3.246,1.96-4.133c1.308-0.887,3.278-1.378,5.913-1.472l3.056-0.095v-0.771c0-1.785-0.914-2.677-2.74-2.677
		c-1.407,0-3.061,0.425-4.961,1.276l-1.59-3.244c2.025-1.06,4.272-1.59,6.739-1.59c2.362,0,4.173,0.514,5.433,1.543
		c1.26,1.029,1.89,2.593,1.89,4.693v11.731H2315.272z M2313.855,98.273l-1.858,0.063c-1.396,0.042-2.436,0.294-3.118,0.756
		s-1.023,1.165-1.023,2.11c0,1.354,0.776,2.031,2.33,2.031c1.113,0,2.003-0.32,2.67-0.96c0.666-0.64,1-1.491,1-2.551V98.273z"/>
	<path fill="#C73D27" d="M2323.366,84.274c0-1.564,0.872-2.346,2.614-2.346s2.614,0.782,2.614,2.346c0,0.746-0.218,1.326-0.653,1.74
		c-0.437,0.415-1.09,0.622-1.961,0.622C2324.238,86.637,2323.366,85.849,2323.366,84.274z M2328.374,106.431h-4.803V88.825h4.803
		V106.431z"/>
	<path fill="#C73D27" d="M2338.987,106.746c-2.068,0-3.692-0.803-4.873-2.409c-1.182-1.606-1.771-3.832-1.771-6.677
		c0-2.887,0.601-5.136,1.803-6.748s2.857-2.417,4.968-2.417c2.215,0,3.905,0.861,5.071,2.583h0.157
		c-0.242-1.312-0.362-2.482-0.362-3.512v-5.637h4.818v24.502h-3.685l-0.929-2.283h-0.205
		C2342.888,105.879,2341.224,106.746,2338.987,106.746z M2340.673,102.919c1.228,0,2.128-0.356,2.7-1.071
		c0.572-0.714,0.885-1.926,0.937-3.637v-0.52c0-1.89-0.291-3.244-0.873-4.063c-0.583-0.819-1.53-1.229-2.843-1.229
		c-1.071,0-1.903,0.454-2.496,1.362s-0.89,2.228-0.89,3.96c0,1.732,0.299,3.031,0.897,3.897
		C2338.704,102.486,2339.56,102.919,2340.673,102.919z"/>
	<path fill="#C73D27" d="M2374.482,101.203c0,1.806-0.628,3.181-1.882,4.125c-1.255,0.945-3.132,1.417-5.63,1.417
		c-1.281,0-2.373-0.086-3.275-0.26c-0.903-0.173-1.748-0.428-2.535-0.764v-3.968c0.892,0.42,1.897,0.771,3.016,1.055
		c1.118,0.284,2.102,0.425,2.952,0.425c1.742,0,2.614-0.504,2.614-1.512c0-0.378-0.116-0.685-0.347-0.921
		c-0.23-0.236-0.63-0.504-1.196-0.803c-0.567-0.299-1.323-0.648-2.268-1.047c-1.354-0.567-2.35-1.092-2.984-1.575
		c-0.636-0.482-1.098-1.037-1.386-1.661c-0.289-0.625-0.433-1.394-0.433-2.307c0-1.564,0.605-2.774,1.818-3.629
		s2.932-1.284,5.157-1.284c2.12,0,4.184,0.462,6.188,1.386l-1.449,3.464c-0.881-0.378-1.706-0.688-2.472-0.929
		c-0.767-0.242-1.549-0.362-2.347-0.362c-1.417,0-2.126,0.383-2.126,1.149c0,0.431,0.229,0.803,0.686,1.118
		c0.456,0.315,1.456,0.782,3,1.401c1.375,0.557,2.383,1.076,3.023,1.559c0.64,0.483,1.112,1.039,1.417,1.669
		S2374.482,100.332,2374.482,101.203z"/>
	<path fill="#C73D27" d="M2378.024,84.274c0-1.564,0.872-2.346,2.614-2.346s2.614,0.782,2.614,2.346c0,0.746-0.218,1.326-0.653,1.74
		c-0.437,0.415-1.09,0.622-1.961,0.622C2378.896,86.637,2378.024,85.849,2378.024,84.274z M2383.032,106.431h-4.803V88.825h4.803
		V106.431z"/>
	<path fill="#C73D27" d="M2395.221,106.746c-5.48,0-8.22-3.008-8.22-9.023c0-2.992,0.745-5.278,2.235-6.858
		c1.491-1.58,3.627-2.37,6.409-2.37c2.037,0,3.863,0.399,5.48,1.197l-1.418,3.716c-0.756-0.304-1.459-0.554-2.109-0.748
		c-0.651-0.194-1.302-0.291-1.953-0.291c-2.498,0-3.748,1.774-3.748,5.322c0,3.443,1.25,5.165,3.748,5.165
		c0.924,0,1.779-0.123,2.566-0.37c0.788-0.247,1.575-0.632,2.362-1.157v4.11c-0.776,0.494-1.562,0.835-2.354,1.023
		C2397.428,106.651,2396.428,106.746,2395.221,106.746z"/>
	<path fill="#C73D27" d="M2409.268,96.856l2.094-2.677l4.929-5.354h5.417l-6.991,7.638l7.417,9.968h-5.543l-5.071-7.133
		l-2.063,1.653v5.48h-4.803V81.928h4.803v10.928l-0.252,4H2409.268z"/>
	<path fill="#C73D27" d="M2437.832,106.431h-4.803V81.928h4.803V106.431z"/>
	<path fill="#C73D27" d="M2450.839,106.746c-2.834,0-5.05-0.782-6.646-2.346s-2.393-3.779-2.393-6.646
		c0-2.95,0.737-5.23,2.212-6.842s3.514-2.417,6.118-2.417c2.487,0,4.425,0.708,5.811,2.126s2.078,3.375,2.078,5.874v2.331h-11.354
		c0.053,1.365,0.457,2.431,1.213,3.197c0.756,0.767,1.815,1.149,3.181,1.149c1.061,0,2.063-0.11,3.008-0.331
		c0.944-0.22,1.932-0.572,2.96-1.055v3.716c-0.84,0.42-1.737,0.732-2.692,0.937S2452.214,106.746,2450.839,106.746z
		 M2450.162,91.912c-1.019,0-1.816,0.323-2.394,0.968s-0.908,1.562-0.992,2.748h6.739c-0.021-1.186-0.33-2.102-0.929-2.748
		S2451.18,91.912,2450.162,91.912z"/>
	<path fill="#C73D27" d="M2473.105,106.431l-0.93-2.394h-0.126c-0.809,1.019-1.64,1.724-2.495,2.118
		c-0.856,0.394-1.972,0.59-3.347,0.59c-1.69,0-3.021-0.483-3.992-1.449c-0.971-0.966-1.456-2.341-1.456-4.126
		c0-1.868,0.653-3.246,1.96-4.133c1.308-0.887,3.278-1.378,5.913-1.472l3.056-0.095v-0.771c0-1.785-0.914-2.677-2.74-2.677
		c-1.407,0-3.061,0.425-4.961,1.276l-1.59-3.244c2.025-1.06,4.272-1.59,6.739-1.59c2.362,0,4.173,0.514,5.433,1.543
		c1.26,1.029,1.89,2.593,1.89,4.693v11.731H2473.105z M2471.688,98.273l-1.858,0.063c-1.396,0.042-2.436,0.294-3.118,0.756
		s-1.023,1.165-1.023,2.11c0,1.354,0.776,2.031,2.33,2.031c1.113,0,2.003-0.32,2.67-0.96c0.666-0.64,1-1.491,1-2.551V98.273z"/>
	<path fill="#C73D27" d="M2485.593,106.431l-6.708-17.605h5.023l3.401,10.031c0.378,1.27,0.614,2.472,0.708,3.606h0.095
		c0.053-1.008,0.289-2.21,0.709-3.606l3.386-10.031h5.023l-6.709,17.605H2485.593z"/>
	<path fill="#C73D27" d="M2507.718,106.746c-2.834,0-5.05-0.782-6.646-2.346s-2.393-3.779-2.393-6.646
		c0-2.95,0.737-5.23,2.212-6.842s3.514-2.417,6.118-2.417c2.487,0,4.425,0.708,5.811,2.126s2.078,3.375,2.078,5.874v2.331h-11.354
		c0.053,1.365,0.457,2.431,1.213,3.197c0.756,0.767,1.815,1.149,3.181,1.149c1.061,0,2.063-0.11,3.008-0.331
		c0.944-0.22,1.932-0.572,2.96-1.055v3.716c-0.84,0.42-1.737,0.732-2.692,0.937S2509.093,106.746,2507.718,106.746z
		 M2507.041,91.912c-1.019,0-1.816,0.323-2.394,0.968s-0.908,1.562-0.992,2.748h6.739c-0.021-1.186-0.33-2.102-0.929-2.748
		S2508.059,91.912,2507.041,91.912z"/>
</g>
</svg>
