<?xml version="1.0" encoding="UTF-8" standalone="no"?><!DOCTYPE svg PUBLIC "-//W3C//DTD SVG 1.1//EN" "http://www.w3.org/Graphics/SVG/1.1/DTD/svg11.dtd"><svg width="100%" height="100%" viewBox="0 0 329 109" version="1.1" xmlns="http://www.w3.org/2000/svg" xmlns:xlink="http://www.w3.org/1999/xlink" xml:space="preserve" style="fill-rule:evenodd;clip-rule:evenodd;stroke-linejoin:round;stroke-miterlimit:1.41421;"><g id="recs-for-policy"><path d="M35.871,31.593l0,6.221l-0.996,0l0,-14.277l3.398,0c1.771,0 3.079,0.327 3.926,0.981c0.846,0.654 1.27,1.639 1.27,2.954c0,0.957 -0.253,1.764 -0.757,2.422c-0.505,0.658 -1.271,1.129 -2.3,1.416l3.877,6.504l-1.191,0l-3.682,-6.221l-3.545,0l0,0Zm0,-0.859l2.725,0c1.204,0 2.139,-0.269 2.803,-0.806c0.664,-0.537 0.996,-1.33 0.996,-2.378c0,-1.087 -0.326,-1.878 -0.977,-2.373c-0.651,-0.495 -1.713,-0.742 -3.184,-0.742l-2.363,0l0,6.299Z" style="fill:#c73d27;fill-rule:nonzero;"/><path d="M56.563,37.814l-7.803,0l0,-14.277l7.803,0l0,0.918l-6.807,0l0,5.4l6.426,0l0,0.918l-6.426,0l0,6.123l6.807,0l0,0.918Z" style="fill:#c73d27;fill-rule:nonzero;"/><path d="M67.889,24.23c-1.791,0 -3.201,0.573 -4.229,1.719c-1.029,1.146 -1.543,2.715 -1.543,4.707c0,2.038 0.484,3.62 1.455,4.746c0.969,1.126 2.355,1.689 4.16,1.689c1.197,0 2.297,-0.153 3.301,-0.459l0,0.879c-0.945,0.332 -2.123,0.498 -3.535,0.498c-2.006,0 -3.584,-0.648 -4.736,-1.943c-1.152,-1.295 -1.729,-3.105 -1.729,-5.43c0,-1.452 0.274,-2.731 0.825,-3.838c0.55,-1.107 1.341,-1.961 2.372,-2.563c1.033,-0.602 2.232,-0.903 3.6,-0.903c1.393,0 2.639,0.26 3.74,0.781l-0.4,0.898c-1.043,-0.521 -2.137,-0.781 -3.281,-0.781Z" style="fill:#c73d27;fill-rule:nonzero;"/><path d="M88.219,30.656c0,2.266 -0.566,4.058 -1.699,5.376c-1.133,1.318 -2.695,1.978 -4.688,1.978c-1.985,0 -3.545,-0.659 -4.678,-1.978c-1.133,-1.319 -1.699,-3.117 -1.699,-5.396c0,-2.272 0.571,-4.061 1.714,-5.366c1.143,-1.305 2.703,-1.958 4.683,-1.958c1.992,0 3.552,0.656 4.678,1.968c1.126,1.312 1.689,3.104 1.689,5.376Zm-11.68,0c0,2.044 0.456,3.625 1.367,4.741c0.911,1.116 2.22,1.675 3.926,1.675c1.719,0 3.032,-0.553 3.94,-1.66c0.908,-1.107 1.362,-2.692 1.362,-4.756c0,-2.057 -0.454,-3.634 -1.362,-4.731c-0.908,-1.097 -2.215,-1.646 -3.921,-1.646c-1.699,0 -3.01,0.553 -3.931,1.66c-0.921,1.107 -1.381,2.679 -1.381,4.717Z" style="fill:#c73d27;fill-rule:nonzero;"/><path d="M99.779,37.814l-5.322,-13.184l-0.078,0c0.052,0.807 0.078,1.634 0.078,2.48l0,10.703l-0.957,0l0,-14.277l1.543,0l5.059,12.559l0.059,0l5.059,-12.559l1.504,0l0,14.277l-1.006,0l0,-10.82c0,-0.755 0.039,-1.537 0.117,-2.344l-0.078,0l-5.342,13.164l-0.636,0l0,0.001Z" style="fill:#c73d27;fill-rule:nonzero;"/><path d="M119.035,37.814l-5.322,-13.184l-0.078,0c0.052,0.807 0.078,1.634 0.078,2.48l0,10.703l-0.957,0l0,-14.277l1.543,0l5.059,12.559l0.059,0l5.059,-12.559l1.504,0l0,14.277l-1.006,0l0,-10.82c0,-0.755 0.039,-1.537 0.117,-2.344l-0.078,0l-5.342,13.164l-0.636,0l0,0.001Z" style="fill:#c73d27;fill-rule:nonzero;"/><path d="M139.814,37.814l-7.803,0l0,-14.277l7.803,0l0,0.918l-6.807,0l0,5.4l6.426,0l0,0.918l-6.426,0l0,6.123l6.807,0l0,0.918Z" style="fill:#c73d27;fill-rule:nonzero;"/><path d="M155.428,37.814l-1.006,0l-8.457,-12.676l-0.078,0c0.078,1.51 0.117,2.65 0.117,3.418l0,9.258l-0.957,0l0,-14.277l0.996,0l8.447,12.656l0.059,0c-0.059,-1.172 -0.088,-2.285 -0.088,-3.34l0,-9.316l0.967,0l0,14.277Z" style="fill:#c73d27;fill-rule:nonzero;"/><path d="M172.311,30.539c0,2.396 -0.628,4.208 -1.885,5.435c-1.257,1.227 -3.103,1.841 -5.537,1.841l-3.418,0l0,-14.277l3.857,0c2.278,0 4.012,0.596 5.2,1.787c1.188,1.191 1.783,2.928 1.783,5.214Zm-1.084,0.039c0,-2.044 -0.52,-3.583 -1.558,-4.614c-1.038,-1.031 -2.563,-1.548 -4.575,-1.548l-2.627,0l0,12.52l2.363,0c4.265,-0.001 6.397,-2.12 6.397,-6.358Z" style="fill:#c73d27;fill-rule:nonzero;"/><path d="M184.467,32.775l-5.801,0l-1.992,5.039l-1.104,0l5.742,-14.336l0.635,0l5.625,14.336l-1.123,0l-1.982,-5.039Zm-5.44,-0.899l5.107,0l-1.943,-5.146c-0.163,-0.404 -0.358,-0.963 -0.586,-1.68c-0.176,0.625 -0.368,1.191 -0.576,1.699l-2.002,5.127Z" style="fill:#c73d27;fill-rule:nonzero;"/><path d="M195.314,37.814l-1.006,0l0,-13.34l-4.639,0l0,-0.938l10.283,0l0,0.938l-4.639,0l0,13.34l0.001,0Z" style="fill:#c73d27;fill-rule:nonzero;"/><rect x="204.072" y="23.537" width="0.996" height="14.277" style="fill:#c73d27;fill-rule:nonzero;"/><path d="M223.113,30.656c0,2.266 -0.566,4.058 -1.699,5.376c-1.133,1.318 -2.695,1.978 -4.688,1.978c-1.985,0 -3.545,-0.659 -4.678,-1.978c-1.133,-1.319 -1.699,-3.117 -1.699,-5.396c0,-2.272 0.571,-4.061 1.714,-5.366c1.143,-1.305 2.703,-1.958 4.683,-1.958c1.992,0 3.552,0.656 4.678,1.968c1.126,1.312 1.689,3.104 1.689,5.376Zm-11.679,0c0,2.044 0.456,3.625 1.367,4.741c0.911,1.116 2.22,1.675 3.926,1.675c1.719,0 3.032,-0.553 3.94,-1.66c0.908,-1.107 1.362,-2.692 1.362,-4.756c0,-2.057 -0.454,-3.634 -1.362,-4.731c-0.908,-1.097 -2.215,-1.646 -3.921,-1.646c-1.699,0 -3.01,0.553 -3.931,1.66c-0.921,1.107 -1.381,2.679 -1.381,4.717Z" style="fill:#c73d27;fill-rule:nonzero;"/><path d="M238.775,37.814l-1.006,0l-8.457,-12.676l-0.078,0c0.078,1.51 0.117,2.65 0.117,3.418l0,9.258l-0.957,0l0,-14.277l0.996,0l8.447,12.656l0.059,0c-0.059,-1.172 -0.088,-2.285 -0.088,-3.34l0,-9.316l0.967,0l0,14.277Z" style="fill:#c73d27;fill-rule:nonzero;"/><path d="M252.699,34.132c0,1.191 -0.438,2.135 -1.313,2.832c-0.875,0.697 -2.039,1.045 -3.491,1.045c-1.745,0 -3.083,-0.192 -4.014,-0.576l0,-0.996c1.028,0.436 2.341,0.654 3.936,0.654c1.172,0 2.102,-0.269 2.788,-0.806c0.686,-0.537 1.03,-1.242 1.03,-2.114c0,-0.541 -0.114,-0.988 -0.342,-1.343c-0.228,-0.355 -0.599,-0.679 -1.113,-0.972c-0.514,-0.293 -1.27,-0.609 -2.266,-0.947c-1.458,-0.501 -2.466,-1.043 -3.022,-1.626c-0.556,-0.583 -0.835,-1.359 -0.835,-2.329c0,-1.068 0.418,-1.938 1.255,-2.612c0.837,-0.674 1.912,-1.011 3.228,-1.011c1.341,0 2.601,0.254 3.779,0.762l-0.361,0.859c-1.185,-0.495 -2.317,-0.742 -3.398,-0.742c-1.055,0 -1.895,0.244 -2.52,0.732c-0.625,0.488 -0.938,1.152 -0.938,1.992c0,0.527 0.096,0.96 0.288,1.299c0.192,0.339 0.506,0.643 0.942,0.913c0.436,0.27 1.185,0.594 2.246,0.972c1.113,0.384 1.95,0.757 2.51,1.118c0.56,0.361 0.969,0.771 1.226,1.23c0.257,0.459 0.385,1.015 0.385,1.666Z" style="fill:#c73d27;fill-rule:nonzero;"/><path d="M265.908,37.814l-0.996,0l0,-14.277l7.822,0l0,0.918l-6.826,0l0,6.055l6.445,0l0,0.928l-6.445,0l0,6.376Z" style="fill:#c73d27;fill-rule:nonzero;"/><path d="M288.953,30.656c0,2.266 -0.566,4.058 -1.699,5.376c-1.133,1.318 -2.695,1.978 -4.688,1.978c-1.985,0 -3.545,-0.659 -4.678,-1.978c-1.133,-1.319 -1.699,-3.117 -1.699,-5.396c0,-2.272 0.571,-4.061 1.714,-5.366c1.143,-1.305 2.703,-1.958 4.683,-1.958c1.992,0 3.552,0.656 4.678,1.968c1.126,1.312 1.689,3.104 1.689,5.376Zm-11.68,0c0,2.044 0.456,3.625 1.367,4.741c0.911,1.116 2.22,1.675 3.926,1.675c1.719,0 3.032,-0.553 3.94,-1.66c0.908,-1.107 1.362,-2.692 1.362,-4.756c0,-2.057 -0.454,-3.634 -1.362,-4.731c-0.908,-1.097 -2.215,-1.646 -3.921,-1.646c-1.699,0 -3.01,0.553 -3.931,1.66c-0.921,1.107 -1.381,2.679 -1.381,4.717Z" style="fill:#c73d27;fill-rule:nonzero;"/><path d="M295.23,31.593l0,6.221l-0.996,0l0,-14.277l3.398,0c1.771,0 3.079,0.327 3.926,0.981c0.847,0.654 1.27,1.639 1.27,2.954c0,0.957 -0.252,1.764 -0.757,2.422c-0.505,0.658 -1.271,1.129 -2.3,1.416l3.877,6.504l-1.191,0l-3.682,-6.221l-3.545,0l0,0Zm0,-0.859l2.725,0c1.204,0 2.139,-0.269 2.803,-0.806c0.664,-0.537 0.996,-1.33 0.996,-2.378c0,-1.087 -0.325,-1.878 -0.977,-2.373c-0.652,-0.495 -1.712,-0.742 -3.184,-0.742l-2.363,0l0,6.299Z" style="fill:#c73d27;fill-rule:nonzero;"/><path d="M51.326,69.474c0,2.953 -1.005,5.271 -3.015,6.952c-2.01,1.681 -4.761,2.522 -8.253,2.522l-1.512,0l-1.758,8.525l-6.873,0l5.432,-25.699l6.557,0c3.035,0 5.364,0.665 6.987,1.995c1.623,1.33 2.435,3.232 2.435,5.705Zm-11.549,3.85l1.107,0c1.066,0 1.928,-0.343 2.584,-1.028c0.656,-0.685 0.984,-1.556 0.984,-2.61c0,-0.691 -0.211,-1.248 -0.633,-1.67c-0.422,-0.422 -1.002,-0.633 -1.74,-0.633l-1.037,0l-1.265,5.941Z" style="fill:#c73d27;fill-rule:nonzero;"/><path d="M67.533,61.371c3.047,0 5.417,0.87 7.11,2.61c1.693,1.74 2.54,4.169 2.54,7.286c0,3.117 -0.583,5.968 -1.749,8.552c-1.166,2.584 -2.774,4.564 -4.825,5.941c-2.051,1.377 -4.43,2.065 -7.137,2.065c-3.152,0 -5.587,-0.873 -7.304,-2.619c-1.717,-1.746 -2.575,-4.172 -2.575,-7.277c0,-3.105 0.604,-5.959 1.811,-8.561c1.207,-2.602 2.851,-4.585 4.931,-5.95c2.08,-1.365 4.479,-2.047 7.198,-2.047Zm2.707,9.966c0,-1.336 -0.281,-2.382 -0.844,-3.138c-0.563,-0.756 -1.377,-1.134 -2.443,-1.134c-1.16,0 -2.227,0.492 -3.199,1.477c-0.972,0.985 -1.749,2.338 -2.329,4.061c-0.58,1.723 -0.87,3.486 -0.87,5.291c0,2.836 1.172,4.254 3.516,4.254c1.113,0 2.147,-0.486 3.103,-1.459c0.956,-0.973 1.705,-2.285 2.25,-3.938c0.545,-1.653 0.816,-3.457 0.816,-5.414Z" style="fill:#c73d27;fill-rule:nonzero;"/><path d="M78.871,87.474l5.432,-25.699l6.873,0l-4.236,20.092l8.385,0l-1.195,5.607l-15.259,0l0,0Z" style="fill:#c73d27;fill-rule:nonzero;"/><path d="M97.803,87.474l5.432,-25.699l6.979,0l-5.432,25.699l-6.979,0Z" style="fill:#c73d27;fill-rule:nonzero;"/><path d="M125.523,67.101c-1.266,0 -2.408,0.457 -3.428,1.371c-1.02,0.914 -1.819,2.174 -2.399,3.779c-0.58,1.605 -0.87,3.346 -0.87,5.221c0,1.57 0.328,2.742 0.984,3.516c0.656,0.774 1.6,1.16 2.83,1.16c0.973,0 1.957,-0.12 2.953,-0.36c0.996,-0.24 2.168,-0.647 3.516,-1.222l0,5.678c-2.379,1.055 -4.957,1.582 -7.734,1.582c-3.047,0 -5.394,-0.87 -7.04,-2.61c-1.646,-1.74 -2.47,-4.204 -2.47,-7.392c0,-3.117 0.595,-5.977 1.784,-8.578c1.189,-2.601 2.807,-4.564 4.852,-5.889c2.045,-1.325 4.386,-1.986 7.022,-1.986c3.105,0 5.924,0.768 8.455,2.303l-2.602,5.361c-1.09,-0.645 -2.092,-1.128 -3.006,-1.45c-0.914,-0.322 -1.862,-0.484 -2.847,-0.484Z" style="fill:#c73d27;fill-rule:nonzero;"/><path d="M144.262,71.302l5.484,-9.527l7.664,0l-10.758,15.732l-2.127,9.967l-6.873,0l2.109,-9.967l-4.166,-15.732l7.084,0l1.583,9.527Z" style="fill:#c73d27;fill-rule:nonzero;"/><path d="M164.793,87.474l0,-18.439l-0.141,0c-0.785,4.887 -1.289,7.887 -1.512,9l-1.986,9.439l-6.117,0l5.432,-25.699l9.105,0l0,18.246l0.141,0l8.402,-18.246l9.246,0l-5.502,25.699l-6.17,0l2.057,-9.65c0.586,-2.672 1.219,-5.227 1.898,-7.664l0.264,-1.125l-0.141,0l-8.473,18.439l-6.503,0Z" style="fill:#c73d27;fill-rule:nonzero;"/><path d="M202.27,82.658l-7.875,0l-2.197,4.816l-7.137,0l13.078,-25.699l8.842,0l2.162,25.699l-6.697,0l-0.176,-4.816Zm-5.362,-5.485l5.15,0l-0.299,-7.453l-0.035,-1.512c0,-0.879 0.023,-1.646 0.07,-2.303c-0.281,1.008 -0.639,1.98 -1.072,2.918l-3.814,8.35Z" style="fill:#c73d27;fill-rule:nonzero;"/><path d="M233.33,87.474l-7.699,0l-3.059,-10.16l-1.705,0.984l-1.898,9.176l-6.873,0l5.432,-25.699l6.873,0l-2.373,10.969l0.668,-1.037c1.031,-1.676 1.793,-2.818 2.285,-3.428l5.221,-6.504l8.068,0l-9.686,11.848l4.746,13.851Z" style="fill:#c73d27;fill-rule:nonzero;"/><path d="M251.436,87.474l-15.258,0l5.432,-25.699l15.258,0l-1.143,5.572l-8.385,0l-0.826,4.043l7.805,0l-1.266,5.572l-7.805,0l-1.002,4.852l8.385,0l-1.195,5.66Z" style="fill:#c73d27;fill-rule:nonzero;"/><path d="M265.27,78.123l-1.986,9.352l-6.873,0l5.432,-25.699l6.803,0c2.953,0 5.215,0.586 6.785,1.758c1.57,1.172 2.355,2.936 2.355,5.291c0,1.828 -0.416,3.422 -1.248,4.781c-0.832,1.359 -2.068,2.396 -3.709,3.111l3.938,9.07l0.703,1.688l-7.488,0l-3.428,-9.352l-1.284,0l0,0Zm1.107,-5.221l0.896,0c1.113,0 1.998,-0.319 2.654,-0.958c0.656,-0.639 0.984,-1.532 0.984,-2.681c0,-0.727 -0.202,-1.28 -0.606,-1.661c-0.404,-0.381 -0.993,-0.571 -1.767,-0.571l-0.932,0l-1.229,5.871Z" style="fill:#c73d27;fill-rule:nonzero;"/><path d="M296.4,79.582c0,2.602 -0.861,4.626 -2.584,6.073c-1.723,1.447 -4.125,2.171 -7.207,2.171c-1.289,0 -2.508,-0.144 -3.656,-0.431c-1.148,-0.287 -2.139,-0.706 -2.971,-1.257l0,-6.152c0.984,0.621 2.112,1.143 3.384,1.564c1.272,0.421 2.423,0.633 3.454,0.633c0.867,0 1.523,-0.182 1.969,-0.545c0.446,-0.363 0.668,-0.879 0.668,-1.547c0,-0.316 -0.07,-0.612 -0.211,-0.888c-0.141,-0.276 -0.34,-0.551 -0.598,-0.826c-0.258,-0.275 -0.949,-0.882 -2.074,-1.819c-1.371,-1.102 -2.367,-2.227 -2.988,-3.375c-0.621,-1.148 -0.932,-2.408 -0.932,-3.779c0,-1.535 0.384,-2.915 1.151,-4.14c0.767,-1.225 1.852,-2.174 3.252,-2.848c1.4,-0.674 2.968,-1.011 4.702,-1.011c2.801,0 5.32,0.627 7.559,1.881l-2.373,5.221c-2.004,-1.031 -3.709,-1.547 -5.115,-1.547c-0.75,0 -1.327,0.164 -1.731,0.492c-0.404,0.328 -0.606,0.809 -0.606,1.441c0,0.574 0.196,1.11 0.589,1.608c0.393,0.498 1.14,1.163 2.241,1.995c1.383,1.02 2.408,2.092 3.076,3.217c0.668,1.125 1.001,2.415 1.001,3.869Z" style="fill:#c73d27;fill-rule:nonzero;"/><path d="M325.235,107.082l-322.186,0l0,-103.519l322.186,0l0,103.519Zm-318.001,-99.334l0,95.149l313.816,0l0,-95.149l-313.816,0Z" style="fill:#c73d27;"/></g></svg>