<?xml version="1.0" encoding="utf-8"?>
<!-- Generator: Adobe Illustrator 17.0.0, SVG Export Plug-In . SVG Version: 6.00 Build 0)  -->
<!DOCTYPE svg PUBLIC "-//W3C//DTD SVG 1.1//EN" "http://www.w3.org/Graphics/SVG/1.1/DTD/svg11.dtd">
<svg version="1.1" xmlns="http://www.w3.org/2000/svg" xmlns:xlink="http://www.w3.org/1999/xlink" x="0px" y="0px" width="239px"
	 height="199px" viewBox="777 0 239 199" enable-background="new 777 0 239 199" xml:space="preserve">
<g id="Layer_1">
	<g>
		<path fill="#242859" d="M952.527,77.303V34.71c23.523,0,42.593,19.069,42.593,42.593s-19.069,42.593-42.593,42.593
			c-20.7,0-37.86-14.145-41.81-34.465L952.527,77.303z"/>
	</g>
	<g>
		<path fill="#6C73C2" d="M948.936,68.287l-33.101-26.804c8.29-10.237,19.928-15.788,33.101-15.788V68.287z"/>
	</g>
	<g>
		<path fill="#353C86" d="M946.401,75.103l-41.81,8.127c-2.514-12.931,0.419-24.694,8.709-34.932L946.401,75.103z"/>
	</g>
	
		<rect x="784.827" y="9.354" fill="none" stroke="#808184" stroke-width="1.3189" stroke-miterlimit="10" width="223.122" height="182.3"/>
	<rect x="785.051" y="131.52" fill="#808184" width="223.122" height="60.645"/>
	<g>
		<path fill="#FFFFFF" d="M851.897,167.362h-3.85l-1.529-5.08l-0.853,0.492l-0.949,4.588h-3.437l2.716-12.85h3.437l-1.187,5.484
			l0.334-0.519c0.516-0.838,0.896-1.409,1.143-1.714l2.61-3.252h4.034l-4.843,5.924L851.897,167.362z"/>
		<path fill="#FFFFFF" d="M857.707,167.538c-1.242,0-2.209-0.348-2.9-1.041c-0.691-0.695-1.037-1.66-1.037-2.896
			s0.244-2.352,0.734-3.344c0.488-0.994,1.16-1.746,2.012-2.26c0.854-0.512,1.839-0.769,2.958-0.769
			c1.113,0,1.989,0.252,2.628,0.756s0.958,1.175,0.958,2.013c0,1.178-0.459,2.082-1.376,2.711c-0.917,0.631-2.242,0.945-3.977,0.945
			h-0.519v0.141c0,0.867,0.48,1.301,1.441,1.301c0.463,0,0.917-0.068,1.362-0.207c0.445-0.137,0.952-0.355,1.521-0.654v2.408
			c-0.656,0.334-1.269,0.566-1.837,0.699C859.107,167.472,858.451,167.538,857.707,167.538z M859.096,159.531
			c-0.357,0-0.691,0.204-1.002,0.61c-0.311,0.408-0.498,0.869-0.563,1.385h0.255c0.639,0,1.14-0.121,1.503-0.365
			c0.363-0.242,0.545-0.563,0.545-0.962c0-0.188-0.059-0.346-0.176-0.475S859.354,159.531,859.096,159.531z"/>
		<path fill="#FFFFFF" d="M864.176,157.404h3.419l0.378,4.939l0.018,0.545v0.765h0.07c0.217-0.773,0.363-1.258,0.439-1.455
			c0.076-0.195,0.776-1.794,2.101-4.794h3.656l-5.889,11.215c-0.563,1.084-1.216,1.866-1.96,2.347s-1.655,0.721-2.733,0.721
			c-0.539,0-0.99-0.05-1.354-0.149v-2.698c0.27,0.07,0.589,0.105,0.958,0.105c0.51,0,0.928-0.107,1.252-0.32
			c0.326-0.215,0.614-0.55,0.866-1.007l0.202-0.36L864.176,157.404z"/>
		<path fill="#FFFFFF" d="M881.648,167.362h-3.437l2.716-12.85h7.576l-0.589,2.786h-4.14l-0.51,2.452h3.832l-0.606,2.804h-3.85
			L881.648,167.362z"/>
		<path fill="#FFFFFF" d="M891.765,167.362h-3.401l2.101-9.958h3.419L891.765,167.362z M890.877,155.216
			c0-0.604,0.174-1.061,0.522-1.371s0.837-0.466,1.464-0.466c0.533,0,0.944,0.107,1.235,0.321c0.289,0.214,0.435,0.52,0.435,0.918
			c0,0.586-0.17,1.039-0.51,1.357c-0.34,0.32-0.829,0.479-1.468,0.479C891.437,156.455,890.877,156.042,890.877,155.216z"/>
		<path fill="#FFFFFF" d="M900.923,160.683c0-0.252-0.064-0.44-0.193-0.566s-0.284-0.189-0.466-0.189
			c-0.334,0-0.644,0.208-0.927,0.624c-0.285,0.416-0.518,1.066-0.699,1.951l-1.02,4.86h-3.401l2.101-9.958h2.716l-0.105,1.389h0.07
			c0.322-0.557,0.701-0.956,1.138-1.2c0.437-0.242,0.972-0.364,1.604-0.364c0.826,0,1.471,0.251,1.934,0.751
			c0.463,0.502,0.694,1.194,0.694,2.079c0,0.621-0.073,1.292-0.22,2.013l-1.116,5.291h-3.401l1.134-5.432
			C900.87,161.474,900.923,161.058,900.923,160.683z"/>
		<path fill="#FFFFFF" d="M910.362,157.229c0.439,0,0.809,0.09,1.107,0.269s0.624,0.534,0.976,1.067h0.07l0.018-0.325
			c0.041-0.809,0.114-1.444,0.22-1.907l0.545-2.646h3.437l-2.9,13.676h-2.716l0.088-1.081h-0.07
			c-0.334,0.463-0.686,0.788-1.055,0.976s-0.803,0.281-1.301,0.281c-0.926,0-1.629-0.326-2.109-0.98
			c-0.48-0.652-0.721-1.592-0.721-2.816c0-1.043,0.209-2.106,0.629-3.19c0.418-1.084,0.956-1.908,1.612-2.474
			S909.571,157.229,910.362,157.229z M910.178,164.805c0.293,0,0.572-0.171,0.839-0.515c0.267-0.342,0.479-0.801,0.638-1.375
			s0.237-1.137,0.237-1.688c0-0.844-0.234-1.266-0.703-1.266c-0.287,0-0.568,0.173-0.844,0.519s-0.498,0.802-0.668,1.366
			c-0.17,0.566-0.255,1.133-0.255,1.701C909.422,164.386,909.674,164.805,910.178,164.805z"/>
		<path fill="#FFFFFF" d="M919.688,167.362h-3.401l2.101-9.958h3.419L919.688,167.362z M918.8,155.216
			c0-0.604,0.174-1.061,0.522-1.371s0.837-0.466,1.464-0.466c0.533,0,0.944,0.107,1.235,0.321c0.289,0.214,0.435,0.52,0.435,0.918
			c0,0.586-0.17,1.039-0.51,1.357c-0.34,0.32-0.829,0.479-1.468,0.479C919.359,156.455,918.8,156.042,918.8,155.216z"/>
		<path fill="#FFFFFF" d="M928.846,160.683c0-0.252-0.064-0.44-0.193-0.566s-0.284-0.189-0.466-0.189
			c-0.334,0-0.644,0.208-0.927,0.624c-0.285,0.416-0.518,1.066-0.699,1.951l-1.02,4.86h-3.401l2.101-9.958h2.716l-0.105,1.389h0.07
			c0.322-0.557,0.701-0.956,1.138-1.2c0.437-0.242,0.972-0.364,1.604-0.364c0.826,0,1.471,0.251,1.934,0.751
			c0.463,0.502,0.694,1.194,0.694,2.079c0,0.621-0.073,1.292-0.22,2.013l-1.116,5.291h-3.401l1.134-5.432
			C928.793,161.474,928.846,161.058,928.846,160.683z"/>
		<path fill="#FFFFFF" d="M943.989,157.404l-0.36,1.819l-1.406,0.457c0.059,0.234,0.088,0.51,0.088,0.826
			c0,1.119-0.381,2.023-1.143,2.711c-0.762,0.689-1.755,1.033-2.979,1.033c-0.445,0-0.809-0.038-1.09-0.114
			c-0.117,0.064-0.217,0.129-0.299,0.193s-0.123,0.152-0.123,0.264c0,0.252,0.325,0.425,0.976,0.519l1.204,0.158
			c1.02,0.146,1.752,0.415,2.197,0.805s0.668,0.944,0.668,1.665c0,1.26-0.494,2.232-1.481,2.918s-2.389,1.028-4.205,1.028
			c-1.242,0-2.231-0.222-2.967-0.664c-0.734-0.442-1.103-1.056-1.103-1.841c0-0.574,0.199-1.069,0.598-1.485s1.02-0.762,1.863-1.037
			c-0.217-0.135-0.395-0.311-0.532-0.527s-0.206-0.448-0.206-0.694c0-0.416,0.149-0.785,0.448-1.107s0.744-0.618,1.336-0.888
			c-0.768-0.604-1.151-1.427-1.151-2.47c0-1.148,0.398-2.06,1.195-2.733s1.875-1.011,3.234-1.011c0.299,0,0.613,0.018,0.944,0.053
			s0.594,0.076,0.787,0.123H943.989z M934.866,168.698c0,0.504,0.498,0.756,1.494,0.756c0.732,0,1.29-0.085,1.675-0.255
			c0.383-0.17,0.575-0.41,0.575-0.721c0-0.211-0.097-0.371-0.29-0.479s-0.53-0.188-1.011-0.241l-1.011-0.105
			c-0.457,0.064-0.811,0.186-1.059,0.364C934.99,168.195,934.866,168.423,934.866,168.698z M937.529,161.28
			c0,0.551,0.196,0.826,0.589,0.826c0.305,0,0.555-0.2,0.751-0.602s0.295-0.866,0.295-1.394c0-0.557-0.179-0.835-0.536-0.835
			c-0.223,0-0.416,0.099-0.58,0.295s-0.292,0.452-0.382,0.769C937.574,160.656,937.529,160.97,937.529,161.28z"/>
		<path fill="#FFFFFF" d="M951.029,163.908c0,1.166-0.381,2.063-1.143,2.689s-1.857,0.94-3.287,0.94
			c-1.301,0-2.344-0.185-3.129-0.554v-2.733c0.539,0.293,1.04,0.498,1.503,0.615s0.932,0.176,1.406,0.176
			c0.398,0,0.697-0.054,0.896-0.162s0.299-0.26,0.299-0.453c0-0.205-0.076-0.383-0.229-0.531c-0.152-0.15-0.533-0.397-1.143-0.743
			c-0.621-0.34-1.074-0.729-1.357-1.169c-0.285-0.439-0.427-0.976-0.427-1.608c0-1.008,0.354-1.784,1.063-2.329
			s1.717-0.817,3.023-0.817c0.656,0,1.254,0.076,1.793,0.229s1.063,0.387,1.573,0.703l-1.063,2.215
			c-0.387-0.252-0.787-0.452-1.199-0.603c-0.414-0.148-0.77-0.224-1.068-0.224c-0.445,0-0.668,0.199-0.668,0.598
			c0,0.17,0.092,0.319,0.277,0.448c0.184,0.129,0.484,0.296,0.9,0.501C950.37,161.752,951.029,162.689,951.029,163.908z"/>
	</g>
	<g>
		<g>
			<g>
				<rect x="849.035" y="44.175" fill="#A9807D" width="40.556" height="71.918"/>
			</g>
		</g>
		<g>
			<g>
				<rect x="803.973" y="75.068" fill="#C63D27" width="40.556" height="41.026"/>
			</g>
		</g>
	</g>
</g>
<g id="Layer_3">
</g>
</svg>
