<?xml version="1.0" encoding="utf-8"?>
<!-- Generator: Adobe Illustrator 17.0.0, SVG Export Plug-In . SVG Version: 6.00 Build 0)  -->
<!DOCTYPE svg PUBLIC "-//W3C//DTD SVG 1.1//EN" "http://www.w3.org/Graphics/SVG/1.1/DTD/svg11.dtd">
<svg version="1.1" xmlns="http://www.w3.org/2000/svg" xmlns:xlink="http://www.w3.org/1999/xlink" x="0px" y="0px" width="239px"
	 height="199px" viewBox="1295 0 239 199" enable-background="new 1295 0 239 199" xml:space="preserve">
<g id="Layer_1">
	
		<rect x="1302.827" y="8.839" fill="none" stroke="#808184" stroke-width="1.3189" stroke-miterlimit="10" width="223.122" height="182.3"/>
	<rect x="1303.051" y="131.005" fill="#808184" width="223.122" height="60.645"/>
	<g>
		<path fill="#FFFFFF" d="M1343.219,163.991l0.352-0.914l0.826-2.039l2.944-6.785h2.953v6.961c0,0.914-0.076,1.84-0.229,2.777
			c0.059-0.164,0.448-1.178,1.169-3.041l2.663-6.697h3.401l-5.581,12.85h-4.052v-5.449c0-0.908,0.038-1.857,0.114-2.848
			c-0.193,0.779-0.539,1.802-1.037,3.067l-2.224,5.229h-3.814l-0.431-12.85h3.252l-0.088,6.442
			C1343.403,162.26,1343.33,163.358,1343.219,163.991z"/>
		<path fill="#FFFFFF" d="M1361.386,167.103l1.134-5.432c0.105-0.457,0.158-0.873,0.158-1.248c0-0.252-0.064-0.44-0.193-0.566
			s-0.284-0.189-0.466-0.189c-0.732,0-1.274,0.858-1.626,2.575l-1.02,4.86h-3.401l2.892-13.676h3.401l-0.466,2.188
			c-0.205,0.926-0.463,1.755-0.773,2.487h0.07c0.592-0.756,1.392-1.134,2.399-1.134c0.826,0,1.471,0.251,1.934,0.751
			c0.463,0.502,0.694,1.194,0.694,2.079c0,0.621-0.073,1.292-0.22,2.013l-1.116,5.291H1361.386z"/>
		<path fill="#FFFFFF" d="M1375.589,167.103h-2.716l0.088-1.081h-0.07c-0.328,0.457-0.683,0.781-1.063,0.972
			c-0.381,0.189-0.812,0.285-1.292,0.285c-0.926,0-1.629-0.326-2.109-0.98c-0.48-0.652-0.721-1.592-0.721-2.816
			c0-1.049,0.214-2.118,0.642-3.208s0.968-1.913,1.622-2.47c0.652-0.557,1.375-0.835,2.166-0.835c0.492,0,0.926,0.11,1.301,0.329
			c0.375,0.221,0.709,0.579,1.002,1.077h0.07l0.466-1.23h2.725L1375.589,167.103z M1371.933,164.545
			c0.293,0,0.572-0.171,0.839-0.515c0.267-0.342,0.479-0.801,0.638-1.375s0.237-1.137,0.237-1.688c0-0.381-0.059-0.687-0.176-0.918
			s-0.299-0.348-0.545-0.348c-0.445,0-0.848,0.371-1.209,1.111c-0.359,0.742-0.54,1.566-0.54,2.475
			C1371.177,164.126,1371.429,164.545,1371.933,164.545z"/>
		<path fill="#FFFFFF" d="M1382.875,164.545c0.387,0,0.923-0.138,1.608-0.413v2.558c-0.797,0.393-1.793,0.589-2.988,0.589
			c-0.867,0-1.525-0.186-1.973-0.559c-0.449-0.371-0.673-0.982-0.673-1.832c0-0.445,0.07-0.996,0.211-1.652l0.738-3.533h-1.354
			l0.36-1.67l1.916-0.773l1.204-2.109h2.268l-0.431,1.995h2.531l-0.554,2.558h-2.54l-0.738,3.366
			c-0.094,0.451-0.141,0.759-0.141,0.923C1382.321,164.36,1382.506,164.545,1382.875,164.545z"/>
		<path fill="#FFFFFF" d="M1396.568,159.017l2.742-4.764h3.832l-5.379,7.866l-1.063,4.983h-3.437l1.055-4.983l-2.083-7.866h3.542
			L1396.568,159.017z"/>
		<path fill="#FFFFFF" d="M1406.236,167.278c-1.225,0-2.17-0.331-2.834-0.993c-0.666-0.662-0.998-1.608-0.998-2.839
			s0.232-2.342,0.699-3.336c0.465-0.992,1.12-1.765,1.964-2.315s1.828-0.826,2.953-0.826c1.225,0,2.169,0.331,2.835,0.993
			c0.664,0.662,0.997,1.608,0.997,2.839s-0.233,2.343-0.698,3.335c-0.467,0.994-1.121,1.766-1.965,2.316
			S1407.361,167.278,1406.236,167.278z M1407.625,159.526c-0.48,0-0.893,0.408-1.234,1.227c-0.344,0.816-0.515,1.753-0.515,2.808
			c0,0.779,0.246,1.169,0.738,1.169c0.475,0,0.888-0.407,1.239-1.222s0.527-1.752,0.527-2.813c0-0.387-0.067-0.678-0.202-0.874
			S1407.859,159.526,1407.625,159.526z"/>
		<path fill="#FFFFFF" d="M1416.871,163.807c0,0.258,0.065,0.448,0.198,0.571c0.131,0.123,0.288,0.185,0.47,0.185
			c0.346,0,0.66-0.229,0.944-0.69c0.284-0.459,0.512-1.088,0.682-1.885l1.02-4.843h3.401l-2.101,9.958h-2.725l0.114-1.389h-0.07
			c-0.316,0.545-0.693,0.942-1.13,1.191c-0.437,0.248-0.974,0.373-1.612,0.373c-0.826,0-1.471-0.25-1.934-0.752
			c-0.463-0.5-0.694-1.19-0.694-2.069c0-0.621,0.073-1.292,0.22-2.013l1.116-5.3h3.401l-1.134,5.423
			C1416.927,163.048,1416.871,163.461,1416.871,163.807z"/>
		<path fill="#FFFFFF" d="M1436.207,156.916c-0.633,0-1.204,0.229-1.714,0.686s-0.91,1.087-1.199,1.89
			c-0.291,0.803-0.436,1.673-0.436,2.61c0,0.785,0.164,1.371,0.492,1.758s0.8,0.58,1.415,0.58c0.486,0,0.979-0.06,1.477-0.181
			c0.498-0.119,1.084-0.323,1.758-0.61v2.839c-1.189,0.527-2.479,0.791-3.867,0.791c-1.523,0-2.697-0.436-3.521-1.305
			c-0.823-0.871-1.234-2.103-1.234-3.696c0-1.559,0.297-2.988,0.893-4.289c0.594-1.301,1.402-2.282,2.426-2.944
			c1.021-0.662,2.192-0.993,3.511-0.993c1.553,0,2.962,0.384,4.228,1.151l-1.301,2.681c-0.545-0.322-1.046-0.563-1.503-0.726
			C1437.174,156.997,1436.699,156.916,1436.207,156.916z"/>
		<path fill="#FFFFFF" d="M1448.424,167.103h-2.716l0.088-1.081h-0.07c-0.328,0.457-0.683,0.781-1.063,0.972
			c-0.381,0.189-0.812,0.285-1.292,0.285c-0.926,0-1.629-0.326-2.109-0.98c-0.48-0.652-0.721-1.592-0.721-2.816
			c0-1.049,0.214-2.118,0.642-3.208s0.968-1.913,1.622-2.47c0.652-0.557,1.375-0.835,2.166-0.835c0.492,0,0.926,0.11,1.301,0.329
			c0.375,0.221,0.709,0.579,1.002,1.077h0.07l0.466-1.23h2.725L1448.424,167.103z M1444.768,164.545
			c0.293,0,0.572-0.171,0.839-0.515c0.267-0.342,0.479-0.801,0.638-1.375s0.237-1.137,0.237-1.688c0-0.381-0.059-0.687-0.176-0.918
			s-0.299-0.348-0.545-0.348c-0.445,0-0.848,0.371-1.209,1.111c-0.359,0.742-0.54,1.566-0.54,2.475
			C1444.012,164.126,1444.264,164.545,1444.768,164.545z"/>
		<path fill="#FFFFFF" d="M1457.635,160.423c0-0.252-0.064-0.44-0.193-0.566s-0.284-0.189-0.466-0.189
			c-0.334,0-0.644,0.208-0.927,0.624c-0.285,0.416-0.518,1.066-0.699,1.951l-1.02,4.86h-3.401l2.101-9.958h2.716l-0.105,1.389h0.07
			c0.322-0.557,0.701-0.956,1.138-1.2c0.437-0.242,0.972-0.364,1.604-0.364c0.826,0,1.471,0.251,1.934,0.751
			c0.463,0.502,0.694,1.194,0.694,2.079c0,0.621-0.073,1.292-0.22,2.013l-1.116,5.291h-3.401l1.134-5.432
			C1457.582,161.214,1457.635,160.798,1457.635,160.423z"/>
		<path fill="#FFFFFF" d="M1478.351,159.113c0,1.641-0.29,3.063-0.87,4.267c-0.58,1.205-1.423,2.126-2.527,2.765
			s-2.412,0.958-3.924,0.958h-4.14l2.716-12.85h3.656c1.617,0,2.869,0.424,3.758,1.27
			C1477.906,156.37,1478.351,157.566,1478.351,159.113z M1471.548,164.255c0.645,0,1.22-0.205,1.728-0.615
			c0.506-0.41,0.9-0.994,1.182-1.754c0.281-0.758,0.422-1.624,0.422-2.597c0-0.732-0.158-1.288-0.475-1.665
			c-0.316-0.379-0.759-0.567-1.327-0.567h-0.624l-1.512,7.198H1471.548z"/>
		<path fill="#FFFFFF" d="M1483.483,167.278c-1.225,0-2.17-0.331-2.834-0.993c-0.666-0.662-0.998-1.608-0.998-2.839
			s0.232-2.342,0.699-3.336c0.465-0.992,1.12-1.765,1.964-2.315s1.828-0.826,2.953-0.826c1.225,0,2.169,0.331,2.835,0.993
			c0.664,0.662,0.997,1.608,0.997,2.839s-0.233,2.343-0.698,3.335c-0.467,0.994-1.121,1.766-1.965,2.316
			S1484.608,167.278,1483.483,167.278z M1484.872,159.526c-0.48,0-0.893,0.408-1.234,1.227c-0.344,0.816-0.515,1.753-0.515,2.808
			c0,0.779,0.246,1.169,0.738,1.169c0.475,0,0.888-0.407,1.239-1.222s0.527-1.752,0.527-2.813c0-0.387-0.067-0.678-0.202-0.874
			S1485.106,159.526,1484.872,159.526z"/>
	</g>
	
		<line fill="none" stroke="#C63C27" stroke-width="5.2755" stroke-miterlimit="10" x1="1434.251" y1="46.096" x2="1391.017" y2="121.83"/>
	<path fill="#C63C27" d="M1439.255,41.092l-1.637-1.177l7.909-10.998c-0.05-0.072-0.08-0.152-0.133-0.223
		c-0.229-0.311-0.482-0.612-0.76-0.901c-0.461-0.478-0.912-0.888-1.354-1.25l-8.789,12.222l-1.637-1.177l8.744-12.16
		c-5.399-2.878-9.339,2.512-12.075,6.774c0,0-15.587,21.365-6.581,30.033c0,0,7.618,11.063,19.612-12.385
		c0,0,6.852-11.221,4.002-18.912L1439.255,41.092z"/>
	
		<line fill="none" stroke="#C63C27" stroke-width="5.2755" stroke-miterlimit="10" x1="1394.972" y1="46.096" x2="1438.205" y2="121.83"/>
	<path fill="#C63C27" d="M1387.626,25.428c5.399-2.878,9.339,2.512,12.075,6.774c0,0,15.587,21.365,6.581,30.033
		c0,0-7.618,11.063-19.612-12.385c0,0-6.852-11.221-4.002-18.912"/>
</g>
<g id="Layer_3">
</g>
</svg>
