<?xml version="1.0" encoding="utf-8"?>
<!-- Generator: Adobe Illustrator 17.0.0, SVG Export Plug-In . SVG Version: 6.00 Build 0)  -->
<!DOCTYPE svg PUBLIC "-//W3C//DTD SVG 1.1//EN" "http://www.w3.org/Graphics/SVG/1.1/DTD/svg11.dtd">
<svg version="1.1" xmlns="http://www.w3.org/2000/svg" xmlns:xlink="http://www.w3.org/1999/xlink" x="0px" y="0px" width="239px"
	 height="199px" viewBox="518 0 239 199" enable-background="new 518 0 239 199" xml:space="preserve">
<g id="Layer_1">
	
		<rect x="525.827" y="8.61" fill="none" stroke="#808184" stroke-width="1.3189" stroke-miterlimit="10" width="223.122" height="182.3"/>
	<rect x="526.051" y="130.776" fill="#808184" width="223.122" height="60.645"/>
	<g>
		<path fill="#FFFFFF" d="M595.978,163.507l0.352-0.914l0.826-2.039l2.944-6.785h2.953v6.961c0,0.914-0.076,1.84-0.229,2.777
			c0.059-0.164,0.448-1.178,1.169-3.041l2.663-6.697h3.401l-5.581,12.85h-4.052v-5.449c0-0.908,0.038-1.857,0.114-2.848
			c-0.193,0.779-0.539,1.802-1.037,3.067l-2.224,5.229h-3.814l-0.431-12.85h3.252l-0.088,6.442
			C596.162,161.775,596.089,162.874,595.978,163.507z"/>
		<path fill="#FFFFFF" d="M614.145,166.618l1.134-5.432c0.105-0.457,0.158-0.873,0.158-1.248c0-0.252-0.064-0.44-0.193-0.566
			s-0.284-0.189-0.466-0.189c-0.732,0-1.274,0.858-1.626,2.575l-1.02,4.86h-3.401l2.892-13.676h3.401l-0.466,2.188
			c-0.205,0.926-0.463,1.755-0.773,2.487h0.07c0.592-0.756,1.392-1.134,2.399-1.134c0.826,0,1.471,0.251,1.934,0.751
			c0.463,0.502,0.694,1.194,0.694,2.079c0,0.621-0.073,1.292-0.22,2.013l-1.116,5.291H614.145z"/>
		<path fill="#FFFFFF" d="M620.446,156.66h3.419l0.378,4.939l0.018,0.545v0.765h0.07c0.217-0.773,0.363-1.258,0.439-1.455
			c0.076-0.195,0.776-1.794,2.101-4.794h3.656l-5.889,11.215c-0.563,1.084-1.216,1.866-1.96,2.347s-1.655,0.721-2.733,0.721
			c-0.539,0-0.99-0.05-1.354-0.149v-2.698c0.27,0.07,0.589,0.105,0.958,0.105c0.51,0,0.928-0.107,1.252-0.32
			c0.326-0.215,0.614-0.55,0.866-1.007l0.202-0.36L620.446,156.66z"/>
		<path fill="#FFFFFF" d="M641.936,156.432c-0.633,0-1.204,0.229-1.714,0.686s-0.91,1.087-1.199,1.89
			c-0.291,0.803-0.436,1.673-0.436,2.61c0,0.785,0.164,1.371,0.492,1.758s0.8,0.58,1.415,0.58c0.486,0,0.979-0.06,1.477-0.181
			c0.498-0.119,1.084-0.323,1.758-0.61v2.839c-1.189,0.527-2.479,0.791-3.867,0.791c-1.523,0-2.697-0.436-3.521-1.305
			c-0.823-0.871-1.234-2.103-1.234-3.696c0-1.559,0.297-2.988,0.893-4.289c0.594-1.301,1.402-2.282,2.426-2.944
			c1.021-0.662,2.192-0.993,3.511-0.993c1.553,0,2.962,0.384,4.228,1.151l-1.301,2.681c-0.545-0.322-1.046-0.563-1.503-0.726
			C642.902,156.513,642.428,156.432,641.936,156.432z"/>
		<path fill="#FFFFFF" d="M654.152,166.618h-2.716l0.088-1.081h-0.07c-0.328,0.457-0.683,0.781-1.063,0.972
			c-0.381,0.189-0.812,0.285-1.292,0.285c-0.926,0-1.629-0.326-2.109-0.98c-0.48-0.652-0.721-1.592-0.721-2.816
			c0-1.049,0.214-2.118,0.642-3.208s0.968-1.913,1.622-2.47c0.652-0.557,1.375-0.835,2.166-0.835c0.492,0,0.926,0.11,1.301,0.329
			c0.375,0.221,0.709,0.579,1.002,1.077h0.07l0.466-1.23h2.725L654.152,166.618z M650.496,164.061c0.293,0,0.572-0.171,0.839-0.515
			c0.267-0.342,0.479-0.801,0.638-1.375s0.237-1.137,0.237-1.688c0-0.381-0.059-0.687-0.176-0.918s-0.299-0.348-0.545-0.348
			c-0.445,0-0.848,0.371-1.209,1.111c-0.359,0.742-0.54,1.566-0.54,2.475C649.74,163.642,649.992,164.061,650.496,164.061z"/>
		<path fill="#FFFFFF" d="M664.374,156.484c0.328,0,0.563,0.023,0.703,0.07l-0.738,3.366c-0.316-0.129-0.677-0.193-1.081-0.193
			c-0.604,0-1.086,0.207-1.445,0.619c-0.361,0.414-0.635,1.045-0.822,1.895l-0.932,4.377h-3.401l2.101-9.958h2.716l-0.158,1.661
			h0.07c0.381-0.656,0.794-1.126,1.239-1.41S663.653,156.484,664.374,156.484z"/>
		<path fill="#FFFFFF" d="M668.997,166.794c-1.242,0-2.209-0.348-2.9-1.041c-0.691-0.695-1.037-1.66-1.037-2.896
			s0.244-2.352,0.734-3.344c0.488-0.994,1.16-1.746,2.012-2.26c0.854-0.512,1.839-0.769,2.958-0.769
			c1.113,0,1.989,0.252,2.628,0.756s0.958,1.175,0.958,2.013c0,1.178-0.459,2.082-1.376,2.711c-0.917,0.631-2.242,0.945-3.977,0.945
			h-0.519v0.141c0,0.867,0.48,1.301,1.441,1.301c0.463,0,0.917-0.068,1.362-0.207c0.445-0.137,0.952-0.355,1.521-0.654v2.408
			c-0.656,0.334-1.269,0.566-1.837,0.699C670.397,166.728,669.741,166.794,668.997,166.794z M670.386,158.787
			c-0.357,0-0.691,0.204-1.002,0.61c-0.311,0.408-0.498,0.869-0.563,1.385h0.255c0.639,0,1.14-0.121,1.503-0.365
			c0.363-0.242,0.545-0.563,0.545-0.962c0-0.188-0.059-0.346-0.176-0.475S670.644,158.787,670.386,158.787z"/>
		<path fill="#FFFFFF" d="M676.995,162.083l0.105-0.563c0.088-0.469,0.211-0.873,0.369-1.213s0.366-0.645,0.624-0.914
			s0.671-0.592,1.239-0.967c0.521-0.34,0.889-0.618,1.104-0.835c0.213-0.217,0.32-0.442,0.32-0.677c0-0.41-0.264-0.615-0.791-0.615
			c-0.738,0-1.655,0.319-2.751,0.958l-1.046-2.487c1.354-0.791,2.704-1.187,4.052-1.187c1.178,0,2.114,0.264,2.808,0.791
			c0.695,0.527,1.042,1.254,1.042,2.18c0,0.521-0.081,0.979-0.241,1.371c-0.162,0.393-0.394,0.746-0.695,1.06
			s-0.801,0.681-1.498,1.103c-0.586,0.352-1.004,0.645-1.252,0.879c-0.25,0.234-0.412,0.48-0.488,0.738l-0.132,0.378H676.995z
			 M676.292,165.502c0-0.627,0.19-1.125,0.571-1.494s0.905-0.554,1.573-0.554c0.51,0,0.9,0.119,1.174,0.355
			c0.271,0.238,0.408,0.573,0.408,1.007c0,0.645-0.187,1.143-0.559,1.494s-0.883,0.527-1.533,0.527c-0.51,0-0.91-0.114-1.199-0.343
			C676.437,166.267,676.292,165.936,676.292,165.502z"/>
	</g>
	<path fill="none" stroke="#96865C" stroke-width="1.5642" stroke-miterlimit="10" d="M675.769,93.785l1.949,4.964
		c0,0-1.351,1.632-4.269,2.175l0.668,2.44"/>
	<path fill="none" stroke="#96865C" stroke-width="1.5642" stroke-miterlimit="10" d="M664.433,91.478l-3.388,4.118
		c0,0,0.78,1.97,3.388,3.388l-1.389,2.114"/>
	<path d="M668.349,84.53c0,0-5.828,2.835-6.349,5.268c-0.521,2.433,2.908,4.258,3.8,4.432l1.223-3.628l-1.904,17.445h7.819V93.448
		l0.706,3.563c0,0,4.867-1.043,4.78-2.868l-3.65-8.244L668.349,84.53z"/>
	<path fill="#2D2105" d="M676.598,69.087c0,0,12.571-7.434,9.546,4.958c0,0-1.038,9.158-0.651,15.638c0,0-2.813-8.21-4.722-15.459
		L676.598,69.087z"/>
	<ellipse fill="#96865C" cx="672.94" cy="77.247" rx="8.506" ry="8.653"/>
	
		<line fill="none" stroke="#2D2105" stroke-width="0.0521" stroke-miterlimit="10" x1="665.461" y1="75.342" x2="665.528" y2="75.75"/>
	
		<line fill="none" stroke="#2D2105" stroke-width="0.0521" stroke-miterlimit="10" x1="665.669" y1="75.326" x2="665.644" y2="75.74"/>
	
		<line fill="none" stroke="#2D2105" stroke-width="0.0521" stroke-miterlimit="10" x1="665.934" y1="75.337" x2="665.801" y2="75.729"/>
	
		<line fill="none" stroke="#2D2105" stroke-width="0.0521" stroke-miterlimit="10" x1="666.177" y1="75.462" x2="665.978" y2="75.825"/>
	
		<line fill="none" stroke="#2D2105" stroke-width="0.0521" stroke-miterlimit="10" x1="669.55" y1="75.965" x2="669.4" y2="76.351"/>
	
		<line fill="none" stroke="#2D2105" stroke-width="0.0521" stroke-miterlimit="10" x1="669.775" y1="76.149" x2="669.543" y2="76.492"/>
	
		<line fill="none" stroke="#2D2105" stroke-width="0.0521" stroke-miterlimit="10" x1="670.005" y1="76.32" x2="669.691" y2="76.59"/>
	
		<line fill="none" stroke="#2D2105" stroke-width="0.0521" stroke-miterlimit="10" x1="670.14" y1="76.484" x2="669.783" y2="76.696"/>
	<path fill="#2D2105" d="M667.035,70.706l14.411,5.646C681.445,76.351,680.641,62.924,667.035,70.706z"/>
	
		<line fill="none" stroke="#2D2105" stroke-width="0.2607" stroke-miterlimit="10" x1="671.985" y1="74.851" x2="669.475" y2="75.546"/>
	
		<line fill="none" stroke="#2D2105" stroke-width="0.2607" stroke-miterlimit="10" x1="665.12" y1="73.19" x2="667.035" y2="74.955"/>
	<circle cx="665.801" cy="75.953" r="0.407"/>
	<circle cx="669.475" cy="76.655" r="0.407"/>
	<path d="M665.169,79.993c0,0,0.345-0.154,3.711,0.84"/>
	<polygon fill="#5C5F93" points="665.12,108.047 663.391,117.172 667.736,117.172 668.879,108.047 668.879,117.172 672.602,117.172 
		672.94,108.047 	"/>
	<path fill="#464647" d="M663.391,117.172c0,0-3.911,0.348-3.911,1.564c0,1.217,7.908,0.348,7.908,0.348l0.348-1.912H663.391z"/>
	<path fill="#464647" d="M673.157,117.172c0,0,3.911,0.348,3.911,1.564c0,1.217-7.908,0.348-7.908,0.348l-0.348-1.912H673.157z"/>
	<path fill="#57919E" d="M678.363,68.502c0,0,0.801-0.62,0.809,0.61c0,0,1.41,0.066,0.847,1.047c0,0,0.609,1.603-0.43,1.472
		c0,0-0.697,0.699-1.484-0.793c0,0-0.963-0.069-1.117-0.514c0,0-0.753-0.897,0.005-1.387
		C676.993,68.938,677.675,67.575,678.363,68.502z"/>
	<polyline fill="none" stroke="#D8BF8D" stroke-width="2.0856" stroke-miterlimit="10" points="639.407,85.908 650.997,92.531 
		653.931,90.71 	"/>
	
		<line fill="none" stroke="#025E14" stroke-width="2.2047" stroke-miterlimit="10" x1="609.188" y1="19.383" x2="621.527" y2="112.35"/>
	<path d="M629.342,80.693c0,0-7.628,5.867-6.525,24.873h6.525c0,0,1.754-19.586,3.594-18.687l9.95,3.021l2.376-3.021L629.342,80.693
		z"/>
	<ellipse fill="#D8BF8D" cx="634.315" cy="74.625" rx="7.635" ry="8.003"/>
	<polygon fill="#5C5F93" points="622.817,105.566 620.793,115.363 628.152,115.363 629.342,105.566 	"/>
	<path fill="#464647" d="M620.793,115.363c0,0,6.778-1.033,10.08,0.705c0,0,2.781,2.727-10.08,1.798
		C620.793,117.866,620.416,117.19,620.793,115.363z"/>
	<polyline fill="none" stroke="#D8BF8D" stroke-width="2.0856" stroke-miterlimit="10" points="630.53,89.219 640.978,97.528 
		644.285,96.119 	"/>
	<path d="M632.09,86.348"/>
	<path d="M629.817,85.497c0,0,5.136,4.27,9.06,7.109c0.056,0.041,0.112,0.081,0.168,0.122l-2.851,2.924l-7.269-6.262"/>
	<circle cx="637.815" cy="75.653" r="0.407"/>
	<circle cx="640.196" cy="75.484" r="0.407"/>
	<path d="M643.161,68.779l-16.386,2.849c3.2-11.661,13.646-2.384,13.646-2.384"/>
	<polygon points="643.024,69.241 626.774,71.627 627.206,71.016 643.456,68.63 	"/>
	
		<line fill="none" stroke="#025E14" stroke-width="2.2047" stroke-miterlimit="10" x1="588.611" y1="21.955" x2="600.737" y2="117.806"/>
	
		<line fill="none" stroke="#025E14" stroke-width="2.2047" stroke-miterlimit="10" x1="589.961" y1="32.627" x2="610.549" y2="29.638"/>
	
		<line fill="none" stroke="#025E14" stroke-width="2.2047" stroke-miterlimit="10" x1="592.083" y1="49.401" x2="612.85" y2="46.972"/>
	
		<line fill="none" stroke="#025E14" stroke-width="2.2047" stroke-miterlimit="10" x1="594.674" y1="66.601" x2="615.469" y2="65.297"/>
	
		<line fill="none" stroke="#025E14" stroke-width="2.2047" stroke-miterlimit="10" x1="596.878" y1="87.308" x2="617.553" y2="82.41"/>
	
		<line fill="none" stroke="#025E14" stroke-width="2.2047" stroke-miterlimit="10" x1="599.062" y1="104.566" x2="620.125" y2="101.785"/>
	
		<line fill="none" stroke="#000000" stroke-width="0.1304" stroke-miterlimit="10" x1="639.789" y1="79.255" x2="635.829" y2="79.255"/>
</g>
<g id="Layer_3">
</g>
</svg>
