<?xml version="1.0" encoding="UTF-8" standalone="no"?><!DOCTYPE svg PUBLIC "-//W3C//DTD SVG 1.1//EN" "http://www.w3.org/Graphics/SVG/1.1/DTD/svg11.dtd"><svg width="100%" height="100%" viewBox="0 0 192 67" version="1.1" xmlns="http://www.w3.org/2000/svg" xmlns:xlink="http://www.w3.org/1999/xlink" xml:space="preserve" style="fill-rule:evenodd;clip-rule:evenodd;stroke-miterlimit:10;"><path d="M184.507,51.285c0,4.763 -3.861,8.625 -8.625,8.625l-159.009,0c-4.763,0 -8.625,-3.861 -8.625,-8.625l0,-35.422c0,-4.763 3.861,-8.625 8.625,-8.625l159.009,0c4.763,0 8.625,3.861 8.625,8.625l0,35.422Z" style="fill:#004fff;fill-rule:nonzero;"/><path d="M175.95,47.417c0,3.723 -3.485,6.741 -7.784,6.741l-143.509,0c-4.299,0 -7.784,-3.018 -7.784,-6.741l0,-27.687c0,-3.723 3.485,-6.741 7.784,-6.741l143.51,0c4.299,0 7.784,3.018 7.784,6.741l-0.001,27.687Z" style="fill:none;stroke:#fff;stroke-width:1.44px;"/><rect x="69.958" y="31.563" width="64.072" height="4.081" style="fill:#fff;"/><path d="M74.887,42.566l0,-17.927l-16.417,8.964l16.417,8.963Z" style="fill:#fff;fill-rule:nonzero;"/></svg>