<?xml version="1.0" encoding="utf-8"?>
<!-- Generator: Adobe Illustrator 17.0.0, SVG Export Plug-In . SVG Version: 6.00 Build 0)  -->
<!DOCTYPE svg PUBLIC "-//W3C//DTD SVG 1.1//EN" "http://www.w3.org/Graphics/SVG/1.1/DTD/svg11.dtd">
<svg version="1.1" id="Layer_1" xmlns="http://www.w3.org/2000/svg" xmlns:xlink="http://www.w3.org/1999/xlink" x="0px" y="0px"
	 width="192.5px" height="67.205px" viewBox="0 0 192.5 67.205" enable-background="new 0 0 192.5 67.205" xml:space="preserve">
<path fill="#C73A22" d="M184.507,51.285c0,4.763-3.861,8.625-8.625,8.625H16.873c-4.763,0-8.625-3.861-8.625-8.625V15.863
	c0-4.763,3.861-8.625,8.625-8.625h159.009c4.763,0,8.625,3.861,8.625,8.625V51.285z"/>
<g enable-background="new    ">
	<path fill="#FFFFFF" d="M71.738,27.861h4.443c1.32,0,2.321,0.251,3.002,0.753s1.022,1.221,1.022,2.157
		c0,1.752-0.903,2.899-2.71,3.44v0.073c0.535,0.176,0.961,0.485,1.277,0.926c0.316,0.441,0.475,0.98,0.475,1.62
		c0,1.393-0.464,2.47-1.392,3.229c-0.928,0.761-2.243,1.141-3.946,1.141h-4.991L71.738,27.861z M73.681,35.617l-0.602,2.801h0.748
		c0.523,0,0.959-0.147,1.31-0.442c0.35-0.295,0.524-0.664,0.524-1.108c0-0.42-0.1-0.733-0.301-0.939
		c-0.201-0.207-0.554-0.311-1.059-0.311H73.681z M74.22,32.98h0.657c0.535,0,0.94-0.116,1.213-0.347
		c0.274-0.231,0.411-0.603,0.411-1.113c0-0.621-0.386-0.931-1.159-0.931h-0.575L74.22,32.98z"/>
	<path fill="#FFFFFF" d="M88.682,41.201h-7.92l2.819-13.34h7.92l-0.593,2.893h-4.352l-0.429,2.099h4.051l-0.657,2.893H85.47
		l-0.52,2.518h4.353L88.682,41.201z"/>
	<path fill="#FFFFFF" d="M97.633,33.391h5.566l-1.524,7.254c-1.521,0.493-3.105,0.739-4.754,0.739c-1.587,0-2.819-0.462-3.695-1.387
		s-1.314-2.235-1.314-3.933c0-1.624,0.334-3.091,1.004-4.398c0.669-1.308,1.586-2.304,2.751-2.988s2.52-1.026,4.065-1.026
		c1.618,0,2.98,0.325,4.088,0.977l-1.341,2.819c-0.931-0.548-1.862-0.821-2.792-0.821c-0.803,0-1.514,0.221-2.131,0.661
		c-0.617,0.441-1.11,1.094-1.478,1.958c-0.368,0.863-0.552,1.785-0.552,2.765c0,1.605,0.636,2.408,1.907,2.408
		c0.383,0,0.788-0.042,1.213-0.128l0.465-2.116h-2.089L97.633,33.391z"/>
	<path fill="#FFFFFF" d="M104.294,41.201l2.819-13.34h3.622l-2.819,13.34H104.294z"/>
	<path fill="#FFFFFF" d="M122.68,41.201h-4.152l-2.637-9.38h-0.073c-0.176,1.771-0.35,3.042-0.52,3.814l-1.177,5.565h-3.176
		l2.819-13.34h4.151l2.61,8.97h0.082c0.176-1.436,0.35-2.564,0.52-3.386l1.195-5.584h3.176L122.68,41.201z"/>
</g>
<path fill="none" stroke="#FFFFFF" stroke-width="1.4374" stroke-miterlimit="10" d="M175.95,47.417
	c0,3.723-3.485,6.741-7.784,6.741H24.657c-4.299,0-7.784-3.018-7.784-6.741V19.73c0-3.723,3.485-6.741,7.784-6.741h143.51
	c4.299,0,7.784,3.018,7.784,6.741L175.95,47.417L175.95,47.417z"/>
</svg>
