<?xml version="1.0" encoding="utf-8"?>
<!-- Generator: Adobe Illustrator 17.0.0, SVG Export Plug-In . SVG Version: 6.00 Build 0)  -->
<!DOCTYPE svg PUBLIC "-//W3C//DTD SVG 1.1//EN" "http://www.w3.org/Graphics/SVG/1.1/DTD/svg11.dtd">
<svg version="1.1" id="Layer_1" xmlns="http://www.w3.org/2000/svg" xmlns:xlink="http://www.w3.org/1999/xlink" x="0px" y="0px"
	 width="192.5px" height="67.205px" viewBox="0 0 192.5 67.205" enable-background="new 0 0 192.5 67.205" xml:space="preserve">
<path fill="#C73A22" d="M184.507,51.285c0,4.763-3.861,8.625-8.625,8.625H16.873c-4.763,0-8.625-3.861-8.625-8.625V15.863
	c0-4.763,3.861-8.625,8.625-8.625h159.009c4.763,0,8.625,3.861,8.625,8.625V51.285z"/>
<path fill="none" stroke="#FFFFFF" stroke-width="1.4374" stroke-miterlimit="10" d="M175.95,47.417
	c0,3.723-3.485,6.741-7.784,6.741H24.657c-4.299,0-7.784-3.018-7.784-6.741V19.73c0-3.723,3.485-6.741,7.784-6.741h143.51
	c4.299,0,7.784,3.018,7.784,6.741L175.95,47.417L175.95,47.417z"/>
<line fill="none" stroke="#FFFFFF" stroke-width="4.0809" stroke-miterlimit="10" x1="58.47" y1="33.603" x2="122.542" y2="33.603"/>
<polygon fill="#FFFFFF" points="134.03,33.603 117.613,24.639 117.613,42.566 "/>
</svg>
