<?xml version="1.0" encoding="utf-8"?>
<!-- Generator: Adobe Illustrator 17.0.0, SVG Export Plug-In . SVG Version: 6.00 Build 0)  -->
<!DOCTYPE svg PUBLIC "-//W3C//DTD SVG 1.1//EN" "http://www.w3.org/Graphics/SVG/1.1/DTD/svg11.dtd">
<svg version="1.1" id="Layer_1" xmlns="http://www.w3.org/2000/svg" xmlns:xlink="http://www.w3.org/1999/xlink" x="0px" y="0px"
	 width="192.5px" height="67.205px" viewBox="0 0 192.5 67.205" enable-background="new 0 0 192.5 67.205" xml:space="preserve">
<path fill="#C73A22" d="M184.507,51.285c0,4.763-3.861,8.625-8.625,8.625H16.873c-4.763,0-8.625-3.861-8.625-8.625V15.863
	c0-4.763,3.861-8.625,8.625-8.625h159.009c4.763,0,8.625,3.861,8.625,8.625V51.285z"/>
<rect x="8.44" y="27" fill="none" width="174.619" height="16.023"/>
<g enable-background="new    ">
	<path fill="#FFFFFF" d="M80.229,41.201h-3.568l1.141-5.438h-3.157l-1.159,5.438h-3.567l2.819-13.34h3.567l-1.021,4.945h3.175
		l1.021-4.945h3.577L80.229,41.201z"/>
	<path fill="#FFFFFF" d="M91.142,27.651c1.582,0,2.812,0.452,3.691,1.355s1.318,2.164,1.318,3.781c0,1.618-0.303,3.098-0.908,4.439
		c-0.605,1.341-1.44,2.369-2.505,3.084s-2.299,1.072-3.705,1.072c-1.636,0-2.9-0.453-3.791-1.359s-1.337-2.166-1.337-3.777
		c0-1.612,0.313-3.094,0.94-4.444s1.479-2.38,2.56-3.088C88.485,28.006,89.73,27.651,91.142,27.651z M92.547,32.825
		c0-0.693-0.146-1.236-0.438-1.629s-0.715-0.589-1.269-0.589c-0.602,0-1.156,0.256-1.661,0.767s-0.908,1.214-1.209,2.107
		c-0.301,0.895-0.452,1.811-0.452,2.747c0,1.472,0.608,2.208,1.825,2.208c0.578,0,1.114-0.252,1.61-0.758
		c0.496-0.505,0.885-1.186,1.168-2.043C92.405,34.777,92.547,33.841,92.547,32.825z"/>
	<path fill="#FFFFFF" d="M102.091,41.201V31.63h-0.073c-0.407,2.536-0.669,4.094-0.784,4.672l-1.031,4.899h-3.175l2.819-13.34h4.727
		v9.471h0.072l4.361-9.471h4.8l-2.855,13.34h-3.203l1.067-5.01c0.305-1.387,0.633-2.713,0.985-3.978l0.137-0.584h-0.072
		l-4.398,9.571H102.091z"/>
	<path fill="#FFFFFF" d="M121.937,41.201h-7.92l2.819-13.34h7.92l-0.593,2.893h-4.353l-0.429,2.099h4.051l-0.656,2.893h-4.052
		l-0.52,2.518h4.353L121.937,41.201z"/>
</g>
<path fill="none" stroke="#FFFFFF" stroke-width="1.4374" stroke-miterlimit="10" d="M175.95,47.417
	c0,3.723-3.485,6.741-7.784,6.741H24.657c-4.299,0-7.784-3.018-7.784-6.741V19.73c0-3.723,3.485-6.741,7.784-6.741h143.51
	c4.299,0,7.784,3.018,7.784,6.741L175.95,47.417L175.95,47.417z"/>
</svg>
