<?xml version="1.0" encoding="utf-8"?>
<!-- Generator: Adobe Illustrator 17.0.0, SVG Export Plug-In . SVG Version: 6.00 Build 0)  -->
<!DOCTYPE svg PUBLIC "-//W3C//DTD SVG 1.1//EN" "http://www.w3.org/Graphics/SVG/1.1/DTD/svg11.dtd">
<svg version="1.1" id="Layer_1" xmlns="http://www.w3.org/2000/svg" xmlns:xlink="http://www.w3.org/1999/xlink" x="0px" y="0px"
	 width="185px" height="73px" viewBox="0 0 185 73" enable-background="new 0 0 185 73" xml:space="preserve">
<rect x="6.999" y="7.914" fill="#808184" width="171.31" height="59.66"/>
<g>
	<path d="M93.056,30.757c-8.543,0.807-14.395-3.983-20.21-9.229c-2.12,5.082,0.31,8.403,3.783,12.033c-2.051,0-3.281,0-4.51,0
		c-0.252,0.392-0.503,0.784-0.755,1.176c2.607,2.467,5.213,4.935,7.865,7.446c-0.965,0.168-2.179,0.378-3.394,0.589
		c-0.114,0.376-0.228,0.752-0.342,1.128c2.826,1.635,5.651,3.27,9.6,5.554c-4.315,1.674-7.98,3.095-11.769,4.564
		c0.49,0.258,0.992,0.577,1.533,0.798c16.305,6.658,35.348-5.48,36.216-23.131c0.126-2.555-0.092-5.113,2.475-6.725
		c0.133-0.084,0.135-0.376,0.199-0.573c-0.776-0.184-1.53-0.363-2.609-0.618c1.134-1.23,1.973-2.139,2.807-3.043
		c-1.737,0.091-3.62,0.747-4.99,0.174C98.276,16.443,93.975,18.885,93.056,30.757z"/>
	<path fill="#FFFFFF" d="M93.056,30.757c0.92-11.872,5.22-14.315,15.9-9.855c1.37,0.572,3.252-0.083,4.99-0.174
		c-0.834,0.904-1.673,1.813-2.807,3.043c1.08,0.256,1.833,0.434,2.609,0.618c-0.064,0.197-0.066,0.489-0.199,0.573
		c-2.567,1.613-2.349,4.17-2.475,6.725c-0.868,17.651-19.91,29.789-36.216,23.131c-0.542-0.221-1.043-0.54-1.533-0.798
		c3.789-1.469,7.454-2.891,11.769-4.564c-3.949-2.285-6.775-3.92-9.6-5.554c0.114-0.376,0.228-0.752,0.342-1.128
		c1.214-0.211,2.429-0.422,3.394-0.589c-2.652-2.511-5.259-4.978-7.865-7.446c0.252-0.392,0.503-0.784,0.755-1.176
		c1.23,0,2.459,0,4.51,0c-3.473-3.63-5.903-6.952-3.783-12.033C78.661,26.775,84.513,31.564,93.056,30.757z"/>
</g>
</svg>
