<?xml version="1.0" encoding="utf-8"?>
<!-- Generator: Adobe Illustrator 17.0.0, SVG Export Plug-In . SVG Version: 6.00 Build 0)  -->
<!DOCTYPE svg PUBLIC "-//W3C//DTD SVG 1.1//EN" "http://www.w3.org/Graphics/SVG/1.1/DTD/svg11.dtd">
<svg version="1.1" id="Layer_1" xmlns="http://www.w3.org/2000/svg" xmlns:xlink="http://www.w3.org/1999/xlink" x="0px" y="0px"
	 width="188px" height="73px" viewBox="0 0 188 73" enable-background="new 0 0 188 73" xml:space="preserve">
<rect x="7.843" y="7.914" fill="#808184" width="171.31" height="59.66"/>
<g>
	<path d="M87.774,30.347c-5.117,0.737-5.494,1.431-3.999,6.903c1.343,0.17,2.695,0.34,4.366,0.551c0,7.765,0,15.353,0,23.145
		c2.947,0,5.544,0,8.634,0c0-7.893,0-15.588,0-23.338c2.467-0.133,4.445-0.239,6.691-0.361c0-2.306,0-4.258,0-6.423
		c-1.172-0.059-2.171-0.099-3.169-0.161c-1.105-0.069-2.208-0.157-3.257-0.233c-0.856-7.08-0.856-7.08,6.947-8.872
		c0-1.963,0-3.948,0-7.017c-4.487,0.756-9.094,0.546-12.667,2.366C86.017,19.61,88.944,25.673,87.774,30.347z"/>
	<path fill="#FFFFFF" d="M87.774,30.347c1.17-4.674-1.757-10.738,3.546-13.439c3.573-1.82,8.18-1.61,12.667-2.366
		c0,3.069,0,5.054,0,7.017c-7.802,1.791-7.802,1.791-6.947,8.872c1.048,0.076,2.152,0.164,3.257,0.233
		c0.998,0.062,1.997,0.103,3.169,0.161c0,2.165,0,4.117,0,6.423c-2.246,0.121-4.225,0.228-6.691,0.361c0,7.75,0,15.445,0,23.338
		c-3.091,0-5.688,0-8.634,0c0-7.792,0-15.38,0-23.145c-1.671-0.211-3.023-0.382-4.366-0.551
		C82.28,31.778,82.657,31.084,87.774,30.347z"/>
</g>
</svg>
