<?xml version="1.0" encoding="utf-8"?>
<!-- Generator: Adobe Illustrator 17.0.0, SVG Export Plug-In . SVG Version: 6.00 Build 0)  -->
<!DOCTYPE svg PUBLIC "-//W3C//DTD SVG 1.1//EN" "http://www.w3.org/Graphics/SVG/1.1/DTD/svg11.dtd">
<svg version="1.1" id="Layer_1" xmlns="http://www.w3.org/2000/svg" xmlns:xlink="http://www.w3.org/1999/xlink" x="0px" y="0px"
	 width="239px" height="199px" viewBox="0 0 239 199" enable-background="new 0 0 239 199" xml:space="preserve">
<rect x="9.534" y="8.725" fill="#FFFFFF" stroke="#808184" stroke-width="1.3132" stroke-miterlimit="10" width="222.159" height="181.513"/>
<rect x="9.613" y="130.363" fill="#808184" width="222.159" height="60.892"/>
<g>
	<path fill="#FFFFFF" d="M56.394,165.309h-3.008l2.378-11.249h6.633l-0.516,2.439h-3.624l-0.446,2.147h3.355l-0.531,2.454h-3.37
		L56.394,165.309z"/>
	<path fill="#FFFFFF" d="M66.097,165.463c-1.072,0-1.899-0.29-2.481-0.869c-0.582-0.58-0.873-1.408-0.873-2.485
		s0.204-2.051,0.612-2.92c0.408-0.869,0.981-1.545,1.72-2.027s1.6-0.723,2.585-0.723c1.072,0,1.899,0.29,2.481,0.869
		c0.582,0.58,0.873,1.408,0.873,2.485s-0.204,2.051-0.612,2.92s-0.981,1.545-1.72,2.027
		C67.943,165.222,67.081,165.463,66.097,165.463z M67.312,158.676c-0.421,0-0.781,0.358-1.081,1.073
		c-0.3,0.716-0.45,1.535-0.45,2.458c0,0.682,0.215,1.023,0.646,1.023c0.415,0,0.777-0.357,1.085-1.07
		c0.308-0.713,0.462-1.534,0.462-2.462c0-0.339-0.059-0.594-0.177-0.766S67.517,158.676,67.312,158.676z"/>
	<path fill="#FFFFFF" d="M78.592,156.437c0.287,0,0.492,0.021,0.616,0.062l-0.646,2.947c-0.277-0.113-0.592-0.169-0.946-0.169
		c-0.528,0-0.95,0.181-1.266,0.542s-0.555,0.914-0.719,1.658l-0.816,3.832h-2.978l1.839-8.718h2.378l-0.138,1.454h0.062
		c0.333-0.575,0.695-0.986,1.085-1.235S77.961,156.437,78.592,156.437z"/>
	<path fill="#FFFFFF" d="M92.265,157.43c0,1.293-0.44,2.307-1.32,3.043c-0.88,0.736-2.084,1.104-3.612,1.104h-0.662l-0.769,3.732
		h-3.008l2.378-11.249h2.87c1.329,0,2.348,0.291,3.059,0.873C91.91,155.515,92.265,156.348,92.265,157.43z M87.21,159.115h0.485
		c0.467,0,0.844-0.15,1.131-0.45c0.287-0.3,0.431-0.681,0.431-1.143c0-0.303-0.092-0.546-0.277-0.731
		c-0.185-0.185-0.439-0.277-0.762-0.277h-0.454L87.21,159.115z"/>
	<path fill="#FFFFFF" d="M96.459,165.463c-1.072,0-1.899-0.29-2.481-0.869c-0.582-0.58-0.873-1.408-0.873-2.485
		s0.204-2.051,0.612-2.92c0.408-0.869,0.981-1.545,1.72-2.027c0.739-0.482,1.6-0.723,2.585-0.723c1.072,0,1.899,0.29,2.481,0.869
		c0.582,0.58,0.873,1.408,0.873,2.485s-0.204,2.051-0.612,2.92c-0.408,0.869-0.981,1.545-1.72,2.027
		C98.305,165.222,97.443,165.463,96.459,165.463z M97.674,158.676c-0.421,0-0.781,0.358-1.081,1.073s-0.45,1.535-0.45,2.458
		c0,0.682,0.215,1.023,0.646,1.023c0.415,0,0.777-0.357,1.085-1.07c0.308-0.713,0.462-1.534,0.462-2.462
		c0-0.339-0.059-0.594-0.177-0.766C98.041,158.762,97.879,158.676,97.674,158.676z"/>
	<path fill="#FFFFFF" d="M105.176,165.309h-2.978l2.531-11.972h2.978L105.176,165.309z"/>
	<path fill="#FFFFFF" d="M110.301,165.309h-2.978l1.839-8.718h2.993L110.301,165.309z M109.524,154.675
		c0-0.528,0.153-0.928,0.458-1.2c0.305-0.272,0.732-0.408,1.281-0.408c0.467,0,0.827,0.094,1.081,0.281
		c0.254,0.187,0.381,0.455,0.381,0.804c0,0.513-0.149,0.909-0.446,1.189s-0.726,0.419-1.285,0.419
		C110.013,155.76,109.524,155.399,109.524,154.675z"/>
	<path fill="#FFFFFF" d="M116.164,165.463c-1.021,0-1.817-0.309-2.389-0.927c-0.572-0.618-0.858-1.494-0.858-2.628
		c0-1.031,0.196-1.966,0.589-2.805s0.944-1.493,1.654-1.962c0.71-0.469,1.517-0.704,2.42-0.704c1,0,1.942,0.205,2.824,0.616
		l-0.946,2.208c-0.682-0.308-1.259-0.462-1.731-0.462c-0.318,0-0.613,0.123-0.885,0.369s-0.495,0.614-0.669,1.104
		c-0.174,0.49-0.262,0.971-0.262,1.443c0,0.467,0.077,0.809,0.231,1.027c0.154,0.218,0.398,0.327,0.731,0.327
		c0.369,0,0.727-0.059,1.073-0.177s0.714-0.28,1.104-0.485v2.362c-0.41,0.226-0.843,0.398-1.297,0.516
		S116.769,165.463,116.164,165.463z"/>
	<path fill="#FFFFFF" d="M120.842,156.591h2.993l0.331,4.324l0.015,0.477v0.669h0.062c0.19-0.677,0.318-1.102,0.385-1.273
		c0.067-0.172,0.68-1.571,1.839-4.197h3.201l-5.155,9.818c-0.492,0.949-1.064,1.634-1.716,2.054
		c-0.651,0.421-1.449,0.631-2.393,0.631c-0.472,0-0.867-0.044-1.185-0.131v-2.362c0.236,0.062,0.516,0.092,0.839,0.092
		c0.446,0,0.812-0.094,1.096-0.281s0.537-0.481,0.758-0.881l0.177-0.315L120.842,156.591z"/>
	<path fill="#FFFFFF" d="M137.4,165.309v-8.071h-0.062c-0.344,2.139-0.564,3.452-0.662,3.94l-0.869,4.132h-2.678l2.378-11.249h3.986
		v7.987h0.062l3.678-7.987h4.047l-2.408,11.249h-2.701l0.9-4.224c0.256-1.17,0.533-2.288,0.831-3.355l0.115-0.492h-0.062
		l-3.709,8.071H137.4z"/>
	<path fill="#FFFFFF" d="M154.751,165.309h-2.378l0.077-0.946h-0.062c-0.287,0.4-0.598,0.684-0.931,0.85
		c-0.333,0.167-0.71,0.25-1.131,0.25c-0.81,0-1.426-0.286-1.847-0.858c-0.421-0.572-0.631-1.394-0.631-2.466
		c0-0.918,0.187-1.854,0.562-2.808c0.374-0.954,0.848-1.675,1.42-2.162s1.204-0.731,1.897-0.731c0.431,0,0.81,0.096,1.139,0.289
		c0.328,0.192,0.621,0.507,0.877,0.943h0.062l0.408-1.077h2.385L154.751,165.309z M151.55,163.07c0.256,0,0.501-0.15,0.735-0.45
		s0.419-0.701,0.558-1.204c0.138-0.503,0.208-0.995,0.208-1.477c0-0.333-0.051-0.601-0.154-0.804
		c-0.103-0.203-0.262-0.304-0.477-0.304c-0.39,0-0.743,0.324-1.058,0.973c-0.315,0.649-0.473,1.371-0.473,2.166
		C150.888,162.703,151.109,163.07,151.55,163.07z"/>
	<path fill="#FFFFFF" d="M159.444,153.337h2.978l-1.07,5.101c-0.087,0.395-0.262,0.967-0.523,1.716h0.069
		c0.431-0.651,0.823-1.164,1.177-1.539l1.862-2.024h3.401l-3.778,3.939l2.108,4.778h-3.37l-1.07-3.008l-0.777,0.408l-0.531,2.601
		h-2.978L159.444,153.337z"/>
	<path fill="#FFFFFF" d="M170.586,165.463c-1.087,0-1.934-0.304-2.539-0.912c-0.605-0.608-0.908-1.453-0.908-2.535
		s0.214-2.058,0.642-2.928s1.016-1.529,1.762-1.977s1.609-0.673,2.589-0.673c0.975,0,1.741,0.221,2.301,0.662
		c0.559,0.441,0.839,1.028,0.839,1.762c0,1.031-0.401,1.822-1.204,2.374c-0.803,0.551-1.963,0.827-3.482,0.827h-0.454v0.123
		c0,0.759,0.421,1.139,1.262,1.139c0.405,0,0.803-0.06,1.193-0.181s0.834-0.312,1.331-0.573v2.108
		c-0.575,0.292-1.111,0.496-1.608,0.612C171.812,165.405,171.237,165.463,170.586,165.463z M171.802,158.453
		c-0.313,0-0.605,0.178-0.877,0.535s-0.436,0.76-0.492,1.212h0.223c0.559,0,0.998-0.106,1.316-0.319s0.477-0.494,0.477-0.843
		c0-0.164-0.051-0.303-0.154-0.415C172.191,158.51,172.027,158.453,171.802,158.453z"/>
	<path fill="#FFFFFF" d="M182.551,156.437c0.287,0,0.492,0.021,0.616,0.062l-0.646,2.947c-0.277-0.113-0.592-0.169-0.946-0.169
		c-0.528,0-0.95,0.181-1.266,0.542c-0.315,0.362-0.555,0.914-0.719,1.658l-0.816,3.832h-2.978l1.839-8.718h2.378l-0.139,1.454h0.062
		c0.333-0.575,0.695-0.986,1.085-1.235S181.92,156.437,182.551,156.437z"/>
	<path fill="#FFFFFF" d="M189.36,162.285c0,1.021-0.333,1.806-1,2.354c-0.667,0.549-1.626,0.823-2.878,0.823
		c-1.139,0-2.052-0.162-2.739-0.485v-2.393c0.472,0.256,0.91,0.436,1.316,0.539c0.405,0.103,0.816,0.154,1.231,0.154
		c0.349,0,0.61-0.047,0.785-0.142c0.174-0.095,0.262-0.227,0.262-0.396c0-0.18-0.067-0.335-0.2-0.465
		c-0.133-0.131-0.467-0.348-1-0.65c-0.544-0.298-0.94-0.639-1.189-1.023s-0.373-0.854-0.373-1.408c0-0.882,0.31-1.562,0.931-2.039
		c0.621-0.477,1.503-0.716,2.647-0.716c0.575,0,1.098,0.067,1.57,0.2c0.472,0.133,0.931,0.339,1.377,0.616l-0.931,1.939
		c-0.339-0.221-0.689-0.396-1.05-0.527c-0.362-0.131-0.673-0.196-0.935-0.196c-0.39,0-0.585,0.174-0.585,0.523
		c0,0.149,0.081,0.28,0.242,0.392c0.162,0.113,0.424,0.259,0.789,0.439C188.783,160.397,189.36,161.218,189.36,162.285z"/>
</g>
<path fill="#C63C27" d="M46.394,83.387h54.56c0,0-6.124,21.879-27.28,21.518C73.674,104.904,53.075,106.213,46.394,83.387z"/>
<path fill="#C63C27" d="M136.377,84.255h54.56c0,0-6.124,21.879-27.28,21.518C163.657,105.773,143.058,107.081,136.377,84.255z"/>
<polygon fill="none" stroke="#C63C27" stroke-width="0.6566" stroke-miterlimit="10" points="73.674,37.178 100.954,83.387 
	75.901,91.181 46.394,83.387 "/>
<polygon fill="none" stroke="#C63C27" stroke-width="0.6566" stroke-miterlimit="10" points="163.657,38.44 190.937,84.649 
	165.884,92.444 136.377,84.649 "/>
<line fill="none" stroke="#C63C27" stroke-width="1.4887" stroke-miterlimit="10" x1="46.394" y1="37.178" x2="190.937" y2="37.178"/>
<polygon fill="#C63C27" points="116.942,33.211 116.015,39.613 125.213,39.613 123.497,33.211 "/>
<line fill="none" stroke="#C63C27" stroke-width="1.3132" stroke-miterlimit="10" x1="120.614" y1="35.299" x2="120.614" y2="28.339"/>
</svg>
