<?xml version="1.0" encoding="utf-8"?>
<!-- Generator: Adobe Illustrator 17.0.0, SVG Export Plug-In . SVG Version: 6.00 Build 0)  -->
<!DOCTYPE svg PUBLIC "-//W3C//DTD SVG 1.1//EN" "http://www.w3.org/Graphics/SVG/1.1/DTD/svg11.dtd">
<svg version="1.1" id="Layer_1" xmlns="http://www.w3.org/2000/svg" xmlns:xlink="http://www.w3.org/1999/xlink" x="0px" y="0px"
	 width="506px" height="94px" viewBox="3 3.383 506 94" enable-background="new 3 3.383 506 94" xml:space="preserve">
<rect x="7" y="7.914" fill="#C63C27" width="498" height="86.194"/>
<g>
	<path fill="#FFFFFF" d="M71.544,50.219h11.094v13.855c-3.012,1.031-6.324,1.547-9.934,1.547c-3.962,0-7.024-1.149-9.187-3.446
		s-3.244-5.574-3.244-9.829c0-4.149,1.184-7.379,3.552-9.688s5.685-3.464,9.952-3.464c1.618,0,3.144,0.152,4.58,0.457
		s2.687,0.692,3.754,1.16l-2.198,5.451c-1.852-0.914-3.886-1.371-6.101-1.371c-2.028,0-3.596,0.659-4.703,1.978
		c-1.108,1.319-1.662,3.203-1.662,5.653c0,2.403,0.501,4.234,1.503,5.494c1.002,1.26,2.447,1.89,4.334,1.89
		c1.032,0,1.981-0.1,2.848-0.299v-4.026h-4.589V50.219z"/>
	<path fill="#FFFFFF" d="M103.139,65.27H87.878V39.564h15.261v5.574h-8.316v4.044h7.701v5.574h-7.701v4.853h8.316V65.27z"/>
	<path fill="#FFFFFF" d="M118.981,65.27h-6.945V45.243h-6.277v-5.679h19.481v5.679h-6.259V65.27z"/>
	<path fill="#FFFFFF" d="M149.609,65.27h-6.945V45.243h-6.277v-5.679h19.481v5.679h-6.259V65.27z"/>
	<path fill="#FFFFFF" d="M181.574,65.27h-6.98V54.791h-8.07V65.27h-6.98V39.564h6.98v9.53h8.07v-9.53h6.98V65.27z"/>
	<path fill="#FFFFFF" d="M202.391,65.27H187.13V39.564h15.261v5.574h-8.316v4.044h7.701v5.574h-7.701v4.853h8.316V65.27z"/>
	<path fill="#FFFFFF" d="M223.086,65.27h-6.84V39.564h15.191v5.574h-8.352v4.905h7.701v5.574h-7.701V65.27z"/>
	<path fill="#FFFFFF" d="M257.512,39.564v15.472c0,3.364-0.952,5.969-2.857,7.815c-1.905,1.846-4.651,2.769-8.237,2.769
		c-3.505,0-6.198-0.897-8.079-2.69c-1.881-1.793-2.822-4.372-2.822-7.736V39.564h6.98V54.65c0,1.817,0.34,3.136,1.02,3.956
		c0.68,0.821,1.682,1.231,3.007,1.231c1.418,0,2.447-0.407,3.086-1.222c0.639-0.815,0.958-2.148,0.958-4v-15.05H257.512z"/>
	<path fill="#FFFFFF" d="M262.91,65.27V39.564h6.945v20.097h9.899v5.609H262.91z"/>
	<path fill="#FFFFFF" d="M283.868,65.27V39.564h6.945v20.097h9.899v5.609H283.868z"/>
	<path fill="#FFFFFF" d="M321.125,55.916v9.354h-6.945V39.564h8.422c6.986,0,10.479,2.532,10.479,7.596
		c0,2.977-1.453,5.281-4.36,6.91l7.49,11.2h-7.877l-5.451-9.354H321.125z M321.125,50.694h1.301c2.426,0,3.64-1.073,3.64-3.218
		c0-1.77-1.19-2.655-3.569-2.655h-1.371V50.694z"/>
	<path fill="#FFFFFF" d="M353.811,65.27h-15.261V39.564h15.261v5.574h-8.316v4.044h7.701v5.574h-7.701v4.853h8.316V65.27z"/>
	<path fill="#FFFFFF" d="M376.966,47.74c0,2.872-0.847,5.09-2.541,6.655c-1.694,1.565-4.1,2.347-7.218,2.347h-1.952v8.527h-6.945
		V39.564h8.897c3.247,0,5.685,0.709,7.314,2.127S376.966,45.126,376.966,47.74z M365.257,51.081h1.266
		c1.043,0,1.873-0.293,2.488-0.879c0.615-0.586,0.923-1.395,0.923-2.426c0-1.735-0.961-2.602-2.884-2.602h-1.793V51.081z"/>
	<path fill="#FFFFFF" d="M405.116,52.382c0,4.325-1.061,7.613-3.182,9.864c-2.122,2.251-5.228,3.376-9.319,3.376
		c-4.032,0-7.124-1.131-9.275-3.393c-2.151-2.262-3.226-5.556-3.226-9.881c0-4.278,1.07-7.546,3.209-9.802
		c2.139-2.256,5.248-3.385,9.327-3.385c4.091,0,7.191,1.119,9.301,3.358C404.061,44.757,405.116,48.045,405.116,52.382z
		 M387.428,52.382c0,4.97,1.729,7.455,5.187,7.455c1.758,0,3.062-0.604,3.912-1.811c0.85-1.207,1.275-3.089,1.275-5.644
		c0-2.567-0.431-4.463-1.292-5.688c-0.862-1.225-2.148-1.837-3.859-1.837C389.169,44.857,387.428,47.365,387.428,52.382z"/>
	<path fill="#FFFFFF" d="M416.703,55.916v9.354h-6.945V39.564h8.422c6.986,0,10.479,2.532,10.479,7.596
		c0,2.977-1.453,5.281-4.36,6.91l7.49,11.2h-7.877l-5.451-9.354H416.703z M416.703,50.694h1.301c2.426,0,3.64-1.073,3.64-3.218
		c0-1.77-1.19-2.655-3.569-2.655h-1.371V50.694z"/>
	<path fill="#FFFFFF" d="M445.467,65.27h-6.945V45.243h-6.277v-5.679h19.481v5.679h-6.259V65.27z"/>
</g>
</svg>
