<?xml version="1.0" encoding="utf-8"?>
<!-- Generator: Adobe Illustrator 17.0.0, SVG Export Plug-In . SVG Version: 6.00 Build 0)  -->
<!DOCTYPE svg PUBLIC "-//W3C//DTD SVG 1.1//EN" "http://www.w3.org/Graphics/SVG/1.1/DTD/svg11.dtd">
<svg version="1.1" id="Layer_1" xmlns="http://www.w3.org/2000/svg" xmlns:xlink="http://www.w3.org/1999/xlink" x="0px" y="0px"
	 width="239px" height="199px" viewBox="0 0 239 199" enable-background="new 0 0 239 199" xml:space="preserve">
<rect x="9.2" y="8.702" fill="#FFFFFF" stroke="#808184" stroke-width="1.3135" stroke-miterlimit="10" width="222.215" height="181.559"/>
<rect x="9.278" y="132.406" fill="#808184" width="222.215" height="58.873"/>
<g>
	<path fill="#FFFFFF" d="M75.387,166.343h-3.009l2.378-11.252h6.634l-0.516,2.44h-3.625l-0.446,2.147h3.356l-0.531,2.455h-3.371
		L75.387,166.343z"/>
	<path fill="#FFFFFF" d="M84.245,166.343h-2.978l1.839-8.72H86.1L84.245,166.343z M83.468,155.707c0-0.528,0.153-0.929,0.458-1.201
		c0.305-0.272,0.732-0.408,1.281-0.408c0.467,0,0.827,0.094,1.081,0.281c0.254,0.187,0.381,0.455,0.381,0.804
		c0,0.513-0.149,0.909-0.446,1.189c-0.298,0.28-0.726,0.419-1.285,0.419C83.958,156.792,83.468,156.43,83.468,155.707z"/>
	<path fill="#FFFFFF" d="M92.265,160.494c0-0.221-0.056-0.386-0.169-0.496c-0.113-0.11-0.249-0.165-0.408-0.165
		c-0.292,0-0.563,0.182-0.812,0.546c-0.249,0.364-0.453,0.934-0.612,1.709l-0.893,4.256h-2.978l1.839-8.72h2.378l-0.092,1.216h0.062
		c0.282-0.487,0.614-0.838,0.997-1.051c0.382-0.213,0.85-0.319,1.405-0.319c0.723,0,1.288,0.219,1.693,0.658
		c0.405,0.439,0.608,1.045,0.608,1.82c0,0.544-0.064,1.131-0.192,1.762l-0.977,4.633h-2.978l0.993-4.756
		C92.218,161.187,92.265,160.822,92.265,160.494z"/>
	<path fill="#FFFFFF" d="M100.53,157.469c0.385,0,0.708,0.078,0.97,0.235s0.546,0.468,0.854,0.935h0.062l0.015-0.285
		c0.036-0.708,0.1-1.265,0.192-1.67l0.477-2.317h3.009l-2.54,11.975h-2.378l0.077-0.947h-0.062c-0.292,0.405-0.6,0.69-0.924,0.854
		s-0.703,0.246-1.139,0.246c-0.811,0-1.426-0.286-1.847-0.858c-0.421-0.572-0.631-1.394-0.631-2.467c0-0.913,0.183-1.845,0.55-2.794
		c0.367-0.949,0.838-1.671,1.412-2.167C99.204,157.717,99.838,157.469,100.53,157.469z M100.369,164.104
		c0.257,0,0.502-0.15,0.735-0.45s0.419-0.702,0.558-1.204s0.208-0.995,0.208-1.478c0-0.739-0.205-1.108-0.616-1.108
		c-0.251,0-0.498,0.151-0.739,0.454s-0.436,0.702-0.585,1.197s-0.223,0.992-0.223,1.489
		C99.707,163.737,99.928,164.104,100.369,164.104z"/>
	<path fill="#FFFFFF" d="M117.185,166.343h-2.378l0.077-0.947h-0.062c-0.287,0.4-0.598,0.684-0.931,0.85
		c-0.334,0.167-0.711,0.25-1.131,0.25c-0.811,0-1.426-0.286-1.847-0.858c-0.421-0.572-0.631-1.394-0.631-2.467
		c0-0.918,0.187-1.855,0.562-2.809c0.375-0.954,0.848-1.675,1.42-2.163c0.572-0.487,1.204-0.731,1.897-0.731
		c0.431,0,0.811,0.096,1.139,0.289c0.328,0.192,0.621,0.507,0.877,0.943h0.062l0.408-1.077h2.386L117.185,166.343z M113.984,164.104
		c0.257,0,0.502-0.15,0.735-0.45s0.419-0.702,0.558-1.204c0.139-0.503,0.208-0.995,0.208-1.478c0-0.334-0.051-0.602-0.154-0.804
		s-0.262-0.304-0.477-0.304c-0.39,0-0.743,0.325-1.058,0.974c-0.316,0.649-0.473,1.371-0.473,2.167
		C113.322,163.737,113.542,164.104,113.984,164.104z"/>
	<path fill="#FFFFFF" d="M134.456,155.091l-1.532,7.173c-0.303,1.442-0.88,2.508-1.732,3.198c-0.852,0.69-2.009,1.035-3.471,1.035
		c-0.688,0-1.294-0.141-1.82-0.423c-0.526-0.282-0.931-0.677-1.216-1.185c-0.285-0.508-0.427-1.075-0.427-1.701
		c0-0.328,0.031-0.659,0.092-0.993l1.532-7.104h3.009l-1.501,7.027c-0.072,0.349-0.108,0.644-0.108,0.885
		c0,0.652,0.31,0.977,0.931,0.977c0.482,0,0.861-0.165,1.135-0.496c0.275-0.331,0.484-0.838,0.627-1.52l1.47-6.873H134.456z"/>
	<path fill="#FFFFFF" d="M140.397,160.494c0-0.221-0.056-0.386-0.169-0.496c-0.113-0.11-0.249-0.165-0.408-0.165
		c-0.292,0-0.563,0.182-0.812,0.546c-0.249,0.364-0.453,0.934-0.612,1.709l-0.893,4.256h-2.978l1.839-8.72h2.378l-0.092,1.216h0.062
		c0.282-0.487,0.614-0.838,0.997-1.051c0.382-0.213,0.85-0.319,1.405-0.319c0.723,0,1.288,0.219,1.693,0.658s0.608,1.045,0.608,1.82
		c0,0.544-0.064,1.131-0.192,1.762l-0.977,4.633h-2.978l0.993-4.756C140.351,161.187,140.397,160.822,140.397,160.494z"/>
	<path fill="#FFFFFF" d="M147.309,166.343h-2.978l1.839-8.72h2.994L147.309,166.343z M146.531,155.707
		c0-0.528,0.153-0.929,0.458-1.201c0.305-0.272,0.732-0.408,1.281-0.408c0.467,0,0.827,0.094,1.081,0.281
		c0.254,0.187,0.381,0.455,0.381,0.804c0,0.513-0.149,0.909-0.446,1.189s-0.726,0.419-1.285,0.419
		C147.021,156.792,146.531,156.43,146.531,155.707z"/>
	<path fill="#FFFFFF" d="M153.281,166.497c-1.072,0-1.9-0.29-2.482-0.87s-0.874-1.408-0.874-2.486c0-1.077,0.204-2.051,0.612-2.921
		c0.408-0.87,0.981-1.546,1.72-2.028s1.601-0.723,2.586-0.723c1.072,0,1.9,0.29,2.482,0.87s0.874,1.408,0.874,2.486
		s-0.204,2.051-0.612,2.921c-0.408,0.87-0.981,1.546-1.72,2.028S154.266,166.497,153.281,166.497z M154.497,159.709
		c-0.421,0-0.781,0.358-1.081,1.074c-0.3,0.716-0.45,1.535-0.45,2.459c0,0.682,0.215,1.024,0.646,1.024
		c0.416,0,0.777-0.357,1.085-1.07s0.462-1.534,0.462-2.463c0-0.339-0.059-0.594-0.177-0.766
		C154.864,159.795,154.702,159.709,154.497,159.709z"/>
	<path fill="#FFFFFF" d="M164.895,160.494c0-0.221-0.056-0.386-0.169-0.496c-0.113-0.11-0.249-0.165-0.408-0.165
		c-0.292,0-0.563,0.182-0.812,0.546c-0.249,0.364-0.453,0.934-0.612,1.709l-0.893,4.256h-2.978l1.839-8.72h2.378l-0.092,1.216h0.062
		c0.282-0.487,0.614-0.838,0.997-1.051s0.85-0.319,1.405-0.319c0.723,0,1.288,0.219,1.693,0.658c0.405,0.439,0.608,1.045,0.608,1.82
		c0,0.544-0.064,1.131-0.192,1.762l-0.977,4.633h-2.978l0.993-4.756C164.848,161.187,164.895,160.822,164.895,160.494z"/>
</g>
<ellipse fill="#C63C27" cx="125.998" cy="60.71" rx="26.719" ry="24.24"/>
<path fill="#FFFFFF" d="M120.213,45.836c0,0-20.935,8.08-7.529,26.26c0,0,15.609,10.835,24.607,2.387c0,0,7.729-6.61,4.407-20.935
	C141.699,53.548,135.639,41.428,120.213,45.836z"/>
<path fill="#C63C27" d="M119.189,50.579c0,0-7.23,2.67-2.781,11.123C116.408,61.703,116.862,52.941,119.189,50.579z"/>
<path fill="#C63C27" d="M112.684,72.096c0,0-33.449,29.542-28.156,41.311c0,0,1.831,20.042,36.937-34.108"/>
</svg>
