<?xml version="1.0" encoding="utf-8"?>
<!-- Generator: Adobe Illustrator 17.0.0, SVG Export Plug-In . SVG Version: 6.00 Build 0)  -->
<!DOCTYPE svg PUBLIC "-//W3C//DTD SVG 1.1//EN" "http://www.w3.org/Graphics/SVG/1.1/DTD/svg11.dtd">
<svg version="1.1" id="Layer_1" xmlns="http://www.w3.org/2000/svg" xmlns:xlink="http://www.w3.org/1999/xlink" x="0px" y="0px"
	 width="239px" height="199px" viewBox="0 0 239 199" enable-background="new 0 0 239 199" xml:space="preserve">
<rect x="8.94" y="8.84" fill="#FFFFFF" stroke="#808184" stroke-width="1.3189" stroke-miterlimit="10" width="223.122" height="182.3"/>
<rect x="9.164" y="131.006" fill="#808184" width="223.122" height="60.645"/>
<line fill="none" stroke="#C63C27" stroke-width="5.2755" stroke-miterlimit="10" x1="146.559" y1="47.944" x2="103.325" y2="123.678"/>
<path fill="#C63C27" d="M151.563,42.94l-1.637-1.177l7.909-10.998c-0.05-0.072-0.08-0.152-0.133-0.223
	c-0.229-0.311-0.482-0.612-0.76-0.901c-0.461-0.478-0.912-0.888-1.354-1.25l-8.789,12.222l-1.637-1.177l8.744-12.16
	c-5.399-2.878-9.339,2.512-12.075,6.774c0,0-15.587,21.365-6.581,30.033c0,0,7.618,11.063,19.612-12.385
	c0,0,6.852-11.221,4.002-18.912L151.563,42.94z"/>
<line fill="none" stroke="#C63C27" stroke-width="5.2755" stroke-miterlimit="10" x1="107.28" y1="47.944" x2="150.513" y2="123.678"/>
<path fill="#C63C27" d="M99.934,27.276c5.399-2.878,9.339,2.512,12.075,6.774c0,0,15.587,21.365,6.581,30.033
	c0,0-7.618,11.063-19.612-12.385c0,0-6.852-11.221-4.002-18.912"/>
<g>
	<path fill="#FFFFFF" d="M66.767,166.103h-3.022l2.388-11.298h6.661l-0.518,2.45h-3.64l-0.448,2.156h3.369l-0.533,2.465H67.64
		L66.767,166.103z"/>
	<path fill="#FFFFFF" d="M76.511,166.258c-1.077,0-1.907-0.291-2.492-0.873c-0.585-0.582-0.877-1.414-0.877-2.496
		s0.205-2.059,0.614-2.933c0.41-0.873,0.985-1.552,1.727-2.036c0.742-0.484,1.607-0.726,2.597-0.726
		c1.077,0,1.907,0.291,2.492,0.873s0.877,1.414,0.877,2.496s-0.205,2.059-0.614,2.933s-0.985,1.552-1.727,2.036
		S77.501,166.258,76.511,166.258z M77.732,159.442c-0.422,0-0.784,0.359-1.086,1.078c-0.301,0.719-0.452,1.542-0.452,2.469
		c0,0.685,0.216,1.028,0.649,1.028c0.417,0,0.78-0.358,1.09-1.074c0.309-0.716,0.464-1.54,0.464-2.473
		c0-0.34-0.059-0.596-0.178-0.769C78.101,159.528,77.938,159.442,77.732,159.442z"/>
	<path fill="#FFFFFF" d="M89.061,157.193c0.288,0,0.495,0.021,0.618,0.062l-0.649,2.96c-0.278-0.113-0.595-0.17-0.951-0.17
		c-0.531,0-0.954,0.182-1.271,0.545c-0.317,0.363-0.558,0.918-0.723,1.665l-0.819,3.848h-2.991l1.847-8.755h2.388l-0.139,1.461
		h0.062c0.335-0.577,0.698-0.99,1.09-1.24C87.915,157.318,88.427,157.193,89.061,157.193z"/>
	<path fill="#FFFFFF" d="M99.934,157.147c-0.556,0-1.059,0.201-1.507,0.603c-0.448,0.402-0.8,0.956-1.055,1.661
		c-0.255,0.706-0.383,1.471-0.383,2.295c0,0.69,0.144,1.206,0.433,1.546c0.289,0.34,0.703,0.51,1.244,0.51
		c0.428,0,0.86-0.053,1.298-0.158s0.953-0.285,1.546-0.537v2.496c-1.046,0.464-2.179,0.695-3.4,0.695
		c-1.339,0-2.371-0.383-3.095-1.148c-0.724-0.765-1.086-1.848-1.086-3.249c0-1.37,0.261-2.627,0.784-3.771
		c0.523-1.144,1.234-2.007,2.133-2.589c0.899-0.582,1.928-0.873,3.087-0.873c1.365,0,2.604,0.337,3.717,1.012l-1.144,2.357
		c-0.479-0.283-0.92-0.496-1.321-0.638C100.784,157.217,100.367,157.147,99.934,157.147z"/>
	<path fill="#FFFFFF" d="M107.113,166.258c-1.077,0-1.907-0.291-2.492-0.873s-0.877-1.414-0.877-2.496s0.205-2.059,0.614-2.933
		c0.41-0.873,0.985-1.552,1.727-2.036c0.742-0.484,1.607-0.726,2.597-0.726c1.077,0,1.907,0.291,2.492,0.873
		c0.585,0.582,0.877,1.414,0.877,2.496s-0.205,2.059-0.614,2.933s-0.985,1.552-1.727,2.036
		C108.968,166.015,108.102,166.258,107.113,166.258z M108.334,159.442c-0.422,0-0.784,0.359-1.086,1.078
		c-0.301,0.719-0.452,1.542-0.452,2.469c0,0.685,0.216,1.028,0.649,1.028c0.417,0,0.781-0.358,1.09-1.074
		c0.309-0.716,0.464-1.54,0.464-2.473c0-0.34-0.059-0.596-0.178-0.769C108.702,159.528,108.54,159.442,108.334,159.442z"/>
	<path fill="#FFFFFF" d="M118.774,160.23c0-0.222-0.057-0.388-0.17-0.498s-0.25-0.166-0.41-0.166c-0.294,0-0.565,0.183-0.815,0.549
		c-0.25,0.366-0.455,0.938-0.614,1.716l-0.896,4.273h-2.991l1.847-8.755h2.388l-0.093,1.221h0.062
		c0.283-0.489,0.617-0.841,1.001-1.055c0.384-0.214,0.854-0.321,1.41-0.321c0.726,0,1.293,0.22,1.7,0.661
		c0.407,0.44,0.61,1.05,0.61,1.828c0,0.546-0.064,1.136-0.193,1.77l-0.981,4.652h-2.991l0.997-4.776
		C118.728,160.925,118.774,160.56,118.774,160.23z"/>
	<path fill="#FFFFFF" d="M129.431,163.066c0,1.025-0.335,1.813-1.005,2.365c-0.67,0.551-1.633,0.827-2.89,0.827
		c-1.144,0-2.061-0.162-2.751-0.487v-2.403c0.474,0.258,0.914,0.438,1.321,0.541c0.407,0.103,0.819,0.155,1.236,0.155
		c0.35,0,0.613-0.048,0.788-0.143c0.175-0.095,0.263-0.228,0.263-0.398c0-0.18-0.067-0.336-0.201-0.468
		c-0.134-0.131-0.469-0.349-1.005-0.653c-0.546-0.299-0.944-0.641-1.194-1.028s-0.375-0.858-0.375-1.414
		c0-0.886,0.312-1.569,0.935-2.048c0.623-0.479,1.509-0.719,2.658-0.719c0.577,0,1.102,0.067,1.576,0.201
		c0.474,0.134,0.935,0.34,1.383,0.618l-0.935,1.947c-0.34-0.222-0.692-0.398-1.055-0.529c-0.363-0.131-0.676-0.197-0.939-0.197
		c-0.392,0-0.587,0.175-0.587,0.525c0,0.149,0.081,0.281,0.243,0.394c0.162,0.113,0.426,0.26,0.792,0.44
		C128.851,161.17,129.431,161.994,129.431,163.066z"/>
	<path fill="#FFFFFF" d="M134.253,163.205c0,0.227,0.058,0.394,0.174,0.502s0.254,0.162,0.413,0.162
		c0.304,0,0.581-0.202,0.831-0.607c0.25-0.404,0.45-0.957,0.599-1.658l0.896-4.258h2.991l-1.847,8.755h-2.396l0.1-1.221h-0.062
		c-0.278,0.479-0.609,0.828-0.993,1.047c-0.384,0.219-0.856,0.328-1.418,0.328c-0.726,0-1.293-0.22-1.7-0.661
		c-0.407-0.44-0.61-1.047-0.61-1.82c0-0.546,0.064-1.136,0.193-1.77l0.981-4.66h2.991l-0.997,4.768
		C134.302,162.538,134.253,162.901,134.253,163.205z"/>
	<path fill="#FFFFFF" d="M145.319,166.103l1.012-4.876c0.077-0.464,0.116-0.775,0.116-0.935c0-0.484-0.185-0.726-0.556-0.726
		c-0.35,0-0.643,0.192-0.877,0.576c-0.234,0.384-0.434,0.952-0.599,1.704l-0.912,4.258h-2.991l1.847-8.755h2.388l-0.124,1.445h0.062
		c0.314-0.587,0.667-1.001,1.059-1.24c0.392-0.24,0.884-0.359,1.476-0.359c0.603,0,1.068,0.138,1.395,0.413
		c0.327,0.276,0.558,0.671,0.692,1.186h0.062c0.335-0.546,0.719-0.949,1.151-1.209c0.433-0.26,0.935-0.39,1.507-0.39
		c0.726,0,1.278,0.218,1.654,0.653c0.376,0.435,0.564,1.078,0.564,1.928c0,0.5-0.057,1.028-0.17,1.584l-0.966,4.745h-2.991
		l0.997-4.876c0.072-0.288,0.108-0.631,0.108-1.028c0-0.206-0.049-0.363-0.147-0.471c-0.098-0.108-0.229-0.162-0.394-0.162
		c-0.381,0-0.689,0.196-0.923,0.587c-0.234,0.392-0.431,0.976-0.591,1.754l-0.858,4.196H145.319z"/>
	<path fill="#FFFFFF" d="M159.097,166.258c-1.092,0-1.942-0.305-2.55-0.916s-0.912-1.459-0.912-2.546
		c0-1.087,0.215-2.067,0.645-2.94s1.02-1.535,1.77-1.986c0.75-0.451,1.616-0.676,2.6-0.676c0.979,0,1.749,0.222,2.311,0.665
		c0.562,0.443,0.842,1.033,0.842,1.77c0,1.036-0.403,1.83-1.209,2.384c-0.806,0.554-1.972,0.831-3.497,0.831h-0.456v0.124
		c0,0.762,0.422,1.144,1.267,1.144c0.407,0,0.806-0.061,1.198-0.182c0.392-0.121,0.837-0.313,1.337-0.576v2.117
		c-0.577,0.294-1.115,0.498-1.615,0.614C160.329,166.2,159.752,166.258,159.097,166.258z M160.318,159.218
		c-0.314,0-0.608,0.179-0.881,0.537c-0.273,0.358-0.438,0.764-0.495,1.217h0.224c0.562,0,1.002-0.107,1.321-0.321
		c0.319-0.214,0.479-0.496,0.479-0.846c0-0.165-0.052-0.304-0.155-0.417C160.71,159.274,160.545,159.218,160.318,159.218z"/>
	<path fill="#FFFFFF" d="M171.114,157.193c0.288,0,0.495,0.021,0.618,0.062l-0.649,2.96c-0.278-0.113-0.595-0.17-0.951-0.17
		c-0.531,0-0.954,0.182-1.271,0.545c-0.317,0.363-0.558,0.918-0.723,1.665l-0.819,3.848h-2.991l1.847-8.755h2.388l-0.139,1.461
		h0.062c0.335-0.577,0.698-0.99,1.09-1.24C169.968,157.318,170.48,157.193,171.114,157.193z"/>
	<path fill="#FFFFFF" d="M177.953,163.066c0,1.025-0.335,1.813-1.005,2.365s-1.633,0.827-2.89,0.827
		c-1.144,0-2.061-0.162-2.751-0.487v-2.403c0.474,0.258,0.914,0.438,1.321,0.541c0.407,0.103,0.819,0.155,1.236,0.155
		c0.35,0,0.613-0.048,0.788-0.143s0.263-0.228,0.263-0.398c0-0.18-0.067-0.336-0.201-0.468c-0.134-0.131-0.469-0.349-1.005-0.653
		c-0.546-0.299-0.944-0.641-1.194-1.028s-0.375-0.858-0.375-1.414c0-0.886,0.312-1.569,0.935-2.048
		c0.623-0.479,1.509-0.719,2.658-0.719c0.577,0,1.102,0.067,1.576,0.201c0.474,0.134,0.935,0.34,1.383,0.618l-0.935,1.947
		c-0.34-0.222-0.692-0.398-1.055-0.529c-0.363-0.131-0.676-0.197-0.939-0.197c-0.392,0-0.587,0.175-0.587,0.525
		c0,0.149,0.081,0.281,0.243,0.394s0.426,0.26,0.792,0.44C177.374,161.17,177.953,161.994,177.953,163.066z"/>
</g>
</svg>
