<?xml version="1.0" encoding="UTF-8" standalone="no"?><!DOCTYPE svg PUBLIC "-//W3C//DTD SVG 1.1//EN" "http://www.w3.org/Graphics/SVG/1.1/DTD/svg11.dtd"><svg width="100%" height="100%" viewBox="0 0 498 36" version="1.1" xmlns="http://www.w3.org/2000/svg" xmlns:xlink="http://www.w3.org/1999/xlink" xml:space="preserve" style="fill-rule:evenodd;clip-rule:evenodd;stroke-linejoin:round;stroke-miterlimit:1.41421;"><g><rect x="0" y="3" width="498" height="30" style="fill:#c63c27;"/><g><path d="M183.037,26.139l-0.898,-3.215l-5.684,0l-0.922,3.215l-3.041,0l4.823,-16.291l4.288,0l4.824,16.291l-3.39,0Zm-3.702,-13.299l-2.144,7.578l4.263,0l-2.119,-7.578Z" style="fill:#fff;fill-rule:nonzero;"/><path d="M199.465,15.033c0,0.848 -0.141,1.631 -0.424,2.35c-0.282,0.719 -0.702,1.34 -1.258,1.863c-0.557,0.524 -1.251,0.931 -2.082,1.222c-0.831,0.291 -1.795,0.436 -2.892,0.436l-1.558,0l0,5.235l-3.091,0l0,-16.291l4.774,0c1.055,0 1.988,0.114 2.798,0.343c0.81,0.228 1.492,0.563 2.044,1.003c0.553,0.441 0.973,0.983 1.259,1.627c0.287,0.644 0.43,1.381 0.43,2.212Zm-3.216,0.212c0,-0.432 -0.068,-0.824 -0.205,-1.178c-0.137,-0.353 -0.345,-0.654 -0.624,-0.903c-0.278,-0.25 -0.629,-0.441 -1.053,-0.574c-0.424,-0.133 -0.926,-0.199 -1.508,-0.199l-1.608,0l0,5.97l1.708,0c0.531,0 1.001,-0.072 1.408,-0.218c0.407,-0.145 0.75,-0.355 1.029,-0.629c0.278,-0.274 0.49,-0.603 0.635,-0.985c0.146,-0.382 0.218,-0.81 0.218,-1.284Z" style="fill:#fff;fill-rule:nonzero;"/><path d="M213.501,15.033c0,0.848 -0.142,1.631 -0.424,2.35c-0.283,0.719 -0.702,1.34 -1.259,1.863c-0.557,0.524 -1.251,0.931 -2.082,1.222c-0.831,0.291 -1.795,0.436 -2.892,0.436l-1.558,0l0,5.235l-3.091,0l0,-16.291l4.774,0c1.055,0 1.988,0.114 2.798,0.343c0.811,0.228 1.492,0.563 2.045,1.003c0.552,0.441 0.972,0.983 1.258,1.627c0.287,0.644 0.431,1.381 0.431,2.212Zm-3.216,0.212c0,-0.432 -0.069,-0.824 -0.206,-1.178c-0.137,-0.353 -0.345,-0.654 -0.623,-0.903c-0.279,-0.25 -0.63,-0.441 -1.054,-0.574c-0.423,-0.133 -0.926,-0.199 -1.508,-0.199l-1.608,0l0,5.97l1.708,0c0.532,0 1.001,-0.072 1.408,-0.218c0.408,-0.145 0.75,-0.355 1.029,-0.629c0.278,-0.274 0.49,-0.603 0.635,-0.985c0.146,-0.382 0.219,-0.81 0.219,-1.284Z" style="fill:#fff;fill-rule:nonzero;"/><path d="M241.097,25.504c-0.723,0.291 -1.423,0.507 -2.1,0.648c-0.677,0.141 -1.381,0.212 -2.113,0.212c-1.171,0 -2.208,-0.173 -3.11,-0.517c-0.901,-0.345 -1.662,-0.858 -2.281,-1.54c-0.619,-0.681 -1.088,-1.527 -1.408,-2.536c-0.32,-1.01 -0.48,-2.184 -0.48,-3.522c0,-1.371 0.174,-2.59 0.523,-3.658c0.349,-1.068 0.848,-1.97 1.496,-2.705c0.648,-0.735 1.436,-1.296 2.362,-1.683c0.927,-0.386 1.968,-0.579 3.123,-0.579c0.374,0 0.725,0.008 1.053,0.025c0.328,0.016 0.65,0.047 0.966,0.093c0.316,0.046 0.636,0.106 0.96,0.181c0.324,0.075 0.66,0.17 1.009,0.287l0,3.041c-0.706,-0.332 -1.379,-0.569 -2.019,-0.711c-0.64,-0.141 -1.221,-0.211 -1.745,-0.211c-0.773,0 -1.433,0.139 -1.982,0.417c-0.548,0.279 -0.999,0.669 -1.352,1.172c-0.353,0.503 -0.613,1.101 -0.779,1.795c-0.167,0.694 -0.25,1.456 -0.25,2.287c0,0.881 0.086,1.668 0.256,2.362c0.17,0.694 0.434,1.282 0.791,1.764c0.358,0.482 0.815,0.849 1.372,1.103c0.556,0.253 1.217,0.38 1.981,0.38c0.275,0 0.572,-0.027 0.892,-0.081c0.32,-0.054 0.644,-0.125 0.972,-0.212c0.328,-0.087 0.652,-0.191 0.972,-0.311c0.32,-0.121 0.617,-0.243 0.891,-0.368l0,2.867Z" style="fill:#fff;fill-rule:nonzero;"/><path d="M252.44,26.139l-2.293,-5.235c-0.216,-0.498 -0.518,-0.874 -0.904,-1.128c-0.386,-0.253 -0.841,-0.38 -1.365,-0.38l-0.586,0l0,6.743l-3.066,0l0,-16.291l4.749,0c0.898,0 1.712,0.077 2.443,0.231c0.731,0.153 1.355,0.409 1.87,0.766c0.515,0.358 0.912,0.823 1.19,1.396c0.279,0.574 0.418,1.276 0.418,2.107c0,0.598 -0.087,1.13 -0.262,1.595c-0.174,0.466 -0.42,0.867 -0.735,1.203c-0.316,0.337 -0.692,0.609 -1.128,0.817c-0.437,0.207 -0.912,0.353 -1.428,0.436c0.399,0.083 0.765,0.309 1.097,0.679c0.333,0.37 0.665,0.904 0.997,1.602l2.606,5.459l-3.603,0Zm-0.76,-11.492c0,-0.798 -0.254,-1.371 -0.76,-1.72c-0.507,-0.349 -1.268,-0.524 -2.281,-0.524l-1.347,0l0,4.6l1.247,0c0.473,0 0.903,-0.05 1.29,-0.15c0.386,-0.099 0.717,-0.249 0.991,-0.448c0.274,-0.2 0.486,-0.447 0.636,-0.742c0.149,-0.295 0.224,-0.634 0.224,-1.016Z" style="fill:#fff;fill-rule:nonzero;"/><path d="M258.947,26.139l0,-16.291l9.81,0l0,2.593l-6.694,0l0,4.051l6.382,0l0,2.53l-6.382,0l0,4.525l6.694,0l0,2.592l-9.81,0Z" style="fill:#fff;fill-rule:nonzero;"/><path d="M284.063,17.788c0,1.263 -0.156,2.41 -0.467,3.44c-0.312,1.031 -0.798,1.91 -1.459,2.637c-0.66,0.727 -1.506,1.288 -2.536,1.682c-1.031,0.395 -2.265,0.592 -3.702,0.592l-4.138,0l0,-16.291l4.823,0c1.247,0 2.338,0.156 3.272,0.468c0.935,0.311 1.714,0.791 2.338,1.439c0.623,0.648 1.09,1.471 1.402,2.468c0.311,0.997 0.467,2.186 0.467,3.565Zm-3.29,0.2c0,-0.881 -0.071,-1.667 -0.212,-2.356c-0.142,-0.69 -0.381,-1.274 -0.717,-1.752c-0.337,-0.477 -0.787,-0.841 -1.353,-1.09c-0.565,-0.25 -1.267,-0.374 -2.106,-0.374l-1.558,0l0,11.156l1.346,0c1.504,0 2.647,-0.449 3.428,-1.346c0.781,-0.898 1.172,-2.311 1.172,-4.238Z" style="fill:#fff;fill-rule:nonzero;"/><path d="M286.594,12.353l0,-2.505l10.295,0l0,2.505l-3.589,0l0,11.256l3.589,0l0,2.53l-10.295,0l0,-2.53l3.589,0l0,-11.256l-3.589,0Z" style="fill:#fff;fill-rule:nonzero;"/><path d="M307.347,12.403l0,13.736l-3.141,0l0,-13.736l-4.462,0l0,-2.555l12.066,0l0,2.555l-4.463,0Z" style="fill:#fff;fill-rule:nonzero;"/><path d="M325.508,21.216c0,0.889 -0.164,1.662 -0.492,2.318c-0.328,0.657 -0.787,1.199 -1.377,1.627c-0.59,0.428 -1.293,0.746 -2.107,0.954c-0.814,0.207 -1.703,0.311 -2.667,0.311c-0.856,0 -1.683,-0.05 -2.481,-0.149c-0.798,-0.1 -1.587,-0.266 -2.368,-0.499l0,-3.029c0.382,0.133 0.781,0.258 1.197,0.374c0.415,0.116 0.833,0.218 1.252,0.305c0.42,0.088 0.837,0.156 1.253,0.206c0.415,0.05 0.818,0.075 1.209,0.075c0.582,0 1.076,-0.05 1.483,-0.15c0.407,-0.099 0.74,-0.237 0.997,-0.411c0.258,-0.175 0.445,-0.382 0.561,-0.623c0.117,-0.241 0.175,-0.507 0.175,-0.798c0,-0.399 -0.114,-0.733 -0.343,-1.003c-0.228,-0.271 -0.53,-0.509 -0.904,-0.717c-0.374,-0.208 -0.799,-0.395 -1.277,-0.561c-0.478,-0.166 -0.964,-0.345 -1.459,-0.536c-0.494,-0.191 -0.98,-0.407 -1.458,-0.648c-0.478,-0.241 -0.904,-0.54 -1.278,-0.898c-0.374,-0.357 -0.675,-0.783 -0.903,-1.277c-0.229,-0.495 -0.343,-1.091 -0.343,-1.789c0,-0.64 0.116,-1.246 0.349,-1.82c0.233,-0.573 0.598,-1.074 1.097,-1.502c0.498,-0.428 1.138,-0.769 1.919,-1.022c0.782,-0.253 1.725,-0.38 2.83,-0.38c0.324,0 0.663,0.014 1.016,0.043c0.353,0.03 0.702,0.067 1.047,0.113c0.345,0.045 0.677,0.099 0.997,0.162c0.32,0.062 0.613,0.126 0.879,0.193l0,2.804c-0.266,-0.099 -0.557,-0.191 -0.873,-0.274c-0.316,-0.083 -0.642,-0.156 -0.978,-0.218c-0.337,-0.062 -0.675,-0.11 -1.016,-0.143c-0.341,-0.033 -0.665,-0.05 -0.972,-0.05c-0.54,0 -0.998,0.044 -1.371,0.131c-0.374,0.087 -0.682,0.208 -0.923,0.361c-0.241,0.154 -0.415,0.343 -0.523,0.567c-0.108,0.225 -0.162,0.474 -0.162,0.748c0,0.341 0.114,0.634 0.342,0.879c0.229,0.245 0.532,0.465 0.91,0.661c0.378,0.195 0.806,0.378 1.284,0.548c0.478,0.17 0.968,0.353 1.471,0.549c0.503,0.195 0.993,0.417 1.471,0.666c0.478,0.25 0.906,0.553 1.284,0.91c0.378,0.358 0.681,0.779 0.91,1.266c0.228,0.486 0.342,1.061 0.342,1.726Z" style="fill:#fff;fill-rule:nonzero;"/></g></g></svg>