<?xml version="1.0" encoding="utf-8"?>
<!-- Generator: Adobe Illustrator 17.0.0, SVG Export Plug-In . SVG Version: 6.00 Build 0)  -->
<!DOCTYPE svg PUBLIC "-//W3C//DTD SVG 1.1//EN" "http://www.w3.org/Graphics/SVG/1.1/DTD/svg11.dtd">
<svg version="1.1" id="Layer_1" xmlns="http://www.w3.org/2000/svg" xmlns:xlink="http://www.w3.org/1999/xlink" x="0px" y="0px"
	 width="640px" height="91.495px" viewBox="0 0 640 91.495" enable-background="new 0 0 640 91.495" xml:space="preserve">
<rect x="37.677" y="4.812" fill="#C73A22" width="564.645" height="82.725"/>
<g>
	<path fill="#FFFFFF" d="M113.469,62.111h-7.132l4.323-20.777h-5.782l1.259-5.892h18.752l-1.296,5.892h-5.8L113.469,62.111z"/>
	<path fill="#FFFFFF" d="M134.301,62.111l2.353-11.273c0.219-0.949,0.329-1.812,0.329-2.59c0-0.523-0.135-0.916-0.402-1.176
		c-0.267-0.262-0.589-0.393-0.966-0.393c-1.52,0-2.645,1.782-3.374,5.345l-2.116,10.087h-7.06l6.001-28.383h7.06l-0.966,4.542
		c-0.427,1.922-0.961,3.643-1.606,5.163h0.146c1.228-1.569,2.888-2.353,4.979-2.353c1.714,0,3.053,0.52,4.013,1.559
		c0.961,1.04,1.441,2.478,1.441,4.314c0,1.29-0.153,2.682-0.457,4.178l-2.316,10.982L134.301,62.111L134.301,62.111z"/>
	<path fill="#FFFFFF" d="M155.589,62.476c-2.578,0-4.585-0.721-6.021-2.162c-1.435-1.441-2.152-3.444-2.152-6.011
		c0-2.566,0.507-4.88,1.523-6.94c1.015-2.061,2.408-3.624,4.177-4.688c1.771-1.063,3.816-1.596,6.139-1.596
		c2.31,0,4.129,0.523,5.454,1.568c1.325,1.047,1.988,2.439,1.988,4.178c0,2.444-0.951,4.32-2.855,5.627
		c-1.903,1.308-4.653,1.961-8.253,1.961h-1.077v0.292c0,1.8,0.997,2.7,2.992,2.7c0.961,0,1.904-0.143,2.828-0.429
		s1.976-0.739,3.156-1.359v4.999c-1.362,0.693-2.633,1.176-3.812,1.45C158.494,62.339,157.133,62.476,155.589,62.476z
		 M158.47,45.858c-0.741,0-1.435,0.423-2.079,1.268c-0.645,0.846-1.034,1.803-1.167,2.873h0.529c1.326,0,2.366-0.252,3.12-0.757
		c0.754-0.504,1.13-1.17,1.13-1.997c0-0.389-0.121-0.716-0.364-0.985S159.006,45.858,158.47,45.858z"/>
	<path fill="#FFFFFF" d="M198.438,62.111h-7.133l2.281-10.872h-6.312l-2.317,10.872h-7.132l5.637-26.669h7.132l-2.043,9.887h6.348
		l2.043-9.887h7.15L198.438,62.111z"/>
	<path fill="#FFFFFF" d="M221.787,62.111h-5.636l0.182-2.244h-0.146c-0.681,0.949-1.416,1.621-2.207,2.017
		c-0.79,0.395-1.684,0.593-2.682,0.593c-1.921,0-3.381-0.677-4.378-2.034c-0.997-1.356-1.495-3.304-1.495-5.846
		c0-2.177,0.443-4.396,1.332-6.658c0.888-2.262,2.009-3.971,3.366-5.126c1.356-1.156,2.854-1.733,4.496-1.733
		c1.021,0,1.921,0.227,2.7,0.683c0.779,0.457,1.47,1.201,2.079,2.235h0.146l0.967-2.554h5.655L221.787,62.111z M214.198,56.803
		c0.608,0,1.189-0.355,1.742-1.067c0.554-0.711,0.995-1.663,1.323-2.854s0.493-2.359,0.493-3.503c0-0.79-0.121-1.426-0.364-1.906
		c-0.243-0.481-0.621-0.721-1.132-0.721c-0.924,0-1.759,0.77-2.508,2.307c-0.747,1.539-1.122,3.25-1.122,5.136
		C212.629,55.934,213.152,56.803,214.198,56.803z"/>
	<path fill="#FFFFFF" d="M240.904,48.248c0-0.523-0.134-0.916-0.401-1.176c-0.267-0.262-0.589-0.393-0.967-0.393
		c-0.692,0-1.334,0.433-1.924,1.295c-0.59,0.864-1.073,2.214-1.45,4.05l-2.116,10.087h-7.06l4.36-20.668h5.636l-0.219,2.882h0.146
		c0.67-1.155,1.456-1.985,2.363-2.49c0.907-0.504,2.016-0.756,3.329-0.756c1.715,0,3.053,0.52,4.013,1.559
		c0.961,1.04,1.441,2.478,1.441,4.314c0,1.29-0.153,2.682-0.456,4.178l-2.317,10.982h-7.06l2.354-11.273
		C240.794,49.89,240.904,49.026,240.904,48.248z"/>
	<path fill="#FFFFFF" d="M260.496,41.079c0.912,0,1.678,0.185,2.299,0.556c0.62,0.37,1.296,1.11,2.025,2.217h0.146l0.036-0.675
		c0.086-1.678,0.237-2.997,0.457-3.959l1.131-5.49h7.133l-6.021,28.383h-5.636l0.183-2.244h-0.146
		c-0.693,0.961-1.423,1.636-2.189,2.025s-1.666,0.584-2.7,0.584c-1.921,0-3.381-0.677-4.378-2.034
		c-0.997-1.356-1.496-3.304-1.496-5.846c0-2.164,0.434-4.372,1.304-6.622c0.869-2.249,1.986-3.961,3.347-5.135
		C257.353,41.665,258.854,41.079,260.496,41.079z M260.112,56.803c0.608,0,1.189-0.355,1.743-1.067
		c0.554-0.711,0.995-1.663,1.322-2.854c0.329-1.192,0.493-2.359,0.493-3.503c0-1.751-0.486-2.627-1.459-2.627
		c-0.596,0-1.18,0.359-1.751,1.076c-0.571,0.718-1.034,1.664-1.386,2.837c-0.353,1.174-0.529,2.35-0.529,3.53
		C258.544,55.934,259.066,56.803,260.112,56.803z"/>
	<path fill="#FFFFFF" d="M288.623,54.943c0,2.42-0.79,4.28-2.371,5.581c-1.581,1.302-3.855,1.953-6.823,1.953
		c-2.7,0-4.864-0.383-6.494-1.15v-5.673c1.119,0.608,2.159,1.034,3.12,1.277c0.96,0.243,1.933,0.364,2.919,0.364
		c0.827,0,1.446-0.113,1.86-0.337c0.413-0.225,0.621-0.538,0.621-0.94c0-0.426-0.159-0.794-0.475-1.103
		c-0.316-0.31-1.106-0.824-2.37-1.542c-1.289-0.705-2.23-1.513-2.818-2.426c-0.59-0.912-0.885-2.025-0.885-3.338
		c0-2.091,0.736-3.703,2.207-4.833c1.472-1.131,3.564-1.696,6.275-1.696c1.362,0,2.603,0.158,3.721,0.473
		c1.119,0.317,2.207,0.803,3.266,1.459l-2.207,4.597c-0.803-0.522-1.633-0.939-2.491-1.249s-1.596-0.465-2.217-0.465
		c-0.924,0-1.386,0.413-1.386,1.24c0,0.353,0.191,0.662,0.575,0.93c0.383,0.267,1.005,0.614,1.87,1.04
		C287.255,50.468,288.623,52.414,288.623,54.943z"/>
	<path fill="#FFFFFF" d="M312.265,62.111h-7.133l4.324-20.777h-5.783l1.259-5.892h18.752l-1.295,5.892h-5.801L312.265,62.111z"/>
	<path fill="#FFFFFF" d="M333.097,62.111l2.354-11.273c0.219-0.949,0.328-1.812,0.328-2.59c0-0.523-0.133-0.916-0.4-1.176
		c-0.267-0.262-0.59-0.393-0.967-0.393c-1.52,0-2.646,1.782-3.375,5.345L328.92,62.11h-7.059l6.001-28.383h7.059l-0.967,4.542
		c-0.425,1.922-0.96,3.643-1.606,5.163h0.146c1.229-1.569,2.888-2.353,4.98-2.353c1.714,0,3.053,0.52,4.013,1.559
		c0.961,1.04,1.44,2.478,1.44,4.314c0,1.29-0.152,2.682-0.456,4.178l-2.317,10.982L333.097,62.111L333.097,62.111z"/>
	<path fill="#FFFFFF" d="M362.575,62.111h-5.637l0.183-2.244h-0.146c-0.681,0.949-1.417,1.621-2.207,2.017
		c-0.79,0.395-1.684,0.593-2.681,0.593c-1.921,0-3.381-0.677-4.378-2.034c-0.997-1.356-1.497-3.304-1.497-5.846
		c0-2.177,0.444-4.396,1.332-6.658c0.887-2.262,2.01-3.971,3.366-5.126c1.356-1.156,2.855-1.733,4.496-1.733
		c1.021,0,1.921,0.227,2.7,0.683c0.779,0.457,1.472,1.201,2.08,2.235h0.146l0.966-2.554h5.655L362.575,62.111z M354.986,56.803
		c0.608,0,1.189-0.355,1.743-1.067c0.553-0.711,0.994-1.663,1.322-2.854c0.329-1.191,0.492-2.359,0.492-3.503
		c0-0.79-0.121-1.426-0.364-1.906c-0.243-0.481-0.619-0.721-1.13-0.721c-0.924,0-1.761,0.77-2.508,2.307
		c-0.747,1.539-1.122,3.25-1.122,5.136C353.417,55.934,353.94,56.803,354.986,56.803z"/>
	<path fill="#FFFFFF" d="M377.697,56.803c0.803,0,1.915-0.286,3.338-0.857v5.308c-1.654,0.815-3.721,1.223-6.202,1.223
		c-1.8,0-3.165-0.386-4.095-1.159c-0.931-0.772-1.396-2.04-1.396-3.803c0-0.924,0.146-2.067,0.438-3.43l1.533-7.333h-2.809
		l0.747-3.466l3.977-1.606l2.5-4.378h4.706l-0.893,4.141h5.253l-1.15,5.308h-5.272l-1.533,6.986
		c-0.194,0.937-0.292,1.575-0.292,1.916C376.548,56.42,376.931,56.803,377.697,56.803z"/>
	<path fill="#FFFFFF" d="M401.867,62.111h-7.133l5.637-26.669h15.724l-1.223,5.783h-8.592l-1.058,5.089h7.953l-1.259,5.819h-7.991
		L401.867,62.111z"/>
	<path fill="#FFFFFF" d="M425.088,62.476c-2.578,0-4.584-0.721-6.02-2.162c-1.435-1.441-2.153-3.444-2.153-6.011
		c0-2.566,0.507-4.88,1.523-6.94c1.015-2.061,2.408-3.624,4.177-4.688c1.77-1.063,3.816-1.596,6.138-1.596
		c2.31,0,4.129,0.523,5.454,1.568c1.326,1.047,1.988,2.439,1.988,4.178c0,2.444-0.951,4.32-2.854,5.627
		c-1.903,1.308-4.654,1.961-8.254,1.961h-1.077v0.292c0,1.8,0.997,2.7,2.992,2.7c0.961,0,1.904-0.143,2.828-0.429
		s1.976-0.739,3.156-1.359v4.999c-1.362,0.693-2.633,1.176-3.812,1.45C427.995,62.339,426.633,62.476,425.088,62.476z
		 M427.971,45.858c-0.742,0-1.435,0.423-2.08,1.268c-0.644,0.846-1.034,1.803-1.167,2.873h0.529c1.326,0,2.366-0.252,3.12-0.757
		c0.754-0.504,1.131-1.17,1.131-1.997c0-0.389-0.121-0.716-0.364-0.985C428.896,45.991,428.506,45.858,427.971,45.858z"/>
	<path fill="#FFFFFF" d="M446.723,62.476c-2.578,0-4.584-0.721-6.02-2.162c-1.435-1.441-2.153-3.444-2.153-6.011
		c0-2.566,0.507-4.88,1.523-6.94c1.015-2.061,2.408-3.624,4.177-4.688c1.77-1.063,3.816-1.596,6.138-1.596
		c2.31,0,4.129,0.523,5.454,1.568c1.326,1.047,1.988,2.439,1.988,4.178c0,2.444-0.951,4.32-2.854,5.627
		c-1.903,1.308-4.654,1.961-8.254,1.961h-1.077v0.292c0,1.8,0.997,2.7,2.992,2.7c0.961,0,1.904-0.143,2.828-0.429
		s1.976-0.739,3.156-1.359v4.999c-1.362,0.693-2.633,1.176-3.812,1.45C449.63,62.339,448.267,62.476,446.723,62.476z
		 M449.606,45.858c-0.742,0-1.435,0.423-2.08,1.268c-0.644,0.846-1.034,1.803-1.167,2.873h0.529c1.326,0,2.366-0.252,3.12-0.757
		c0.754-0.504,1.131-1.17,1.131-1.997c0-0.389-0.121-0.716-0.364-0.985C450.53,45.991,450.14,45.858,449.606,45.858z"/>
	<path fill="#FFFFFF" d="M469.343,41.079c0.912,0,1.678,0.185,2.299,0.556c0.62,0.37,1.296,1.11,2.025,2.217h0.146l0.036-0.675
		c0.086-1.678,0.237-2.997,0.457-3.959l1.131-5.49h7.133l-6.021,28.383h-5.636l0.183-2.244h-0.146
		c-0.693,0.961-1.423,1.636-2.189,2.025s-1.666,0.584-2.7,0.584c-1.921,0-3.381-0.677-4.378-2.034
		c-0.997-1.356-1.496-3.304-1.496-5.846c0-2.164,0.434-4.372,1.304-6.622c0.869-2.249,1.985-3.961,3.347-5.135
		C466.199,41.665,467.701,41.079,469.343,41.079z M468.959,56.803c0.608,0,1.19-0.355,1.743-1.067
		c0.554-0.711,0.995-1.663,1.322-2.854c0.329-1.192,0.493-2.359,0.493-3.503c0-1.751-0.486-2.627-1.459-2.627
		c-0.596,0-1.18,0.359-1.751,1.076c-0.571,0.718-1.034,1.664-1.386,2.837c-0.353,1.174-0.529,2.35-0.529,3.53
		C467.391,55.934,467.913,56.803,468.959,56.803z"/>
	<path fill="#FFFFFF" d="M517.372,35.442l-3.63,17.001c-0.718,3.417-2.086,5.943-4.104,7.58c-2.019,1.635-4.761,2.453-8.226,2.453
		c-1.63,0-3.068-0.335-4.315-1.004c-1.246-0.668-2.207-1.606-2.882-2.809c-0.675-1.205-1.013-2.548-1.013-4.031
		c0-0.779,0.073-1.562,0.219-2.354l3.63-16.836h7.133l-3.557,16.655c-0.17,0.827-0.256,1.526-0.256,2.097
		c0,1.544,0.736,2.316,2.207,2.316c1.142,0,2.04-0.392,2.69-1.176c0.651-0.784,1.146-1.985,1.487-3.602l3.484-16.29H517.372
		L517.372,35.442z"/>
	<path fill="#FFFFFF" d="M533.37,54.943c0,2.42-0.791,4.28-2.372,5.581c-1.581,1.302-3.855,1.953-6.822,1.953
		c-2.7,0-4.865-0.383-6.494-1.15v-5.673c1.118,0.608,2.158,1.034,3.119,1.277s1.934,0.364,2.919,0.364
		c0.827,0,1.447-0.113,1.86-0.337c0.413-0.225,0.62-0.538,0.62-0.94c0-0.426-0.158-0.794-0.474-1.103
		c-0.316-0.31-1.107-0.824-2.371-1.542c-1.289-0.705-2.229-1.513-2.819-2.426c-0.59-0.912-0.884-2.025-0.884-3.338
		c0-2.091,0.736-3.703,2.207-4.833s3.563-1.696,6.275-1.696c1.362,0,2.603,0.158,3.721,0.473c1.119,0.317,2.207,0.803,3.266,1.459
		l-2.207,4.597c-0.803-0.522-1.633-0.939-2.49-1.249c-0.858-0.31-1.596-0.465-2.217-0.465c-0.924,0-1.386,0.413-1.386,1.24
		c0,0.353,0.191,0.662,0.575,0.93c0.383,0.267,1.006,0.614,1.87,1.04C532.002,50.468,533.37,52.414,533.37,54.943z"/>
</g>
<path fill="#BB9E50" d="M-22.867,45.603c0,0,32.825,16.151,66.045,13.646c0,0,6.512,11.931,14.438,16.932
	c0,0,8.788,5.298-5.66-17.435c0,0,1.514,3.853,15.047,9.495c0,0,9.372,1.568-11.648-14.883c0,0,14.994,10.04,24.131,11.171
	c0,0,4.769-3.075-20.992-16.143c0,0,6.093,2.107,16.745,1.295c0,0,8.696-1.121-15.1-6.286c0,0,8.294,0.543,11.945-2.948
	c0,0,1.981-2.806-13.562-1.604l-3.603,0.815L-4.223,16.054"/>
<path fill="#BB9E50" d="M666.867,39.307c0,0-32.047,17.643-65.347,16.671c0,0-5.956,12.218-13.643,17.578
	c0,0-8.534,5.697,4.852-17.678c0,0-1.335,3.918-14.595,10.177c0,0-9.289,1.998,10.951-15.403c0,0-14.516,10.719-23.591,12.269
	c0,0-4.906-2.853,20.227-17.092c0,0-5.989,2.385-16.668,2.064c0,0-8.738-0.719,14.795-6.975c0,0-8.26,0.923-12.068-2.395
	c0,0-2.109-2.712,13.474-2.227l3.636,0.648l57.991-26.3"/>
</svg>
