<?xml version="1.0" encoding="utf-8"?>
<!-- Generator: Adobe Illustrator 17.0.0, SVG Export Plug-In . SVG Version: 6.00 Build 0)  -->
<!DOCTYPE svg PUBLIC "-//W3C//DTD SVG 1.1//EN" "http://www.w3.org/Graphics/SVG/1.1/DTD/svg11.dtd">
<svg version="1.1" id="Layer_1" xmlns="http://www.w3.org/2000/svg" xmlns:xlink="http://www.w3.org/1999/xlink" x="0px" y="0px"
	 width="640px" height="487.278px" viewBox="0 0 640 487.278" enable-background="new 0 0 640 487.278" xml:space="preserve">
<circle fill="#FFFFFF" cx="67.437" cy="33.481" r="10.354"/>
<path fill="#C73A22" d="M620.753,57.73c0,3.958-5.056,7.167-11.293,7.167H28.238c-6.237,0-11.293-3.209-11.293-7.167V25.482
	c0-3.958,5.056-7.167,11.293-7.167H609.46c6.237,0,11.293,3.209,11.293,7.167L620.753,57.73L620.753,57.73z"/>
<line fill="none" stroke="#FFFFFF" stroke-width="8" stroke-miterlimit="10" x1="52.528" y1="41.606" x2="585.17" y2="41.606"/>
<circle fill="#D58C84" cx="52.528" cy="41.606" r="10.354"/>
<circle fill="#D58C84" cx="318.849" cy="41.606" r="10.354"/>
<circle fill="#FFFFFF" cx="585.17" cy="41.606" r="10.354"/>
<circle fill="#D58C84" cx="185.688" cy="41.606" r="10.354"/>
<circle fill="#D58C84" cx="452.01" cy="41.606" r="10.354"/>
<line fill="none" stroke="#D58C84" stroke-width="8" stroke-miterlimit="10" x1="52.528" y1="41.606" x2="524.18" y2="41.606"/>
<g>
	<g>
		<line fill="none" stroke="#000000" stroke-miterlimit="10" x1="157.229" y1="447.032" x2="509.229" y2="447.032"/>
		<g>
			<g>
				<line fill="none" stroke="#000000" stroke-miterlimit="10" x1="157.229" y1="447.032" x2="157.229" y2="439.607"/>
				<line fill="none" stroke="#000000" stroke-miterlimit="10" x1="509.229" y1="447.032" x2="509.229" y2="439.607"/>
			</g>
		</g>
	</g>
	<g>
		<g>
			<g enable-background="new    ">
				<path d="M133.053,452.779h-2.146l0.96-4.408c0.103-0.485,0.243-0.957,0.419-1.412c-0.287,0.25-0.528,0.439-0.723,0.568
					l-1.12,0.69l-0.833-1.39l3.42-2.113h1.716L133.053,452.779z"/>
				<path d="M141.72,447.356c0,1.096-0.157,2.07-0.469,2.92c-0.313,0.852-0.745,1.501-1.296,1.945
					c-0.552,0.445-1.192,0.668-1.92,0.668c-0.772,0-1.357-0.232-1.754-0.695s-0.596-1.123-0.596-1.98
					c0-1.085,0.156-2.066,0.469-2.943c0.312-0.878,0.745-1.545,1.296-2c0.552-0.456,1.192-0.684,1.92-0.684
					c0.496,0,0.92,0.115,1.271,0.345c0.352,0.229,0.619,0.551,0.803,0.962C141.627,446.306,141.72,446.793,141.72,447.356z
					 M139.122,446.33c-0.203,0-0.405,0.204-0.607,0.612c-0.203,0.408-0.366,0.927-0.491,1.556c-0.126,0.629-0.188,1.216-0.188,1.76
					c0,0.309,0.028,0.535,0.083,0.679c0.055,0.143,0.165,0.215,0.331,0.215c0.213,0,0.418-0.173,0.615-0.522
					c0.197-0.346,0.364-0.835,0.502-1.464s0.207-1.247,0.207-1.854c0-0.312-0.034-0.555-0.103-0.725
					C139.404,446.415,139.287,446.33,139.122,446.33z"/>
				<path d="M146.536,446.374c0,0.607-0.104,1.164-0.312,1.672c-0.207,0.508-0.498,0.904-0.872,1.189
					c-0.373,0.285-0.797,0.427-1.271,0.427c-0.585,0-1.023-0.153-1.313-0.46c-0.291-0.308-0.436-0.746-0.436-1.316
					c0-0.637,0.099-1.206,0.298-1.707c0.199-0.503,0.482-0.891,0.852-1.167c0.37-0.276,0.807-0.414,1.311-0.414
					c0.541,0,0.967,0.157,1.277,0.469C146.38,445.379,146.536,445.815,146.536,446.374z M150.883,444.713l-5.963,8.065h-1.638
					l6.008-8.065H150.883z M144.638,445.933c-0.184,0-0.346,0.202-0.489,0.607c-0.141,0.405-0.212,0.846-0.212,1.324
					c0,0.309,0.097,0.463,0.292,0.463c0.191,0,0.355-0.203,0.493-0.61c0.138-0.406,0.207-0.846,0.207-1.321
					c0-0.158-0.022-0.275-0.066-0.35C144.82,445.97,144.744,445.933,144.638,445.933z M151.926,449.607
					c0,0.604-0.104,1.158-0.309,1.666c-0.206,0.508-0.496,0.904-0.872,1.188c-0.375,0.286-0.8,0.428-1.274,0.428
					c-0.585,0-1.023-0.152-1.313-0.458c-0.291-0.306-0.436-0.743-0.436-1.313c0-0.637,0.099-1.206,0.298-1.707
					c0.199-0.503,0.482-0.891,0.852-1.167c0.37-0.276,0.807-0.414,1.311-0.414c0.541,0,0.966,0.157,1.277,0.469
					C151.77,448.611,151.926,449.047,151.926,449.607z M150.028,449.165c-0.184,0-0.346,0.202-0.489,0.607
					c-0.141,0.405-0.212,0.846-0.212,1.324c0,0.309,0.097,0.463,0.292,0.463c0.191,0,0.355-0.203,0.493-0.61
					c0.138-0.406,0.207-0.846,0.207-1.321c0-0.162-0.022-0.279-0.066-0.353C150.21,449.202,150.134,449.165,150.028,449.165z"/>
			</g>
			<g enable-background="new    ">
				<path d="M133.053,352.312h-2.146l0.96-4.408c0.103-0.485,0.243-0.957,0.419-1.412c-0.287,0.25-0.528,0.439-0.723,0.568
					l-1.12,0.69l-0.833-1.39l3.42-2.113h1.716L133.053,352.312z"/>
				<path d="M138.951,347.027c0.665,0,1.205,0.216,1.619,0.649c0.414,0.431,0.621,1.014,0.621,1.745c0,0.96-0.297,1.7-0.888,2.22
					c-0.592,0.521-1.45,0.781-2.571,0.781c-0.474,0-0.925-0.041-1.349-0.121s-0.736-0.193-0.935-0.337v-1.787
					c0.29,0.165,0.623,0.295,0.998,0.389c0.375,0.093,0.713,0.14,1.015,0.14c1.018,0,1.528-0.353,1.528-1.059
					c0-0.279-0.093-0.505-0.279-0.679c-0.185-0.173-0.437-0.259-0.752-0.259c-0.195,0-0.399,0.019-0.612,0.055
					c-0.214,0.036-0.383,0.077-0.508,0.121l-0.673-0.508l1.186-4.132h4.485l-0.375,1.782h-2.598l-0.325,1.021
					C138.665,347.035,138.803,347.027,138.951,347.027z"/>
				<path d="M146.536,345.907c0,0.607-0.104,1.164-0.312,1.672c-0.207,0.508-0.498,0.904-0.872,1.189
					c-0.373,0.285-0.797,0.427-1.271,0.427c-0.585,0-1.023-0.153-1.313-0.46c-0.291-0.308-0.436-0.746-0.436-1.316
					c0-0.637,0.099-1.206,0.298-1.707c0.199-0.503,0.482-0.891,0.852-1.167c0.37-0.276,0.807-0.414,1.311-0.414
					c0.541,0,0.967,0.157,1.277,0.469S146.536,345.348,146.536,345.907z M150.883,344.247l-5.963,8.065h-1.638l6.008-8.065H150.883z
					 M144.638,345.466c-0.184,0-0.346,0.202-0.489,0.607c-0.141,0.405-0.212,0.846-0.212,1.324c0,0.309,0.097,0.463,0.292,0.463
					c0.191,0,0.355-0.203,0.493-0.61c0.138-0.406,0.207-0.846,0.207-1.321c0-0.158-0.022-0.275-0.066-0.35
					C144.82,345.504,144.744,345.466,144.638,345.466z M151.926,349.14c0,0.603-0.104,1.158-0.309,1.666
					c-0.206,0.508-0.496,0.904-0.872,1.188c-0.375,0.286-0.8,0.428-1.274,0.428c-0.585,0-1.023-0.152-1.313-0.458
					c-0.291-0.306-0.436-0.743-0.436-1.313c0-0.637,0.099-1.206,0.298-1.707c0.199-0.503,0.482-0.891,0.852-1.167
					c0.37-0.276,0.807-0.414,1.311-0.414c0.541,0,0.966,0.157,1.277,0.469C151.77,348.145,151.926,348.581,151.926,349.14z
					 M150.028,348.699c-0.184,0-0.346,0.202-0.489,0.607c-0.141,0.405-0.212,0.846-0.212,1.324c0,0.309,0.097,0.463,0.292,0.463
					c0.191,0,0.355-0.203,0.493-0.61c0.138-0.406,0.207-0.846,0.207-1.321c0-0.162-0.022-0.279-0.066-0.353
					C150.21,348.735,150.134,348.699,150.028,348.699z"/>
			</g>
			<g enable-background="new    ">
				<path d="M134.013,253.463h-5.544l0.292-1.412l2.665-2.405c0.911-0.813,1.368-1.476,1.368-1.991c0-0.18-0.049-0.316-0.143-0.405
					c-0.096-0.09-0.217-0.136-0.364-0.136c-0.441,0-0.959,0.27-1.55,0.811l-1.026-1.423c0.861-0.813,1.855-1.219,2.984-1.219
					c0.673,0,1.215,0.183,1.627,0.548c0.412,0.366,0.618,0.862,0.618,1.487c0,0.559-0.16,1.083-0.48,1.572s-0.868,1.068-1.644,1.738
					l-1.131,0.971v0.066h2.703L134.013,253.463z"/>
				<path d="M141.72,248.04c0,1.096-0.157,2.07-0.469,2.92c-0.313,0.852-0.745,1.501-1.296,1.945
					c-0.552,0.445-1.192,0.668-1.92,0.668c-0.772,0-1.357-0.232-1.754-0.695s-0.596-1.123-0.596-1.98
					c0-1.085,0.156-2.067,0.469-2.943c0.312-0.878,0.745-1.545,1.296-2c0.552-0.456,1.192-0.684,1.92-0.684
					c0.496,0,0.92,0.115,1.271,0.345c0.352,0.229,0.619,0.551,0.803,0.962C141.627,246.99,141.72,247.478,141.72,248.04z
					 M139.122,247.014c-0.203,0-0.405,0.204-0.607,0.612c-0.203,0.408-0.366,0.927-0.491,1.556c-0.126,0.629-0.188,1.216-0.188,1.76
					c0,0.309,0.028,0.535,0.083,0.679c0.055,0.143,0.165,0.215,0.331,0.215c0.213,0,0.418-0.173,0.615-0.522
					c0.197-0.346,0.364-0.835,0.502-1.464s0.207-1.247,0.207-1.854c0-0.312-0.034-0.555-0.103-0.725
					C139.404,247.099,139.287,247.014,139.122,247.014z"/>
				<path d="M146.536,247.058c0,0.607-0.104,1.164-0.312,1.672c-0.207,0.508-0.498,0.904-0.872,1.189
					c-0.373,0.285-0.797,0.427-1.271,0.427c-0.585,0-1.023-0.153-1.313-0.46c-0.291-0.308-0.436-0.746-0.436-1.316
					c0-0.637,0.099-1.206,0.298-1.707c0.199-0.503,0.482-0.891,0.852-1.167c0.37-0.276,0.807-0.414,1.311-0.414
					c0.541,0,0.967,0.157,1.277,0.469C146.38,246.063,146.536,246.499,146.536,247.058z M150.883,245.398l-5.963,8.065h-1.638
					l6.008-8.065H150.883z M144.638,246.617c-0.184,0-0.346,0.202-0.489,0.607c-0.141,0.405-0.212,0.846-0.212,1.324
					c0,0.309,0.097,0.463,0.292,0.463c0.191,0,0.355-0.203,0.493-0.61c0.138-0.406,0.207-0.846,0.207-1.321
					c0-0.158-0.022-0.275-0.066-0.35C144.82,246.654,144.744,246.617,144.638,246.617z M151.926,250.291
					c0,0.604-0.104,1.158-0.309,1.666c-0.206,0.508-0.496,0.904-0.872,1.188c-0.375,0.286-0.8,0.428-1.274,0.428
					c-0.585,0-1.023-0.152-1.313-0.458c-0.291-0.306-0.436-0.743-0.436-1.313c0-0.637,0.099-1.206,0.298-1.707
					c0.199-0.503,0.482-0.891,0.852-1.167c0.37-0.276,0.807-0.414,1.311-0.414c0.541,0,0.966,0.157,1.277,0.469
					C151.77,249.296,151.926,249.732,151.926,250.291z M150.028,249.85c-0.184,0-0.346,0.202-0.489,0.607
					c-0.141,0.405-0.212,0.846-0.212,1.324c0,0.309,0.097,0.463,0.292,0.463c0.191,0,0.355-0.203,0.493-0.61
					c0.138-0.406,0.207-0.846,0.207-1.321c0-0.162-0.022-0.279-0.066-0.353C150.21,249.886,150.134,249.85,150.028,249.85z"/>
			</g>
			<g enable-background="new    ">
				<path d="M134.013,156.614h-5.544l0.292-1.412l2.665-2.405c0.911-0.813,1.368-1.476,1.368-1.991c0-0.18-0.049-0.316-0.143-0.405
					c-0.096-0.09-0.217-0.136-0.364-0.136c-0.441,0-0.959,0.27-1.55,0.811l-1.026-1.423c0.861-0.813,1.855-1.219,2.984-1.219
					c0.673,0,1.215,0.183,1.627,0.548c0.412,0.366,0.618,0.862,0.618,1.487c0,0.559-0.16,1.083-0.48,1.572
					c-0.32,0.489-0.868,1.068-1.644,1.738l-1.131,0.971v0.066h2.703L134.013,156.614z"/>
				<path d="M138.951,151.329c0.665,0,1.205,0.216,1.619,0.649c0.414,0.431,0.621,1.014,0.621,1.745c0,0.96-0.297,1.7-0.888,2.22
					c-0.592,0.521-1.45,0.781-2.571,0.781c-0.474,0-0.925-0.041-1.349-0.121c-0.425-0.081-0.736-0.193-0.935-0.337v-1.787
					c0.29,0.165,0.623,0.295,0.998,0.389c0.375,0.093,0.713,0.14,1.015,0.14c1.018,0,1.528-0.353,1.528-1.059
					c0-0.279-0.093-0.505-0.279-0.679c-0.185-0.173-0.437-0.259-0.752-0.259c-0.195,0-0.399,0.019-0.612,0.055
					c-0.214,0.036-0.383,0.077-0.508,0.121l-0.673-0.508l1.186-4.132h4.485l-0.375,1.782h-2.598l-0.325,1.021
					C138.665,151.337,138.803,151.329,138.951,151.329z"/>
				<path d="M146.536,150.209c0,0.607-0.104,1.164-0.312,1.672c-0.207,0.508-0.498,0.904-0.872,1.189
					c-0.373,0.285-0.797,0.427-1.271,0.427c-0.585,0-1.023-0.153-1.313-0.46c-0.291-0.308-0.436-0.746-0.436-1.316
					c0-0.637,0.099-1.206,0.298-1.707c0.199-0.503,0.482-0.891,0.852-1.167s0.807-0.414,1.311-0.414
					c0.541,0,0.967,0.157,1.277,0.469C146.38,149.214,146.536,149.65,146.536,150.209z M150.883,148.549l-5.963,8.065h-1.638
					l6.008-8.065H150.883z M144.638,149.768c-0.184,0-0.346,0.202-0.489,0.607c-0.141,0.405-0.212,0.846-0.212,1.324
					c0,0.309,0.097,0.463,0.292,0.463c0.191,0,0.355-0.203,0.493-0.61c0.138-0.406,0.207-0.846,0.207-1.321
					c0-0.158-0.022-0.275-0.066-0.35C144.82,149.805,144.744,149.768,144.638,149.768z M151.926,153.442
					c0,0.604-0.104,1.158-0.309,1.666c-0.206,0.508-0.496,0.904-0.872,1.188c-0.375,0.286-0.8,0.428-1.274,0.428
					c-0.585,0-1.023-0.152-1.313-0.458c-0.291-0.306-0.436-0.743-0.436-1.313c0-0.637,0.099-1.206,0.298-1.707
					c0.199-0.503,0.482-0.891,0.852-1.167c0.37-0.276,0.807-0.414,1.311-0.414c0.541,0,0.966,0.157,1.277,0.469
					C151.77,152.447,151.926,152.882,151.926,153.442z M150.028,153.001c-0.184,0-0.346,0.202-0.489,0.607
					c-0.141,0.405-0.212,0.846-0.212,1.324c0,0.309,0.097,0.463,0.292,0.463c0.191,0,0.355-0.203,0.493-0.61
					c0.138-0.406,0.207-0.846,0.207-1.321c0-0.162-0.022-0.279-0.066-0.353C150.21,153.037,150.134,153.001,150.028,153.001z"/>
			</g>
		</g>
		<line fill="none" stroke="#000000" stroke-miterlimit="10" x1="157.229" y1="447.032" x2="157.229" y2="150.032"/>
		<g>
			<g>
				<line fill="none" stroke="#000000" stroke-miterlimit="10" x1="157.229" y1="447.032" x2="165.254" y2="447.032"/>
				<line fill="none" stroke="#000000" stroke-miterlimit="10" x1="157.229" y1="348.032" x2="165.254" y2="348.032"/>
				<line fill="none" stroke="#000000" stroke-miterlimit="10" x1="157.229" y1="249.032" x2="165.254" y2="249.032"/>
				<line fill="none" stroke="#000000" stroke-miterlimit="10" x1="157.229" y1="150.032" x2="165.254" y2="150.032"/>
			</g>
		</g>
	</g>
	<g>
		<g>
			<g>
				<path fill="none" stroke="#B21900" stroke-width="2" stroke-linecap="round" stroke-miterlimit="10" d="M397.979,401.492"/>
			</g>
		</g>
	</g>
	<g>
		<g enable-background="new    ">
			<path fill="#C73A22" d="M382.253,465.368h-8.749l0.462-2.229l4.204-3.796c1.44-1.283,2.159-2.331,2.159-3.143
				c0-0.285-0.075-0.498-0.226-0.64c-0.152-0.142-0.343-0.213-0.575-0.213c-0.697,0-1.511,0.426-2.446,1.279l-1.619-2.246
				c1.357-1.282,2.928-1.923,4.71-1.923c1.062,0,1.919,0.288,2.568,0.866c0.65,0.577,0.975,1.36,0.975,2.347
				c0,0.882-0.252,1.709-0.758,2.481c-0.505,0.772-1.369,1.686-2.594,2.742l-1.784,1.532v0.104h4.266L382.253,465.368z"/>
			<path fill="#C73A22" d="M394.414,456.809c0,1.73-0.246,3.267-0.739,4.61s-1.176,2.366-2.046,3.069s-1.88,1.053-3.029,1.053
				c-1.22,0-2.142-0.366-2.769-1.096c-0.626-0.731-0.94-1.774-0.94-3.125c0-1.713,0.246-3.261,0.739-4.645s1.176-2.436,2.046-3.156
				c0.871-0.72,1.88-1.08,3.029-1.08c0.785,0,1.453,0.181,2.008,0.544c0.553,0.362,0.975,0.869,1.266,1.519
				S394.414,455.922,394.414,456.809z M390.315,455.191c-0.319,0-0.639,0.322-0.958,0.966c-0.319,0.645-0.577,1.463-0.774,2.455
				c-0.198,0.992-0.296,1.919-0.296,2.777c0,0.487,0.043,0.845,0.131,1.07c0.087,0.227,0.26,0.34,0.522,0.34
				c0.337,0,0.661-0.274,0.971-0.823s0.575-1.319,0.793-2.312s0.326-1.967,0.326-2.925c0-0.493-0.054-0.875-0.161-1.144
				C390.76,455.326,390.576,455.191,390.315,455.191z"/>
			<path fill="#C73A22" d="M401.422,465.368h-3.386l1.515-6.956c0.162-0.766,0.383-1.509,0.662-2.229
				c-0.454,0.395-0.833,0.693-1.141,0.897l-1.767,1.088l-1.315-2.194l5.397-3.334h2.708L401.422,465.368z"/>
			<path fill="#C73A22" d="M413.481,452.457c0.591,0,1.267,0.09,2.027,0.27l-0.547,2.638c-0.552-0.146-1.083-0.219-1.593-0.219
				c-0.842,0-1.53,0.099-2.063,0.296c-0.535,0.198-0.974,0.513-1.319,0.945c-0.346,0.432-0.655,1.083-0.927,1.954h0.069
				c0.614-0.987,1.505-1.48,2.672-1.48c0.929,0,1.637,0.299,2.125,0.897c0.488,0.597,0.731,1.465,0.731,2.602
				c0,1.016-0.199,1.92-0.596,2.712c-0.398,0.792-0.97,1.401-1.715,1.827c-0.746,0.427-1.61,0.64-2.591,0.64
				c-1.305,0-2.306-0.359-3.003-1.078c-0.697-0.72-1.045-1.786-1.045-3.196c0-0.609,0.075-1.346,0.227-2.211
				c0.493-2.275,1.36-3.944,2.598-5.005C409.77,452.989,411.42,452.457,413.481,452.457z M409.911,462.869
				c0.383,0,0.699-0.222,0.949-0.667c0.25-0.443,0.374-0.971,0.374-1.58c0-0.749-0.266-1.124-0.801-1.124
				c-0.395,0-0.722,0.212-0.984,0.635c-0.262,0.425-0.391,0.949-0.391,1.576c0,0.383,0.076,0.672,0.23,0.867
				C409.442,462.772,409.65,462.869,409.911,462.869z"/>
		</g>
		<g enable-background="new    ">
			<path fill="#C73A22" d="M234.556,465.368h-3.386l1.515-6.956c0.163-0.766,0.383-1.509,0.662-2.229
				c-0.453,0.395-0.833,0.693-1.14,0.897l-1.768,1.088l-1.315-2.194l5.398-3.334h2.708L234.556,465.368z"/>
			<path fill="#C73A22" d="M248.059,457.08c0,1.7-0.299,3.208-0.897,4.522c-0.598,1.315-1.426,2.3-2.485,2.955
				c-1.059,0.656-2.311,0.984-3.757,0.984c-0.668,0-1.28-0.087-1.837-0.26v-2.734c0.534,0.215,1.123,0.323,1.767,0.323
				c1.085,0,1.931-0.252,2.538-0.758c0.606-0.505,1.026-1.32,1.258-2.446h-0.069c-0.343,0.552-0.726,0.942-1.15,1.171
				s-0.914,0.344-1.471,0.344c-0.876,0-1.57-0.319-2.081-0.957c-0.511-0.639-0.766-1.497-0.766-2.577c0-1.022,0.19-1.923,0.57-2.703
				c0.38-0.781,0.932-1.39,1.654-1.828c0.722-0.439,1.585-0.657,2.59-0.657c1.335,0,2.358,0.399,3.069,1.197
				C247.704,454.452,248.059,455.594,248.059,457.08z M244.011,455.129c-0.424,0-0.776,0.207-1.058,0.619
				c-0.281,0.412-0.422,0.914-0.422,1.505c0,0.835,0.267,1.254,0.801,1.254c0.429,0,0.792-0.205,1.088-0.614
				c0.296-0.408,0.444-0.906,0.444-1.493c0-0.383-0.08-0.691-0.24-0.923C244.465,455.246,244.261,455.129,244.011,455.129z"/>
			<path fill="#C73A22" d="M254.814,452.44c1.161,0,2.078,0.268,2.751,0.805s1.01,1.237,1.01,2.103c0,0.743-0.225,1.406-0.675,1.989
				c-0.45,0.583-1.037,0.991-1.763,1.223c0.534,0.412,0.94,0.87,1.219,1.375c0.278,0.506,0.418,1.097,0.418,1.776
				c0,1.195-0.409,2.133-1.228,2.812c-0.818,0.679-1.941,1.018-3.369,1.018c-1.306,0-2.34-0.287-3.104-0.861
				c-0.763-0.575-1.145-1.326-1.145-2.255c0-1.747,0.963-2.96,2.891-3.639c-0.905-0.702-1.358-1.598-1.358-2.689
				c0-0.702,0.175-1.331,0.527-1.885s0.856-0.988,1.515-1.302C253.161,452.596,253.932,452.44,254.814,452.44z M253.587,460.075
				c-0.986,0.522-1.48,1.169-1.48,1.941c0,0.314,0.106,0.57,0.318,0.771c0.212,0.2,0.492,0.301,0.84,0.301
				c0.406,0,0.732-0.121,0.979-0.366c0.247-0.244,0.37-0.564,0.37-0.958C254.614,461.097,254.272,460.533,253.587,460.075z
				 M254.658,454.904c-0.278,0-0.521,0.115-0.727,0.344s-0.309,0.513-0.309,0.849c0,0.22,0.068,0.443,0.204,0.67
				c0.137,0.226,0.318,0.395,0.544,0.505c0.336-0.127,0.605-0.333,0.805-0.618c0.201-0.285,0.301-0.583,0.301-0.897
				c0-0.285-0.083-0.498-0.248-0.64S254.872,454.904,254.658,454.904z"/>
			<path fill="#C73A22" d="M264.548,457.028c1.05,0,1.902,0.34,2.555,1.023c0.653,0.682,0.98,1.6,0.98,2.755
				c0,1.515-0.467,2.682-1.402,3.504c-0.934,0.822-2.287,1.231-4.057,1.231c-0.749,0-1.458-0.064-2.129-0.191
				c-0.67-0.127-1.162-0.304-1.475-0.531v-2.821c0.458,0.262,0.984,0.466,1.575,0.614c0.592,0.148,1.126,0.222,1.602,0.222
				c1.608,0,2.411-0.558,2.411-1.672c0-0.441-0.146-0.797-0.44-1.07c-0.293-0.273-0.689-0.41-1.188-0.41
				c-0.308,0-0.629,0.029-0.966,0.087c-0.337,0.059-0.603,0.123-0.801,0.192l-1.062-0.801l1.872-6.521h7.078l-0.592,2.812h-4.1
				l-0.514,1.611C264.098,457.04,264.315,457.028,264.548,457.028z"/>
		</g>
	</g>
</g>
<path fill="#B21900" d="M388.229,401.032"/>
<polygon points="386.785,406.283 408.563,411.51 403.336,391.474 "/>
<g>
	<path fill="#C73A22" d="M249.141,212.101h-12.058l0.636-3.072l5.795-5.231c1.984-1.768,2.976-3.212,2.976-4.331
		c0-0.392-0.104-0.685-0.313-0.882s-0.472-0.295-0.792-0.295c-0.96,0-2.083,0.588-3.372,1.764l-2.232-3.096
		c1.872-1.768,4.035-2.651,6.491-2.651c1.463,0,2.644,0.399,3.54,1.194s1.343,1.873,1.343,3.233c0,1.216-0.348,2.356-1.044,3.42
		c-0.696,1.063-1.888,2.323-3.575,3.78l-2.46,2.112v0.143h5.88L249.141,212.101z"/>
	<path fill="#C73A22" d="M265.902,200.307c0,2.383-0.34,4.502-1.02,6.353s-1.62,3.261-2.819,4.229s-2.591,1.451-4.176,1.451
		c-1.679,0-2.951-0.504-3.816-1.511c-0.864-1.007-1.296-2.444-1.296-4.307c0-2.36,0.34-4.493,1.02-6.4s1.62-3.358,2.819-4.351
		c1.199-0.992,2.591-1.488,4.176-1.488c1.08,0,2.001,0.251,2.766,0.751c0.763,0.5,1.345,1.197,1.745,2.093
		S265.902,199.083,265.902,200.307z M260.251,198.075c-0.44,0-0.88,0.444-1.32,1.332s-0.796,2.016-1.068,3.384
		s-0.408,2.644-0.408,3.828c0,0.672,0.06,1.164,0.18,1.476c0.12,0.311,0.36,0.468,0.719,0.468c0.464,0,0.909-0.377,1.338-1.133
		c0.427-0.756,0.792-1.818,1.091-3.186c0.302-1.368,0.45-2.711,0.45-4.031c0-0.68-0.075-1.205-0.221-1.577
		C260.865,198.262,260.611,198.075,260.251,198.075z"/>
	<path fill="#C73A22" d="M266.273,210.578c0-0.872,0.259-1.556,0.779-2.052s1.235-0.744,2.147-0.744c0.672,0,1.2,0.16,1.584,0.481
		s0.576,0.779,0.576,1.38c0,0.943-0.24,1.64-0.719,2.087c-0.479,0.448-1.24,0.672-2.28,0.672c-0.624,0-1.128-0.147-1.511-0.444
		S266.273,211.202,266.273,210.578z"/>
	<path fill="#C73A22" d="M281.656,200.607c1.448,0,2.622,0.471,3.521,1.41c0.901,0.939,1.35,2.205,1.35,3.796
		c0,2.087-0.644,3.698-1.932,4.83c-1.287,1.132-3.152,1.697-5.591,1.697c-1.032,0-2.011-0.087-2.932-0.263
		c-0.926-0.176-1.603-0.42-2.034-0.732v-3.888c0.632,0.36,1.356,0.643,2.172,0.846c0.816,0.203,1.552,0.306,2.207,0.306
		c2.216,0,3.324-0.769,3.324-2.304c0-0.607-0.202-1.1-0.605-1.476c-0.405-0.375-0.95-0.564-1.638-0.564
		c-0.425,0-0.868,0.04-1.332,0.12c-0.464,0.081-0.831,0.168-1.104,0.263l-1.463-1.104l2.58-8.987h9.755l-0.816,3.876h-5.652
		l-0.708,2.22C281.036,200.623,281.336,200.607,281.656,200.607z"/>
	<path fill="#C73A22" d="M298.153,198.172c0,1.32-0.227,2.531-0.677,3.635c-0.453,1.104-1.085,1.966-1.896,2.587
		c-0.814,0.62-1.735,0.93-2.766,0.93c-1.272,0-2.224-0.333-2.856-1.001c-0.632-0.668-0.947-1.622-0.947-2.863
		c0-1.384,0.216-2.621,0.648-3.713c0.433-1.092,1.051-1.938,1.852-2.538c0.805-0.599,1.754-0.9,2.85-0.9
		c1.175,0,2.101,0.34,2.778,1.02C297.814,196.008,298.153,196.955,298.153,198.172z M307.608,194.559l-12.97,17.542h-3.563
		l13.066-17.542L307.608,194.559L307.608,194.559z M294.026,197.212c-0.4,0-0.755,0.44-1.061,1.32
		c-0.31,0.881-0.463,1.84-0.463,2.879c0,0.672,0.212,1.007,0.636,1.007c0.416,0,0.773-0.441,1.074-1.326
		c0.299-0.883,0.449-1.843,0.449-2.874c0-0.344-0.048-0.598-0.143-0.762C294.423,197.294,294.257,197.212,294.026,197.212z
		 M309.875,205.202c0,1.312-0.224,2.52-0.672,3.623s-1.08,1.966-1.896,2.587s-1.739,0.93-2.771,0.93
		c-1.272,0-2.224-0.332-2.856-0.995s-0.947-1.616-0.947-2.856c0-1.384,0.216-2.621,0.648-3.713c0.433-1.092,1.05-1.938,1.854-2.538
		c0.803-0.599,1.753-0.9,2.849-0.9c1.175,0,2.101,0.34,2.777,1.02C309.537,203.04,309.875,203.987,309.875,205.202z
		 M305.747,204.242c-0.4,0-0.755,0.44-1.062,1.32s-0.461,1.84-0.461,2.879c0,0.672,0.212,1.007,0.636,1.007
		c0.416,0,0.774-0.441,1.073-1.326c0.302-0.883,0.45-1.843,0.45-2.874c0-0.352-0.048-0.607-0.143-0.769
		C306.144,204.32,305.979,204.242,305.747,204.242z"/>
</g>
<g>
	<path fill="#C73A22" d="M409.866,365.828h-4.667l2.087-9.586c0.224-1.055,0.528-2.079,0.912-3.072
		c-0.624,0.543-1.148,0.956-1.571,1.235l-2.435,1.5l-1.811-3.024l7.439-4.595h3.731L409.866,365.828z"/>
	<path fill="#C73A22" d="M426.208,365.828H414.15l0.636-3.072l5.795-5.231c1.984-1.768,2.976-3.212,2.976-4.332
		c0-0.392-0.104-0.687-0.313-0.882c-0.209-0.195-0.472-0.294-0.792-0.294c-0.96,0-2.083,0.588-3.372,1.764l-2.232-3.096
		c1.872-1.768,4.035-2.651,6.491-2.651c1.463,0,2.644,0.397,3.54,1.193s1.343,1.874,1.343,3.234c0,1.216-0.348,2.356-1.044,3.42
		c-0.696,1.063-1.888,2.323-3.575,3.78l-2.46,2.112v0.143h5.88L426.208,365.828z"/>
	<path fill="#C73A22" d="M429.087,364.304c0-0.872,0.259-1.556,0.78-2.052c0.52-0.496,1.235-0.744,2.147-0.744
		c0.672,0,1.2,0.16,1.584,0.48c0.384,0.321,0.576,0.78,0.576,1.38c0,0.943-0.24,1.639-0.719,2.087s-1.24,0.672-2.28,0.672
		c-0.624,0-1.128-0.147-1.511-0.444C429.28,365.388,429.087,364.928,429.087,364.304z"/>
	<path fill="#C73A22" d="M450.119,352.186c0,1.184-0.359,2.164-1.074,2.939s-1.725,1.296-3.029,1.56v0.096
		c1.032,0.199,1.84,0.646,2.423,1.336c0.583,0.691,0.876,1.543,0.876,2.55c0,1.728-0.711,3.059-2.135,3.996
		c-1.424,0.936-3.351,1.403-5.783,1.403c-0.928,0-1.798-0.083-2.609-0.247c-0.814-0.164-1.483-0.397-2.011-0.702v-3.983
		c1.336,0.8,2.844,1.2,4.523,1.2c1.104,0,1.929-0.187,2.478-0.558c0.546-0.371,0.822-0.905,0.822-1.601
		c0-0.431-0.108-0.756-0.324-0.972s-0.56-0.374-1.032-0.475c-0.472-0.101-1.136-0.149-1.992-0.149h-1.007l0.636-3.492h0.936
		c1.175,0,2.091-0.187,2.748-0.558c0.657-0.371,0.984-0.882,0.984-1.529c0-0.369-0.143-0.663-0.431-0.887s-0.684-0.336-1.188-0.336
		c-0.936,0-2.016,0.336-3.239,1.007l-1.896-2.976c1.007-0.648,1.981-1.107,2.923-1.375c0.939-0.268,1.973-0.401,3.1-0.401
		c1.608,0,2.893,0.371,3.858,1.115C449.638,349.894,450.119,350.906,450.119,352.186z"/>
	<path fill="#C73A22" d="M460.967,351.898c0,1.32-0.227,2.531-0.677,3.635c-0.453,1.104-1.085,1.964-1.896,2.586
		c-0.814,0.62-1.735,0.931-2.766,0.931c-1.272,0-2.224-0.334-2.856-1.002s-0.947-1.622-0.947-2.861c0-1.384,0.216-2.622,0.648-3.714
		c0.433-1.092,1.051-1.937,1.852-2.536c0.805-0.599,1.754-0.9,2.85-0.9c1.175,0,2.101,0.34,2.778,1.02
		C460.628,349.735,460.967,350.682,460.967,351.898z M470.421,348.286l-12.97,17.542h-3.563l13.065-17.542H470.421z
		 M456.839,350.939c-0.4,0-0.755,0.44-1.061,1.32c-0.31,0.88-0.463,1.84-0.463,2.879c0,0.672,0.212,1.007,0.636,1.007
		c0.416,0,0.773-0.442,1.074-1.327c0.299-0.883,0.449-1.842,0.449-2.872c0-0.344-0.048-0.598-0.143-0.763
		C457.236,351.018,457.071,350.939,456.839,350.939z M472.689,358.929c0,1.312-0.224,2.52-0.672,3.623s-1.08,1.964-1.896,2.586
		s-1.739,0.931-2.771,0.931c-1.272,0-2.224-0.332-2.856-0.995s-0.947-1.616-0.947-2.856c0-1.384,0.216-2.622,0.648-3.714
		c0.433-1.092,1.05-1.937,1.854-2.536c0.803-0.599,1.753-0.9,2.849-0.9c1.175,0,2.101,0.34,2.777,1.02
		C472.351,356.768,472.689,357.714,472.689,358.929z M468.561,357.969c-0.4,0-0.755,0.44-1.062,1.32s-0.461,1.84-0.461,2.879
		c0,0.672,0.212,1.007,0.636,1.007c0.416,0,0.774-0.442,1.073-1.327c0.302-0.883,0.45-1.842,0.45-2.872
		c0-0.352-0.048-0.607-0.143-0.769C468.958,358.047,468.793,357.969,468.561,357.969z"/>
</g>
<line fill="none" stroke="#000000" stroke-width="7" stroke-miterlimit="10" x1="237.582" y1="240.95" x2="397.979" y2="401.492"/>
<rect x="157.229" y="82.472" fill="#C73A22" width="352" height="45.808"/>
<circle cx="238.582" cy="242.402" r="11.667"/>
<g>
	<path fill="#FFFFFF" d="M179.723,91.971v6.445c0,1.401-0.397,2.486-1.19,3.256c-0.794,0.769-1.938,1.153-3.432,1.153
		c-1.46,0-2.582-0.374-3.365-1.121c-0.784-0.747-1.176-1.821-1.176-3.223V91.97h2.908v6.284c0,0.757,0.142,1.306,0.425,1.648
		s0.701,0.513,1.252,0.513c0.591,0,1.019-0.169,1.285-0.509c0.266-0.339,0.399-0.895,0.399-1.666v-6.27h2.894V91.971z"/>
	<path fill="#FFFFFF" d="M195.167,102.679h-3.794l-3.911-7.544h-0.066c0.093,1.187,0.139,2.092,0.139,2.717v4.827h-2.563V91.971
		h3.779l3.896,7.441h0.044c-0.068-1.079-0.103-1.946-0.103-2.6v-4.841h2.578L195.167,102.679L195.167,102.679z"/>
	<path fill="#FFFFFF" d="M200.481,102.679V91.971h2.908v10.708H200.481z"/>
	<path fill="#FFFFFF" d="M218.723,97.311c0,1.802-0.442,3.171-1.326,4.109s-2.178,1.406-3.882,1.406
		c-1.68,0-2.968-0.471-3.864-1.414s-1.344-2.314-1.344-4.116c0-1.782,0.445-3.143,1.337-4.083c0.891-0.939,2.186-1.41,3.885-1.41
		c1.704,0,2.996,0.466,3.875,1.399S218.723,95.504,218.723,97.311z M211.355,97.311c0,2.07,0.72,3.105,2.161,3.105
		c0.732,0,1.275-0.251,1.629-0.754s0.531-1.287,0.531-2.351c0-1.069-0.18-1.859-0.538-2.37c-0.359-0.51-0.895-0.765-1.608-0.765
		C212.08,94.176,211.355,95.221,211.355,97.311z"/>
	<path fill="#FFFFFF" d="M233.852,102.679h-3.794l-3.911-7.544h-0.066c0.093,1.187,0.139,2.092,0.139,2.717v4.827h-2.563V91.971
		h3.779l3.896,7.441h0.044c-0.068-1.079-0.103-1.946-0.103-2.6v-4.841h2.578L233.852,102.679L233.852,102.679z"/>
	<path fill="#FFFFFF" d="M255.152,97.098c0,1.787-0.492,3.164-1.476,4.131s-2.367,1.45-4.149,1.45h-3.464V91.971h3.706
		c1.719,0,3.045,0.439,3.98,1.318S255.152,95.438,255.152,97.098z M252.149,97.201c0-0.981-0.194-1.709-0.583-2.183
		c-0.388-0.474-0.978-0.71-1.769-0.71h-0.842v5.999h0.645c0.879,0,1.523-0.255,1.934-0.766
		C251.944,99.031,252.149,98.251,252.149,97.201z"/>
	<path fill="#FFFFFF" d="M266.428,102.679h-6.357V91.971h6.357v2.322h-3.464v1.685h3.208V98.3h-3.208v2.021h3.464V102.679z"/>
	<path fill="#FFFFFF" d="M281.499,102.679h-3.794l-3.911-7.544h-0.066c0.093,1.187,0.139,2.092,0.139,2.717v4.827h-2.563V91.971
		h3.779l3.896,7.441h0.044c-0.068-1.079-0.103-1.946-0.103-2.6v-4.841h2.578v10.708
		C281.498,102.679,281.499,102.679,281.499,102.679z"/>
	<path fill="#FFFFFF" d="M293.815,99.427c0,0.664-0.168,1.254-0.505,1.769c-0.337,0.516-0.823,0.916-1.458,1.201
		c-0.635,0.286-1.379,0.429-2.234,0.429c-0.713,0-1.311-0.05-1.794-0.15s-0.986-0.274-1.509-0.523v-2.578
		c0.552,0.283,1.125,0.504,1.721,0.663s1.143,0.238,1.641,0.238c0.43,0,0.745-0.074,0.945-0.223s0.3-0.341,0.3-0.575
		c0-0.146-0.041-0.274-0.121-0.385c-0.081-0.109-0.21-0.221-0.389-0.333s-0.653-0.342-1.424-0.688
		c-0.698-0.317-1.222-0.625-1.571-0.923c-0.35-0.298-0.608-0.64-0.776-1.025c-0.169-0.386-0.253-0.842-0.253-1.37
		c0-0.986,0.359-1.755,1.077-2.307s1.704-0.828,2.959-0.828c1.108,0,2.239,0.256,3.391,0.769l-0.886,2.234
		c-1.001-0.459-1.865-0.688-2.593-0.688c-0.376,0-0.649,0.066-0.82,0.198s-0.256,0.295-0.256,0.491c0,0.21,0.108,0.398,0.326,0.564
		c0.217,0.166,0.807,0.469,1.769,0.908c0.923,0.415,1.563,0.86,1.923,1.337C293.636,98.105,293.815,98.705,293.815,99.427z"/>
	<path fill="#FFFFFF" d="M298.47,102.679V91.971h2.908v10.708H298.47z"/>
	<path fill="#FFFFFF" d="M311.417,102.679h-2.893v-8.342h-2.615v-2.366h8.115v2.366h-2.607V102.679z"/>
	<path fill="#FFFFFF" d="M322.378,95.941l1.846-3.97h3.135l-3.523,6.526v4.182h-2.914v-4.094l-3.523-6.614h3.149L322.378,95.941z"/>
	<path fill="#FFFFFF" d="M338.412,91.971h3.735c1.455,0,2.535,0.216,3.241,0.648c0.705,0.432,1.058,1.104,1.058,2.018
		c0,0.601-0.153,1.113-0.461,1.538s-0.713,0.698-1.216,0.82v0.073c0.664,0.176,1.145,0.469,1.442,0.879s0.447,0.942,0.447,1.597
		c0,0.972-0.365,1.737-1.095,2.296c-0.73,0.56-1.726,0.839-2.985,0.839h-4.167V91.971C338.411,91.971,338.412,91.971,338.412,91.971
		z M341.305,96.08h0.871c0.415,0,0.736-0.085,0.963-0.256c0.228-0.171,0.341-0.425,0.341-0.762c0-0.601-0.454-0.901-1.362-0.901
		h-0.813L341.305,96.08L341.305,96.08z M341.305,98.197v2.249h1.018c0.903,0,1.355-0.381,1.355-1.143c0-0.356-0.121-0.63-0.363-0.82
		c-0.241-0.19-0.592-0.286-1.051-0.286H341.305z"/>
	<path fill="#FFFFFF" d="M355.343,95.941l1.846-3.97h3.135l-3.523,6.526v4.182h-2.914v-4.094l-3.523-6.614h3.149L355.343,95.941z"/>
	<path fill="#FFFFFF" d="M379.147,95.377c0,1.196-0.353,2.121-1.058,2.772c-0.706,0.652-1.708,0.978-3.007,0.978h-0.813v3.552
		h-2.894V91.971h3.706c1.353,0,2.368,0.295,3.047,0.886S379.147,94.288,379.147,95.377z M374.27,96.769h0.527
		c0.434,0,0.779-0.122,1.036-0.366c0.256-0.244,0.384-0.581,0.384-1.011c0-0.723-0.4-1.084-1.201-1.084h-0.746L374.27,96.769
		L374.27,96.769z"/>
	<path fill="#FFFFFF" d="M390.212,102.679h-6.357V91.971h6.357v2.322h-3.464v1.685h3.207V98.3h-3.207v2.021h3.464V102.679z"/>
	<path fill="#FFFFFF" d="M397.98,98.783v3.896h-2.894V91.971h3.509c2.909,0,4.365,1.055,4.365,3.164c0,1.24-0.606,2.2-1.816,2.878
		l3.119,4.666h-3.281l-2.27-3.896C398.712,98.783,397.98,98.783,397.98,98.783z M397.98,96.608h0.541
		c1.012,0,1.517-0.447,1.517-1.34c0-0.737-0.496-1.106-1.487-1.106h-0.57L397.98,96.608L397.98,96.608z"/>
	<path fill="#FFFFFF" d="M413.007,94.191c-0.689,0-1.227,0.282-1.611,0.846c-0.387,0.563-0.579,1.341-0.579,2.333
		c0,2.061,0.784,3.091,2.351,3.091c0.474,0,0.933-0.066,1.377-0.198s0.892-0.291,1.341-0.476v2.446
		c-0.894,0.396-1.904,0.593-3.032,0.593c-1.616,0-2.855-0.469-3.717-1.406c-0.862-0.938-1.293-2.292-1.293-4.065
		c0-1.108,0.209-2.083,0.626-2.922c0.418-0.84,1.019-1.485,1.802-1.938c0.784-0.451,1.705-0.677,2.766-0.677
		c1.156,0,2.263,0.251,3.317,0.754l-0.886,2.278c-0.396-0.186-0.791-0.342-1.188-0.469C413.886,94.254,413.46,94.191,413.007,94.191
		z"/>
	<path fill="#FFFFFF" d="M427.33,102.679h-6.357V91.971h6.357v2.322h-3.464v1.685h3.207V98.3h-3.207v2.021h3.464V102.679z"/>
	<path fill="#FFFFFF" d="M442.4,102.679h-3.794l-3.911-7.544h-0.065c0.092,1.187,0.139,2.092,0.139,2.717v4.827h-2.563V91.971h3.779
		l3.896,7.441h0.044c-0.068-1.079-0.103-1.946-0.103-2.6v-4.841h2.578V102.679z"/>
	<path fill="#FFFFFF" d="M452.438,102.679h-2.893v-8.342h-2.615v-2.366h8.115v2.366h-2.607V102.679z"/>
	<path fill="#FFFFFF" d="M466.146,102.679l-0.527-2.007h-3.479l-0.542,2.007h-3.179l3.494-10.752h3.859l3.537,10.752H466.146z
		 M465.019,98.3l-0.462-1.758c-0.107-0.391-0.238-0.896-0.392-1.516c-0.154-0.62-0.256-1.064-0.305-1.333
		c-0.043,0.249-0.13,0.659-0.26,1.23c-0.129,0.571-0.416,1.697-0.86,3.376L465.019,98.3L465.019,98.3z"/>
	<path fill="#FFFFFF" d="M477.768,96.41h4.621v5.771c-1.255,0.43-2.635,0.645-4.139,0.645c-1.65,0-2.926-0.479-3.826-1.436
		c-0.901-0.957-1.352-2.322-1.352-4.094c0-1.729,0.493-3.074,1.479-4.036s2.368-1.443,4.146-1.443c0.674,0,1.31,0.063,1.908,0.19
		s1.119,0.288,1.563,0.483l-0.915,2.271c-0.772-0.381-1.619-0.571-2.542-0.571c-0.845,0-1.498,0.275-1.959,0.824
		c-0.462,0.55-0.692,1.334-0.692,2.355c0,1.001,0.209,1.764,0.626,2.289c0.418,0.525,1.02,0.788,1.806,0.788
		c0.43,0,0.825-0.042,1.187-0.125v-1.677h-1.911V96.41z"/>
	<path fill="#FFFFFF" d="M493.929,102.679h-6.357V91.971h6.357v2.322h-3.464v1.685h3.207V98.3h-3.207v2.021h3.464V102.679z"/>
</g>
<g>
	<path fill="#FFFFFF" d="M234.568,121.253v-9.994h0.697v9.994H234.568z"/>
	<path fill="#FFFFFF" d="M248.162,121.253h-0.704l-5.92-8.873h-0.055c0.055,1.057,0.082,1.855,0.082,2.393v6.48h-0.67v-9.994h0.697
		l5.913,8.859h0.041c-0.041-0.82-0.062-1.6-0.062-2.338v-6.521h0.677V121.253z"/>
	<path fill="#FFFFFF" d="M262.833,121.253h-0.704v-9.338h-3.247v-0.656h7.198v0.656h-3.247V121.253z"/>
	<path fill="#FFFFFF" d="M277.603,121.253h-0.704v-4.915h-5.838v4.915h-0.697v-9.994h0.697v4.437h5.838v-4.437h0.704V121.253z"/>
	<path fill="#FFFFFF" d="M288.694,121.253h-5.461v-9.994h5.461v0.643h-4.764v3.78h4.498v0.643h-4.498v4.286h4.764V121.253z"/>
	<path fill="#FFFFFF" d="M306.21,114.13c0,0.966-0.328,1.707-0.984,2.222s-1.586,0.772-2.789,0.772h-1.545v4.129h-0.697v-9.994
		h2.447C305.021,111.259,306.21,112.216,306.21,114.13z M300.892,116.523h1.374c1.126,0,1.939-0.186,2.44-0.557
		s0.752-0.974,0.752-1.808c0-0.77-0.237-1.341-0.711-1.712s-1.208-0.557-2.201-0.557h-1.654V116.523z"/>
	<path fill="#FFFFFF" d="M318.532,111.259v6.467c0,1.148-0.333,2.046-0.998,2.693s-1.593,0.971-2.782,0.971
		c-1.157,0-2.062-0.325-2.71-0.974c-0.65-0.649-0.975-1.555-0.975-2.717v-6.439h0.704v6.467c0,0.961,0.267,1.71,0.8,2.246
		s1.287,0.803,2.263,0.803c0.952,0,1.69-0.263,2.215-0.79s0.786-1.257,0.786-2.191v-6.535H318.532z"/>
	<path fill="#FFFFFF" d="M324.053,111.259h2.741c1.235,0,2.142,0.209,2.721,0.629s0.868,1.053,0.868,1.9
		c0,0.579-0.177,1.061-0.53,1.446c-0.353,0.385-0.869,0.632-1.548,0.742v0.041c0.798,0.119,1.384,0.37,1.761,0.755
		c0.375,0.385,0.563,0.922,0.563,1.61c0,0.92-0.306,1.629-0.916,2.126s-1.477,0.745-2.598,0.745h-3.063V111.259z M324.75,115.709
		h2.201c0.938,0,1.621-0.156,2.048-0.468c0.426-0.312,0.639-0.801,0.639-1.466s-0.24-1.148-0.721-1.449
		c-0.481-0.301-1.198-0.451-2.15-0.451h-2.017V115.709z M324.75,116.325v4.313h2.352c1.851,0,2.775-0.752,2.775-2.256
		c0-1.372-0.976-2.058-2.926-2.058H324.75z"/>
	<path fill="#FFFFFF" d="M335.63,121.253v-9.994h0.697v9.338h4.765v0.656H335.63z"/>
	<path fill="#FFFFFF" d="M345.614,121.253v-9.994h0.697v9.994H345.614z"/>
	<path fill="#FFFFFF" d="M356.207,111.745c-1.253,0-2.24,0.401-2.96,1.203s-1.08,1.9-1.08,3.295c0,1.426,0.34,2.534,1.019,3.322
		s1.649,1.183,2.912,1.183c0.839,0,1.608-0.107,2.311-0.321v0.615c-0.661,0.232-1.485,0.349-2.475,0.349
		c-1.403,0-2.509-0.454-3.315-1.36s-1.21-2.174-1.21-3.801c0-1.016,0.192-1.912,0.577-2.687c0.386-0.775,0.939-1.373,1.662-1.794
		c0.722-0.421,1.562-0.632,2.519-0.632c0.976,0,1.848,0.182,2.618,0.547l-0.28,0.629
		C357.774,111.927,357.009,111.745,356.207,111.745z"/>
	<path fill="#FFFFFF" d="M375.391,118.676c0,0.834-0.307,1.495-0.92,1.982c-0.612,0.488-1.427,0.731-2.443,0.731
		c-1.222,0-2.158-0.134-2.81-0.403v-0.697c0.72,0.305,1.639,0.458,2.755,0.458c0.82,0,1.471-0.188,1.951-0.564
		c0.481-0.376,0.722-0.869,0.722-1.48c0-0.378-0.08-0.691-0.239-0.94s-0.419-0.475-0.779-0.68s-0.889-0.426-1.586-0.663
		c-1.021-0.351-1.727-0.73-2.115-1.138c-0.391-0.408-0.585-0.951-0.585-1.63c0-0.748,0.293-1.357,0.878-1.829
		c0.586-0.472,1.339-0.708,2.26-0.708c0.938,0,1.82,0.178,2.646,0.533l-0.253,0.602c-0.829-0.346-1.622-0.52-2.379-0.52
		c-0.738,0-1.326,0.171-1.764,0.513s-0.656,0.807-0.656,1.395c0,0.369,0.067,0.672,0.201,0.909c0.135,0.237,0.354,0.45,0.66,0.639
		s0.829,0.416,1.572,0.68c0.779,0.269,1.365,0.53,1.757,0.783s0.678,0.54,0.858,0.861
		C375.301,117.832,375.391,118.221,375.391,118.676z"/>
	<path fill="#FFFFFF" d="M385.765,121.253h-5.462v-9.994h5.462v0.643H381v3.78h4.498v0.643H381v4.286h4.765V121.253z"/>
	<path fill="#FFFFFF" d="M395.093,111.745c-1.253,0-2.24,0.401-2.96,1.203s-1.08,1.9-1.08,3.295c0,1.426,0.34,2.534,1.019,3.322
		s1.649,1.183,2.912,1.183c0.839,0,1.608-0.107,2.311-0.321v0.615c-0.661,0.232-1.485,0.349-2.475,0.349
		c-1.403,0-2.509-0.454-3.315-1.36s-1.21-2.174-1.21-3.801c0-1.016,0.192-1.912,0.577-2.687c0.386-0.775,0.939-1.373,1.662-1.794
		c0.722-0.421,1.562-0.632,2.519-0.632c0.976,0,1.848,0.182,2.618,0.547l-0.28,0.629
		C396.66,111.927,395.895,111.745,395.093,111.745z"/>
	<path fill="#FFFFFF" d="M404.927,121.253h-0.704v-9.338h-3.247v-0.656h7.198v0.656h-3.247V121.253z"/>
	<path fill="#FFFFFF" d="M420.859,116.243c0,1.586-0.396,2.84-1.189,3.763s-1.887,1.384-3.281,1.384
		c-1.39,0-2.481-0.461-3.274-1.384s-1.189-2.182-1.189-3.777c0-1.59,0.399-2.843,1.2-3.756c0.799-0.914,1.892-1.371,3.277-1.371
		c1.395,0,2.486,0.459,3.274,1.377S420.859,114.652,420.859,116.243z M412.684,116.243c0,1.431,0.319,2.537,0.957,3.319
		s1.554,1.172,2.748,1.172c1.203,0,2.123-0.387,2.758-1.162c0.637-0.775,0.954-1.884,0.954-3.329c0-1.44-0.317-2.544-0.954-3.312
		c-0.635-0.768-1.55-1.152-2.744-1.152c-1.189,0-2.106,0.387-2.752,1.162C413.006,113.716,412.684,114.816,412.684,116.243z"/>
	<path fill="#FFFFFF" d="M426.653,116.899v4.354h-0.697v-9.994h2.379c1.239,0,2.155,0.229,2.748,0.687s0.889,1.147,0.889,2.068
		c0,0.67-0.177,1.235-0.53,1.695c-0.353,0.46-0.89,0.791-1.609,0.991l2.714,4.553h-0.834l-2.577-4.354H426.653z M426.653,116.297
		h1.907c0.843,0,1.497-0.188,1.962-0.564s0.697-0.931,0.697-1.665c0-0.761-0.228-1.315-0.684-1.661s-1.198-0.52-2.229-0.52h-1.654
		V116.297z"/>
</g>
</svg>
