<?xml version="1.0" encoding="utf-8"?>
<!-- Generator: Adobe Illustrator 17.0.0, SVG Export Plug-In . SVG Version: 6.00 Build 0)  -->
<!DOCTYPE svg PUBLIC "-//W3C//DTD SVG 1.1//EN" "http://www.w3.org/Graphics/SVG/1.1/DTD/svg11.dtd">
<svg version="1.1" id="Layer_1" xmlns="http://www.w3.org/2000/svg" xmlns:xlink="http://www.w3.org/1999/xlink" x="0px" y="0px"
	 width="640px" height="431.597px" viewBox="0 0 640 431.597" enable-background="new 0 0 640 431.597" xml:space="preserve">
<path fill="none" stroke="#96865C" stroke-width="5.1607" stroke-miterlimit="10" d="M445.75,335.391l6.431,16.376
	c0,0-4.456,5.385-14.086,7.176l2.204,8.049"/>
<path fill="none" stroke="#96865C" stroke-width="5.1607" stroke-miterlimit="10" d="M408.35,327.779l-11.178,13.586
	c0,0,2.574,6.498,11.178,11.178l-4.584,6.974"/>
<path d="M421.269,304.854c0,0-19.227,9.353-20.947,17.381s9.594,14.049,12.538,14.622l4.036-11.969l-6.281,57.556h25.798v-48.167
	l2.328,11.755c0,0,16.056-3.44,15.769-9.461l-12.042-27.198L421.269,304.854z"/>
<path fill="#2D2105" d="M448.483,253.903c0,0,41.474-24.526,31.494,16.359c0,0-3.423,30.215-2.149,51.595
	c0,0-9.281-27.087-15.578-51.004L448.483,253.903z"/>
<ellipse fill="#96865C" cx="436.414" cy="280.825" rx="28.063" ry="28.547"/>
<line fill="none" stroke="#2D2105" stroke-width="0.172" stroke-miterlimit="10" x1="411.74" y1="274.54" x2="411.962" y2="275.888"/>
<line fill="none" stroke="#2D2105" stroke-width="0.172" stroke-miterlimit="10" x1="412.428" y1="274.49" x2="412.343" y2="275.853"/>
<line fill="none" stroke="#2D2105" stroke-width="0.172" stroke-miterlimit="10" x1="413.302" y1="274.525" x2="412.861" y2="275.818"/>
<line fill="none" stroke="#2D2105" stroke-width="0.172" stroke-miterlimit="10" x1="414.103" y1="274.938" x2="413.446" y2="276.136"/>
<line fill="none" stroke="#2D2105" stroke-width="0.172" stroke-miterlimit="10" x1="425.23" y1="276.597" x2="424.736" y2="277.871"/>
<line fill="none" stroke="#2D2105" stroke-width="0.172" stroke-miterlimit="10" x1="425.974" y1="277.204" x2="425.207" y2="278.334"/>
<line fill="none" stroke="#2D2105" stroke-width="0.172" stroke-miterlimit="10" x1="426.732" y1="277.769" x2="425.695" y2="278.658"/>
<line fill="none" stroke="#2D2105" stroke-width="0.172" stroke-miterlimit="10" x1="427.176" y1="278.31" x2="426" y2="279.007"/>
<path fill="#2D2105" d="M416.933,259.245l47.544,18.626C464.477,277.871,461.821,233.57,416.933,259.245z"/>
<line fill="none" stroke="#2D2105" stroke-width="0.8601" stroke-miterlimit="10" x1="433.263" y1="272.921" x2="424.983" y2="275.214"/>
<line fill="none" stroke="#2D2105" stroke-width="0.8601" stroke-miterlimit="10" x1="410.616" y1="267.441" x2="416.933" y2="273.265"/>
<circle cx="412.861" cy="276.558" r="1.344"/>
<circle cx="424.983" cy="278.873" r="1.344"/>
<path d="M410.775,289.886c0,0,1.138-0.509,12.242,2.772"/>
<polygon fill="#5C5F93" points="410.616,382.443 404.91,412.548 419.245,412.548 423.018,382.443 423.018,412.548 435.301,412.548 
	436.414,382.443 "/>
<path fill="#464647" d="M404.91,412.548c0,0-12.902,1.147-12.902,5.161s26.09,1.147,26.09,1.147l1.147-6.308H404.91z"/>
<path fill="#464647" d="M437.13,412.548c0,0,12.902,1.147,12.902,5.161s-26.09,1.147-26.09,1.147l-1.147-6.308H437.13z"/>
<path fill="#57919E" d="M454.307,251.976c0,0,2.644-2.045,2.668,2.013c0,0,4.653,0.217,2.795,3.455c0,0,2.011,5.288-1.418,4.856
	c0,0-2.298,2.306-4.896-2.617c0,0-3.178-0.226-3.686-1.695c0,0-2.483-2.959,0.017-4.575
	C449.787,253.414,452.037,248.916,454.307,251.976z"/>
<polyline fill="none" stroke="#D8BF8D" stroke-width="6.881" stroke-miterlimit="10" points="325.78,309.401 364.019,331.252 
	373.7,325.243 "/>
<line fill="none" stroke="#025E14" stroke-width="7.274" stroke-miterlimit="10" x1="226.082" y1="89.919" x2="266.791" y2="396.64"/>
<path d="M292.573,292.197c0,0-25.168,19.356-21.526,82.062h21.526c0,0,5.788-64.62,11.857-61.653l32.828,9.967l7.838-9.967
	L292.573,292.197z"/>
<ellipse fill="#D8BF8D" cx="308.982" cy="272.174" rx="25.189" ry="26.403"/>
<polygon fill="#5C5F93" points="271.047,374.258 264.37,406.582 288.649,406.582 292.573,374.258 "/>
<path fill="#464647" d="M264.37,406.582c0,0,22.363-3.408,33.258,2.326c0,0,9.175,8.996-33.258,5.932
	C264.37,414.84,263.125,412.609,264.37,406.582z"/>
<polyline fill="none" stroke="#D8BF8D" stroke-width="6.881" stroke-miterlimit="10" points="296.495,320.326 330.965,347.739 
	341.876,343.089 "/>
<path d="M301.642,310.854"/>
<path d="M294.14,308.045c0,0,16.946,14.089,29.89,23.453c0.186,0.134,0.371,0.268,0.555,0.401l-9.405,9.646l-23.983-20.661"/>
<circle cx="320.529" cy="275.568" r="1.344"/>
<circle cx="328.384" cy="275.009" r="1.344"/>
<path d="M338.165,252.887l-54.062,9.399c10.558-38.471,45.023-7.865,45.023-7.865"/>
<polygon points="337.716,254.411 284.103,262.285 285.527,260.27 339.14,252.396 "/>
<line fill="none" stroke="#025E14" stroke-width="7.274" stroke-miterlimit="10" x1="158.191" y1="98.405" x2="198.198" y2="414.64"/>
<line fill="none" stroke="#025E14" stroke-width="7.274" stroke-miterlimit="10" x1="162.645" y1="133.613" x2="230.572" y2="123.751"/>
<line fill="none" stroke="#025E14" stroke-width="7.274" stroke-miterlimit="10" x1="169.647" y1="188.955" x2="238.163" y2="180.942"/>
<line fill="none" stroke="#025E14" stroke-width="7.274" stroke-miterlimit="10" x1="178.195" y1="245.703" x2="246.803" y2="241.4"/>
<line fill="none" stroke="#025E14" stroke-width="7.274" stroke-miterlimit="10" x1="185.469" y1="314.021" x2="253.681" y2="297.86"/>
<line fill="none" stroke="#025E14" stroke-width="7.274" stroke-miterlimit="10" x1="192.672" y1="370.96" x2="262.165" y2="361.784"/>
<line fill="none" stroke="#000000" stroke-width="0.4301" stroke-miterlimit="10" x1="327.04" y1="287.451" x2="313.976" y2="287.451"/>
<path fill="#C73A22" d="M621.763,51.227c0,3.958-5.056,7.167-11.293,7.167H29.248c-6.237,0-11.293-3.209-11.293-7.167V18.979
	c0-3.958,5.056-7.167,11.293-7.167H610.47c6.237,0,11.293,3.209,11.293,7.167V51.227z"/>
<line fill="none" stroke="#FFFFFF" stroke-width="8" stroke-miterlimit="10" x1="53.538" y1="35.103" x2="586.18" y2="35.103"/>
<circle fill="#D58C84" cx="53.538" cy="35.103" r="10.354"/>
<circle fill="#FFFFFF" cx="319.859" cy="35.103" r="10.354"/>
<circle fill="#FFFFFF" cx="586.18" cy="35.103" r="10.354"/>
<circle fill="#D58C84" cx="186.698" cy="35.103" r="10.354"/>
<circle fill="#FFFFFF" cx="453.02" cy="35.103" r="10.354"/>
<line fill="none" stroke="#D58C84" stroke-width="8" stroke-miterlimit="10" x1="53.538" y1="35.103" x2="262.452" y2="35.103"/>
</svg>
