<?xml version="1.0" encoding="utf-8"?>
<!-- Generator: Adobe Illustrator 17.0.0, SVG Export Plug-In . SVG Version: 6.00 Build 0)  -->
<!DOCTYPE svg PUBLIC "-//W3C//DTD SVG 1.1//EN" "http://www.w3.org/Graphics/SVG/1.1/DTD/svg11.dtd">
<svg version="1.1" id="Layer_1" xmlns="http://www.w3.org/2000/svg" xmlns:xlink="http://www.w3.org/1999/xlink" x="0px" y="0px"
	 width="640px" height="587.589px" viewBox="0 0 640 587.589" enable-background="new 0 0 640 587.589" xml:space="preserve">
<path fill="#C73A22" d="M621.904,56.658c0,3.958-5.056,7.167-11.293,7.167H29.389c-6.237,0-11.293-3.209-11.293-7.167V24.41
	c0-3.958,5.056-7.167,11.293-7.167h581.222c6.237,0,11.293,3.209,11.293,7.167V56.658z"/>
<line fill="none" stroke="#FFFFFF" stroke-width="1.8822" stroke-miterlimit="10" x1="53.679" y1="40.534" x2="586.321" y2="40.534"/>
<circle fill="#D58C84" cx="53.679" cy="40.534" r="10.354"/>
<circle fill="#D58C84" cx="320" cy="40.534" r="10.354"/>
<circle fill="#D58C84" cx="586.321" cy="40.534" r="10.354"/>
<circle fill="#D58C84" cx="186.839" cy="40.534" r="10.354"/>
<circle fill="#D58C84" cx="453.161" cy="40.534" r="10.354"/>
<line fill="none" stroke="#D58C84" stroke-width="8" stroke-miterlimit="10" x1="53.679" y1="40.534" x2="586.321" y2="40.534"/>
<circle fill="#CED13B" cx="309.482" cy="447.363" r="132.547"/>
<g>
	<path fill="#C73A22" d="M207.315,228.887c-1.479,0-2.813,0.534-4.005,1.602c-1.19,1.068-2.125,2.54-2.803,4.416
		c-0.678,1.876-1.017,3.909-1.017,6.1c0,1.835,0.383,3.204,1.149,4.107s1.869,1.355,3.307,1.355c1.137,0,2.287-0.14,3.451-0.421
		c1.163-0.281,2.532-0.756,4.107-1.427v6.634c-2.78,1.232-5.792,1.848-9.037,1.848c-3.561,0-6.302-1.017-8.226-3.05
		s-2.886-4.912-2.886-8.636c0-3.642,0.695-6.983,2.085-10.023c1.39-3.04,3.279-5.333,5.668-6.88c2.39-1.547,5.125-2.321,8.205-2.321
		c3.629,0,6.922,0.897,9.879,2.69l-3.039,6.264c-1.273-0.753-2.444-1.318-3.513-1.694
		C209.575,229.075,208.466,228.887,207.315,228.887z"/>
	<path fill="#C73A22" d="M226.396,253.101c-2.861,0-5.069-0.773-6.623-2.321c-1.555-1.547-2.331-3.758-2.331-6.634
		s0.544-5.473,1.633-7.794c1.088-2.321,2.618-4.125,4.59-5.412c1.972-1.287,4.272-1.931,6.901-1.931
		c2.861,0,5.069,0.774,6.623,2.321c1.554,1.547,2.331,3.759,2.331,6.634c0,2.875-0.544,5.474-1.633,7.794s-2.618,4.125-4.59,5.412
		C231.325,252.458,229.024,253.101,226.396,253.101z M229.641,234.986c-1.123,0-2.085,0.955-2.886,2.865s-1.201,4.097-1.201,6.562
		c0,1.821,0.575,2.731,1.726,2.731c1.108,0,2.074-0.951,2.896-2.854s1.232-4.094,1.232-6.572c0-0.904-0.158-1.585-0.473-2.044
		C230.619,235.216,230.188,234.986,229.641,234.986z"/>
	<path fill="#C73A22" d="M254.492,252.69l2.69-12.959c0.205-1.232,0.309-2.061,0.309-2.485c0-1.287-0.493-1.931-1.479-1.931
		c-0.931,0-1.708,0.51-2.331,1.53s-1.153,2.53-1.592,4.529l-2.423,11.316h-7.948l4.908-23.27h6.347l-0.329,3.841h0.165
		c0.835-1.561,1.772-2.66,2.813-3.296c1.04-0.637,2.348-0.955,3.923-0.955c1.602,0,2.837,0.367,3.707,1.099
		c0.869,0.732,1.481,1.783,1.838,3.152h0.164c0.891-1.451,1.91-2.522,3.061-3.214c1.15-0.691,2.485-1.037,4.005-1.037
		c1.931,0,3.396,0.579,4.396,1.735c0.999,1.157,1.499,2.865,1.499,5.125c0,1.328-0.15,2.731-0.452,4.21l-2.567,12.61h-7.948
		l2.649-12.959c0.192-0.767,0.288-1.677,0.288-2.732c0-0.547-0.131-0.965-0.391-1.252s-0.609-0.432-1.047-0.432
		c-1.014,0-1.832,0.521-2.455,1.561s-1.146,2.595-1.57,4.662l-2.28,11.152H254.492z"/>
	<path fill="#C73A22" d="M293.556,253.101c-1.958,0-3.539-0.993-4.744-2.978h-0.164c-0.164,2.273-0.548,4.813-1.15,7.62
		l-1.048,5.053h-7.948l7.065-33.375h6.347l-0.247,2.608h0.165c1.314-2.013,3.08-3.019,5.299-3.019c2.136,0,3.813,0.764,5.031,2.29
		c1.219,1.527,1.828,3.625,1.828,6.295c0,2.78-0.479,5.398-1.438,7.856c-0.959,2.458-2.229,4.347-3.81,5.668
		C297.16,252.441,295.432,253.101,293.556,253.101z M294.11,235.397c-0.685,0-1.335,0.39-1.951,1.17
		c-0.616,0.781-1.105,1.835-1.469,3.163c-0.362,1.328-0.544,2.677-0.544,4.046c0,0.89,0.157,1.602,0.473,2.136
		c0.314,0.534,0.76,0.801,1.335,0.801c0.657,0,1.287-0.39,1.89-1.171c0.602-0.78,1.092-1.828,1.468-3.142
		c0.377-1.314,0.565-2.663,0.565-4.046C295.877,236.383,295.288,235.397,294.11,235.397z"/>
	<path fill="#C73A22" d="M314.136,252.69h-7.948l6.757-31.958h7.948L314.136,252.69z"/>
	<path fill="#C73A22" d="M330.32,253.101c-2.903,0-5.162-0.811-6.778-2.434c-1.615-1.623-2.423-3.878-2.423-6.768
		c0-2.889,0.571-5.494,1.715-7.814c1.143-2.321,2.711-4.08,4.703-5.278s4.296-1.797,6.911-1.797c2.602,0,4.648,0.589,6.141,1.767
		s2.239,2.745,2.239,4.703c0,2.752-1.072,4.864-3.215,6.336c-2.143,1.472-5.24,2.208-9.293,2.208h-1.212v0.329
		c0,2.026,1.122,3.04,3.368,3.04c1.081,0,2.143-0.161,3.184-0.483c1.04-0.321,2.225-0.832,3.553-1.53v5.627
		c-1.533,0.78-2.965,1.325-4.292,1.633C333.592,252.947,332.059,253.101,330.32,253.101z M333.564,234.391
		c-0.835,0-1.615,0.476-2.341,1.427s-1.164,2.03-1.314,3.235h0.596c1.492,0,2.663-0.284,3.512-0.853
		c0.849-0.568,1.273-1.317,1.273-2.249c0-0.438-0.137-0.808-0.411-1.109C334.605,234.542,334.167,234.391,333.564,234.391z"/>
	<path fill="#C73A22" d="M355.397,246.714c0.903,0,2.156-0.322,3.758-0.965v5.977c-1.862,0.917-4.189,1.376-6.982,1.376
		c-2.026,0-3.563-0.435-4.611-1.304c-1.047-0.869-1.571-2.296-1.571-4.282c0-1.04,0.165-2.328,0.493-3.861l1.726-8.256h-3.163
		l0.842-3.902l4.478-1.808l2.813-4.929h5.299l-1.006,4.662h5.915l-1.294,5.977h-5.936l-1.726,7.866
		c-0.219,1.055-0.328,1.773-0.328,2.157C354.104,246.283,354.534,246.714,355.397,246.714z"/>
	<path fill="#C73A22" d="M373.902,253.101c-2.903,0-5.162-0.811-6.778-2.434c-1.615-1.623-2.423-3.878-2.423-6.768
		c0-2.889,0.571-5.494,1.715-7.814c1.143-2.321,2.711-4.08,4.703-5.278s4.296-1.797,6.911-1.797c2.602,0,4.648,0.589,6.141,1.767
		s2.239,2.745,2.239,4.703c0,2.752-1.072,4.864-3.215,6.336c-2.143,1.472-5.24,2.208-9.293,2.208h-1.212v0.329
		c0,2.026,1.122,3.04,3.368,3.04c1.081,0,2.143-0.161,3.184-0.483c1.04-0.321,2.225-0.832,3.553-1.53v5.627
		c-1.533,0.78-2.965,1.325-4.292,1.633C377.174,252.947,375.641,253.101,373.902,253.101z M377.146,234.391
		c-0.835,0-1.615,0.476-2.341,1.427s-1.164,2.03-1.314,3.235h0.596c1.492,0,2.663-0.284,3.512-0.853
		c0.849-0.568,1.273-1.317,1.273-2.249c0-0.438-0.137-0.808-0.411-1.109C378.188,234.542,377.749,234.391,377.146,234.391z"/>
	<path fill="#C73A22" d="M399.369,229.01c1.027,0,1.89,0.209,2.588,0.626c0.698,0.418,1.458,1.25,2.28,2.496h0.164l0.041-0.76
		c0.096-1.889,0.267-3.375,0.514-4.457l1.273-6.182h8.03l-6.777,31.958h-6.347l0.205-2.526h-0.164
		c-0.78,1.082-1.602,1.842-2.465,2.28c-0.862,0.438-1.876,0.657-3.039,0.657c-2.164,0-3.807-0.763-4.93-2.29
		c-1.123-1.526-1.684-3.721-1.684-6.583c0-2.437,0.489-4.922,1.468-7.455c0.979-2.533,2.235-4.46,3.77-5.782
		C395.83,229.67,397.521,229.01,399.369,229.01z M398.938,246.714c0.685,0,1.338-0.4,1.961-1.202
		c0.623-0.801,1.119-1.872,1.489-3.214c0.369-1.342,0.555-2.656,0.555-3.943c0-1.972-0.548-2.958-1.644-2.958
		c-0.671,0-1.328,0.404-1.972,1.211c-0.644,0.808-1.164,1.873-1.561,3.194c-0.397,1.321-0.596,2.646-0.596,3.974
		C397.172,245.735,397.761,246.714,398.938,246.714z"/>
	<path fill="#C73A22" d="M412.985,250.082c0-1.465,0.445-2.629,1.335-3.491c0.891-0.863,2.116-1.294,3.677-1.294
		c1.191,0,2.105,0.277,2.742,0.832s0.955,1.338,0.955,2.352c0,1.506-0.436,2.67-1.305,3.492c-0.869,0.821-2.058,1.232-3.563,1.232
		c-1.205,0-2.146-0.264-2.824-0.791S412.985,251.109,412.985,250.082z M422.043,242.093h-6.736l3.204-19.429h8.749L422.043,242.093z
		"/>
</g>
<path fill="#E33B3B" d="M245.381,455.157c0,0,45.628,96.539,101.474,83.403c0,0,29.775-7.763,20.851-129.275
	C367.706,409.285,310.018,390.519,245.381,455.157z"/>
<path fill="#2AAE58" d="M246.73,457.875c0,0-18.418-14.047,3.83-20.789c0,0-11.461-38.419,26.293-22.243
	c0,0,12.135-22.885,26.293-5.377c0,0,27.641-49.236,37.754-10.808c0,0,19.905-20.364,26.807,10.627
	C367.706,409.285,290.766,401.661,246.73,457.875z"/>
<path d="M268.16,459.135c-0.45-0.142-0.843-0.019-1.108,0.274c-0.269-0.003-0.542,0.101-0.758,0.38
	c-0.946,1.222-2.372,3.241-1.259,4.785c0.829,1.15,2.553,0.929,3.712,0.546c1.219-0.403,2.509-1.293,2.763-2.63
	C271.869,460.601,269.577,459.581,268.16,459.135z"/>
<path d="M351.421,505.316c-0.45-0.142-0.843-0.019-1.108,0.274c-0.269-0.003-0.542,0.101-0.758,0.38
	c-0.946,1.222-2.372,3.241-1.259,4.785c0.829,1.15,2.553,0.929,3.712,0.546c1.219-0.403,2.509-1.293,2.763-2.63
	C355.129,506.782,352.838,505.762,351.421,505.316z"/>
<path d="M320.072,495.204c-0.45-0.142-0.843-0.019-1.108,0.274c-0.269-0.003-0.542,0.101-0.758,0.38
	c-0.946,1.222-2.372,3.241-1.259,4.785c0.829,1.15,2.553,0.929,3.712,0.546c1.219-0.403,2.509-1.293,2.763-2.63
	C323.78,496.669,321.489,495.649,320.072,495.204z"/>
<path d="M326.725,459.883c-0.45-0.142-0.843-0.019-1.108,0.274c-0.269-0.003-0.542,0.101-0.758,0.38
	c-0.946,1.222-2.372,3.241-1.259,4.785c0.829,1.15,2.553,0.929,3.712,0.546c1.219-0.403,2.509-1.293,2.763-2.63
	C330.433,461.348,328.142,460.328,326.725,459.883z"/>
<path d="M340.587,479.038c-0.498-0.157-0.933-0.021-1.226,0.303c-0.298-0.003-0.6,0.112-0.838,0.42
	c-1.047,1.352-2.624,3.584-1.392,5.293c0.917,1.272,2.824,1.028,4.106,0.604c1.349-0.445,2.776-1.431,3.056-2.909
	C344.689,480.659,342.155,479.531,340.587,479.038z"/>
<path d="M348.093,421.593c-0.45-0.142-0.843-0.019-1.108,0.274c-0.269-0.003-0.542,0.101-0.758,0.38
	c-0.946,1.222-2.372,3.241-1.259,4.785c0.829,1.15,2.553,0.929,3.712,0.546c1.219-0.403,2.509-1.293,2.763-2.63
	C351.801,423.058,349.51,422.038,348.093,421.593z"/>
<path d="M303.696,457.922c-0.363-0.114-0.681-0.015-0.894,0.221c-0.217-0.002-0.437,0.082-0.611,0.306
	c-0.763,0.986-1.914,2.615-1.016,3.861c0.669,0.928,2.06,0.75,2.995,0.441c0.984-0.325,2.025-1.044,2.229-2.122
	C306.688,459.104,304.839,458.281,303.696,457.922z"/>
<path d="M313.181,435.202c-0.45-0.142-0.843-0.019-1.108,0.274c-0.269-0.003-0.542,0.101-0.758,0.38
	c-0.946,1.222-2.372,3.241-1.259,4.785c0.829,1.15,2.553,0.929,3.712,0.546c1.219-0.403,2.509-1.293,2.763-2.63
	C316.889,436.668,314.598,435.648,313.181,435.202z"/>
<path d="M284.601,478.802c-0.396-0.124-0.741-0.017-0.974,0.241c-0.237-0.003-0.477,0.089-0.666,0.334
	c-0.832,1.074-2.085,2.848-1.106,4.206c0.729,1.011,2.244,0.817,3.262,0.48c1.072-0.354,2.206-1.137,2.428-2.312
	C287.86,480.09,285.846,479.194,284.601,478.802z"/>
<path d="M323.503,519.296c-0.274-0.086-0.513-0.012-0.674,0.166c-0.164-0.002-0.33,0.062-0.461,0.231
	c-0.575,0.743-1.443,1.971-0.765,2.91c0.504,0.699,1.552,0.565,2.257,0.332c0.742-0.245,1.526-0.787,1.68-1.6
	C325.758,520.187,324.365,519.567,323.503,519.296z"/>
<path d="M347.933,453.045c-0.274-0.086-0.513-0.012-0.674,0.166c-0.164-0.002-0.33,0.061-0.461,0.231
	c-0.575,0.743-1.443,1.971-0.765,2.91c0.504,0.699,1.552,0.565,2.257,0.332c0.742-0.245,1.526-0.787,1.68-1.6
	C350.189,453.936,348.795,453.316,347.933,453.045z"/>
<path d="M307.421,485.836c-0.274-0.086-0.513-0.012-0.674,0.166c-0.164-0.002-0.33,0.062-0.461,0.231
	c-0.575,0.743-1.443,1.971-0.765,2.91c0.504,0.699,1.552,0.565,2.257,0.332c0.742-0.245,1.526-0.787,1.68-1.6
	C309.677,486.727,308.283,486.107,307.421,485.836z"/>
<path d="M300.89,509.714c-0.274-0.086-0.513-0.012-0.674,0.166c-0.164-0.002-0.33,0.062-0.461,0.231
	c-0.575,0.743-1.443,1.971-0.765,2.91c0.504,0.699,1.552,0.565,2.257,0.332c0.742-0.245,1.526-0.787,1.68-1.6
	C303.146,510.605,301.752,509.984,300.89,509.714z"/>
<path d="M340.317,527.425c-0.274-0.086-0.513-0.012-0.674,0.166c-0.164-0.002-0.33,0.062-0.461,0.231
	c-0.575,0.743-1.443,1.971-0.765,2.91c0.504,0.699,1.552,0.565,2.257,0.332c0.742-0.245,1.526-0.787,1.68-1.6
	C342.572,528.316,341.178,527.696,340.317,527.425z"/>
<path d="M332.26,439.599c-0.274-0.086-0.513-0.012-0.674,0.166c-0.164-0.002-0.33,0.062-0.461,0.231
	c-0.575,0.743-1.443,1.971-0.765,2.91c0.504,0.699,1.552,0.565,2.257,0.332c0.742-0.245,1.526-0.787,1.68-1.6
	C334.515,440.491,333.122,439.87,332.26,439.599z"/>
<path opacity="0.1" d="M354.808,531.235c0,0-3.459,10.26-22.592,8.37c0,0-15.109-2.341-18.709-5.299c0,0-16.095-8.214-19.164-12.689
	c0,0-20.029-18.4-24.37-26.472c0,0-21.483-30.678-23.244-37.27c0,0-16.795-12.054,0.388-19.555l6.605,11.434
	C253.722,449.753,320.058,544.208,354.808,531.235z"/>
<g>
	<path fill="#C73A22" d="M77.56,188.624h-1.504v-19.934h-6.932v-1.401h15.367v1.401H77.56V188.624z"/>
	<path fill="#C73A22" d="M103.111,188.624h-1.503v-10.492H89.146v10.492h-1.488v-21.335h1.488v9.471h12.463v-9.471h1.503V188.624z"
		/>
	<path fill="#C73A22" d="M120.813,188.624h-11.66v-21.335h11.66v1.372h-10.172v8.07h9.603v1.372h-9.603v9.15h10.172V188.624z"/>
	<path fill="#C73A22" d="M142.513,168.325c-2.676,0-4.782,0.856-6.319,2.568c-1.537,1.712-2.306,4.057-2.306,7.034
		c0,3.045,0.725,5.409,2.175,7.092c1.449,1.683,3.521,2.524,6.217,2.524c1.79,0,3.434-0.228,4.932-0.686v1.313
		c-1.41,0.496-3.171,0.744-5.282,0.744c-2.996,0-5.355-0.968-7.077-2.904c-1.723-1.936-2.583-4.641-2.583-8.113
		c0-2.169,0.41-4.081,1.232-5.735c0.822-1.654,2.004-2.931,3.547-3.831c1.541-0.9,3.334-1.35,5.377-1.35
		c2.082,0,3.945,0.389,5.589,1.167l-0.598,1.343C145.859,168.714,144.225,168.325,142.513,168.325z"/>
	<path fill="#C73A22" d="M169.903,177.927c0,3.386-0.846,6.063-2.539,8.034c-1.692,1.97-4.027,2.955-7.004,2.955
		c-2.968,0-5.298-0.985-6.99-2.955c-1.693-1.97-2.539-4.658-2.539-8.063c0-3.396,0.854-6.068,2.561-8.019
		c1.708-1.95,4.04-2.926,6.997-2.926c2.978,0,5.308,0.98,6.99,2.94C169.063,171.854,169.903,174.532,169.903,177.927z
		 M152.45,177.927c0,3.055,0.682,5.417,2.043,7.085c1.362,1.668,3.317,2.503,5.867,2.503c2.568,0,4.53-0.827,5.888-2.481
		s2.036-4.022,2.036-7.107c0-3.074-0.679-5.431-2.036-7.07c-1.357-1.639-3.311-2.458-5.859-2.458c-2.539,0-4.497,0.827-5.873,2.48
		C153.139,172.533,152.45,174.882,152.45,177.927z"/>
	<path fill="#C73A22" d="M190.319,188.624h-1.503l-12.638-18.941h-0.117c0.117,2.257,0.176,3.959,0.176,5.107v13.834h-1.431v-21.335
		h1.488l12.623,18.913h0.088c-0.088-1.751-0.132-3.415-0.132-4.991v-13.922h1.445V188.624z"/>
	<path fill="#C73A22" d="M201.921,188.624h-1.504v-19.934h-6.932v-1.401h15.367v1.401h-6.932V188.624z"/>
	<path fill="#C73A22" d="M223.679,188.624h-11.66v-21.335h11.66v1.372h-10.172v8.07h9.603v1.372h-9.603v9.15h10.172V188.624z"/>
	<path fill="#C73A22" d="M241.569,188.624h-1.707l-6.304-9.952l-6.421,9.952h-1.649l7.18-11.12l-6.523-10.215h1.679l5.764,9.135
		l5.853-9.135h1.59l-6.61,10.186L241.569,188.624z"/>
	<path fill="#C73A22" d="M250.15,188.624h-1.504v-19.934h-6.932v-1.401h15.367v1.401h-6.932V188.624z"/>
	<path fill="#C73A22" d="M285.946,177.927c0,3.386-0.846,6.063-2.539,8.034c-1.692,1.97-4.027,2.955-7.004,2.955
		c-2.968,0-5.298-0.985-6.99-2.955c-1.693-1.97-2.539-4.658-2.539-8.063c0-3.396,0.854-6.068,2.561-8.019
		c1.708-1.95,4.04-2.926,6.997-2.926c2.978,0,5.308,0.98,6.99,2.94C285.105,171.854,285.946,174.532,285.946,177.927z
		 M268.493,177.927c0,3.055,0.682,5.417,2.043,7.085c1.362,1.668,3.317,2.503,5.867,2.503c2.568,0,4.53-0.827,5.888-2.481
		s2.036-4.022,2.036-7.107c0-3.074-0.679-5.431-2.036-7.07c-1.357-1.639-3.311-2.458-5.859-2.458c-2.539,0-4.497,0.827-5.873,2.48
		C269.182,172.533,268.493,174.882,268.493,177.927z"/>
	<path fill="#C73A22" d="M292.338,188.624h-1.488v-21.335h11.689v1.372h-10.201v9.048h9.632v1.386h-9.632V188.624z"/>
	<path fill="#C73A22" d="M319.176,188.624h-1.504v-19.934h-6.932v-1.401h15.367v1.401h-6.932V188.624z"/>
	<path fill="#C73A22" d="M344.728,188.624h-1.503v-10.492h-12.463v10.492h-1.488v-21.335h1.488v9.471h12.463v-9.471h1.503V188.624z"
		/>
	<path fill="#C73A22" d="M362.429,188.624h-11.66v-21.335h11.66v1.372h-10.172v8.07h9.603v1.372h-9.603v9.15h10.172V188.624z"/>
	<path fill="#C73A22" d="M376.511,188.624h-1.488v-21.335h11.689v1.372h-10.201v9.048h9.632v1.386h-9.632V188.624z"/>
	<path fill="#C73A22" d="M407.959,177.927c0,3.386-0.846,6.063-2.539,8.034c-1.692,1.97-4.027,2.955-7.004,2.955
		c-2.968,0-5.298-0.985-6.99-2.955c-1.693-1.97-2.539-4.658-2.539-8.063c0-3.396,0.854-6.068,2.561-8.019
		c1.708-1.95,4.04-2.926,6.997-2.926c2.978,0,5.308,0.98,6.99,2.94C407.118,171.854,407.959,174.532,407.959,177.927z
		 M390.506,177.927c0,3.055,0.682,5.417,2.043,7.085c1.362,1.668,3.317,2.503,5.867,2.503c2.568,0,4.53-0.827,5.888-2.481
		s2.036-4.022,2.036-7.107c0-3.074-0.679-5.431-2.036-7.07c-1.357-1.639-3.311-2.458-5.859-2.458c-2.539,0-4.497,0.827-5.873,2.48
		C391.194,172.533,390.506,174.882,390.506,177.927z"/>
	<path fill="#C73A22" d="M430.797,177.927c0,3.386-0.846,6.063-2.539,8.034c-1.692,1.97-4.027,2.955-7.004,2.955
		c-2.968,0-5.298-0.985-6.99-2.955c-1.693-1.97-2.539-4.658-2.539-8.063c0-3.396,0.854-6.068,2.561-8.019
		c1.708-1.95,4.04-2.926,6.997-2.926c2.978,0,5.308,0.98,6.99,2.94C429.956,171.854,430.797,174.532,430.797,177.927z
		 M413.344,177.927c0,3.055,0.682,5.417,2.043,7.085c1.362,1.668,3.317,2.503,5.867,2.503c2.568,0,4.53-0.827,5.888-2.481
		s2.036-4.022,2.036-7.107c0-3.074-0.679-5.431-2.036-7.07c-1.357-1.639-3.311-2.458-5.859-2.458c-2.539,0-4.497,0.827-5.873,2.48
		C414.032,172.533,413.344,174.882,413.344,177.927z"/>
	<path fill="#C73A22" d="M451.898,177.752c0,3.58-0.938,6.287-2.816,8.121c-1.878,1.834-4.636,2.751-8.274,2.751H435.7v-21.335
		h5.765c3.404,0,5.995,0.89,7.771,2.67C451.011,171.74,451.898,174.337,451.898,177.752z M450.278,177.81
		c0-3.055-0.775-5.353-2.327-6.895s-3.831-2.313-6.837-2.313h-3.926v18.708h3.532C447.093,187.31,450.278,184.144,450.278,177.81z"
		/>
	<path fill="#C73A22" d="M476.342,183.122c0,1.78-0.654,3.191-1.962,4.232c-1.309,1.041-3.048,1.562-5.218,1.562
		c-2.607,0-4.606-0.287-5.997-0.861v-1.488c1.537,0.652,3.497,0.978,5.881,0.978c1.751,0,3.14-0.401,4.166-1.204
		s1.54-1.855,1.54-3.16c0-0.807-0.171-1.476-0.511-2.006c-0.341-0.53-0.896-1.014-1.664-1.452c-0.769-0.438-1.897-0.909-3.386-1.416
		c-2.179-0.749-3.685-1.559-4.517-2.43c-0.831-0.871-1.247-2.031-1.247-3.48c0-1.595,0.625-2.896,1.875-3.903s2.857-1.51,4.823-1.51
		c2.004,0,3.886,0.379,5.647,1.138l-0.54,1.284c-1.771-0.739-3.464-1.109-5.079-1.109c-1.575,0-2.831,0.365-3.765,1.095
		c-0.934,0.729-1.4,1.722-1.4,2.977c0,0.788,0.143,1.435,0.43,1.941s0.757,0.96,1.408,1.364c0.652,0.404,1.771,0.888,3.356,1.452
		c1.664,0.574,2.914,1.131,3.751,1.671c0.836,0.54,1.446,1.153,1.831,1.838C476.15,181.32,476.342,182.149,476.342,183.122z"/>
	<path fill="#C73A22" d="M485.755,178.963l6.246-11.674h1.605l-7.107,13.09v8.245h-1.532v-8.128l-7.136-13.207h1.707
		L485.755,178.963z"/>
	<path fill="#C73A22" d="M508.403,183.122c0,1.78-0.654,3.191-1.962,4.232c-1.309,1.041-3.048,1.562-5.218,1.562
		c-2.607,0-4.606-0.287-5.997-0.861v-1.488c1.537,0.652,3.497,0.978,5.881,0.978c1.751,0,3.14-0.401,4.166-1.204
		s1.54-1.855,1.54-3.16c0-0.807-0.171-1.476-0.511-2.006c-0.341-0.53-0.896-1.014-1.664-1.452c-0.769-0.438-1.897-0.909-3.386-1.416
		c-2.179-0.749-3.685-1.559-4.517-2.43c-0.831-0.871-1.247-2.031-1.247-3.48c0-1.595,0.625-2.896,1.875-3.903s2.857-1.51,4.823-1.51
		c2.004,0,3.886,0.379,5.647,1.138l-0.54,1.284c-1.771-0.739-3.464-1.109-5.079-1.109c-1.575,0-2.831,0.365-3.765,1.095
		c-0.934,0.729-1.4,1.722-1.4,2.977c0,0.788,0.143,1.435,0.43,1.941s0.757,0.96,1.408,1.364c0.652,0.404,1.771,0.888,3.356,1.452
		c1.664,0.574,2.914,1.131,3.751,1.671c0.836,0.54,1.446,1.153,1.831,1.838C508.212,181.32,508.403,182.149,508.403,183.122z"/>
	<path fill="#C73A22" d="M518.474,188.624h-1.504v-19.934h-6.932v-1.401h15.367v1.401h-6.932V188.624z"/>
	<path fill="#C73A22" d="M540.231,188.624h-11.66v-21.335h11.66v1.372H530.06v8.07h9.603v1.372h-9.603v9.15h10.172V188.624z"/>
	<path fill="#C73A22" d="M554.445,188.624l-7.953-19.701h-0.117c0.078,1.207,0.117,2.442,0.117,3.707v15.994h-1.431v-21.335h2.306
		l7.56,18.767h0.087l7.56-18.767h2.247v21.335h-1.503v-16.169c0-1.128,0.059-2.296,0.175-3.502h-0.116l-7.982,19.671H554.445z"/>
</g>
<g>
	<g opacity="0.75">
		<g>
			<defs>
				<circle id="SVGID_1_" cx="311.864" cy="449.577" r="132.547"/>
			</defs>
			<clipPath id="SVGID_2_">
				<use xlink:href="#SVGID_1_"  overflow="visible"/>
			</clipPath>
		</g>
		<g>
			<defs>
				<circle id="SVGID_3_" cx="311.864" cy="449.577" r="132.547"/>
			</defs>
			<clipPath id="SVGID_4_">
				<use xlink:href="#SVGID_3_"  overflow="visible"/>
			</clipPath>
			<path clip-path="url(#SVGID_4_)" d="M94.385,329.758c0,0,45.739,66.826,112.518,98.111c0,0-0.414,30.085,9.432,48.344
				c0,0,11.186,19.77,8.04-39.773c0,0-1.268,9.076,18.694,34.667c0,0,16.367,13.212-6.281-41.36c0,0,17.996,35.66,34.387,47.772
				c0,0,12.539-0.745-22.929-53.95c0,0,9.459,10.685,30.881,20.701c0,0,17.987,7.291-22.283-28.536c0,0,15.403,10.063,26.238,7.301
				c0,0,6.871-3.257-24.407-17.838l-7.833-2.345L162.461,293.05"/>
			<path clip-path="url(#SVGID_4_)" d="M457.626,337.503c0,0-27.628,57.23-75.762,89.359c0,0,3.86,23.294-1.631,38.62
				c0,0-6.353,16.655-10.917-29.914c0,0,2.052,6.892-10.426,29.097c0,0-11.145,12.176,0.008-32.83c0,0-9.768,29.785-21.061,41.111
				c0,0-9.816,0.897,11.445-44.557c0,0-6.082,9.403-21.525,19.694c0,0-13.098,7.773,13.933-24.762c0,0-10.767,9.62-19.499,8.751
				c0,0-5.714-1.719,16.839-16.711l5.802-2.741l55.657-95.592"/>
		</g>
		<g>
			<defs>
				<circle id="SVGID_5_" cx="311.864" cy="449.577" r="132.547"/>
			</defs>
			<clipPath id="SVGID_6_">
				<use xlink:href="#SVGID_5_"  overflow="visible"/>
			</clipPath>
		</g>
	</g>
	<g>
		<g>
			<defs>
				<circle id="SVGID_7_" cx="309.65" cy="447.363" r="132.547"/>
			</defs>
			<clipPath id="SVGID_8_">
				<use xlink:href="#SVGID_7_"  overflow="visible"/>
			</clipPath>
		</g>
		<g>
			<defs>
				<circle id="SVGID_9_" cx="309.65" cy="447.363" r="132.547"/>
			</defs>
			<clipPath id="SVGID_10_">
				<use xlink:href="#SVGID_9_"  overflow="visible"/>
			</clipPath>
			<g clip-path="url(#SVGID_10_)">
				<path fill="#BB9E50" d="M92.172,327.544c0,0,45.739,66.826,112.518,98.111c0,0-0.414,30.085,9.432,48.344
					c0,0,11.186,19.77,8.04-39.773c0,0-1.268,9.076,18.694,34.667c0,0,16.367,13.212-6.281-41.36c0,0,17.996,35.66,34.387,47.772
					c0,0,12.539-0.745-22.929-53.95c0,0,9.459,10.685,30.881,20.701c0,0,17.987,7.291-22.283-28.536c0,0,15.403,10.063,26.238,7.301
					c0,0,6.871-3.257-24.407-17.838l-7.833-2.345l-88.379-109.803"/>
				<path fill="#BB9E50" d="M455.413,335.29c0,0-27.628,57.23-75.762,89.359c0,0,3.86,23.294-1.631,38.62
					c0,0-6.353,16.655-10.917-29.914c0,0,2.052,6.892-10.426,29.097c0,0-11.145,12.176,0.008-32.83c0,0-9.768,29.785-21.061,41.111
					c0,0-9.816,0.897,11.445-44.557c0,0-6.082,9.403-21.525,19.694c0,0-13.098,7.773,13.933-24.762c0,0-10.767,9.62-19.499,8.751
					c0,0-5.714-1.719,16.839-16.711l5.802-2.741l55.657-95.592"/>
			</g>
		</g>
		<g>
			<defs>
				<circle id="SVGID_11_" cx="309.65" cy="447.363" r="132.547"/>
			</defs>
			<clipPath id="SVGID_12_">
				<use xlink:href="#SVGID_11_"  overflow="visible"/>
			</clipPath>
		</g>
	</g>
</g>
</svg>
