<?xml version="1.0" encoding="utf-8"?>
<!-- Generator: Adobe Illustrator 17.0.0, SVG Export Plug-In . SVG Version: 6.00 Build 0)  -->
<!DOCTYPE svg PUBLIC "-//W3C//DTD SVG 1.1//EN" "http://www.w3.org/Graphics/SVG/1.1/DTD/svg11.dtd">
<svg version="1.1" id="Layer_1" xmlns="http://www.w3.org/2000/svg" xmlns:xlink="http://www.w3.org/1999/xlink" x="0px" y="0px"
	 width="640px" height="435.917px" viewBox="0 0 640 435.917" enable-background="new 0 0 640 435.917" xml:space="preserve">
<path fill="#C73A22" d="M619.551,54.102c0,3.958-5.056,7.167-11.293,7.167H27.036c-6.237,0-11.293-3.209-11.293-7.167V21.854
	c0-3.958,5.056-7.167,11.293-7.167h581.222c6.237,0,11.293,3.209,11.293,7.167V54.102z"/>
<line fill="none" stroke="#FFFFFF" stroke-width="1.8822" stroke-miterlimit="10" x1="51.326" y1="37.978" x2="583.968" y2="37.978"/>
<circle fill="#D58C84" cx="51.326" cy="37.978" r="10.354"/>
<circle fill="#D58C84" cx="317.647" cy="37.978" r="10.354"/>
<circle fill="#D58C84" cx="583.968" cy="37.978" r="10.354"/>
<circle fill="#D58C84" cx="184.486" cy="37.978" r="10.354"/>
<circle fill="#D58C84" cx="450.808" cy="37.978" r="10.354"/>
<line fill="none" stroke="#D58C84" stroke-width="8" stroke-miterlimit="10" x1="51.326" y1="37.978" x2="583.968" y2="37.978"/>
<path fill="#B1C902" d="M241.916,191.632c0,0-8.282-46.369,8.127-49.597c0,0,27.976-8.339,35.508,0c0,0,8.07,7.154,8.339,22.945
	l4.035,29.241l-18.023,102.489l-3.049,8.223L241.916,191.632z"/>
<line stroke="#000000" stroke-width="0.8585" stroke-miterlimit="10" x1="247.987" y1="142.723" x2="254.631" y2="244.732"/>
<line stroke="#000000" stroke-width="0.807" stroke-miterlimit="10" x1="287.317" y1="244.82" x2="275.867" y2="138.329"/>
<line stroke="#000000" stroke-width="0.8387" stroke-miterlimit="10" x1="285.551" y1="142.035" x2="293.95" y2="210.9"/>
<line stroke="#000000" stroke-width="0.807" stroke-miterlimit="10" x1="239.826" y1="161.134" x2="292.66" y2="155.456"/>
<line stroke="#000000" stroke-width="0.807" stroke-miterlimit="10" x1="241.116" y1="176.232" x2="293.95" y2="170.553"/>
<line stroke="#000000" stroke-width="0.807" stroke-miterlimit="10" x1="259.443" y1="139.808" x2="264.569" y2="262.01"/>
<line stroke="#000000" stroke-width="0.807" stroke-miterlimit="10" x1="267.533" y1="138.616" x2="276.852" y2="303.167"/>
<line stroke="#000000" stroke-width="0.807" stroke-miterlimit="10" x1="245.08" y1="201.894" x2="296.177" y2="193.929"/>
<path stroke="#000000" stroke-width="0.807" stroke-miterlimit="10" d="M252.452,225.801"/>
<line stroke="#000000" stroke-width="0.807" stroke-miterlimit="10" x1="252.452" y1="225.801" x2="291.483" y2="220.892"/>
<line stroke="#000000" stroke-width="0.807" stroke-miterlimit="10" x1="258.316" y1="244.82" x2="287.795" y2="242.073"/>
<path stroke="#000000" stroke-width="1.1069" stroke-miterlimit="10" d="M543.117,332.105"/>
<path fill="#B1C902" d="M185.082,144.612c0,0-5.818-32.57,5.709-34.838c0,0,19.651-5.858,24.942,0c0,0,5.669,5.025,5.858,16.117
	l2.834,20.54l-12.66,71.991l-2.142,5.776L185.082,144.612z"/>
<line stroke="#000000" stroke-width="0.603" stroke-miterlimit="10" x1="189.347" y1="110.258" x2="194.014" y2="181.911"/>
<line stroke="#000000" stroke-width="0.5669" stroke-miterlimit="10" x1="216.973" y1="181.973" x2="208.93" y2="107.171"/>
<line stroke="#000000" stroke-width="0.5891" stroke-miterlimit="10" x1="215.732" y1="109.774" x2="221.633" y2="158.146"/>
<line stroke="#000000" stroke-width="0.5669" stroke-miterlimit="10" x1="182.798" y1="123.627" x2="219.91" y2="119.638"/>
<line stroke="#000000" stroke-width="0.5669" stroke-miterlimit="10" x1="184.521" y1="139.952" x2="221.633" y2="135.963"/>
<line stroke="#000000" stroke-width="0.5669" stroke-miterlimit="10" x1="197.394" y1="108.21" x2="200.994" y2="194.047"/>
<line stroke="#000000" stroke-width="0.5669" stroke-miterlimit="10" x1="203.077" y1="107.373" x2="209.623" y2="222.957"/>
<line stroke="#000000" stroke-width="0.5669" stroke-miterlimit="10" x1="187.305" y1="151.82" x2="223.196" y2="146.226"/>
<path fill="#025E14" d="M209.623,224.198c0,0-34.075-26.894-29.791-96.614L209.623,224.198z"/>
<path fill="#025E14" d="M227.478,121.632l-17.855,102.566C209.623,224.198,227.478,216.009,227.478,121.632z"/>
<line stroke="#000000" stroke-width="0.807" stroke-miterlimit="10" x1="283.399" y1="262.01" x2="263.617" y2="262.01"/>
<path fill="#025E14" d="M276.852,304.934c0,0-48.51-38.287-42.412-137.544L276.852,304.934z"/>
<polygon fill="#33A067" points="430.275,231.32 410.352,173.337 450.198,170.498 "/>
<path fill="#33A067" d="M413.981,280.447c0,0-43.475,11.47-45.136,71.608c0,0,16.482,89.292,91.255,78.461
	c74.772-10.831,49.868-96.068,49.868-113.923s-59.77-46.753-59.77-46.753L413.981,280.447z"/>
<path fill="#025E14" d="M302.272,158.917l-25.419,146.017C276.852,304.934,302.272,293.276,302.272,158.917z"/>
<path fill="#96865C" d="M-5,288.365l271.604-6.48c91.797,30.519,35.136-56.672,35.136-56.672
	c-37.118-23.84-47.743,29.935-47.743,29.935l-262.052-9.085"/>
<path fill="#B1C902" d="M203.035,296.143c0,0-6.66-37.287,6.535-39.882c0,0,22.497-6.706,28.553,0c0,0,6.489,5.753,6.706,18.451
	l3.245,23.514l-14.493,82.415l-2.452,6.612L203.035,296.143z"/>
<line stroke="#000000" stroke-width="0.6903" stroke-miterlimit="10" x1="207.917" y1="256.814" x2="213.26" y2="338.843"/>
<line stroke="#000000" stroke-width="0.6489" stroke-miterlimit="10" x1="239.544" y1="338.913" x2="230.336" y2="253.28"/>
<line stroke="#000000" stroke-width="0.6745" stroke-miterlimit="10" x1="238.123" y1="256.26" x2="244.878" y2="311.637"/>
<line stroke="#000000" stroke-width="0.6489" stroke-miterlimit="10" x1="201.354" y1="271.619" x2="243.84" y2="267.052"/>
<line stroke="#000000" stroke-width="0.6489" stroke-miterlimit="10" x1="202.392" y1="283.759" x2="244.878" y2="279.192"/>
<line stroke="#000000" stroke-width="0.6489" stroke-miterlimit="10" x1="217.129" y1="254.469" x2="221.251" y2="352.736"/>
<line stroke="#000000" stroke-width="0.6489" stroke-miterlimit="10" x1="223.635" y1="253.511" x2="231.129" y2="385.832"/>
<line stroke="#000000" stroke-width="0.6489" stroke-miterlimit="10" x1="205.579" y1="304.395" x2="246.668" y2="297.99"/>
<path stroke="#000000" stroke-width="0.6489" stroke-miterlimit="10" d="M211.507,323.62"/>
<line stroke="#000000" stroke-width="0.6489" stroke-miterlimit="10" x1="211.507" y1="323.62" x2="242.893" y2="319.672"/>
<line stroke="#000000" stroke-width="0.6489" stroke-miterlimit="10" x1="216.223" y1="338.913" x2="239.928" y2="336.704"/>
<line stroke="#000000" stroke-width="0.6489" stroke-miterlimit="10" x1="236.393" y1="352.736" x2="220.485" y2="352.736"/>
<path fill="#025E14" d="M231.129,387.253c0,0-39.009-30.788-34.105-110.604L231.129,387.253z"/>
<path fill="#025E14" d="M251.569,269.835l-20.441,117.417C231.129,387.253,251.569,377.878,251.569,269.835z"/>
<path fill="#D8BF8D" d="M643.35,246.063l-173.361,9.085c0,0-10.625-53.774-47.743-29.935c0,0-56.661,87.19,35.136,56.672
	l198.286,6.48"/>
<path fill="#96865C" d="M-8.055,331.246l206.524-5.792c0,0,7.096-54.353,45.69-32.984c0,0,62.226,83.31-31.366,58.842L-5.667,375"/>
<path fill="#96865C" d="M-8.055,178.967l190.168,5.58c0,0,7.096-54.353,45.69-32.984c0,0,62.226,83.31-31.366,58.842L-2.333,227.92"
	/>
<g>
	<path fill="#FFFFFF" d="M420.135,344.624h5.935l-1.624,7.734c-1.622,0.525-3.312,0.788-5.069,0.788
		c-1.692,0-3.006-0.493-3.939-1.479c-0.935-0.986-1.401-2.383-1.401-4.193c0-1.732,0.356-3.295,1.07-4.689
		c0.713-1.395,1.691-2.457,2.933-3.186c1.242-0.729,2.688-1.094,4.335-1.094c1.725,0,3.178,0.347,4.358,1.041l-1.431,3.006
		c-0.992-0.583-1.984-0.875-2.977-0.875c-0.856,0-1.613,0.235-2.271,0.705c-0.659,0.471-1.184,1.166-1.576,2.087
		s-0.589,1.904-0.589,2.948c0,1.712,0.678,2.568,2.033,2.568c0.409,0,0.84-0.045,1.294-0.136l0.496-2.257h-2.228L420.135,344.624z"
		/>
	<path fill="#FFFFFF" d="M435.662,338.504c1.687,0,2.998,0.481,3.936,1.444c0.937,0.963,1.405,2.308,1.405,4.033
		s-0.322,3.303-0.968,4.733s-1.535,2.526-2.671,3.288c-1.135,0.762-2.451,1.143-3.949,1.143c-1.745,0-3.093-0.483-4.042-1.449
		c-0.951-0.966-1.426-2.309-1.426-4.028s0.334-3.298,1.002-4.738s1.578-2.538,2.729-3.293
		C432.829,338.882,434.157,338.504,435.662,338.504z M437.16,344.021c0-0.74-0.155-1.318-0.467-1.737s-0.762-0.627-1.353-0.627
		c-0.642,0-1.232,0.272-1.771,0.817c-0.538,0.544-0.968,1.294-1.289,2.247c-0.321,0.954-0.481,1.93-0.481,2.928
		c0,1.57,0.648,2.354,1.945,2.354c0.616,0,1.188-0.269,1.718-0.808c0.528-0.538,0.943-1.265,1.245-2.179
		S437.16,345.104,437.16,344.021z"/>
	<path fill="#FFFFFF" d="M451.354,338.728h4.027l-7.053,14.223h-4.242l-1.012-14.223h3.717l0.263,7.792v0.496
		c0,0.934-0.052,1.764-0.156,2.491h0.078c0.091-0.415,0.235-0.926,0.433-1.532c0.198-0.606,0.378-1.078,0.54-1.416L451.354,338.728z
		"/>
	<path fill="#FFFFFF" d="M460.052,338.728l0.078,0.214c-0.597,1.375-1.427,2.928-2.491,4.66h-2.812
		c0.221-0.525,0.439-1.068,0.657-1.629c0.217-0.561,0.611-1.643,1.182-3.245H460.052z"/>
	<path fill="#FFFFFF" d="M464.877,352.951h-3.804l2.306-11.081h-3.084l0.671-3.142h10.002l-0.691,3.142h-3.094L464.877,352.951z"/>
	<path fill="#FFFFFF" d="M410.318,372.492c0,1.44-0.477,2.561-1.43,3.361c-0.954,0.801-2.283,1.201-3.989,1.201
		c-0.714,0-1.388-0.079-2.023-0.238c-0.636-0.159-1.184-0.391-1.645-0.695v-3.405c0.545,0.344,1.169,0.632,1.873,0.866
		c0.704,0.233,1.341,0.35,1.912,0.35c0.479,0,0.843-0.101,1.089-0.302c0.247-0.201,0.37-0.486,0.37-0.856
		c0-0.175-0.039-0.339-0.117-0.491c-0.077-0.152-0.188-0.305-0.33-0.458s-0.525-0.488-1.148-1.007
		c-0.759-0.609-1.31-1.232-1.653-1.868s-0.516-1.333-0.516-2.092c0-0.85,0.212-1.613,0.637-2.291s1.024-1.203,1.8-1.576
		s1.643-0.56,2.603-0.56c1.55,0,2.944,0.347,4.184,1.041l-1.313,2.89c-1.109-0.571-2.053-0.856-2.831-0.856
		c-0.415,0-0.734,0.091-0.958,0.272c-0.225,0.182-0.336,0.448-0.336,0.798c0,0.318,0.108,0.615,0.326,0.89
		c0.217,0.276,0.63,0.644,1.24,1.104c0.765,0.564,1.333,1.158,1.702,1.78C410.134,370.975,410.318,371.688,410.318,372.492z"/>
	<path fill="#FFFFFF" d="M425.835,362.637l-1.936,9.067c-0.383,1.823-1.113,3.17-2.189,4.042c-1.076,0.872-2.539,1.308-4.388,1.308
		c-0.869,0-1.636-0.178-2.301-0.535c-0.665-0.357-1.177-0.856-1.537-1.499c-0.359-0.642-0.54-1.358-0.54-2.15
		c0-0.415,0.039-0.833,0.117-1.255l1.936-8.979h3.804l-1.896,8.882c-0.091,0.441-0.137,0.814-0.137,1.119
		c0,0.824,0.393,1.235,1.178,1.235c0.609,0,1.088-0.209,1.435-0.627s0.611-1.059,0.793-1.921l1.858-8.688H425.835z"/>
	<path fill="#FFFFFF" d="M429.026,362.637h4.738c1.407,0,2.474,0.268,3.2,0.803c0.727,0.535,1.09,1.302,1.09,2.301
		c0,1.868-0.963,3.09-2.89,3.667v0.078c0.57,0.188,1.024,0.518,1.362,0.988c0.337,0.47,0.506,1.046,0.506,1.727
		c0,1.485-0.495,2.633-1.483,3.444c-0.989,0.811-2.392,1.216-4.208,1.216h-5.321L429.026,362.637z M431.099,370.906l-0.643,2.987
		h0.798c0.558,0,1.023-0.157,1.396-0.472s0.56-0.708,0.56-1.182c0-0.448-0.107-0.781-0.321-1.002s-0.59-0.331-1.129-0.331H431.099z
		 M431.673,368.095h0.7c0.57,0,1.002-0.123,1.294-0.37c0.292-0.246,0.438-0.642,0.438-1.187c0-0.661-0.412-0.992-1.235-0.992h-0.613
		L431.673,368.095z"/>
	<path fill="#FFFFFF" d="M447.832,372.492c0,1.44-0.477,2.561-1.43,3.361c-0.954,0.801-2.283,1.201-3.989,1.201
		c-0.714,0-1.388-0.079-2.023-0.238c-0.636-0.159-1.184-0.391-1.645-0.695v-3.405c0.545,0.344,1.169,0.632,1.873,0.866
		c0.704,0.233,1.341,0.35,1.912,0.35c0.479,0,0.843-0.101,1.089-0.302c0.247-0.201,0.37-0.486,0.37-0.856
		c0-0.175-0.039-0.339-0.117-0.491c-0.077-0.152-0.188-0.305-0.33-0.458s-0.525-0.488-1.148-1.007
		c-0.759-0.609-1.31-1.232-1.653-1.868s-0.516-1.333-0.516-2.092c0-0.85,0.212-1.613,0.637-2.291s1.024-1.203,1.8-1.576
		s1.643-0.56,2.603-0.56c1.55,0,2.944,0.347,4.184,1.041l-1.313,2.89c-1.109-0.571-2.053-0.856-2.831-0.856
		c-0.415,0-0.734,0.091-0.958,0.272c-0.225,0.182-0.336,0.448-0.336,0.798c0,0.318,0.108,0.615,0.326,0.89
		c0.217,0.276,0.63,0.644,1.24,1.104c0.765,0.564,1.333,1.158,1.702,1.78C447.647,370.975,447.832,371.688,447.832,372.492z"/>
	<path fill="#FFFFFF" d="M449.544,376.86l3.006-14.223h3.862l-3.006,14.223H449.544z"/>
	<path fill="#FFFFFF" d="M469.321,368.017c0,1.816-0.32,3.39-0.963,4.723c-0.642,1.333-1.574,2.353-2.797,3.06
		c-1.223,0.707-2.671,1.061-4.344,1.061h-4.582l3.006-14.223h4.047c1.79,0,3.177,0.469,4.159,1.406S469.321,366.305,469.321,368.017
		z M461.792,373.708c0.713,0,1.351-0.227,1.911-0.681c0.562-0.454,0.997-1.101,1.309-1.941s0.467-1.798,0.467-2.875
		c0-0.811-0.175-1.425-0.525-1.843c-0.35-0.418-0.84-0.627-1.469-0.627h-0.69l-1.674,7.968H461.792z"/>
	<path fill="#FFFFFF" d="M476.336,367.91l3.035-5.273h4.242l-5.954,8.707l-1.177,5.516h-3.805l1.168-5.516l-2.306-8.707h3.921
		L476.336,367.91z"/>
</g>
</svg>
