<?xml version="1.0" encoding="utf-8"?>
<!-- Generator: Adobe Illustrator 17.0.0, SVG Export Plug-In . SVG Version: 6.00 Build 0)  -->
<!DOCTYPE svg PUBLIC "-//W3C//DTD SVG 1.1//EN" "http://www.w3.org/Graphics/SVG/1.1/DTD/svg11.dtd">
<svg version="1.1" id="Layer_1" xmlns="http://www.w3.org/2000/svg" xmlns:xlink="http://www.w3.org/1999/xlink" x="0px" y="0px"
	 width="640px" height="431.597px" viewBox="0 0 640 431.597" enable-background="new 0 0 640 431.597" xml:space="preserve">
<ellipse fill="#CED13B" cx="134.349" cy="154.53" rx="59.563" ry="54.208"/>
<polygon opacity="0.5" fill="#CED13B" points="170.629,115.92 366.962,195.639 133.467,406.052 92.53,183.561 "/>
<path fill="#87A57E" d="M106.931,417.91c0,0,231.634-124.761,415.522-117.072l26.945-92.181l-28.363-73.745
	C521.035,134.912,385.296,108.75,106.931,417.91z"/>
<polyline fill="#3E5E33" points="176.421,346.067 184.28,372.349 184.93,381.973 "/>
<path fill="#3E5E33" d="M184.28,372.349v-48.932C184.28,323.417,180.915,368.985,184.28,372.349z"/>
<path fill="none" stroke="#3E5E33" stroke-width="7.0908" stroke-miterlimit="10" d="M521.035,134.912
	c0,0-127.635-32.618-405.595,277.96"/>
<path fill="none" stroke="#3E5E33" stroke-width="7.0908" stroke-miterlimit="10" d="M549.398,208.657
	c0,0-180.107-17.018-433.958,204.216c0,0,234.623-118.42,407.013-112.035"/>
<path fill="#1F5F75" d="M294.377,250.542c0,0-9.046,18.092-9.969,36.368c0,0-0.185,6.646,11.63,2.4c0,0,1.661-14.584,2.215-19.384
	c0,0-4.246,21.046,0,42.276c0,0,10.523,6.277,21.784-1.108c0,0,5.099-8.824-15.358-64.687
	C304.68,246.407,303.423,248.512,294.377,250.542z"/>
<circle fill="#B2905F" cx="398.127" cy="177.339" r="22.809"/>
<rect x="364.165" y="255.071" transform="matrix(-0.7334 -0.6798 0.6798 -0.7334 433.2416 764.6699)" fill="#604001" width="4.786" height="84.626"/>
<circle fill="#826548" cx="291.292" cy="235.956" r="18.791"/>
<line fill="none" stroke="#604001" stroke-width="1.4182" stroke-miterlimit="10" x1="366.219" y1="182.775" x2="427.436" y2="160.203"/>
<polygon fill="#604001" points="419.921,162.608 402.871,145.846 370.424,163.516 372.231,180.597 "/>
<line fill="none" stroke="#604001" stroke-width="1.035" stroke-miterlimit="10" x1="266.92" y1="239.693" x2="308.577" y2="216.622"/>
<path fill="#B2905F" d="M391.085,246.645l-6.027,25.532c0,0,0.59-3.866-5.013,4.111c0,0,0.885,11.221,9.73,4.734
	c0,0,4.718,2.064,2.359-6.192l7.051-28.424L391.085,246.645z"/>
<polygon fill="#474715" points="404.509,278.267 403.091,311.237 436.181,304.058 433.122,275.061 "/>
<rect x="265.693" y="296.368" transform="matrix(-0.7334 -0.6798 0.6798 -0.7334 241.7883 750.6686)" fill="#604001" width="4.786" height="63.112"/>
<polygon fill="#604001" points="303.459,219.668 289.423,209.3 267.784,225.387 270.837,237.545 "/>
<path fill="#1F5F75" d="M399.546,200.148c0,0-11.582,23.163-12.763,46.563c0,0-0.236,8.509,14.891,3.073
	c0,0,2.127-18.673,2.836-24.818c0,0-5.436,26.945,0,54.127c0,0,13.473,8.036,27.891-1.418c0,0,6.528-11.297-19.663-82.82
	C412.737,194.854,411.127,197.548,399.546,200.148z"/>
<path fill="#826548" d="M287.769,286.859l-4.707,19.942c0,0,0.461-3.02-3.915,3.211c0,0,0.691,8.764,7.6,3.698
	c0,0,3.685,1.612,1.842-4.836l5.507-22.201L287.769,286.859z"/>
<polygon fill="#474715" points="298.254,311.557 297.146,337.309 322.992,331.702 320.602,309.053 "/>
<circle cx="284.408" cy="245.477" r="0.931"/>
<circle cx="280.078" cy="247.382" r="0.931"/>
<circle cx="391.678" cy="190.038" r="1.277"/>
<circle cx="385.296" cy="191.229" r="1.277"/>
<path d="M285.621,253.874c0,0,1.706-2.318,8.475-4.445"/>
<path d="M388.322,198.883c0,0,2.191-1.867,9.267-2.39"/>
<path fill="#3E5E33" d="M184.93,381.973c0,0-7.564-2.795,11.345-35.906S184.93,381.973,184.93,381.973z"/>
<path fill="#3E5E33" d="M243.528,359.977c0,0-7.564-2.795,11.345-35.906S243.528,359.977,243.528,359.977z"/>
<polyline fill="#3E5E33" points="235.019,324.071 242.878,350.353 243.528,359.977 "/>
<path fill="#3E5E33" d="M242.878,350.353v-48.932C242.878,301.421,239.513,346.989,242.878,350.353z"/>
<path fill="#3E5E33" d="M323.638,332.432c0,0-7.564-2.795,11.345-35.906S323.638,332.432,323.638,332.432z"/>
<polyline fill="#3E5E33" points="315.129,296.526 322.987,322.808 323.638,332.432 "/>
<path fill="#3E5E33" d="M322.987,322.808v-48.933C322.987,273.875,319.623,319.443,322.987,322.808z"/>
<path fill="#3E5E33" d="M340.181,330.258c0,0-7.564-2.795,11.345-35.906C370.435,261.241,340.181,330.258,340.181,330.258z"/>
<polyline fill="#3E5E33" points="331.672,294.352 339.531,320.634 340.181,330.258 "/>
<path fill="#3E5E33" d="M339.531,320.634v-48.932C339.531,271.702,336.166,317.27,339.531,320.634z"/>
<path fill="#3E5E33" d="M221.711,371.302c0,0-7.564-2.795,11.345-35.906S221.711,371.302,221.711,371.302z"/>
<polyline fill="#3E5E33" points="213.202,335.396 221.061,361.679 221.711,371.302 "/>
<path fill="#3E5E33" d="M221.061,361.679v-48.932C221.061,312.746,217.696,358.314,221.061,361.679z"/>
<path fill="#3E5E33" d="M457.761,305.415c0,0-7.564-2.795,11.345-35.906C488.015,236.398,457.761,305.415,457.761,305.415z"/>
<polyline fill="#3E5E33" points="449.252,269.509 457.11,295.791 457.761,305.415 "/>
<path fill="#3E5E33" d="M457.11,295.791v-48.932C457.11,246.859,453.746,292.427,457.11,295.791z"/>
<path fill="#3E5E33" d="M491.093,303.154c0,0-7.564-2.795,11.345-35.906S491.093,303.154,491.093,303.154z"/>
<polyline fill="#3E5E33" points="482.584,267.248 490.443,293.53 491.093,303.154 "/>
<path fill="#3E5E33" d="M490.443,293.53v-48.932C490.443,244.597,487.078,290.165,490.443,293.53z"/>
<path fill="#3E5E33" d="M491.093,212.053c0,0-7.564-2.795,11.345-35.906S491.093,212.053,491.093,212.053z"/>
<polyline fill="#3E5E33" points="482.584,176.147 490.443,202.43 491.093,212.053 "/>
<path fill="#3E5E33" d="M490.443,202.43v-48.933C490.443,153.497,487.078,199.065,490.443,202.43z"/>
<path fill="#3E5E33" d="M441.631,224.132c0,0-7.564-2.795,11.345-35.906C471.885,155.114,441.631,224.132,441.631,224.132z"/>
<polyline fill="#3E5E33" points="433.122,188.226 440.981,214.508 441.631,224.132 "/>
<path fill="#3E5E33" d="M440.981,214.508v-48.933C440.981,165.575,437.616,211.144,440.981,214.508z"/>
<path fill="#3E5E33" d="M348.04,260.986c0,0-7.564-2.795,11.345-35.906C378.294,191.969,348.04,260.986,348.04,260.986z"/>
<polyline fill="#3E5E33" points="339.531,225.08 347.389,251.362 348.04,260.986 "/>
<path fill="#3E5E33" d="M347.389,251.362V202.43C347.389,202.43,344.025,247.998,347.389,251.362z"/>
<path fill="#3E5E33" d="M221.711,303.154c0,0-7.564-2.795,11.345-35.906S221.711,303.154,221.711,303.154z"/>
<polyline fill="#3E5E33" points="213.202,267.248 221.061,293.53 221.711,303.154 "/>
<path fill="#3E5E33" d="M221.061,293.53v-48.932C221.061,244.597,217.696,290.165,221.061,293.53z"/>
<path fill="#3E5E33" d="M327.892,217.504c0,0-7.564-2.795,11.345-35.906C358.146,148.487,327.892,217.504,327.892,217.504z"/>
<polyline fill="#3E5E33" points="319.383,181.598 327.242,207.88 327.892,217.504 "/>
<path fill="#3E5E33" d="M327.242,207.88v-48.932C327.242,158.948,323.877,204.516,327.242,207.88z"/>
<path fill="#3E5E33" d="M431.655,151.565c0,0-7.564-2.795,11.345-35.906C461.909,82.548,431.655,151.565,431.655,151.565z"/>
<polyline fill="#3E5E33" points="423.146,118.161 431.004,144.443 431.655,154.067 "/>
<path fill="#3E5E33" d="M431.004,144.443V95.51C431.004,95.51,427.64,141.078,431.004,144.443z"/>
<path fill="#C73A22" d="M620.919,51.597c0,3.963-5.063,7.176-11.308,7.176H27.601c-6.245,0-11.308-3.213-11.308-7.176V19.305
	c0-3.963,5.063-7.176,11.308-7.176h582.009c6.245,0,11.308,3.213,11.308,7.176V51.597z"/>
<line fill="none" stroke="#FFFFFF" stroke-width="8" stroke-miterlimit="10" x1="51.924" y1="35.451" x2="585.288" y2="35.451"/>
<circle fill="#D58C84" cx="51.924" cy="35.451" r="10.368"/>
<circle fill="#FFFFFF" cx="318.606" cy="35.451" r="10.368"/>
<circle fill="#FFFFFF" cx="585.288" cy="35.451" r="10.368"/>
<circle fill="#FFFFFF" cx="185.265" cy="35.451" r="10.368"/>
<circle fill="#FFFFFF" cx="451.947" cy="35.451" r="10.368"/>
<line fill="none" stroke="#D58C84" stroke-width="8" stroke-miterlimit="10" x1="51.924" y1="35.451" x2="119.207" y2="35.451"/>
</svg>
