<?xml version="1.0" encoding="utf-8"?>
<!-- Generator: Adobe Illustrator 17.0.0, SVG Export Plug-In . SVG Version: 6.00 Build 0)  -->
<!DOCTYPE svg PUBLIC "-//W3C//DTD SVG 1.1//EN" "http://www.w3.org/Graphics/SVG/1.1/DTD/svg11.dtd">
<svg version="1.1" id="Layer_1" xmlns="http://www.w3.org/2000/svg" xmlns:xlink="http://www.w3.org/1999/xlink" x="0px" y="0px"
	 width="510px" height="962px" viewBox="0 0 510 962" enable-background="new 0 0 510 962" xml:space="preserve">
<path fill="#7E99AE" d="M219.882,266.813c0,0-52.754,172.252-41.088,207.729s179.982,3.346,179.982,3.346
	s-4.358-122.547-52.509-228.263S219.882,266.813,219.882,266.813"/>
<path fill="#C09C67" d="M364.107,352.969c0,0,6.202,77.081-21.185,89.981l-9.94-4.692l7.807-80.859L364.107,352.969z"/>
<path fill="#4F7698" d="M271.297,303.244L271.297,303.244c0-2.104-1.703-3.807-3.807-3.807h-35.365l0,0
	c-2.104,0-3.807,1.703-3.807,3.807v41.552c0,0.006,0,0.012,0,0.017c0.006,2.089,1.7,3.778,3.79,3.772h5.427
	c1.245,4.389,5.268,7.404,9.827,7.372c4.565,0.012,8.585-2.991,9.871-7.372h24.589c1.245,4.389,5.268,7.404,9.828,7.372
	c4.545-0.009,8.542-3.009,9.819-7.372h4.712c0.006,0,0.012,0,0.017,0c2.089-0.006,3.778-1.7,3.772-3.79V327.83
	c0-1.268-0.363-2.51-1.04-3.582l-11.136-17.519c-0.755-1.187-2.066-1.902-3.473-1.896h-16.848l0,0c-1.458,0-2.643,1.182-2.643,2.643
	l-2.827-3.064 M252.48,345.701c0.006,2.824-2.283,5.118-5.107,5.124s-5.118-2.283-5.124-5.107c0.04-2.81,2.306-5.078,5.115-5.124
	C250.186,340.594,252.474,342.879,252.48,345.701z M286.536,345.718c0.04-2.81,2.306-5.078,5.115-5.124
	c2.824,0.009,5.11,2.3,5.116,5.124c-0.046,2.807-2.308,5.069-5.116,5.115C288.83,350.825,286.545,348.54,286.536,345.718z
	 M301.73,323.856c0.095,0.15,0.144,0.323,0.147,0.499c0.003,0.519-0.415,0.942-0.934,0.945H285.94c-0.006,0-0.012,0-0.017,0
	c-0.519-0.009-0.931-0.438-0.922-0.957v-12.361l0,0c0-0.519,0.421-0.94,0.94-0.94h7.113c0.32,0.003,0.617,0.167,0.79,0.435
	l7.874,12.378h0.012V323.856z"/>
<polyline fill="#725122" points="157.162,120.325 177.111,352.969 224.949,287.684 216.098,123.683 "/>
<polyline fill="#725122" points="359.038,109.616 339.089,342.26 301.929,262.916 300.102,112.974 "/>
<path fill="#7E99AE" d="M310.373,247.515c0,0,40.973,49.019,53.734,105.454l-26.912,11.779l-44.097-98.108l17.822-17.822"/>
<path fill="#7E99AE" d="M218.277,254.665c0,0-42.532,53.734-55.296,110.169l37.471,16.563l35.097-107.61l-17.822-17.822"/>
<path fill="#C09C67" d="M162.981,364.834c0,0,5.617,71.156,34.362,80.649l16.672,2.395l-17.534-79.32L162.981,364.834z"/>
<path fill="#859BAD" d="M251.44,305.59"/>
<path fill="#9EB1BE" d="M216.098,43.651c0,0,10.444-23.021,22.252-27.281c0,0,32.356-11.147,39.956,12.704"/>
<path fill="#C09C67" d="M158.254,112.723c0,0-14.923,150.813,103.886,161.171c0,0,123.639-11.196,92.678-186.443"/>
<polygon fill="#725122" points="157.162,120.325 158.992,154.699 360.378,148.353 358.516,109.616 "/>
<path fill="#7E99AE" d="M164.517,112.792c0,0-13.81,31.693,41.431,28.661l131.201-4.092c0,0,35.241-2.7,5.179-49.913"/>
<path fill="#4F7698" d="M157.162,120.325c0,0,94.528,4.092,201.006-8.606c0,0,11.335-76.254-94.834-88.151
	C263.331,23.569,167.586,28.575,157.162,120.325z"/>
<ellipse transform="matrix(-0.9856 -0.1688 0.1688 -0.9856 469.0739 397.2183)" cx="251.422" cy="178.67" rx="6.187" ry="6.96"/>
<ellipse transform="matrix(-0.9856 -0.1688 0.1688 -0.9856 522.9199 395.8429)" cx="278.286" cy="175.694" rx="6.187" ry="6.96"/>
<path fill="none" stroke="#000000" stroke-width="2.3018" stroke-miterlimit="10" d="M245.402,235.154c0,0,25.903,9.208,35.857,0"/>
<line fill="none" stroke="#000000" stroke-width="1.4194" stroke-miterlimit="10" x1="243.719" y1="169.913" x2="247.085" y2="177.455"/>
<line fill="none" stroke="#000000" stroke-width="1.4194" stroke-miterlimit="10" x1="251.44" y1="168.751" x2="251.44" y2="175.694"/>
<line fill="none" stroke="#000000" stroke-width="1.4194" stroke-miterlimit="10" x1="260.426" y1="171.728" x2="255.296" y2="175.694"/>
<line fill="none" stroke="#000000" stroke-width="1.4194" stroke-miterlimit="10" x1="270.913" y1="168.751" x2="274.262" y2="174.555"/>
<line fill="none" stroke="#000000" stroke-width="1.4194" stroke-miterlimit="10" x1="278.306" y1="165.63" x2="278.948" y2="174.555"/>
<line fill="none" stroke="#000000" stroke-width="1.4194" stroke-miterlimit="10" x1="285.193" y1="170.094" x2="281.26" y2="174.028"/>
<path fill="#553B14" d="M200.76,389.452c2.234-5.654,6.931-2.706,4.47-3.559l130.178-0.297c0,0,3.153,0.401,3.012,4.588"/>
<path fill="#E33B3B" d="M221.992,396.778c-11.306,0.429-15.692-2.15-15.692-2.15c-4.015-10.228,4.591-34.313,4.591-34.313
	l21.938,0.957c0,0,8.525,20.168,4.513,33.356c0,0-0.597,1.721-15.692,2.15"/>
<path d="M211.32,355.344c0,0,11.609,5.162,20.929,1.721c0,0,5.735-3.692-8.219-5.162c0,0-11.562-1.245-13.139,3.009"/>
<path fill="#FFFFFF" stroke="#000000" stroke-width="0.2868" stroke-miterlimit="10" d="M211.055,354.99
	c0,0,11.914,5.873,22.234,0.427c0,0,0.112,4.611-0.464,5.853c0,0-13.093,2.389-21.938-0.957
	C210.888,360.315,210.34,358.624,211.055,354.99z"/>
<line fill="none" stroke="#000000" stroke-width="0.1721" stroke-miterlimit="10" x1="211.925" y1="353.658" x2="211.64" y2="360.586"/>
<line fill="none" stroke="#000000" stroke-width="0.1461" stroke-miterlimit="10" x1="213.254" y1="356.044" x2="212.966" y2="361.042"/>
<line fill="none" stroke="#000000" stroke-width="0.1461" stroke-miterlimit="10" x1="214.438" y1="356.347" x2="214.15" y2="361.344"/>
<line fill="none" stroke="#000000" stroke-width="0.1461" stroke-miterlimit="10" x1="215.219" y1="356.601" x2="214.931" y2="361.601"/>
<line fill="none" stroke="#000000" stroke-width="0.1721" stroke-miterlimit="10" x1="216.309" y1="355.064" x2="216.081" y2="361.445"/>
<line fill="none" stroke="#000000" stroke-width="0.1721" stroke-miterlimit="10" x1="232.569" y1="355.067" x2="232.376" y2="361.341"/>
<line fill="none" stroke="#000000" stroke-width="0.1721" stroke-miterlimit="10" x1="231.229" y1="355.88" x2="231.387" y2="361.341"/>
<line fill="none" stroke="#000000" stroke-width="0.1721" stroke-miterlimit="10" x1="217.237" y1="355.39" x2="217.237" y2="361.664"/>
<line fill="none" stroke="#000000" stroke-width="0.1721" stroke-miterlimit="10" x1="218.787" y1="355.86" x2="218.787" y2="361.883"/>
<line fill="none" stroke="#000000" stroke-width="0.1721" stroke-miterlimit="10" x1="219.753" y1="356.108" x2="219.522" y2="361.958"/>
<line fill="none" stroke="#000000" stroke-width="0.1761" stroke-miterlimit="10" x1="221.424" y1="356.301" x2="221.28" y2="361.958"/>
<line fill="none" stroke="#000000" stroke-width="0.1721" stroke-miterlimit="10" x1="218.133" y1="355.673" x2="218.015" y2="361.785"/>
<line fill="none" stroke="#000000" stroke-width="0.1721" stroke-miterlimit="10" x1="220.643" y1="356.301" x2="220.528" y2="361.883"/>
<line fill="none" stroke="#000000" stroke-width="0.1755" stroke-miterlimit="10" x1="223.038" y1="356.549" x2="223.038" y2="362.096"/>
<line fill="none" stroke="#000000" stroke-width="0.1807" stroke-miterlimit="10" x1="224.004" y1="356.451" x2="224.148" y2="362.073"/>
<line fill="none" stroke="#000000" stroke-width="0.1807" stroke-miterlimit="10" x1="222.355" y1="356.549" x2="222.153" y2="362.073"/>
<line fill="none" stroke="#000000" stroke-width="0.1643" stroke-miterlimit="10" x1="225.116" y1="357.704" x2="225.332" y2="361.996"/>
<line fill="none" stroke="#000000" stroke-width="0.1807" stroke-miterlimit="10" x1="226.658" y1="356.549" x2="226.799" y2="361.883"/>
<line fill="none" stroke="#000000" stroke-width="0.1807" stroke-miterlimit="10" x1="228.375" y1="356.451" x2="228.197" y2="361.785"/>
<line fill="none" stroke="#000000" stroke-width="0.1807" stroke-miterlimit="10" x1="229.883" y1="356.393" x2="230.165" y2="361.762"/>
<line fill="none" stroke="#000000" stroke-width="0.1807" stroke-miterlimit="10" x1="229.056" y1="356.301" x2="229.275" y2="361.664"/>
<path fill="none" stroke="#FFFFFF" stroke-width="0.8603" stroke-miterlimit="10" d="M213.755,375.89c0,0,3.222,8.62,0.49,10.79
	c0,0-2.942,2.804-5.395-0.421"/>
<path fill="none" stroke="#FFFFFF" stroke-width="0.8603" stroke-miterlimit="10" d="M217.862,387.812c0,0,0.069-14.15,1.963-12.539
	c0,0,3.222,0.7,4.553,12.122"/>
<line fill="none" stroke="#FFFFFF" stroke-width="0.8603" stroke-miterlimit="10" x1="218.038" y1="382.348" x2="223.537" y2="382.348"/>
<path fill="none" stroke="#FFFFFF" stroke-width="0.8603" stroke-miterlimit="10" d="M226.43,387.466c0,0-2.101-21.303,2.173-9.11
	c0,0,2.594-7.052,3.504-3.21l1.19,12.32"/>
<line fill="none" stroke="#FFFFFF" stroke-width="0.8603" stroke-miterlimit="10" x1="210.19" y1="376.1" x2="216.427" y2="375.694"/>
<path fill="#E33B3B" d="M251.852,394.029c-11.306,0.429-15.692-2.15-15.692-2.15c-4.015-10.228,4.591-34.313,4.591-34.313
	l21.938,0.957c0,0,8.525,20.168,4.513,33.356c0,0-0.597,1.721-15.692,2.15"/>
<path d="M241.18,352.595c0,0,11.609,5.162,20.929,1.721c0,0,5.735-3.692-8.219-5.162c0,0-11.562-1.245-13.139,3.009"/>
<path fill="#FFFFFF" stroke="#000000" stroke-width="0.2868" stroke-miterlimit="10" d="M240.915,352.24
	c0,0,11.914,5.873,22.234,0.427c0,0,0.112,4.611-0.464,5.853c0,0-13.093,2.389-21.938-0.957
	C240.748,357.563,240.2,355.871,240.915,352.24z"/>
<line fill="none" stroke="#000000" stroke-width="0.1721" stroke-miterlimit="10" x1="241.785" y1="350.909" x2="241.5" y2="357.837"/>
<line fill="none" stroke="#000000" stroke-width="0.1461" stroke-miterlimit="10" x1="243.114" y1="353.295" x2="242.826" y2="358.292"/>
<line fill="none" stroke="#000000" stroke-width="0.1461" stroke-miterlimit="10" x1="244.298" y1="353.598" x2="244.01" y2="358.595"/>
<line fill="none" stroke="#000000" stroke-width="0.1461" stroke-miterlimit="10" x1="245.079" y1="353.851" x2="244.791" y2="358.848"/>
<line fill="none" stroke="#000000" stroke-width="0.1721" stroke-miterlimit="10" x1="246.169" y1="352.315" x2="245.941" y2="358.696"/>
<line fill="none" stroke="#000000" stroke-width="0.1721" stroke-miterlimit="10" x1="262.429" y1="352.318" x2="262.233" y2="358.592"/>
<line fill="none" stroke="#000000" stroke-width="0.1721" stroke-miterlimit="10" x1="261.089" y1="353.131" x2="261.247" y2="358.592"/>
<line fill="none" stroke="#000000" stroke-width="0.1721" stroke-miterlimit="10" x1="247.097" y1="352.638" x2="247.097" y2="358.915"/>
<line fill="none" stroke="#000000" stroke-width="0.1721" stroke-miterlimit="10" x1="248.647" y1="353.11" x2="248.647" y2="359.131"/>
<line fill="none" stroke="#000000" stroke-width="0.1721" stroke-miterlimit="10" x1="249.613" y1="353.355" x2="249.382" y2="359.206"/>
<line fill="none" stroke="#000000" stroke-width="0.1761" stroke-miterlimit="10" x1="251.284" y1="353.551" x2="251.14" y2="359.206"/>
<line fill="none" stroke="#000000" stroke-width="0.1721" stroke-miterlimit="10" x1="247.993" y1="352.923" x2="247.875" y2="359.036"/>
<line fill="none" stroke="#000000" stroke-width="0.1721" stroke-miterlimit="10" x1="250.503" y1="353.551" x2="250.388" y2="359.131"/>
<line fill="none" stroke="#000000" stroke-width="0.1755" stroke-miterlimit="10" x1="252.898" y1="353.799" x2="252.898" y2="359.347"/>
<line fill="none" stroke="#000000" stroke-width="0.1807" stroke-miterlimit="10" x1="253.864" y1="353.701" x2="254.008" y2="359.324"/>
<line fill="none" stroke="#000000" stroke-width="0.1807" stroke-miterlimit="10" x1="252.215" y1="353.799" x2="252.01" y2="359.324"/>
<line fill="none" stroke="#000000" stroke-width="0.1643" stroke-miterlimit="10" x1="254.976" y1="354.955" x2="255.189" y2="359.246"/>
<line fill="none" stroke="#000000" stroke-width="0.1807" stroke-miterlimit="10" x1="256.518" y1="353.799" x2="256.659" y2="359.131"/>
<line fill="none" stroke="#000000" stroke-width="0.1807" stroke-miterlimit="10" x1="258.236" y1="353.701" x2="258.057" y2="359.036"/>
<line fill="none" stroke="#000000" stroke-width="0.1807" stroke-miterlimit="10" x1="259.743" y1="353.644" x2="260.025" y2="359.013"/>
<line fill="none" stroke="#000000" stroke-width="0.1807" stroke-miterlimit="10" x1="258.916" y1="353.551" x2="259.132" y2="358.915"/>
<path fill="none" stroke="#FFFFFF" stroke-width="0.8603" stroke-miterlimit="10" d="M243.615,373.14c0,0,3.222,8.62,0.49,10.79
	c0,0-2.942,2.804-5.395-0.421"/>
<path fill="none" stroke="#FFFFFF" stroke-width="0.8603" stroke-miterlimit="10" d="M247.722,385.063c0,0,0.069-14.15,1.963-12.539
	c0,0,3.222,0.7,4.554,12.122"/>
<line fill="none" stroke="#FFFFFF" stroke-width="0.8603" stroke-miterlimit="10" x1="247.898" y1="379.599" x2="253.397" y2="379.599"/>
<path fill="none" stroke="#FFFFFF" stroke-width="0.8603" stroke-miterlimit="10" d="M256.29,384.717c0,0-2.101-21.303,2.173-9.11
	c0,0,2.594-7.052,3.504-3.211l1.19,12.32"/>
<line fill="none" stroke="#FFFFFF" stroke-width="0.8603" stroke-miterlimit="10" x1="240.05" y1="373.35" x2="246.287" y2="372.944"/>
<path fill="#E33B3B" d="M278.908,395.689c-11.133-2.009-14.865-5.473-14.865-5.473c-1.723-10.851,11.856-32.523,11.856-32.523
	l21.217,5.649c0,0,3.992,21.528-2.764,33.546c0,0-0.951,1.553-15.787-1.274"/>
<path d="M277.392,352.929c0,0,10.228,7.536,20.07,6.179c0,0,6.395-2.372-6.92-6.807c0,0-11.023-3.703-13.479,0.115"/>
<path fill="#FFFFFF" stroke="#000000" stroke-width="0.2868" stroke-miterlimit="10" d="M277.207,352.525
	c0,0,10.372,8.297,21.623,5.193c0,0-0.879,4.528-1.709,5.617c0,0-13.3-0.481-21.217-5.649
	C275.902,357.69,275.729,355.92,277.207,352.525z"/>
<line fill="none" stroke="#000000" stroke-width="0.1721" stroke-miterlimit="10" x1="278.346" y1="351.413" x2="276.576" y2="358.116"/>
<line fill="none" stroke="#000000" stroke-width="0.1461" stroke-miterlimit="10" x1="279.13" y1="354.03" x2="277.775" y2="358.848"/>
<line fill="none" stroke="#000000" stroke-width="0.1461" stroke-miterlimit="10" x1="280.222" y1="354.58" x2="278.867" y2="359.399"/>
<line fill="none" stroke="#000000" stroke-width="0.1461" stroke-miterlimit="10" x1="280.928" y1="354.995" x2="279.574" y2="359.817"/>
<line fill="none" stroke="#000000" stroke-width="0.1721" stroke-miterlimit="10" x1="282.323" y1="353.73" x2="280.729" y2="359.912"/>
<line fill="none" stroke="#000000" stroke-width="0.1721" stroke-miterlimit="10" x1="296.545" y1="357.229" x2="295.007" y2="363.313"/>
<line fill="none" stroke="#000000" stroke-width="0.1721" stroke-miterlimit="10" x1="295.061" y1="357.733" x2="294.041" y2="363.102"/>
<line fill="none" stroke="#000000" stroke-width="0.1721" stroke-miterlimit="10" x1="283.159" y1="354.246" x2="281.81" y2="360.376"/>
<line fill="none" stroke="#000000" stroke-width="0.1721" stroke-miterlimit="10" x1="284.574" y1="355.038" x2="283.28" y2="360.921"/>
<line fill="none" stroke="#000000" stroke-width="0.1721" stroke-miterlimit="10" x1="285.464" y1="355.485" x2="283.98" y2="361.151"/>
<line fill="none" stroke="#000000" stroke-width="0.1761" stroke-miterlimit="10" x1="287.052" y1="356.036" x2="285.698" y2="361.529"/>
<line fill="none" stroke="#000000" stroke-width="0.1721" stroke-miterlimit="10" x1="283.974" y1="354.716" x2="282.545" y2="360.658"/>
<line fill="none" stroke="#000000" stroke-width="0.1721" stroke-miterlimit="10" x1="286.289" y1="355.868" x2="284.98" y2="361.295"/>
<line fill="none" stroke="#000000" stroke-width="0.1755" stroke-miterlimit="10" x1="288.577" y1="356.624" x2="287.384" y2="362.042"/>
<line fill="none" stroke="#000000" stroke-width="0.1807" stroke-miterlimit="10" x1="289.542" y1="356.736" x2="288.473" y2="362.258"/>
<line fill="none" stroke="#000000" stroke-width="0.1807" stroke-miterlimit="10" x1="287.911" y1="356.479" x2="286.525" y2="361.828"/>
<line fill="none" stroke="#000000" stroke-width="0.1643" stroke-miterlimit="10" x1="290.358" y1="358.2" x2="289.646" y2="362.436"/>
<line fill="none" stroke="#000000" stroke-width="0.1807" stroke-miterlimit="10" x1="292.11" y1="357.402" x2="291.104" y2="362.641"/>
<line fill="none" stroke="#000000" stroke-width="0.1807" stroke-miterlimit="10" x1="293.81" y1="357.675" x2="292.491" y2="362.849"/>
<line fill="none" stroke="#000000" stroke-width="0.1807" stroke-miterlimit="10" x1="293.635" y1="357.944" x2="292.759" y2="363.249"/>
<line fill="none" stroke="#000000" stroke-width="0.1807" stroke-miterlimit="10" x1="292.848" y1="357.675" x2="291.908" y2="362.961"/>
<path fill="none" stroke="#FFFFFF" stroke-width="0.8603" stroke-miterlimit="10" d="M275.354,373.521c0,0,1.297,9.11-1.842,10.646
	c0,0-3.476,2.104-5.179-1.571"/>
<path fill="none" stroke="#FFFFFF" stroke-width="0.8603" stroke-miterlimit="10" d="M276.801,386.046c0,0,3.11-13.805,4.611-11.825
	c0,0,2.997,1.378,1.842,12.819"/>
<line fill="none" stroke="#FFFFFF" stroke-width="0.8603" stroke-miterlimit="10" x1="278.15" y1="380.748" x2="283.519" y2="381.93"/>
<path fill="none" stroke="#FFFFFF" stroke-width="0.8603" stroke-miterlimit="10" d="M285.242,387.547c0,0,2.525-21.257,4.081-8.43
	c0,0,4.049-6.332,4.113-2.383l-1.484,12.289"/>
<line fill="none" stroke="#FFFFFF" stroke-width="0.8603" stroke-miterlimit="10" x1="271.827" y1="372.959" x2="278.006" y2="373.901"/>
<path fill="#E33B3B" d="M317.056,394.055c-11.035,2.487-15.822,0.752-15.822,0.752c-5.816-9.323-1.752-34.575-1.752-34.575
	l21.742-3.066c0,0,12.067,18.272,10.528,31.973c0,0-0.271,1.801-15.035,4.98"/>
<path d="M298.998,355.266c0,0,12.355,2.954,20.891-2.13c0,0,4.963-4.677-9.023-3.574c0,0-11.594,0.885-12.369,5.358"/>
<path fill="#FFFFFF" stroke="#000000" stroke-width="0.2868" stroke-miterlimit="10" d="M298.672,354.966
	c0,0,12.787,3.6,21.938-3.643c0,0,0.954,4.513,0.614,5.839c0,0-12.439,4.741-21.742,3.066
	C299.482,360.232,298.632,358.67,298.672,354.966z"/>
<line fill="none" stroke="#000000" stroke-width="0.1721" stroke-miterlimit="10" x1="299.286" y1="353.5" x2="300.269" y2="360.361"/>
<line fill="none" stroke="#000000" stroke-width="0.1461" stroke-miterlimit="10" x1="301.027" y1="355.603" x2="301.658" y2="360.569"/>
<line fill="none" stroke="#000000" stroke-width="0.1461" stroke-miterlimit="10" x1="302.249" y1="355.684" x2="302.877" y2="360.65"/>
<line fill="none" stroke="#000000" stroke-width="0.1461" stroke-miterlimit="10" x1="303.062" y1="355.791" x2="303.693" y2="360.759"/>
<line fill="none" stroke="#000000" stroke-width="0.1721" stroke-miterlimit="10" x1="303.854" y1="354.082" x2="304.794" y2="360.396"/>
<line fill="none" stroke="#000000" stroke-width="0.1721" stroke-miterlimit="10" x1="319.84" y1="351.116" x2="320.794" y2="357.321"/>
<line fill="none" stroke="#000000" stroke-width="0.1721" stroke-miterlimit="10" x1="318.67" y1="352.159" x2="319.826" y2="357.5"/>
<line fill="none" stroke="#000000" stroke-width="0.1721" stroke-miterlimit="10" x1="304.822" y1="354.232" x2="305.969" y2="360.402"/>
<line fill="none" stroke="#000000" stroke-width="0.1721" stroke-miterlimit="10" x1="306.434" y1="354.41" x2="307.534" y2="360.333"/>
<line fill="none" stroke="#000000" stroke-width="0.1721" stroke-miterlimit="10" x1="307.428" y1="354.477" x2="308.272" y2="360.269"/>
<line fill="none" stroke="#000000" stroke-width="0.1761" stroke-miterlimit="10" x1="309.108" y1="354.364" x2="309.998" y2="359.949"/>
<line fill="none" stroke="#000000" stroke-width="0.1721" stroke-miterlimit="10" x1="305.759" y1="354.347" x2="306.756" y2="360.376"/>
<line fill="none" stroke="#000000" stroke-width="0.1721" stroke-miterlimit="10" x1="308.338" y1="354.505" x2="309.246" y2="360.013"/>
<line fill="none" stroke="#000000" stroke-width="0.1755" stroke-miterlimit="10" x1="310.739" y1="354.312" x2="311.751" y2="359.765"/>
<line fill="none" stroke="#000000" stroke-width="0.1807" stroke-miterlimit="10" x1="311.673" y1="354.038" x2="312.84" y2="359.54"/>
<line fill="none" stroke="#000000" stroke-width="0.1807" stroke-miterlimit="10" x1="310.068" y1="354.436" x2="310.877" y2="359.906"/>
<line fill="none" stroke="#000000" stroke-width="0.1643" stroke-miterlimit="10" x1="312.993" y1="355.067" x2="313.987" y2="359.249"/>
<line fill="none" stroke="#000000" stroke-width="0.1807" stroke-miterlimit="10" x1="314.298" y1="353.652" x2="315.414" y2="358.869"/>
<line fill="none" stroke="#000000" stroke-width="0.1807" stroke-miterlimit="10" x1="315.97" y1="353.24" x2="316.768" y2="358.517"/>
<line fill="none" stroke="#000000" stroke-width="0.1807" stroke-miterlimit="10" x1="317.44" y1="352.909" x2="318.699" y2="358.137"/>
<line fill="none" stroke="#000000" stroke-width="0.1807" stroke-miterlimit="10" x1="316.613" y1="352.969" x2="317.806" y2="358.203"/>
<path fill="none" stroke="#FFFFFF" stroke-width="0.8603" stroke-miterlimit="10" d="M305.145,375.022c0,0,4.744,7.885,2.453,10.519
	c0,0-2.38,3.294-5.381,0.571"/>
<path fill="none" stroke="#FFFFFF" stroke-width="0.8603" stroke-miterlimit="10" d="M311.359,385.994c0,0-2.516-13.926-0.36-12.686
	c0,0,3.297,0.101,6.692,11.087"/>
<line fill="none" stroke="#FFFFFF" stroke-width="0.8603" stroke-miterlimit="10" x1="310.537" y1="380.59" x2="315.941" y2="379.587"/>
<path fill="none" stroke="#FFFFFF" stroke-width="0.8603" stroke-miterlimit="10" d="M319.719,384.089c0,0-5.957-20.56,0.473-9.352
	c0,0,1.262-7.407,2.859-3.798l3.421,11.897"/>
<line fill="none" stroke="#FFFFFF" stroke-width="0.8603" stroke-miterlimit="10" x1="301.678" y1="375.881" x2="307.736" y2="374.342"/>
<path fill="#553B14" d="M200.76,389.452c0,0,115.019,1.052,137.66-0.101c0,0,6.381,57.213-5.62,60.187
	c0,0-120.308,7.314-129.812,1.545C202.988,451.08,190.132,409.787,200.76,389.452z"/>
<rect x="56.844" y="456.648" fill="#C73A22" width="406.193" height="66.455"/>
<rect x="58.778" y="470.951" fill="none" width="404.314" height="38.979"/>
<g enable-background="new    ">
	<path fill="#FFFFFF" d="M123.596,486.444c0,4.464-0.789,8.336-2.368,11.612c-1.579,3.279-3.871,5.786-6.878,7.526
		c-3.006,1.737-6.566,2.606-10.681,2.606H92.401l7.392-34.975h9.952c4.402,0,7.81,1.151,10.228,3.456
		C122.388,478.974,123.596,482.233,123.596,486.444z M105.08,500.437c1.755,0,3.321-0.557,4.701-1.675
		c1.379-1.117,2.451-2.707,3.217-4.773c0.766-2.066,1.148-4.421,1.148-7.067c0-1.995-0.431-3.507-1.292-4.534
		c-0.861-1.03-2.066-1.545-3.612-1.545h-1.699l-4.115,19.594H105.08z"/>
	<path fill="#FFFFFF" d="M125.869,508.188l7.392-34.975h9.497l-7.392,34.975H125.869z"/>
	<path fill="#FFFFFF" d="M165.891,497.448c0,3.541-1.172,6.293-3.517,8.263c-2.344,1.97-5.613,2.955-9.808,2.955
		c-1.755,0-3.412-0.194-4.976-0.585s-2.91-0.963-4.043-1.711v-8.373c1.34,0.844,2.875,1.556,4.606,2.13
		c1.729,0.574,3.297,0.861,4.7,0.861c1.181,0,2.073-0.248,2.679-0.743s0.909-1.196,0.909-2.105c0-0.431-0.096-0.833-0.287-1.207
		c-0.191-0.374-0.463-0.751-0.813-1.126c-0.35-0.374-1.292-1.199-2.823-2.474c-1.866-1.5-3.221-3.031-4.067-4.593
		c-0.846-1.565-1.268-3.279-1.268-5.145c0-2.088,0.522-3.968,1.566-5.634c1.046-1.666,2.52-2.958,4.427-3.875
		c1.905-0.918,4.039-1.376,6.399-1.376c3.812,0,7.24,0.856,10.287,2.561l-3.23,7.104c-2.727-1.402-5.048-2.105-6.961-2.105
		c-1.02,0-1.805,0.225-2.357,0.67c-0.549,0.447-0.825,1.103-0.825,1.964c0,0.78,0.267,1.509,0.802,2.187
		c0.533,0.678,1.551,1.585,3.049,2.716c1.881,1.387,3.277,2.848,4.186,4.379C165.437,493.716,165.891,495.47,165.891,497.448z"/>
	<path fill="#FFFFFF" d="M184.36,508.188h-9.354l5.67-27.249h-7.583l1.651-7.726h24.592l-1.699,7.726h-7.607L184.36,508.188z"/>
	<path fill="#FFFFFF" d="M209.239,495.461l-2.703,12.727h-9.354l7.392-34.975h9.258c4.019,0,7.097,0.796,9.234,2.392
		c2.138,1.596,3.206,3.994,3.206,7.202c0,2.488-0.566,4.655-1.699,6.507c-1.133,1.849-2.814,3.259-5.048,4.233l5.359,12.344
		l0.957,2.297H215.65l-4.665-12.727L209.239,495.461L209.239,495.461z M210.746,488.358h1.22c1.516,0,2.719-0.436,3.612-1.306
		c0.894-0.87,1.34-2.085,1.34-3.647c0-0.988-0.276-1.742-0.825-2.26c-0.552-0.518-1.352-0.78-2.405-0.78h-1.268L210.746,488.358z"/>
	<path fill="#FFFFFF" d="M228.975,508.188l7.392-34.975h9.497l-7.392,34.975H228.975z"/>
	<path fill="#FFFFFF" d="M253.807,473.213h11.65c3.459,0,6.085,0.659,7.869,1.973c1.787,1.317,2.679,3.203,2.679,5.657
		c0,4.593-2.367,7.602-7.104,9.02v0.191c1.402,0.462,2.519,1.272,3.349,2.429c0.827,1.157,1.244,2.572,1.244,4.244
		c0,3.653-1.216,6.476-3.65,8.471c-2.432,1.993-5.879,2.989-10.344,2.989h-13.086L253.807,473.213z M258.902,493.547l-1.579,7.346
		h1.962c1.372,0,2.516-0.388,3.431-1.162c0.918-0.774,1.376-1.742,1.376-2.907c0-1.098-0.262-1.919-0.788-2.463
		s-1.452-0.813-2.775-0.813h-1.627V493.547z M260.314,486.635h1.721c1.404,0,2.465-0.304,3.183-0.912
		c0.718-0.605,1.075-1.576,1.075-2.916c0-1.627-1.013-2.443-3.037-2.443h-1.509L260.314,486.635z"/>
	<path fill="#FFFFFF" d="M311.363,473.213l-4.759,22.296c-0.943,4.481-2.736,7.796-5.384,9.941
		c-2.646,2.145-6.242,3.217-10.788,3.217c-2.139,0-4.025-0.439-5.66-1.317c-1.632-0.875-2.893-2.105-3.78-3.681
		c-0.884-1.582-1.326-3.344-1.326-5.288c0-1.022,0.096-2.049,0.287-3.087l4.759-22.079h9.355l-4.666,21.843
		c-0.222,1.084-0.335,2.001-0.335,2.75c0,2.026,0.965,3.037,2.896,3.037c1.497,0,2.674-0.512,3.526-1.542
		c0.856-1.027,1.506-2.603,1.95-4.723l4.571-21.364h9.354V473.213z"/>
	<path fill="#FFFFFF" d="M326.029,508.188h-9.355l5.671-27.249h-7.585l1.652-7.726h24.592l-1.7,7.726h-7.607L326.029,508.188z"/>
	<path fill="#FFFFFF" d="M338.804,508.188l7.391-34.975h9.499l-7.393,34.975H338.804z"/>
	<path fill="#FFFFFF" d="M376.911,472.664c4.148,0,7.374,1.182,9.679,3.552c2.302,2.367,3.456,5.674,3.456,9.915
		s-0.794,8.122-2.381,11.638c-1.587,3.518-3.777,6.211-6.566,8.086c-2.792,1.874-6.028,2.812-9.713,2.812
		c-4.292,0-7.605-1.188-9.941-3.563c-2.336-2.378-3.504-5.679-3.504-9.907c0-4.224,0.822-8.108,2.463-11.649
		c1.644-3.541,3.881-6.24,6.712-8.097C369.945,473.593,373.213,472.664,376.911,472.664z M380.595,486.227
		c0-1.818-0.383-3.242-1.148-4.27c-0.766-1.03-1.874-1.542-3.324-1.542c-1.579,0-3.031,0.67-4.354,2.009
		c-1.326,1.34-2.381,3.18-3.169,5.525c-0.791,2.344-1.185,4.745-1.185,7.202c0,3.859,1.593,5.786,4.785,5.786
		c1.514,0,2.921-0.661,4.222-1.984c1.3-1.323,2.322-3.11,3.062-5.359C380.226,491.346,380.595,488.889,380.595,486.227z"/>
	<path fill="#FFFFFF" d="M423.107,508.188h-10.886l-6.912-24.592h-0.191c-0.464,4.641-0.918,7.973-1.365,10l-3.085,14.593h-8.325
		l7.391-34.975h10.886l6.842,23.514h0.214c0.464-3.763,0.918-6.721,1.365-8.874l3.132-14.641h8.325L423.107,508.188z"/>
</g>
<rect x="12.344" y="875.549" fill="none" stroke="#C73A22" stroke-width="1.5" stroke-miterlimit="10" width="489.595" height="77.451"/>
<rect x="12.358" y="761.957" fill="none" stroke="#C73A22" stroke-width="1.5" stroke-miterlimit="10" width="489.595" height="77.451"/>
<rect x="12.358" y="605" fill="none" stroke="#C73A22" stroke-width="1.5" stroke-miterlimit="10" width="489.595" height="116.176"/>
<g>
	<path fill="#C73A22" d="M76.448,653.855H75.34l-4.232-14.871c-0.352-1.222-0.615-2.224-0.791-3.006
		c-0.141,0.765-0.341,1.644-0.6,2.637s-1.676,6.073-4.251,15.24h-1.134l-5.3-19.274h1.411L63.818,647
		c0.132,0.501,0.255,0.965,0.369,1.391c0.114,0.427,0.218,0.826,0.31,1.2c0.093,0.373,0.176,0.733,0.251,1.081
		c0.074,0.347,0.143,0.696,0.204,1.048c0.211-1.195,0.659-3.01,1.345-5.444l3.296-11.694h1.49l3.863,13.421
		c0.448,1.547,0.769,2.795,0.962,3.744c0.114-0.633,0.261-1.305,0.442-2.018c0.18-0.711,1.536-5.761,4.067-15.147h1.358
		L76.448,653.855z"/>
	<path fill="#C73A22" d="M101.378,644.191c0,3.059-0.765,5.479-2.294,7.258c-1.529,1.78-3.639,2.67-6.328,2.67
		c-2.681,0-4.786-0.89-6.315-2.67c-1.529-1.779-2.294-4.207-2.294-7.283c0-3.067,0.771-5.482,2.314-7.245
		c1.542-1.762,3.649-2.644,6.321-2.644c2.689,0,4.794,0.886,6.315,2.657C100.618,638.705,101.378,641.125,101.378,644.191z
		 M85.61,644.191c0,2.761,0.615,4.894,1.846,6.401c1.23,1.507,2.997,2.261,5.3,2.261c2.32,0,4.094-0.747,5.319-2.241
		c1.227-1.494,1.839-3.634,1.839-6.421c0-2.776-0.613-4.906-1.839-6.387s-2.99-2.222-5.293-2.222c-2.294,0-4.063,0.747-5.307,2.241
		S85.61,641.441,85.61,644.191z"/>
	<path fill="#C73A22" d="M107.152,645.457v8.398h-1.345v-19.274h4.588c2.391,0,4.157,0.441,5.3,1.325
		c1.143,0.883,1.714,2.213,1.714,3.988c0,1.291-0.341,2.382-1.022,3.27s-1.716,1.524-3.104,1.911l5.234,8.78h-1.608l-4.97-8.398
		L107.152,645.457L107.152,645.457z M107.152,644.297h3.678c1.626,0,2.887-0.362,3.784-1.087c0.896-0.726,1.345-1.795,1.345-3.21
		c0-1.468-0.439-2.536-1.318-3.204s-2.312-1.002-4.298-1.002h-3.19L107.152,644.297L107.152,644.297z"/>
	<path fill="#C73A22" d="M134.812,653.855h-1.648l-7.396-10.178l-2.571,2.268v7.91h-1.345v-19.274h1.345v10.02l2.136-2.136
		l7.554-7.884h1.714l-7.897,8.147L134.812,653.855z"/>
	<path fill="#C73A22" d="M138.885,653.855h-1.345v-19.274h10.56v1.239h-9.215v8.174h8.701v1.252h-8.701V653.855z"/>
	<path fill="#C73A22" d="M167.296,644.191c0,3.059-0.765,5.479-2.294,7.258c-1.529,1.78-3.639,2.67-6.328,2.67
		c-2.681,0-4.786-0.89-6.315-2.67c-1.529-1.779-2.294-4.207-2.294-7.283c0-3.067,0.771-5.482,2.314-7.245
		c1.542-1.762,3.649-2.644,6.321-2.644c2.689,0,4.794,0.886,6.315,2.657C166.536,638.705,167.296,641.125,167.296,644.191z
		 M151.528,644.191c0,2.761,0.615,4.894,1.846,6.401c1.23,1.507,2.997,2.261,5.3,2.261c2.32,0,4.094-0.747,5.319-2.241
		c1.227-1.494,1.839-3.634,1.839-6.421c0-2.776-0.613-4.906-1.839-6.387s-2.99-2.222-5.293-2.222c-2.294,0-4.063,0.747-5.307,2.241
		S151.528,641.441,151.528,644.191z"/>
	<path fill="#C73A22" d="M173.07,645.457v8.398h-1.345v-19.274h4.588c2.391,0,4.157,0.441,5.3,1.325
		c1.143,0.883,1.714,2.213,1.714,3.988c0,1.291-0.341,2.382-1.022,3.27s-1.716,1.524-3.104,1.911l5.234,8.78h-1.608l-4.97-8.398
		L173.07,645.457L173.07,645.457z M173.07,644.297h3.678c1.626,0,2.887-0.362,3.784-1.087c0.896-0.726,1.345-1.795,1.345-3.21
		c0-1.468-0.439-2.536-1.318-3.204s-2.312-1.002-4.298-1.002h-3.19L173.07,644.297L173.07,644.297z"/>
	<path fill="#C73A22" d="M195.997,635.518c-2.417,0-4.32,0.773-5.708,2.32s-2.083,3.664-2.083,6.354
		c0,2.752,0.655,4.888,1.964,6.408s3.182,2.28,5.616,2.28c1.617,0,3.103-0.206,4.456-0.62v1.188
		c-1.274,0.447-2.865,0.672-4.772,0.672c-2.707,0-4.838-0.874-6.394-2.623s-2.333-4.193-2.333-7.33c0-1.96,0.371-3.688,1.114-5.182
		s1.811-2.647,3.204-3.461c1.393-0.813,3.012-1.219,4.858-1.219c1.881,0,3.564,0.352,5.049,1.055l-0.541,1.213
		C199.02,635.869,197.543,635.518,195.997,635.518z"/>
	<path fill="#C73A22" d="M215.073,653.855H204.54v-19.274h10.534v1.239h-9.189v7.291h8.675v1.238h-8.675v8.267h9.189
		L215.073,653.855L215.073,653.855z"/>
	<path fill="#C73A22" d="M237.09,648.885c0,1.609-0.591,2.884-1.773,3.824s-2.753,1.41-4.713,1.41c-2.355,0-4.162-0.26-5.418-0.777
		v-1.346c1.389,0.59,3.16,0.884,5.313,0.884c1.582,0,2.836-0.362,3.764-1.088c0.927-0.725,1.391-1.676,1.391-2.854
		c0-0.729-0.154-1.333-0.461-1.813c-0.308-0.479-0.809-0.916-1.503-1.312s-1.714-0.821-3.059-1.278
		c-1.969-0.677-3.329-1.409-4.08-2.195c-0.752-0.787-1.127-1.835-1.127-3.145c0-1.441,0.564-2.617,1.694-3.526
		c1.129-0.91,2.582-1.364,4.357-1.364c1.811,0,3.511,0.342,5.102,1.027l-0.488,1.16c-1.6-0.667-3.129-1.002-4.588-1.002
		c-1.424,0-2.558,0.33-3.401,0.989s-1.266,1.556-1.266,2.689c0,0.712,0.129,1.297,0.389,1.753c0.259,0.458,0.684,0.868,1.272,1.233
		c0.589,0.364,1.6,0.802,3.032,1.312c1.503,0.519,2.632,1.021,3.388,1.51c0.756,0.487,1.307,1.041,1.655,1.661
		C236.916,647.257,237.09,648.007,237.09,648.885z"/>
	<path fill="#C73A22" d="M241.164,653.855v-19.274h1.345v19.274H241.164z"/>
	<path fill="#C73A22" d="M259.713,653.855h-13.395v-1.002l11.285-17.007h-10.771v-1.266h12.577v1.002l-11.312,17.007h11.615v1.266
		H259.713z"/>
	<path fill="#C73A22" d="M274.057,653.855h-10.534v-19.274h10.534v1.239h-9.188v7.291h8.674v1.238h-8.674v8.267h9.188V653.855z"/>
	<path fill="#C73A22" d="M277.827,641.055c0-0.861,0.352-1.293,1.055-1.293c0.721,0,1.081,0.432,1.081,1.293
		c0,0.466-0.104,0.8-0.31,1.002c-0.207,0.202-0.464,0.303-0.771,0.303c-0.299,0-0.55-0.101-0.751-0.303
		C277.928,641.854,277.827,641.521,277.827,641.055z M277.827,652.827c0-0.861,0.352-1.292,1.055-1.292
		c0.721,0,1.081,0.431,1.081,1.292s-0.36,1.292-1.081,1.292C278.179,654.119,277.827,653.688,277.827,652.827z"/>
	<path fill="#C73A22" d="M303.271,638.76c0,1.196-0.365,2.222-1.095,3.079c-0.729,0.856-1.784,1.479-3.164,1.865v0.079
		c3.217,0.404,4.825,1.925,4.825,4.562c0,1.793-0.71,3.204-2.129,4.231c-1.42,1.029-3.391,1.543-5.913,1.543
		c-1.037,0-1.997-0.075-2.881-0.225c-0.883-0.148-1.839-0.422-2.867-0.816v-4.324c0.844,0.431,1.703,0.749,2.577,0.955
		c0.875,0.207,1.682,0.311,2.42,0.311c1.142,0,1.975-0.161,2.498-0.481c0.522-0.321,0.784-0.824,0.784-1.51
		c0-0.527-0.137-0.934-0.409-1.22c-0.272-0.285-0.711-0.501-1.318-0.646c-0.605-0.146-1.396-0.218-2.373-0.218h-1.186v-3.916h1.213
		c2.645,0,3.968-0.676,3.968-2.029c0-0.51-0.195-0.888-0.587-1.135c-0.391-0.245-0.916-0.369-1.575-0.369
		c-1.23,0-2.505,0.414-3.823,1.24l-2.162-3.48c1.02-0.703,2.063-1.204,3.131-1.504c1.068-0.298,2.292-0.447,3.672-0.447
		c1.995,0,3.56,0.395,4.693,1.186S303.271,637.372,303.271,638.76z"/>
	<path fill="#C73A22" d="M306.079,651.667c0-0.809,0.239-1.433,0.719-1.872c0.479-0.439,1.175-0.659,2.089-0.659
		c0.871,0,1.538,0.22,2.004,0.659s0.699,1.063,0.699,1.872c0,0.791-0.239,1.408-0.719,1.853c-0.479,0.443-1.141,0.666-1.984,0.666
		c-0.869,0-1.555-0.221-2.057-0.66C306.33,653.087,306.079,652.467,306.079,651.667z"/>
	<path fill="#C73A22" d="M326.896,638.76c0,1.196-0.365,2.222-1.095,3.079c-0.729,0.856-1.784,1.479-3.164,1.865v0.079
		c3.217,0.404,4.825,1.925,4.825,4.562c0,1.793-0.71,3.204-2.129,4.231c-1.42,1.029-3.391,1.543-5.913,1.543
		c-1.037,0-1.997-0.075-2.881-0.225c-0.883-0.148-1.839-0.422-2.867-0.816v-4.324c0.844,0.431,1.703,0.749,2.577,0.955
		c0.875,0.207,1.682,0.311,2.42,0.311c1.142,0,1.975-0.161,2.498-0.481c0.522-0.321,0.784-0.824,0.784-1.51
		c0-0.527-0.137-0.934-0.409-1.22c-0.272-0.285-0.711-0.501-1.318-0.646c-0.605-0.146-1.396-0.218-2.373-0.218h-1.186v-3.916h1.213
		c2.645,0,3.968-0.676,3.968-2.029c0-0.51-0.195-0.888-0.587-1.135c-0.391-0.245-0.916-0.369-1.575-0.369
		c-1.23,0-2.505,0.414-3.823,1.24l-2.162-3.48c1.02-0.703,2.063-1.204,3.131-1.504c1.068-0.298,2.292-0.447,3.672-0.447
		c1.995,0,3.56,0.395,4.693,1.186S326.896,637.372,326.896,638.76z"/>
	<path fill="#C73A22" d="M346.064,653.855l-3.941-13.883h-0.119c0.186,2.365,0.277,4.202,0.277,5.512v8.371h-4.614v-19.274h6.935
		l4.021,13.685h0.105l3.941-13.685h6.947v19.274h-4.785v-8.451c0-0.438,0.007-0.927,0.02-1.463c0.014-0.536,0.072-1.85,0.178-3.941
		h-0.118l-3.89,13.855H346.064z"/>
	<path fill="#C73A22" d="M363.771,653.855v-19.274h5.233v19.274H363.771z"/>
	<path fill="#C73A22" d="M373.171,653.855v-19.274h5.208v15.069h7.422v4.205L373.171,653.855L373.171,653.855z"/>
	<path fill="#C73A22" d="M388.886,653.855v-19.274h5.208v15.069h7.422v4.205L388.886,653.855L388.886,653.855z"/>
	<path fill="#C73A22" d="M404.601,653.855v-19.274h5.233v19.274H404.601z"/>
	<path fill="#C73A22" d="M432.036,644.191c0,3.244-0.796,5.709-2.386,7.396c-1.592,1.688-3.921,2.531-6.988,2.531
		c-3.023,0-5.341-0.848-6.954-2.545c-1.612-1.695-2.419-4.166-2.419-7.408c0-3.208,0.802-5.658,2.406-7.351
		c1.604-1.691,3.936-2.538,6.994-2.538c3.066,0,5.392,0.84,6.974,2.519S432.036,640.94,432.036,644.191z M418.773,644.191
		c0,3.728,1.296,5.59,3.889,5.59c1.318,0,2.297-0.452,2.934-1.357c0.638-0.905,0.956-2.315,0.956-4.232
		c0-1.924-0.323-3.346-0.969-4.265c-0.646-0.918-1.611-1.378-2.894-1.378C420.078,638.549,418.773,640.431,418.773,644.191z"/>
	<path fill="#C73A22" d="M453.868,653.855h-6.829l-7.04-13.579h-0.118c0.166,2.136,0.25,3.767,0.25,4.892v8.688h-4.614v-19.274
		h6.803l7.014,13.395h0.079c-0.123-1.942-0.185-3.502-0.185-4.681v-8.714h4.641L453.868,653.855L453.868,653.855z"/>
</g>
<g>
	<path fill="#808184" d="M154.353,690.33h-3.799l1.699-7.803c0.182-0.859,0.43-1.692,0.742-2.5
		c-0.508,0.442-0.934,0.778-1.279,1.006l-1.982,1.221l-1.475-2.461l6.055-3.74h3.037L154.353,690.33z"/>
	<path fill="#808184" d="M172.976,676.766c-1.283,0-2.427,0.34-3.433,1.021s-1.803,1.672-2.393,2.974s-0.884,2.737-0.884,4.307
		c0,1.465,0.36,2.591,1.079,3.379s1.753,1.182,3.101,1.182c0.912,0,1.901-0.166,2.969-0.498v0.918
		c-1.016,0.319-2.044,0.479-3.086,0.479c-1.641,0-2.897-0.472-3.77-1.416s-1.309-2.278-1.309-4.004c0-1.731,0.34-3.32,1.021-4.766
		s1.606-2.556,2.778-3.33s2.48-1.162,3.926-1.162c1.152,0,2.152,0.222,2.998,0.664l-0.439,0.879
		c-0.358-0.195-0.763-0.349-1.216-0.459S173.418,676.766,172.976,676.766z"/>
	<path fill="#808184" d="M183.103,690.33h-7.1l3.027-14.277h7.1l-0.205,0.918h-6.094l-1.143,5.4h5.762l-0.205,0.918h-5.742
		l-1.318,6.123h6.123L183.103,690.33z"/>
	<path fill="#808184" d="M199.128,681.434c0,1.66-0.306,3.228-0.918,4.702s-1.432,2.575-2.461,3.301s-2.217,1.089-3.564,1.089
		c-1.627,0-2.881-0.485-3.76-1.455s-1.318-2.37-1.318-4.199c0-1.706,0.303-3.26,0.908-4.663s1.436-2.48,2.49-3.232
		s2.269-1.128,3.643-1.128c1.608,0,2.84,0.483,3.696,1.45S199.128,679.644,199.128,681.434z M194.011,676.766
		c-1.133,0-2.137,0.329-3.013,0.986s-1.574,1.628-2.095,2.91s-0.781,2.64-0.781,4.072c0,1.595,0.356,2.81,1.069,3.643
		s1.753,1.25,3.12,1.25c1.1,0,2.077-0.32,2.93-0.962s1.537-1.618,2.051-2.93s0.771-2.713,0.771-4.204
		c0-1.563-0.34-2.747-1.021-3.555S195.352,676.766,194.011,676.766z"/>
	<path fill="#808184" d="M216.101,679.568c0,3.255-1.986,4.883-5.957,4.883h-1.963l-1.26,5.879h-1.006l3.027-14.277h3.076
		c1.315,0,2.324,0.301,3.027,0.903S216.101,678.429,216.101,679.568z M208.337,683.553h1.865c1.641,0,2.856-0.314,3.647-0.942
		s1.187-1.623,1.187-2.983c0-1.784-1.071-2.676-3.213-2.676h-2.061L208.337,683.553z"/>
	<path fill="#808184" d="M224.196,690.33h-7.1l3.027-14.277h7.1l-0.205,0.918h-6.094l-1.143,5.4h5.762l-0.205,0.918h-5.742
		l-1.318,6.123h6.123L224.196,690.33z"/>
	<path fill="#808184" d="M229.802,684.148l-1.279,6.182h-1.006l3.027-14.277h2.959c2.799,0,4.199,1.172,4.199,3.516
		c0,1.185-0.337,2.171-1.011,2.959s-1.59,1.282-2.749,1.484c1.309,3.848,2.028,5.954,2.158,6.318h-1.084l-2.061-6.182H229.802z
		 M230.017,683.25h2.461c1.354,0,2.386-0.311,3.096-0.933s1.064-1.538,1.064-2.749c0-1.745-1.071-2.617-3.213-2.617h-2.061
		L230.017,683.25z"/>
	<path fill="#808184" d="M249.294,680.975c1.179,0,2.134,0.383,2.866,1.147s1.099,1.795,1.099,3.091c0,1.699-0.524,3.01-1.572,3.931
		s-2.565,1.382-4.551,1.382c-0.84,0-1.636-0.071-2.388-0.215s-1.304-0.342-1.655-0.596v-3.164c0.514,0.293,1.104,0.522,1.768,0.688
		s1.263,0.249,1.797,0.249c1.804,0,2.705-0.625,2.705-1.875c0-0.495-0.164-0.896-0.493-1.201c-0.328-0.306-0.773-0.459-1.333-0.459
		c-0.345,0-0.707,0.032-1.084,0.098s-0.677,0.137-0.898,0.215l-1.191-0.898l2.1-7.314h7.939l-0.664,3.154h-4.6l-0.576,1.807
		C248.789,680.987,249.033,680.975,249.294,680.975z"/>
	<path fill="#808184" d="M265.495,679.227c0,0.964-0.291,1.761-0.874,2.393s-1.404,1.055-2.466,1.27v0.078
		c0.84,0.163,1.497,0.525,1.973,1.089s0.713,1.255,0.713,2.075c0,1.406-0.579,2.49-1.738,3.252s-2.728,1.143-4.707,1.143
		c-0.755,0-1.463-0.066-2.124-0.2s-1.206-0.324-1.636-0.571v-3.242c1.087,0.651,2.314,0.977,3.682,0.977
		c0.898,0,1.57-0.151,2.017-0.454s0.669-0.737,0.669-1.304c0-0.352-0.088-0.615-0.264-0.791s-0.456-0.305-0.84-0.386
		s-0.925-0.122-1.621-0.122h-0.82l0.518-2.842h0.762c0.957,0,1.702-0.151,2.236-0.454s0.801-0.718,0.801-1.245
		c0-0.3-0.117-0.54-0.352-0.723s-0.557-0.273-0.967-0.273c-0.762,0-1.641,0.273-2.637,0.82l-1.543-2.422
		c0.82-0.527,1.613-0.9,2.378-1.118s1.606-0.327,2.524-0.327c1.309,0,2.355,0.303,3.14,0.908S265.495,678.185,265.495,679.227z"/>
	<path fill="#808184" d="M277.204,681.033c0,1.907-0.335,3.599-1.006,5.073s-1.6,2.58-2.788,3.315s-2.593,1.104-4.214,1.104
		c-0.749,0-1.436-0.098-2.061-0.293v-3.066c0.599,0.241,1.26,0.361,1.982,0.361c1.218,0,2.166-0.283,2.847-0.85
		s1.15-1.481,1.411-2.744h-0.078c-0.384,0.618-0.813,1.057-1.289,1.313s-1.025,0.386-1.65,0.386c-0.983,0-1.761-0.358-2.334-1.074
		s-0.859-1.68-0.859-2.891c0-1.146,0.213-2.156,0.64-3.032s1.045-1.56,1.855-2.051s1.779-0.737,2.905-0.737
		c1.497,0,2.645,0.447,3.442,1.343S277.204,679.366,277.204,681.033z M272.663,678.846c-0.476,0-0.871,0.231-1.187,0.693
		s-0.474,1.025-0.474,1.689c0,0.938,0.3,1.406,0.898,1.406c0.481,0,0.889-0.229,1.221-0.688s0.498-1.018,0.498-1.675
		c0-0.43-0.09-0.774-0.269-1.035S272.943,678.846,272.663,678.846z"/>
	<path fill="#808184" d="M292.839,677.234c-0.176,0.495-0.378,0.994-0.605,1.499s-2.061,4.37-5.498,11.597h-0.801l-0.713-14.277
		h0.977l0.459,10.068l0.039,1.611l-0.02,0.84h0.059c0.554-1.472,1.106-2.767,1.66-3.887l4.238-8.633h1.025l0.596,8.574
		c0.124,1.731,0.186,3.066,0.186,4.004h0.059c0.195-0.56,0.396-1.091,0.601-1.592s1.812-4.163,4.819-10.986h1.055
		c-1.101,2.376-2.176,4.756-3.228,7.139s-2.121,4.763-3.208,7.139h-0.762l-0.762-10.498c-0.071-0.925-0.107-1.638-0.107-2.139
		l0.01-0.459L292.839,677.234L292.839,677.234z"/>
	<path fill="#808184" d="M313.22,681.434c0,1.66-0.306,3.228-0.918,4.702s-1.433,2.575-2.461,3.301s-2.217,1.089-3.564,1.089
		c-1.628,0-2.881-0.485-3.76-1.455s-1.318-2.37-1.318-4.199c0-1.706,0.303-3.26,0.908-4.663s1.436-2.48,2.49-3.232
		s2.269-1.128,3.643-1.128c1.608,0,2.84,0.483,3.696,1.45S313.22,679.644,313.22,681.434z M308.103,676.766
		c-1.133,0-2.137,0.329-3.013,0.986s-1.574,1.628-2.095,2.91s-0.781,2.64-0.781,4.072c0,1.595,0.356,2.81,1.069,3.643
		s1.753,1.25,3.12,1.25c1.101,0,2.077-0.32,2.93-0.962s1.536-1.618,2.051-2.93s0.771-2.713,0.771-4.204
		c0-1.563-0.34-2.747-1.021-3.555S309.443,676.766,308.103,676.766z"/>
	<path fill="#808184" d="M317.097,684.148l-1.279,6.182h-1.006l3.027-14.277h2.959c2.8,0,4.199,1.172,4.199,3.516
		c0,1.185-0.337,2.171-1.011,2.959s-1.59,1.282-2.749,1.484c1.309,3.848,2.028,5.954,2.158,6.318h-1.084l-2.061-6.182H317.097z
		 M317.312,683.25h2.461c1.354,0,2.386-0.311,3.096-0.933s1.064-1.538,1.064-2.749c0-1.745-1.071-2.617-3.213-2.617h-2.061
		L317.312,683.25z"/>
	<path fill="#808184" d="M334.558,690.33h-1.084l-3.34-7.695l-1.855,1.494L327,690.33h-1.006l3.027-14.277h0.996l-1.543,7.061
		l1.299-1.182l6.641-5.879h1.348l-6.826,5.957L334.558,690.33z"/>
	<path fill="#808184" d="M344.05,690.33h-7.1l3.027-14.277h7.1l-0.205,0.918h-6.094l-1.143,5.4h5.762l-0.205,0.918h-5.742
		l-1.318,6.123h6.123L344.05,690.33z"/>
	<path fill="#808184" d="M349.655,684.148l-1.279,6.182h-1.006l3.027-14.277h2.959c2.8,0,4.199,1.172,4.199,3.516
		c0,1.185-0.337,2.171-1.011,2.959s-1.59,1.282-2.749,1.484c1.309,3.848,2.028,5.954,2.158,6.318h-1.084l-2.061-6.182H349.655z
		 M349.87,683.25h2.461c1.354,0,2.386-0.311,3.096-0.933s1.064-1.538,1.064-2.749c0-1.745-1.071-2.617-3.213-2.617h-2.061
		L349.87,683.25z"/>
	<path fill="#808184" d="M366.296,686.395c0,0.82-0.213,1.551-0.64,2.192s-1.011,1.125-1.753,1.45s-1.618,0.488-2.627,0.488
		c-0.573,0-1.135-0.056-1.685-0.166s-1.108-0.3-1.675-0.566v-1.064c1.062,0.599,2.194,0.898,3.398,0.898
		c1.224,0,2.186-0.281,2.886-0.845s1.05-1.32,1.05-2.271c0-0.397-0.056-0.737-0.166-1.021s-0.281-0.539-0.513-0.767
		s-0.527-0.449-0.889-0.664s-0.789-0.459-1.284-0.732c-0.977-0.495-1.658-1.028-2.046-1.602s-0.581-1.243-0.581-2.012
		s0.192-1.443,0.576-2.026s0.921-1.035,1.611-1.357s1.462-0.483,2.314-0.483c0.645,0,1.23,0.057,1.758,0.171
		s1.074,0.311,1.641,0.591l-0.313,0.918c-0.43-0.261-0.923-0.466-1.479-0.615s-1.092-0.225-1.606-0.225
		c-1.062,0-1.906,0.269-2.534,0.806s-0.942,1.248-0.942,2.134c0,0.671,0.159,1.224,0.479,1.66s0.911,0.869,1.777,1.299
		c1.003,0.515,1.697,0.938,2.085,1.27s0.677,0.7,0.869,1.104S366.296,685.841,366.296,686.395z"/>
</g>
<g>
	<path fill="#C73A22" d="M89.032,809.488l-7.185-17.798h-0.105c0.07,1.09,0.105,2.206,0.105,3.349v14.449h-1.292v-19.274h2.083
		l6.829,16.954h0.079l6.829-16.954h2.03v19.274h-1.358v-14.607c0-1.02,0.053-2.074,0.158-3.164H97.1l-7.211,17.771H89.032z"/>
	<path fill="#C73A22" d="M114.384,809.488H103.85v-19.274h10.534v1.239h-9.189v7.291h8.675v1.238h-8.675v8.267h9.189V809.488z"/>
	<path fill="#C73A22" d="M133.382,799.666c0,3.235-0.848,5.681-2.544,7.337c-1.696,1.657-4.188,2.485-7.475,2.485h-4.614v-19.274
		h5.208c3.076,0,5.416,0.804,7.021,2.413C132.58,794.234,133.382,796.582,133.382,799.666z M131.918,799.719
		c0-2.759-0.701-4.836-2.103-6.229c-1.402-1.394-3.461-2.09-6.177-2.09h-3.546v16.901h3.19
		C129.04,808.302,131.918,805.441,131.918,799.719z"/>
	<path fill="#C73A22" d="M137.812,809.488v-19.274h1.345v19.274H137.812z"/>
	<path fill="#C73A22" d="M153.896,802.686h-7.831l-2.689,6.803h-1.49l7.752-19.354h0.857l7.594,19.354h-1.516L153.896,802.686z
		 M146.552,801.473h6.895l-2.624-6.947c-0.22-0.545-0.483-1.301-0.791-2.268c-0.237,0.844-0.497,1.607-0.778,2.293L146.552,801.473z
		"/>
	<path fill="#C73A22" d="M174.831,809.488h-1.358l-11.417-17.112h-0.105c0.105,2.039,0.158,3.577,0.158,4.614v12.498h-1.292v-19.274
		h1.345l11.404,17.086h0.079c-0.079-1.582-0.119-3.085-0.119-4.509v-12.577h1.305V809.488z"/>
	<path fill="#C73A22" d="M201.264,809.488h-1.358v-9.479h-11.259v9.479h-1.345v-19.274h1.345v8.556h11.259v-8.556h1.358V809.488z"/>
	<path fill="#C73A22" d="M222.925,799.824c0,3.059-0.765,5.479-2.294,7.258c-1.529,1.78-3.639,2.67-6.328,2.67
		c-2.681,0-4.786-0.89-6.315-2.67c-1.529-1.779-2.294-4.207-2.294-7.283c0-3.067,0.771-5.482,2.314-7.245
		c1.542-1.762,3.649-2.644,6.321-2.644c2.689,0,4.794,0.886,6.315,2.657C222.165,794.338,222.925,796.758,222.925,799.824z
		 M207.157,799.824c0,2.761,0.615,4.894,1.846,6.401c1.23,1.507,2.997,2.261,5.3,2.261c2.32,0,4.094-0.747,5.319-2.241
		c1.227-1.494,1.839-3.634,1.839-6.421c0-2.776-0.613-4.906-1.839-6.387s-2.99-2.222-5.293-2.222c-2.294,0-4.063,0.747-5.307,2.241
		S207.157,797.074,207.157,799.824z"/>
	<path fill="#C73A22" d="M241.527,790.214v12.472c0,2.215-0.642,3.946-1.925,5.194s-3.072,1.872-5.366,1.872
		c-2.232,0-3.975-0.626-5.227-1.879c-1.253-1.252-1.879-2.999-1.879-5.24v-12.419h1.358v12.472c0,1.854,0.514,3.298,1.542,4.331
		c1.028,1.032,2.483,1.549,4.364,1.549c1.837,0,3.261-0.508,4.271-1.522c1.011-1.016,1.516-2.424,1.516-4.226v-12.604
		L241.527,790.214L241.527,790.214z"/>
	<path fill="#C73A22" d="M248.119,801.09v8.398h-1.345v-19.274h4.587c2.391,0,4.157,0.441,5.301,1.325
		c1.142,0.883,1.713,2.213,1.713,3.988c0,1.291-0.34,2.382-1.021,3.27s-1.716,1.524-3.104,1.911l5.233,8.78h-1.607l-4.971-8.398
		L248.119,801.09L248.119,801.09z M248.119,799.93h3.678c1.626,0,2.887-0.362,3.783-1.087c0.896-0.726,1.346-1.795,1.346-3.21
		c0-1.468-0.44-2.536-1.318-3.204c-0.88-0.668-2.313-1.002-4.299-1.002h-3.189v8.503H248.119z"/>
	<path fill="#C73A22" d="M262.818,809.488v-19.274h1.346v18.009h9.188v1.266L262.818,809.488L262.818,809.488z"/>
	<path fill="#C73A22" d="M281.104,800.761l5.643-10.547h1.451l-6.421,11.825v7.449h-1.384v-7.344l-6.447-11.931h1.543
		L281.104,800.761z"/>
	<path fill="#C73A22" d="M313.299,809.488h-1.107l-4.232-14.871c-0.352-1.222-0.615-2.224-0.791-3.006
		c-0.141,0.765-0.34,1.644-0.6,2.637c-0.259,0.993-1.677,6.073-4.252,15.24h-1.133l-5.301-19.274h1.411l3.375,12.419
		c0.132,0.501,0.255,0.965,0.369,1.391c0.114,0.427,0.218,0.826,0.31,1.2c0.093,0.373,0.176,0.733,0.251,1.081
		c0.074,0.347,0.143,0.696,0.204,1.048c0.211-1.195,0.659-3.01,1.345-5.444l3.296-11.694h1.49l3.862,13.421
		c0.448,1.547,0.769,2.795,0.962,3.744c0.114-0.633,0.262-1.305,0.442-2.018c0.18-0.711,1.536-5.761,4.067-15.147h1.357
		L313.299,809.488z"/>
	<path fill="#C73A22" d="M331.307,802.686h-7.83l-2.689,6.803h-1.49l7.752-19.354h0.857l7.594,19.354h-1.517L331.307,802.686z
		 M323.964,801.473h6.896l-2.624-6.947c-0.22-0.545-0.483-1.301-0.791-2.268c-0.237,0.844-0.497,1.607-0.778,2.293L323.964,801.473z
		"/>
	<path fill="#C73A22" d="M345.81,799.771h7.106v8.794c-1.864,0.791-3.96,1.187-6.289,1.187c-3.041,0-5.372-0.859-6.994-2.577
		c-1.621-1.719-2.432-4.15-2.432-7.298c0-1.959,0.401-3.697,1.206-5.214c0.804-1.516,1.955-2.687,3.454-3.513
		c1.498-0.826,3.219-1.24,5.161-1.24c2.101,0,3.985,0.388,5.655,1.16l-0.54,1.213c-1.67-0.772-3.401-1.16-5.194-1.16
		c-2.54,0-4.555,0.785-6.045,2.354c-1.489,1.569-2.234,3.686-2.234,6.348c0,2.9,0.707,5.083,2.123,6.546
		c1.414,1.464,3.493,2.195,6.235,2.195c1.775,0,3.282-0.251,4.522-0.751v-6.777h-5.735v-1.267H345.81z"/>
	<path fill="#C73A22" d="M368.288,809.488h-10.534v-19.274h10.534v1.239H359.1v7.291h8.674v1.238H359.1v8.267h9.188V809.488z"/>
	<path fill="#C73A22" d="M372.059,796.688c0-0.861,0.352-1.293,1.055-1.293c0.721,0,1.081,0.432,1.081,1.293
		c0,0.466-0.104,0.8-0.31,1.002c-0.207,0.202-0.464,0.303-0.771,0.303c-0.299,0-0.55-0.101-0.751-0.303
		C372.159,797.487,372.059,797.153,372.059,796.688z M372.059,808.46c0-0.861,0.352-1.292,1.055-1.292
		c0.721,0,1.081,0.431,1.081,1.292s-0.36,1.292-1.081,1.292C372.41,809.752,372.059,809.321,372.059,808.46z"/>
	<path fill="#C73A22" d="M390.002,808.592c-1.925-0.088-3.779-0.519-5.563-1.292v-4.377c1.02,0.519,2.127,0.951,3.322,1.299
		c1.195,0.347,2.245,0.521,3.151,0.521c0.746,0,1.294-0.09,1.641-0.271c0.348-0.18,0.521-0.481,0.521-0.903
		c0-0.289-0.126-0.535-0.376-0.738c-0.251-0.201-0.668-0.43-1.253-0.686c-0.584-0.254-1.373-0.562-2.366-0.922
		c-1.116-0.413-2.017-0.877-2.702-1.392c-0.686-0.514-1.185-1.09-1.497-1.727c-0.312-0.638-0.468-1.431-0.468-2.38
		c0-1.45,0.466-2.584,1.397-3.401s2.329-1.322,4.192-1.517V789h2.729v1.78c1.749,0.097,3.512,0.527,5.287,1.291l-1.568,3.758
		c-1.838-0.826-3.494-1.239-4.971-1.239c-0.703,0-1.197,0.086-1.483,0.257c-0.285,0.172-0.429,0.425-0.429,0.758
		c0,0.291,0.104,0.53,0.311,0.719c0.206,0.189,0.564,0.4,1.074,0.633s1.217,0.504,2.123,0.811c1.836,0.651,3.154,1.392,3.955,2.222
		c0.799,0.831,1.199,1.901,1.199,3.21c0,1.477-0.468,2.677-1.404,3.6s-2.301,1.494-4.094,1.714v2.544h-2.729v-2.466H390.002z"/>
	<path fill="#C73A22" d="M411.597,809.488h-5.286v-10.204c0-1.239,0.025-2.373,0.078-3.401c-0.325,0.396-0.729,0.809-1.213,1.239
		l-2.188,1.806l-2.703-3.322l6.618-5.392h4.693v19.274H411.597z"/>
	<path fill="#C73A22" d="M430.41,805.758h-2.123v3.73h-5.142v-3.73h-7.687v-3.824l8.016-11.72h4.813v11.654h2.123L430.41,805.758
		L430.41,805.758z M423.146,801.868v-2.241c0-0.422,0.016-0.991,0.046-1.707c0.031-0.717,0.055-1.092,0.072-1.127h-0.145
		c-0.299,0.677-0.638,1.31-1.016,1.898l-2.135,3.177H423.146z"/>
</g>
<g>
	<path fill="#C73A22" d="M127.396,904.643v12.472c0,2.215-0.642,3.946-1.925,5.194s-3.072,1.872-5.366,1.872
		c-2.232,0-3.975-0.626-5.227-1.879c-1.253-1.252-1.879-2.999-1.879-5.24v-12.419h1.358v12.472c0,1.854,0.514,3.298,1.542,4.331
		c1.028,1.032,2.483,1.549,4.364,1.549c1.837,0,3.261-0.508,4.271-1.522c1.011-1.016,1.516-2.424,1.516-4.226v-12.604
		L127.396,904.643L127.396,904.643z"/>
	<path fill="#C73A22" d="M146.657,923.917h-1.358l-11.417-17.112h-0.105c0.105,2.039,0.158,3.577,0.158,4.614v12.498h-1.292v-19.274
		h1.345l11.404,17.086h0.079c-0.079-1.582-0.119-3.085-0.119-4.509v-12.577h1.305L146.657,923.917L146.657,923.917z"/>
	<path fill="#C73A22" d="M152.115,923.917v-19.274h1.345v19.274H152.115z"/>
	<path fill="#C73A22" d="M175.12,914.253c0,3.059-0.765,5.479-2.294,7.258c-1.529,1.78-3.639,2.67-6.328,2.67
		c-2.681,0-4.786-0.89-6.315-2.67c-1.529-1.779-2.294-4.207-2.294-7.283c0-3.067,0.771-5.482,2.314-7.245
		c1.542-1.762,3.649-2.644,6.321-2.644c2.689,0,4.794,0.886,6.315,2.657C174.36,908.767,175.12,911.187,175.12,914.253z
		 M159.353,914.253c0,2.761,0.615,4.894,1.846,6.401c1.23,1.507,2.997,2.261,5.3,2.261c2.32,0,4.094-0.747,5.319-2.241
		c1.227-1.494,1.839-3.634,1.839-6.421c0-2.776-0.613-4.906-1.839-6.387s-2.99-2.222-5.293-2.222c-2.294,0-4.063,0.747-5.307,2.241
		S159.353,911.503,159.353,914.253z"/>
	<path fill="#C73A22" d="M193.564,923.917h-1.358l-11.417-17.112h-0.105c0.105,2.039,0.158,3.577,0.158,4.614v12.498h-1.292v-19.274
		h1.345l11.404,17.086h0.079c-0.079-1.582-0.119-3.085-0.119-4.509v-12.577h1.305V923.917z"/>
	<path fill="#C73A22" d="M220.669,914.095c0,3.235-0.848,5.681-2.544,7.337c-1.696,1.657-4.188,2.485-7.475,2.485h-4.614v-19.274
		h5.208c3.076,0,5.416,0.804,7.021,2.413C219.867,908.663,220.669,911.011,220.669,914.095z M219.206,914.147
		c0-2.759-0.701-4.836-2.103-6.229c-1.402-1.394-3.461-2.09-6.177-2.09h-3.546v16.901h3.19
		C216.328,922.73,219.206,919.87,219.206,914.147z"/>
	<path fill="#C73A22" d="M235.633,923.917h-10.534v-19.274h10.534v1.239h-9.189v7.291h8.675v1.238h-8.675v8.267h9.189V923.917z"/>
	<path fill="#C73A22" d="M254.011,923.917h-1.358l-11.417-17.112h-0.105c0.105,2.039,0.158,3.577,0.158,4.614v12.498h-1.292v-19.274
		h1.345l11.404,17.086h0.079c-0.079-1.582-0.119-3.085-0.119-4.509v-12.577h1.306L254.011,923.917L254.011,923.917z"/>
	<path fill="#C73A22" d="M270.108,918.946c0,1.609-0.591,2.884-1.773,3.824s-2.753,1.41-4.713,1.41c-2.355,0-4.162-0.26-5.419-0.777
		v-1.346c1.389,0.59,3.16,0.884,5.313,0.884c1.582,0,2.837-0.362,3.764-1.088c0.928-0.725,1.392-1.676,1.392-2.854
		c0-0.729-0.154-1.333-0.462-1.813c-0.308-0.479-0.809-0.916-1.503-1.312s-1.714-0.821-3.059-1.278
		c-1.969-0.677-3.329-1.409-4.08-2.195c-0.752-0.787-1.127-1.835-1.127-3.145c0-1.441,0.564-2.617,1.693-3.526
		c1.13-0.91,2.582-1.364,4.357-1.364c1.811,0,3.511,0.342,5.102,1.027l-0.487,1.16c-1.6-0.667-3.129-1.002-4.588-1.002
		c-1.424,0-2.558,0.33-3.401,0.989s-1.266,1.556-1.266,2.689c0,0.712,0.13,1.297,0.389,1.753c0.26,0.458,0.684,0.868,1.272,1.233
		c0.589,0.364,1.6,0.802,3.032,1.312c1.503,0.519,2.632,1.021,3.389,1.51c0.755,0.487,1.307,1.041,1.654,1.661
		C269.935,917.318,270.108,918.068,270.108,918.946z"/>
	<path fill="#C73A22" d="M274.182,923.917v-19.274h1.346v19.274H274.182z"/>
	<path fill="#C73A22" d="M286.008,923.917h-1.357v-18.009h-6.263v-1.266h13.882v1.266h-6.262V923.917z"/>
	<path fill="#C73A22" d="M299.561,915.189l5.643-10.547h1.451l-6.421,11.825v7.449h-1.384v-7.344l-6.447-11.931h1.543
		L299.561,915.189z"/>
	<path fill="#C73A22" d="M308.79,911.116c0-0.861,0.352-1.293,1.055-1.293c0.721,0,1.081,0.432,1.081,1.293
		c0,0.466-0.104,0.8-0.31,1.002c-0.207,0.202-0.464,0.303-0.771,0.303c-0.299,0-0.55-0.101-0.751-0.303
		C308.891,911.916,308.79,911.582,308.79,911.116z M308.79,922.889c0-0.861,0.352-1.292,1.055-1.292
		c0.721,0,1.081,0.431,1.081,1.292s-0.36,1.292-1.081,1.292C309.142,924.181,308.79,923.75,308.79,922.889z"/>
	<path fill="#C73A22" d="M332.507,923.917h-5.286v-10.204c0-1.239,0.025-2.373,0.078-3.401c-0.325,0.396-0.729,0.809-1.213,1.239
		l-2.188,1.806l-2.703-3.322l6.618-5.392h4.693v19.274H332.507z"/>
	<path fill="#C73A22" d="M350.055,908.821c0,1.196-0.365,2.222-1.095,3.079c-0.729,0.856-1.784,1.479-3.164,1.865v0.079
		c3.217,0.404,4.825,1.925,4.825,4.562c0,1.793-0.71,3.204-2.129,4.231c-1.42,1.029-3.391,1.543-5.913,1.543
		c-1.037,0-1.997-0.075-2.881-0.225c-0.883-0.148-1.839-0.422-2.867-0.816v-4.324c0.844,0.431,1.703,0.749,2.577,0.955
		c0.875,0.207,1.682,0.311,2.42,0.311c1.142,0,1.975-0.161,2.498-0.481c0.522-0.321,0.784-0.824,0.784-1.51
		c0-0.527-0.137-0.934-0.409-1.22c-0.272-0.285-0.711-0.501-1.318-0.646c-0.605-0.146-1.396-0.218-2.373-0.218h-1.186v-3.916h1.213
		c2.645,0,3.968-0.676,3.968-2.029c0-0.51-0.195-0.888-0.587-1.135c-0.391-0.245-0.916-0.369-1.575-0.369
		c-1.23,0-2.505,0.414-3.823,1.24l-2.162-3.48c1.02-0.703,2.063-1.204,3.131-1.504c1.068-0.298,2.292-0.447,3.672-0.447
		c1.995,0,3.56,0.395,4.693,1.186S350.055,907.434,350.055,908.821z"/>
	<path fill="#C73A22" d="M352.862,921.729c0-0.809,0.239-1.433,0.719-1.872c0.479-0.439,1.175-0.659,2.089-0.659
		c0.871,0,1.538,0.22,2.004,0.659s0.699,1.063,0.699,1.872c0,0.791-0.239,1.408-0.719,1.853c-0.479,0.443-1.141,0.666-1.984,0.666
		c-0.869,0-1.555-0.221-2.057-0.66C353.113,923.148,352.862,922.528,352.862,921.729z"/>
	<path fill="#C73A22" d="M374.471,913.462c0,3.771-0.813,6.5-2.439,8.188s-4.228,2.531-7.805,2.531
		c-1.178,0-2.074-0.044-2.689-0.132v-4.126c0.756,0.141,1.512,0.211,2.268,0.211c1.863,0,3.3-0.385,4.311-1.154
		c1.011-0.769,1.561-1.984,1.648-3.645h-0.158c-0.343,0.633-0.682,1.09-1.016,1.371s-0.742,0.496-1.226,0.646
		s-1.086,0.224-1.806,0.224c-1.671,0-2.976-0.558-3.916-1.674s-1.41-2.654-1.41-4.614c0-2.136,0.608-3.81,1.825-5.022
		c1.218-1.213,2.885-1.82,5.003-1.82c2.355,0,4.18,0.783,5.472,2.348S374.471,910.58,374.471,913.462z M367.206,908.61
		c-0.571,0-1.035,0.207-1.391,0.62s-0.534,1.077-0.534,1.991c0,0.721,0.153,1.294,0.461,1.72c0.308,0.427,0.778,0.64,1.411,0.64
		c0.571,0,1.067-0.206,1.489-0.619s0.633-0.91,0.633-1.49c0-0.782-0.195-1.454-0.586-2.018
		C368.298,908.893,367.804,908.61,367.206,908.61z"/>
	<path fill="#C73A22" d="M385.781,910.391c0,1.934-0.435,3.43-1.305,4.489s-2.109,1.588-3.718,1.588
		c-1.512,0-2.709-0.547-3.593-1.641c-0.883-1.095-1.324-2.573-1.324-4.437c0-1.934,0.43-3.421,1.291-4.463
		c0.861-1.041,2.07-1.562,3.626-1.562c1.538,0,2.76,0.54,3.665,1.621S385.781,908.536,385.781,910.391z M379.81,910.443
		c0,1.011,0.083,1.74,0.251,2.188c0.166,0.448,0.417,0.672,0.751,0.672s0.582-0.219,0.745-0.658
		c0.162-0.439,0.244-1.174,0.244-2.202c0-1.011-0.082-1.74-0.244-2.188c-0.163-0.448-0.411-0.672-0.745-0.672
		c-0.343,0-0.596,0.229-0.758,0.686C379.891,908.726,379.81,909.45,379.81,910.443z M395.393,904.643l-10.691,19.274h-3.916
		l10.691-19.274H395.393z M400.441,918.063c0,1.925-0.437,3.417-1.312,4.476c-0.874,1.06-2.111,1.589-3.711,1.589
		c-1.512,0-2.709-0.547-3.593-1.642c-0.883-1.094-1.324-2.568-1.324-4.423c0-1.934,0.43-3.421,1.291-4.463
		c0.861-1.041,2.07-1.563,3.626-1.563c1.538,0,2.76,0.541,3.665,1.622S400.441,916.209,400.441,918.063z M394.47,918.116
		c0,1.011,0.083,1.74,0.251,2.188c0.166,0.448,0.417,0.673,0.751,0.673c0.378,0,0.64-0.258,0.784-0.771
		c0.146-0.515,0.218-1.211,0.218-2.09s-0.072-1.575-0.218-2.09c-0.145-0.514-0.406-0.771-0.784-0.771
		c-0.343,0-0.596,0.229-0.758,0.686C394.551,916.398,394.47,917.123,394.47,918.116z"/>
</g>
</svg>
