<?xml version="1.0" encoding="utf-8"?>
<!-- Generator: Adobe Illustrator 17.0.0, SVG Export Plug-In . SVG Version: 6.00 Build 0)  -->
<!DOCTYPE svg PUBLIC "-//W3C//DTD SVG 1.1//EN" "http://www.w3.org/Graphics/SVG/1.1/DTD/svg11.dtd">
<svg version="1.1" id="Layer_1" xmlns="http://www.w3.org/2000/svg" xmlns:xlink="http://www.w3.org/1999/xlink" x="0px" y="0px"
	 width="510px" height="962px" viewBox="0 0 510 962" enable-background="new 0 0 510 962" xml:space="preserve">
<rect x="10.542" y="875.835" fill="none" stroke="#C73A22" stroke-width="1.4233" stroke-miterlimit="10" width="491.859" height="77.809"/>
<rect x="10.56" y="761.698" fill="none" stroke="#C73A22" stroke-width="1.4233" stroke-miterlimit="10" width="491.859" height="77.809"/>
<rect x="10.56" y="604.03" fill="none" stroke="#C73A22" stroke-width="1.4233" stroke-miterlimit="10" width="491.859" height="116.713"/>
<rect x="25.1" y="632.496" fill="none" width="462.779" height="29.89"/>
<g enable-background="new    ">
	<path fill="#C73A22" d="M75.463,653.049h-1.107l-4.232-14.871c-0.352-1.222-0.615-2.224-0.791-3.006
		c-0.141,0.765-0.341,1.644-0.6,2.637s-1.676,6.073-4.251,15.24h-1.134l-5.3-19.274h1.411l3.375,12.419
		c0.132,0.501,0.255,0.965,0.369,1.391c0.114,0.427,0.218,0.826,0.31,1.2c0.093,0.373,0.176,0.733,0.251,1.081
		c0.074,0.347,0.143,0.696,0.204,1.048c0.211-1.195,0.659-3.01,1.345-5.444l3.296-11.694h1.49l3.863,13.421
		c0.448,1.547,0.769,2.795,0.962,3.744c0.114-0.633,0.261-1.305,0.442-2.018c0.18-0.711,1.536-5.761,4.067-15.147h1.358
		L75.463,653.049z"/>
	<path fill="#C73A22" d="M100.394,643.385c0,3.059-0.765,5.479-2.294,7.258c-1.529,1.78-3.639,2.67-6.328,2.67
		c-2.681,0-4.786-0.89-6.315-2.67c-1.529-1.779-2.294-4.207-2.294-7.283c0-3.067,0.771-5.482,2.314-7.245
		c1.542-1.762,3.649-2.644,6.321-2.644c2.689,0,4.794,0.886,6.315,2.657C99.633,637.898,100.394,640.318,100.394,643.385z
		 M84.626,643.385c0,2.761,0.615,4.894,1.846,6.401c1.23,1.507,2.997,2.261,5.3,2.261c2.32,0,4.094-0.747,5.319-2.241
		c1.227-1.494,1.839-3.634,1.839-6.421c0-2.776-0.613-4.906-1.839-6.387s-2.99-2.222-5.293-2.222c-2.294,0-4.063,0.747-5.307,2.241
		S84.626,640.635,84.626,643.385z"/>
	<path fill="#C73A22" d="M106.168,644.65v8.398h-1.345v-19.274h4.588c2.391,0,4.157,0.441,5.3,1.325
		c1.143,0.883,1.714,2.213,1.714,3.988c0,1.291-0.341,2.382-1.022,3.27s-1.716,1.524-3.104,1.911l5.234,8.78h-1.608l-4.97-8.398
		L106.168,644.65L106.168,644.65z M106.168,643.49h3.678c1.626,0,2.887-0.362,3.784-1.087c0.896-0.726,1.345-1.795,1.345-3.21
		c0-1.468-0.439-2.536-1.318-3.204s-2.312-1.002-4.298-1.002h-3.19L106.168,643.49L106.168,643.49z"/>
	<path fill="#C73A22" d="M133.827,653.049h-1.648l-7.396-10.178l-2.571,2.268v7.91h-1.345v-19.274h1.345v10.02l2.136-2.136
		l7.554-7.884h1.714l-7.897,8.147L133.827,653.049z"/>
	<path fill="#C73A22" d="M137.901,653.049h-1.345v-19.274h10.56v1.239h-9.215v8.174h8.701v1.252h-8.701V653.049z"/>
	<path fill="#C73A22" d="M166.312,643.385c0,3.059-0.765,5.479-2.294,7.258c-1.529,1.78-3.639,2.67-6.328,2.67
		c-2.681,0-4.786-0.89-6.315-2.67c-1.529-1.779-2.294-4.207-2.294-7.283c0-3.067,0.771-5.482,2.314-7.245
		c1.542-1.762,3.649-2.644,6.321-2.644c2.689,0,4.794,0.886,6.315,2.657C165.551,637.898,166.312,640.318,166.312,643.385z
		 M150.544,643.385c0,2.761,0.615,4.894,1.846,6.401c1.23,1.507,2.997,2.261,5.3,2.261c2.32,0,4.094-0.747,5.319-2.241
		c1.227-1.494,1.839-3.634,1.839-6.421c0-2.776-0.613-4.906-1.839-6.387s-2.99-2.222-5.293-2.222c-2.294,0-4.063,0.747-5.307,2.241
		S150.544,640.635,150.544,643.385z"/>
	<path fill="#C73A22" d="M172.086,644.65v8.398h-1.345v-19.274h4.588c2.391,0,4.157,0.441,5.3,1.325
		c1.143,0.883,1.714,2.213,1.714,3.988c0,1.291-0.341,2.382-1.022,3.27s-1.716,1.524-3.104,1.911l5.234,8.78h-1.608l-4.97-8.398
		L172.086,644.65L172.086,644.65z M172.086,643.49h3.678c1.626,0,2.887-0.362,3.784-1.087c0.896-0.726,1.345-1.795,1.345-3.21
		c0-1.468-0.439-2.536-1.318-3.204s-2.312-1.002-4.298-1.002h-3.19L172.086,643.49L172.086,643.49z"/>
	<path fill="#C73A22" d="M195.012,634.711c-2.417,0-4.32,0.773-5.708,2.32s-2.083,3.664-2.083,6.354
		c0,2.752,0.655,4.888,1.964,6.408s3.182,2.28,5.616,2.28c1.617,0,3.103-0.206,4.456-0.62v1.188
		c-1.274,0.447-2.865,0.672-4.772,0.672c-2.707,0-4.838-0.874-6.394-2.623s-2.333-4.193-2.333-7.33c0-1.96,0.371-3.688,1.114-5.182
		s1.811-2.647,3.204-3.461c1.393-0.813,3.012-1.219,4.858-1.219c1.881,0,3.564,0.352,5.049,1.055l-0.541,1.213
		C198.036,635.063,196.559,634.711,195.012,634.711z"/>
	<path fill="#C73A22" d="M214.089,653.049h-10.534v-19.274h10.534v1.239H204.9v7.291h8.675v1.238H204.9v8.267h9.189L214.089,653.049
		L214.089,653.049z"/>
	<path fill="#C73A22" d="M236.105,648.078c0,1.609-0.591,2.884-1.773,3.824s-2.753,1.41-4.713,1.41c-2.355,0-4.162-0.26-5.418-0.777
		v-1.346c1.389,0.59,3.16,0.884,5.313,0.884c1.582,0,2.836-0.362,3.764-1.088c0.927-0.725,1.391-1.676,1.391-2.854
		c0-0.729-0.154-1.333-0.461-1.813c-0.308-0.479-0.809-0.916-1.503-1.312s-1.714-0.821-3.059-1.278
		c-1.969-0.677-3.329-1.409-4.08-2.195c-0.752-0.787-1.127-1.835-1.127-3.145c0-1.441,0.564-2.617,1.694-3.526
		c1.129-0.91,2.582-1.364,4.357-1.364c1.811,0,3.511,0.342,5.102,1.027l-0.488,1.16c-1.6-0.667-3.129-1.002-4.588-1.002
		c-1.424,0-2.558,0.33-3.401,0.989s-1.266,1.556-1.266,2.689c0,0.712,0.129,1.297,0.389,1.753c0.259,0.458,0.684,0.868,1.272,1.233
		c0.589,0.364,1.6,0.802,3.032,1.312c1.503,0.519,2.632,1.021,3.388,1.51c0.756,0.487,1.307,1.041,1.655,1.661
		C235.932,646.45,236.105,647.2,236.105,648.078z"/>
	<path fill="#C73A22" d="M240.179,653.049v-19.274h1.345v19.274H240.179z"/>
	<path fill="#C73A22" d="M258.729,653.049h-13.395v-1.002l11.285-17.007h-10.771v-1.266h12.578v1.002l-11.312,17.007h11.615V653.049
		z"/>
	<path fill="#C73A22" d="M273.072,653.049h-10.533v-19.274h10.533v1.239h-9.188v7.291h8.675v1.238h-8.675v8.267h9.188V653.049z"/>
	<path fill="#C73A22" d="M276.843,640.248c0-0.861,0.352-1.293,1.055-1.293c0.721,0,1.081,0.432,1.081,1.293
		c0,0.466-0.104,0.8-0.31,1.002c-0.207,0.202-0.464,0.303-0.771,0.303c-0.299,0-0.549-0.101-0.751-0.303
		S276.843,640.714,276.843,640.248z M276.843,652.021c0-0.861,0.352-1.292,1.055-1.292c0.721,0,1.081,0.431,1.081,1.292
		s-0.36,1.292-1.081,1.292C277.194,653.313,276.843,652.882,276.843,652.021z"/>
</g>
<g enable-background="new    ">
	<path fill="#C73A22" d="M300.929,653.049h-5.287v-10.204c0-1.239,0.026-2.373,0.079-3.401c-0.325,0.396-0.729,0.809-1.213,1.239
		l-2.188,1.806l-2.702-3.322l6.618-5.392h4.693L300.929,653.049L300.929,653.049z"/>
	<path fill="#C73A22" d="M305.464,650.86c0-0.809,0.239-1.433,0.719-1.872c0.479-0.439,1.175-0.659,2.089-0.659
		c0.87,0,1.538,0.22,2.004,0.659s0.699,1.063,0.699,1.872c0,0.791-0.24,1.408-0.719,1.853c-0.479,0.443-1.141,0.666-1.984,0.666
		c-0.87,0-1.556-0.221-2.057-0.66C305.714,652.28,305.464,651.66,305.464,650.86z"/>
	<path fill="#C73A22" d="M320.098,633.498c2.03,0,3.609,0.408,4.739,1.226c1.129,0.817,1.694,1.978,1.694,3.48
		c0,1.02-0.267,1.914-0.798,2.683c-0.532,0.77-1.373,1.439-2.524,2.011c1.424,0.809,2.428,1.615,3.013,2.419
		c0.584,0.805,0.876,1.673,0.876,2.604c0,1.715-0.619,3.042-1.858,3.982s-2.971,1.41-5.194,1.41c-2.268,0-4.004-0.459-5.208-1.378
		c-1.204-0.918-1.806-2.238-1.806-3.962c0-1.115,0.268-2.067,0.804-2.854c0.536-0.787,1.438-1.501,2.703-2.143
		c-1.02-0.686-1.765-1.422-2.234-2.208c-0.471-0.787-0.706-1.65-0.706-2.591c0-1.477,0.576-2.626,1.728-3.447
		C316.477,633.908,318.067,633.498,320.098,633.498z M317.804,647.762c0,0.546,0.193,0.982,0.58,1.313
		c0.387,0.329,0.923,0.494,1.608,0.494c1.547,0,2.32-0.566,2.32-1.701c0-0.43-0.17-0.854-0.508-1.271
		c-0.339-0.418-0.942-0.886-1.813-1.404c-0.782,0.413-1.343,0.828-1.681,1.246C317.973,646.854,317.804,647.297,317.804,647.762z
		 M320.071,637.255c-0.448,0-0.826,0.13-1.134,0.389c-0.308,0.26-0.462,0.596-0.462,1.009c0,0.756,0.515,1.424,1.543,2.004
		c0.624-0.36,1.05-0.689,1.278-0.988s0.343-0.638,0.343-1.016c0-0.422-0.153-0.76-0.461-1.016
		C320.871,637.383,320.502,637.255,320.071,637.255z"/>
	<path fill="#C73A22" d="M345.449,653.049l-3.941-13.883h-0.119c0.185,2.365,0.277,4.202,0.277,5.512v8.371h-4.614v-19.274h6.935
		l4.021,13.685h0.105l3.942-13.685h6.947v19.274h-4.785v-8.451c0-0.438,0.007-0.927,0.02-1.463c0.014-0.536,0.072-1.85,0.178-3.941
		h-0.118l-3.89,13.855H345.449z"/>
	<path fill="#C73A22" d="M363.155,653.049v-19.274h5.233v19.274H363.155z"/>
	<path fill="#C73A22" d="M372.555,653.049v-19.274h5.208v15.069h7.422v4.205H372.555z"/>
	<path fill="#C73A22" d="M388.27,653.049v-19.274h5.208v15.069h7.422v4.205H388.27z"/>
	<path fill="#C73A22" d="M403.984,653.049v-19.274h5.234v19.274H403.984z"/>
	<path fill="#C73A22" d="M431.42,643.385c0,3.244-0.796,5.709-2.387,7.396s-3.92,2.531-6.987,2.531
		c-3.023,0-5.342-0.848-6.954-2.545c-1.613-1.695-2.419-4.166-2.419-7.408c0-3.208,0.802-5.658,2.406-7.351
		c1.604-1.691,3.935-2.538,6.993-2.538c3.067,0,5.393,0.84,6.975,2.519S431.42,640.134,431.42,643.385z M418.157,643.385
		c0,3.728,1.296,5.59,3.889,5.59c1.318,0,2.296-0.452,2.934-1.357c0.637-0.905,0.956-2.315,0.956-4.232
		c0-1.924-0.323-3.346-0.969-4.265c-0.646-0.918-1.611-1.378-2.895-1.378C419.462,637.742,418.157,639.624,418.157,643.385z"/>
	<path fill="#C73A22" d="M453.252,653.049h-6.829l-7.04-13.579h-0.119c0.167,2.136,0.251,3.767,0.251,4.892v8.688H434.9v-19.274
		h6.803l7.014,13.395h0.079c-0.123-1.942-0.185-3.502-0.185-4.681v-8.714h4.641V653.049z"/>
</g>
<rect x="111.547" y="674.485" fill="none" width="289.885" height="17.792"/>
<g enable-background="new    ">
	<path fill="#808184" d="M154.092,689.629h-3.799l1.699-7.803c0.182-0.859,0.43-1.692,0.742-2.5
		c-0.508,0.442-0.934,0.778-1.279,1.006l-1.982,1.221l-1.475-2.461l6.055-3.74h3.037L154.092,689.629z"/>
</g>
<text transform="matrix(1 0 0 1 158.092 689.6288)" fill="#808184" font-family="'OpenSans-Extrabold'" font-size="20"> </text>
<g enable-background="new    ">
	<path fill="#808184" d="M172.653,676.064c-1.283,0-2.427,0.34-3.433,1.021s-1.803,1.672-2.393,2.974s-0.884,2.737-0.884,4.307
		c0,1.465,0.36,2.591,1.079,3.379s1.753,1.182,3.101,1.182c0.912,0,1.901-0.166,2.969-0.498v0.918
		c-1.016,0.319-2.044,0.479-3.086,0.479c-1.641,0-2.897-0.472-3.77-1.416s-1.309-2.278-1.309-4.004c0-1.731,0.34-3.32,1.021-4.766
		s1.606-2.556,2.778-3.33s2.48-1.162,3.926-1.162c1.152,0,2.152,0.222,2.998,0.664l-0.439,0.879
		c-0.358-0.195-0.763-0.349-1.216-0.459S173.096,676.064,172.653,676.064z"/>
	<path fill="#808184" d="M182.78,689.629h-7.1l3.027-14.277h7.1l-0.205,0.918h-6.094l-1.143,5.4h5.762l-0.205,0.918h-5.742
		l-1.318,6.123h6.123L182.78,689.629z"/>
	<path fill="#808184" d="M198.805,680.732c0,1.66-0.306,3.228-0.918,4.702s-1.432,2.575-2.461,3.301s-2.217,1.089-3.564,1.089
		c-1.627,0-2.881-0.485-3.76-1.455s-1.318-2.37-1.318-4.199c0-1.706,0.303-3.26,0.908-4.663s1.436-2.48,2.49-3.232
		s2.269-1.128,3.643-1.128c1.608,0,2.84,0.483,3.696,1.45S198.805,678.942,198.805,680.732z M193.688,676.064
		c-1.133,0-2.137,0.329-3.013,0.986s-1.574,1.628-2.095,2.91s-0.781,2.64-0.781,4.072c0,1.595,0.356,2.81,1.069,3.643
		s1.753,1.25,3.12,1.25c1.1,0,2.077-0.32,2.93-0.962s1.537-1.618,2.051-2.93s0.771-2.713,0.771-4.204
		c0-1.563-0.34-2.747-1.021-3.555S195.029,676.064,193.688,676.064z"/>
	<path fill="#808184" d="M215.778,678.867c0,3.255-1.986,4.883-5.957,4.883h-1.963l-1.26,5.879h-1.006l3.027-14.277h3.076
		c1.315,0,2.324,0.301,3.027,0.903S215.778,677.728,215.778,678.867z M208.014,682.852h1.865c1.641,0,2.856-0.314,3.647-0.942
		s1.187-1.623,1.187-2.983c0-1.784-1.071-2.676-3.213-2.676h-2.061L208.014,682.852z"/>
	<path fill="#808184" d="M223.874,689.629h-7.1l3.027-14.277h7.1l-0.205,0.918h-6.094l-1.143,5.4h5.762l-0.205,0.918h-5.742
		l-1.318,6.123h6.123L223.874,689.629z"/>
	<path fill="#808184" d="M229.479,683.447l-1.279,6.182h-1.006l3.027-14.277h2.959c2.799,0,4.199,1.172,4.199,3.516
		c0,1.185-0.337,2.171-1.011,2.959s-1.59,1.282-2.749,1.484c1.309,3.848,2.028,5.954,2.158,6.318h-1.084l-2.061-6.182H229.479z
		 M229.694,682.549h2.461c1.354,0,2.386-0.311,3.096-0.933s1.064-1.538,1.064-2.749c0-1.745-1.071-2.617-3.213-2.617h-2.061
		L229.694,682.549z"/>
</g>
<text transform="matrix(1 0 0 1 237.108 689.6288)" fill="#808184" font-family="'OpenSans'" font-size="20"> </text>
<g enable-background="new    ">
	<path fill="#808184" d="M248.681,680.273c1.178,0,2.134,0.383,2.866,1.147s1.099,1.795,1.099,3.091c0,1.699-0.524,3.01-1.572,3.931
		s-2.565,1.382-4.551,1.382c-0.84,0-1.636-0.071-2.388-0.215s-1.304-0.342-1.655-0.596v-3.164c0.514,0.293,1.104,0.522,1.768,0.688
		s1.263,0.249,1.797,0.249c1.803,0,2.705-0.625,2.705-1.875c0-0.495-0.165-0.896-0.493-1.201s-0.773-0.459-1.333-0.459
		c-0.345,0-0.707,0.032-1.084,0.098s-0.677,0.137-0.898,0.215l-1.191-0.898l2.1-7.314h7.939l-0.664,3.154h-4.6l-0.576,1.807
		C248.176,680.286,248.42,680.273,248.681,680.273z"/>
	<path fill="#808184" d="M263.144,689.629h-9.814l0.518-2.5l4.717-4.258c1.614-1.438,2.422-2.614,2.422-3.525
		c0-0.319-0.085-0.559-0.254-0.718c-0.17-0.159-0.385-0.239-0.645-0.239c-0.781,0-1.696,0.479-2.744,1.436l-1.816-2.52
		c1.523-1.438,3.284-2.158,5.283-2.158c1.191,0,2.151,0.324,2.881,0.972c0.729,0.647,1.094,1.525,1.094,2.632
		c0,0.989-0.283,1.917-0.85,2.783s-1.537,1.892-2.91,3.076l-2.002,1.719v0.117h4.785L263.144,689.629z"/>
	<path fill="#808184" d="M275.888,686.865h-1.465l-0.576,2.764h-3.682l0.586-2.764h-5.361l0.498-2.5l7.441-9.014h3.516l-1.816,8.633
		h1.455L275.888,686.865z M271.347,683.984l0.479-1.895c0.188-0.696,0.384-1.384,0.586-2.061h-0.088
		c-0.332,0.632-0.703,1.191-1.113,1.68l-1.904,2.275L271.347,683.984L271.347,683.984z"/>
</g>
<text transform="matrix(1 0 0 1 276.961 689.6288)" fill="#808184" font-family="'OpenSans-Extrabold'" font-size="20"> </text>
<g enable-background="new    ">
	<path fill="#808184" d="M292.078,676.533c-0.176,0.495-0.377,0.994-0.605,1.499s-2.061,4.37-5.498,11.597h-0.801l-0.713-14.277
		h0.977l0.459,10.068l0.039,1.611l-0.02,0.84h0.059c0.554-1.472,1.107-2.767,1.66-3.887l4.238-8.633h1.025l0.596,8.574
		c0.124,1.731,0.186,3.066,0.186,4.004h0.059c0.195-0.56,0.396-1.091,0.601-1.592s1.812-4.163,4.819-10.986h1.055
		c-1.1,2.376-2.176,4.756-3.228,7.139c-1.051,2.383-2.12,4.763-3.208,7.139h-0.762l-0.762-10.498
		c-0.071-0.925-0.107-1.638-0.107-2.139l0.01-0.459L292.078,676.533L292.078,676.533z"/>
	<path fill="#808184" d="M312.459,680.732c0,1.66-0.306,3.228-0.918,4.702c-0.611,1.475-1.432,2.575-2.461,3.301
		c-1.028,0.726-2.217,1.089-3.564,1.089c-1.627,0-2.881-0.485-3.76-1.455s-1.318-2.37-1.318-4.199c0-1.706,0.303-3.26,0.908-4.663
		s1.436-2.48,2.49-3.232s2.27-1.128,3.643-1.128c1.608,0,2.841,0.483,3.696,1.45C312.031,677.563,312.459,678.942,312.459,680.732z
		 M307.342,676.064c-1.133,0-2.137,0.329-3.013,0.986c-0.875,0.657-1.573,1.628-2.095,2.91c-0.521,1.282-0.781,2.64-0.781,4.072
		c0,1.595,0.356,2.81,1.069,3.643s1.753,1.25,3.12,1.25c1.101,0,2.077-0.32,2.93-0.962c0.854-0.642,1.537-1.618,2.051-2.93
		c0.515-1.312,0.771-2.713,0.771-4.204c0-1.563-0.34-2.747-1.021-3.555C309.694,676.468,308.684,676.064,307.342,676.064z"/>
	<path fill="#808184" d="M316.336,683.447l-1.279,6.182h-1.006l3.027-14.277h2.959c2.8,0,4.199,1.172,4.199,3.516
		c0,1.185-0.337,2.171-1.011,2.959s-1.59,1.282-2.749,1.484c1.309,3.848,2.028,5.954,2.158,6.318h-1.084l-2.061-6.182H316.336z
		 M316.551,682.549h2.461c1.354,0,2.387-0.311,3.096-0.933c0.71-0.622,1.064-1.538,1.064-2.749c0-1.745-1.07-2.617-3.213-2.617
		h-2.061L316.551,682.549z"/>
	<path fill="#808184" d="M333.797,689.629h-1.084l-3.34-7.695l-1.855,1.494l-1.279,6.201h-1.006l3.027-14.277h0.996l-1.543,7.061
		l1.299-1.182l6.641-5.879H337l-6.826,5.957L333.797,689.629z"/>
	<path fill="#808184" d="M343.289,689.629h-7.1l3.027-14.277h7.1l-0.205,0.918h-6.094l-1.143,5.4h5.762l-0.205,0.918h-5.742
		l-1.318,6.123h6.123L343.289,689.629z"/>
	<path fill="#808184" d="M348.895,683.447l-1.279,6.182h-1.006l3.027-14.277h2.959c2.8,0,4.199,1.172,4.199,3.516
		c0,1.185-0.337,2.171-1.011,2.959s-1.59,1.282-2.749,1.484c1.309,3.848,2.028,5.954,2.158,6.318h-1.084l-2.061-6.182H348.895z
		 M349.109,682.549h2.461c1.354,0,2.387-0.311,3.096-0.933c0.71-0.622,1.064-1.538,1.064-2.749c0-1.745-1.07-2.617-3.213-2.617
		h-2.061L349.109,682.549z"/>
	<path fill="#808184" d="M365.535,685.693c0,0.82-0.213,1.551-0.64,2.192c-0.426,0.642-1.011,1.125-1.753,1.45
		s-1.617,0.488-2.627,0.488c-0.572,0-1.134-0.056-1.685-0.166c-0.55-0.11-1.108-0.3-1.675-0.566v-1.064
		c1.062,0.599,2.194,0.898,3.398,0.898c1.225,0,2.187-0.281,2.886-0.845c0.7-0.563,1.05-1.32,1.05-2.271
		c0-0.397-0.055-0.737-0.166-1.021c-0.11-0.283-0.281-0.539-0.513-0.767c-0.23-0.228-0.527-0.449-0.889-0.664
		s-0.789-0.459-1.284-0.732c-0.977-0.495-1.658-1.028-2.046-1.602c-0.387-0.573-0.581-1.243-0.581-2.012s0.192-1.443,0.576-2.026
		c0.385-0.583,0.922-1.035,1.611-1.357c0.69-0.322,1.462-0.483,2.314-0.483c0.645,0,1.23,0.057,1.758,0.171s1.074,0.311,1.641,0.591
		l-0.313,0.918c-0.43-0.261-0.923-0.466-1.479-0.615s-1.092-0.225-1.606-0.225c-1.061,0-1.905,0.269-2.534,0.806
		c-0.628,0.537-0.942,1.248-0.942,2.134c0,0.671,0.16,1.224,0.479,1.66c0.319,0.437,0.912,0.869,1.777,1.299
		c1.003,0.515,1.698,0.938,2.085,1.27c0.388,0.332,0.678,0.7,0.869,1.104C365.439,684.661,365.535,685.14,365.535,685.693z"/>
</g>
<rect x="48.515" y="788.836" fill="none" width="410.255" height="29.89"/>
<g enable-background="new    ">
	<path fill="#C73A22" d="M88.07,809.389l-7.185-17.798H80.78c0.07,1.09,0.105,2.206,0.105,3.349v14.449h-1.292v-19.274h2.083
		l6.829,16.954h0.079l6.829-16.954h2.03v19.274h-1.358v-14.607c0-1.02,0.053-2.074,0.158-3.164h-0.105l-7.211,17.771H88.07z"/>
	<path fill="#C73A22" d="M113.423,809.389h-10.534v-19.274h10.534v1.239h-9.189v7.291h8.675v1.238h-8.675v8.267h9.189
		C113.423,808.15,113.423,809.389,113.423,809.389z"/>
	<path fill="#C73A22" d="M132.42,799.566c0,3.235-0.848,5.681-2.544,7.337c-1.696,1.657-4.188,2.485-7.476,2.485h-4.614v-19.274
		h5.208c3.076,0,5.416,0.804,7.021,2.413C131.618,794.135,132.42,796.482,132.42,799.566z M130.957,799.619
		c0-2.759-0.701-4.836-2.103-6.229c-1.402-1.394-3.461-2.09-6.177-2.09h-3.547v16.901h3.19
		C128.078,808.202,130.957,805.342,130.957,799.619z"/>
	<path fill="#C73A22" d="M136.85,809.389v-19.274h1.345v19.274H136.85z"/>
	<path fill="#C73A22" d="M152.934,802.586h-7.831l-2.689,6.803h-1.489l7.752-19.354h0.856l7.594,19.354h-1.516L152.934,802.586z
		 M145.591,801.373h6.895l-2.623-6.947c-0.22-0.545-0.483-1.301-0.791-2.268c-0.237,0.844-0.497,1.607-0.778,2.293L145.591,801.373z
		"/>
	<path fill="#C73A22" d="M173.869,809.389h-1.357l-11.417-17.112h-0.105c0.105,2.039,0.158,3.577,0.158,4.614v12.498h-1.292v-19.274
		h1.345l11.403,17.086h0.079c-0.079-1.582-0.118-3.085-0.118-4.509v-12.577h1.305L173.869,809.389L173.869,809.389z"/>
	<path fill="#C73A22" d="M200.303,809.389h-1.358v-9.479h-11.259v9.479h-1.345v-19.274h1.345v8.556h11.259v-8.556h1.358V809.389z"/>
	<path fill="#C73A22" d="M221.963,799.725c0,3.059-0.765,5.479-2.294,7.258c-1.529,1.78-3.639,2.67-6.328,2.67
		c-2.681,0-4.785-0.89-6.314-2.67c-1.529-1.779-2.294-4.207-2.294-7.283c0-3.067,0.771-5.482,2.313-7.245
		c1.542-1.762,3.649-2.644,6.321-2.644c2.689,0,4.795,0.886,6.315,2.657C221.203,794.238,221.963,796.658,221.963,799.725z
		 M206.195,799.725c0,2.761,0.615,4.894,1.846,6.401c1.23,1.507,2.997,2.261,5.3,2.261c2.32,0,4.094-0.747,5.319-2.241
		c1.227-1.494,1.84-3.634,1.84-6.421c0-2.776-0.613-4.906-1.84-6.387c-1.226-1.481-2.99-2.222-5.293-2.222
		c-2.294,0-4.063,0.747-5.307,2.241C206.817,794.852,206.195,796.975,206.195,799.725z"/>
	<path fill="#C73A22" d="M240.565,790.114v12.472c0,2.215-0.642,3.946-1.925,5.194s-3.072,1.872-5.366,1.872
		c-2.232,0-3.975-0.626-5.227-1.879c-1.253-1.252-1.879-2.999-1.879-5.24v-12.419h1.357v12.472c0,1.854,0.515,3.298,1.543,4.331
		c1.028,1.032,2.482,1.549,4.363,1.549c1.837,0,3.261-0.508,4.271-1.522c1.011-1.016,1.517-2.424,1.517-4.226v-12.604
		L240.565,790.114L240.565,790.114z"/>
	<path fill="#C73A22" d="M247.157,800.99v8.398h-1.345v-19.274h4.588c2.391,0,4.157,0.441,5.3,1.325
		c1.143,0.883,1.714,2.213,1.714,3.988c0,1.291-0.341,2.382-1.022,3.27s-1.716,1.524-3.104,1.911l5.234,8.78h-1.608l-4.971-8.398
		L247.157,800.99L247.157,800.99z M247.157,799.83h3.678c1.626,0,2.888-0.362,3.784-1.087c0.896-0.726,1.345-1.795,1.345-3.21
		c0-1.468-0.439-2.536-1.318-3.204s-2.312-1.002-4.298-1.002h-3.19L247.157,799.83L247.157,799.83z"/>
	<path fill="#C73A22" d="M261.856,809.389v-19.274h1.345v18.009h9.189v1.266L261.856,809.389L261.856,809.389z"/>
	<path fill="#C73A22" d="M280.143,800.661l5.643-10.547h1.45l-6.421,11.825v7.449h-1.384v-7.344l-6.447-11.931h1.543
		L280.143,800.661z"/>
	<path fill="#C73A22" d="M312.337,809.389h-1.107l-4.232-14.871c-0.352-1.222-0.615-2.224-0.791-3.006
		c-0.141,0.765-0.341,1.644-0.6,2.637c-0.26,0.993-1.677,6.073-4.252,15.24h-1.134l-5.3-19.274h1.411l3.375,12.419
		c0.132,0.501,0.255,0.965,0.369,1.391c0.114,0.427,0.218,0.826,0.31,1.2c0.093,0.373,0.176,0.733,0.251,1.081
		c0.074,0.347,0.143,0.696,0.204,1.048c0.211-1.195,0.659-3.01,1.345-5.444l3.296-11.694h1.489l3.863,13.421
		c0.448,1.547,0.769,2.795,0.962,3.744c0.114-0.633,0.262-1.305,0.442-2.018c0.18-0.711,1.535-5.761,4.066-15.147h1.358
		L312.337,809.389z"/>
	<path fill="#C73A22" d="M330.346,802.586h-7.831l-2.689,6.803h-1.49l7.752-19.354h0.857l7.594,19.354h-1.517L330.346,802.586z
		 M323.002,801.373h6.896l-2.624-6.947c-0.22-0.545-0.483-1.301-0.791-2.268c-0.237,0.844-0.496,1.607-0.777,2.293L323.002,801.373z
		"/>
	<path fill="#C73A22" d="M344.848,799.672h7.105v8.794c-1.863,0.791-3.959,1.187-6.288,1.187c-3.041,0-5.372-0.859-6.994-2.577
		c-1.621-1.719-2.433-4.15-2.433-7.298c0-1.959,0.402-3.697,1.207-5.214c0.804-1.516,1.955-2.687,3.454-3.513
		c1.498-0.826,3.219-1.24,5.161-1.24c2.101,0,3.985,0.388,5.655,1.16l-0.54,1.213c-1.67-0.772-3.401-1.16-5.194-1.16
		c-2.54,0-4.555,0.785-6.045,2.354c-1.489,1.569-2.234,3.686-2.234,6.348c0,2.9,0.707,5.083,2.122,6.546
		c1.415,1.464,3.494,2.195,6.236,2.195c1.775,0,3.282-0.251,4.521-0.751v-6.777h-5.734v-1.267H344.848z"/>
	<path fill="#C73A22" d="M367.325,809.389h-10.533v-19.274h10.533v1.239h-9.188v7.291h8.675v1.238h-8.675v8.267h9.188V809.389z"/>
	<path fill="#C73A22" d="M371.096,796.588c0-0.861,0.352-1.293,1.055-1.293c0.721,0,1.081,0.432,1.081,1.293
		c0,0.466-0.104,0.8-0.31,1.002c-0.207,0.202-0.464,0.303-0.771,0.303c-0.299,0-0.549-0.101-0.751-0.303
		S371.096,797.054,371.096,796.588z M371.096,808.36c0-0.861,0.352-1.292,1.055-1.292c0.721,0,1.081,0.431,1.081,1.292
		s-0.36,1.292-1.081,1.292C371.447,809.652,371.096,809.222,371.096,808.36z"/>
</g>
<text transform="matrix(1 0 0 1 375.8595 809.3885)" fill="#C73A22" font-family="'OpenSans'" font-size="27"> </text>
<g enable-background="new    ">
	<path fill="#C73A22" d="M389.53,808.492c-1.925-0.088-3.779-0.519-5.563-1.292v-4.377c1.02,0.519,2.127,0.951,3.322,1.299
		c1.195,0.347,2.245,0.521,3.15,0.521c0.747,0,1.294-0.09,1.642-0.271c0.347-0.18,0.521-0.481,0.521-0.903
		c0-0.289-0.125-0.535-0.375-0.738c-0.251-0.201-0.669-0.43-1.253-0.686c-0.585-0.254-1.373-0.562-2.366-0.922
		c-1.116-0.413-2.018-0.877-2.703-1.392c-0.686-0.514-1.185-1.09-1.496-1.727c-0.313-0.638-0.468-1.431-0.468-2.38
		c0-1.45,0.466-2.584,1.397-3.401s2.329-1.322,4.192-1.517V788.9h2.729v1.78c1.749,0.097,3.512,0.527,5.287,1.291l-1.569,3.758
		c-1.837-0.826-3.493-1.239-4.97-1.239c-0.703,0-1.198,0.086-1.483,0.257c-0.286,0.172-0.429,0.425-0.429,0.758
		c0,0.291,0.104,0.53,0.311,0.719c0.206,0.189,0.564,0.4,1.074,0.633s1.217,0.504,2.122,0.811c1.837,0.651,3.155,1.392,3.955,2.222
		c0.8,0.831,1.2,1.901,1.2,3.21c0,1.477-0.468,2.677-1.404,3.6s-2.301,1.494-4.094,1.714v2.544h-2.729L389.53,808.492
		L389.53,808.492z"/>
	<path fill="#C73A22" d="M411.125,809.389h-5.287v-10.204c0-1.239,0.026-2.373,0.079-3.401c-0.325,0.396-0.729,0.809-1.213,1.239
		l-2.188,1.806l-2.702-3.322l6.618-5.392h4.693L411.125,809.389L411.125,809.389z"/>
	<path fill="#C73A22" d="M428.672,794.293c0,1.196-0.364,2.222-1.094,3.079c-0.729,0.856-1.784,1.479-3.164,1.865v0.079
		c3.217,0.404,4.825,1.925,4.825,4.562c0,1.793-0.71,3.204-2.129,4.231c-1.42,1.029-3.391,1.543-5.913,1.543
		c-1.037,0-1.997-0.075-2.881-0.225c-0.883-0.148-1.839-0.422-2.867-0.816v-4.324c0.844,0.431,1.702,0.749,2.577,0.955
		c0.874,0.207,1.681,0.311,2.419,0.311c1.143,0,1.976-0.161,2.499-0.481c0.522-0.321,0.784-0.824,0.784-1.51
		c0-0.527-0.137-0.934-0.409-1.22c-0.272-0.285-0.712-0.501-1.318-0.646c-0.606-0.146-1.397-0.218-2.373-0.218h-1.187v-3.916h1.213
		c2.646,0,3.969-0.676,3.969-2.029c0-0.51-0.196-0.888-0.587-1.135c-0.392-0.245-0.916-0.369-1.575-0.369
		c-1.23,0-2.505,0.414-3.823,1.24l-2.162-3.48c1.02-0.703,2.063-1.204,3.131-1.504c1.068-0.298,2.292-0.447,3.672-0.447
		c1.995,0,3.56,0.395,4.693,1.186S428.672,792.905,428.672,794.293z"/>
</g>
<rect x="95.635" y="899.794" fill="none" width="318.826" height="29.89"/>
<g enable-background="new    ">
	<path fill="#C73A22" d="M126.486,906.072v12.472c0,2.215-0.642,3.946-1.925,5.194s-3.072,1.872-5.366,1.872
		c-2.232,0-3.975-0.626-5.227-1.879c-1.253-1.252-1.879-2.999-1.879-5.24v-12.419h1.358v12.472c0,1.854,0.514,3.298,1.542,4.331
		c1.028,1.032,2.483,1.549,4.364,1.549c1.837,0,3.261-0.508,4.271-1.522c1.011-1.016,1.516-2.424,1.516-4.226v-12.604
		L126.486,906.072L126.486,906.072z"/>
	<path fill="#C73A22" d="M145.748,925.347h-1.358l-11.417-17.112h-0.105c0.105,2.039,0.158,3.577,0.158,4.614v12.498h-1.292v-19.274
		h1.345l11.404,17.086h0.079c-0.079-1.582-0.119-3.085-0.119-4.509v-12.577h1.305L145.748,925.347L145.748,925.347z"/>
	<path fill="#C73A22" d="M151.206,925.347v-19.274h1.345v19.274H151.206z"/>
	<path fill="#C73A22" d="M174.211,915.683c0,3.059-0.765,5.479-2.294,7.258c-1.529,1.78-3.639,2.67-6.328,2.67
		c-2.681,0-4.786-0.89-6.315-2.67c-1.529-1.779-2.294-4.207-2.294-7.283c0-3.067,0.771-5.482,2.314-7.245
		c1.542-1.762,3.649-2.644,6.321-2.644c2.689,0,4.794,0.886,6.315,2.657C173.451,910.196,174.211,912.616,174.211,915.683z
		 M158.443,915.683c0,2.761,0.615,4.894,1.846,6.401c1.23,1.507,2.997,2.261,5.3,2.261c2.32,0,4.094-0.747,5.319-2.241
		c1.227-1.494,1.839-3.634,1.839-6.421c0-2.776-0.613-4.906-1.839-6.387s-2.99-2.222-5.293-2.222c-2.294,0-4.063,0.747-5.307,2.241
		S158.443,912.933,158.443,915.683z"/>
	<path fill="#C73A22" d="M192.655,925.347h-1.358l-11.417-17.112h-0.105c0.105,2.039,0.158,3.577,0.158,4.614v12.498h-1.292v-19.274
		h1.345l11.404,17.086h0.079c-0.079-1.582-0.119-3.085-0.119-4.509v-12.577h1.305V925.347z"/>
	<path fill="#C73A22" d="M219.76,915.524c0,3.235-0.848,5.681-2.544,7.337c-1.696,1.657-4.188,2.485-7.475,2.485h-4.614v-19.274
		h5.208c3.076,0,5.416,0.804,7.021,2.413C218.958,910.093,219.76,912.44,219.76,915.524z M218.297,915.577
		c0-2.759-0.701-4.836-2.103-6.229c-1.402-1.394-3.461-2.09-6.177-2.09h-3.546v16.901h3.19
		C215.418,924.16,218.297,921.3,218.297,915.577z"/>
	<path fill="#C73A22" d="M234.724,925.347H224.19v-19.274h10.534v1.239h-9.189v7.291h8.675v1.238h-8.675v8.267h9.189V925.347z"/>
	<path fill="#C73A22" d="M253.102,925.347h-1.358l-11.417-17.112h-0.105c0.105,2.039,0.158,3.577,0.158,4.614v12.498h-1.292v-19.274
		h1.345l11.404,17.086h0.079c-0.079-1.582-0.119-3.085-0.119-4.509v-12.577h1.305L253.102,925.347L253.102,925.347z"/>
	<path fill="#C73A22" d="M269.199,920.376c0,1.609-0.592,2.884-1.773,3.824c-1.183,0.94-2.753,1.41-4.713,1.41
		c-2.355,0-4.162-0.26-5.419-0.777v-1.346c1.389,0.59,3.16,0.884,5.313,0.884c1.582,0,2.836-0.362,3.764-1.088
		c0.927-0.725,1.391-1.676,1.391-2.854c0-0.729-0.153-1.333-0.461-1.813c-0.308-0.479-0.809-0.916-1.503-1.312
		s-1.714-0.821-3.059-1.278c-1.969-0.677-3.329-1.409-4.08-2.195c-0.752-0.787-1.128-1.835-1.128-3.145
		c0-1.441,0.564-2.617,1.694-3.526c1.129-0.91,2.582-1.364,4.357-1.364c1.811,0,3.511,0.342,5.102,1.027l-0.487,1.16
		c-1.6-0.667-3.129-1.002-4.588-1.002c-1.424,0-2.558,0.33-3.401,0.989s-1.266,1.556-1.266,2.689c0,0.712,0.129,1.297,0.389,1.753
		c0.259,0.458,0.684,0.868,1.272,1.233c0.589,0.364,1.6,0.802,3.032,1.312c1.503,0.519,2.632,1.021,3.388,1.51
		c0.756,0.487,1.308,1.041,1.655,1.661C269.025,918.748,269.199,919.498,269.199,920.376z"/>
	<path fill="#C73A22" d="M273.272,925.347v-19.274h1.345v19.274H273.272z"/>
	<path fill="#C73A22" d="M285.099,925.347h-1.358v-18.009h-6.262v-1.266h13.882v1.266h-6.262V925.347z"/>
	<path fill="#C73A22" d="M298.651,916.619l5.643-10.547h1.45l-6.421,11.825v7.449h-1.384v-7.344l-6.447-11.931h1.543
		L298.651,916.619z"/>
	<path fill="#C73A22" d="M307.88,912.546c0-0.861,0.352-1.293,1.055-1.293c0.721,0,1.081,0.432,1.081,1.293
		c0,0.466-0.104,0.8-0.31,1.002c-0.207,0.202-0.464,0.303-0.771,0.303c-0.299,0-0.55-0.101-0.752-0.303
		S307.88,913.012,307.88,912.546z M307.88,924.318c0-0.861,0.352-1.292,1.055-1.292c0.721,0,1.081,0.431,1.081,1.292
		s-0.36,1.292-1.081,1.292C308.231,925.61,307.88,925.18,307.88,924.318z"/>
</g>
<text transform="matrix(1 0 0 1 312.489 920.3467)" fill="#C73A22" font-family="'OpenSans'" font-size="27"> </text>
<g enable-background="new    ">
	<path fill="#C73A22" d="M331.933,925.347h-5.286v-10.204c0-1.239,0.026-2.373,0.079-3.401c-0.325,0.396-0.729,0.809-1.213,1.239
		l-2.188,1.806l-2.703-3.322l6.618-5.392h4.693V925.347z"/>
	<path fill="#C73A22" d="M350.126,925.347h-13.987v-3.428l4.706-4.76c1.345-1.405,2.224-2.366,2.637-2.88
		c0.413-0.515,0.701-0.956,0.863-1.325c0.163-0.369,0.244-0.756,0.244-1.16c0-0.501-0.162-0.896-0.487-1.187
		s-0.782-0.435-1.371-0.435c-0.606,0-1.22,0.173-1.84,0.521c-0.619,0.347-1.32,0.859-2.103,1.536l-2.86-3.35
		c0.993-0.887,1.828-1.522,2.505-1.904c0.677-0.383,1.412-0.675,2.208-0.877c0.795-0.202,1.689-0.303,2.683-0.303
		c1.248,0,2.362,0.22,3.342,0.658c0.98,0.44,1.74,1.066,2.281,1.879c0.54,0.813,0.811,1.726,0.811,2.736
		c0,0.756-0.095,1.454-0.283,2.096c-0.189,0.642-0.481,1.272-0.877,1.892c-0.396,0.62-0.921,1.272-1.575,1.958
		c-0.655,0.686-2.05,1.986-4.186,3.902v0.132h7.29v4.299H350.126z"/>
	<path fill="#C73A22" d="M352.288,923.158c0-0.809,0.239-1.433,0.719-1.872c0.479-0.439,1.176-0.659,2.09-0.659
		c0.87,0,1.538,0.22,2.004,0.659s0.698,1.063,0.698,1.872c0,0.791-0.239,1.408-0.719,1.853c-0.479,0.443-1.14,0.666-1.983,0.666
		c-0.87,0-1.556-0.221-2.057-0.66C352.539,924.578,352.288,923.958,352.288,923.158z"/>
	<path fill="#C73A22" d="M361.715,925.347l6.618-14.938h-8.346v-4.311h13.909v3.072l-6.79,16.176L361.715,925.347L361.715,925.347z"
		/>
	<path fill="#C73A22" d="M385.208,911.82c0,1.934-0.436,3.43-1.306,4.489s-2.109,1.588-3.718,1.588
		c-1.512,0-2.709-0.547-3.593-1.641c-0.883-1.095-1.324-2.573-1.324-4.437c0-1.934,0.431-3.421,1.292-4.463
		c0.861-1.041,2.069-1.562,3.625-1.562c1.538,0,2.76,0.54,3.665,1.621S385.208,909.966,385.208,911.82z M379.235,911.873
		c0,1.011,0.084,1.74,0.251,2.188s0.417,0.672,0.751,0.672s0.582-0.219,0.745-0.658c0.162-0.439,0.244-1.174,0.244-2.202
		c0-1.011-0.082-1.74-0.244-2.188c-0.163-0.448-0.411-0.672-0.745-0.672c-0.343,0-0.596,0.229-0.758,0.686
		C379.316,910.155,379.235,910.88,379.235,911.873z M394.818,906.072l-10.691,19.274h-3.916l10.692-19.274H394.818z
		 M399.868,919.493c0,1.925-0.438,3.417-1.313,4.476c-0.874,1.06-2.111,1.589-3.711,1.589c-1.512,0-2.709-0.547-3.593-1.642
		c-0.883-1.094-1.324-2.568-1.324-4.423c0-1.934,0.431-3.421,1.292-4.463c0.861-1.041,2.069-1.563,3.625-1.563
		c1.538,0,2.76,0.541,3.665,1.622S399.868,917.639,399.868,919.493z M393.896,919.546c0,1.011,0.084,1.74,0.251,2.188
		s0.417,0.673,0.751,0.673c0.378,0,0.64-0.258,0.784-0.771c0.146-0.515,0.218-1.211,0.218-2.09s-0.072-1.575-0.218-2.09
		c-0.145-0.514-0.406-0.771-0.784-0.771c-0.343,0-0.596,0.229-0.758,0.686C393.977,917.828,393.896,918.553,393.896,919.546z"/>
</g>
<path d="M332.957,222.733"/>
<path d="M258.697,55.135c0,0,55.351-107.675,108.754,7.228c0,0,54.323,166.857,10.167,177.531"/>
<path fill="#5D889F" d="M307.802,250.983c0,0,91.473,129.565,60.543,251.594l-33.44-25.096
	C334.902,477.481,354.611,383.224,307.802,250.983z"/>
<path fill="#5D889F" d="M193.163,261.947c0,0-66.667,142.818-41.281,255.463l31.442-27.561
	C183.321,489.848,156.517,397.359,193.163,261.947z"/>
<path fill="#5D889F" d="M164.099,440.778l187.099-2.004L334.25,334.686l-10.437-39.052l-9.907-26.465
	c0,0-10.206-34.778-13.352-34.912c-3.146-0.137-93.409-27.425-93.409-27.425l-27.177,105.409L164.099,440.778z"/>
<path fill="#E69863" d="M162.553,481.353c0,0-17.831-43.752,2.531-126.06l26.329-25.438l1.415-72.213l22.374,7.268l-1.816,42.052
	l75.721-2.158l1.879-43.502l0.749-17.338l15.937,0.689l2.539,77.417l37.187,14.525c0,0,16.003,57.517,6.619,138.618
	C354.014,475.206,294.529,499.633,162.553,481.353z"/>
<ellipse transform="matrix(-0.0431 0.9991 -0.9991 -0.0431 411.3024 -75.0905)" fill="#C09C67" cx="241.612" cy="159.426" rx="114.184" ry="109.984"/>
<polygon fill="#FFFFFF" points="186.578,186.107 293.547,182.303 305.536,235.96 174.724,240.611 "/>
<line fill="none" stroke="#FFFFFF" stroke-width="2.5184" stroke-miterlimit="10" x1="296.568" y1="197.682" x2="349.917" y2="191.023"/>
<line fill="none" stroke="#FFFFFF" stroke-width="2.5184" stroke-miterlimit="10" x1="302.23" y1="221.164" x2="329.245" y2="228.119"/>
<line fill="none" stroke="#FFFFFF" stroke-width="2.5184" stroke-miterlimit="10" x1="185.266" y1="209.514" x2="139.84" y2="202.886"/>
<line fill="none" stroke="#FFFFFF" stroke-width="2.5184" stroke-miterlimit="10" x1="177.673" y1="227.051" x2="155.774" y2="231.106"/>
<ellipse transform="matrix(-0.2112 0.9774 -0.9774 -0.2112 399.5992 -30.4275)" cx="212.077" cy="146.024" rx="7.615" ry="6.77"/>
<ellipse transform="matrix(-0.2112 0.9774 -0.9774 -0.2112 464.2909 -81.2217)" cx="264.918" cy="146.73" rx="7.615" ry="6.77"/>
<path d="M140.099,115.738l211.162,5.577c0,0-30.411-83.199-119.846-75.521C231.418,45.794,172.492,45.882,140.099,115.738z"/>
<path fill="#E33B3B" d="M331.853,441.077c-20.592-0.828-28.193-6.141-28.193-6.141c-5.833-19.143,13.221-61.659,13.221-61.659
	l39.701,4.86c0,0,12.612,37.839,3.445,61.221c0,0-1.327,3.041-28.806,1.671"/>
<path d="M318.37,364.312c0,0,20.347,11.026,37.762,6.104c0,0,10.941-5.887-14.192-10.542c0,0-20.82-3.909-24.293,3.593"/>
<path fill="#FFFFFF" stroke="#000000" stroke-width="0.5224" stroke-miterlimit="10" d="M317.937,363.631
	c0,0,20.8,12.361,40.319,3.937c0,0-0.45,8.39-1.674,10.565c0,0-24.119,2.474-39.701-4.86
	C316.878,373.277,316.121,370.125,317.937,363.631z"/>
<line fill="none" stroke="#000000" stroke-width="0.3137" stroke-miterlimit="10" x1="319.711" y1="361.337" x2="318.205" y2="373.878"/>
<line fill="none" stroke="#000000" stroke-width="0.2665" stroke-miterlimit="10" x1="321.783" y1="365.858" x2="320.55" y2="374.894"/>
<line fill="none" stroke="#000000" stroke-width="0.2665" stroke-miterlimit="10" x1="323.89" y1="366.578" x2="322.657" y2="375.614"/>
<line fill="none" stroke="#000000" stroke-width="0.2665" stroke-miterlimit="10" x1="325.271" y1="367.15" x2="324.038" y2="376.186"/>
<line fill="none" stroke="#000000" stroke-width="0.3137" stroke-miterlimit="10" x1="327.471" y1="364.517" x2="326.15" y2="376.073"/>
<line fill="none" stroke="#000000" stroke-width="0.3137" stroke-miterlimit="10" x1="357" y1="366.837" x2="355.753" y2="378.202"/>
<line fill="none" stroke="#000000" stroke-width="0.3137" stroke-miterlimit="10" x1="354.449" y1="368.121" x2="353.959" y2="378.063"/>
<line fill="none" stroke="#000000" stroke-width="0.3137" stroke-miterlimit="10" x1="329.108" y1="365.237" x2="328.214" y2="376.633"/>
<line fill="none" stroke="#000000" stroke-width="0.3137" stroke-miterlimit="10" x1="331.859" y1="366.31" x2="330.999" y2="377.248"/>
<line fill="none" stroke="#000000" stroke-width="0.3137" stroke-miterlimit="10" x1="333.575" y1="366.897" x2="332.325" y2="377.488"/>
<line fill="none" stroke="#000000" stroke-width="0.3209" stroke-miterlimit="10" x1="336.585" y1="367.489" x2="335.517" y2="377.738"/>
<line fill="none" stroke="#000000" stroke-width="0.3137" stroke-miterlimit="10" x1="330.697" y1="365.878" x2="329.612" y2="376.961"/>
<line fill="none" stroke="#000000" stroke-width="0.3137" stroke-miterlimit="10" x1="335.164" y1="367.378" x2="334.162" y2="377.496"/>
<line fill="none" stroke="#000000" stroke-width="0.3197" stroke-miterlimit="10" x1="339.477" y1="368.169" x2="338.688" y2="378.242"/>
<line fill="none" stroke="#000000" stroke-width="0.3291" stroke-miterlimit="10" x1="341.248" y1="368.127" x2="340.71" y2="378.359"/>
<line fill="none" stroke="#000000" stroke-width="0.3291" stroke-miterlimit="10" x1="338.241" y1="368.073" x2="337.083" y2="378.074"/>
<line fill="none" stroke="#000000" stroke-width="0.2992" stroke-miterlimit="10" x1="343.087" y1="370.561" x2="342.868" y2="378.387"/>
<line fill="none" stroke="#000000" stroke-width="0.3291" stroke-miterlimit="10" x1="346.051" y1="368.685" x2="345.552" y2="378.39"/>
<line fill="none" stroke="#000000" stroke-width="0.3291" stroke-miterlimit="10" x1="349.185" y1="368.75" x2="348.106" y2="378.413"/>
<line fill="none" stroke="#000000" stroke-width="0.3291" stroke-miterlimit="10" x1="351.932" y1="368.861" x2="351.679" y2="378.652"/>
<line fill="none" stroke="#000000" stroke-width="0.3291" stroke-miterlimit="10" x1="350.443" y1="368.577" x2="350.073" y2="378.347"/>
<path fill="none" stroke="#FFFFFF" stroke-width="1.567" stroke-miterlimit="10" d="M319.867,401.971c0,0,4.626,16.111-0.646,19.667
	c0,0-5.745,4.672-9.739-1.532"/>
<path fill="none" stroke="#FFFFFF" stroke-width="1.567" stroke-miterlimit="10" d="M325.627,424.206c0,0,2.141-25.688,5.349-22.491
	c0,0,5.754,1.731,6.545,22.665"/>
<line fill="none" stroke="#FFFFFF" stroke-width="1.567" stroke-miterlimit="10" x1="326.728" y1="414.31" x2="336.713" y2="415.093"/>
<path fill="none" stroke="#FFFFFF" stroke-width="1.567" stroke-miterlimit="10" d="M341.236,424.798c0,0-0.786-38.986,5.241-16.233
	c0,0,5.714-12.438,6.821-5.332l0.41,22.545"/>
<line fill="none" stroke="#FFFFFF" stroke-width="1.567" stroke-miterlimit="10" x1="313.365" y1="401.846" x2="324.75" y2="401.994"/>
<path fill="#424242" d="M128.734,444.106h252.061c0,0,24.794-0.726,4.888,9.432H128.734
	C128.734,453.538,106.542,453.951,128.734,444.106z"/>
<path fill="#E33B3B" d="M177.588,437.721c-20.27,3.715-28.854,0.205-28.854,0.205c-9.899-17.395-0.649-63.057-0.649-63.057
	l39.8-3.983c0,0,20.618,34.144,16.811,58.969c0,0-0.626,3.257-27.735,7.96"/>
<path d="M147.569,365.792c0,0,22.272,6.286,38.181-2.34c0,0,9.378-8.148-16.162-7.169c0,0-21.17,0.76-22.909,8.843"/>
<path fill="#FFFFFF" stroke="#000000" stroke-width="0.5224" stroke-miterlimit="10" d="M146.997,365.226
	c0,0,23.009,7.49,40.196-5.016c0,0,1.404,8.285,0.689,10.676c0,0-22.986,7.712-39.8,3.983
	C148.082,374.865,146.653,371.959,146.997,365.226z"/>
<line fill="none" stroke="#000000" stroke-width="0.3137" stroke-miterlimit="10" x1="148.224" y1="362.598" x2="149.508" y2="375.162"/>
<line fill="none" stroke="#000000" stroke-width="0.2665" stroke-miterlimit="10" x1="151.236" y1="366.552" x2="152.019" y2="375.64"/>
<line fill="none" stroke="#000000" stroke-width="0.2665" stroke-miterlimit="10" x1="153.451" y1="366.792" x2="154.234" y2="375.876"/>
<line fill="none" stroke="#000000" stroke-width="0.2665" stroke-miterlimit="10" x1="154.926" y1="367.048" x2="155.709" y2="376.132"/>
<line fill="none" stroke="#000000" stroke-width="0.3137" stroke-miterlimit="10" x1="156.492" y1="363.993" x2="157.741" y2="375.557"/>
<line fill="none" stroke="#000000" stroke-width="0.3137" stroke-miterlimit="10" x1="185.81" y1="359.771" x2="187.091" y2="371.133"/>
<line fill="none" stroke="#000000" stroke-width="0.3137" stroke-miterlimit="10" x1="183.603" y1="361.582" x2="185.311" y2="371.389"/>
<line fill="none" stroke="#000000" stroke-width="0.3137" stroke-miterlimit="10" x1="158.245" y1="364.335" x2="159.88" y2="375.651"/>
<line fill="none" stroke="#000000" stroke-width="0.3137" stroke-miterlimit="10" x1="161.166" y1="364.782" x2="162.732" y2="375.64"/>
<line fill="none" stroke="#000000" stroke-width="0.3137" stroke-miterlimit="10" x1="162.971" y1="364.975" x2="164.079" y2="375.583"/>
<line fill="none" stroke="#000000" stroke-width="0.3209" stroke-miterlimit="10" x1="166.035" y1="364.89" x2="167.247" y2="375.125"/>
<line fill="none" stroke="#000000" stroke-width="0.3137" stroke-miterlimit="10" x1="159.939" y1="364.614" x2="161.314" y2="375.665"/>
<line fill="none" stroke="#000000" stroke-width="0.3137" stroke-miterlimit="10" x1="164.625" y1="365.095" x2="165.87" y2="375.187"/>
<line fill="none" stroke="#000000" stroke-width="0.3197" stroke-miterlimit="10" x1="169.007" y1="364.918" x2="170.45" y2="374.92"/>
<line fill="none" stroke="#000000" stroke-width="0.3291" stroke-miterlimit="10" x1="170.726" y1="364.488" x2="172.449" y2="374.589"/>
<line fill="none" stroke="#000000" stroke-width="0.3291" stroke-miterlimit="10" x1="167.78" y1="365.095" x2="168.847" y2="375.11"/>
<line fill="none" stroke="#000000" stroke-width="0.2992" stroke-miterlimit="10" x1="173.055" y1="366.458" x2="174.558" y2="374.142"/>
<line fill="none" stroke="#000000" stroke-width="0.3291" stroke-miterlimit="10" x1="175.535" y1="363.976" x2="177.181" y2="373.556"/>
<line fill="none" stroke="#000000" stroke-width="0.3291" stroke-miterlimit="10" x1="178.607" y1="363.352" x2="179.674" y2="373.015"/>
<line fill="none" stroke="#000000" stroke-width="0.3291" stroke-miterlimit="10" x1="181.309" y1="362.857" x2="183.216" y2="372.465"/>
<line fill="none" stroke="#000000" stroke-width="0.3291" stroke-miterlimit="10" x1="179.797" y1="362.905" x2="181.582" y2="372.52"/>
<path fill="none" stroke="#FFFFFF" stroke-width="1.567" stroke-miterlimit="10" d="M157.303,402.205c0,0,8.054,14.702,3.693,19.328
	c0,0-4.578,5.819-9.836,0.646"/>
<path fill="none" stroke="#FFFFFF" stroke-width="1.567" stroke-miterlimit="10" d="M167.808,422.632c0,0-3.553-25.532,0.276-23.117
	c0,0,5.993,0.424,11.365,20.672"/>
<line fill="none" stroke="#FFFFFF" stroke-width="1.567" stroke-miterlimit="10" x1="166.707" y1="412.736" x2="176.62" y2="411.304"/>
<path fill="none" stroke="#FFFFFF" stroke-width="1.567" stroke-miterlimit="10" d="M183.165,419.779c0,0-9.332-37.862,1.546-16.991
	c0,0,2.841-13.392,5.483-6.702l5.352,21.904"/>
<line fill="none" stroke="#FFFFFF" stroke-width="1.567" stroke-miterlimit="10" x1="150.932" y1="403.512" x2="162.072" y2="401.154"/>
<path fill="#E33B3B" d="M253.157,438.227c-20.603,0.438-28.518-4.396-28.518-4.396c-7.001-18.75,9.406-62.357,9.406-62.357
	l39.926,2.409c0,0,14.915,36.991,7.2,60.894c0,0-1.139,3.115-28.649,3.439"/>
<path d="M234.985,362.436c0,0,20.988,9.754,38.064,3.772c0,0,10.557-6.548-14.813-9.651c0,0-21.019-2.622-24.025,5.079"/>
<path fill="#FFFFFF" stroke="#000000" stroke-width="0.5224" stroke-miterlimit="10" d="M234.51,361.784
	c0,0,21.52,11.06,40.484,1.452c0,0,0.065,8.404-1.022,10.648c0,0-23.92,3.952-39.926-2.409
	C234.046,371.475,233.098,368.377,234.51,361.784z"/>
<line fill="none" stroke="#000000" stroke-width="0.3137" stroke-miterlimit="10" x1="236.138" y1="359.387" x2="235.406" y2="371.993"/>
<line fill="none" stroke="#000000" stroke-width="0.2665" stroke-miterlimit="10" x1="238.484" y1="363.771" x2="237.809" y2="372.867"/>
<line fill="none" stroke="#000000" stroke-width="0.2665" stroke-miterlimit="10" x1="240.633" y1="364.357" x2="239.959" y2="373.453"/>
<line fill="none" stroke="#000000" stroke-width="0.2665" stroke-miterlimit="10" x1="242.046" y1="364.847" x2="241.371" y2="373.94"/>
<line fill="none" stroke="#000000" stroke-width="0.3137" stroke-miterlimit="10" x1="244.081" y1="362.08" x2="243.472" y2="373.695"/>
<line fill="none" stroke="#000000" stroke-width="0.3137" stroke-miterlimit="10" x1="273.695" y1="362.584" x2="273.149" y2="374.003"/>
<line fill="none" stroke="#000000" stroke-width="0.3137" stroke-miterlimit="10" x1="271.227" y1="364.021" x2="271.352" y2="373.974"/>
<line fill="none" stroke="#000000" stroke-width="0.3137" stroke-miterlimit="10" x1="245.758" y1="362.698" x2="245.567" y2="374.131"/>
<line fill="none" stroke="#000000" stroke-width="0.3137" stroke-miterlimit="10" x1="248.568" y1="363.603" x2="248.386" y2="374.572"/>
<line fill="none" stroke="#000000" stroke-width="0.3137" stroke-miterlimit="10" x1="250.319" y1="364.081" x2="249.724" y2="374.732"/>
<line fill="none" stroke="#000000" stroke-width="0.3209" stroke-miterlimit="10" x1="253.359" y1="364.488" x2="252.924" y2="374.783"/>
<line fill="none" stroke="#000000" stroke-width="0.3137" stroke-miterlimit="10" x1="247.384" y1="363.241" x2="246.982" y2="374.373"/>
<line fill="none" stroke="#000000" stroke-width="0.3137" stroke-miterlimit="10" x1="251.933" y1="364.466" x2="251.554" y2="374.626"/>
<line fill="none" stroke="#000000" stroke-width="0.3197" stroke-miterlimit="10" x1="256.289" y1="364.989" x2="256.118" y2="375.09"/>
<line fill="none" stroke="#000000" stroke-width="0.3291" stroke-miterlimit="10" x1="258.054" y1="364.839" x2="258.145" y2="375.085"/>
<line fill="none" stroke="#000000" stroke-width="0.3291" stroke-miterlimit="10" x1="255.048" y1="364.967" x2="254.507" y2="375.025"/>
<line fill="none" stroke="#000000" stroke-width="0.2992" stroke-miterlimit="10" x1="260.038" y1="367.156" x2="260.3" y2="374.979"/>
<line fill="none" stroke="#000000" stroke-width="0.3291" stroke-miterlimit="10" x1="262.882" y1="365.098" x2="262.979" y2="374.817"/>
<line fill="none" stroke="#000000" stroke-width="0.3291" stroke-miterlimit="10" x1="266.014" y1="364.972" x2="265.53" y2="374.683"/>
<line fill="none" stroke="#000000" stroke-width="0.3291" stroke-miterlimit="10" x1="268.761" y1="364.913" x2="269.112" y2="374.703"/>
<line fill="none" stroke="#000000" stroke-width="0.3291" stroke-miterlimit="10" x1="267.261" y1="364.722" x2="267.492" y2="374.498"/>
<path fill="none" stroke="#FFFFFF" stroke-width="1.567" stroke-miterlimit="10" d="M238.794,399.933c0,0,5.609,15.798,0.564,19.67
	c0,0-5.446,5.016-9.813-0.931"/>
<path fill="none" stroke="#FFFFFF" stroke-width="1.567" stroke-miterlimit="10" d="M245.909,421.772c0,0,0.558-25.771,3.957-22.779
	c0,0,5.851,1.375,7.926,22.22"/>
<line fill="none" stroke="#FFFFFF" stroke-width="1.567" stroke-miterlimit="10" x1="246.399" y1="411.828" x2="256.411" y2="411.995"/>
<path fill="none" stroke="#FFFFFF" stroke-width="1.567" stroke-miterlimit="10" d="M261.524,421.405c0,0-3.18-38.864,4.233-16.527
	c0,0,4.937-12.766,6.48-5.742l1.794,22.477"/>
<line fill="none" stroke="#FFFFFF" stroke-width="1.567" stroke-miterlimit="10" x1="232.295" y1="400.209" x2="243.666" y2="399.657"/>
<line fill="none" stroke="#FFFFFF" stroke-width="0.7379" stroke-miterlimit="10" x1="134.781" y1="445.649" x2="128.734" y2="451.696"/>
<line fill="none" stroke="#FFFFFF" stroke-width="0.7379" stroke-miterlimit="10" x1="145.175" y1="445.649" x2="139.128" y2="451.696"/>
<line fill="none" stroke="#FFFFFF" stroke-width="0.7379" stroke-miterlimit="10" x1="155.043" y1="445.649" x2="148.996" y2="451.696"/>
<line fill="none" stroke="#FFFFFF" stroke-width="0.7379" stroke-miterlimit="10" x1="163.618" y1="445.649" x2="157.571" y2="451.696"/>
<line fill="none" stroke="#FFFFFF" stroke-width="0.7379" stroke-miterlimit="10" x1="174.012" y1="445.649" x2="167.968" y2="451.696"/>
<line fill="none" stroke="#FFFFFF" stroke-width="0.7379" stroke-miterlimit="10" x1="183.879" y1="445.649" x2="177.832" y2="451.696"/>
<line fill="none" stroke="#FFFFFF" stroke-width="0.7379" stroke-miterlimit="10" x1="191.857" y1="445.649" x2="185.81" y2="451.696"/>
<line fill="none" stroke="#FFFFFF" stroke-width="0.7379" stroke-miterlimit="10" x1="202.251" y1="445.649" x2="196.204" y2="451.696"/>
<line fill="none" stroke="#FFFFFF" stroke-width="0.7379" stroke-miterlimit="10" x1="212.118" y1="445.649" x2="206.071" y2="451.696"/>
<line fill="none" stroke="#FFFFFF" stroke-width="0.7379" stroke-miterlimit="10" x1="220.693" y1="445.649" x2="214.646" y2="451.696"/>
<line fill="none" stroke="#FFFFFF" stroke-width="0.7379" stroke-miterlimit="10" x1="231.088" y1="445.649" x2="225.041" y2="451.699"/>
<line fill="none" stroke="#FFFFFF" stroke-width="0.7379" stroke-miterlimit="10" x1="240.955" y1="445.649" x2="234.908" y2="451.699"/>
<line fill="none" stroke="#FFFFFF" stroke-width="0.7379" stroke-miterlimit="10" x1="251.614" y1="445.649" x2="245.567" y2="451.696"/>
<line fill="none" stroke="#FFFFFF" stroke-width="0.7379" stroke-miterlimit="10" x1="262.008" y1="445.649" x2="255.962" y2="451.696"/>
<line fill="none" stroke="#FFFFFF" stroke-width="0.7379" stroke-miterlimit="10" x1="271.876" y1="445.649" x2="265.829" y2="451.696"/>
<line fill="none" stroke="#FFFFFF" stroke-width="0.7379" stroke-miterlimit="10" x1="280.451" y1="445.649" x2="274.404" y2="451.696"/>
<line fill="none" stroke="#FFFFFF" stroke-width="0.7379" stroke-miterlimit="10" x1="290.845" y1="445.652" x2="284.798" y2="451.699"/>
<line fill="none" stroke="#FFFFFF" stroke-width="0.7379" stroke-miterlimit="10" x1="300.713" y1="445.652" x2="294.666" y2="451.699"/>
<line fill="none" stroke="#FFFFFF" stroke-width="0.7379" stroke-miterlimit="10" x1="308.687" y1="445.649" x2="302.64" y2="451.696"/>
<line fill="none" stroke="#FFFFFF" stroke-width="0.7379" stroke-miterlimit="10" x1="319.081" y1="445.652" x2="313.034" y2="451.699"/>
<line fill="none" stroke="#FFFFFF" stroke-width="0.7379" stroke-miterlimit="10" x1="328.949" y1="445.652" x2="322.902" y2="451.699"/>
<line fill="none" stroke="#FFFFFF" stroke-width="0.7379" stroke-miterlimit="10" x1="337.524" y1="445.652" x2="331.477" y2="451.699"/>
<line fill="none" stroke="#FFFFFF" stroke-width="0.7379" stroke-miterlimit="10" x1="347.918" y1="445.652" x2="341.871" y2="451.699"/>
<line fill="none" stroke="#FFFFFF" stroke-width="0.7379" stroke-miterlimit="10" x1="357.786" y1="445.652" x2="351.739" y2="451.699"/>
<line fill="none" stroke="#FFFFFF" stroke-width="0.7379" stroke-miterlimit="10" x1="367.101" y1="445.652" x2="361.054" y2="451.699"/>
<line fill="none" stroke="#FFFFFF" stroke-width="0.7379" stroke-miterlimit="10" x1="375.676" y1="445.652" x2="369.629" y2="451.699"/>
<line fill="none" stroke="#FFFFFF" stroke-width="0.7379" stroke-miterlimit="10" x1="386.07" y1="445.652" x2="380.023" y2="451.699"/>
<rect x="11" y="457.051" fill="#C73A22" width="491.4" height="65.648"/>
<rect x="56.302" y="471.181" fill="none" width="399.402" height="38.505"/>
<g enable-background="new    ">
	<path fill="#FFFFFF" d="M136.969,483.765c0,3.97-1.351,7.087-4.052,9.347c-2.702,2.26-6.401,3.392-11.096,3.392h-2.032
		l-2.363,11.46h-9.24l7.302-34.55h8.815c4.08,0,7.212,0.895,9.393,2.683C135.878,477.884,136.969,480.439,136.969,483.765z
		 M121.443,488.941h1.489c1.433,0,2.591-0.462,3.474-1.385c0.883-0.92,1.323-2.091,1.323-3.509c0-0.929-0.284-1.679-0.851-2.246
		s-1.347-0.851-2.34-0.851h-1.394L121.443,488.941z"/>
	<path fill="#FFFFFF" d="M150.25,495.391l-2.67,12.572h-9.24l7.302-34.55h9.146c3.97,0,7.01,0.787,9.122,2.363
		s3.167,3.945,3.167,7.115c0,2.458-0.559,4.599-1.678,6.428c-1.119,1.827-2.78,3.219-4.986,4.181l5.294,12.194l0.945,2.269h-10.067
		l-4.608-12.572L150.25,495.391L150.25,495.391z M151.739,488.374h1.205c1.497,0,2.686-0.431,3.568-1.29s1.323-2.06,1.323-3.603
		c0-0.976-0.272-1.721-0.815-2.233c-0.545-0.512-1.336-0.77-2.376-0.77h-1.252L151.739,488.374z"/>
	<path fill="#FFFFFF" d="M190.212,472.872c4.097,0,7.283,1.168,9.56,3.509c2.276,2.338,3.414,5.605,3.414,9.795
		s-0.784,8.024-2.352,11.496c-1.567,3.475-3.73,6.136-6.486,7.988c-2.757,1.852-5.955,2.777-9.595,2.777
		c-4.238,0-7.511-1.173-9.82-3.52c-2.308-2.349-3.461-5.611-3.461-9.786c0-4.173,0.812-8.01,2.434-11.507s3.833-6.164,6.629-7.999
		C183.331,473.789,186.558,472.872,190.212,472.872z M193.851,486.27c0-1.796-0.378-3.203-1.134-4.218
		c-0.756-1.018-1.852-1.524-3.285-1.524c-1.56,0-2.993,0.662-4.301,1.985s-2.352,3.142-3.131,5.458
		c-0.781,2.316-1.17,4.687-1.17,7.115c0,3.812,1.575,5.716,4.726,5.716c1.497,0,2.887-0.653,4.17-1.96
		c1.284-1.307,2.294-3.072,3.025-5.294C193.486,491.327,193.851,488.9,193.851,486.27z"/>
	<path fill="#FFFFFF" d="M225.495,480.573c-1.702,0-3.238,0.617-4.608,1.846s-2.447,2.922-3.225,5.079
		c-0.781,2.157-1.17,4.498-1.17,7.02c0,2.11,0.441,3.687,1.323,4.726s2.151,1.557,3.805,1.557c1.308,0,2.631-0.161,3.97-0.484
		s2.915-0.87,4.726-1.64v7.632c-3.199,1.418-6.664,2.127-10.398,2.127c-4.097,0-7.251-1.17-9.465-3.509
		c-2.213-2.341-3.32-5.652-3.32-9.937c0-4.193,0.799-8.035,2.399-11.532c1.599-3.498,3.773-6.139,6.522-7.918
		c2.748-1.779,5.895-2.669,9.44-2.669c4.175,0,7.964,1.031,11.367,3.094l-3.498,7.209c-1.465-0.867-2.812-1.518-4.041-1.952
		C228.094,480.79,226.818,480.573,225.495,480.573z"/>
	<path fill="#FFFFFF" d="M256.453,507.964H235.94l7.302-34.55h20.514l-1.537,7.493h-11.272l-1.111,5.433h10.493l-1.702,7.493
		h-10.493l-1.347,6.522h11.272L256.453,507.964z"/>
	<path fill="#FFFFFF" d="M285.448,497.354c0,3.498-1.157,6.217-3.473,8.163c-2.316,1.946-5.547,2.919-9.689,2.919
		c-1.735,0-3.37-0.192-4.915-0.578s-2.875-0.951-3.992-1.69v-8.271c1.323,0.834,2.839,1.537,4.548,2.105
		c1.707,0.567,3.258,0.851,4.643,0.851c1.168,0,2.046-0.245,2.647-0.734s0.898-1.182,0.898-2.08c0-0.425-0.095-0.823-0.284-1.193
		s-0.459-0.742-0.803-1.112c-0.345-0.37-1.276-1.184-2.789-2.444c-1.843-1.482-3.183-2.994-4.017-4.537
		c-0.834-1.546-1.251-3.239-1.251-5.082c0-2.063,0.514-3.92,1.546-5.566c1.034-1.646,2.491-2.922,4.373-3.828s3.99-1.36,6.319-1.36
		c3.767,0,7.154,0.845,10.165,2.53l-3.192,7.017c-2.694-1.385-4.988-2.08-6.878-2.08c-1.006,0-1.782,0.222-2.327,0.662
		c-0.542,0.442-0.815,1.09-0.815,1.941c0,0.77,0.264,1.49,0.792,2.16c0.525,0.67,1.532,1.565,3.011,2.683
		c1.86,1.371,3.239,2.814,4.137,4.326C285,493.668,285.448,495.4,285.448,497.354z"/>
	<path fill="#FFFFFF" d="M311.965,497.354c0,3.498-1.159,6.217-3.475,8.163c-2.316,1.946-5.544,2.919-9.689,2.919
		c-1.732,0-3.372-0.192-4.915-0.578s-2.875-0.951-3.995-1.69v-8.271c1.323,0.834,2.841,1.537,4.551,2.105s3.256,0.851,4.643,0.851
		c1.165,0,2.049-0.245,2.647-0.734s0.898-1.182,0.898-2.08c0-0.425-0.095-0.823-0.284-1.193s-0.456-0.742-0.803-1.112
		c-0.348-0.37-1.276-1.184-2.789-2.444c-1.843-1.482-3.181-2.994-4.017-4.537c-0.837-1.546-1.254-3.239-1.254-5.082
		c0-2.063,0.517-3.92,1.549-5.566c1.031-1.646,2.488-2.922,4.373-3.828c1.882-0.906,3.99-1.36,6.322-1.36
		c3.764,0,7.151,0.845,10.159,2.53l-3.189,7.017c-2.694-1.385-4.985-2.08-6.876-2.08c-1.009,0-1.785,0.222-2.33,0.662
		c-0.542,0.442-0.815,1.09-0.815,1.941c0,0.77,0.264,1.49,0.792,2.16c0.528,0.67,1.532,1.565,3.014,2.683
		c1.857,1.371,3.236,2.814,4.134,4.326C311.515,493.668,311.965,495.4,311.965,497.354z"/>
	<path fill="#FFFFFF" d="M316.125,507.964l7.301-34.55h9.381l-7.301,34.55H316.125z"/>
	<path fill="#FFFFFF" d="M363.742,507.964h-10.751l-6.831-24.294h-0.189c-0.459,4.585-0.906,7.876-1.348,9.878l-3.047,14.415h-8.224
		l7.301-34.55h10.754l6.759,23.229h0.214c0.456-3.717,0.906-6.639,1.346-8.766l3.097-14.463h8.224L363.742,507.964z"/>
	<path fill="#FFFFFF" d="M388.083,487.735h14.415l-3.945,18.789c-3.94,1.273-8.046,1.913-12.314,1.913
		c-4.112,0-7.304-1.198-9.572-3.592c-2.269-2.394-3.403-5.788-3.403-10.187c0-4.204,0.867-8.002,2.602-11.388
		c1.732-3.389,4.106-5.969,7.123-7.74c3.019-1.774,6.528-2.658,10.529-2.658c4.19,0,7.721,0.842,10.587,2.527l-3.473,7.304
		c-2.413-1.418-4.821-2.13-7.234-2.13c-2.08,0-3.917,0.573-5.516,1.715c-1.601,1.143-2.875,2.83-3.831,5.068
		c-0.951,2.238-1.429,4.624-1.429,7.162c0,4.159,1.646,6.239,4.94,6.239c0.993,0,2.041-0.111,3.144-0.334l1.204-5.483h-5.413
		L388.083,487.735z"/>
</g>
</svg>
