<?xml version="1.0" encoding="utf-8"?>
<!-- Generator: Adobe Illustrator 17.0.0, SVG Export Plug-In . SVG Version: 6.00 Build 0)  -->
<!DOCTYPE svg PUBLIC "-//W3C//DTD SVG 1.1//EN" "http://www.w3.org/Graphics/SVG/1.1/DTD/svg11.dtd">
<svg version="1.1" id="Layer_1" xmlns="http://www.w3.org/2000/svg" xmlns:xlink="http://www.w3.org/1999/xlink" x="0px" y="0px"
	 width="510px" height="962px" viewBox="0 0 510 962" enable-background="new 0 0 510 962" xml:space="preserve">
<path d="M343.975,223.865"/>
<path fill="#BBBDBF" d="M316.266,244.588c0,0,91.587,129.732,60.62,251.914l-33.484-25.128
	C343.401,471.374,363.135,376.998,316.266,244.588z"/>
<path fill="#BBBDBF" d="M201.479,255.567c0,0-66.752,142.999-41.332,255.787l31.479-27.598
	C191.627,483.755,164.79,391.149,201.479,255.567z"/>
<path fill="#BBBDBF" d="M172.379,434.624l187.337-2.008l-16.97-104.22l-10.449-39.101l-9.922-26.498
	c0,0-10.218-34.822-13.367-34.957c-3.149-0.135-93.528-27.461-93.528-27.461l-27.212,105.54L172.379,434.624z"/>
<polygon points="254.194,263.718 247.737,280.897 222.577,277.578 202.852,269.698 209.651,253.579 "/>
<polygon points="252.391,266.037 261.871,277.165 307.049,270.407 308.755,249.043 "/>
<path fill="#006838" d="M172.379,475.13c0,0-19.4-43.688,0.986-126.102l26.363-25.47l5.312-82.687l18.507,17.658l-1.818,42.104
	l75.817-2.163l1.882-43.559l0.749-17.36l15.955,0.688l2.544,77.515l37.234,14.544c0,0,16.022,57.588,6.627,138.796
	C362.535,469.097,304.526,493.435,172.379,475.13z"/>
<rect x="285.489" y="341.479" fill="#FFFFFF" width="49.173" height="20.43"/>
<path fill="#C09C67" d="M352.293,148.309c12.44,62.046-44.542,114.579-99.49,114.579s-111.324-52.416-99.487-114.579
	c12.946-67.984,44.542-98.188,99.49-98.188S338.736,80.681,352.293,148.309z"/>
<path fill="#5B462A" d="M157.232,195.553l64.94,23.135l12.361,16.871l39.619-3.369l15.203-12.539l60.945-29.123
	c0,0-15.636,52.24-64.282,68.189c-40.518,13.285-70.092,1.99-82.725-8.588C203.294,250.132,175.3,236.676,157.232,195.553z"/>
<ellipse transform="matrix(-0.2112 0.9774 -0.9774 -0.2112 440.9743 -47.7871)" cx="239.769" cy="154.039" rx="8.535" ry="7.586"/>
<ellipse transform="matrix(-0.2112 0.9774 -0.9774 -0.2112 484.8702 -82.4199)" cx="275.691" cy="154.434" rx="8.535" ry="7.586"/>
<path fill="none" stroke="#000000" stroke-width="1.4945" stroke-miterlimit="10" d="M220.068,198.278
	c0,0,37.986,37.363,75.349,3.738"/>
<path fill="#52A476" d="M207.907,41.805c0,0,9.837-21.68,20.957-25.693c0,0,30.473-10.499,37.632,11.962"/>
<path fill="#52A476" d="M163.666,106.921c0,0-13.007,29.849,39.022,26.995l123.564-3.855c0,0,33.192-2.544,4.876-47.007"/>
<path fill="#006838" d="M163.666,106.921c0,0,88.476,1.446,175.477-8.93c0,0,0-62.306-86.752-72.029
	C252.391,25.962,172.186,31.95,163.666,106.921z"/>
<path fill="#E33B3B" d="M209.812,382.187c-11.403-2.058-15.226-5.605-15.226-5.605c-1.765-11.114,12.147-33.315,12.147-33.315
	l21.733,5.787c0,0,4.089,22.052-2.83,34.362c0,0-0.975,1.589-16.171-1.302"/>
<path d="M208.258,338.391c0,0,10.476,7.718,20.556,6.328c0,0,6.551-2.429-7.086-6.972c0,0-11.292-3.793-13.806,0.117"/>
<path fill="#FFFFFF" stroke="#000000" stroke-width="0.2936" stroke-miterlimit="10" d="M208.071,337.978
	c0,0,10.625,8.5,22.148,5.321c0,0-0.901,4.639-1.753,5.754c0,0-13.625-0.492-21.733-5.787
	C206.733,343.267,206.554,341.456,208.071,337.978z"/>
<line fill="none" stroke="#000000" stroke-width="0.1762" stroke-miterlimit="10" x1="206.142" y1="338.092" x2="204.33" y2="344.959"/>
<line fill="none" stroke="#000000" stroke-width="0.1499" stroke-miterlimit="10" x1="206.944" y1="340.771" x2="205.556" y2="345.708"/>
<line fill="none" stroke="#000000" stroke-width="0.1499" stroke-miterlimit="10" x1="211.159" y1="340.083" x2="209.771" y2="345.018"/>
<line fill="none" stroke="#000000" stroke-width="0.1499" stroke-miterlimit="10" x1="211.882" y1="340.507" x2="210.494" y2="345.445"/>
<line fill="none" stroke="#000000" stroke-width="0.1762" stroke-miterlimit="10" x1="213.313" y1="339.211" x2="211.68" y2="345.544"/>
<line fill="none" stroke="#000000" stroke-width="0.1762" stroke-miterlimit="10" x1="227.877" y1="342.793" x2="226.3" y2="349.028"/>
<line fill="none" stroke="#000000" stroke-width="0.1762" stroke-miterlimit="10" x1="226.355" y1="343.311" x2="225.313" y2="348.811"/>
<line fill="none" stroke="#000000" stroke-width="0.1762" stroke-miterlimit="10" x1="214.167" y1="339.737" x2="212.786" y2="346.016"/>
<line fill="none" stroke="#000000" stroke-width="0.1762" stroke-miterlimit="10" x1="215.613" y1="340.551" x2="214.287" y2="346.575"/>
<line fill="none" stroke="#000000" stroke-width="0.1762" stroke-miterlimit="10" x1="216.527" y1="341.011" x2="215.007" y2="346.812"/>
<line fill="none" stroke="#000000" stroke-width="0.1803" stroke-miterlimit="10" x1="218.154" y1="341.573" x2="216.767" y2="347.198"/>
<line fill="none" stroke="#000000" stroke-width="0.1762" stroke-miterlimit="10" x1="215.002" y1="340.22" x2="213.538" y2="346.308"/>
<line fill="none" stroke="#000000" stroke-width="0.1762" stroke-miterlimit="10" x1="217.372" y1="341.4" x2="216.029" y2="346.958"/>
<line fill="none" stroke="#000000" stroke-width="0.1797" stroke-miterlimit="10" x1="219.714" y1="342.176" x2="218.493" y2="347.725"/>
<line fill="none" stroke="#000000" stroke-width="0.185" stroke-miterlimit="10" x1="220.703" y1="342.29" x2="219.612" y2="347.948"/>
<line fill="none" stroke="#000000" stroke-width="0.185" stroke-miterlimit="10" x1="219.032" y1="342.026" x2="217.612" y2="347.508"/>
<line fill="none" stroke="#000000" stroke-width="0.1683" stroke-miterlimit="10" x1="221.54" y1="343.788" x2="220.809" y2="348.129"/>
<line fill="none" stroke="#000000" stroke-width="0.185" stroke-miterlimit="10" x1="223.335" y1="342.972" x2="222.304" y2="348.34"/>
<line fill="none" stroke="#000000" stroke-width="0.185" stroke-miterlimit="10" x1="225.076" y1="343.253" x2="223.724" y2="348.55"/>
<line fill="none" stroke="#000000" stroke-width="0.185" stroke-miterlimit="10" x1="228.776" y1="343.528" x2="227.877" y2="348.96"/>
<line fill="none" stroke="#000000" stroke-width="0.185" stroke-miterlimit="10" x1="224.093" y1="343.253" x2="223.127" y2="348.668"/>
<path fill="none" stroke="#FFFFFF" stroke-width="0.881" stroke-miterlimit="10" d="M206.171,359.48c0,0,1.326,9.331-1.885,10.903
	c0,0-3.562,2.157-5.304-1.61"/>
<path fill="none" stroke="#FFFFFF" stroke-width="0.881" stroke-miterlimit="10" d="M207.655,372.311c0,0,3.185-14.14,4.724-12.112
	c0,0,3.07,1.411,1.888,13.13"/>
<line fill="none" stroke="#FFFFFF" stroke-width="0.881" stroke-miterlimit="10" x1="209.034" y1="366.885" x2="214.533" y2="368.094"/>
<path fill="none" stroke="#FFFFFF" stroke-width="0.881" stroke-miterlimit="10" d="M216.301,373.851c0,0,2.587-21.774,4.18-8.635
	c0,0,4.148-6.483,4.212-2.441l-1.522,12.586"/>
<line fill="none" stroke="#FFFFFF" stroke-width="0.881" stroke-miterlimit="10" x1="202.559" y1="358.906" x2="208.887" y2="359.872"/>
<path fill="#E33B3B" d="M250.274,381.391c-11.304,2.546-16.207,0.77-16.207,0.77c-5.956-9.548-1.797-35.413-1.797-35.413
	l22.271-3.141c0,0,12.358,18.715,10.783,32.75c0,0-0.278,1.844-15.402,5.102"/>
<path d="M228.682,342.916c0,0,12.656,3.026,21.396-2.181c0,0,5.084-4.791-9.243-3.662c0,0-11.875,0.907-12.671,5.488"/>
<path fill="#FFFFFF" stroke="#000000" stroke-width="0.2936" stroke-miterlimit="10" d="M231.442,341.356
	c0,0,13.098,3.685,22.47-3.729c0,0,0.978,4.622,0.629,5.983c0,0-12.738,4.856-22.271,3.141
	C232.274,346.747,231.401,345.146,231.442,341.356z"/>
<line fill="none" stroke="#000000" stroke-width="0.1812" stroke-miterlimit="10" x1="232.481" y1="339.609" x2="233.561" y2="347.034"/>
<line fill="none" stroke="#000000" stroke-width="0.1499" stroke-miterlimit="10" x1="233.854" y1="342.006" x2="234.501" y2="347.093"/>
<line fill="none" stroke="#000000" stroke-width="0.1499" stroke-miterlimit="10" x1="235.104" y1="342.088" x2="235.751" y2="347.175"/>
<line fill="none" stroke="#000000" stroke-width="0.163" stroke-miterlimit="10" x1="235.938" y1="340.835" x2="236.755" y2="346.841"/>
<line fill="none" stroke="#000000" stroke-width="0.1762" stroke-miterlimit="10" x1="236.749" y1="340.446" x2="237.715" y2="346.914"/>
<line fill="none" stroke="#000000" stroke-width="0.1762" stroke-miterlimit="10" x1="250.031" y1="338.663" x2="251.009" y2="345.018"/>
<line fill="none" stroke="#000000" stroke-width="0.1762" stroke-miterlimit="10" x1="248.831" y1="339.732" x2="250.014" y2="345.202"/>
<line fill="none" stroke="#000000" stroke-width="0.1762" stroke-miterlimit="10" x1="237.744" y1="340.601" x2="238.918" y2="346.92"/>
<line fill="none" stroke="#000000" stroke-width="0.1762" stroke-miterlimit="10" x1="239.395" y1="340.785" x2="240.519" y2="346.85"/>
<line fill="none" stroke="#000000" stroke-width="0.1762" stroke-miterlimit="10" x1="240.413" y1="340.853" x2="241.274" y2="346.785"/>
<line fill="none" stroke="#000000" stroke-width="0.1803" stroke-miterlimit="10" x1="242.132" y1="340.736" x2="243.045" y2="346.458"/>
<line fill="none" stroke="#000000" stroke-width="0.1762" stroke-miterlimit="10" x1="238.701" y1="340.718" x2="239.726" y2="346.894"/>
<line fill="none" stroke="#000000" stroke-width="0.1762" stroke-miterlimit="10" x1="241.344" y1="340.882" x2="242.272" y2="346.522"/>
<line fill="none" stroke="#000000" stroke-width="0.1797" stroke-miterlimit="10" x1="243.803" y1="340.683" x2="244.839" y2="346.27"/>
<line fill="none" stroke="#000000" stroke-width="0.185" stroke-miterlimit="10" x1="244.757" y1="340.402" x2="245.954" y2="346.039"/>
<line fill="none" stroke="#000000" stroke-width="0.185" stroke-miterlimit="10" x1="243.115" y1="340.812" x2="243.943" y2="346.411"/>
<line fill="none" stroke="#000000" stroke-width="0.1683" stroke-miterlimit="10" x1="246.112" y1="341.458" x2="247.131" y2="345.738"/>
<line fill="none" stroke="#000000" stroke-width="0.185" stroke-miterlimit="10" x1="247.447" y1="340.007" x2="248.588" y2="345.351"/>
<line fill="none" stroke="#000000" stroke-width="0.185" stroke-miterlimit="10" x1="249.159" y1="339.585" x2="249.979" y2="344.991"/>
<line fill="none" stroke="#000000" stroke-width="0.185" stroke-miterlimit="10" x1="250.667" y1="339.246" x2="251.954" y2="344.602"/>
<line fill="none" stroke="#000000" stroke-width="0.185" stroke-miterlimit="10" x1="249.818" y1="339.307" x2="251.038" y2="344.669"/>
<path fill="none" stroke="#FFFFFF" stroke-width="0.881" stroke-miterlimit="10" d="M238.072,361.897c0,0,4.859,8.078,2.511,10.777
	c0,0-2.438,3.372-5.511,0.585"/>
<path fill="none" stroke="#FFFFFF" stroke-width="0.881" stroke-miterlimit="10" d="M244.438,373.134c0,0-2.576-14.263-0.369-12.993
	c0,0,3.378,0.102,6.855,11.357"/>
<line fill="none" stroke="#FFFFFF" stroke-width="0.881" stroke-miterlimit="10" x1="243.595" y1="367.599" x2="249.13" y2="366.572"/>
<path fill="none" stroke="#FFFFFF" stroke-width="0.881" stroke-miterlimit="10" d="M253.002,371.185c0,0-6.103-21.059,0.483-9.58
	c0,0,1.291-7.587,2.927-3.89l3.504,12.185"/>
<line fill="none" stroke="#FFFFFF" stroke-width="0.881" stroke-miterlimit="10" x1="234.522" y1="362.775" x2="240.727" y2="361.198"/>
<path fill="#E33B3B" d="M213.123,389.607c-11.579,0.442-16.075-2.204-16.075-2.204c-4.112-10.476,4.701-35.147,4.701-35.147
	l22.47,0.978c0,0,8.734,20.656,4.622,34.166c0,0-0.612,1.762-16.075,2.204"/>
<path d="M202.193,347.166c0,0,11.892,5.286,21.437,1.762c0,0,5.874-3.782-8.418-5.286c0,0-11.842-1.276-13.458,3.082"/>
<path fill="#FFFFFF" stroke="#000000" stroke-width="0.2936" stroke-miterlimit="10" d="M201.921,346.806
	c0,0,12.202,6.015,22.775,0.436c0,0,0.117,4.724-0.474,5.997c0,0-13.411,2.447-22.47-0.978
	C201.751,352.259,201.186,350.526,201.921,346.806z"/>
<line fill="none" stroke="#000000" stroke-width="0.1762" stroke-miterlimit="10" x1="202.814" y1="345.442" x2="202.518" y2="352.537"/>
<line fill="none" stroke="#000000" stroke-width="0.1499" stroke-miterlimit="10" x1="204.172" y1="347.883" x2="203.879" y2="353.005"/>
<line fill="none" stroke="#000000" stroke-width="0.1499" stroke-miterlimit="10" x1="205.387" y1="348.193" x2="205.094" y2="353.316"/>
<line fill="none" stroke="#000000" stroke-width="0.1499" stroke-miterlimit="10" x1="206.186" y1="348.454" x2="205.893" y2="353.576"/>
<line fill="none" stroke="#000000" stroke-width="0.1762" stroke-miterlimit="10" x1="207.304" y1="346.882" x2="207.07" y2="353.418"/>
<line fill="none" stroke="#000000" stroke-width="0.1762" stroke-miterlimit="10" x1="223.958" y1="346.885" x2="223.759" y2="353.313"/>
<line fill="none" stroke="#000000" stroke-width="0.1762" stroke-miterlimit="10" x1="222.585" y1="347.716" x2="222.749" y2="353.313"/>
<line fill="none" stroke="#000000" stroke-width="0.1762" stroke-miterlimit="10" x1="208.252" y1="347.213" x2="208.252" y2="353.64"/>
<line fill="none" stroke="#000000" stroke-width="0.1762" stroke-miterlimit="10" x1="209.841" y1="347.696" x2="209.841" y2="353.863"/>
<line fill="none" stroke="#000000" stroke-width="0.1762" stroke-miterlimit="10" x1="210.831" y1="347.948" x2="210.594" y2="353.939"/>
<line fill="none" stroke="#000000" stroke-width="0.1803" stroke-miterlimit="10" x1="212.543" y1="348.147" x2="212.394" y2="353.939"/>
<line fill="none" stroke="#000000" stroke-width="0.1762" stroke-miterlimit="10" x1="209.171" y1="347.503" x2="209.051" y2="353.763"/>
<line fill="none" stroke="#000000" stroke-width="0.1762" stroke-miterlimit="10" x1="211.741" y1="348.147" x2="211.624" y2="353.863"/>
<line fill="none" stroke="#000000" stroke-width="0.1797" stroke-miterlimit="10" x1="214.194" y1="348.401" x2="214.194" y2="354.082"/>
<line fill="none" stroke="#000000" stroke-width="0.185" stroke-miterlimit="10" x1="215.186" y1="348.299" x2="215.332" y2="354.059"/>
<line fill="none" stroke="#000000" stroke-width="0.185" stroke-miterlimit="10" x1="213.497" y1="348.401" x2="213.286" y2="354.059"/>
<line fill="none" stroke="#000000" stroke-width="0.1683" stroke-miterlimit="10" x1="216.325" y1="349.584" x2="216.544" y2="353.98"/>
<line fill="none" stroke="#000000" stroke-width="0.185" stroke-miterlimit="10" x1="217.902" y1="348.401" x2="218.049" y2="353.863"/>
<line fill="none" stroke="#000000" stroke-width="0.185" stroke-miterlimit="10" x1="219.661" y1="348.299" x2="219.48" y2="353.763"/>
<line fill="none" stroke="#000000" stroke-width="0.185" stroke-miterlimit="10" x1="221.207" y1="348.243" x2="221.494" y2="353.743"/>
<line fill="none" stroke="#000000" stroke-width="0.185" stroke-miterlimit="10" x1="220.361" y1="348.147" x2="220.583" y2="353.64"/>
<path fill="none" stroke="#FFFFFF" stroke-width="0.881" stroke-miterlimit="10" d="M204.687,368.214c0,0,3.302,8.828,0.503,11.052
	c0,0-3.015,2.871-5.526-0.43"/>
<path fill="none" stroke="#FFFFFF" stroke-width="0.881" stroke-miterlimit="10" d="M208.893,380.422c0,0,0.073-14.494,2.011-12.844
	c0,0,3.302,0.717,4.666,12.416"/>
<path fill="none" stroke="#FFFFFF" stroke-width="0.881" stroke-miterlimit="10" d="M217.668,380.068c0,0-2.154-21.82,2.224-9.331
	c0,0,2.655-7.224,3.588-3.29l1.221,12.621"/>
<line fill="none" stroke="#FFFFFF" stroke-width="0.881" stroke-miterlimit="10" x1="201.037" y1="368.427" x2="207.424" y2="368.012"/>
<path fill="#E33B3B" d="M247.116,387.675c-11.579,0.442-16.075-2.204-16.075-2.204c-4.112-10.476,4.701-35.147,4.701-35.147
	l22.47,0.978c0,0,8.734,20.656,4.622,34.166c0,0-0.612,1.762-16.075,2.204"/>
<path d="M236.184,345.237c0,0,11.892,5.286,21.437,1.762c0,0,5.874-3.782-8.418-5.286c0,0-11.842-1.276-13.458,3.082"/>
<path fill="#FFFFFF" stroke="#000000" stroke-width="0.2936" stroke-miterlimit="10" d="M235.912,344.874
	c0,0,12.202,6.015,22.775,0.436c0,0,0.117,4.724-0.474,5.997c0,0-13.411,2.447-22.47-0.978
	C235.742,350.327,235.18,348.594,235.912,344.874z"/>
<line fill="none" stroke="#000000" stroke-width="0.1762" stroke-miterlimit="10" x1="236.805" y1="343.51" x2="236.512" y2="350.605"/>
<line fill="none" stroke="#000000" stroke-width="0.1499" stroke-miterlimit="10" x1="238.166" y1="345.954" x2="237.873" y2="351.074"/>
<line fill="none" stroke="#000000" stroke-width="0.1499" stroke-miterlimit="10" x1="239.377" y1="346.265" x2="239.085" y2="351.384"/>
<line fill="none" stroke="#000000" stroke-width="0.1499" stroke-miterlimit="10" x1="240.176" y1="346.525" x2="239.884" y2="351.644"/>
<line fill="none" stroke="#000000" stroke-width="0.1762" stroke-miterlimit="10" x1="241.294" y1="344.95" x2="241.063" y2="351.486"/>
<line fill="none" stroke="#000000" stroke-width="0.1762" stroke-miterlimit="10" x1="256.576" y1="345.787" x2="256.74" y2="351.381"/>
<line fill="none" stroke="#000000" stroke-width="0.1762" stroke-miterlimit="10" x1="242.243" y1="345.284" x2="242.243" y2="351.712"/>
<line fill="none" stroke="#000000" stroke-width="0.1762" stroke-miterlimit="10" x1="243.832" y1="345.764" x2="243.832" y2="351.934"/>
<line fill="none" stroke="#000000" stroke-width="0.1762" stroke-miterlimit="10" x1="244.821" y1="346.019" x2="244.587" y2="352.01"/>
<line fill="none" stroke="#000000" stroke-width="0.1803" stroke-miterlimit="10" x1="246.534" y1="346.218" x2="246.387" y2="352.01"/>
<line fill="none" stroke="#000000" stroke-width="0.1762" stroke-miterlimit="10" x1="243.165" y1="345.574" x2="243.042" y2="351.835"/>
<line fill="none" stroke="#000000" stroke-width="0.1762" stroke-miterlimit="10" x1="245.732" y1="346.218" x2="245.615" y2="351.934"/>
<line fill="none" stroke="#000000" stroke-width="0.1797" stroke-miterlimit="10" x1="248.185" y1="346.472" x2="248.185" y2="352.154"/>
<line fill="none" stroke="#000000" stroke-width="0.185" stroke-miterlimit="10" x1="249.177" y1="346.37" x2="249.326" y2="352.13"/>
<line fill="none" stroke="#000000" stroke-width="0.185" stroke-miterlimit="10" x1="247.488" y1="346.472" x2="247.28" y2="352.13"/>
<line fill="none" stroke="#000000" stroke-width="0.1683" stroke-miterlimit="10" x1="250.315" y1="347.655" x2="250.535" y2="352.051"/>
<line fill="none" stroke="#000000" stroke-width="0.185" stroke-miterlimit="10" x1="251.893" y1="346.472" x2="252.039" y2="351.934"/>
<line fill="none" stroke="#000000" stroke-width="0.185" stroke-miterlimit="10" x1="253.655" y1="346.37" x2="253.474" y2="351.835"/>
<line fill="none" stroke="#000000" stroke-width="0.185" stroke-miterlimit="10" x1="255.198" y1="346.311" x2="255.487" y2="351.811"/>
<line fill="none" stroke="#000000" stroke-width="0.185" stroke-miterlimit="10" x1="254.352" y1="346.218" x2="254.574" y2="351.712"/>
<path fill="none" stroke="#FFFFFF" stroke-width="0.881" stroke-miterlimit="10" d="M238.681,366.282c0,0,3.302,8.828,0.503,11.052
	c0,0-3.015,2.871-5.526-0.43"/>
<path fill="none" stroke="#FFFFFF" stroke-width="0.881" stroke-miterlimit="10" d="M242.884,378.493c0,0,0.073-14.494,2.011-12.843
	c0,0,3.302,0.717,4.666,12.416"/>
<line fill="none" stroke="#FFFFFF" stroke-width="0.881" stroke-miterlimit="10" x1="243.065" y1="372.897" x2="248.697" y2="372.897"/>
<path fill="none" stroke="#FFFFFF" stroke-width="0.881" stroke-miterlimit="10" d="M251.662,378.139c0,0-2.154-21.82,2.224-9.331
	c0,0,2.655-7.224,3.588-3.29l1.221,12.621"/>
<line fill="none" stroke="#FFFFFF" stroke-width="0.881" stroke-miterlimit="10" x1="235.028" y1="366.499" x2="241.417" y2="366.08"/>
<line fill="none" stroke="#FFFFFF" stroke-width="0.881" stroke-miterlimit="10" x1="208.925" y1="376.611" x2="214.557" y2="376.611"/>
<polygon fill="#5E5E5E" points="285.588,326.692 284.136,323.788 309.367,323.788 308.825,326.692 "/>
<path fill="#D5D5D5" d="M310.865,328.826H286.05l-16.218,21.059c0,0-7.745,57.851,5.567,57.851h52.284c0,0,5.81-10.408,2.178-38.244
	C329.861,369.49,343.785,328.826,310.865,328.826z M320.905,362.471l-5.324-27.109C340.995,338.991,320.905,362.471,320.905,362.471
	z"/>
<path fill="#515AA7" d="M311.032,328.387c0,0.937-0.758,1.695-1.695,1.695h-25.172c-0.937,0-1.695-0.758-1.695-1.695l0,0
	c0-0.937,0.758-1.695,1.695-1.695h25.175C310.274,326.692,311.032,327.45,311.032,328.387L311.032,328.387z"/>
<polyline fill="#5E5E5E" points="275.61,374.155 275.61,359.898 314.129,359.898 314.129,377.562 273.86,381.692 275.61,374.155 "/>
<path fill="none" stroke="#FFFFFF" stroke-width="0.881" stroke-miterlimit="10" d="M280.197,378.903c0,0-2.154-21.82,2.224-9.331
	c0,0,2.655-7.224,3.588-3.29l1.221,12.621"/>
<line fill="none" stroke="#FFFFFF" stroke-width="0.881" stroke-miterlimit="10" x1="291.782" y1="366.499" x2="291.782" y2="381.631"/>
<polyline fill="none" stroke="#FFFFFF" stroke-width="0.881" stroke-miterlimit="10" points="297.542,366.08 297.542,379.263 
	303.302,378.903 "/>
<line fill="none" stroke="#FFFFFF" stroke-width="0.881" stroke-miterlimit="10" x1="304.795" y1="365.108" x2="304.795" y2="376.474"/>
<line fill="none" stroke="#FFFFFF" stroke-width="0.881" stroke-miterlimit="10" x1="309.49" y1="366.598" x2="305.009" y2="369.543"/>
<polygon fill="#8A5D3B" stroke="#8A5D3B" stroke-width="0.1566" stroke-miterlimit="10" points="188.29,371.1 184.45,449.132 
	337.228,449.132 335.303,371.1 318.663,379.041 305.009,372.115 290.927,379.041 272.581,372.115 260.838,379.041 242.287,375.227 
	234.044,381.891 223.938,371.1 212.912,380.018 206.341,374.703 196.205,379.041 "/>
<line fill="none" stroke="#FFFFFF" stroke-width="0.881" stroke-miterlimit="10" x1="304.49" y1="369.027" x2="307.994" y2="374.065"/>
<rect x="12.742" y="454.899" fill="#C73A22" width="489.53" height="67.493"/>
<rect x="53.677" y="469.425" fill="none" width="410.626" height="39.587"/>
<g enable-background="new    ">
	<path fill="#FFFFFF" d="M189.405,494.317l-2.745,12.925h-9.5l7.507-35.521h9.403c4.082,0,7.207,0.809,9.378,2.43
		s3.256,4.056,3.256,7.315c0,2.527-0.575,4.728-1.725,6.609c-1.15,1.878-2.858,3.31-5.126,4.299l5.442,12.537l0.972,2.332h-10.35
		l-4.738-12.925h-1.774L189.405,494.317L189.405,494.317z M190.936,487.102h1.239c1.539,0,2.761-0.443,3.669-1.326
		s1.361-2.118,1.361-3.704c0-1.003-0.28-1.769-0.838-2.295c-0.56-0.526-1.373-0.792-2.442-0.792h-1.288L190.936,487.102z"/>
	<path fill="#FFFFFF" d="M230.587,507.242h-21.089l7.507-35.521h21.089l-1.579,7.703h-11.589l-1.142,5.585h10.787l-1.749,7.703
		h-10.787l-1.385,6.706h11.589L230.587,507.242z"/>
	<path fill="#FFFFFF" d="M251.895,507.242h-9.5l5.758-27.675h-7.702l1.676-7.846h24.976l-1.726,7.846h-7.725L251.895,507.242z"/>
	<path fill="#FFFFFF" d="M284.96,500.585h-10.885l-3.036,6.657h-9.864l18.076-35.521h12.219l2.99,35.521h-9.258L284.96,500.585z
		 M277.551,493.005h7.117l-0.412-10.302l-0.049-2.089c0-1.215,0.031-2.275,0.097-3.184c-0.389,1.395-0.883,2.738-1.483,4.036
		L277.551,493.005z"/>
	<path fill="#FFFFFF" d="M298.495,507.242l7.506-35.521h9.647l-7.509,35.521H298.495z"/>
	<path fill="#FFFFFF" d="M316.205,507.242l7.509-35.521h9.498l-5.854,27.769h11.588l-1.652,7.752L316.205,507.242L316.205,507.242z"
		/>
</g>
<rect x="14.582" y="874.622" fill="none" stroke="#C73A22" stroke-width="1.5" stroke-miterlimit="10" width="486.427" height="76.949"/>
<rect x="14.589" y="757.791" fill="none" stroke="#C73A22" stroke-width="1.5" stroke-miterlimit="10" width="486.427" height="76.949"/>
<rect x="14.589" y="604.83" fill="none" stroke="#C73A22" stroke-width="1.5" stroke-miterlimit="10" width="486.427" height="115.424"/>
<rect x="28.968" y="632.982" fill="none" width="457.668" height="29.56"/>
<g enable-background="new    ">
	<path fill="#C73A22" d="M78.976,653.309h-1.107l-4.232-14.871c-0.352-1.222-0.615-2.224-0.791-3.006
		c-0.141,0.765-0.341,1.644-0.6,2.637s-1.676,6.073-4.251,15.24H66.86l-5.3-19.274h1.411l3.375,12.419
		c0.132,0.501,0.255,0.965,0.369,1.391c0.114,0.427,0.218,0.826,0.31,1.2c0.093,0.373,0.176,0.733,0.251,1.081
		c0.074,0.347,0.143,0.696,0.204,1.048c0.211-1.195,0.659-3.01,1.345-5.444l3.296-11.694h1.49l3.863,13.421
		c0.448,1.547,0.769,2.795,0.962,3.744c0.114-0.633,0.261-1.305,0.442-2.018c0.18-0.711,1.536-5.761,4.067-15.147h1.358
		L78.976,653.309z"/>
	<path fill="#C73A22" d="M103.906,643.645c0,3.059-0.765,5.479-2.294,7.258c-1.529,1.78-3.639,2.67-6.328,2.67
		c-2.681,0-4.786-0.89-6.315-2.67c-1.529-1.779-2.294-4.207-2.294-7.283c0-3.067,0.771-5.482,2.314-7.245
		c1.542-1.762,3.649-2.644,6.321-2.644c2.689,0,4.794,0.886,6.315,2.657C103.146,638.158,103.906,640.578,103.906,643.645z
		 M88.138,643.645c0,2.761,0.615,4.894,1.846,6.401c1.23,1.507,2.997,2.261,5.3,2.261c2.32,0,4.094-0.747,5.319-2.241
		c1.227-1.494,1.839-3.634,1.839-6.421c0-2.776-0.613-4.906-1.839-6.387c-1.226-1.481-2.99-2.222-5.293-2.222
		c-2.294,0-4.063,0.747-5.307,2.241S88.138,640.895,88.138,643.645z"/>
	<path fill="#C73A22" d="M109.68,644.91v8.398h-1.345v-19.274h4.588c2.391,0,4.157,0.441,5.3,1.325
		c1.143,0.883,1.714,2.213,1.714,3.988c0,1.291-0.341,2.382-1.022,3.27s-1.716,1.524-3.104,1.911l5.234,8.78h-1.608l-4.97-8.398
		H109.68z M109.68,643.75h3.678c1.626,0,2.887-0.362,3.784-1.087c0.896-0.726,1.345-1.795,1.345-3.21
		c0-1.468-0.439-2.536-1.318-3.204s-2.312-1.002-4.298-1.002h-3.19V643.75z"/>
	<path fill="#C73A22" d="M137.339,653.309h-1.648l-7.396-10.178l-2.571,2.268v7.91h-1.345v-19.274h1.345v10.02l2.136-2.136
		l7.554-7.884h1.714l-7.897,8.147L137.339,653.309z"/>
	<path fill="#C73A22" d="M141.413,653.309h-1.345v-19.274h10.56v1.239h-9.215v8.174h8.701v1.252h-8.701V653.309z"/>
	<path fill="#C73A22" d="M169.824,643.645c0,3.059-0.765,5.479-2.294,7.258c-1.529,1.78-3.639,2.67-6.328,2.67
		c-2.681,0-4.786-0.89-6.315-2.67c-1.529-1.779-2.294-4.207-2.294-7.283c0-3.067,0.771-5.482,2.314-7.245
		c1.542-1.762,3.649-2.644,6.321-2.644c2.689,0,4.794,0.886,6.315,2.657C169.063,638.158,169.824,640.578,169.824,643.645z
		 M154.056,643.645c0,2.761,0.615,4.894,1.846,6.401c1.23,1.507,2.997,2.261,5.3,2.261c2.32,0,4.094-0.747,5.319-2.241
		c1.227-1.494,1.839-3.634,1.839-6.421c0-2.776-0.613-4.906-1.839-6.387c-1.226-1.481-2.99-2.222-5.293-2.222
		c-2.294,0-4.063,0.747-5.307,2.241S154.056,640.895,154.056,643.645z"/>
	<path fill="#C73A22" d="M175.598,644.91v8.398h-1.345v-19.274h4.588c2.391,0,4.157,0.441,5.3,1.325
		c1.143,0.883,1.714,2.213,1.714,3.988c0,1.291-0.341,2.382-1.022,3.27s-1.716,1.524-3.104,1.911l5.234,8.78h-1.608l-4.97-8.398
		H175.598z M175.598,643.75h3.678c1.626,0,2.887-0.362,3.784-1.087c0.896-0.726,1.345-1.795,1.345-3.21
		c0-1.468-0.439-2.536-1.318-3.204s-2.312-1.002-4.298-1.002h-3.19V643.75z"/>
	<path fill="#C73A22" d="M198.524,634.971c-2.417,0-4.32,0.773-5.708,2.32s-2.083,3.664-2.083,6.354
		c0,2.752,0.655,4.888,1.964,6.408s3.182,2.28,5.616,2.28c1.617,0,3.103-0.206,4.456-0.62v1.188
		c-1.274,0.447-2.865,0.672-4.772,0.672c-2.707,0-4.838-0.874-6.394-2.623s-2.333-4.193-2.333-7.33c0-1.96,0.371-3.688,1.114-5.182
		s1.811-2.647,3.204-3.461c1.393-0.813,3.012-1.219,4.858-1.219c1.881,0,3.564,0.352,5.049,1.055l-0.541,1.213
		C201.548,635.322,200.071,634.971,198.524,634.971z"/>
	<path fill="#C73A22" d="M217.601,653.309h-10.534v-19.274h10.534v1.239h-9.189v7.291h8.675v1.238h-8.675v8.267h9.189V653.309z"/>
	<path fill="#C73A22" d="M239.618,648.338c0,1.609-0.591,2.884-1.773,3.824s-2.753,1.41-4.713,1.41c-2.355,0-4.162-0.26-5.418-0.777
		v-1.346c1.389,0.59,3.16,0.884,5.313,0.884c1.582,0,2.836-0.362,3.764-1.088c0.927-0.725,1.391-1.676,1.391-2.854
		c0-0.729-0.154-1.333-0.461-1.813c-0.308-0.479-0.809-0.916-1.503-1.312s-1.714-0.821-3.059-1.278
		c-1.969-0.677-3.329-1.409-4.08-2.195c-0.752-0.787-1.127-1.835-1.127-3.145c0-1.441,0.564-2.617,1.694-3.526
		c1.129-0.91,2.582-1.364,4.357-1.364c1.811,0,3.511,0.342,5.102,1.027l-0.488,1.16c-1.6-0.667-3.129-1.002-4.588-1.002
		c-1.424,0-2.558,0.33-3.401,0.989s-1.266,1.556-1.266,2.689c0,0.712,0.129,1.297,0.389,1.753c0.259,0.458,0.684,0.868,1.272,1.233
		c0.589,0.364,1.6,0.802,3.032,1.312c1.503,0.519,2.632,1.021,3.388,1.51c0.756,0.487,1.307,1.041,1.655,1.661
		C239.444,646.71,239.618,647.46,239.618,648.338z"/>
	<path fill="#C73A22" d="M243.691,653.309v-19.274h1.345v19.274H243.691z"/>
	<path fill="#C73A22" d="M262.24,653.309h-13.394v-1.002l11.285-17.007H249.36v-1.266h12.577v1.002l-11.312,17.007h11.614V653.309z"
		/>
	<path fill="#C73A22" d="M276.584,653.309h-10.533v-19.274h10.533v1.239h-9.188v7.291h8.675v1.238h-8.675v8.267h9.188V653.309z"/>
	<path fill="#C73A22" d="M280.355,640.508c0-0.861,0.352-1.293,1.055-1.293c0.721,0,1.08,0.432,1.08,1.293
		c0,0.466-0.104,0.8-0.309,1.002c-0.207,0.202-0.465,0.303-0.771,0.303c-0.299,0-0.55-0.101-0.752-0.303
		S280.355,640.974,280.355,640.508z M280.355,652.28c0-0.861,0.352-1.292,1.055-1.292c0.721,0,1.08,0.431,1.08,1.292
		s-0.359,1.292-1.08,1.292C280.707,653.572,280.355,653.142,280.355,652.28z"/>
</g>
<g enable-background="new    ">
	<path fill="#C73A22" d="M303.614,638.213c0,1.196-0.364,2.222-1.094,3.079c-0.729,0.856-1.784,1.479-3.164,1.865v0.079
		c3.217,0.404,4.825,1.925,4.825,4.562c0,1.793-0.71,3.204-2.129,4.231c-1.42,1.029-3.391,1.543-5.913,1.543
		c-1.037,0-1.997-0.075-2.881-0.225c-0.883-0.148-1.839-0.422-2.867-0.816v-4.324c0.844,0.431,1.702,0.749,2.577,0.955
		c0.874,0.207,1.681,0.311,2.419,0.311c1.143,0,1.976-0.161,2.499-0.481c0.522-0.321,0.784-0.824,0.784-1.51
		c0-0.527-0.137-0.934-0.409-1.22c-0.272-0.285-0.712-0.501-1.318-0.646c-0.606-0.146-1.397-0.218-2.373-0.218h-1.187v-3.916h1.213
		c2.646,0,3.969-0.676,3.969-2.029c0-0.51-0.196-0.888-0.587-1.135c-0.392-0.245-0.916-0.369-1.575-0.369
		c-1.23,0-2.505,0.414-3.823,1.24l-2.162-3.48c1.02-0.703,2.063-1.204,3.131-1.504c1.068-0.298,2.292-0.447,3.672-0.447
		c1.995,0,3.56,0.395,4.693,1.186S303.614,636.825,303.614,638.213z"/>
	<path fill="#C73A22" d="M306.423,651.12c0-0.809,0.239-1.433,0.719-1.872c0.479-0.439,1.175-0.659,2.089-0.659
		c0.87,0,1.538,0.22,2.004,0.659s0.699,1.063,0.699,1.872c0,0.791-0.24,1.408-0.719,1.853c-0.479,0.443-1.141,0.666-1.984,0.666
		c-0.87,0-1.556-0.221-2.057-0.66C306.673,652.54,306.423,651.92,306.423,651.12z"/>
	<path fill="#C73A22" d="M325.513,653.309h-5.287v-10.204c0-1.239,0.026-2.373,0.079-3.401c-0.325,0.396-0.729,0.809-1.213,1.239
		l-2.188,1.806l-2.702-3.322l6.618-5.392h4.693V653.309z"/>
	<path fill="#C73A22" d="M346.408,653.309l-3.941-13.883h-0.119c0.185,2.365,0.277,4.202,0.277,5.512v8.371h-4.614v-19.274h6.935
		l4.021,13.685h0.105l3.942-13.685h6.947v19.274h-4.785v-8.451c0-0.438,0.007-0.927,0.02-1.463c0.014-0.536,0.072-1.85,0.178-3.941
		h-0.118l-3.89,13.855H346.408z"/>
	<path fill="#C73A22" d="M364.114,653.309v-19.274h5.233v19.274H364.114z"/>
	<path fill="#C73A22" d="M373.514,653.309v-19.274h5.208v15.069h7.422v4.205H373.514z"/>
	<path fill="#C73A22" d="M389.229,653.309v-19.274h5.208v15.069h7.422v4.205H389.229z"/>
	<path fill="#C73A22" d="M404.943,653.309v-19.274h5.234v19.274H404.943z"/>
	<path fill="#C73A22" d="M432.379,643.645c0,3.244-0.796,5.709-2.387,7.396s-3.92,2.531-6.987,2.531
		c-3.023,0-5.342-0.848-6.954-2.545c-1.613-1.695-2.419-4.166-2.419-7.408c0-3.208,0.802-5.658,2.406-7.351
		c1.604-1.691,3.935-2.538,6.993-2.538c3.067,0,5.393,0.84,6.975,2.519S432.379,640.394,432.379,643.645z M419.116,643.645
		c0,3.728,1.296,5.59,3.889,5.59c1.318,0,2.296-0.452,2.934-1.357c0.637-0.905,0.956-2.315,0.956-4.232
		c0-1.924-0.323-3.346-0.969-4.265c-0.646-0.918-1.611-1.378-2.895-1.378C420.421,638.002,419.116,639.884,419.116,643.645z"/>
	<path fill="#C73A22" d="M454.211,653.309h-6.829l-7.04-13.579h-0.119c0.167,2.136,0.251,3.767,0.251,4.892v8.688h-4.614v-19.274
		h6.803l7.014,13.395h0.079c-0.123-1.942-0.185-3.502-0.185-4.681v-8.714h4.641V653.309z"/>
</g>
<rect x="114.461" y="674.507" fill="none" width="286.683" height="17.595"/>
<g enable-background="new    ">
	<path fill="#808184" d="M150.903,689.483h-3.799l1.699-7.803c0.182-0.859,0.43-1.692,0.742-2.5
		c-0.508,0.442-0.934,0.778-1.279,1.006l-1.982,1.221l-1.475-2.461l6.055-3.74h3.037L150.903,689.483z"/>
</g>
<text transform="matrix(1 0 0 1 154.7757 689.4834)" fill="#808184" font-family="'OpenSans-Extrabold'" font-size="20"> </text>
<g enable-background="new    ">
	<path fill="#808184" d="M169.279,675.919c-1.283,0-2.427,0.34-3.433,1.021s-1.803,1.672-2.393,2.974s-0.884,2.737-0.884,4.307
		c0,1.465,0.36,2.591,1.079,3.379s1.753,1.182,3.101,1.182c0.912,0,1.901-0.166,2.969-0.498v0.918
		c-1.016,0.319-2.044,0.479-3.086,0.479c-1.641,0-2.897-0.472-3.77-1.416s-1.309-2.278-1.309-4.004c0-1.731,0.34-3.32,1.021-4.766
		s1.606-2.556,2.778-3.33s2.48-1.162,3.926-1.162c1.152,0,2.152,0.222,2.998,0.664l-0.439,0.879
		c-0.358-0.195-0.763-0.349-1.216-0.459S169.722,675.919,169.279,675.919z"/>
	<path fill="#808184" d="M179.406,689.483h-7.1l3.027-14.277h7.1l-0.205,0.918h-6.094l-1.143,5.4h5.762l-0.205,0.918h-5.742
		l-1.318,6.123h6.123L179.406,689.483z"/>
	<path fill="#808184" d="M195.432,680.587c0,1.66-0.306,3.228-0.918,4.702s-1.432,2.575-2.461,3.301s-2.217,1.089-3.564,1.089
		c-1.627,0-2.881-0.485-3.76-1.455s-1.318-2.37-1.318-4.199c0-1.706,0.303-3.26,0.908-4.663s1.436-2.48,2.49-3.232
		s2.269-1.128,3.643-1.128c1.608,0,2.84,0.483,3.696,1.45S195.432,678.797,195.432,680.587z M190.314,675.919
		c-1.133,0-2.137,0.329-3.013,0.986s-1.574,1.628-2.095,2.91s-0.781,2.64-0.781,4.072c0,1.595,0.356,2.81,1.069,3.643
		s1.753,1.25,3.12,1.25c1.1,0,2.077-0.32,2.93-0.962s1.537-1.618,2.051-2.93s0.771-2.713,0.771-4.204
		c0-1.563-0.34-2.747-1.021-3.555S191.656,675.919,190.314,675.919z"/>
	<path fill="#808184" d="M212.404,678.722c0,3.255-1.986,4.883-5.957,4.883h-1.963l-1.26,5.879h-1.006l3.027-14.277h3.076
		c1.315,0,2.324,0.301,3.027,0.903S212.404,677.582,212.404,678.722z M204.641,682.706h1.865c1.641,0,2.856-0.314,3.647-0.942
		s1.187-1.623,1.187-2.983c0-1.784-1.071-2.676-3.213-2.676h-2.061L204.641,682.706z"/>
	<path fill="#808184" d="M220.5,689.483h-7.1l3.027-14.277h7.1l-0.205,0.918h-6.094l-1.143,5.4h5.762l-0.205,0.918H215.9
		l-1.318,6.123h6.123L220.5,689.483z"/>
	<path fill="#808184" d="M226.105,683.302l-1.279,6.182h-1.006l3.027-14.277h2.959c2.799,0,4.199,1.172,4.199,3.516
		c0,1.185-0.337,2.171-1.011,2.959s-1.59,1.282-2.749,1.484c1.309,3.848,2.028,5.954,2.158,6.318h-1.084l-2.061-6.182H226.105z
		 M226.32,682.403h2.461c1.354,0,2.386-0.311,3.096-0.933s1.064-1.538,1.064-2.749c0-1.745-1.071-2.617-3.213-2.617h-2.061
		L226.32,682.403z"/>
</g>
<text transform="matrix(1 0 0 1 232.9187 689.4834)" fill="#808184" font-family="'OpenSans'" font-size="20"> </text>
<g enable-background="new    ">
	<path fill="#808184" d="M245.596,689.483h-3.799l1.699-7.803c0.182-0.859,0.43-1.692,0.742-2.5
		c-0.508,0.442-0.934,0.778-1.279,1.006l-1.982,1.221l-1.475-2.461l6.055-3.74h3.037L245.596,689.483z"/>
	<path fill="#808184" d="M260.743,680.187c0,1.907-0.336,3.599-1.006,5.073c-0.671,1.475-1.601,2.58-2.788,3.315
		c-1.188,0.735-2.593,1.104-4.214,1.104c-0.749,0-1.436-0.098-2.061-0.293v-3.066c0.599,0.241,1.26,0.361,1.982,0.361
		c1.217,0,2.167-0.283,2.847-0.85c0.68-0.566,1.15-1.481,1.411-2.744h-0.078c-0.385,0.618-0.814,1.057-1.289,1.313
		c-0.476,0.257-1.026,0.386-1.651,0.386c-0.983,0-1.761-0.358-2.334-1.074s-0.859-1.68-0.859-2.891c0-1.146,0.213-2.156,0.64-3.032
		s1.045-1.56,1.855-2.051s1.779-0.737,2.906-0.737c1.497,0,2.645,0.447,3.442,1.343C260.344,677.239,260.743,678.52,260.743,680.187
		z M256.202,677.999c-0.476,0-0.871,0.231-1.187,0.693s-0.474,1.025-0.474,1.689c0,0.938,0.299,1.406,0.898,1.406
		c0.482,0,0.889-0.229,1.221-0.688s0.498-1.018,0.498-1.675c0-0.43-0.09-0.774-0.269-1.035
		C256.711,678.129,256.481,677.999,256.202,677.999z"/>
	<path fill="#808184" d="M270.724,675.001c0.664,0,1.422,0.101,2.275,0.303l-0.615,2.959c-0.619-0.163-1.215-0.244-1.787-0.244
		c-0.944,0-1.716,0.11-2.314,0.332c-0.6,0.222-1.093,0.574-1.479,1.06c-0.388,0.485-0.734,1.216-1.04,2.192h0.078
		c0.689-1.106,1.689-1.66,2.998-1.66c1.041,0,1.836,0.335,2.383,1.006s0.82,1.644,0.82,2.92c0,1.14-0.224,2.153-0.669,3.042
		c-0.446,0.889-1.088,1.572-1.924,2.051c-0.837,0.479-1.806,0.718-2.905,0.718c-1.465,0-2.588-0.403-3.369-1.211
		s-1.172-2.002-1.172-3.584c0-0.684,0.084-1.511,0.254-2.48c0.553-2.552,1.524-4.424,2.915-5.615
		C266.562,675.597,268.412,675.001,270.724,675.001z M266.72,686.681c0.43,0,0.784-0.249,1.064-0.747
		c0.279-0.498,0.42-1.089,0.42-1.772c0-0.84-0.3-1.26-0.898-1.26c-0.443,0-0.811,0.237-1.104,0.713s-0.439,1.064-0.439,1.768
		c0,0.43,0.086,0.754,0.259,0.972C266.193,686.571,266.427,686.681,266.72,686.681z"/>
	<path fill="#808184" d="M273.185,689.483l7.002-11.084h-5.605l0.684-3.193h10.059l-0.498,2.256l-7.266,12.021H273.185z"/>
</g>
<text transform="matrix(1 0 0 1 283.7637 689.4834)" fill="#808184" font-family="'OpenSans-Extrabold'" font-size="20"> </text>
<g enable-background="new    ">
	<path fill="#808184" d="M298.824,676.388c-0.176,0.495-0.378,0.994-0.605,1.499c-0.229,0.505-2.061,4.37-5.498,11.597h-0.801
		l-0.713-14.277h0.977l0.459,10.068l0.039,1.611l-0.02,0.84h0.059c0.553-1.472,1.106-2.767,1.66-3.887l4.238-8.633h1.025
		l0.596,8.574c0.123,1.731,0.186,3.066,0.186,4.004h0.059c0.195-0.56,0.396-1.091,0.601-1.592s1.812-4.163,4.819-10.986h1.055
		c-1.101,2.376-2.177,4.756-3.228,7.139c-1.052,2.383-2.121,4.763-3.208,7.139h-0.762L299,678.985
		c-0.072-0.925-0.107-1.638-0.107-2.139l0.01-0.459H298.824z"/>
	<path fill="#808184" d="M319.205,680.587c0,1.66-0.307,3.228-0.918,4.702c-0.612,1.475-1.433,2.575-2.461,3.301
		c-1.029,0.726-2.217,1.089-3.564,1.089c-1.628,0-2.881-0.485-3.76-1.455s-1.318-2.37-1.318-4.199c0-1.706,0.303-3.26,0.908-4.663
		s1.436-2.48,2.49-3.232s2.269-1.128,3.643-1.128c1.607,0,2.84,0.483,3.696,1.45C318.776,677.418,319.205,678.797,319.205,680.587z
		 M314.088,675.919c-1.133,0-2.138,0.329-3.013,0.986c-0.876,0.657-1.574,1.628-2.095,2.91c-0.521,1.282-0.781,2.64-0.781,4.072
		c0,1.595,0.356,2.81,1.069,3.643s1.753,1.25,3.12,1.25c1.1,0,2.076-0.32,2.93-0.962c0.853-0.642,1.536-1.618,2.051-2.93
		c0.514-1.312,0.771-2.713,0.771-4.204c0-1.563-0.341-2.747-1.021-3.555C316.439,676.322,315.429,675.919,314.088,675.919z"/>
	<path fill="#808184" d="M323.082,683.302l-1.279,6.182h-1.006l3.027-14.277h2.959c2.799,0,4.199,1.172,4.199,3.516
		c0,1.185-0.337,2.171-1.011,2.959s-1.591,1.282-2.749,1.484c1.309,3.848,2.027,5.954,2.158,6.318h-1.084l-2.061-6.182H323.082z
		 M323.297,682.403h2.461c1.354,0,2.386-0.311,3.096-0.933c0.709-0.622,1.064-1.538,1.064-2.749c0-1.745-1.071-2.617-3.213-2.617
		h-2.061L323.297,682.403z"/>
	<path fill="#808184" d="M340.543,689.483h-1.084l-3.34-7.695l-1.855,1.494l-1.279,6.201h-1.006l3.027-14.277h0.996l-1.543,7.061
		l1.299-1.182l6.641-5.879h1.348l-6.826,5.957L340.543,689.483z"/>
	<path fill="#808184" d="M350.035,689.483h-7.1l3.027-14.277h7.1l-0.205,0.918h-6.094l-1.143,5.4h5.762l-0.205,0.918h-5.742
		l-1.318,6.123h6.123L350.035,689.483z"/>
	<path fill="#808184" d="M355.641,683.302l-1.279,6.182h-1.006l3.027-14.277h2.959c2.799,0,4.199,1.172,4.199,3.516
		c0,1.185-0.337,2.171-1.011,2.959s-1.591,1.282-2.749,1.484c1.309,3.848,2.027,5.954,2.158,6.318h-1.084l-2.061-6.182H355.641z
		 M355.855,682.403h2.461c1.354,0,2.386-0.311,3.096-0.933c0.709-0.622,1.064-1.538,1.064-2.749c0-1.745-1.071-2.617-3.213-2.617
		h-2.061L355.855,682.403z"/>
	<path fill="#808184" d="M372.281,685.548c0,0.82-0.214,1.551-0.64,2.192c-0.427,0.642-1.011,1.125-1.753,1.45
		s-1.618,0.488-2.627,0.488c-0.573,0-1.135-0.056-1.685-0.166c-0.551-0.11-1.108-0.3-1.675-0.566v-1.064
		c1.061,0.599,2.193,0.898,3.398,0.898c1.224,0,2.186-0.281,2.886-0.845c0.699-0.563,1.05-1.32,1.05-2.271
		c0-0.397-0.056-0.737-0.166-1.021c-0.111-0.283-0.282-0.539-0.513-0.767c-0.231-0.228-0.527-0.449-0.889-0.664
		s-0.79-0.459-1.284-0.732c-0.977-0.495-1.659-1.028-2.046-1.602c-0.388-0.573-0.581-1.243-0.581-2.012s0.191-1.443,0.576-2.026
		c0.384-0.583,0.921-1.035,1.611-1.357c0.689-0.322,1.461-0.483,2.314-0.483c0.645,0,1.23,0.057,1.758,0.171
		s1.074,0.311,1.641,0.591l-0.313,0.918c-0.43-0.261-0.923-0.466-1.479-0.615s-1.093-0.225-1.606-0.225
		c-1.062,0-1.906,0.269-2.534,0.806c-0.629,0.537-0.942,1.248-0.942,2.134c0,0.671,0.159,1.224,0.479,1.66
		c0.318,0.437,0.911,0.869,1.777,1.299c1.002,0.515,1.697,0.938,2.085,1.27c0.387,0.332,0.677,0.7,0.869,1.104
		C372.185,684.516,372.281,684.994,372.281,685.548z"/>
</g>
<rect x="52.125" y="784.628" fill="none" width="405.724" height="29.56"/>
<g enable-background="new    ">
	<path fill="#C73A22" d="M91.367,804.954l-7.185-17.798h-0.105c0.07,1.09,0.105,2.206,0.105,3.349v14.449H82.89V785.68h2.083
		l6.829,16.954h0.079l6.829-16.954h2.03v19.274h-1.358v-14.607c0-1.02,0.053-2.074,0.158-3.164h-0.105l-7.211,17.771H91.367z"/>
	<path fill="#C73A22" d="M116.719,804.954h-10.534V785.68h10.534v1.239h-9.189v7.291h8.675v1.238h-8.675v8.267h9.189V804.954z"/>
	<path fill="#C73A22" d="M135.716,795.132c0,3.235-0.848,5.681-2.544,7.337c-1.696,1.657-4.188,2.485-7.475,2.485h-4.614V785.68
		h5.208c3.076,0,5.416,0.804,7.021,2.413C134.914,789.7,135.716,792.048,135.716,795.132z M134.253,795.185
		c0-2.759-0.701-4.836-2.103-6.229c-1.402-1.394-3.461-2.09-6.177-2.09h-3.546v16.901h3.19
		C131.375,803.768,134.253,800.907,134.253,795.185z"/>
	<path fill="#C73A22" d="M140.146,804.954V785.68h1.345v19.274H140.146z"/>
	<path fill="#C73A22" d="M156.23,798.151h-7.831l-2.689,6.803h-1.49l7.752-19.354h0.857l7.594,19.354h-1.516L156.23,798.151z
		 M148.887,796.938h6.895l-2.624-6.947c-0.22-0.545-0.483-1.301-0.791-2.268c-0.237,0.844-0.497,1.607-0.778,2.293L148.887,796.938z
		"/>
	<path fill="#C73A22" d="M177.166,804.954h-1.358l-11.417-17.112h-0.105c0.105,2.039,0.158,3.577,0.158,4.614v12.498h-1.292V785.68
		h1.345l11.404,17.086h0.079c-0.079-1.582-0.119-3.085-0.119-4.509V785.68h1.305V804.954z"/>
	<path fill="#C73A22" d="M203.599,804.954h-1.358v-9.479h-11.259v9.479h-1.345V785.68h1.345v8.556h11.259v-8.556h1.358V804.954z"/>
	<path fill="#C73A22" d="M225.259,795.29c0,3.059-0.765,5.479-2.294,7.258c-1.529,1.78-3.639,2.67-6.328,2.67
		c-2.681,0-4.786-0.89-6.315-2.67c-1.529-1.779-2.294-4.207-2.294-7.283c0-3.067,0.771-5.482,2.314-7.245
		c1.542-1.762,3.649-2.644,6.321-2.644c2.689,0,4.794,0.886,6.315,2.657C224.499,789.804,225.259,792.224,225.259,795.29z
		 M209.492,795.29c0,2.761,0.615,4.894,1.846,6.401c1.23,1.507,2.997,2.261,5.3,2.261c2.32,0,4.094-0.747,5.319-2.241
		c1.227-1.494,1.839-3.634,1.839-6.421c0-2.776-0.613-4.906-1.839-6.387c-1.226-1.481-2.99-2.222-5.293-2.222
		c-2.294,0-4.063,0.747-5.307,2.241S209.492,792.54,209.492,795.29z"/>
	<path fill="#C73A22" d="M243.861,785.68v12.472c0,2.215-0.642,3.946-1.925,5.194s-3.072,1.872-5.366,1.872
		c-2.232,0-3.975-0.626-5.227-1.879c-1.253-1.252-1.879-2.999-1.879-5.24V785.68h1.358v12.472c0,1.854,0.514,3.298,1.542,4.331
		c1.028,1.032,2.483,1.549,4.364,1.549c1.837,0,3.261-0.508,4.271-1.522c1.011-1.016,1.516-2.424,1.516-4.226V785.68H243.861z"/>
	<path fill="#C73A22" d="M250.453,796.556v8.398h-1.345V785.68h4.588c2.391,0,4.157,0.441,5.3,1.325
		c1.143,0.883,1.714,2.213,1.714,3.988c0,1.291-0.341,2.382-1.022,3.27c-0.681,0.888-1.716,1.524-3.104,1.911l5.234,8.78h-1.608
		l-4.97-8.398H250.453z M250.453,795.396h3.678c1.625,0,2.887-0.362,3.784-1.087c0.896-0.726,1.345-1.795,1.345-3.21
		c0-1.468-0.439-2.536-1.318-3.204s-2.312-1.002-4.298-1.002h-3.19V795.396z"/>
	<path fill="#C73A22" d="M265.152,804.954V785.68h1.345v18.009h9.189v1.266H265.152z"/>
	<path fill="#C73A22" d="M283.438,796.227l5.643-10.547h1.45l-6.421,11.825v7.449h-1.384v-7.344l-6.447-11.931h1.543
		L283.438,796.227z"/>
	<path fill="#C73A22" d="M315.633,804.954h-1.107l-4.232-14.871c-0.352-1.222-0.615-2.224-0.791-3.006
		c-0.141,0.765-0.341,1.644-0.6,2.637c-0.26,0.993-1.677,6.073-4.252,15.24h-1.134l-5.3-19.274h1.411l3.375,12.419
		c0.132,0.501,0.255,0.965,0.369,1.391c0.114,0.427,0.218,0.826,0.31,1.2c0.093,0.373,0.176,0.733,0.251,1.081
		c0.074,0.347,0.143,0.696,0.204,1.048c0.211-1.195,0.659-3.01,1.345-5.444l3.296-11.694h1.489l3.863,13.421
		c0.448,1.547,0.769,2.795,0.962,3.744c0.114-0.633,0.262-1.305,0.442-2.018c0.18-0.711,1.535-5.761,4.066-15.147h1.358
		L315.633,804.954z"/>
	<path fill="#C73A22" d="M333.642,798.151h-7.831l-2.689,6.803h-1.49l7.752-19.354h0.857l7.594,19.354h-1.517L333.642,798.151z
		 M326.298,796.938h6.896l-2.624-6.947c-0.22-0.545-0.483-1.301-0.791-2.268c-0.237,0.844-0.496,1.607-0.777,2.293L326.298,796.938z
		"/>
	<path fill="#C73A22" d="M348.144,795.237h7.105v8.794c-1.863,0.791-3.959,1.187-6.288,1.187c-3.041,0-5.372-0.859-6.994-2.577
		c-1.621-1.719-2.433-4.15-2.433-7.298c0-1.959,0.402-3.697,1.207-5.214c0.804-1.516,1.955-2.687,3.454-3.513
		c1.498-0.826,3.219-1.24,5.161-1.24c2.101,0,3.985,0.388,5.655,1.16l-0.54,1.213c-1.67-0.772-3.401-1.16-5.194-1.16
		c-2.54,0-4.555,0.785-6.045,2.354c-1.489,1.569-2.234,3.686-2.234,6.348c0,2.9,0.707,5.083,2.122,6.546
		c1.415,1.464,3.494,2.195,6.236,2.195c1.775,0,3.282-0.251,4.521-0.751v-6.777h-5.734V795.237z"/>
	<path fill="#C73A22" d="M370.621,804.954h-10.533V785.68h10.533v1.239h-9.188v7.291h8.675v1.238h-8.675v8.267h9.188V804.954z"/>
	<path fill="#C73A22" d="M374.392,792.153c0-0.861,0.352-1.293,1.055-1.293c0.721,0,1.081,0.432,1.081,1.293
		c0,0.466-0.104,0.8-0.31,1.002c-0.207,0.202-0.464,0.303-0.771,0.303c-0.299,0-0.549-0.101-0.751-0.303
		S374.392,792.619,374.392,792.153z M374.392,803.926c0-0.861,0.352-1.292,1.055-1.292c0.721,0,1.081,0.431,1.081,1.292
		s-0.36,1.292-1.081,1.292C374.743,805.218,374.392,804.787,374.392,803.926z"/>
</g>
<text transform="matrix(1 0 0 1 375.8526 804.9541)" fill="#C73A22" font-family="'OpenSans'" font-size="27"> </text>
<g enable-background="new    ">
	<path fill="#C73A22" d="M389.444,804.058c-1.925-0.088-3.779-0.519-5.563-1.292v-4.377c1.02,0.519,2.127,0.951,3.322,1.299
		c1.195,0.347,2.245,0.521,3.15,0.521c0.747,0,1.294-0.09,1.642-0.271c0.347-0.18,0.521-0.481,0.521-0.903
		c0-0.289-0.125-0.535-0.375-0.738c-0.251-0.201-0.669-0.43-1.253-0.686c-0.585-0.254-1.373-0.562-2.366-0.922
		c-1.116-0.413-2.018-0.877-2.703-1.392c-0.686-0.514-1.185-1.09-1.496-1.727c-0.313-0.638-0.468-1.431-0.468-2.38
		c0-1.45,0.466-2.584,1.397-3.401s2.329-1.322,4.192-1.517v-1.806h2.729v1.78c1.749,0.097,3.512,0.527,5.287,1.291l-1.569,3.758
		c-1.837-0.826-3.493-1.239-4.97-1.239c-0.703,0-1.198,0.086-1.483,0.257c-0.286,0.172-0.429,0.425-0.429,0.758
		c0,0.291,0.104,0.53,0.311,0.719c0.206,0.189,0.564,0.4,1.074,0.633c0.51,0.233,1.217,0.504,2.122,0.811
		c1.837,0.651,3.155,1.392,3.955,2.222c0.8,0.831,1.2,1.901,1.2,3.21c0,1.477-0.468,2.677-1.404,3.6
		c-0.936,0.923-2.301,1.494-4.094,1.714v2.544h-2.729V804.058z"/>
	<path fill="#C73A22" d="M411.039,804.954h-5.287V794.75c0-1.239,0.026-2.373,0.079-3.401c-0.325,0.396-0.729,0.809-1.213,1.239
		l-2.188,1.806l-2.702-3.322l6.618-5.392h4.693V804.954z"/>
	<path fill="#C73A22" d="M429.312,795.343c0,3.411-0.571,5.909-1.714,7.495c-1.143,1.587-2.892,2.38-5.247,2.38
		c-2.303,0-4.039-0.828-5.208-2.485c-1.169-1.656-1.753-4.12-1.753-7.39c0-3.428,0.571-5.94,1.714-7.541
		c1.143-1.599,2.892-2.398,5.247-2.398c2.294,0,4.027,0.832,5.201,2.498C428.725,789.566,429.312,792.048,429.312,795.343z
		 M420.57,795.343c0,2.181,0.137,3.679,0.409,4.496s0.729,1.227,1.371,1.227c0.65,0,1.109-0.422,1.378-1.266
		c0.268-0.844,0.401-2.329,0.401-4.457c0-2.135-0.136-3.632-0.408-4.488c-0.272-0.857-0.729-1.285-1.371-1.285
		s-1.099,0.413-1.371,1.238C420.707,791.635,420.57,793.146,420.57,795.343z"/>
</g>
<rect x="98.735" y="898.317" fill="none" width="315.305" height="29.56"/>
<g enable-background="new    ">
	<path fill="#C73A22" d="M132.411,904.446v12.472c0,2.215-0.642,3.946-1.925,5.194s-3.072,1.872-5.366,1.872
		c-2.232,0-3.975-0.626-5.227-1.879c-1.253-1.252-1.879-2.999-1.879-5.24v-12.419h1.358v12.472c0,1.854,0.514,3.298,1.542,4.331
		c1.028,1.032,2.483,1.549,4.364,1.549c1.837,0,3.261-0.508,4.271-1.522c1.011-1.016,1.516-2.424,1.516-4.226v-12.604H132.411z"/>
	<path fill="#C73A22" d="M151.672,923.721h-1.358l-11.417-17.112h-0.105c0.105,2.039,0.158,3.577,0.158,4.614v12.498h-1.292v-19.274
		h1.345l11.404,17.086h0.079c-0.079-1.582-0.119-3.085-0.119-4.509v-12.577h1.305V923.721z"/>
	<path fill="#C73A22" d="M157.13,923.721v-19.274h1.345v19.274H157.13z"/>
	<path fill="#C73A22" d="M180.136,914.056c0,3.059-0.765,5.479-2.294,7.258c-1.529,1.78-3.639,2.67-6.328,2.67
		c-2.681,0-4.786-0.89-6.315-2.67c-1.529-1.779-2.294-4.207-2.294-7.283c0-3.067,0.771-5.482,2.314-7.245
		c1.542-1.762,3.649-2.644,6.321-2.644c2.689,0,4.794,0.886,6.315,2.657C179.375,908.57,180.136,910.99,180.136,914.056z
		 M164.368,914.056c0,2.761,0.615,4.894,1.846,6.401c1.23,1.507,2.997,2.261,5.3,2.261c2.32,0,4.094-0.747,5.319-2.241
		c1.227-1.494,1.839-3.634,1.839-6.421c0-2.776-0.613-4.906-1.839-6.387c-1.226-1.481-2.99-2.222-5.293-2.222
		c-2.294,0-4.063,0.747-5.307,2.241S164.368,911.306,164.368,914.056z"/>
	<path fill="#C73A22" d="M198.58,923.721h-1.358l-11.417-17.112h-0.105c0.105,2.039,0.158,3.577,0.158,4.614v12.498h-1.292v-19.274
		h1.345l11.404,17.086h0.079c-0.079-1.582-0.119-3.085-0.119-4.509v-12.577h1.305V923.721z"/>
	<path fill="#C73A22" d="M225.685,913.898c0,3.235-0.848,5.681-2.544,7.337c-1.696,1.657-4.188,2.485-7.475,2.485h-4.614v-19.274
		h5.208c3.076,0,5.416,0.804,7.021,2.413C224.883,908.467,225.685,910.814,225.685,913.898z M224.222,913.951
		c0-2.759-0.701-4.836-2.103-6.229c-1.402-1.394-3.461-2.09-6.177-2.09h-3.546v16.901h3.19
		C221.343,922.534,224.222,919.674,224.222,913.951z"/>
	<path fill="#C73A22" d="M240.648,923.721h-10.534v-19.274h10.534v1.239h-9.189v7.291h8.675v1.238h-8.675v8.267h9.189V923.721z"/>
	<path fill="#C73A22" d="M259.026,923.721h-1.358l-11.417-17.112h-0.105c0.105,2.039,0.158,3.577,0.158,4.614v12.498h-1.292v-19.274
		h1.345l11.404,17.086h0.079c-0.079-1.582-0.119-3.085-0.119-4.509v-12.577h1.305V923.721z"/>
	<path fill="#C73A22" d="M275.124,918.75c0,1.609-0.592,2.884-1.773,3.824c-1.183,0.94-2.753,1.41-4.713,1.41
		c-2.355,0-4.162-0.26-5.419-0.777v-1.346c1.389,0.59,3.16,0.884,5.313,0.884c1.582,0,2.836-0.362,3.764-1.088
		c0.927-0.725,1.391-1.676,1.391-2.854c0-0.729-0.153-1.333-0.461-1.813c-0.308-0.479-0.809-0.916-1.503-1.312
		s-1.714-0.821-3.059-1.278c-1.969-0.677-3.329-1.409-4.08-2.195c-0.752-0.787-1.128-1.835-1.128-3.145
		c0-1.441,0.564-2.617,1.694-3.526c1.129-0.91,2.582-1.364,4.357-1.364c1.811,0,3.511,0.342,5.102,1.027l-0.487,1.16
		c-1.6-0.667-3.129-1.002-4.588-1.002c-1.424,0-2.558,0.33-3.401,0.989s-1.266,1.556-1.266,2.689c0,0.712,0.129,1.297,0.389,1.753
		c0.259,0.458,0.684,0.868,1.272,1.233c0.589,0.364,1.6,0.802,3.032,1.312c1.503,0.519,2.632,1.021,3.388,1.51
		c0.756,0.487,1.308,1.041,1.655,1.661C274.95,917.122,275.124,917.872,275.124,918.75z"/>
	<path fill="#C73A22" d="M279.197,923.721v-19.274h1.345v19.274H279.197z"/>
	<path fill="#C73A22" d="M291.023,923.721h-1.358v-18.009h-6.262v-1.266h13.882v1.266h-6.262V923.721z"/>
	<path fill="#C73A22" d="M304.576,914.993l5.643-10.547h1.45l-6.421,11.825v7.449h-1.384v-7.344l-6.447-11.931h1.543
		L304.576,914.993z"/>
	<path fill="#C73A22" d="M313.805,910.92c0-0.861,0.352-1.293,1.055-1.293c0.721,0,1.081,0.432,1.081,1.293
		c0,0.466-0.104,0.8-0.31,1.002c-0.207,0.202-0.464,0.303-0.771,0.303c-0.299,0-0.55-0.101-0.752-0.303
		S313.805,911.386,313.805,910.92z M313.805,922.692c0-0.861,0.352-1.292,1.055-1.292c0.721,0,1.081,0.431,1.081,1.292
		s-0.36,1.292-1.081,1.292C314.156,923.984,313.805,923.554,313.805,922.692z"/>
</g>
<text transform="matrix(1 0 0 1 316.1708 923.7205)" fill="#C73A22" font-family="'OpenSans'" font-size="27"> </text>
<g enable-background="new    ">
	<path fill="#C73A22" d="M335.537,923.721h-5.287v-10.204c0-1.239,0.026-2.373,0.079-3.401c-0.325,0.396-0.729,0.809-1.213,1.239
		l-2.188,1.806l-2.702-3.322l6.618-5.392h4.693V923.721z"/>
	<path fill="#C73A22" d="M353.084,908.625c0,1.196-0.364,2.222-1.094,3.079c-0.729,0.856-1.784,1.479-3.164,1.865v0.079
		c3.217,0.404,4.825,1.925,4.825,4.562c0,1.793-0.71,3.204-2.129,4.231c-1.42,1.029-3.391,1.543-5.913,1.543
		c-1.037,0-1.997-0.075-2.881-0.225c-0.883-0.148-1.839-0.422-2.867-0.816v-4.324c0.844,0.431,1.702,0.749,2.577,0.955
		c0.874,0.207,1.681,0.311,2.419,0.311c1.143,0,1.976-0.161,2.499-0.481c0.522-0.321,0.784-0.824,0.784-1.51
		c0-0.527-0.137-0.934-0.409-1.22c-0.272-0.285-0.712-0.501-1.318-0.646c-0.606-0.146-1.397-0.218-2.373-0.218h-1.187v-3.916h1.213
		c2.646,0,3.969-0.676,3.969-2.029c0-0.51-0.196-0.888-0.587-1.135c-0.392-0.245-0.916-0.369-1.575-0.369
		c-1.23,0-2.505,0.414-3.823,1.24l-2.162-3.48c1.02-0.703,2.063-1.204,3.131-1.504c1.068-0.298,2.292-0.447,3.672-0.447
		c1.995,0,3.56,0.395,4.693,1.186S353.084,907.237,353.084,908.625z"/>
	<path fill="#C73A22" d="M355.893,921.532c0-0.809,0.239-1.433,0.719-1.872c0.479-0.439,1.175-0.659,2.089-0.659
		c0.87,0,1.538,0.22,2.004,0.659s0.699,1.063,0.699,1.872c0,0.791-0.24,1.408-0.719,1.853c-0.479,0.443-1.141,0.666-1.984,0.666
		c-0.87,0-1.556-0.221-2.057-0.66C356.143,922.952,355.893,922.332,355.893,921.532z"/>
	<path fill="#C73A22" d="M377.5,913.265c0,3.771-0.813,6.5-2.438,8.188s-4.228,2.531-7.805,2.531c-1.178,0-2.074-0.044-2.689-0.132
		v-4.126c0.756,0.141,1.512,0.211,2.268,0.211c1.863,0,3.3-0.385,4.311-1.154c1.011-0.769,1.561-1.984,1.648-3.645h-0.158
		c-0.343,0.633-0.682,1.09-1.016,1.371s-0.742,0.496-1.226,0.646s-1.086,0.224-1.807,0.224c-1.67,0-2.975-0.558-3.915-1.674
		s-1.411-2.654-1.411-4.614c0-2.136,0.608-3.81,1.826-5.022c1.217-1.213,2.885-1.82,5.003-1.82c2.355,0,4.18,0.783,5.472,2.348
		S377.5,910.384,377.5,913.265z M370.236,908.414c-0.571,0-1.035,0.207-1.391,0.62c-0.356,0.413-0.534,1.077-0.534,1.991
		c0,0.721,0.153,1.294,0.461,1.72c0.308,0.427,0.778,0.64,1.411,0.64c0.571,0,1.067-0.206,1.489-0.619s0.633-0.91,0.633-1.49
		c0-0.782-0.195-1.454-0.586-2.018C371.328,908.696,370.834,908.414,370.236,908.414z"/>
	<path fill="#C73A22" d="M388.812,910.194c0,1.934-0.435,3.43-1.305,4.489c-0.87,1.059-2.109,1.588-3.718,1.588
		c-1.512,0-2.709-0.547-3.593-1.641c-0.883-1.095-1.325-2.573-1.325-4.437c0-1.934,0.431-3.421,1.292-4.463
		c0.861-1.041,2.07-1.562,3.626-1.562c1.538,0,2.76,0.54,3.665,1.621S388.812,908.34,388.812,910.194z M382.84,910.247
		c0,1.011,0.083,1.74,0.25,2.188s0.418,0.672,0.752,0.672s0.582-0.219,0.745-0.658c0.162-0.439,0.243-1.174,0.243-2.202
		c0-1.011-0.081-1.74-0.243-2.188c-0.163-0.448-0.411-0.672-0.745-0.672c-0.343,0-0.596,0.229-0.758,0.686
		C382.921,908.529,382.84,909.254,382.84,910.247z M398.423,904.446l-10.692,19.274h-3.915l10.691-19.274H398.423z M403.472,917.867
		c0,1.925-0.438,3.417-1.312,4.476c-0.875,1.06-2.111,1.589-3.711,1.589c-1.512,0-2.709-0.547-3.593-1.642
		c-0.883-1.094-1.325-2.568-1.325-4.423c0-1.934,0.431-3.421,1.292-4.463c0.861-1.041,2.07-1.563,3.626-1.563
		c1.538,0,2.76,0.541,3.665,1.622S403.472,916.013,403.472,917.867z M397.5,917.92c0,1.011,0.083,1.74,0.25,2.188
		s0.418,0.673,0.752,0.673c0.378,0,0.64-0.258,0.784-0.771c0.146-0.515,0.218-1.211,0.218-2.09s-0.072-1.575-0.218-2.09
		c-0.145-0.514-0.406-0.771-0.784-0.771c-0.343,0-0.596,0.229-0.758,0.686C397.581,916.202,397.5,916.927,397.5,917.92z"/>
</g>
</svg>
