<?xml version="1.0" encoding="utf-8"?>
<!-- Generator: Adobe Illustrator 17.0.0, SVG Export Plug-In . SVG Version: 6.00 Build 0)  -->
<!DOCTYPE svg PUBLIC "-//W3C//DTD SVG 1.1//EN" "http://www.w3.org/Graphics/SVG/1.1/DTD/svg11.dtd">
<svg version="1.1" id="Layer_1" xmlns="http://www.w3.org/2000/svg" xmlns:xlink="http://www.w3.org/1999/xlink" x="0px" y="0px"
	 width="510px" height="962px" viewBox="0 0 510 962" enable-background="new 0 0 510 962" xml:space="preserve">
<path fill="#476B6F" d="M284.273,297.232c0,0,7.064,20.087,6.526,22.801c0,0,97.173,9.931,142.698-3.948
	c0,0,2.235-21.297,7.217-23.731c4.982-2.433-156.988-2.088-156.988-2.088L284.273,297.232z"/>
<path fill="#BB9E50" d="M283.387,284.46c0,0,51.289-73.8,159.548-9.4C442.935,275.06,383.103,306.625,283.387,284.46z"/>
<path fill="#BB9E50" d="M293.043,270.518c0,0-16.053-7.161-17.199,5.59c0,0-13.894,4.991-2.236,14.154
	c0,0-2.262,12.494,32.735,4.167c0,0,12.787,24.983,36.659,4.997c0,0,30.865,9.438,38.195-1.11c0,0,41.75,8.056,44.526-5.965
	c0,0,44.414-2.362,23.873-11.8c0,0,12.214-15.191-12.769-12.037"/>
<path fill="#E33B3B" d="M337.451,258.898c0,0-10.389-2.755-13.599,2.179C323.853,261.08,324.895,266.836,337.451,258.898z"/>
<path fill="#E33B3B" d="M346.063,265.522c0,0-0.688,12.09-8.611,9.869C337.451,275.391,331.011,271.197,346.063,265.522z"/>
<path fill="#E33B3B" d="M358.645,264.287c0,0-1.234,16.038,4.935,13.817C363.58,278.105,368.394,274.035,358.645,264.287z"/>
<path fill="#E33B3B" d="M374.932,264.287c0,0,6.169,12.09,11.352,8.142C386.283,272.429,392.452,267.249,374.932,264.287z"/>
<path fill="#E33B3B" d="M385.049,258.133c0,0,12.09,5.661,14.559,1.22C399.607,259.353,399.362,250.251,385.049,258.133z"/>
<path fill="#E33B3B" d="M344.323,250.257c0,0,5.342,11.304,11.883,9.766c0,0,3.488-0.91,2.442-15.137
	C358.648,244.886,351.892,242.689,344.323,250.257z"/>
<path fill="#2AAE58" d="M344.483,250.576c0,0-2.156-1.645,0.449-2.433c0,0-1.341-4.498,3.08-2.605c0,0,1.42-2.678,3.08-0.629
	c0,0,3.237-5.764,4.421-1.267c0,0,2.33-2.383,3.139,1.243C358.648,244.886,349.639,243.994,344.483,250.576z"/>
<path d="M346.99,250.724c-0.053-0.018-0.097-0.003-0.13,0.032c-0.033,0-0.062,0.012-0.089,0.044
	c-0.112,0.142-0.278,0.378-0.148,0.561c0.097,0.136,0.298,0.109,0.434,0.065c0.142-0.047,0.295-0.151,0.325-0.307
	C347.424,250.895,347.155,250.774,346.99,250.724z"/>
<path d="M356.741,256.131c-0.053-0.018-0.097-0.003-0.13,0.033c-0.032,0-0.062,0.012-0.089,0.044
	c-0.112,0.142-0.278,0.381-0.148,0.561c0.097,0.136,0.298,0.109,0.434,0.065c0.142-0.047,0.295-0.151,0.325-0.307
	C357.175,256.302,356.906,256.184,356.741,256.131z"/>
<path d="M353.07,254.947c-0.053-0.018-0.097-0.003-0.13,0.033c-0.033,0-0.062,0.012-0.089,0.044
	c-0.112,0.142-0.278,0.381-0.148,0.561c0.097,0.136,0.298,0.109,0.434,0.065c0.142-0.047,0.295-0.151,0.325-0.307
	C353.504,255.118,353.235,255,353.07,254.947z"/>
<path d="M353.85,250.809c-0.053-0.018-0.097-0.003-0.13,0.032c-0.033,0-0.062,0.012-0.089,0.044
	c-0.112,0.142-0.278,0.381-0.148,0.561c0.097,0.136,0.298,0.109,0.434,0.065c0.142-0.047,0.295-0.151,0.325-0.307
	C354.284,250.981,354.015,250.863,353.85,250.809z"/>
<path d="M355.471,253.054c-0.059-0.018-0.109-0.003-0.145,0.035c-0.035,0-0.071,0.012-0.097,0.05
	c-0.124,0.159-0.307,0.419-0.162,0.62c0.106,0.148,0.331,0.121,0.481,0.071c0.156-0.053,0.325-0.168,0.357-0.34
	C355.952,253.243,355.654,253.11,355.471,253.054z"/>
<path d="M355.444,246.327c-0.053-0.018-0.097-0.003-0.13,0.032c-0.033,0-0.062,0.012-0.089,0.044
	c-0.112,0.142-0.278,0.381-0.148,0.561c0.097,0.136,0.298,0.109,0.434,0.065c0.142-0.047,0.295-0.151,0.325-0.307
	C355.878,246.498,355.61,246.38,355.444,246.327z"/>
<path d="M351.151,250.582c-0.041-0.015-0.08-0.003-0.103,0.027c-0.027,0-0.05,0.009-0.071,0.035
	c-0.089,0.115-0.224,0.307-0.118,0.452c0.08,0.109,0.242,0.089,0.351,0.05c0.115-0.038,0.236-0.121,0.26-0.248
	C351.502,250.718,351.286,250.623,351.151,250.582z"/>
<path d="M351.354,247.921c-0.053-0.018-0.097-0.003-0.13,0.032c-0.033,0-0.062,0.012-0.089,0.044
	c-0.112,0.142-0.278,0.378-0.148,0.561c0.097,0.136,0.298,0.109,0.434,0.065c0.142-0.047,0.295-0.151,0.325-0.307
	C351.788,248.093,351.52,247.972,351.354,247.921z"/>
<path d="M348.915,253.024c-0.047-0.015-0.086-0.003-0.115,0.03c-0.027,0-0.056,0.012-0.077,0.038
	c-0.097,0.127-0.245,0.334-0.13,0.493c0.086,0.118,0.263,0.094,0.381,0.056c0.127-0.041,0.257-0.133,0.283-0.272
	C349.296,253.178,349.063,253.071,348.915,253.024z"/>
<path d="M353.472,257.767c-0.033-0.009-0.059,0-0.08,0.021c-0.018,0-0.038,0.006-0.053,0.027c-0.068,0.086-0.168,0.23-0.089,0.34
	c0.059,0.083,0.183,0.065,0.266,0.038c0.086-0.03,0.18-0.092,0.198-0.186C353.735,257.873,353.572,257.799,353.472,257.767z"/>
<path d="M356.333,250.009c-0.032-0.009-0.059,0-0.08,0.021c-0.018,0-0.038,0.006-0.053,0.027c-0.068,0.086-0.168,0.23-0.089,0.34
	c0.059,0.083,0.183,0.065,0.266,0.038c0.086-0.03,0.18-0.092,0.198-0.186C356.596,250.113,356.434,250.042,356.333,250.009z"/>
<path d="M351.588,253.848c-0.033-0.009-0.059,0-0.08,0.021c-0.018,0-0.038,0.006-0.053,0.027c-0.068,0.086-0.168,0.23-0.089,0.34
	c0.059,0.083,0.183,0.065,0.266,0.038c0.086-0.03,0.18-0.092,0.198-0.186C351.853,253.954,351.688,253.881,351.588,253.848z"/>
<path d="M350.823,256.645c-0.032-0.009-0.059,0-0.08,0.021c-0.018,0-0.038,0.006-0.053,0.027c-0.068,0.086-0.168,0.23-0.089,0.34
	c0.059,0.083,0.183,0.065,0.266,0.038c0.086-0.03,0.18-0.092,0.198-0.186C351.089,256.751,350.923,256.677,350.823,256.645z"/>
<path d="M355.441,258.721c-0.032-0.009-0.059,0-0.08,0.021c-0.018,0-0.038,0.006-0.053,0.027c-0.068,0.086-0.168,0.23-0.089,0.34
	c0.059,0.083,0.183,0.065,0.266,0.038c0.086-0.03,0.18-0.092,0.198-0.186C355.704,258.824,355.542,258.75,355.441,258.721z"/>
<path d="M354.496,248.435c-0.032-0.009-0.059,0-0.08,0.021c-0.018,0-0.038,0.006-0.053,0.027c-0.068,0.086-0.168,0.23-0.089,0.34
	c0.059,0.083,0.183,0.065,0.266,0.038c0.086-0.03,0.18-0.092,0.198-0.186C354.759,248.539,354.597,248.468,354.496,248.435z"/>
<path fill="#E33B3B" d="M365.632,244.856c0,0-5.36,11.295-0.027,15.38c0,0,2.912,2.12,13.256-7.705
	C378.862,252.534,376.284,245.916,365.632,244.856z"/>
<path fill="#2AAE58" d="M365.485,245.181c0,0-0.094-2.711,2.168-1.196c0,0,2.628-3.889,3.966,0.732c0,0,2.974-0.599,2.439,1.981
	c0,0,6.512-1.149,3.78,2.619c0,0,3.322,0.292,1.028,3.216C378.862,252.534,373.845,244.998,365.485,245.181z"/>
<path d="M366.961,247.216c-0.021-0.05-0.062-0.077-0.106-0.08c-0.021-0.024-0.05-0.041-0.092-0.041
	c-0.18,0.006-0.47,0.027-0.526,0.242c-0.041,0.159,0.106,0.301,0.224,0.378c0.127,0.08,0.304,0.13,0.443,0.056
	C367.103,247.661,367.026,247.378,366.961,247.216z"/>
<path d="M368.958,258.186c-0.021-0.05-0.062-0.077-0.106-0.08c-0.021-0.024-0.05-0.041-0.092-0.041
	c-0.18,0.006-0.47,0.027-0.526,0.242c-0.041,0.159,0.106,0.301,0.227,0.378c0.127,0.08,0.304,0.13,0.443,0.056
	C369.099,258.629,369.023,258.346,368.958,258.186z"/>
<path d="M367.546,254.595c-0.021-0.05-0.062-0.077-0.106-0.08c-0.021-0.024-0.05-0.041-0.092-0.041
	c-0.18,0.006-0.47,0.027-0.526,0.242c-0.041,0.159,0.106,0.301,0.227,0.378c0.127,0.08,0.304,0.13,0.443,0.056
	C367.688,255.038,367.611,254.758,367.546,254.595z"/>
<path d="M371.24,252.575c-0.021-0.05-0.062-0.077-0.106-0.08c-0.021-0.024-0.05-0.041-0.092-0.041
	c-0.18,0.006-0.47,0.027-0.526,0.242c-0.041,0.159,0.106,0.301,0.227,0.378c0.127,0.08,0.304,0.13,0.443,0.056
	C371.382,253.021,371.305,252.738,371.24,252.575z"/>
<path d="M370.532,255.254c-0.024-0.056-0.068-0.086-0.118-0.089c-0.021-0.027-0.056-0.047-0.1-0.044
	c-0.201,0.006-0.52,0.03-0.582,0.266c-0.047,0.177,0.115,0.331,0.251,0.416c0.142,0.089,0.337,0.145,0.49,0.062
	C370.691,255.747,370.605,255.431,370.532,255.254z"/>
<path d="M375.717,250.969c-0.021-0.05-0.062-0.077-0.106-0.08c-0.021-0.024-0.05-0.041-0.092-0.041
	c-0.18,0.006-0.47,0.027-0.526,0.242c-0.041,0.159,0.106,0.301,0.227,0.378c0.127,0.08,0.304,0.13,0.443,0.056
	C375.862,251.415,375.782,251.131,375.717,250.969z"/>
<path d="M369.708,250.346c-0.018-0.041-0.05-0.062-0.086-0.065c-0.015-0.021-0.038-0.032-0.074-0.032
	c-0.145,0.003-0.378,0.021-0.425,0.195c-0.035,0.13,0.086,0.242,0.183,0.304c0.103,0.065,0.245,0.106,0.357,0.044
	C369.823,250.703,369.761,250.476,369.708,250.346z"/>
<path d="M371.896,248.816c-0.021-0.05-0.062-0.077-0.106-0.08c-0.021-0.024-0.05-0.041-0.092-0.041
	c-0.18,0.006-0.47,0.027-0.526,0.242c-0.041,0.159,0.106,0.301,0.224,0.378c0.127,0.08,0.304,0.13,0.443,0.056
	C372.038,249.262,371.961,248.979,371.896,248.816z"/>
<path d="M366.4,250.166c-0.018-0.044-0.053-0.068-0.095-0.071c-0.018-0.021-0.044-0.035-0.08-0.035
	c-0.159,0.003-0.413,0.024-0.464,0.213c-0.038,0.142,0.092,0.263,0.198,0.331c0.112,0.071,0.266,0.115,0.39,0.047
	C366.524,250.555,366.456,250.307,366.4,250.166z"/>
<path d="M365.618,256.695c-0.012-0.032-0.038-0.047-0.065-0.047c-0.012-0.015-0.03-0.027-0.056-0.024
	c-0.109,0.003-0.286,0.015-0.319,0.148c-0.027,0.097,0.065,0.183,0.139,0.23c0.077,0.05,0.183,0.08,0.269,0.033
	C365.706,256.964,365.659,256.792,365.618,256.695z"/>
<path d="M373.431,253.99c-0.012-0.032-0.038-0.047-0.065-0.047c-0.012-0.015-0.03-0.027-0.056-0.024
	c-0.109,0.003-0.286,0.015-0.319,0.148c-0.027,0.097,0.065,0.183,0.139,0.23c0.077,0.05,0.183,0.08,0.269,0.032
	C373.52,254.262,373.473,254.087,373.431,253.99z"/>
<path d="M367.454,252.753c-0.012-0.033-0.038-0.047-0.065-0.047c-0.012-0.015-0.03-0.027-0.056-0.024
	c-0.109,0.003-0.286,0.015-0.319,0.148c-0.027,0.097,0.065,0.183,0.139,0.23c0.077,0.05,0.183,0.08,0.269,0.032
	C367.543,253.024,367.496,252.853,367.454,252.753z"/>
<path d="M364.809,253.934c-0.012-0.033-0.038-0.047-0.065-0.047c-0.012-0.015-0.03-0.027-0.056-0.024
	c-0.109,0.003-0.286,0.015-0.319,0.148c-0.027,0.097,0.065,0.183,0.139,0.23c0.077,0.05,0.183,0.08,0.269,0.032
	C364.894,254.205,364.847,254.031,364.809,253.934z"/>
<path d="M366.129,258.821c-0.012-0.033-0.038-0.047-0.065-0.047c-0.012-0.015-0.03-0.027-0.056-0.024
	c-0.109,0.003-0.286,0.015-0.319,0.148c-0.027,0.097,0.065,0.183,0.139,0.23c0.077,0.05,0.183,0.08,0.269,0.032
	C366.217,259.09,366.17,258.919,366.129,258.821z"/>
<path d="M373.488,251.574c-0.012-0.032-0.038-0.047-0.065-0.047c-0.012-0.015-0.03-0.027-0.056-0.024
	c-0.109,0.003-0.286,0.015-0.319,0.148c-0.027,0.097,0.065,0.183,0.139,0.23c0.077,0.05,0.183,0.08,0.269,0.032
	C373.573,251.843,373.526,251.672,373.488,251.574z"/>
<path fill="#E33B3B" d="M352.621,241.1c0,0,0.378,12.497,6.987,13.702c0,0,3.558,0.561,8.292-12.899
	C367.897,241.903,362.585,237.187,352.621,241.1z"/>
<path fill="#2AAE58" d="M352.639,241.454c0,0-1.32-2.371,1.385-2.052c0,0,0.57-4.66,3.863-1.158c0,0,2.374-1.887,3.074,0.653
	c0,0,5.271-3.99,4.56,0.608c0,0,3.089-1.255,2.38,2.395C367.897,241.903,359.995,237.482,352.639,241.454z"/>
<path d="M354.877,242.594c-0.041-0.035-0.089-0.041-0.133-0.024c-0.03-0.012-0.062-0.015-0.1,0.006
	c-0.159,0.086-0.408,0.236-0.36,0.455c0.035,0.162,0.23,0.219,0.372,0.233c0.151,0.015,0.331-0.021,0.419-0.154
	C355.208,242.925,355.01,242.706,354.877,242.594z"/>
<path d="M361.652,251.447c-0.041-0.035-0.089-0.041-0.133-0.024c-0.03-0.012-0.062-0.015-0.1,0.006
	c-0.159,0.086-0.408,0.236-0.36,0.455c0.035,0.162,0.23,0.219,0.372,0.233c0.151,0.015,0.331-0.021,0.419-0.154
	C361.982,251.778,361.785,251.562,361.652,251.447z"/>
<path d="M358.761,248.896c-0.041-0.035-0.089-0.041-0.133-0.024c-0.03-0.012-0.062-0.015-0.1,0.006
	c-0.159,0.086-0.408,0.236-0.36,0.455c0.035,0.162,0.23,0.219,0.372,0.233c0.151,0.015,0.331-0.021,0.419-0.154
	C359.091,249.227,358.894,249.008,358.761,248.896z"/>
<path d="M361.129,245.414c-0.041-0.035-0.089-0.041-0.133-0.024c-0.03-0.012-0.062-0.015-0.1,0.006
	c-0.159,0.086-0.408,0.236-0.36,0.455c0.035,0.162,0.23,0.219,0.372,0.233c0.151,0.015,0.331-0.021,0.419-0.154
	C361.46,245.745,361.262,245.529,361.129,245.414z"/>
<path d="M361.72,248.119c-0.047-0.041-0.1-0.047-0.145-0.024c-0.033-0.015-0.071-0.015-0.109,0.006
	c-0.174,0.097-0.449,0.263-0.399,0.502c0.038,0.18,0.254,0.242,0.413,0.257c0.165,0.015,0.366-0.024,0.464-0.168
	C362.086,248.485,361.864,248.246,361.72,248.119z"/>
<path d="M364.383,241.944c-0.041-0.035-0.089-0.041-0.133-0.024c-0.03-0.012-0.062-0.015-0.1,0.006
	c-0.159,0.086-0.408,0.236-0.36,0.455c0.035,0.162,0.23,0.219,0.372,0.233c0.151,0.015,0.331-0.021,0.419-0.154
	C364.714,242.275,364.516,242.057,364.383,241.944z"/>
<path d="M358.749,244.127c-0.033-0.03-0.071-0.033-0.106-0.018c-0.024-0.012-0.05-0.012-0.08,0.003
	c-0.127,0.071-0.328,0.192-0.289,0.366c0.03,0.13,0.186,0.177,0.301,0.189c0.121,0.012,0.266-0.018,0.34-0.124
	C359.015,244.392,358.855,244.218,358.749,244.127z"/>
<path d="M360.001,241.77c-0.041-0.035-0.089-0.041-0.133-0.024c-0.03-0.012-0.062-0.015-0.1,0.006
	c-0.159,0.086-0.408,0.236-0.36,0.455c0.035,0.162,0.23,0.219,0.372,0.233c0.151,0.015,0.331-0.021,0.419-0.154
	C360.329,242.101,360.131,241.882,360.001,241.77z"/>
<path d="M355.722,245.473c-0.035-0.032-0.08-0.035-0.115-0.021c-0.027-0.012-0.056-0.012-0.086,0.006
	c-0.139,0.077-0.357,0.207-0.316,0.399c0.03,0.142,0.204,0.192,0.328,0.204c0.133,0.012,0.289-0.018,0.369-0.136
	C356.011,245.766,355.837,245.574,355.722,245.473z"/>
<path d="M358.002,251.642c-0.027-0.021-0.053-0.027-0.08-0.015c-0.018-0.009-0.038-0.009-0.059,0.003
	c-0.097,0.053-0.248,0.145-0.219,0.278c0.021,0.097,0.139,0.133,0.227,0.142c0.092,0.009,0.201-0.012,0.254-0.092
	C358.203,251.843,358.081,251.71,358.002,251.642z"/>
<path d="M363.725,245.674c-0.027-0.021-0.053-0.027-0.08-0.015c-0.018-0.009-0.038-0.009-0.059,0.003
	c-0.097,0.053-0.248,0.145-0.219,0.278c0.021,0.097,0.139,0.133,0.227,0.142c0.092,0.009,0.201-0.012,0.254-0.092
	C363.926,245.875,363.805,245.745,363.725,245.674z"/>
<path d="M357.842,247.298c-0.027-0.021-0.053-0.027-0.08-0.015c-0.018-0.009-0.038-0.009-0.059,0.003
	c-0.097,0.053-0.248,0.145-0.219,0.278c0.021,0.097,0.139,0.133,0.227,0.142c0.092,0.009,0.201-0.012,0.254-0.092
	C358.043,247.499,357.922,247.366,357.842,247.298z"/>
<path d="M356.023,249.554c-0.027-0.021-0.053-0.027-0.08-0.015c-0.018-0.009-0.038-0.009-0.059,0.003
	c-0.097,0.053-0.248,0.145-0.219,0.278c0.021,0.097,0.139,0.133,0.227,0.142c0.092,0.009,0.201-0.012,0.254-0.092
	C356.224,249.755,356.103,249.622,356.023,249.554z"/>
<path d="M359.425,253.302c-0.027-0.021-0.053-0.027-0.08-0.015c-0.018-0.009-0.038-0.009-0.059,0.003
	c-0.097,0.053-0.248,0.145-0.219,0.278c0.021,0.097,0.139,0.133,0.227,0.142c0.092,0.009,0.201-0.012,0.254-0.092
	C359.626,253.503,359.505,253.37,359.425,253.302z"/>
<path d="M362.673,243.498c-0.027-0.021-0.053-0.027-0.08-0.015c-0.018-0.009-0.038-0.009-0.059,0.003
	c-0.097,0.053-0.248,0.145-0.219,0.278c0.021,0.097,0.139,0.133,0.227,0.142c0.092,0.009,0.201-0.012,0.254-0.092
	C362.874,243.698,362.753,243.566,362.673,243.498z"/>
<path d="M248.688,412.416c0,0-3.045,49.334-11.96,71.629l-157.135,5.218l-8.319-85.385h103.41"/>
<path fill="#9B7E54" d="M239.575,397.057c0,0,79.142-16.041,89.525-43.631l-0.865-22.75l-85.131,29.717L239.575,397.057z"/>
<path fill="#E6E7E8" d="M220.271,228.038c0,0,36.822,59.915,47.872,122.839l-20.828,12.509l-41.998-114.024l15.43-19.871"/>
<path fill="#E6E7E8" d="M104.523,241.026c0,0-36.822,59.915-47.872,122.839l37.867,23.881l24.959-125.399l-3.411-31.89"/>
<path fill="#E6E7E8" d="M117.891,247.52c0,0-43.965,131.216-32.581,164.421l163.378,0.475c0,0,16.2-97.72-33.169-166.975
	S117.891,247.52,117.891,247.52z"/>
<path fill="#E6E7E8" d="M211.787,218.961"/>
<path fill="#E6E7E8" d="M107.393,232.441"/>
<path fill="#838383" d="M276.905,330.675c0,0,95.564,22.431,168.832,0.159L276.905,330.675z"/>
<polygon points="164.538,245.367 157.25,264.757 128.853,261.009 106.587,252.118 114.265,233.927 "/>
<polygon points="158.233,250.83 168.932,263.389 219.922,255.762 221.848,231.65 "/>
<ellipse cx="163.507" cy="276.885" rx="4.031" ry="3.319"/>
<ellipse cx="163.507" cy="302.975" rx="4.031" ry="3.319"/>
<ellipse cx="163.507" cy="330.675" rx="4.031" ry="3.319"/>
<ellipse cx="163.507" cy="351.361" rx="4.031" ry="3.319"/>
<path fill="#9B7E54" d="M56.662,363.864c0,0-1.267,80.74,23.462,96.787l22.408,4.025l-10.811-89.519L56.662,363.864z"/>
<ellipse transform="matrix(0.9991 0.0431 -0.0431 0.9991 6.7552 -6.9863)" fill="#9B7E54" cx="165.403" cy="153.171" rx="95.895" ry="99.554"/>
<ellipse transform="matrix(0.9774 0.2112 -0.2112 0.9774 37.4679 -25.4974)" cx="138.094" cy="162.648" rx="7.651" ry="8.605"/>
<ellipse transform="matrix(0.9774 0.2112 -0.2112 0.9774 38.6418 -36.4843)" cx="190.113" cy="162.65" rx="7.651" ry="8.605"/>
<path fill="none" stroke="#000000" stroke-width="2.2768" stroke-miterlimit="10" d="M132.674,218.468c0,0,31.308,19.322,61.666,0"
	/>
<line fill="none" stroke="#000000" stroke-width="1.5087" stroke-miterlimit="10" x1="127.725" y1="154.076" x2="133.557" y2="162.646"/>
<line fill="none" stroke="#000000" stroke-width="1.5087" stroke-miterlimit="10" x1="138.099" y1="149.617" x2="138.099" y2="160.053"/>
<line fill="none" stroke="#000000" stroke-width="1.5087" stroke-miterlimit="10" x1="150.021" y1="154.835" x2="142.213" y2="162.646"/>
<line fill="none" stroke="#000000" stroke-width="1.5087" stroke-miterlimit="10" x1="179.43" y1="154.076" x2="186.385" y2="161.03"/>
<line fill="none" stroke="#000000" stroke-width="1.5087" stroke-miterlimit="10" x1="190.12" y1="149.617" x2="190.12" y2="160.053"/>
<line fill="none" stroke="#000000" stroke-width="1.5087" stroke-miterlimit="10" x1="201.25" y1="154.835" x2="193.442" y2="162.646"/>
<path d="M69.603,149.041c0,0,133.611-15.412,135.714-86.519C205.317,62.522,89.752,15.639,69.603,149.041z"/>
<path d="M201.25,71.821c0,0,7.324,51.628,58.689,97.681c0,0,15.022-80.397-62.593-110.303"/>
<path d="M129.695,67.847c0,0-42.624-2.513-16.623-36.388c0,0,74.494-52.328,59.02,25.216"/>
<rect x="11" y="454.993" fill="#C73A22" width="490.988" height="68.095"/>
<rect x="48.692" y="469.649" fill="none" width="414.288" height="39.94"/>
<g enable-background="new    ">
	<path fill="#FFFFFF" d="M181.294,496.801c0,3.628-1.201,6.448-3.603,8.467s-5.752,3.028-10.05,3.028
		c-1.798,0-3.497-0.199-5.099-0.6s-2.982-0.986-4.143-1.753v-8.579c1.373,0.865,2.946,1.595,4.719,2.183
		c1.772,0.588,3.378,0.882,4.816,0.882c1.21,0,2.124-0.254,2.745-0.761c0.621-0.508,0.931-1.226,0.931-2.157
		c0-0.441-0.098-0.854-0.294-1.237c-0.196-0.384-0.474-0.77-0.833-1.154s-1.324-1.229-2.893-2.535
		c-1.912-1.537-3.301-3.106-4.167-4.706c-0.867-1.603-1.299-3.36-1.299-5.272c0-2.14,0.535-4.066,1.605-5.773
		c1.071-1.707,2.582-3.031,4.536-3.971c1.952-0.94,4.138-1.41,6.556-1.41c3.906,0,7.419,0.877,10.54,2.624l-3.309,7.279
		c-2.794-1.436-5.172-2.157-7.133-2.157c-1.045,0-1.85,0.231-2.415,0.686c-0.562,0.459-0.845,1.13-0.845,2.013
		c0,0.799,0.274,1.546,0.822,2.241c0.546,0.695,1.589,1.624,3.125,2.783c1.928,1.422,3.358,2.918,4.29,4.487
		C180.829,492.977,181.294,494.773,181.294,496.801z"/>
	<path fill="#FFFFFF" d="M206.935,507.805h-21.277l7.574-35.838h21.277l-1.593,7.772h-11.693l-1.152,5.635h10.884l-1.765,7.772
		h-10.884l-1.397,6.766h11.693L206.935,507.805z"/>
	<path fill="#FFFFFF" d="M226.226,494.765l-2.77,13.041h-9.584l7.574-35.838h9.486c4.118,0,7.272,0.816,9.462,2.451
		c2.19,1.635,3.285,4.092,3.285,7.38c0,2.549-0.58,4.77-1.74,6.667c-1.161,1.895-2.884,3.34-5.172,4.337l5.491,12.649l0.981,2.353
		h-10.442l-4.78-13.041h-1.791L226.226,494.765L226.226,494.765z M227.77,487.486h1.25c1.553,0,2.786-0.447,3.701-1.338
		c0.916-0.891,1.373-2.137,1.373-3.737c0-1.012-0.283-1.785-0.845-2.316c-0.565-0.531-1.386-0.799-2.464-0.799h-1.299
		L227.77,487.486z"/>
	<path fill="#FFFFFF" d="M270.226,471.968h10.148l-17.773,35.838h-10.686l-2.549-35.838h9.362l0.663,19.636v1.249
		c0,2.353-0.133,4.444-0.392,6.275h0.196c0.228-1.047,0.591-2.333,1.09-3.861s0.952-2.717,1.361-3.564L270.226,471.968z"/>
	<path fill="#FFFFFF" d="M277.433,507.805l7.573-35.838h9.733l-7.576,35.838H277.433z"/>
	<path fill="#FFFFFF" d="M316.088,479.394c-1.765,0-3.357,0.64-4.779,1.915s-2.538,3.031-3.345,5.269
		c-0.81,2.238-1.214,4.666-1.214,7.282c0,2.189,0.456,3.824,1.373,4.903c0.914,1.079,2.229,1.615,3.945,1.615
		c1.358,0,2.731-0.167,4.118-0.502c1.39-0.335,3.025-0.903,4.903-1.701v7.916c-3.316,1.471-6.913,2.206-10.786,2.206
		c-4.248,0-7.521-1.214-9.817-3.639c-2.296-2.428-3.443-5.863-3.443-10.307c0-4.349,0.828-8.334,2.489-11.962
		c1.658-3.628,3.913-6.368,6.766-8.213c2.849-1.846,6.114-2.768,9.791-2.768c4.332,0,8.262,1.07,11.792,3.21l-3.628,7.478
		c-1.52-0.9-2.918-1.575-4.193-2.024S317.461,479.394,316.088,479.394z"/>
	<path fill="#FFFFFF" d="M348.2,507.805h-21.277l7.576-35.838h21.277l-1.595,7.772H342.49l-1.154,5.635h10.884l-1.765,7.772h-10.884
		l-1.396,6.766h11.691L348.2,507.805z"/>
</g>
<rect x="12.221" y="875.525" fill="none" stroke="#C73A22" stroke-width="1.5" stroke-miterlimit="10" width="489.753" height="77.476"/>
<rect x="12.235" y="761.86" fill="none" stroke="#C73A22" stroke-width="1.5" stroke-miterlimit="10" width="489.753" height="77.476"/>
<rect x="12.235" y="604.854" fill="none" stroke="#C73A22" stroke-width="1.5" stroke-miterlimit="10" width="489.753" height="116.213"/>
<rect x="26.712" y="633.199" fill="none" width="460.798" height="29.762"/>
<g enable-background="new    ">
	<path fill="#C73A22" d="M80.83,653.664h-1.107l-4.232-14.871c-0.352-1.222-0.615-2.224-0.791-3.006
		c-0.141,0.765-0.341,1.644-0.6,2.637s-1.676,6.073-4.251,15.24h-1.134l-5.3-19.274h1.411l3.375,12.419
		c0.132,0.501,0.255,0.965,0.369,1.391c0.114,0.427,0.218,0.826,0.31,1.2c0.093,0.373,0.176,0.733,0.251,1.081
		c0.074,0.347,0.143,0.696,0.204,1.048c0.211-1.195,0.659-3.01,1.345-5.444l3.296-11.694h1.49l3.863,13.421
		c0.448,1.547,0.769,2.795,0.962,3.744c0.114-0.633,0.261-1.305,0.442-2.018c0.18-0.711,1.536-5.761,4.067-15.147h1.358
		L80.83,653.664z"/>
	<path fill="#C73A22" d="M105.76,644c0,3.059-0.765,5.479-2.294,7.258c-1.529,1.78-3.639,2.67-6.328,2.67
		c-2.681,0-4.786-0.89-6.315-2.67c-1.529-1.779-2.294-4.207-2.294-7.283c0-3.067,0.771-5.482,2.314-7.245
		c1.542-1.762,3.649-2.644,6.321-2.644c2.689,0,4.794,0.886,6.315,2.657C105,638.514,105.76,640.934,105.76,644z M89.993,644
		c0,2.761,0.615,4.894,1.846,6.401c1.23,1.507,2.997,2.261,5.3,2.261c2.32,0,4.094-0.747,5.319-2.241
		c1.227-1.494,1.839-3.634,1.839-6.421c0-2.776-0.613-4.906-1.839-6.387s-2.99-2.222-5.293-2.222c-2.294,0-4.063,0.747-5.307,2.241
		S89.993,641.25,89.993,644z"/>
	<path fill="#C73A22" d="M111.535,645.266v8.398h-1.345V634.39h4.588c2.391,0,4.157,0.441,5.3,1.325
		c1.143,0.883,1.714,2.213,1.714,3.988c0,1.291-0.341,2.382-1.022,3.27s-1.716,1.524-3.104,1.911l5.234,8.78h-1.608l-4.97-8.398
		L111.535,645.266L111.535,645.266z M111.535,644.105h3.678c1.626,0,2.887-0.362,3.784-1.087c0.896-0.726,1.345-1.795,1.345-3.21
		c0-1.468-0.439-2.536-1.318-3.204s-2.312-1.002-4.298-1.002h-3.19L111.535,644.105L111.535,644.105z"/>
	<path fill="#C73A22" d="M139.194,653.664h-1.648l-7.396-10.178l-2.571,2.268v7.91h-1.345V634.39h1.345v10.02l2.136-2.136
		l7.554-7.884h1.714l-7.897,8.147L139.194,653.664z"/>
	<path fill="#C73A22" d="M143.268,653.664h-1.345V634.39h10.56v1.239h-9.215v8.174h8.701v1.252h-8.701V653.664z"/>
	<path fill="#C73A22" d="M171.678,644c0,3.059-0.765,5.479-2.294,7.258c-1.529,1.78-3.639,2.67-6.328,2.67
		c-2.681,0-4.786-0.89-6.315-2.67c-1.529-1.779-2.294-4.207-2.294-7.283c0-3.067,0.771-5.482,2.314-7.245
		c1.542-1.762,3.649-2.644,6.321-2.644c2.689,0,4.794,0.886,6.315,2.657C170.918,638.514,171.678,640.934,171.678,644z M155.911,644
		c0,2.761,0.615,4.894,1.846,6.401c1.23,1.507,2.997,2.261,5.3,2.261c2.32,0,4.094-0.747,5.319-2.241
		c1.227-1.494,1.839-3.634,1.839-6.421c0-2.776-0.613-4.906-1.839-6.387s-2.99-2.222-5.293-2.222c-2.294,0-4.063,0.747-5.307,2.241
		S155.911,641.25,155.911,644z"/>
	<path fill="#C73A22" d="M177.453,645.266v8.398h-1.345V634.39h4.588c2.391,0,4.157,0.441,5.3,1.325
		c1.143,0.883,1.714,2.213,1.714,3.988c0,1.291-0.341,2.382-1.022,3.27s-1.716,1.524-3.104,1.911l5.234,8.78h-1.608l-4.97-8.398
		L177.453,645.266L177.453,645.266z M177.453,644.105h3.678c1.626,0,2.887-0.362,3.784-1.087c0.896-0.726,1.345-1.795,1.345-3.21
		c0-1.468-0.439-2.536-1.318-3.204s-2.312-1.002-4.298-1.002h-3.19L177.453,644.105L177.453,644.105z"/>
	<path fill="#C73A22" d="M200.379,635.326c-2.417,0-4.32,0.773-5.708,2.32s-2.083,3.664-2.083,6.354
		c0,2.752,0.655,4.888,1.964,6.408s3.182,2.28,5.616,2.28c1.617,0,3.103-0.206,4.456-0.62v1.188
		c-1.274,0.447-2.865,0.672-4.772,0.672c-2.707,0-4.838-0.874-6.394-2.623s-2.333-4.193-2.333-7.33c0-1.96,0.371-3.688,1.114-5.182
		s1.811-2.647,3.204-3.461c1.393-0.813,3.012-1.219,4.858-1.219c1.881,0,3.564,0.352,5.049,1.055l-0.541,1.213
		C203.402,635.678,201.926,635.326,200.379,635.326z"/>
	<path fill="#C73A22" d="M219.456,653.664h-10.534V634.39h10.534v1.239h-9.189v7.291h8.675v1.238h-8.675v8.267h9.189V653.664z"/>
	<path fill="#C73A22" d="M241.472,648.693c0,1.609-0.591,2.884-1.773,3.824s-2.753,1.41-4.713,1.41c-2.355,0-4.162-0.26-5.418-0.777
		v-1.346c1.389,0.59,3.16,0.884,5.313,0.884c1.582,0,2.836-0.362,3.764-1.088c0.927-0.725,1.391-1.676,1.391-2.854
		c0-0.729-0.154-1.333-0.461-1.813c-0.308-0.479-0.809-0.916-1.503-1.312s-1.714-0.821-3.059-1.278
		c-1.969-0.677-3.329-1.409-4.08-2.195c-0.752-0.787-1.127-1.835-1.127-3.145c0-1.441,0.564-2.617,1.694-3.526
		c1.129-0.91,2.582-1.364,4.357-1.364c1.811,0,3.511,0.342,5.102,1.027l-0.488,1.16c-1.6-0.667-3.129-1.002-4.588-1.002
		c-1.424,0-2.558,0.33-3.401,0.989s-1.266,1.556-1.266,2.689c0,0.712,0.129,1.297,0.389,1.753c0.259,0.458,0.684,0.868,1.272,1.233
		c0.589,0.364,1.6,0.802,3.032,1.312c1.503,0.519,2.632,1.021,3.388,1.51c0.756,0.487,1.307,1.041,1.655,1.661
		C241.298,647.065,241.472,647.815,241.472,648.693z"/>
	<path fill="#C73A22" d="M245.546,653.664V634.39h1.345v19.274H245.546z"/>
	<path fill="#C73A22" d="M264.096,653.664h-13.395v-1.002l11.286-17.007h-10.771v-1.266h12.577v1.002l-11.312,17.007h11.615V653.664
		z"/>
	<path fill="#C73A22" d="M278.439,653.664h-10.534V634.39h10.534v1.239h-9.189v7.291h8.675v1.238h-8.675v8.267h9.189V653.664z"/>
	<path fill="#C73A22" d="M282.21,640.863c0-0.861,0.352-1.293,1.055-1.293c0.721,0,1.081,0.432,1.081,1.293
		c0,0.466-0.104,0.8-0.31,1.002c-0.207,0.202-0.464,0.303-0.771,0.303c-0.299,0-0.55-0.101-0.752-0.303
		S282.21,641.329,282.21,640.863z M282.21,652.636c0-0.861,0.352-1.292,1.055-1.292c0.721,0,1.081,0.431,1.081,1.292
		s-0.36,1.292-1.081,1.292C282.562,653.928,282.21,653.497,282.21,652.636z"/>
</g>
<g enable-background="new    ">
	<path fill="#C73A22" d="M305.308,653.664h-5.287V643.46c0-1.239,0.026-2.373,0.079-3.401c-0.325,0.396-0.729,0.809-1.213,1.239
		l-2.188,1.806l-2.702-3.322l6.618-5.392h4.693L305.308,653.664L305.308,653.664z"/>
	<path fill="#C73A22" d="M321.128,653.664h-5.287V643.46c0-1.239,0.026-2.373,0.079-3.401c-0.325,0.396-0.729,0.809-1.213,1.239
		l-2.188,1.806l-2.702-3.322l6.618-5.392h4.693L321.128,653.664L321.128,653.664z"/>
	<path fill="#C73A22" d="M342.023,653.664l-3.941-13.883h-0.119c0.185,2.365,0.277,4.202,0.277,5.512v8.371h-4.614V634.39h6.935
		l4.021,13.685h0.105l3.942-13.685h6.947v19.274h-4.785v-8.451c0-0.438,0.007-0.927,0.02-1.463c0.014-0.536,0.072-1.85,0.178-3.941
		h-0.118l-3.89,13.855H342.023z"/>
	<path fill="#C73A22" d="M359.729,653.664V634.39h5.233v19.274H359.729z"/>
	<path fill="#C73A22" d="M369.129,653.664V634.39h5.208v15.069h7.422v4.205H369.129z"/>
	<path fill="#C73A22" d="M384.844,653.664V634.39h5.208v15.069h7.422v4.205H384.844z"/>
	<path fill="#C73A22" d="M400.559,653.664V634.39h5.234v19.274H400.559z"/>
	<path fill="#C73A22" d="M427.994,644c0,3.244-0.796,5.709-2.387,7.396s-3.92,2.531-6.987,2.531c-3.023,0-5.342-0.848-6.954-2.545
		c-1.613-1.695-2.419-4.166-2.419-7.408c0-3.208,0.802-5.658,2.406-7.351c1.604-1.691,3.935-2.538,6.993-2.538
		c3.067,0,5.393,0.84,6.975,2.519S427.994,640.749,427.994,644z M414.731,644c0,3.728,1.296,5.59,3.889,5.59
		c1.318,0,2.296-0.452,2.934-1.357c0.637-0.905,0.956-2.315,0.956-4.232c0-1.924-0.323-3.346-0.969-4.265
		c-0.646-0.918-1.611-1.378-2.895-1.378C416.036,638.357,414.731,640.239,414.731,644z"/>
	<path fill="#C73A22" d="M449.826,653.664h-6.829l-7.04-13.579h-0.119c0.167,2.136,0.251,3.767,0.251,4.892v8.688h-4.614V634.39
		h6.803l7.014,13.395h0.079c-0.123-1.942-0.185-3.502-0.185-4.681v-8.714h4.641v19.274H449.826z"/>
</g>
<rect x="112.79" y="675.007" fill="none" width="288.643" height="17.715"/>
<g enable-background="new    ">
	<path fill="#808184" d="M149.43,690.087h-3.799l1.699-7.803c0.182-0.859,0.43-1.692,0.742-2.5
		c-0.508,0.442-0.934,0.778-1.279,1.006l-1.982,1.221l-1.475-2.461l6.055-3.74h3.037L149.43,690.087z"/>
</g>
<text transform="matrix(1 0 0 1 153.3802 690.0867)" fill="#808184" font-family="'OpenSans-Extrabold'" font-size="20"> </text>
<g enable-background="new    ">
	<path fill="#808184" d="M167.92,676.522c-1.283,0-2.427,0.34-3.433,1.021s-1.803,1.672-2.393,2.974s-0.884,2.737-0.884,4.307
		c0,1.465,0.36,2.591,1.079,3.379s1.753,1.182,3.101,1.182c0.912,0,1.901-0.166,2.969-0.498v0.918
		c-1.016,0.319-2.044,0.479-3.086,0.479c-1.641,0-2.897-0.472-3.77-1.416s-1.309-2.278-1.309-4.004c0-1.731,0.34-3.32,1.021-4.766
		s1.606-2.556,2.778-3.33s2.48-1.162,3.926-1.162c1.152,0,2.152,0.222,2.998,0.664l-0.439,0.879
		c-0.358-0.195-0.763-0.349-1.216-0.459S168.363,676.522,167.92,676.522z"/>
	<path fill="#808184" d="M178.047,690.087h-7.1l3.027-14.277h7.1l-0.205,0.918h-6.094l-1.143,5.4h5.762l-0.205,0.918h-5.742
		l-1.318,6.123h6.123L178.047,690.087z"/>
	<path fill="#808184" d="M194.072,681.19c0,1.66-0.306,3.228-0.918,4.702s-1.432,2.575-2.461,3.301s-2.217,1.089-3.564,1.089
		c-1.627,0-2.881-0.485-3.76-1.455s-1.318-2.37-1.318-4.199c0-1.706,0.303-3.26,0.908-4.663s1.436-2.48,2.49-3.232
		s2.269-1.128,3.643-1.128c1.608,0,2.84,0.483,3.696,1.45S194.072,679.4,194.072,681.19z M188.955,676.522
		c-1.133,0-2.137,0.329-3.013,0.986s-1.574,1.628-2.095,2.91s-0.781,2.64-0.781,4.072c0,1.595,0.356,2.81,1.069,3.643
		s1.753,1.25,3.12,1.25c1.1,0,2.077-0.32,2.93-0.962s1.537-1.618,2.051-2.93s0.771-2.713,0.771-4.204
		c0-1.563-0.34-2.747-1.021-3.555S190.296,676.522,188.955,676.522z"/>
	<path fill="#808184" d="M211.045,679.325c0,3.255-1.986,4.883-5.957,4.883h-1.963l-1.26,5.879h-1.006l3.027-14.277h3.076
		c1.315,0,2.324,0.301,3.027,0.903S211.045,678.186,211.045,679.325z M203.281,683.31h1.865c1.641,0,2.856-0.314,3.647-0.942
		s1.187-1.623,1.187-2.983c0-1.784-1.071-2.676-3.213-2.676h-2.061L203.281,683.31z"/>
	<path fill="#808184" d="M219.141,690.087h-7.1l3.027-14.277h7.1l-0.205,0.918h-6.094l-1.143,5.4h5.762l-0.205,0.918h-5.742
		l-1.318,6.123h6.123L219.141,690.087z"/>
	<path fill="#808184" d="M224.746,683.905l-1.279,6.182h-1.006l3.027-14.277h2.959c2.799,0,4.199,1.172,4.199,3.516
		c0,1.185-0.337,2.171-1.011,2.959s-1.59,1.282-2.749,1.484c1.309,3.848,2.028,5.954,2.158,6.318h-1.084l-2.061-6.182H224.746z
		 M224.961,683.007h2.461c1.354,0,2.386-0.311,3.096-0.933s1.064-1.538,1.064-2.749c0-1.745-1.071-2.617-3.213-2.617h-2.061
		L224.961,683.007z"/>
</g>
<text transform="matrix(1 0 0 1 232.0582 690.0867)" fill="#808184" font-family="'OpenSans'" font-size="20"> </text>
<g enable-background="new    ">
	<path fill="#808184" d="M244.771,690.087h-3.799l1.699-7.803c0.182-0.859,0.43-1.692,0.742-2.5
		c-0.508,0.442-0.934,0.778-1.279,1.006l-1.982,1.221l-1.475-2.461l6.055-3.74h3.037L244.771,690.087z"/>
	<path fill="#808184" d="M258.071,690.087h-9.814l0.518-2.5l4.717-4.258c1.615-1.438,2.421-2.614,2.421-3.525
		c0-0.319-0.084-0.559-0.254-0.718c-0.169-0.159-0.384-0.239-0.644-0.239c-0.781,0-1.696,0.479-2.744,1.436l-1.816-2.52
		c1.523-1.438,3.285-2.158,5.283-2.158c1.191,0,2.152,0.324,2.881,0.972c0.729,0.647,1.094,1.525,1.094,2.632
		c0,0.989-0.283,1.917-0.85,2.783s-1.536,1.892-2.91,3.076l-2.001,1.719v0.117h4.785L258.071,690.087z"/>
	<path fill="#808184" d="M270.815,687.323h-1.465l-0.576,2.764h-3.682l0.586-2.764h-5.361l0.498-2.5l7.441-9.014h3.516l-1.816,8.633
		h1.455L270.815,687.323z M266.274,684.442l0.479-1.895c0.189-0.696,0.385-1.384,0.586-2.061h-0.088
		c-0.332,0.632-0.703,1.191-1.113,1.68l-1.904,2.275L266.274,684.442L266.274,684.442z"/>
	<path fill="#808184" d="M278.413,680.731c1.179,0,2.134,0.383,2.866,1.147s1.099,1.795,1.099,3.091c0,1.699-0.523,3.01-1.572,3.931
		c-1.048,0.921-2.564,1.382-4.551,1.382c-0.84,0-1.636-0.071-2.388-0.215s-1.304-0.342-1.655-0.596v-3.164
		c0.515,0.293,1.104,0.522,1.768,0.688s1.264,0.249,1.797,0.249c1.804,0,2.705-0.625,2.705-1.875c0-0.495-0.164-0.896-0.493-1.201
		c-0.328-0.306-0.772-0.459-1.333-0.459c-0.345,0-0.706,0.032-1.084,0.098c-0.377,0.065-0.677,0.137-0.898,0.215l-1.191-0.898
		l2.1-7.314h7.939l-0.664,3.154h-4.6l-0.576,1.807C277.909,680.744,278.153,680.731,278.413,680.731z"/>
</g>
<text transform="matrix(1 0 0 1 283.2512 690.0867)" fill="#808184" font-family="'OpenSans-Extrabold'" font-size="20"> </text>
<g enable-background="new    ">
	<path fill="#808184" d="M298.347,676.991c-0.176,0.495-0.378,0.994-0.605,1.499c-0.229,0.505-2.061,4.37-5.498,11.597h-0.801
		l-0.713-14.277h0.977l0.459,10.068l0.039,1.611l-0.02,0.84h0.059c0.553-1.472,1.106-2.767,1.66-3.887l4.238-8.633h1.025
		l0.596,8.574c0.123,1.731,0.186,3.066,0.186,4.004h0.059c0.195-0.56,0.396-1.091,0.601-1.592s1.812-4.163,4.819-10.986h1.055
		c-1.101,2.376-2.177,4.756-3.228,7.139c-1.052,2.383-2.121,4.763-3.208,7.139h-0.762l-0.762-10.498
		c-0.072-0.925-0.107-1.638-0.107-2.139l0.01-0.459L298.347,676.991L298.347,676.991z"/>
	<path fill="#808184" d="M318.728,681.19c0,1.66-0.307,3.228-0.918,4.702c-0.612,1.475-1.433,2.575-2.461,3.301
		c-1.029,0.726-2.217,1.089-3.564,1.089c-1.628,0-2.881-0.485-3.76-1.455s-1.318-2.37-1.318-4.199c0-1.706,0.303-3.26,0.908-4.663
		s1.436-2.48,2.49-3.232s2.269-1.128,3.643-1.128c1.607,0,2.84,0.483,3.696,1.45C318.299,678.021,318.728,679.4,318.728,681.19z
		 M313.61,676.522c-1.133,0-2.138,0.329-3.013,0.986c-0.876,0.657-1.574,1.628-2.095,2.91s-0.781,2.64-0.781,4.072
		c0,1.595,0.356,2.81,1.069,3.643s1.753,1.25,3.12,1.25c1.1,0,2.076-0.32,2.93-0.962c0.853-0.642,1.536-1.618,2.051-2.93
		c0.514-1.312,0.771-2.713,0.771-4.204c0-1.563-0.341-2.747-1.021-3.555C315.962,676.926,314.951,676.522,313.61,676.522z"/>
	<path fill="#808184" d="M322.604,683.905l-1.279,6.182h-1.006l3.027-14.277h2.959c2.799,0,4.199,1.172,4.199,3.516
		c0,1.185-0.337,2.171-1.011,2.959s-1.591,1.282-2.749,1.484c1.309,3.848,2.027,5.954,2.158,6.318h-1.084l-2.061-6.182H322.604z
		 M322.819,683.007h2.461c1.354,0,2.386-0.311,3.096-0.933c0.709-0.622,1.064-1.538,1.064-2.749c0-1.745-1.071-2.617-3.213-2.617
		h-2.061L322.819,683.007z"/>
	<path fill="#808184" d="M340.065,690.087h-1.084l-3.34-7.695l-1.855,1.494l-1.279,6.201h-1.006l3.027-14.277h0.996l-1.543,7.061
		l1.299-1.182l6.641-5.879h1.348l-6.826,5.957L340.065,690.087z"/>
	<path fill="#808184" d="M349.558,690.087h-7.1l3.027-14.277h7.1l-0.205,0.918h-6.094l-1.143,5.4h5.762l-0.205,0.918h-5.742
		l-1.318,6.123h6.123L349.558,690.087z"/>
	<path fill="#808184" d="M355.163,683.905l-1.279,6.182h-1.006l3.027-14.277h2.959c2.799,0,4.199,1.172,4.199,3.516
		c0,1.185-0.337,2.171-1.011,2.959s-1.591,1.282-2.749,1.484c1.309,3.848,2.027,5.954,2.158,6.318h-1.084l-2.061-6.182H355.163z
		 M355.378,683.007h2.461c1.354,0,2.386-0.311,3.096-0.933c0.709-0.622,1.064-1.538,1.064-2.749c0-1.745-1.071-2.617-3.213-2.617
		h-2.061L355.378,683.007z"/>
	<path fill="#808184" d="M371.804,686.151c0,0.82-0.214,1.551-0.64,2.192c-0.427,0.642-1.011,1.125-1.753,1.45
		s-1.618,0.488-2.627,0.488c-0.573,0-1.135-0.056-1.685-0.166c-0.551-0.11-1.108-0.3-1.675-0.566v-1.064
		c1.061,0.599,2.193,0.898,3.398,0.898c1.224,0,2.186-0.281,2.886-0.845c0.699-0.563,1.05-1.32,1.05-2.271
		c0-0.397-0.056-0.737-0.166-1.021c-0.111-0.283-0.282-0.539-0.513-0.767s-0.527-0.449-0.889-0.664s-0.79-0.459-1.284-0.732
		c-0.977-0.495-1.659-1.028-2.046-1.602c-0.388-0.573-0.581-1.243-0.581-2.012s0.191-1.443,0.576-2.026
		c0.384-0.583,0.921-1.035,1.611-1.357c0.689-0.322,1.461-0.483,2.314-0.483c0.645,0,1.23,0.057,1.758,0.171
		s1.074,0.311,1.641,0.591l-0.313,0.918c-0.43-0.261-0.923-0.466-1.479-0.615s-1.093-0.225-1.606-0.225
		c-1.062,0-1.906,0.269-2.534,0.806c-0.629,0.537-0.942,1.248-0.942,2.134c0,0.671,0.159,1.224,0.479,1.66
		c0.318,0.437,0.911,0.869,1.777,1.299c1.002,0.515,1.697,0.938,2.085,1.27c0.387,0.332,0.677,0.7,0.869,1.104
		C371.707,685.119,371.804,685.598,371.804,686.151z"/>
</g>
<rect x="50.028" y="788.882" fill="none" width="408.498" height="29.762"/>
<g enable-background="new    ">
	<path fill="#C73A22" d="M73.684,809.347l-7.185-17.798h-0.105c0.07,1.09,0.105,2.206,0.105,3.349v14.449h-1.292v-19.274h2.083
		l6.829,16.954h0.079l6.829-16.954h2.03v19.274H81.7V794.74c0-1.02,0.053-2.074,0.158-3.164h-0.105l-7.211,17.771H73.684z"/>
	<path fill="#C73A22" d="M99.036,809.347H88.502v-19.274h10.534v1.239h-9.189v7.291h8.675v1.238h-8.675v8.267h9.189
		C99.036,808.108,99.036,809.347,99.036,809.347z"/>
	<path fill="#C73A22" d="M118.034,799.524c0,3.235-0.848,5.681-2.544,7.337c-1.696,1.657-4.188,2.485-7.475,2.485H103.4v-19.274
		h5.208c3.076,0,5.416,0.804,7.021,2.413C117.231,794.093,118.034,796.44,118.034,799.524z M116.57,799.577
		c0-2.759-0.701-4.836-2.103-6.229c-1.402-1.394-3.461-2.09-6.177-2.09h-3.546v16.901h3.19
		C113.692,808.16,116.57,805.3,116.57,799.577z"/>
	<path fill="#C73A22" d="M122.463,809.347v-19.274h1.345v19.274H122.463z"/>
	<path fill="#C73A22" d="M138.547,802.544h-7.831l-2.689,6.803h-1.49l7.752-19.354h0.857l7.594,19.354h-1.516L138.547,802.544z
		 M131.204,801.331h6.895l-2.624-6.947c-0.22-0.545-0.483-1.301-0.791-2.268c-0.237,0.844-0.497,1.607-0.778,2.293L131.204,801.331z
		"/>
	<path fill="#C73A22" d="M159.483,809.347h-1.358l-11.417-17.112h-0.105c0.105,2.039,0.158,3.577,0.158,4.614v12.498h-1.292v-19.274
		h1.345l11.404,17.086h0.079c-0.079-1.582-0.119-3.085-0.119-4.509v-12.577h1.305V809.347z"/>
	<path fill="#C73A22" d="M185.916,809.347h-1.358v-9.479h-11.259v9.479h-1.345v-19.274h1.345v8.556h11.259v-8.556h1.358V809.347z"/>
	<path fill="#C73A22" d="M207.577,799.683c0,3.059-0.765,5.479-2.294,7.258c-1.529,1.78-3.639,2.67-6.328,2.67
		c-2.681,0-4.786-0.89-6.315-2.67c-1.529-1.779-2.294-4.207-2.294-7.283c0-3.067,0.771-5.482,2.314-7.245
		c1.542-1.762,3.649-2.644,6.321-2.644c2.689,0,4.794,0.886,6.315,2.657C206.816,794.196,207.577,796.616,207.577,799.683z
		 M191.809,799.683c0,2.761,0.615,4.894,1.846,6.401c1.23,1.507,2.997,2.261,5.3,2.261c2.32,0,4.094-0.747,5.319-2.241
		c1.227-1.494,1.839-3.634,1.839-6.421c0-2.776-0.613-4.906-1.839-6.387s-2.99-2.222-5.293-2.222c-2.294,0-4.063,0.747-5.307,2.241
		S191.809,796.933,191.809,799.683z"/>
	<path fill="#C73A22" d="M226.179,790.072v12.472c0,2.215-0.642,3.946-1.925,5.194s-3.072,1.872-5.366,1.872
		c-2.232,0-3.975-0.626-5.227-1.879c-1.253-1.252-1.879-2.999-1.879-5.24v-12.419h1.358v12.472c0,1.854,0.514,3.298,1.542,4.331
		c1.028,1.032,2.483,1.549,4.364,1.549c1.837,0,3.261-0.508,4.271-1.522c1.011-1.016,1.516-2.424,1.516-4.226v-12.604
		L226.179,790.072L226.179,790.072z"/>
	<path fill="#C73A22" d="M232.771,800.948v8.398h-1.345v-19.274h4.588c2.391,0,4.157,0.441,5.3,1.325
		c1.143,0.883,1.714,2.213,1.714,3.988c0,1.291-0.341,2.382-1.022,3.27s-1.716,1.524-3.104,1.911l5.234,8.78h-1.608l-4.97-8.398
		L232.771,800.948L232.771,800.948z M232.771,799.788h3.678c1.626,0,2.887-0.362,3.784-1.087c0.896-0.726,1.345-1.795,1.345-3.21
		c0-1.468-0.439-2.536-1.318-3.204s-2.312-1.002-4.298-1.002h-3.19L232.771,799.788L232.771,799.788z"/>
	<path fill="#C73A22" d="M247.47,809.347v-19.274h1.345v18.009h9.189v1.266L247.47,809.347L247.47,809.347z"/>
	<path fill="#C73A22" d="M265.756,800.619l5.643-10.547h1.45l-6.421,11.825v7.449h-1.384v-7.344l-6.447-11.931h1.543
		L265.756,800.619z"/>
	<path fill="#C73A22" d="M297.95,809.347h-1.107l-4.232-14.871c-0.352-1.222-0.615-2.224-0.791-3.006
		c-0.141,0.765-0.341,1.644-0.6,2.637c-0.26,0.993-1.677,6.073-4.252,15.24h-1.134l-5.3-19.274h1.411l3.375,12.419
		c0.132,0.501,0.255,0.965,0.369,1.391c0.114,0.427,0.218,0.826,0.31,1.2c0.093,0.373,0.176,0.733,0.251,1.081
		c0.074,0.347,0.143,0.696,0.204,1.048c0.211-1.195,0.659-3.01,1.345-5.444l3.296-11.694h1.489l3.863,13.421
		c0.448,1.547,0.769,2.795,0.962,3.744c0.114-0.633,0.262-1.305,0.442-2.018c0.18-0.711,1.535-5.761,4.066-15.147h1.358
		L297.95,809.347z"/>
	<path fill="#C73A22" d="M315.959,802.544h-7.831l-2.689,6.803h-1.49l7.752-19.354h0.857l7.594,19.354h-1.517L315.959,802.544z
		 M308.615,801.331h6.896l-2.624-6.947c-0.22-0.545-0.483-1.301-0.791-2.268c-0.237,0.844-0.496,1.607-0.777,2.293L308.615,801.331z
		"/>
	<path fill="#C73A22" d="M330.461,799.63h7.105v8.794c-1.863,0.791-3.959,1.187-6.288,1.187c-3.041,0-5.372-0.859-6.994-2.577
		c-1.621-1.719-2.433-4.15-2.433-7.298c0-1.959,0.402-3.697,1.207-5.214c0.804-1.516,1.955-2.687,3.454-3.513
		c1.498-0.826,3.219-1.24,5.161-1.24c2.101,0,3.985,0.388,5.655,1.16l-0.54,1.213c-1.67-0.772-3.401-1.16-5.194-1.16
		c-2.54,0-4.555,0.785-6.045,2.354c-1.489,1.569-2.234,3.686-2.234,6.348c0,2.9,0.707,5.083,2.122,6.546
		c1.415,1.464,3.494,2.195,6.236,2.195c1.775,0,3.282-0.251,4.521-0.751v-6.777h-5.734v-1.267L330.461,799.63L330.461,799.63z"/>
	<path fill="#C73A22" d="M352.938,809.347h-10.533v-19.274h10.533v1.239h-9.188v7.291h8.675v1.238h-8.675v8.267h9.188V809.347z"/>
	<path fill="#C73A22" d="M356.709,796.546c0-0.861,0.352-1.293,1.055-1.293c0.721,0,1.081,0.432,1.081,1.293
		c0,0.466-0.104,0.8-0.31,1.002c-0.207,0.202-0.464,0.303-0.771,0.303c-0.299,0-0.549-0.101-0.751-0.303
		S356.709,797.012,356.709,796.546z M356.709,808.318c0-0.861,0.352-1.292,1.055-1.292c0.721,0,1.081,0.431,1.081,1.292
		s-0.36,1.292-1.081,1.292C357.061,809.61,356.709,809.18,356.709,808.318z"/>
</g>
<text transform="matrix(1 0 0 1 360.192 809.3467)" fill="#C73A22" font-family="'OpenSans'" font-size="27"> </text>
<rect x="96.95" y="899.381" fill="none" width="317.461" height="29.762"/>
<g enable-background="new    ">
	<path fill="#C73A22" d="M135.629,904.571v12.472c0,2.215-0.642,3.946-1.925,5.194s-3.072,1.872-5.366,1.872
		c-2.232,0-3.975-0.626-5.227-1.879c-1.253-1.252-1.879-2.999-1.879-5.24v-12.419h1.358v12.472c0,1.854,0.514,3.298,1.542,4.331
		c1.028,1.032,2.483,1.549,4.364,1.549c1.837,0,3.261-0.508,4.271-1.522c1.011-1.016,1.516-2.424,1.516-4.226v-12.604
		L135.629,904.571L135.629,904.571z"/>
	<path fill="#C73A22" d="M154.891,923.846h-1.358l-11.417-17.112h-0.105c0.105,2.039,0.158,3.577,0.158,4.614v12.498h-1.292v-19.274
		h1.345l11.404,17.086h0.079c-0.079-1.582-0.119-3.085-0.119-4.509v-12.577h1.305L154.891,923.846L154.891,923.846z"/>
	<path fill="#C73A22" d="M160.349,923.846v-19.274h1.345v19.274H160.349z"/>
	<path fill="#C73A22" d="M183.354,914.182c0,3.059-0.765,5.479-2.294,7.258c-1.529,1.78-3.639,2.67-6.328,2.67
		c-2.681,0-4.786-0.89-6.315-2.67c-1.529-1.779-2.294-4.207-2.294-7.283c0-3.067,0.771-5.482,2.314-7.245
		c1.542-1.762,3.649-2.644,6.321-2.644c2.689,0,4.794,0.886,6.315,2.657C182.594,908.695,183.354,911.115,183.354,914.182z
		 M167.586,914.182c0,2.761,0.615,4.894,1.846,6.401c1.23,1.507,2.997,2.261,5.3,2.261c2.32,0,4.094-0.747,5.319-2.241
		c1.227-1.494,1.839-3.634,1.839-6.421c0-2.776-0.613-4.906-1.839-6.387s-2.99-2.222-5.293-2.222c-2.294,0-4.063,0.747-5.307,2.241
		S167.586,911.432,167.586,914.182z"/>
	<path fill="#C73A22" d="M201.798,923.846h-1.358l-11.417-17.112h-0.105c0.105,2.039,0.158,3.577,0.158,4.614v12.498h-1.292v-19.274
		h1.345l11.404,17.086h0.079c-0.079-1.582-0.119-3.085-0.119-4.509v-12.577h1.305V923.846z"/>
	<path fill="#C73A22" d="M228.903,914.023c0,3.235-0.848,5.681-2.544,7.337c-1.696,1.657-4.188,2.485-7.475,2.485h-4.614v-19.274
		h5.208c3.076,0,5.416,0.804,7.021,2.413C228.101,908.592,228.903,910.939,228.903,914.023z M227.44,914.076
		c0-2.759-0.701-4.836-2.103-6.229c-1.402-1.394-3.461-2.09-6.177-2.09h-3.546v16.901h3.19
		C224.562,922.659,227.44,919.799,227.44,914.076z"/>
	<path fill="#C73A22" d="M243.867,923.846h-10.534v-19.274h10.534v1.239h-9.189v7.291h8.675v1.238h-8.675v8.267h9.189V923.846z"/>
	<path fill="#C73A22" d="M262.245,923.846h-1.358l-11.417-17.112h-0.105c0.105,2.039,0.158,3.577,0.158,4.614v12.498h-1.292v-19.274
		h1.345l11.404,17.086h0.079c-0.079-1.582-0.119-3.085-0.119-4.509v-12.577h1.306v19.274H262.245z"/>
	<path fill="#C73A22" d="M278.342,918.875c0,1.609-0.591,2.884-1.773,3.824s-2.753,1.41-4.713,1.41c-2.355,0-4.161-0.26-5.418-0.777
		v-1.346c1.389,0.59,3.159,0.884,5.313,0.884c1.582,0,2.837-0.362,3.764-1.088c0.928-0.725,1.392-1.676,1.392-2.854
		c0-0.729-0.154-1.333-0.462-1.813c-0.308-0.479-0.809-0.916-1.503-1.312s-1.714-0.821-3.059-1.278
		c-1.969-0.677-3.329-1.409-4.08-2.195c-0.752-0.787-1.127-1.835-1.127-3.145c0-1.441,0.564-2.617,1.693-3.526
		c1.13-0.91,2.582-1.364,4.357-1.364c1.811,0,3.512,0.342,5.103,1.027l-0.488,1.16c-1.6-0.667-3.129-1.002-4.588-1.002
		c-1.424,0-2.558,0.33-3.401,0.989s-1.266,1.556-1.266,2.689c0,0.712,0.13,1.297,0.389,1.753c0.26,0.458,0.684,0.868,1.272,1.233
		c0.589,0.364,1.6,0.802,3.032,1.312c1.503,0.519,2.633,1.021,3.389,1.51c0.756,0.487,1.307,1.041,1.654,1.661
		C278.168,917.247,278.342,917.997,278.342,918.875z"/>
	<path fill="#C73A22" d="M282.416,923.846v-19.274h1.345v19.274H282.416z"/>
	<path fill="#C73A22" d="M294.241,923.846h-1.357v-18.009h-6.263v-1.266h13.883v1.266h-6.263V923.846z"/>
	<path fill="#C73A22" d="M307.794,915.118l5.643-10.547h1.45l-6.42,11.825v7.449h-1.385v-7.344l-6.446-11.931h1.542L307.794,915.118
		z"/>
	<path fill="#C73A22" d="M317.022,911.045c0-0.861,0.352-1.293,1.055-1.293c0.721,0,1.081,0.432,1.081,1.293
		c0,0.466-0.104,0.8-0.31,1.002c-0.207,0.202-0.464,0.303-0.771,0.303c-0.299,0-0.549-0.101-0.751-0.303
		S317.022,911.511,317.022,911.045z M317.022,922.817c0-0.861,0.352-1.292,1.055-1.292c0.721,0,1.081,0.431,1.081,1.292
		s-0.36,1.292-1.081,1.292C317.374,924.109,317.022,923.679,317.022,922.817z"/>
</g>
<text transform="matrix(1 0 0 1 320.7632 919.8461)" fill="#C73A22" font-family="'OpenSans'" font-size="27"> </text>
<g enable-background="new    ">
	<path fill="#C73A22" d="M340.177,923.846h-5.286v-10.204c0-1.239,0.026-2.373,0.079-3.401c-0.325,0.396-0.729,0.809-1.213,1.239
		l-2.188,1.806l-2.703-3.322l6.618-5.392h4.693V923.846z"/>
	<path fill="#C73A22" d="M344.712,921.657c0-0.809,0.239-1.433,0.719-1.872c0.479-0.439,1.176-0.659,2.09-0.659
		c0.87,0,1.538,0.22,2.004,0.659s0.698,1.063,0.698,1.872c0,0.791-0.239,1.408-0.719,1.853c-0.479,0.443-1.14,0.666-1.983,0.666
		c-0.87,0-1.556-0.221-2.057-0.66C344.963,923.077,344.712,922.457,344.712,921.657z"/>
	<path fill="#C73A22" d="M352.306,915.698c0-2.689,0.385-4.867,1.153-6.532c0.77-1.666,1.903-2.895,3.401-3.686
		c1.499-0.791,3.347-1.186,5.544-1.186c0.782,0,1.696,0.074,2.742,0.224v4.073c-0.879-0.166-1.832-0.25-2.86-0.25
		c-1.74,0-3.037,0.383-3.89,1.146c-0.853,0.766-1.318,2.014-1.397,3.744h0.158c0.791-1.493,2.062-2.24,3.811-2.24
		c1.714,0,3.043,0.551,3.987,1.654c0.945,1.103,1.418,2.639,1.418,4.607c0,2.118-0.598,3.79-1.793,5.017
		c-1.195,1.226-2.865,1.839-5.01,1.839c-2.276,0-4.057-0.738-5.34-2.215S352.306,918.353,352.306,915.698z M359.451,919.982
		c0.554,0,1.004-0.208,1.352-0.626c0.347-0.417,0.521-1.083,0.521-1.997c0-1.564-0.606-2.347-1.819-2.347
		c-0.598,0-1.083,0.202-1.457,0.606c-0.373,0.404-0.56,0.896-0.56,1.477c0,0.844,0.18,1.536,0.54,2.076
		C358.388,919.713,358.862,919.982,359.451,919.982z"/>
	<path fill="#C73A22" d="M377.632,910.319c0,1.934-0.436,3.43-1.306,4.489s-2.109,1.588-3.718,1.588
		c-1.512,0-2.709-0.547-3.593-1.641c-0.883-1.095-1.324-2.573-1.324-4.437c0-1.934,0.431-3.421,1.292-4.463
		c0.861-1.041,2.069-1.562,3.625-1.562c1.538,0,2.76,0.54,3.665,1.621S377.632,908.465,377.632,910.319z M371.659,910.372
		c0,1.011,0.084,1.74,0.251,2.188s0.417,0.672,0.751,0.672s0.582-0.219,0.745-0.658c0.162-0.439,0.244-1.174,0.244-2.202
		c0-1.011-0.082-1.74-0.244-2.188c-0.163-0.448-0.411-0.672-0.745-0.672c-0.343,0-0.596,0.229-0.758,0.686
		C371.74,908.654,371.659,909.379,371.659,910.372z M387.242,904.571l-10.691,19.274h-3.916l10.692-19.274H387.242z
		 M392.292,917.992c0,1.925-0.438,3.417-1.313,4.476c-0.874,1.06-2.111,1.589-3.711,1.589c-1.512,0-2.709-0.547-3.593-1.642
		c-0.883-1.094-1.324-2.568-1.324-4.423c0-1.934,0.431-3.421,1.292-4.463c0.861-1.041,2.069-1.563,3.625-1.563
		c1.538,0,2.76,0.541,3.665,1.622S392.292,916.138,392.292,917.992z M386.319,918.045c0,1.011,0.084,1.74,0.251,2.188
		s0.417,0.673,0.751,0.673c0.378,0,0.64-0.258,0.784-0.771c0.146-0.515,0.218-1.211,0.218-2.09s-0.072-1.575-0.218-2.09
		c-0.145-0.514-0.406-0.771-0.784-0.771c-0.343,0-0.596,0.229-0.758,0.686C386.4,916.327,386.319,917.052,386.319,918.045z"/>
</g>
<g>
	<path fill="#C73A22" d="M373.934,807.8c-1.837-0.084-3.607-0.495-5.31-1.233v-4.178c0.973,0.495,2.03,0.908,3.171,1.239
		c1.141,0.331,2.143,0.497,3.007,0.497c0.713,0,1.235-0.086,1.567-0.258c0.331-0.172,0.497-0.459,0.497-0.862
		c0-0.277-0.12-0.512-0.359-0.705c-0.239-0.193-0.638-0.411-1.195-0.654c-0.558-0.243-1.311-0.537-2.259-0.881
		c-1.065-0.394-1.925-0.837-2.58-1.328s-1.13-1.04-1.428-1.648c-0.298-0.608-0.447-1.365-0.447-2.271
		c0-1.384,0.445-2.466,1.334-3.246s2.223-1.263,4.001-1.447v-1.724h2.605v1.699c1.669,0.092,3.351,0.503,5.046,1.233l-1.497,3.586
		c-1.753-0.789-3.335-1.183-4.744-1.183c-0.671,0-1.143,0.082-1.416,0.245s-0.409,0.405-0.409,0.724
		c0,0.277,0.099,0.505,0.296,0.686s0.539,0.382,1.026,0.604s1.162,0.48,2.026,0.774c1.753,0.621,3.012,1.328,3.775,2.12
		s1.145,1.814,1.145,3.064c0,1.409-0.447,2.554-1.34,3.435c-0.893,0.881-2.196,1.426-3.907,1.636v2.429h-2.605V807.8z"/>
	<path fill="#C73A22" d="M396.949,798.677c0,3.599-0.776,6.203-2.328,7.814c-1.552,1.611-4.035,2.416-7.449,2.416
		c-1.124,0-1.98-0.042-2.567-0.126v-3.938c0.721,0.134,1.443,0.201,2.164,0.201c1.778,0,3.15-0.367,4.115-1.101
		c0.965-0.734,1.489-1.894,1.573-3.479h-0.151c-0.327,0.604-0.65,1.04-0.969,1.309c-0.319,0.268-0.709,0.474-1.17,0.617
		c-0.461,0.143-1.036,0.214-1.724,0.214c-1.594,0-2.84-0.533-3.737-1.598s-1.346-2.533-1.346-4.404c0-2.038,0.581-3.637,1.743-4.794
		c1.162-1.158,2.754-1.737,4.775-1.737c2.248,0,3.989,0.747,5.222,2.24C396.332,793.803,396.949,795.926,396.949,798.677z
		 M390.015,794.047c-0.545,0-0.988,0.197-1.328,0.591c-0.34,0.394-0.51,1.028-0.51,1.9c0,0.688,0.147,1.235,0.44,1.642
		s0.742,0.61,1.346,0.61c0.545,0,1.019-0.197,1.422-0.591c0.403-0.394,0.604-0.868,0.604-1.422c0-0.747-0.187-1.388-0.56-1.925
		C391.058,794.315,390.586,794.047,390.015,794.047z"/>
	<path fill="#C73A22" d="M398.874,806.567c0-0.772,0.229-1.367,0.686-1.787s1.122-0.629,1.994-0.629c0.83,0,1.468,0.21,1.913,0.629
		s0.667,1.015,0.667,1.787c0,0.755-0.229,1.344-0.686,1.768c-0.457,0.424-1.088,0.635-1.894,0.635c-0.83,0-1.485-0.21-1.963-0.629
		S398.874,807.33,398.874,806.567z"/>
	<path fill="#C73A22" d="M418.742,794.248c0,1.141-0.348,2.12-1.044,2.938c-0.696,0.818-1.703,1.411-3.02,1.781v0.076
		c3.07,0.386,4.605,1.837,4.605,4.354c0,1.711-0.677,3.058-2.032,4.039c-1.355,0.982-3.236,1.472-5.643,1.472
		c-0.99,0-1.906-0.071-2.749-0.214c-0.843-0.143-1.755-0.403-2.737-0.78v-4.127c0.805,0.411,1.625,0.715,2.46,0.912
		c0.835,0.197,1.604,0.296,2.309,0.296c1.091,0,1.885-0.153,2.384-0.459c0.499-0.306,0.749-0.786,0.749-1.441
		c0-0.503-0.13-0.891-0.39-1.164c-0.26-0.273-0.679-0.478-1.258-0.617c-0.579-0.138-1.334-0.208-2.265-0.208h-1.132v-3.737h1.158
		c2.525,0,3.788-0.646,3.788-1.938c0-0.487-0.187-0.847-0.56-1.082c-0.373-0.235-0.875-0.352-1.504-0.352
		c-1.174,0-2.391,0.394-3.649,1.183l-2.064-3.322c0.973-0.671,1.969-1.149,2.988-1.434s2.187-0.428,3.504-0.428
		c1.904,0,3.397,0.377,4.48,1.132C418.201,791.883,418.742,792.923,418.742,794.248z"/>
	<path fill="#C73A22" d="M434.534,799.483c0,3.255-0.545,5.639-1.636,7.153c-1.091,1.514-2.76,2.271-5.008,2.271
		c-2.198,0-3.855-0.791-4.97-2.372c-1.116-1.581-1.674-3.932-1.674-7.053c0-3.272,0.545-5.671,1.636-7.198
		c1.091-1.527,2.76-2.29,5.008-2.29c2.189,0,3.844,0.795,4.964,2.384S434.534,796.337,434.534,799.483z M426.192,799.483
		c0,2.08,0.13,3.511,0.39,4.291s0.696,1.17,1.309,1.17c0.621,0,1.059-0.403,1.315-1.208s0.384-2.223,0.384-4.253
		c0-2.038-0.13-3.467-0.39-4.285c-0.26-0.818-0.696-1.227-1.309-1.227c-0.612,0-1.049,0.394-1.309,1.183
		C426.322,795.943,426.192,797.385,426.192,799.483z"/>
</g>
</svg>
