<?xml version="1.0" encoding="utf-8"?>
<!-- Generator: Adobe Illustrator 17.0.0, SVG Export Plug-In . SVG Version: 6.00 Build 0)  -->
<!DOCTYPE svg PUBLIC "-//W3C//DTD SVG 1.1//EN" "http://www.w3.org/Graphics/SVG/1.1/DTD/svg11.dtd">
<svg version="1.1" id="Layer_1" xmlns="http://www.w3.org/2000/svg" xmlns:xlink="http://www.w3.org/1999/xlink" x="0px" y="0px"
	 width="640px" height="168.586px" viewBox="0 0 640 168.586" enable-background="new 0 0 640 168.586" xml:space="preserve">
<g transform="scale(1 -1)">
	<g transform="translate(0 -96)">
		<g>
			<path marker-start="none" marker-end="none" fill="#C73D27" d="M84.636-45.067V2.889c0,0.144,0.004,0.287,0.011,0.429
				c-0.002,0.079-0.002,0.161-0.002,0.244v16.483L79.06,9.16c-1.656-3.222-5.513-4.548-8.617-2.956
				c-3.1,1.592-4.274,5.5-2.621,8.722l10.959,21.357c0.189,0.366,0.405,0.706,0.643,1.024c0.989,2.854,3.705,4.912,6.897,4.912
				h26.251c3.191,0,5.906-2.058,6.895-4.914c0.237-0.316,0.457-0.656,0.641-1.022l0.133-0.261l0.133,0.261
				c0.189,0.366,0.405,0.706,0.643,1.024c0.989,2.854,3.705,4.912,6.897,4.912h26.251c3.191,0,5.906-2.058,6.895-4.914
				c0.237-0.316,0.457-0.656,0.641-1.022l0.133-0.261l0.133,0.261c0.189,0.366,0.405,0.706,0.643,1.024
				c0.989,2.854,3.705,4.912,6.897,4.912h26.251c3.191,0,5.906-2.058,6.895-4.914c0.237-0.316,0.457-0.656,0.641-1.022
				l10.962-21.357c1.653-3.222,0.479-7.13-2.621-8.722c-3.104-1.592-6.962-0.266-8.617,2.956l-5.585,10.883V3.562
				c0-0.214-0.009-0.423-0.026-0.63c0-0.015,0-0.03,0-0.043v-47.956h-14.035v41.336h-1.518v-41.336h-14.035V2.889
				c0,0.144,0.004,0.287,0.011,0.429c-0.002,0.079-0.002,0.161-0.002,0.244v1.995c-2.292-0.218-4.625,0.867-5.997,2.906
				c-1.372-2.039-3.701-3.122-5.995-2.906l0.002-1.995c0-0.214-0.009-0.423-0.026-0.63c0-0.015,0-0.03,0-0.043v-47.956h-14.035
				v41.336h-1.518v-41.336h-14.035V2.888c0,0.144,0.004,0.287,0.011,0.429c-0.002,0.079-0.002,0.161-0.002,0.244v1.995
				c-2.292-0.218-4.625,0.867-5.997,2.906c-1.372-2.039-3.703-3.124-5.995-2.906l0.002-1.995c0-0.214-0.009-0.423-0.026-0.63
				c0-0.015,0-0.03,0-0.043v-47.956h-14.028v41.336h-1.518v-41.336L84.636-45.067L84.636-45.067z M86.624,60.681
				c0,7.21,5.853,13.063,13.064,13.063c7.208,0,13.061-5.853,13.061-13.063c0-7.21-5.853-13.061-13.061-13.061
				C92.477,47.621,86.624,53.472,86.624,60.681z M128.218,60.681c0,7.21,5.853,13.063,13.064,13.063
				c7.208,0,13.061-5.853,13.061-13.063c0-7.21-5.853-13.061-13.061-13.061C134.071,47.621,128.218,53.472,128.218,60.681z
				 M169.813,60.681c0,7.21,5.853,13.063,13.064,13.063c7.208,0,13.061-5.853,13.061-13.063c0-7.21-5.853-13.061-13.061-13.061
				C175.666,47.621,169.813,53.472,169.813,60.681z"/>
		</g>
	</g>
</g>
<g>
	<path fill="#C73D27" d="M270.912,50.432c0,2.191-0.788,3.918-2.366,5.18c-1.576,1.262-3.771,1.893-6.582,1.893
		c-2.59,0-4.881-0.487-6.873-1.461v-4.781c1.638,0.73,3.024,1.245,4.158,1.544c1.135,0.299,2.173,0.448,3.113,0.448
		c1.129,0,1.995-0.216,2.598-0.647c0.604-0.432,0.905-1.073,0.905-1.926c0-0.476-0.133-0.899-0.398-1.27
		c-0.266-0.371-0.655-0.728-1.171-1.071c-0.514-0.343-1.563-0.891-3.146-1.644c-1.483-0.697-2.596-1.367-3.337-2.009
		c-0.741-0.642-1.334-1.389-1.776-2.241c-0.442-0.852-0.664-1.848-0.664-2.988c0-2.147,0.728-3.835,2.183-5.063
		c1.456-1.229,3.468-1.843,6.035-1.843c1.262,0,2.465,0.149,3.611,0.448c1.145,0.299,2.343,0.72,3.594,1.262l-1.66,4.001
		c-1.295-0.531-2.365-0.902-3.213-1.112c-0.846-0.21-1.679-0.315-2.498-0.315c-0.974,0-1.721,0.227-2.241,0.681
		c-0.521,0.454-0.78,1.046-0.78,1.776c0,0.454,0.105,0.85,0.315,1.187c0.21,0.338,0.545,0.664,1.005,0.979
		c0.459,0.315,1.546,0.883,3.262,1.702c2.269,1.085,3.824,2.172,4.665,3.262C270.491,47.513,270.912,48.849,270.912,50.432z"/>
	<path fill="#C73D27" d="M288.061,57.172l-0.681-2.374h-0.266c-0.542,0.863-1.312,1.53-2.308,2s-2.131,0.706-3.403,0.706
		c-2.181,0-3.824-0.583-4.931-1.751c-1.106-1.167-1.66-2.847-1.66-5.039V38.611h5.063v10.841c0,1.339,0.238,2.344,0.714,3.013
		c0.476,0.67,1.234,1.004,2.274,1.004c1.417,0,2.44-0.473,3.071-1.419s0.946-2.515,0.946-4.707v-8.732h5.063v18.561
		C291.943,57.172,288.061,57.172,288.061,57.172z"/>
	<path fill="#C73D27" d="M307.452,57.504c-2.181,0-3.891-0.791-5.13-2.374h-0.266c0.177,1.55,0.266,2.446,0.266,2.689v7.521h-5.063
		V38.611h4.117l0.714,2.407h0.232c1.185-1.837,2.938-2.756,5.263-2.756c2.191,0,3.907,0.847,5.146,2.54s1.859,4.045,1.859,7.056
		c0,1.981-0.291,3.702-0.871,5.163c-0.582,1.461-1.409,2.573-2.482,3.337S308.902,57.504,307.452,57.504z M305.958,42.313
		c-1.251,0-2.164,0.385-2.739,1.154c-0.575,0.77-0.874,2.04-0.896,3.81v0.548c0,1.992,0.296,3.42,0.888,4.283
		c0.593,0.863,1.53,1.295,2.814,1.295c2.269,0,3.403-1.87,3.403-5.611c0-1.826-0.279-3.196-0.839-4.109
		C308.03,42.77,307.153,42.313,305.958,42.313z"/>
	<path fill="#C73D27" d="M328.968,57.504c-2.181,0-3.891-0.791-5.13-2.374h-0.266c0.177,1.55,0.266,2.446,0.266,2.689v7.521h-5.063
		V38.611h4.117l0.714,2.407h0.232c1.185-1.837,2.938-2.756,5.263-2.756c2.191,0,3.907,0.847,5.146,2.54s1.859,4.045,1.859,7.056
		c0,1.981-0.291,3.702-0.871,5.163c-0.582,1.461-1.409,2.573-2.482,3.337S330.418,57.504,328.968,57.504z M327.473,42.313
		c-1.251,0-2.164,0.385-2.739,1.154c-0.575,0.77-0.874,2.04-0.896,3.81v0.548c0,1.992,0.296,3.42,0.888,4.283
		c0.593,0.863,1.53,1.295,2.814,1.295c2.269,0,3.403-1.87,3.403-5.611c0-1.826-0.279-3.196-0.839-4.109
		C329.546,42.77,328.669,42.313,327.473,42.313z"/>
	<path fill="#C73D27" d="M357.157,47.858c0,3.021-0.797,5.385-2.391,7.089c-1.594,1.705-3.813,2.557-6.657,2.557
		c-1.782,0-3.354-0.39-4.715-1.17s-2.407-1.901-3.138-3.362s-1.096-3.165-1.096-5.113c0-3.032,0.791-5.39,2.374-7.072
		s3.808-2.523,6.674-2.523c1.782,0,3.354,0.388,4.715,1.162c1.361,0.775,2.407,1.887,3.138,3.337
		C356.792,44.212,357.157,45.911,357.157,47.858z M344.324,47.858c0,1.837,0.302,3.227,0.905,4.167
		c0.603,0.941,1.585,1.411,2.946,1.411c1.351,0,2.321-0.467,2.913-1.403c0.593-0.935,0.889-2.327,0.889-4.175
		c0-1.837-0.299-3.215-0.896-4.134c-0.598-0.918-1.577-1.378-2.938-1.378c-1.351,0-2.324,0.457-2.922,1.37
		C344.623,44.629,344.324,46.01,344.324,47.858z"/>
	<path fill="#C73D27" d="M371.7,38.263c0.687,0,1.256,0.05,1.71,0.149l-0.382,4.748c-0.409-0.11-0.907-0.166-1.494-0.166
		c-1.616,0-2.875,0.415-3.777,1.245c-0.901,0.83-1.353,1.992-1.353,3.486v9.446h-5.063v-18.56h3.835l0.747,3.121h0.249
		c0.575-1.04,1.353-1.878,2.333-2.515C369.483,38.581,370.549,38.263,371.7,38.263z"/>
	<path fill="#C73D27" d="M384.599,53.47c0.886,0,1.948-0.193,3.188-0.581v3.769c-1.262,0.564-2.812,0.847-4.648,0.847
		c-2.025,0-3.5-0.512-4.425-1.536c-0.924-1.023-1.386-2.559-1.386-4.607v-8.948h-2.424v-2.142l2.789-1.693l1.461-3.918h3.237v3.951
		h5.196v3.802h-5.196v8.948c0,0.72,0.202,1.251,0.605,1.594C383.401,53.298,383.935,53.47,384.599,53.47z"/>
	<path fill="#C73D27" d="M415.628,57.172l-1.428-6.491l-1.926-8.201h-0.116l-3.387,14.692h-5.445l-5.279-18.561h5.047l2.142,8.218
		c0.343,1.472,0.691,3.503,1.046,6.093h0.1c0.044-0.841,0.238-2.175,0.581-4.001l0.266-1.411l2.291-8.898h5.578l2.175,8.898
		c0.044,0.244,0.113,0.604,0.207,1.079c0.095,0.476,0.186,0.982,0.274,1.519c0.089,0.537,0.169,1.063,0.241,1.577
		c0.071,0.515,0.113,0.927,0.124,1.237h0.1c0.1-0.797,0.276-1.89,0.531-3.279s0.438-2.327,0.548-2.814l2.225-8.218h4.964
		l-5.346,18.561C421.141,57.172,415.628,57.172,415.628,57.172z"/>
	<path fill="#C73D27" d="M446.341,47.858c0,3.021-0.797,5.385-2.391,7.089c-1.594,1.705-3.813,2.557-6.657,2.557
		c-1.782,0-3.354-0.39-4.715-1.17s-2.407-1.901-3.138-3.362s-1.096-3.165-1.096-5.113c0-3.032,0.791-5.39,2.374-7.072
		s3.808-2.523,6.674-2.523c1.782,0,3.354,0.388,4.715,1.162c1.361,0.775,2.407,1.887,3.138,3.337
		C445.975,44.212,446.341,45.911,446.341,47.858z M433.508,47.858c0,1.837,0.302,3.227,0.905,4.167
		c0.603,0.941,1.585,1.411,2.946,1.411c1.351,0,2.321-0.467,2.913-1.403c0.593-0.935,0.889-2.327,0.889-4.175
		c0-1.837-0.299-3.215-0.896-4.134c-0.598-0.918-1.577-1.378-2.938-1.378c-1.351,0-2.324,0.457-2.922,1.37
		C433.807,44.629,433.508,46.01,433.508,47.858z"/>
	<path fill="#C73D27" d="M460.884,38.263c0.687,0,1.256,0.05,1.71,0.149l-0.382,4.748c-0.409-0.11-0.907-0.166-1.494-0.166
		c-1.616,0-2.875,0.415-3.777,1.245c-0.901,0.83-1.353,1.992-1.353,3.486v9.446h-5.063v-18.56h3.835l0.747,3.121h0.249
		c0.575-1.04,1.353-1.878,2.333-2.515C458.667,38.581,459.732,38.263,460.884,38.263z"/>
	<path fill="#C73D27" d="M470.828,47.078l2.208-2.822l5.196-5.645h5.711l-7.371,8.052l7.819,10.509h-5.844l-5.346-7.521
		l-2.175,1.743v5.777h-5.063V31.34h5.063v11.521l-0.266,4.217H470.828z"/>
	<path fill="#C73D27" d="M497.241,57.504c-2.181,0-3.891-0.791-5.13-2.374h-0.266c0.177,1.55,0.266,2.446,0.266,2.689v7.521h-5.063
		V38.611h4.117l0.714,2.407h0.232c1.185-1.837,2.938-2.756,5.263-2.756c2.191,0,3.907,0.847,5.146,2.54s1.859,4.045,1.859,7.056
		c0,1.981-0.291,3.702-0.871,5.163c-0.582,1.461-1.409,2.573-2.482,3.337S498.691,57.504,497.241,57.504z M495.747,42.313
		c-1.251,0-2.164,0.385-2.739,1.154c-0.575,0.77-0.874,2.04-0.896,3.81v0.548c0,1.992,0.296,3.42,0.888,4.283
		c0.593,0.863,1.53,1.295,2.814,1.295c2.269,0,3.403-1.87,3.403-5.611c0-1.826-0.279-3.196-0.839-4.109
		C497.819,42.77,496.942,42.313,495.747,42.313z"/>
	<path fill="#C73D27" d="M513.627,57.172h-5.063V31.34h5.063V57.172z"/>
	<path fill="#C73D27" d="M530.726,57.172l-0.979-2.523h-0.133c-0.853,1.074-1.729,1.818-2.632,2.233
		c-0.901,0.415-2.077,0.623-3.527,0.623c-1.782,0-3.185-0.509-4.209-1.527c-1.023-1.018-1.535-2.468-1.535-4.35
		c0-1.97,0.689-3.422,2.066-4.358c1.379-0.935,3.456-1.453,6.234-1.552l3.221-0.1v-0.813c0-1.881-0.963-2.822-2.889-2.822
		c-1.483,0-3.227,0.448-5.229,1.345l-1.677-3.42c2.136-1.118,4.505-1.677,7.105-1.677c2.49,0,4.399,0.542,5.728,1.627
		c1.328,1.085,1.992,2.734,1.992,4.947v12.368L530.726,57.172L530.726,57.172z M529.232,48.572l-1.959,0.066
		c-1.472,0.044-2.567,0.31-3.287,0.797s-1.079,1.229-1.079,2.225c0,1.428,0.819,2.142,2.457,2.142c1.173,0,2.111-0.337,2.813-1.013
		c0.703-0.675,1.055-1.571,1.055-2.689L529.232,48.572L529.232,48.572z"/>
	<path fill="#C73D27" d="M547.013,57.504c-5.777,0-8.666-3.171-8.666-9.513c0-3.154,0.786-5.564,2.357-7.23s3.824-2.499,6.757-2.499
		c2.147,0,4.073,0.421,5.777,1.262l-1.494,3.918c-0.797-0.321-1.538-0.583-2.225-0.789c-0.687-0.205-1.372-0.307-2.059-0.307
		c-2.634,0-3.951,1.871-3.951,5.611c0,3.63,1.317,5.445,3.951,5.445c0.974,0,1.876-0.13,2.706-0.39c0.83-0.26,1.66-0.667,2.49-1.22
		v4.333c-0.819,0.521-1.646,0.88-2.482,1.079C549.34,57.404,548.285,57.504,547.013,57.504z"/>
	<path fill="#C73D27" d="M565.357,57.504c-2.988,0-5.323-0.824-7.006-2.474c-1.683-1.649-2.523-3.984-2.523-7.006
		c0-3.11,0.777-5.514,2.332-7.213c1.556-1.699,3.705-2.548,6.45-2.548c2.623,0,4.665,0.747,6.126,2.241
		c1.461,1.494,2.191,3.559,2.191,6.192v2.457h-11.97c0.056,1.439,0.481,2.563,1.278,3.37c0.797,0.808,1.915,1.212,3.354,1.212
		c1.118,0,2.175-0.116,3.171-0.349c0.996-0.233,2.036-0.603,3.121-1.112v3.918c-0.886,0.443-1.832,0.772-2.839,0.988
		C568.035,57.396,566.807,57.504,565.357,57.504z M564.643,41.865c-1.073,0-1.915,0.34-2.523,1.021s-0.957,1.646-1.046,2.897h7.105
		c-0.022-1.25-0.349-2.216-0.979-2.897S565.717,41.865,564.643,41.865z"/>
	<path fill="#C73D27" d="M254.692,106.14c-1.295,0-2.407-0.139-3.337-0.415v-3.984c0.774,0.21,1.566,0.315,2.374,0.315
		c0.853,0,1.475-0.238,1.867-0.714c0.394-0.476,0.59-1.179,0.59-2.108V79.411h5.063V99.98c0,1.97-0.57,3.489-1.71,4.557
		C258.4,105.605,256.784,106.14,254.692,106.14z M255.971,74.613c0-1.649,0.919-2.474,2.756-2.474s2.756,0.825,2.756,2.474
		c0,0.786-0.229,1.397-0.688,1.834c-0.46,0.438-1.148,0.656-2.067,0.656C256.889,77.103,255.971,76.273,255.971,74.613z"/>
	<path fill="#C73D27" d="M279.711,97.972l-0.681-2.374h-0.266c-0.542,0.863-1.312,1.53-2.308,2s-2.131,0.706-3.403,0.706
		c-2.181,0-3.824-0.583-4.931-1.751c-1.106-1.167-1.66-2.847-1.66-5.039V79.411h5.063v10.841c0,1.339,0.238,2.344,0.714,3.013
		c0.476,0.67,1.234,1.004,2.274,1.004c1.417,0,2.44-0.473,3.071-1.419s0.946-2.515,0.946-4.707v-8.732h5.063v18.561H279.711z"/>
	<path fill="#C73D27" d="M301.857,92.46c0,1.904-0.661,3.354-1.984,4.35c-1.322,0.996-3.301,1.494-5.935,1.494
		c-1.351,0-2.501-0.091-3.453-0.274s-1.843-0.451-2.673-0.805v-4.184c0.94,0.443,2,0.813,3.18,1.112
		c1.178,0.299,2.216,0.448,3.112,0.448c1.837,0,2.756-0.531,2.756-1.594c0-0.398-0.122-0.722-0.365-0.971s-0.664-0.531-1.262-0.847
		s-1.395-0.683-2.391-1.104c-1.428-0.598-2.477-1.151-3.146-1.66c-0.67-0.509-1.157-1.093-1.461-1.751
		c-0.305-0.658-0.457-1.469-0.457-2.432c0-1.649,0.639-2.924,1.918-3.827c1.277-0.902,3.09-1.353,5.437-1.353
		c2.235,0,4.41,0.487,6.524,1.461l-1.527,3.652c-0.93-0.398-1.799-0.725-2.606-0.979c-0.808-0.254-1.633-0.382-2.474-0.382
		c-1.494,0-2.241,0.404-2.241,1.212c0,0.454,0.241,0.847,0.722,1.179c0.482,0.332,1.536,0.825,3.163,1.478
		c1.45,0.587,2.513,1.135,3.188,1.644c0.675,0.509,1.173,1.096,1.494,1.76S301.857,91.541,301.857,92.46z"/>
	<path fill="#C73D27" d="M313.628,94.269c0.886,0,1.948-0.193,3.188-0.581v3.769c-1.262,0.564-2.812,0.847-4.648,0.847
		c-2.025,0-3.5-0.512-4.425-1.536c-0.924-1.023-1.386-2.559-1.386-4.607v-8.948h-2.424v-2.142l2.789-1.693l1.461-3.918h3.237v3.951
		h5.196v3.802h-5.196v8.948c0,0.72,0.202,1.251,0.605,1.594C312.429,94.098,312.964,94.269,313.628,94.269z"/>
	<path fill="#C73D27" d="M320.351,74.613c0-1.649,0.919-2.474,2.756-2.474s2.756,0.825,2.756,2.474c0,0.786-0.229,1.397-0.688,1.834
		c-0.46,0.438-1.148,0.656-2.067,0.656C321.27,77.103,320.351,76.273,320.351,74.613z M325.631,97.972h-5.063V79.411h5.063V97.972z"
		/>
	<path fill="#C73D27" d="M338.48,98.304c-5.777,0-8.666-3.171-8.666-9.513c0-3.154,0.786-5.564,2.357-7.23s3.824-2.499,6.757-2.499
		c2.147,0,4.073,0.421,5.777,1.262l-1.494,3.918c-0.797-0.321-1.538-0.583-2.225-0.789c-0.687-0.205-1.372-0.307-2.059-0.307
		c-2.634,0-3.951,1.871-3.951,5.611c0,3.63,1.317,5.445,3.951,5.445c0.974,0,1.876-0.13,2.706-0.39s1.66-0.667,2.49-1.22v4.333
		c-0.819,0.521-1.646,0.88-2.482,1.079C340.807,98.204,339.753,98.304,338.48,98.304z"/>
	<path fill="#C73D27" d="M356.825,98.304c-2.988,0-5.323-0.824-7.006-2.474c-1.683-1.649-2.523-3.984-2.523-7.006
		c0-3.11,0.777-5.514,2.332-7.213c1.556-1.699,3.705-2.548,6.45-2.548c2.623,0,4.665,0.747,6.126,2.241s2.191,3.559,2.191,6.192
		v2.457h-11.97c0.056,1.439,0.481,2.563,1.278,3.37c0.797,0.808,1.915,1.212,3.354,1.212c1.118,0,2.175-0.116,3.171-0.349
		s2.036-0.603,3.121-1.112v3.918c-0.886,0.443-1.832,0.772-2.839,0.988S358.275,98.304,356.825,98.304z M356.111,82.665
		c-1.073,0-1.915,0.34-2.523,1.021s-0.957,1.646-1.046,2.897h7.105c-0.022-1.25-0.349-2.216-0.979-2.897
		S357.184,82.665,356.111,82.665z"/>
	<path fill="#C73D27" d="M384.882,98.304c-5.777,0-8.666-3.171-8.666-9.513c0-3.154,0.786-5.564,2.357-7.23s3.824-2.499,6.757-2.499
		c2.147,0,4.073,0.421,5.777,1.262l-1.494,3.918c-0.797-0.321-1.538-0.583-2.225-0.789c-0.687-0.205-1.372-0.307-2.059-0.307
		c-2.634,0-3.951,1.871-3.951,5.611c0,3.63,1.317,5.445,3.951,5.445c0.974,0,1.876-0.13,2.706-0.39s1.66-0.667,2.49-1.22v4.333
		c-0.819,0.521-1.646,0.88-2.482,1.079C387.209,98.204,386.154,98.304,384.882,98.304z"/>
	<path fill="#C73D27" d="M406.613,97.972l-0.979-2.523h-0.133c-0.853,1.074-1.729,1.818-2.632,2.233
		c-0.901,0.415-2.077,0.623-3.527,0.623c-1.782,0-3.185-0.509-4.209-1.527c-1.023-1.018-1.535-2.468-1.535-4.35
		c0-1.97,0.689-3.422,2.066-4.358c1.379-0.935,3.456-1.453,6.234-1.552l3.221-0.1v-0.813c0-1.881-0.963-2.822-2.889-2.822
		c-1.483,0-3.227,0.448-5.229,1.345l-1.677-3.42c2.136-1.118,4.505-1.677,7.105-1.677c2.49,0,4.399,0.542,5.728,1.627
		c1.328,1.085,1.992,2.734,1.992,4.947v12.368L406.613,97.972L406.613,97.972z M405.119,89.372l-1.959,0.066
		c-1.472,0.044-2.567,0.31-3.287,0.797s-1.079,1.229-1.079,2.225c0,1.428,0.819,2.142,2.457,2.142c1.173,0,2.111-0.337,2.813-1.013
		c0.703-0.675,1.055-1.571,1.055-2.689L405.119,89.372L405.119,89.372z"/>
	<path fill="#C73D27" d="M431.98,97.972h-5.063V87.131c0-1.339-0.225-2.343-0.672-3.013c-0.449-0.669-1.154-1.004-2.117-1.004
		c-1.295,0-2.235,0.476-2.822,1.428s-0.88,2.518-0.88,4.698v8.732h-5.063V79.411h3.868l0.681,2.374h0.282
		c0.498-0.852,1.218-1.519,2.158-2s2.02-0.722,3.237-0.722c2.778,0,4.659,0.908,5.645,2.723h0.448
		c0.498-0.863,1.231-1.533,2.2-2.009c0.968-0.476,2.061-0.714,3.278-0.714c2.103,0,3.694,0.54,4.772,1.619
		c1.08,1.079,1.619,2.809,1.619,5.188v12.103h-5.08V87.131c0-1.339-0.225-2.343-0.672-3.013c-0.449-0.669-1.154-1.004-2.117-1.004
		c-1.239,0-2.166,0.443-2.781,1.328c-0.613,0.886-0.921,2.291-0.921,4.217L431.98,97.972L431.98,97.972z"/>
	<path fill="#C73D27" d="M458.941,98.304c-2.181,0-3.891-0.791-5.13-2.374h-0.266c0.177,1.55,0.266,2.446,0.266,2.689v7.521h-5.063
		V79.411h4.117l0.714,2.407h0.232c1.185-1.837,2.938-2.756,5.263-2.756c2.191,0,3.907,0.847,5.146,2.54s1.859,4.045,1.859,7.056
		c0,1.981-0.291,3.702-0.871,5.163c-0.582,1.461-1.409,2.573-2.482,3.337S460.391,98.304,458.941,98.304z M457.447,83.113
		c-1.251,0-2.164,0.385-2.739,1.154c-0.575,0.77-0.874,2.04-0.896,3.81v0.548c0,1.992,0.296,3.42,0.888,4.283
		c0.593,0.863,1.53,1.295,2.814,1.295c2.269,0,3.403-1.87,3.403-5.611c0-1.826-0.279-3.196-0.839-4.109
		C459.519,83.57,458.642,83.113,457.447,83.113z"/>
	<path fill="#C73D27" d="M482.051,97.972l-0.979-2.523h-0.133c-0.853,1.074-1.729,1.818-2.632,2.233
		c-0.901,0.415-2.077,0.623-3.527,0.623c-1.782,0-3.185-0.509-4.209-1.527c-1.023-1.018-1.535-2.468-1.535-4.35
		c0-1.97,0.689-3.422,2.066-4.358c1.379-0.935,3.456-1.453,6.234-1.552l3.221-0.1v-0.813c0-1.881-0.963-2.822-2.889-2.822
		c-1.483,0-3.227,0.448-5.229,1.345l-1.677-3.42c2.136-1.118,4.505-1.677,7.105-1.677c2.49,0,4.399,0.542,5.728,1.627
		c1.328,1.085,1.992,2.734,1.992,4.947v12.368L482.051,97.972L482.051,97.972z M480.556,89.372l-1.959,0.066
		c-1.472,0.044-2.567,0.31-3.287,0.797s-1.079,1.229-1.079,2.225c0,1.428,0.819,2.142,2.457,2.142c1.173,0,2.111-0.337,2.813-1.013
		c0.703-0.675,1.055-1.571,1.055-2.689L480.556,89.372L480.556,89.372z"/>
	<path fill="#C73D27" d="M490.584,74.613c0-1.649,0.919-2.474,2.756-2.474s2.756,0.825,2.756,2.474c0,0.786-0.229,1.397-0.688,1.834
		c-0.46,0.438-1.148,0.656-2.067,0.656C491.503,77.103,490.584,76.273,490.584,74.613z M495.863,97.972H490.8V79.411h5.063V97.972z"
		/>
	<path fill="#C73D27" d="M517.329,79.411v2.573l-2.905,0.747c0.531,0.83,0.797,1.76,0.797,2.789c0,1.992-0.694,3.544-2.084,4.657
		c-1.389,1.112-3.317,1.668-5.785,1.668l-0.913-0.05l-0.747-0.083c-0.521,0.398-0.78,0.841-0.78,1.328
		c0,0.73,0.93,1.096,2.789,1.096h3.154c2.036,0,3.589,0.438,4.657,1.312c1.067,0.875,1.602,2.158,1.602,3.852
		c0,2.169-0.904,3.852-2.715,5.047c-1.809,1.195-4.407,1.793-7.794,1.793c-2.59,0-4.568-0.451-5.935-1.353
		c-1.367-0.902-2.051-2.167-2.051-3.793c0-1.118,0.349-2.053,1.046-2.806s1.721-1.289,3.071-1.61
		c-0.521-0.221-0.974-0.583-1.361-1.087c-0.388-0.503-0.581-1.038-0.581-1.602c0-0.708,0.205-1.297,0.614-1.768
		c0.409-0.47,1.002-0.932,1.776-1.386c-0.974-0.42-1.746-1.096-2.315-2.025c-0.57-0.93-0.855-2.025-0.855-3.287
		c0-2.025,0.658-3.591,1.976-4.698c1.317-1.106,3.198-1.66,5.645-1.66c0.521,0,1.138,0.047,1.851,0.141
		c0.715,0.094,1.171,0.164,1.37,0.208h6.473V79.411z M503.002,100.595c0,0.697,0.335,1.245,1.004,1.644
		c0.67,0.398,1.608,0.598,2.814,0.598c1.815,0,3.237-0.249,4.267-0.747s1.544-1.179,1.544-2.042c0-0.697-0.305-1.179-0.913-1.444
		s-1.55-0.398-2.822-0.398h-2.623c-0.93,0-1.707,0.218-2.333,0.656C503.314,99.297,503.002,99.875,503.002,100.595z M504.845,85.487
		c0,1.007,0.229,1.804,0.688,2.391c0.46,0.587,1.16,0.88,2.101,0.88c0.952,0,1.649-0.293,2.092-0.88
		c0.442-0.586,0.664-1.383,0.664-2.391c0-2.235-0.919-3.354-2.756-3.354C505.774,82.134,504.845,83.252,504.845,85.487z"/>
	<path fill="#C73D27" d="M537.516,97.972h-5.063V87.131c0-1.339-0.238-2.343-0.714-3.013c-0.476-0.669-1.234-1.004-2.274-1.004
		c-1.417,0-2.44,0.473-3.071,1.419s-0.946,2.515-0.946,4.707v8.732h-5.063V79.411h3.868l0.681,2.374h0.282
		c0.564-0.896,1.342-1.574,2.333-2.034c0.99-0.459,2.116-0.689,3.378-0.689c2.158,0,3.796,0.584,4.914,1.751
		c1.118,1.168,1.677,2.853,1.677,5.055v12.104H537.516z"/>
	<path fill="#C73D27" d="M555.679,92.46c0,1.904-0.661,3.354-1.984,4.35c-1.322,0.996-3.301,1.494-5.935,1.494
		c-1.351,0-2.501-0.091-3.453-0.274s-1.843-0.451-2.673-0.805v-4.184c0.94,0.443,2,0.813,3.18,1.112
		c1.178,0.299,2.216,0.448,3.112,0.448c1.837,0,2.756-0.531,2.756-1.594c0-0.398-0.122-0.722-0.365-0.971s-0.664-0.531-1.262-0.847
		s-1.395-0.683-2.391-1.104c-1.428-0.598-2.477-1.151-3.146-1.66c-0.67-0.509-1.157-1.093-1.461-1.751
		c-0.305-0.658-0.457-1.469-0.457-2.432c0-1.649,0.639-2.924,1.918-3.827c1.277-0.902,3.09-1.353,5.437-1.353
		c2.235,0,4.41,0.487,6.524,1.461l-1.527,3.652c-0.93-0.398-1.799-0.725-2.606-0.979c-0.808-0.254-1.633-0.382-2.474-0.382
		c-1.494,0-2.241,0.404-2.241,1.212c0,0.454,0.241,0.847,0.722,1.179c0.482,0.332,1.536,0.825,3.163,1.478
		c1.45,0.587,2.513,1.135,3.188,1.644c0.675,0.509,1.173,1.096,1.494,1.76S555.679,91.541,555.679,92.46z"/>
	<path fill="#C73D27" d="M267.973,138.772l-0.979-2.523h-0.133c-0.853,1.074-1.729,1.818-2.632,2.233
		c-0.901,0.415-2.077,0.623-3.527,0.623c-1.782,0-3.185-0.509-4.209-1.527c-1.023-1.018-1.535-2.468-1.535-4.35
		c0-1.97,0.689-3.422,2.066-4.358c1.379-0.935,3.456-1.453,6.234-1.552l3.221-0.1v-0.813c0-1.881-0.963-2.822-2.889-2.822
		c-1.483,0-3.227,0.448-5.229,1.345l-1.677-3.42c2.136-1.118,4.505-1.677,7.105-1.677c2.49,0,4.399,0.542,5.728,1.627
		c1.328,1.085,1.992,2.734,1.992,4.947v12.368L267.973,138.772L267.973,138.772z M266.479,130.172l-1.959,0.066
		c-1.472,0.044-2.567,0.31-3.287,0.797s-1.079,1.229-1.079,2.225c0,1.428,0.819,2.142,2.457,2.142c1.173,0,2.111-0.337,2.813-1.013
		c0.703-0.675,1.055-1.571,1.055-2.689V130.172z"/>
	<path fill="#C73D27" d="M293.855,138.772h-5.063v-10.841c0-1.339-0.238-2.343-0.714-3.013c-0.476-0.669-1.234-1.004-2.274-1.004
		c-1.417,0-2.44,0.473-3.071,1.419c-0.631,0.946-0.946,2.515-0.946,4.707v8.732h-5.063v-18.561h3.868l0.681,2.374h0.282
		c0.564-0.896,1.342-1.574,2.333-2.034c0.99-0.459,2.116-0.689,3.378-0.689c2.158,0,3.796,0.584,4.914,1.751
		c1.118,1.168,1.677,2.853,1.677,5.055v12.104H293.855z"/>
	<path fill="#C73D27" d="M304.945,139.104c-2.181,0-3.893-0.847-5.139-2.54c-1.244-1.693-1.867-4.04-1.867-7.039
		c0-3.043,0.634-5.415,1.9-7.114c1.268-1.699,3.014-2.548,5.238-2.548c2.335,0,4.117,0.908,5.346,2.723h0.166
		c-0.255-1.383-0.382-2.617-0.382-3.702v-5.943h5.08v25.832h-3.885l-0.979-2.407h-0.216
		C309.056,138.191,307.303,139.104,304.945,139.104z M306.721,135.07c1.295,0,2.244-0.376,2.847-1.129
		c0.604-0.752,0.933-2.031,0.988-3.835v-0.548c0-1.992-0.307-3.42-0.922-4.283c-0.613-0.863-1.612-1.295-2.996-1.295
		c-1.129,0-2.006,0.479-2.631,1.436c-0.626,0.958-0.938,2.349-0.938,4.175c0,1.826,0.315,3.196,0.946,4.109
		S305.549,135.07,306.721,135.07z"/>
	<path fill="#C73D27" d="M342.564,138.772l-0.681-2.374h-0.266c-0.542,0.863-1.312,1.53-2.308,2s-2.131,0.706-3.403,0.706
		c-2.181,0-3.824-0.583-4.931-1.751c-1.106-1.167-1.66-2.847-1.66-5.039v-12.103h5.063v10.841c0,1.339,0.238,2.344,0.714,3.013
		c0.476,0.67,1.234,1.004,2.274,1.004c1.417,0,2.44-0.473,3.071-1.419s0.946-2.515,0.946-4.707v-8.732h5.063v18.561L342.564,138.772
		L342.564,138.772z"/>
	<path fill="#C73D27" d="M368.894,138.772h-5.063v-10.841c0-1.339-0.238-2.343-0.714-3.013c-0.476-0.669-1.234-1.004-2.274-1.004
		c-1.417,0-2.44,0.473-3.071,1.419c-0.631,0.946-0.946,2.515-0.946,4.707v8.732h-5.063v-18.561h3.868l0.681,2.374h0.282
		c0.564-0.896,1.342-1.574,2.333-2.034c0.99-0.459,2.116-0.689,3.378-0.689c2.158,0,3.796,0.584,4.914,1.751
		c1.118,1.168,1.677,2.853,1.677,5.055v12.104H368.894z"/>
	<path fill="#C73D27" d="M373.891,115.413c0-1.649,0.919-2.474,2.756-2.474s2.756,0.825,2.756,2.474
		c0,0.786-0.229,1.397-0.688,1.834c-0.46,0.438-1.148,0.656-2.067,0.656C374.81,117.904,373.891,117.074,373.891,115.413z
		 M379.171,138.772h-5.063v-18.561h5.063V138.772z"/>
	<path fill="#C73D27" d="M401.35,129.458c0,3.021-0.797,5.385-2.391,7.089c-1.594,1.705-3.813,2.557-6.657,2.557
		c-1.782,0-3.354-0.39-4.715-1.17s-2.407-1.901-3.138-3.362s-1.096-3.165-1.096-5.113c0-3.032,0.791-5.39,2.374-7.072
		s3.808-2.523,6.674-2.523c1.782,0,3.354,0.388,4.715,1.162c1.361,0.775,2.407,1.887,3.138,3.337
		C400.985,125.812,401.35,127.511,401.35,129.458z M388.517,129.458c0,1.837,0.302,3.227,0.905,4.167
		c0.603,0.941,1.585,1.411,2.946,1.411c1.351,0,2.321-0.467,2.913-1.403c0.593-0.935,0.889-2.327,0.889-4.175
		c0-1.837-0.299-3.215-0.896-4.134c-0.598-0.918-1.577-1.378-2.938-1.378c-1.351,0-2.324,0.457-2.922,1.37
		C388.816,126.229,388.517,127.61,388.517,129.458z"/>
	<path fill="#C73D27" d="M422.667,138.772h-5.063v-10.841c0-1.339-0.238-2.343-0.714-3.013c-0.476-0.669-1.234-1.004-2.274-1.004
		c-1.417,0-2.44,0.473-3.071,1.419c-0.631,0.946-0.946,2.515-0.946,4.707v8.732h-5.063v-18.561h3.868l0.681,2.374h0.282
		c0.564-0.896,1.342-1.574,2.333-2.034c0.99-0.459,2.116-0.689,3.378-0.689c2.158,0,3.796,0.584,4.914,1.751
		c1.118,1.168,1.677,2.853,1.677,5.055v12.104H422.667z"/>
	<path fill="#C73D27" d="M442.589,139.104c-2.181,0-3.893-0.847-5.139-2.54c-1.244-1.693-1.867-4.04-1.867-7.039
		c0-3.043,0.634-5.415,1.9-7.114c1.268-1.699,3.014-2.548,5.238-2.548c2.335,0,4.117,0.908,5.346,2.723h0.166
		c-0.255-1.383-0.382-2.617-0.382-3.702v-5.943h5.08v25.832h-3.885l-0.979-2.407h-0.216
		C446.7,138.191,444.946,139.104,442.589,139.104z M444.365,135.07c1.295,0,2.244-0.376,2.847-1.129
		c0.604-0.752,0.933-2.031,0.988-3.835v-0.548c0-1.992-0.307-3.42-0.922-4.283c-0.613-0.863-1.612-1.295-2.996-1.295
		c-1.129,0-2.006,0.479-2.631,1.436c-0.626,0.958-0.938,2.349-0.938,4.175c0,1.826,0.315,3.196,0.946,4.109
		S443.192,135.07,444.365,135.07z"/>
	<path fill="#C73D27" d="M468.587,119.863c0.687,0,1.256,0.05,1.71,0.149l-0.382,4.748c-0.409-0.11-0.907-0.166-1.494-0.166
		c-1.616,0-2.875,0.415-3.777,1.245c-0.901,0.83-1.353,1.992-1.353,3.486v9.446h-5.063V120.21h3.835l0.747,3.121h0.249
		c0.575-1.04,1.353-1.878,2.333-2.515C466.37,120.181,467.435,119.863,468.587,119.863z"/>
	<path fill="#C73D27" d="M473.451,115.413c0-1.649,0.919-2.474,2.756-2.474s2.756,0.825,2.756,2.474
		c0,0.786-0.229,1.397-0.688,1.834c-0.46,0.438-1.148,0.656-2.067,0.656C474.37,117.904,473.451,117.074,473.451,115.413z
		 M478.73,138.772h-5.063v-18.561h5.063V138.772z"/>
	<path fill="#C73D27" d="M488.459,138.772l-7.072-18.561h5.296l3.586,10.575c0.398,1.339,0.647,2.606,0.747,3.802h0.1
		c0.056-1.063,0.305-2.33,0.747-3.802l3.569-10.575h5.296l-7.072,18.561H488.459z"/>
	<path fill="#C73D27" d="M511.784,139.104c-2.988,0-5.323-0.824-7.006-2.474c-1.683-1.649-2.523-3.984-2.523-7.006
		c0-3.11,0.777-5.514,2.332-7.213c1.556-1.699,3.705-2.548,6.45-2.548c2.623,0,4.665,0.747,6.126,2.241s2.191,3.559,2.191,6.192
		v2.457h-11.97c0.056,1.439,0.481,2.563,1.278,3.37c0.797,0.808,1.915,1.212,3.354,1.212c1.118,0,2.175-0.116,3.171-0.349
		s2.036-0.603,3.121-1.112v3.918c-0.886,0.443-1.832,0.772-2.839,0.988S513.234,139.104,511.784,139.104z M511.07,123.465
		c-1.073,0-1.915,0.34-2.523,1.021s-0.957,1.646-1.046,2.897h7.105c-0.022-1.25-0.349-2.216-0.979-2.897
		S512.143,123.465,511.07,123.465z"/>
	<path fill="#C73D27" d="M536.421,133.26c0,1.904-0.661,3.354-1.984,4.35c-1.322,0.996-3.301,1.494-5.935,1.494
		c-1.351,0-2.501-0.091-3.453-0.274s-1.843-0.451-2.673-0.805v-4.184c0.94,0.443,2,0.813,3.18,1.112
		c1.178,0.299,2.216,0.448,3.112,0.448c1.837,0,2.756-0.531,2.756-1.594c0-0.398-0.122-0.722-0.365-0.971s-0.664-0.531-1.262-0.847
		s-1.395-0.683-2.391-1.104c-1.428-0.598-2.477-1.151-3.146-1.66c-0.67-0.509-1.157-1.093-1.461-1.751
		c-0.305-0.658-0.457-1.469-0.457-2.432c0-1.649,0.639-2.924,1.918-3.827c1.277-0.902,3.09-1.353,5.437-1.353
		c2.235,0,4.41,0.487,6.524,1.461l-1.527,3.652c-0.93-0.398-1.799-0.725-2.606-0.979c-0.808-0.254-1.633-0.382-2.474-0.382
		c-1.494,0-2.241,0.404-2.241,1.212c0,0.454,0.241,0.847,0.722,1.179c0.482,0.332,1.536,0.825,3.163,1.478
		c1.45,0.587,2.513,1.135,3.188,1.644s1.173,1.096,1.494,1.76S536.421,132.342,536.421,133.26z"/>
</g>
</svg>
