<?xml version="1.0" encoding="utf-8"?>
<!-- Generator: Adobe Illustrator 17.0.0, SVG Export Plug-In . SVG Version: 6.00 Build 0)  -->
<!DOCTYPE svg PUBLIC "-//W3C//DTD SVG 1.1//EN" "http://www.w3.org/Graphics/SVG/1.1/DTD/svg11.dtd">
<svg version="1.1" id="Layer_1" xmlns="http://www.w3.org/2000/svg" xmlns:xlink="http://www.w3.org/1999/xlink" x="0px" y="0px"
	 width="640px" height="220.5px" viewBox="0 0 640 220.5" enable-background="new 0 0 640 220.5" xml:space="preserve">
<g>
	<path fill="#C73D27" d="M260.793,89.294c0,3.996-1.137,7.056-3.41,9.181c-2.275,2.125-5.561,3.188-9.854,3.188h-6.873V77.391h7.619
		c3.963,0,7.039,1.046,9.23,3.138S260.793,85.542,260.793,89.294z M255.448,89.427c0-5.213-2.301-7.819-6.906-7.819h-2.738v15.805
		h2.207C252.969,97.412,255.448,94.751,255.448,89.427z"/>
	<path fill="#C73D27" d="M265.209,78.304c0-1.649,0.92-2.474,2.756-2.474c1.838,0,2.756,0.825,2.756,2.474
		c0,0.786-0.229,1.397-0.688,1.834c-0.461,0.438-1.148,0.656-2.068,0.656C266.129,80.794,265.209,79.964,265.209,78.304z
		 M270.489,101.662h-5.063v-18.56h5.063V101.662z"/>
	<path fill="#C73D27" d="M288.75,96.15c0,1.904-0.66,3.354-1.984,4.35c-1.322,0.996-3.301,1.494-5.934,1.494
		c-1.352,0-2.502-0.091-3.453-0.274c-0.953-0.183-1.844-0.451-2.674-0.805v-4.184c0.941,0.443,2,0.813,3.18,1.112
		c1.178,0.299,2.217,0.448,3.113,0.448c1.836,0,2.756-0.531,2.756-1.594c0-0.398-0.123-0.722-0.365-0.971
		c-0.244-0.249-0.664-0.531-1.262-0.847s-1.395-0.683-2.391-1.104c-1.428-0.598-2.477-1.151-3.146-1.66
		c-0.67-0.509-1.156-1.093-1.461-1.751s-0.457-1.469-0.457-2.432c0-1.649,0.639-2.924,1.918-3.827
		c1.277-0.902,3.09-1.353,5.438-1.353c2.234,0,4.41,0.487,6.523,1.461l-1.527,3.652c-0.93-0.398-1.799-0.725-2.605-0.979
		c-0.809-0.254-1.633-0.382-2.475-0.382c-1.494,0-2.24,0.404-2.24,1.212c0,0.454,0.24,0.847,0.721,1.179
		c0.482,0.332,1.537,0.825,3.164,1.478c1.449,0.587,2.512,1.135,3.188,1.644c0.674,0.509,1.172,1.096,1.494,1.76
		C288.59,94.44,288.75,95.232,288.75,96.15z"/>
	<path fill="#C73D27" d="M300.239,101.994c-5.777,0-8.666-3.171-8.666-9.513c0-3.154,0.787-5.564,2.357-7.23
		c1.572-1.666,3.824-2.499,6.758-2.499c2.146,0,4.072,0.421,5.777,1.262l-1.494,3.918c-0.797-0.321-1.539-0.583-2.225-0.789
		c-0.688-0.205-1.373-0.307-2.059-0.307c-2.635,0-3.951,1.871-3.951,5.611c0,3.63,1.316,5.445,3.951,5.445
		c0.973,0,1.875-0.13,2.705-0.39s1.66-0.667,2.49-1.22v4.333c-0.818,0.521-1.646,0.88-2.482,1.079
		C302.567,101.895,301.512,101.994,300.239,101.994z"/>
	<path fill="#C73D27" d="M323.332,101.662l-0.682-2.374h-0.266c-0.541,0.863-1.311,1.53-2.307,2s-2.131,0.706-3.404,0.706
		c-2.18,0-3.824-0.583-4.93-1.751c-1.107-1.167-1.66-2.847-1.66-5.039V83.102h5.063v10.841c0,1.339,0.238,2.344,0.715,3.013
		c0.475,0.67,1.234,1.004,2.273,1.004c1.418,0,2.441-0.473,3.072-1.419s0.945-2.515,0.945-4.707v-8.732h5.064v18.561h-3.883V101.662
		z"/>
	<path fill="#C73D27" d="M345.479,96.15c0,1.904-0.662,3.354-1.984,4.35s-3.301,1.494-5.936,1.494c-1.35,0-2.5-0.091-3.453-0.274
		c-0.951-0.183-1.842-0.451-2.672-0.805v-4.184c0.939,0.443,2,0.813,3.18,1.112c1.178,0.299,2.215,0.448,3.111,0.448
		c1.838,0,2.756-0.531,2.756-1.594c0-0.398-0.121-0.722-0.365-0.971c-0.242-0.249-0.664-0.531-1.262-0.847s-1.395-0.683-2.391-1.104
		c-1.428-0.598-2.477-1.151-3.145-1.66c-0.67-0.509-1.158-1.093-1.461-1.751c-0.305-0.658-0.457-1.469-0.457-2.432
		c0-1.649,0.639-2.924,1.918-3.827c1.277-0.902,3.09-1.353,5.436-1.353c2.236,0,4.41,0.487,6.525,1.461l-1.527,3.652
		c-0.93-0.398-1.799-0.725-2.607-0.979c-0.807-0.254-1.633-0.382-2.473-0.382c-1.494,0-2.242,0.404-2.242,1.212
		c0,0.454,0.242,0.847,0.723,1.179c0.482,0.332,1.535,0.825,3.162,1.478c1.451,0.587,2.514,1.135,3.188,1.644
		c0.676,0.509,1.174,1.096,1.494,1.76C345.319,94.44,345.479,95.232,345.479,96.15z"/>
	<path fill="#C73D27" d="M362.379,96.15c0,1.904-0.662,3.354-1.984,4.35s-3.301,1.494-5.936,1.494c-1.35,0-2.5-0.091-3.453-0.274
		c-0.951-0.183-1.842-0.451-2.672-0.805v-4.184c0.939,0.443,2,0.813,3.18,1.112c1.178,0.299,2.215,0.448,3.111,0.448
		c1.838,0,2.756-0.531,2.756-1.594c0-0.398-0.121-0.722-0.365-0.971c-0.242-0.249-0.664-0.531-1.262-0.847s-1.395-0.683-2.391-1.104
		c-1.428-0.598-2.477-1.151-3.145-1.66c-0.67-0.509-1.158-1.093-1.461-1.751c-0.305-0.658-0.457-1.469-0.457-2.432
		c0-1.649,0.639-2.924,1.918-3.827c1.277-0.902,3.09-1.353,5.436-1.353c2.236,0,4.41,0.487,6.525,1.461l-1.527,3.652
		c-0.93-0.398-1.799-0.725-2.607-0.979c-0.807-0.254-1.633-0.382-2.473-0.382c-1.494,0-2.242,0.404-2.242,1.212
		c0,0.454,0.242,0.847,0.723,1.179c0.482,0.332,1.535,0.825,3.162,1.478c1.451,0.587,2.514,1.135,3.188,1.644
		c0.676,0.509,1.174,1.096,1.494,1.76C362.219,94.44,362.379,95.232,362.379,96.15z"/>
	<path fill="#C73D27" d="M385.422,86.903h-4.383v14.759h-5.064V86.903h-2.789v-2.44l2.789-1.361V81.74
		c0-2.114,0.521-3.658,1.561-4.632c1.041-0.974,2.707-1.461,4.998-1.461c1.748,0,3.303,0.26,4.664,0.78l-1.295,3.719
		c-1.018-0.321-1.959-0.481-2.822-0.481c-0.719,0-1.238,0.213-1.561,0.639c-0.32,0.426-0.48,0.971-0.48,1.635v1.162h4.383v3.802
		H385.422z"/>
	<path fill="#C73D27" d="M405.194,92.349c0,3.021-0.797,5.385-2.391,7.089c-1.594,1.705-3.813,2.557-6.656,2.557
		c-1.783,0-3.354-0.39-4.715-1.17s-2.408-1.901-3.139-3.362s-1.096-3.165-1.096-5.113c0-3.032,0.791-5.39,2.375-7.072
		c1.582-1.682,3.807-2.523,6.674-2.523c1.781,0,3.354,0.388,4.715,1.162c1.361,0.775,2.406,1.887,3.137,3.337
		C404.828,88.702,405.194,90.401,405.194,92.349z M392.362,92.349c0,1.837,0.301,3.227,0.904,4.167
		c0.604,0.941,1.586,1.411,2.947,1.411c1.35,0,2.32-0.467,2.912-1.403c0.594-0.935,0.889-2.327,0.889-4.175
		c0-1.837-0.299-3.215-0.896-4.134c-0.598-0.918-1.576-1.378-2.938-1.378c-1.352,0-2.324,0.457-2.922,1.37
		S392.362,90.501,392.362,92.349z"/>
	<path fill="#C73D27" d="M426.244,92.349c0,3.021-0.797,5.385-2.391,7.089c-1.594,1.705-3.813,2.557-6.656,2.557
		c-1.783,0-3.354-0.39-4.715-1.17s-2.408-1.901-3.139-3.362s-1.096-3.165-1.096-5.113c0-3.032,0.791-5.39,2.375-7.072
		c1.582-1.682,3.807-2.523,6.674-2.523c1.781,0,3.354,0.388,4.715,1.162c1.361,0.775,2.406,1.887,3.137,3.337
		C425.879,88.702,426.244,90.401,426.244,92.349z M413.412,92.349c0,1.837,0.301,3.227,0.904,4.167
		c0.604,0.941,1.586,1.411,2.947,1.411c1.35,0,2.32-0.467,2.912-1.403c0.594-0.935,0.889-2.327,0.889-4.175
		c0-1.837-0.299-3.215-0.896-4.134c-0.598-0.918-1.576-1.378-2.938-1.378c-1.352,0-2.324,0.457-2.922,1.37
		S413.412,90.501,413.412,92.349z"/>
	<path fill="#C73D27" d="M436.305,101.994c-2.18,0-3.893-0.847-5.139-2.54c-1.244-1.693-1.867-4.04-1.867-7.039
		c0-3.043,0.635-5.415,1.9-7.114c1.268-1.699,3.014-2.548,5.238-2.548c2.336,0,4.117,0.908,5.346,2.723h0.166
		c-0.254-1.383-0.381-2.617-0.381-3.702V75.83h5.08v25.832h-3.885l-0.98-2.407h-0.215
		C440.416,101.081,438.662,101.994,436.305,101.994z M438.082,97.96c1.295,0,2.244-0.376,2.846-1.129
		c0.604-0.752,0.934-2.031,0.988-3.835v-0.548c0-1.992-0.307-3.42-0.922-4.283c-0.613-0.863-1.611-1.295-2.996-1.295
		c-1.129,0-2.006,0.479-2.631,1.436c-0.625,0.958-0.938,2.349-0.938,4.175s0.314,3.196,0.945,4.109S436.909,97.96,438.082,97.96z"/>
	<path fill="#C73D27" d="M476.034,101.662l-1.428-6.491l-1.926-8.201h-0.117l-3.387,14.692h-5.445l-5.279-18.561h5.047l2.143,8.218
		c0.342,1.472,0.691,3.503,1.045,6.093h0.1c0.045-0.841,0.238-2.175,0.582-4.001L467.635,92l2.291-8.898h5.578L477.678,92
		c0.045,0.244,0.113,0.604,0.207,1.079c0.096,0.476,0.186,0.982,0.275,1.519c0.088,0.537,0.168,1.063,0.24,1.577
		s0.113,0.927,0.125,1.237h0.1c0.1-0.797,0.275-1.89,0.531-3.279c0.254-1.389,0.438-2.327,0.547-2.814l2.225-8.218h4.965
		l-5.346,18.561H476.034z"/>
	<path fill="#C73D27" d="M506.746,92.349c0,3.021-0.797,5.385-2.391,7.089c-1.594,1.705-3.813,2.557-6.658,2.557
		c-1.781,0-3.354-0.39-4.715-1.17s-2.406-1.901-3.137-3.362s-1.096-3.165-1.096-5.113c0-3.032,0.791-5.39,2.373-7.072
		c1.584-1.682,3.809-2.523,6.674-2.523c1.783,0,3.354,0.388,4.715,1.162c1.361,0.775,2.408,1.887,3.139,3.337
		C506.381,88.702,506.746,90.401,506.746,92.349z M493.912,92.349c0,1.837,0.303,3.227,0.906,4.167
		c0.602,0.941,1.584,1.411,2.945,1.411c1.352,0,2.322-0.467,2.914-1.403c0.592-0.935,0.889-2.327,0.889-4.175
		c0-1.837-0.299-3.215-0.896-4.134c-0.598-0.918-1.578-1.378-2.939-1.378c-1.35,0-2.324,0.457-2.922,1.37
		S493.912,90.501,493.912,92.349z"/>
	<path fill="#C73D27" d="M521.289,82.753c0.686,0,1.256,0.05,1.709,0.149l-0.381,4.748c-0.41-0.11-0.908-0.166-1.494-0.166
		c-1.617,0-2.875,0.415-3.777,1.245s-1.354,1.992-1.354,3.486v9.446h-5.063V83.102h3.834l0.748,3.121h0.248
		c0.576-1.04,1.354-1.878,2.334-2.515C519.073,83.071,520.137,82.753,521.289,82.753z"/>
	<path fill="#C73D27" d="M531.233,91.568l2.209-2.822l5.195-5.645h5.711l-7.371,8.052l7.82,10.509h-5.844l-5.346-7.521l-2.176,1.743
		v5.777h-5.063V75.83h5.063v11.521l-0.266,4.217H531.233z"/>
	<path fill="#C73D27" d="M555.854,101.994c-2.988,0-5.324-0.824-7.006-2.474c-1.684-1.649-2.523-3.984-2.523-7.006
		c0-3.11,0.777-5.514,2.332-7.213s3.705-2.548,6.449-2.548c2.623,0,4.666,0.747,6.127,2.241s2.191,3.559,2.191,6.192v2.457h-11.971
		c0.057,1.439,0.482,2.563,1.279,3.37c0.797,0.808,1.914,1.212,3.354,1.212c1.117,0,2.174-0.116,3.17-0.349s2.037-0.603,3.121-1.112
		v3.918c-0.885,0.443-1.832,0.772-2.838,0.988C558.532,101.886,557.303,101.994,555.854,101.994z M555.139,86.356
		c-1.072,0-1.914,0.34-2.523,1.021c-0.607,0.681-0.957,1.646-1.045,2.897h7.105c-0.023-1.25-0.35-2.216-0.98-2.897
		S556.213,86.356,555.139,86.356z"/>
	<path fill="#C73D27" d="M577.901,82.753c0.686,0,1.256,0.05,1.709,0.149l-0.381,4.748c-0.41-0.11-0.908-0.166-1.494-0.166
		c-1.617,0-2.875,0.415-3.777,1.245s-1.354,1.992-1.354,3.486v9.446h-5.063V83.102h3.834l0.748,3.121h0.248
		c0.576-1.04,1.354-1.878,2.334-2.515C575.684,83.071,576.748,82.753,577.901,82.753z"/>
	<path fill="#C73D27" d="M240.041,119.104c0-1.649,0.92-2.474,2.756-2.474c1.838,0,2.756,0.825,2.756,2.474
		c0,0.786-0.229,1.397-0.688,1.834c-0.461,0.438-1.148,0.656-2.068,0.656C240.961,121.594,240.041,120.764,240.041,119.104z
		 M245.321,142.462h-5.063v-18.561h5.063V142.462z"/>
	<path fill="#C73D27" d="M263.582,136.95c0,1.904-0.66,3.354-1.984,4.35c-1.322,0.996-3.301,1.494-5.934,1.494
		c-1.352,0-2.502-0.091-3.453-0.274c-0.953-0.183-1.844-0.451-2.674-0.805v-4.184c0.941,0.443,2,0.813,3.18,1.112
		c1.178,0.299,2.217,0.448,3.113,0.448c1.836,0,2.756-0.531,2.756-1.594c0-0.398-0.123-0.722-0.365-0.971
		c-0.244-0.249-0.664-0.531-1.262-0.847c-0.598-0.316-1.395-0.683-2.391-1.104c-1.428-0.598-2.477-1.151-3.146-1.66
		c-0.67-0.509-1.156-1.093-1.461-1.751s-0.457-1.469-0.457-2.432c0-1.649,0.639-2.924,1.918-3.827
		c1.277-0.902,3.09-1.353,5.438-1.353c2.234,0,4.41,0.487,6.523,1.461l-1.527,3.652c-0.93-0.398-1.799-0.725-2.605-0.979
		c-0.809-0.254-1.633-0.382-2.475-0.382c-1.494,0-2.24,0.404-2.24,1.212c0,0.454,0.24,0.847,0.721,1.179
		c0.482,0.332,1.537,0.825,3.164,1.478c1.449,0.587,2.512,1.135,3.188,1.644c0.674,0.509,1.172,1.096,1.494,1.76
		C263.422,135.24,263.582,136.032,263.582,136.95z"/>
	<path fill="#C73D27" d="M280.483,136.95c0,1.904-0.66,3.354-1.984,4.35c-1.322,0.996-3.301,1.494-5.934,1.494
		c-1.352,0-2.502-0.091-3.453-0.274c-0.953-0.183-1.844-0.451-2.674-0.805v-4.184c0.941,0.443,2,0.813,3.18,1.112
		c1.178,0.299,2.217,0.448,3.113,0.448c1.836,0,2.756-0.531,2.756-1.594c0-0.398-0.123-0.722-0.365-0.971
		c-0.244-0.249-0.664-0.531-1.262-0.847c-0.598-0.316-1.395-0.683-2.391-1.104c-1.428-0.598-2.477-1.151-3.146-1.66
		c-0.67-0.509-1.156-1.093-1.461-1.751s-0.457-1.469-0.457-2.432c0-1.649,0.639-2.924,1.918-3.827
		c1.277-0.902,3.09-1.353,5.438-1.353c2.234,0,4.41,0.487,6.523,1.461l-1.527,3.652c-0.93-0.398-1.799-0.725-2.605-0.979
		c-0.809-0.254-1.633-0.382-2.475-0.382c-1.494,0-2.24,0.404-2.24,1.212c0,0.454,0.24,0.847,0.721,1.179
		c0.482,0.332,1.537,0.825,3.164,1.478c1.449,0.587,2.512,1.135,3.188,1.644c0.674,0.509,1.172,1.096,1.494,1.76
		C280.323,135.24,280.483,136.032,280.483,136.95z"/>
	<path fill="#C73D27" d="M297.582,142.462l-0.68-2.374h-0.266c-0.543,0.863-1.313,1.53-2.309,2s-2.131,0.706-3.402,0.706
		c-2.182,0-3.824-0.583-4.932-1.751c-1.105-1.167-1.66-2.847-1.66-5.039v-12.103h5.064v10.841c0,1.339,0.238,2.344,0.713,3.013
		c0.477,0.67,1.234,1.004,2.275,1.004c1.416,0,2.439-0.473,3.07-1.419c0.631-0.946,0.947-2.515,0.947-4.707v-8.732h5.063v18.561
		H297.582L297.582,142.462z"/>
	<path fill="#C73D27" d="M315.18,142.794c-2.988,0-5.322-0.824-7.006-2.474c-1.682-1.649-2.523-3.984-2.523-7.006
		c0-3.11,0.777-5.514,2.332-7.213c1.557-1.699,3.705-2.548,6.451-2.548c2.623,0,4.664,0.747,6.125,2.241s2.191,3.559,2.191,6.192
		v2.457h-11.969c0.055,1.439,0.48,2.563,1.277,3.37c0.797,0.808,1.916,1.212,3.354,1.212c1.119,0,2.176-0.116,3.172-0.349
		s2.035-0.603,3.121-1.112v3.918c-0.887,0.443-1.832,0.772-2.84,0.988C317.86,142.686,316.631,142.794,315.18,142.794z
		 M314.467,127.155c-1.074,0-1.916,0.34-2.523,1.021c-0.609,0.681-0.957,1.646-1.047,2.897h7.105
		c-0.021-1.25-0.348-2.216-0.979-2.897S315.539,127.155,314.467,127.155z"/>
	<path fill="#C73D27" d="M339.817,136.95c0,1.904-0.66,3.354-1.984,4.35c-1.322,0.996-3.301,1.494-5.934,1.494
		c-1.352,0-2.502-0.091-3.453-0.274c-0.953-0.183-1.844-0.451-2.674-0.805v-4.184c0.941,0.443,2,0.813,3.18,1.112
		c1.178,0.299,2.217,0.448,3.113,0.448c1.836,0,2.756-0.531,2.756-1.594c0-0.398-0.123-0.722-0.365-0.971
		c-0.244-0.249-0.664-0.531-1.262-0.847c-0.598-0.316-1.395-0.683-2.391-1.104c-1.428-0.598-2.477-1.151-3.146-1.66
		c-0.67-0.509-1.156-1.093-1.461-1.751s-0.457-1.469-0.457-2.432c0-1.649,0.639-2.924,1.918-3.827
		c1.277-0.902,3.09-1.353,5.438-1.353c2.234,0,4.41,0.487,6.523,1.461l-1.527,3.652c-0.93-0.398-1.799-0.725-2.605-0.979
		c-0.809-0.254-1.633-0.382-2.475-0.382c-1.494,0-2.24,0.404-2.24,1.212c0,0.454,0.24,0.847,0.721,1.179
		c0.482,0.332,1.537,0.825,3.164,1.478c1.449,0.587,2.512,1.135,3.188,1.644c0.674,0.509,1.172,1.096,1.494,1.76
		C339.657,135.24,339.817,136.032,339.817,136.95z"/>
	<path fill="#C73D27" d="M352.385,119.104c0-1.649,0.918-2.474,2.756-2.474c1.836,0,2.756,0.825,2.756,2.474
		c0,0.786-0.23,1.397-0.689,1.834c-0.459,0.438-1.148,0.656-2.066,0.656C353.303,121.594,352.385,120.764,352.385,119.104z
		 M357.664,142.462H352.6v-18.561h5.064V142.462z"/>
	<path fill="#C73D27" d="M380.11,142.462h-5.064v-10.841c0-1.339-0.238-2.343-0.713-3.013c-0.477-0.669-1.234-1.004-2.275-1.004
		c-1.416,0-2.439,0.473-3.07,1.419s-0.947,2.515-0.947,4.707v8.732h-5.063v-18.561h3.867l0.682,2.374h0.281
		c0.564-0.896,1.342-1.574,2.334-2.034c0.99-0.459,2.115-0.689,3.377-0.689c2.158,0,3.797,0.584,4.914,1.751
		c1.119,1.168,1.678,2.853,1.678,5.055L380.11,142.462L380.11,142.462z"/>
	<path fill="#C73D27" d="M391.498,123.901h5.545l3.502,10.442c0.299,0.908,0.504,1.981,0.615,3.221h0.1
		c0.121-1.14,0.359-2.213,0.713-3.221l3.438-10.442h5.428l-7.852,20.935c-0.721,1.937-1.746,3.387-3.08,4.35
		s-2.891,1.444-4.674,1.444c-0.873,0-1.732-0.094-2.572-0.282v-4.018c0.607,0.144,1.271,0.216,1.992,0.216
		c0.896,0,1.68-0.274,2.35-0.822c0.668-0.548,1.191-1.375,1.568-2.482l0.299-0.913L391.498,123.901z"/>
	<path fill="#C73D27" d="M430.362,133.148c0,3.021-0.797,5.385-2.391,7.089c-1.594,1.705-3.813,2.557-6.656,2.557
		c-1.783,0-3.354-0.39-4.715-1.17s-2.408-1.901-3.139-3.362s-1.096-3.165-1.096-5.113c0-3.032,0.791-5.39,2.375-7.072
		c1.582-1.682,3.807-2.523,6.674-2.523c1.781,0,3.354,0.388,4.715,1.162c1.361,0.775,2.406,1.887,3.137,3.337
		C429.996,129.502,430.362,131.201,430.362,133.148z M417.53,133.148c0,1.837,0.301,3.227,0.904,4.167
		c0.604,0.941,1.586,1.411,2.947,1.411c1.35,0,2.32-0.467,2.912-1.403c0.594-0.935,0.889-2.327,0.889-4.175
		c0-1.837-0.299-3.215-0.896-4.134c-0.598-0.918-1.576-1.378-2.938-1.378c-1.352,0-2.324,0.457-2.922,1.37
		C417.828,129.919,417.53,131.3,417.53,133.148z"/>
	<path fill="#C73D27" d="M447.694,142.462l-0.68-2.374h-0.266c-0.543,0.863-1.313,1.53-2.309,2s-2.131,0.706-3.402,0.706
		c-2.182,0-3.824-0.583-4.932-1.751c-1.105-1.167-1.66-2.847-1.66-5.039v-12.103h5.064v10.841c0,1.339,0.238,2.344,0.713,3.013
		c0.477,0.67,1.234,1.004,2.275,1.004c1.416,0,2.439-0.473,3.07-1.419c0.631-0.946,0.947-2.515,0.947-4.707v-8.732h5.063v18.561
		H447.694L447.694,142.462z"/>
	<path fill="#C73D27" d="M467.25,123.553c0.688,0,1.256,0.05,1.711,0.149l-0.383,4.748c-0.408-0.11-0.906-0.166-1.494-0.166
		c-1.615,0-2.875,0.415-3.777,1.245c-0.9,0.83-1.352,1.992-1.352,3.486v9.446h-5.064V123.9h3.836l0.746,3.121h0.25
		c0.574-1.04,1.352-1.878,2.332-2.515C465.034,123.871,466.1,123.553,467.25,123.553z"/>
	<path fill="#C73D27" d="M487.039,142.794c-2.18,0-3.893-0.847-5.139-2.54c-1.244-1.693-1.867-4.04-1.867-7.039
		c0-3.043,0.635-5.415,1.9-7.114c1.268-1.699,3.014-2.548,5.238-2.548c2.336,0,4.117,0.908,5.346,2.723h0.166
		c-0.254-1.383-0.381-2.617-0.381-3.702v-5.943h5.08v25.832h-3.885l-0.98-2.407h-0.215
		C491.151,141.881,489.397,142.794,487.039,142.794z M488.817,138.76c1.295,0,2.244-0.376,2.846-1.129
		c0.604-0.752,0.934-2.031,0.988-3.835v-0.548c0-1.992-0.307-3.42-0.922-4.283c-0.613-0.863-1.611-1.295-2.996-1.295
		c-1.129,0-2.006,0.479-2.631,1.436c-0.625,0.958-0.938,2.349-0.938,4.175c0,1.826,0.314,3.196,0.945,4.109
		S487.643,138.76,488.817,138.76z"/>
	<path fill="#C73D27" d="M514.465,142.462l-0.979-2.523h-0.133c-0.854,1.074-1.73,1.818-2.633,2.233
		c-0.9,0.415-2.076,0.623-3.527,0.623c-1.781,0-3.184-0.509-4.209-1.527c-1.023-1.018-1.535-2.468-1.535-4.35
		c0-1.97,0.689-3.422,2.066-4.358c1.379-0.935,3.457-1.453,6.234-1.552l3.221-0.1v-0.813c0-1.881-0.963-2.822-2.889-2.822
		c-1.482,0-3.227,0.448-5.229,1.345l-1.678-3.42c2.137-1.118,4.506-1.677,7.105-1.677c2.49,0,4.4,0.542,5.729,1.627
		c1.328,1.085,1.992,2.734,1.992,4.947v12.368h-3.535V142.462z M512.971,133.862l-1.959,0.066c-1.471,0.044-2.566,0.31-3.287,0.797
		c-0.719,0.487-1.078,1.229-1.078,2.225c0,1.428,0.818,2.142,2.457,2.142c1.172,0,2.111-0.337,2.813-1.013
		c0.703-0.675,1.055-1.571,1.055-2.689L512.971,133.862L512.971,133.862z"/>
	<path fill="#C73D27" d="M522.998,119.104c0-1.649,0.92-2.474,2.756-2.474c1.838,0,2.756,0.825,2.756,2.474
		c0,0.786-0.229,1.397-0.688,1.834c-0.461,0.438-1.148,0.656-2.068,0.656C523.918,121.594,522.998,120.764,522.998,119.104z
		 M528.278,142.462h-5.063v-18.561h5.063V142.462z"/>
	<path fill="#C73D27" d="M538.655,142.462h-5.064V116.63h5.064V142.462z"/>
	<path fill="#C73D27" d="M541.311,123.901h5.545l3.502,10.442c0.299,0.908,0.504,1.981,0.615,3.221h0.1
		c0.121-1.14,0.359-2.213,0.713-3.221l3.438-10.442h5.428l-7.852,20.935c-0.721,1.937-1.746,3.387-3.08,4.35
		s-2.891,1.444-4.674,1.444c-0.873,0-1.732-0.094-2.572-0.282v-4.018c0.607,0.144,1.271,0.216,1.992,0.216
		c0.896,0,1.68-0.274,2.35-0.822c0.668-0.548,1.191-1.375,1.568-2.482l0.299-0.913L541.311,123.901z"/>
	<path fill="#C73D27" d="M577.203,142.462h-5.064V116.63h5.064V142.462z"/>
	<path fill="#C73D27" d="M582.299,119.104c0-1.649,0.92-2.474,2.756-2.474c1.838,0,2.756,0.825,2.756,2.474
		c0,0.786-0.229,1.397-0.688,1.834c-0.461,0.438-1.148,0.656-2.068,0.656C583.219,121.594,582.299,120.764,582.299,119.104z
		 M587.578,142.462h-5.063v-18.561h5.063V142.462z"/>
	<path fill="#C73D27" d="M603.151,127.703h-4.383v14.759h-5.063v-14.759h-2.789v-2.44l2.789-1.361v-1.361
		c0-2.114,0.52-3.658,1.561-4.632c1.039-0.974,2.705-1.461,4.996-1.461c1.75,0,3.305,0.26,4.666,0.78l-1.295,3.719
		c-1.02-0.321-1.959-0.481-2.822-0.481c-0.721,0-1.24,0.213-1.561,0.639c-0.322,0.426-0.482,0.971-0.482,1.635v1.162h4.383
		L603.151,127.703L603.151,127.703z"/>
	<path fill="#C73D27" d="M614.457,142.794c-2.988,0-5.324-0.824-7.006-2.474c-1.684-1.649-2.523-3.984-2.523-7.006
		c0-3.11,0.777-5.514,2.332-7.213s3.705-2.548,6.449-2.548c2.623,0,4.666,0.747,6.127,2.241s2.191,3.559,2.191,6.192v2.457h-11.971
		c0.057,1.439,0.482,2.563,1.279,3.37c0.797,0.808,1.914,1.212,3.354,1.212c1.117,0,2.174-0.116,3.17-0.349s2.037-0.603,3.121-1.112
		v3.918c-0.885,0.443-1.832,0.772-2.838,0.988C617.135,142.686,615.907,142.794,614.457,142.794z M613.743,127.155
		c-1.072,0-1.914,0.34-2.523,1.021c-0.607,0.681-0.957,1.646-1.045,2.897h7.105c-0.023-1.25-0.35-2.216-0.98-2.897
		S614.817,127.155,613.743,127.155z"/>
</g>
<g>
	<g>
		<path fill="#C73D27" d="M49.047,79.239c1.186,0,1.582,1.582,4.745-0.395c2.372,1.186,2.768,0.791,4.745-0.791
			c2.372,0.791,3.559,0.395,4.349-0.395c0,0,0-0.395,0.395-0.395c0.395,2.372,2.372,4.349,4.745,4.745
			c3.954,0.791,6.722-2.372,6.722-2.372s2.372-1.186,2.768-1.977s-1.186-0.791-1.977-1.977c0.395-2.372-1.582-5.536-5.14-6.327
			c-2.768-0.791-6.326,1.977-7.117,4.349c0,0.395,0,0.791,0,1.186c-0.395-0.395-0.395-0.395-0.395-0.395s-2.372-0.791-4.745,1.582
			c-1.582-0.395-3.163-0.791-4.349,1.186c-1.582-0.791-3.954,0.395-4.745,1.582c-1.186,1.582-4.349-0.791-4.349-0.791l0.395,3.954
			C45.093,82.005,47.861,79.239,49.047,79.239z"/>
		<path fill="#C73D27" d="M213.144,121.153c-2.372-4.349-4.349-1.977-5.536-2.768c-1.186-0.791-0.395-3.954-1.977-5.536
			c-1.582-1.977-3.954-0.395-5.14-1.582c-1.186-1.187-0.395-2.372-1.582-4.349s-3.559-1.582-3.954-1.582
			c-0.791-1.186-1.977-1.582-3.163-1.977c-2.768-0.791-5.536,1.186-6.326,2.768c-2.768-0.395-3.954,1.977-0.791,2.768
			c0.791,2.372,1.977,4.745,4.745,5.14c1.186,0.395,2.372,0,3.559-0.395c0,0,0.395,1.582,1.582,2.768
			c-2.768-0.395-9.094,11.467-12.259,17.793c0,0-4.349-3.163-5.931-3.163c-0.791,0-1.186,1.977-1.582,4.349l0,0
			c-3.559-1.977-10.676,2.372-12.258,2.372s-4.745-1.582-5.931-1.186c-1.582,0.395,4.349,7.908,4.349,7.908h0.395
			c-1.582,0.791-2.372,1.186-3.163,1.186c-1.582,0-7.513-1.582-7.513-0.791c0,0.791,9.49,7.513,9.49,7.513
			s11.862-3.163,16.212-4.349c0.791,0,1.977,0,2.768,0c-1.186,0.791-1.186,1.582-0.791,1.582c0.791,0,5.14,0.791,8.304-0.395
			c3.954,0.791,8.699,0.791,13.048-1.186c4.349-1.977,3.954-10.281,2.372-17.793L213.144,121.153z M182.302,134.992L182.302,134.992
			l0.395-0.395C182.302,134.596,182.302,134.596,182.302,134.992z"/>
		<path fill="#C73D27" d="M24.926,112.848c-0.791,0.395-3.954,2.768-2.768,3.954c1.582,1.582,4.349-1.186,4.349-1.186
			s-2.372,2.372-0.395,3.954c1.977,1.186,5.14-5.14,5.536-5.931c1.186,1.186,2.372,1.977,3.559,1.977
			c1.977,0.395,3.954-0.395,5.14-1.582v0.395c0,0,4.349-0.395,4.349-1.977s-2.372-1.582-2.372-1.582l0,0
			c0.395-2.768-0.395-6.327-5.14-7.513c-2.372-0.395-6.722,1.186-7.117,5.536l-0.395-1.186c0,0-9.885,0.791-9.49,4.349
			C20.972,114.825,24.136,113.243,24.926,112.848z"/>
		<path fill="#C73D27" d="M76.725,145.272c-0.791,0.395-1.582,1.582-2.768,2.372c0-3.954,0-8.304-1.186-8.304
			c-1.582,0-3.954,5.931-4.745,6.327s-5.536,1.186-7.908,1.977c-2.372-0.395-5.536-0.791-8.699-0.791
			c-4.349-3.954-11.071-26.889-16.213-26.889c-0.791,0-3.559,3.559-5.536,8.699v-0.395c-1.186,3.163-5.14,23.33-4.745,24.516
			c0.395,1.582-9.49,3.954-6.326,5.14h14.236c0,0,0.395-2.372,0.395-5.14c1.582,1.582,3.559,2.768,5.536,3.954
			c14.63,0,35.587,0,35.587,0s3.559-8.699,3.954-10.281C79.098,145.272,78.307,144.086,76.725,145.272z"/>
		<path fill="#C73D27" d="M154.227,128.665c0.791,0,1.186,0,1.977,0c3.163,0,8.699,1.582,11.467-3.163
			c3.954-6.326-2.768-36.774-6.722-36.774c-0.395,0-0.395,0-0.791,0l0,0c-22.935,3.163-23.33,16.607-23.724,18.584
			c0.395,1.186,2.768,0,3.163-0.395c1.186-0.791,1.582-1.582,1.977-2.768c0,2.372,1.582,4.745,4.349,5.14c-0.395,0-1.186,0-1.977,0
			c-3.954,0.791-7.513,13.839-7.513,13.839s-6.722,3.954-5.14,4.745c1.582,0.791,10.281-1.186,10.281-1.186l5.536-7.908
			c0,0.395,0,0.791,0,1.186c-1.186,4.745-1.582,9.885-1.582,9.885l-4.349,2.768c0,0,1.186,2.372,11.862-0.791
			C153.436,130.642,153.833,129.456,154.227,128.665z M145.923,109.289c2.372,0.395,5.14-0.791,5.931-3.559
			c0.791-2.372,0-5.536-2.768-6.722c-0.791-0.395-1.977-0.395-2.768-0.395c2.372-1.186,6.326-1.977,8.699-2.768
			c-2.372,7.117-3.559,17.002-3.559,17.002S149.087,109.685,145.923,109.289z"/>
		<path fill="#C73D27" d="M156.995,74.097c-1.186,1.186-1.977,2.768-1.977,3.163c-0.395,1.186-2.372,0.395-2.372,1.186
			c-0.395,0.791,1.977,2.768,1.977,2.768s1.977,3.954,5.14,3.954c3.163,0,6.326-1.582,6.722-5.536
			c0.395-3.559-1.582-6.722-5.14-7.513c-1.186-0.395-2.372,0.395-3.559,0.791l-5.536-3.954
			C153.436,71.329,155.018,72.911,156.995,74.097z"/>
		<path fill="#C73D27" d="M124.176,102.963c-2.372-0.395-7.117,3.559-9.094,5.931c-1.977-1.186-5.536-22.935-7.513-22.144
			c-1.186,0.395-2.372,0.791-3.559,1.977c-4.745,2.372-16.213,30.052-16.607,31.238c-0.395,0.791-1.582,1.977-2.768,2.768
			c-3.954-3.163-7.117-5.14-9.885-6.722c0.395-5.14,0-10.281-2.372-11.071c1.186,0,1.977,0.395,2.768,0.791
			c1.186,1.582,2.372,4.745,2.768,3.954c0.791-1.977,0.395-7.117-1.582-8.304c-0.791-0.395-0.791-1.186-8.304-0.791
			c-0.395-7.117-1.582-14.63-3.559-15.816c-3.954-1.977-21.353,22.935-12.258,39.146c7.513,0.791,8.699,0.395,13.444-3.163
			c-0.395,1.582-1.582,11.071-1.582,11.071s8.699,1.977,13.444,1.186c2.768-0.791-4.349-4.745-4.349-4.745s0-1.186,0.395-2.768
			c4.745,3.954,10.676,9.885,12.653,11.467c4.745-0.395,10.676-7.117,9.885-7.513c-1.582-0.791-2.768,0-5.14,0
			c-1.582-1.977-3.163-3.559-4.745-4.745c1.582-0.395,3.559-0.791,5.14-1.186c4.745,5.536,20.167,3.559,20.167,3.559
			s2.372,7.908,3.163,7.908c0.395,0,1.186-1.582,1.977-3.954c3.559,1.582,9.094,0.395,9.094,0.395s-0.791-2.768-1.977-4.745
			C127.339,110.871,125.758,102.963,124.176,102.963z M68.817,106.126v-0.395c0.791-0.395,1.582-0.395,1.977-0.395
			C70.399,105.335,69.608,105.731,68.817,106.126z M99.265,112.848C99.265,112.848,99.265,113.243,99.265,112.848L99.265,112.848
			L99.265,112.848z"/>
		<path fill="#C73D27" d="M106.382,83.588c2.768,0.395,7.117-1.977,7.513-5.931c0-1.186,0-2.372-0.395-3.559l0,0
			c0,0,0,0-0.395-0.395c-0.791-1.977-2.372-3.954-4.745-3.954c-3.954-0.395-7.908,2.372-7.908,6.722
			C100.452,80.821,103.614,83.193,106.382,83.588z"/>
	</g>
</g>
</svg>
