<?xml version="1.0" encoding="utf-8"?>
<!-- Generator: Adobe Illustrator 17.0.0, SVG Export Plug-In . SVG Version: 6.00 Build 0)  -->
<!DOCTYPE svg PUBLIC "-//W3C//DTD SVG 1.1//EN" "http://www.w3.org/Graphics/SVG/1.1/DTD/svg11.dtd">
<svg version="1.1" id="Layer_1" xmlns="http://www.w3.org/2000/svg" xmlns:xlink="http://www.w3.org/1999/xlink" x="0px" y="0px"
	 width="640px" height="220.5px" viewBox="0 0 640 220.5" enable-background="new 0 0 640 220.5" xml:space="preserve">
<g>
	<g>
		<path fill="#C73D27" d="M204.731,95.439l-20.435,9.657l-0.031-0.03c0,0-18.32,0.643-33.547,7.107
			c-4.605,1.96-8.984,4.472-12.888,7.045l-14.37-43.789c-0.025-0.063-0.679-1.67-2.244-1.994l-32.26-4.644l0.008-21.588l-0.048-0.39
			h-9.064v20.246L47.99,62.15c-1.76,0-2.558,1.996-2.592,2.086L23.41,130.973c-0.1,0.309-0.129,0.658-0.041,1.336
			c0.054,0.324,0.173,0.649,0.473,1.172c0.183,0.253,0.419,0.482,0.643,0.643c0.095,0.113,9.641,10.872,23.512,10.872
			c14.136,0,23.413-10.769,23.441-10.815c0.28-0.197,0.513-0.429,0.829-0.886c0.198-0.361,0.319-0.676,0.419-1.256
			c0.025-0.421-0.006-0.759-0.17-1.247l-20.167-62.08l27.503,3.891v92.014H61.958v9.07h44.437v-9.07h-17.49l0.051-90.286
			l28.016,4.299l-20.779,63.517c-0.099,0.307-0.129,0.657-0.041,1.332c0.054,0.326,0.173,0.653,0.474,1.172
			c0.183,0.254,0.419,0.486,0.643,0.645c0.095,0.113,9.644,10.875,23.515,10.875c14.135,0,23.412-10.771,23.439-10.817
			c0.28-0.199,0.514-0.426,0.829-0.886c0.201-0.361,0.315-0.676,0.421-1.255c0.025-0.419-0.006-0.76-0.172-1.247l-4.361-13.29
			c5.592-2.346,10.247-3.344,10.247-3.344s-5.547,9.657-3.43,16.448c0.701,2.309,2.199,3.499,3.426,4.1
			c0.564-2.733,1.733-7.042,4.023-10.74c2.669-4.313,4.89-5.952,4.983-6.018c0.727-0.524,1.708-0.294,2.181,0.544
			c0.477,0.844,0.264,1.95-0.458,2.472c-0.041,0.044-1.847,1.432-4.117,5.093c-2.595,4.194-3.571,9.487-3.829,11.249
			c0.543,1.069,1.376,2.353,2.554,3.23c0.706,0.539,1.402,0.695,2.019,0.683c0.405-2.365,1.153-5.386,2.511-8.018
			c1.95-3.781,3.66-5.169,3.849-5.317c0.722-0.568,1.707-0.349,2.195,0.463c0.495,0.818,0.324,1.931-0.378,2.472
			c-0.054,0.056-1.366,1.187-2.936,4.225c-1.027,2.004-1.656,4.352-2.027,6.322c0.62,1.036,1.597,2.338,2.724,2.685
			c4.361,1.337,6.696-3.168,6.696-3.168l2.932-5.746c0,0,4.446,0.523,7.311-0.915c8.169-3.55,15.658-16.328,17.065-18.867
			l15.171-7.163L204.731,95.439z M65.691,128.925H30.307l17.69-55.457L65.691,128.925z M103.089,140.096l17.693-55.455
			l12.127,38.015c-6.649,4.923-10.996,9.225-10.996,9.225s-2.554,2.92-1.26,4.739c1.675,2.395,3.561,0.793,4.78,0.161
			c1.207-0.609,4.276-2.696,10.189-5.627l2.855,8.943L103.089,140.096L103.089,140.096z"/>
	</g>
</g>
<g>
	<path fill="#C73D27" d="M247.436,56.31c-1.937,0-3.437,0.728-4.499,2.183c-1.063,1.456-1.594,3.484-1.594,6.084
		c0,5.412,2.031,8.118,6.093,8.118c1.704,0,3.769-0.426,6.192-1.278v4.316c-1.992,0.83-4.217,1.245-6.674,1.245
		c-3.53,0-6.231-1.071-8.102-3.212s-2.806-5.215-2.806-9.222c0-2.523,0.459-4.734,1.378-6.632s2.238-3.354,3.959-4.366
		c1.722-1.013,3.738-1.519,6.052-1.519c2.357,0,4.726,0.57,7.105,1.71l-1.66,4.184c-0.907-0.432-1.82-0.808-2.739-1.129
		C249.222,56.47,248.321,56.31,247.436,56.31z"/>
	<path fill="#C73D27" d="M270.179,76.647l-0.979-2.523h-0.133c-0.853,1.074-1.729,1.818-2.632,2.233
		c-0.901,0.415-2.077,0.623-3.527,0.623c-1.782,0-3.185-0.509-4.209-1.527c-1.023-1.018-1.535-2.468-1.535-4.35
		c0-1.97,0.689-3.422,2.066-4.358c1.379-0.935,3.456-1.453,6.234-1.552l3.221-0.1V64.28c0-1.881-0.963-2.822-2.889-2.822
		c-1.483,0-3.227,0.448-5.229,1.345l-1.677-3.42c2.136-1.118,4.505-1.677,7.105-1.677c2.49,0,4.399,0.542,5.728,1.627
		c1.328,1.085,1.992,2.734,1.992,4.947v12.368L270.179,76.647L270.179,76.647z M268.685,68.047l-1.959,0.066
		c-1.472,0.044-2.567,0.31-3.287,0.797c-0.72,0.487-1.079,1.229-1.079,2.225c0,1.428,0.819,2.142,2.457,2.142
		c1.173,0,2.111-0.337,2.813-1.013c0.703-0.675,1.055-1.571,1.055-2.689L268.685,68.047L268.685,68.047z"/>
	<path fill="#C73D27" d="M283.992,76.647h-5.063V50.815h5.063V76.647z"/>
	<path fill="#C73D27" d="M294.368,76.647h-5.063V50.815h5.063V76.647z"/>
	<path fill="#C73D27" d="M325.38,67.333c0,3.021-0.797,5.385-2.391,7.089c-1.594,1.705-3.813,2.557-6.657,2.557
		c-1.782,0-3.354-0.39-4.715-1.17s-2.407-1.901-3.138-3.362s-1.096-3.165-1.096-5.113c0-3.032,0.791-5.39,2.374-7.072
		s3.808-2.523,6.674-2.523c1.782,0,3.354,0.388,4.715,1.162c1.361,0.775,2.407,1.887,3.138,3.337
		C325.014,63.687,325.38,65.386,325.38,67.333z M312.547,67.333c0,1.837,0.302,3.227,0.905,4.167
		c0.603,0.941,1.585,1.411,2.946,1.411c1.351,0,2.321-0.467,2.913-1.403c0.593-0.935,0.889-2.327,0.889-4.175
		c0-1.837-0.299-3.215-0.896-4.134c-0.598-0.918-1.577-1.378-2.938-1.378c-1.351,0-2.324,0.457-2.922,1.37
		S312.547,65.485,312.547,67.333z"/>
	<path fill="#C73D27" d="M346.696,76.647h-5.063V65.806c0-1.339-0.238-2.343-0.714-3.013c-0.476-0.669-1.234-1.004-2.274-1.004
		c-1.417,0-2.44,0.473-3.071,1.419s-0.946,2.515-0.946,4.707v8.732h-5.063V58.086h3.868l0.681,2.374h0.282
		c0.564-0.896,1.342-1.574,2.333-2.034c0.99-0.459,2.116-0.689,3.378-0.689c2.158,0,3.796,0.584,4.914,1.751
		c1.118,1.168,1.677,2.853,1.677,5.055v12.104H346.696z"/>
	<path fill="#C73D27" d="M370.934,76.979c-2.181,0-3.891-0.791-5.13-2.374h-0.266c0.177,1.55,0.266,2.446,0.266,2.689v7.521h-5.063
		V58.086h4.117l0.714,2.407h0.232c1.185-1.837,2.938-2.756,5.263-2.756c2.191,0,3.907,0.847,5.146,2.54
		c1.239,1.693,1.859,4.045,1.859,7.056c0,1.981-0.291,3.702-0.871,5.163c-0.582,1.461-1.409,2.573-2.482,3.337
		S372.385,76.979,370.934,76.979z M369.44,61.788c-1.251,0-2.164,0.385-2.739,1.154c-0.575,0.77-0.874,2.04-0.896,3.81V67.3
		c0,1.992,0.296,3.42,0.888,4.283c0.593,0.863,1.53,1.295,2.814,1.295c2.269,0,3.403-1.87,3.403-5.611
		c0-1.826-0.279-3.196-0.839-4.109C371.513,62.245,370.636,61.788,369.44,61.788z"/>
	<path fill="#C73D27" d="M399.124,67.333c0,3.021-0.797,5.385-2.391,7.089c-1.594,1.705-3.813,2.557-6.657,2.557
		c-1.782,0-3.354-0.39-4.715-1.17s-2.407-1.901-3.138-3.362s-1.096-3.165-1.096-5.113c0-3.032,0.791-5.39,2.374-7.072
		s3.808-2.523,6.674-2.523c1.782,0,3.354,0.388,4.715,1.162c1.361,0.775,2.407,1.887,3.138,3.337
		C398.759,63.687,399.124,65.386,399.124,67.333z M386.291,67.333c0,1.837,0.302,3.227,0.905,4.167
		c0.603,0.941,1.585,1.411,2.946,1.411c1.351,0,2.321-0.467,2.913-1.403c0.593-0.935,0.889-2.327,0.889-4.175
		c0-1.837-0.299-3.215-0.896-4.134c-0.598-0.918-1.577-1.378-2.938-1.378c-1.351,0-2.324,0.457-2.922,1.37
		S386.291,65.485,386.291,67.333z"/>
	<path fill="#C73D27" d="M408.371,76.647h-5.063V50.815h5.063V76.647z"/>
	<path fill="#C73D27" d="M413.468,53.288c0-1.649,0.919-2.474,2.756-2.474s2.756,0.825,2.756,2.474c0,0.786-0.229,1.397-0.688,1.834
		c-0.46,0.438-1.148,0.656-2.067,0.656C414.387,55.779,413.468,54.949,413.468,53.288z M418.747,76.647h-5.063V58.086h5.063V76.647z
		"/>
	<path fill="#C73D27" d="M431.596,76.979c-5.777,0-8.666-3.171-8.666-9.513c0-3.154,0.786-5.564,2.357-7.23
		c1.571-1.666,3.824-2.499,6.757-2.499c2.147,0,4.073,0.421,5.777,1.262l-1.494,3.918c-0.797-0.321-1.538-0.583-2.225-0.789
		c-0.687-0.205-1.372-0.307-2.059-0.307c-2.634,0-3.951,1.871-3.951,5.611c0,3.63,1.317,5.445,3.951,5.445
		c0.974,0,1.876-0.13,2.706-0.39s1.66-0.667,2.49-1.22V75.6c-0.819,0.521-1.646,0.88-2.482,1.079
		C433.924,76.879,432.869,76.979,431.596,76.979z"/>
	<path fill="#C73D27" d="M438.885,58.086h5.545l3.503,10.442c0.299,0.908,0.504,1.981,0.614,3.221h0.1
		c0.122-1.14,0.359-2.213,0.714-3.221l3.437-10.442h5.429l-7.853,20.935c-0.72,1.937-1.746,3.387-3.08,4.35
		c-1.333,0.963-2.891,1.444-4.673,1.444c-0.874,0-1.732-0.094-2.573-0.282v-4.018c0.608,0.144,1.272,0.216,1.992,0.216
		c0.896,0,1.68-0.274,2.35-0.822c0.669-0.548,1.192-1.375,1.568-2.482l0.299-0.913L438.885,58.086z"/>
	<path fill="#C73D27" d="M477.5,76.647h-5.063V65.806c0-1.339-0.225-2.343-0.672-3.013c-0.449-0.669-1.154-1.004-2.117-1.004
		c-1.295,0-2.235,0.476-2.822,1.428s-0.88,2.518-0.88,4.698v8.732h-5.063V58.086h3.868l0.681,2.374h0.282
		c0.498-0.852,1.218-1.519,2.158-2s2.02-0.722,3.237-0.722c2.778,0,4.659,0.908,5.645,2.723h0.448
		c0.498-0.863,1.231-1.533,2.2-2.009c0.968-0.476,2.061-0.714,3.278-0.714c2.103,0,3.694,0.54,4.772,1.619
		c1.08,1.079,1.619,2.809,1.619,5.188v12.103h-5.08V65.806c0-1.339-0.225-2.343-0.672-3.013c-0.449-0.669-1.154-1.004-2.117-1.004
		c-1.239,0-2.166,0.443-2.781,1.328c-0.613,0.886-0.921,2.291-0.921,4.217L477.5,76.647L477.5,76.647z"/>
	<path fill="#C73D27" d="M506.054,76.647l-0.979-2.523h-0.133c-0.853,1.074-1.729,1.818-2.632,2.233
		c-0.901,0.415-2.077,0.623-3.527,0.623c-1.782,0-3.185-0.509-4.209-1.527c-1.023-1.018-1.535-2.468-1.535-4.35
		c0-1.97,0.689-3.422,2.066-4.358c1.379-0.935,3.456-1.453,6.234-1.552l3.221-0.1V64.28c0-1.881-0.963-2.822-2.889-2.822
		c-1.483,0-3.227,0.448-5.229,1.345l-1.677-3.42c2.136-1.118,4.505-1.677,7.105-1.677c2.49,0,4.399,0.542,5.728,1.627
		c1.328,1.085,1.992,2.734,1.992,4.947v12.368L506.054,76.647L506.054,76.647z M504.56,68.047l-1.959,0.066
		c-1.472,0.044-2.567,0.31-3.287,0.797c-0.72,0.487-1.079,1.229-1.079,2.225c0,1.428,0.819,2.142,2.457,2.142
		c1.173,0,2.111-0.337,2.813-1.013c0.703-0.675,1.055-1.571,1.055-2.689L504.56,68.047L504.56,68.047z"/>
	<path fill="#C73D27" d="M519.668,66.553l2.208-2.822l5.196-5.645h5.711l-7.371,8.052l7.819,10.509h-5.844l-5.346-7.521
		l-2.175,1.743v5.777h-5.063V50.815h5.063v11.521l-0.266,4.217H519.668z"/>
	<path fill="#C73D27" d="M544.288,76.979c-2.988,0-5.323-0.824-7.006-2.474c-1.683-1.649-2.523-3.984-2.523-7.006
		c0-3.11,0.777-5.514,2.332-7.213c1.556-1.699,3.705-2.548,6.45-2.548c2.623,0,4.665,0.747,6.126,2.241s2.191,3.559,2.191,6.192
		v2.457h-11.97c0.056,1.439,0.481,2.563,1.278,3.37c0.797,0.808,1.915,1.212,3.354,1.212c1.118,0,2.175-0.116,3.171-0.349
		s2.036-0.603,3.121-1.112v3.918c-0.886,0.443-1.832,0.772-2.839,0.988S545.738,76.979,544.288,76.979z M543.574,61.34
		c-1.073,0-1.915,0.34-2.523,1.021s-0.957,1.646-1.046,2.897h7.105c-0.022-1.25-0.349-2.216-0.979-2.897
		S544.647,61.34,543.574,61.34z"/>
	<path fill="#C73D27" d="M566.335,57.738c0.687,0,1.256,0.05,1.71,0.149l-0.382,4.748c-0.409-0.11-0.907-0.166-1.494-0.166
		c-1.616,0-2.875,0.415-3.777,1.245c-0.901,0.83-1.353,1.992-1.353,3.486v9.446h-5.063v-18.56h3.835l0.747,3.121h0.249
		c0.575-1.04,1.353-1.878,2.333-2.515C564.118,58.056,565.183,57.738,566.335,57.738z"/>
	<path fill="#C73D27" d="M584.364,71.135c0,1.904-0.661,3.354-1.984,4.35c-1.322,0.996-3.301,1.494-5.935,1.494
		c-1.351,0-2.501-0.091-3.453-0.274s-1.843-0.451-2.673-0.805v-4.184c0.94,0.443,2,0.813,3.18,1.112
		c1.178,0.299,2.216,0.448,3.112,0.448c1.837,0,2.756-0.531,2.756-1.594c0-0.398-0.122-0.722-0.365-0.971s-0.664-0.531-1.262-0.847
		s-1.395-0.683-2.391-1.104c-1.428-0.598-2.477-1.151-3.146-1.66c-0.67-0.509-1.157-1.093-1.461-1.751
		c-0.305-0.658-0.457-1.469-0.457-2.432c0-1.649,0.639-2.924,1.918-3.827c1.277-0.902,3.09-1.353,5.437-1.353
		c2.235,0,4.41,0.487,6.524,1.461l-1.527,3.652c-0.93-0.398-1.799-0.725-2.606-0.979c-0.808-0.254-1.633-0.382-2.474-0.382
		c-1.494,0-2.241,0.404-2.241,1.212c0,0.454,0.241,0.847,0.722,1.179c0.482,0.332,1.536,0.825,3.163,1.478
		c1.45,0.587,2.513,1.135,3.188,1.644c0.675,0.509,1.173,1.096,1.494,1.76S584.364,70.217,584.364,71.135z"/>
	<path fill="#C73D27" d="M244.547,113.744c0.886,0,1.948-0.193,3.188-0.581v3.769c-1.262,0.564-2.812,0.847-4.648,0.847
		c-2.025,0-3.5-0.512-4.425-1.536c-0.924-1.023-1.386-2.559-1.386-4.607v-8.948h-2.424v-2.142l2.789-1.693l1.461-3.918h3.237v3.951
		h5.196v3.802h-5.196v8.948c0,0.72,0.202,1.251,0.605,1.594C243.348,113.573,243.883,113.744,244.547,113.744z"/>
	<path fill="#C73D27" d="M268.353,108.133c0,3.021-0.797,5.385-2.391,7.089c-1.594,1.705-3.813,2.557-6.657,2.557
		c-1.782,0-3.354-0.39-4.715-1.17s-2.407-1.901-3.138-3.362s-1.096-3.165-1.096-5.113c0-3.032,0.791-5.39,2.374-7.072
		s3.808-2.523,6.674-2.523c1.782,0,3.354,0.388,4.715,1.162c1.361,0.775,2.407,1.887,3.138,3.337
		C267.988,104.487,268.353,106.185,268.353,108.133z M255.52,108.133c0,1.837,0.302,3.227,0.905,4.167
		c0.603,0.941,1.585,1.411,2.946,1.411c1.351,0,2.321-0.467,2.913-1.403c0.593-0.935,0.889-2.327,0.889-4.175
		c0-1.837-0.299-3.215-0.896-4.134c-0.598-0.918-1.577-1.378-2.938-1.378c-1.351,0-2.324,0.457-2.922,1.37
		C255.819,104.904,255.52,106.285,255.52,108.133z"/>
	<path fill="#C73D27" d="M293.156,117.447l-0.979-2.523h-0.133c-0.853,1.074-1.729,1.818-2.632,2.233
		c-0.901,0.415-2.077,0.623-3.527,0.623c-1.782,0-3.185-0.509-4.209-1.527c-1.023-1.018-1.535-2.468-1.535-4.35
		c0-1.97,0.689-3.422,2.066-4.358c1.379-0.935,3.456-1.453,6.234-1.552l3.221-0.1v-0.813c0-1.881-0.963-2.822-2.889-2.822
		c-1.483,0-3.227,0.448-5.229,1.345l-1.677-3.42c2.136-1.118,4.505-1.677,7.105-1.677c2.49,0,4.399,0.542,5.728,1.627
		c1.328,1.085,1.992,2.734,1.992,4.947v12.368L293.156,117.447L293.156,117.447z M291.662,108.847l-1.959,0.066
		c-1.472,0.044-2.567,0.31-3.287,0.797c-0.72,0.487-1.079,1.229-1.079,2.225c0,1.428,0.819,2.142,2.457,2.142
		c1.173,0,2.111-0.337,2.813-1.013c0.703-0.675,1.055-1.571,1.055-2.689L291.662,108.847L291.662,108.847z"/>
	<path fill="#C73D27" d="M307.782,117.779c-2.181,0-3.893-0.847-5.139-2.54c-1.244-1.693-1.867-4.04-1.867-7.039
		c0-3.043,0.634-5.415,1.9-7.114c1.268-1.699,3.014-2.548,5.238-2.548c2.335,0,4.117,0.908,5.346,2.723h0.166
		c-0.255-1.383-0.382-2.617-0.382-3.702v-5.943h5.08v25.832h-3.885l-0.979-2.407h-0.216
		C311.893,116.866,310.139,117.779,307.782,117.779z M309.558,113.744c1.295,0,2.244-0.376,2.847-1.129
		c0.604-0.752,0.933-2.031,0.988-3.835v-0.548c0-1.992-0.307-3.42-0.922-4.283c-0.613-0.863-1.612-1.295-2.996-1.295
		c-1.129,0-2.006,0.479-2.631,1.436c-0.626,0.958-0.938,2.349-0.938,4.175s0.315,3.196,0.946,4.109S308.386,113.744,309.558,113.744
		z"/>
	<path fill="#C73D27" d="M327.837,117.447l-7.072-18.561h5.296l3.586,10.575c0.398,1.339,0.647,2.606,0.747,3.802h0.1
		c0.056-1.063,0.305-2.33,0.747-3.802l3.569-10.575h5.296l-7.072,18.561C333.034,117.447,327.837,117.447,327.837,117.447z"/>
	<path fill="#C73D27" d="M359.629,108.133c0,3.021-0.797,5.385-2.391,7.089c-1.594,1.705-3.813,2.557-6.657,2.557
		c-1.782,0-3.354-0.39-4.715-1.17s-2.407-1.901-3.138-3.362s-1.096-3.165-1.096-5.113c0-3.032,0.791-5.39,2.374-7.072
		s3.808-2.523,6.674-2.523c1.782,0,3.354,0.388,4.715,1.162c1.361,0.775,2.407,1.887,3.138,3.337
		C359.263,104.487,359.629,106.185,359.629,108.133z M346.796,108.133c0,1.837,0.302,3.227,0.905,4.167
		c0.603,0.941,1.585,1.411,2.946,1.411c1.351,0,2.321-0.467,2.913-1.403c0.593-0.935,0.889-2.327,0.889-4.175
		c0-1.837-0.299-3.215-0.896-4.134c-0.598-0.918-1.577-1.378-2.938-1.378c-1.351,0-2.324,0.457-2.922,1.37
		S346.796,106.285,346.796,108.133z"/>
	<path fill="#C73D27" d="M371.349,117.779c-5.777,0-8.666-3.171-8.666-9.513c0-3.154,0.786-5.564,2.357-7.23
		s3.824-2.499,6.757-2.499c2.147,0,4.073,0.421,5.777,1.262l-1.494,3.918c-0.797-0.321-1.538-0.583-2.225-0.789
		c-0.687-0.205-1.372-0.307-2.059-0.307c-2.634,0-3.951,1.871-3.951,5.611c0,3.63,1.317,5.445,3.951,5.445
		c0.974,0,1.876-0.13,2.706-0.39s1.66-0.667,2.49-1.22v4.333c-0.819,0.521-1.646,0.88-2.482,1.079
		C373.677,117.679,372.622,117.779,371.349,117.779z"/>
	<path fill="#C73D27" d="M393.081,117.447l-0.979-2.523h-0.133c-0.853,1.074-1.729,1.818-2.632,2.233
		c-0.901,0.415-2.077,0.623-3.527,0.623c-1.782,0-3.185-0.509-4.209-1.527c-1.023-1.018-1.535-2.468-1.535-4.35
		c0-1.97,0.689-3.422,2.066-4.358c1.379-0.935,3.456-1.453,6.234-1.552l3.221-0.1v-0.813c0-1.881-0.963-2.822-2.889-2.822
		c-1.483,0-3.227,0.448-5.229,1.345l-1.677-3.42c2.136-1.118,4.505-1.677,7.105-1.677c2.49,0,4.399,0.542,5.728,1.627
		c1.328,1.085,1.992,2.734,1.992,4.947v12.368L393.081,117.447L393.081,117.447z M391.587,108.847l-1.959,0.066
		c-1.472,0.044-2.567,0.31-3.287,0.797c-0.72,0.487-1.079,1.229-1.079,2.225c0,1.428,0.819,2.142,2.457,2.142
		c1.173,0,2.111-0.337,2.813-1.013c0.703-0.675,1.055-1.571,1.055-2.689L391.587,108.847L391.587,108.847z"/>
	<path fill="#C73D27" d="M409.649,113.744c0.886,0,1.948-0.193,3.188-0.581v3.769c-1.262,0.564-2.812,0.847-4.648,0.847
		c-2.025,0-3.5-0.512-4.425-1.536c-0.924-1.023-1.386-2.559-1.386-4.607v-8.948h-2.424v-2.142l2.789-1.693l1.461-3.918h3.237v3.951
		h5.196v3.802h-5.196v8.948c0,0.72,0.202,1.251,0.605,1.594C408.451,113.573,408.985,113.744,409.649,113.744z"/>
	<path fill="#C73D27" d="M424.989,117.779c-2.988,0-5.323-0.824-7.006-2.474c-1.683-1.649-2.523-3.984-2.523-7.006
		c0-3.11,0.777-5.514,2.332-7.213c1.556-1.699,3.705-2.548,6.45-2.548c2.623,0,4.665,0.747,6.126,2.241s2.191,3.559,2.191,6.192
		v2.457h-11.97c0.056,1.439,0.481,2.563,1.278,3.37c0.797,0.808,1.915,1.212,3.354,1.212c1.118,0,2.175-0.116,3.171-0.349
		s2.036-0.603,3.121-1.112v3.918c-0.886,0.443-1.832,0.772-2.839,0.988S426.439,117.779,424.989,117.779z M424.275,102.14
		c-1.073,0-1.915,0.34-2.523,1.021s-0.957,1.646-1.046,2.897h7.105c-0.022-1.25-0.349-2.216-0.979-2.897
		S425.348,102.14,424.275,102.14z"/>
	<path fill="#C73D27" d="M450.572,117.447h-5.063V91.615h5.063V117.447z"/>
	<path fill="#C73D27" d="M464.285,117.779c-2.988,0-5.323-0.824-7.006-2.474c-1.683-1.649-2.523-3.984-2.523-7.006
		c0-3.11,0.777-5.514,2.332-7.213c1.556-1.699,3.705-2.548,6.45-2.548c2.623,0,4.665,0.747,6.126,2.241s2.191,3.559,2.191,6.192
		v2.457h-11.97c0.056,1.439,0.481,2.563,1.278,3.37c0.797,0.808,1.915,1.212,3.354,1.212c1.118,0,2.175-0.116,3.171-0.349
		s2.036-0.603,3.121-1.112v3.918c-0.886,0.443-1.832,0.772-2.839,0.988S465.735,117.779,464.285,117.779z M463.571,102.14
		c-1.073,0-1.915,0.34-2.523,1.021s-0.957,1.646-1.046,2.897h7.105c-0.022-1.25-0.349-2.216-0.979-2.897
		S464.644,102.14,463.571,102.14z"/>
	<path fill="#C73D27" d="M492.126,98.886v2.573l-2.905,0.747c0.531,0.83,0.797,1.76,0.797,2.789c0,1.992-0.694,3.544-2.084,4.657
		c-1.389,1.112-3.317,1.668-5.785,1.668l-0.913-0.05l-0.747-0.083c-0.521,0.398-0.78,0.841-0.78,1.328
		c0,0.73,0.93,1.096,2.789,1.096h3.154c2.036,0,3.589,0.438,4.657,1.312c1.067,0.875,1.602,2.158,1.602,3.852
		c0,2.169-0.904,3.852-2.715,5.047c-1.809,1.195-4.407,1.793-7.794,1.793c-2.59,0-4.568-0.451-5.935-1.353
		c-1.367-0.902-2.051-2.167-2.051-3.793c0-1.118,0.349-2.053,1.046-2.806s1.721-1.289,3.071-1.61
		c-0.521-0.221-0.974-0.583-1.361-1.087c-0.388-0.503-0.581-1.038-0.581-1.602c0-0.708,0.205-1.297,0.614-1.768
		c0.409-0.47,1.002-0.932,1.776-1.386c-0.974-0.42-1.746-1.096-2.315-2.025c-0.57-0.93-0.855-2.025-0.855-3.287
		c0-2.025,0.658-3.591,1.976-4.698c1.317-1.106,3.198-1.66,5.645-1.66c0.521,0,1.138,0.047,1.851,0.141
		c0.715,0.094,1.171,0.164,1.37,0.208h6.473V98.886z M477.799,120.07c0,0.697,0.335,1.245,1.004,1.644
		c0.67,0.398,1.608,0.598,2.814,0.598c1.815,0,3.237-0.249,4.267-0.747s1.544-1.179,1.544-2.042c0-0.697-0.305-1.179-0.913-1.444
		s-1.55-0.398-2.822-0.398h-2.623c-0.93,0-1.707,0.218-2.333,0.656C478.111,118.772,477.799,119.35,477.799,120.07z
		 M479.641,104.962c0,1.007,0.229,1.804,0.688,2.391c0.46,0.587,1.16,0.88,2.101,0.88c0.952,0,1.649-0.293,2.092-0.88
		c0.442-0.586,0.664-1.383,0.664-2.391c0-2.235-0.919-3.354-2.756-3.354C480.571,101.609,479.641,102.727,479.641,104.962z"/>
	<path fill="#C73D27" d="M494.965,94.088c0-1.649,0.919-2.474,2.756-2.474s2.756,0.825,2.756,2.474c0,0.786-0.229,1.397-0.688,1.834
		c-0.46,0.438-1.148,0.656-2.067,0.656C495.884,96.578,494.965,95.748,494.965,94.088z M500.244,117.447h-5.063V98.886h5.063
		V117.447z"/>
	<path fill="#C73D27" d="M518.506,111.935c0,1.904-0.661,3.354-1.984,4.35c-1.322,0.996-3.301,1.494-5.935,1.494
		c-1.351,0-2.501-0.091-3.453-0.274s-1.843-0.451-2.673-0.805v-4.184c0.94,0.443,2,0.813,3.18,1.112
		c1.178,0.299,2.216,0.448,3.112,0.448c1.837,0,2.756-0.531,2.756-1.594c0-0.398-0.122-0.722-0.365-0.971s-0.664-0.531-1.262-0.847
		s-1.395-0.683-2.391-1.104c-1.428-0.598-2.477-1.151-3.146-1.66c-0.67-0.509-1.157-1.093-1.461-1.751
		c-0.305-0.658-0.457-1.469-0.457-2.432c0-1.649,0.639-2.924,1.918-3.827c1.277-0.902,3.09-1.353,5.437-1.353
		c2.235,0,4.41,0.487,6.524,1.461l-1.527,3.652c-0.93-0.398-1.799-0.725-2.606-0.979c-0.808-0.254-1.633-0.382-2.474-0.382
		c-1.494,0-2.241,0.404-2.241,1.212c0,0.454,0.241,0.847,0.722,1.179c0.482,0.332,1.536,0.825,3.163,1.478
		c1.45,0.587,2.513,1.135,3.188,1.644c0.675,0.509,1.173,1.096,1.494,1.76S518.506,111.016,518.506,111.935z"/>
	<path fill="#C73D27" d="M527.52,117.447h-5.063V91.615h5.063V117.447z"/>
	<path fill="#C73D27" d="M544.62,117.447l-0.979-2.523h-0.133c-0.853,1.074-1.729,1.818-2.632,2.233
		c-0.901,0.415-2.077,0.623-3.527,0.623c-1.782,0-3.185-0.509-4.209-1.527c-1.023-1.018-1.535-2.468-1.535-4.35
		c0-1.97,0.689-3.422,2.066-4.358c1.379-0.935,3.456-1.453,6.234-1.552l3.221-0.1v-0.813c0-1.881-0.963-2.822-2.889-2.822
		c-1.483,0-3.227,0.448-5.229,1.345l-1.677-3.42c2.136-1.118,4.505-1.677,7.105-1.677c2.49,0,4.399,0.542,5.728,1.627
		c1.328,1.085,1.992,2.734,1.992,4.947v12.368L544.62,117.447L544.62,117.447z M543.126,108.847l-1.959,0.066
		c-1.472,0.044-2.567,0.31-3.287,0.797c-0.72,0.487-1.079,1.229-1.079,2.225c0,1.428,0.819,2.142,2.457,2.142
		c1.173,0,2.111-0.337,2.813-1.013c0.703-0.675,1.055-1.571,1.055-2.689L543.126,108.847L543.126,108.847z"/>
	<path fill="#C73D27" d="M561.188,113.744c0.886,0,1.948-0.193,3.188-0.581v3.769c-1.262,0.564-2.812,0.847-4.648,0.847
		c-2.025,0-3.5-0.512-4.425-1.536c-0.924-1.023-1.386-2.559-1.386-4.607v-8.948h-2.424v-2.142l2.789-1.693l1.461-3.918h3.237v3.951
		h5.196v3.802h-5.196v8.948c0,0.72,0.202,1.251,0.605,1.594C559.99,113.573,560.524,113.744,561.188,113.744z"/>
	<path fill="#C73D27" d="M567.912,94.088c0-1.649,0.919-2.474,2.756-2.474s2.756,0.825,2.756,2.474c0,0.786-0.229,1.397-0.688,1.834
		c-0.46,0.438-1.148,0.656-2.067,0.656C568.831,96.578,567.912,95.748,567.912,94.088z M573.191,117.447h-5.063V98.886h5.063
		V117.447z"/>
	<path fill="#C73D27" d="M595.371,108.133c0,3.021-0.797,5.385-2.391,7.089c-1.594,1.705-3.813,2.557-6.657,2.557
		c-1.782,0-3.354-0.39-4.715-1.17s-2.407-1.901-3.138-3.362s-1.096-3.165-1.096-5.113c0-3.032,0.791-5.39,2.374-7.072
		s3.808-2.523,6.674-2.523c1.782,0,3.354,0.388,4.715,1.162c1.361,0.775,2.407,1.887,3.138,3.337
		C595.006,104.487,595.371,106.185,595.371,108.133z M582.538,108.133c0,1.837,0.302,3.227,0.905,4.167
		c0.603,0.941,1.585,1.411,2.946,1.411c1.351,0,2.321-0.467,2.913-1.403c0.593-0.935,0.889-2.327,0.889-4.175
		c0-1.837-0.299-3.215-0.896-4.134c-0.598-0.918-1.577-1.378-2.938-1.378c-1.351,0-2.324,0.457-2.922,1.37
		S582.538,106.285,582.538,108.133z"/>
	<path fill="#C73D27" d="M616.687,117.447h-5.063v-10.841c0-1.339-0.238-2.343-0.714-3.013c-0.476-0.669-1.234-1.004-2.274-1.004
		c-1.417,0-2.44,0.473-3.071,1.419s-0.946,2.515-0.946,4.707v8.732h-5.063V98.886h3.868l0.681,2.374h0.282
		c0.564-0.896,1.342-1.574,2.333-2.034c0.99-0.459,2.116-0.689,3.378-0.689c2.158,0,3.796,0.584,4.914,1.751
		c1.118,1.168,1.677,2.853,1.677,5.055v12.104H616.687z"/>
	<path fill="#C73D27" d="M244.547,154.545c0.886,0,1.948-0.193,3.188-0.581v3.769c-1.262,0.564-2.812,0.847-4.648,0.847
		c-2.025,0-3.5-0.512-4.425-1.536c-0.924-1.023-1.386-2.559-1.386-4.607v-8.948h-2.424v-2.142l2.789-1.693l1.461-3.918h3.237v3.951
		h5.196v3.802h-5.196v8.948c0,0.72,0.202,1.251,0.605,1.594C243.348,154.373,243.883,154.545,244.547,154.545z"/>
	<path fill="#C73D27" d="M268.619,158.247h-5.063v-10.841c0-2.678-0.996-4.018-2.988-4.018c-1.417,0-2.44,0.481-3.071,1.444
		s-0.946,2.523-0.946,4.682v8.732h-5.063v-25.832h5.063v5.263c0,0.41-0.039,1.373-0.116,2.889l-0.116,1.494h0.266
		c1.129-1.815,2.922-2.723,5.379-2.723c2.181,0,3.835,0.587,4.964,1.76c1.129,1.173,1.693,2.855,1.693,5.047v12.103H268.619z"/>
	<path fill="#C73D27" d="M285.619,158.247l-0.979-2.523h-0.133c-0.853,1.074-1.729,1.818-2.632,2.233
		c-0.901,0.415-2.077,0.623-3.527,0.623c-1.782,0-3.185-0.509-4.209-1.527c-1.023-1.018-1.535-2.468-1.535-4.35
		c0-1.97,0.689-3.422,2.066-4.358c1.379-0.935,3.456-1.453,6.234-1.552l3.221-0.1v-0.813c0-1.881-0.963-2.822-2.889-2.822
		c-1.483,0-3.227,0.448-5.229,1.345l-1.677-3.42c2.136-1.118,4.505-1.677,7.105-1.677c2.49,0,4.399,0.542,5.728,1.627
		c1.328,1.085,1.992,2.734,1.992,4.947v12.368L285.619,158.247L285.619,158.247z M284.125,149.647l-1.959,0.066
		c-1.472,0.044-2.567,0.31-3.287,0.797c-0.72,0.487-1.079,1.229-1.079,2.225c0,1.428,0.819,2.142,2.457,2.142
		c1.173,0,2.111-0.337,2.813-1.013c0.703-0.675,1.055-1.571,1.055-2.689L284.125,149.647L284.125,149.647z"/>
	<path fill="#C73D27" d="M302.187,154.545c0.886,0,1.948-0.193,3.188-0.581v3.769c-1.262,0.564-2.812,0.847-4.648,0.847
		c-2.025,0-3.5-0.512-4.425-1.536c-0.924-1.023-1.386-2.559-1.386-4.607v-8.948h-2.424v-2.142l2.789-1.693l1.461-3.918h3.237v3.951
		h5.196v3.802h-5.196v8.948c0,0.72,0.202,1.251,0.605,1.594C300.989,154.373,301.523,154.545,302.187,154.545z"/>
	<path fill="#C73D27" d="M330.908,152.735c0,1.904-0.661,3.354-1.984,4.35c-1.322,0.996-3.301,1.494-5.935,1.494
		c-1.351,0-2.501-0.091-3.453-0.274s-1.843-0.451-2.673-0.805v-4.184c0.94,0.443,2,0.813,3.18,1.112
		c1.178,0.299,2.216,0.448,3.112,0.448c1.837,0,2.756-0.531,2.756-1.594c0-0.398-0.122-0.722-0.365-0.971s-0.664-0.531-1.262-0.847
		s-1.395-0.683-2.391-1.104c-1.428-0.598-2.477-1.151-3.146-1.66c-0.67-0.509-1.157-1.093-1.461-1.751
		c-0.305-0.658-0.457-1.469-0.457-2.432c0-1.649,0.639-2.924,1.918-3.827c1.277-0.902,3.09-1.353,5.437-1.353
		c2.235,0,4.41,0.487,6.524,1.461l-1.527,3.652c-0.93-0.398-1.799-0.725-2.606-0.979c-0.808-0.254-1.633-0.382-2.474-0.382
		c-1.494,0-2.241,0.404-2.241,1.212c0,0.454,0.241,0.847,0.722,1.179c0.482,0.332,1.536,0.825,3.163,1.478
		c1.45,0.587,2.513,1.135,3.188,1.644s1.173,1.096,1.494,1.76S330.908,151.817,330.908,152.735z"/>
	<path fill="#C73D27" d="M348.008,158.247l-0.681-2.374h-0.266c-0.542,0.863-1.312,1.53-2.308,2s-2.131,0.706-3.403,0.706
		c-2.181,0-3.824-0.583-4.931-1.751c-1.106-1.167-1.66-2.847-1.66-5.039v-12.103h5.063v10.841c0,1.339,0.238,2.344,0.714,3.013
		c0.476,0.67,1.234,1.004,2.274,1.004c1.417,0,2.44-0.473,3.071-1.419s0.946-2.515,0.946-4.707v-8.732h5.063v18.561H348.008z"/>
	<path fill="#C73D27" d="M367.398,158.579c-2.181,0-3.891-0.791-5.13-2.374h-0.266c0.177,1.55,0.266,2.446,0.266,2.689v7.521h-5.063
		v-26.729h4.117l0.714,2.407h0.232c1.185-1.837,2.938-2.756,5.263-2.756c2.191,0,3.907,0.847,5.146,2.54s1.859,4.045,1.859,7.056
		c0,1.981-0.291,3.702-0.871,5.163c-0.582,1.461-1.409,2.573-2.482,3.337S368.848,158.579,367.398,158.579z M365.904,143.388
		c-1.251,0-2.164,0.385-2.739,1.154c-0.575,0.77-0.874,2.04-0.896,3.81v0.548c0,1.992,0.296,3.42,0.888,4.283
		c0.593,0.863,1.53,1.295,2.814,1.295c2.269,0,3.403-1.87,3.403-5.611c0-1.826-0.279-3.196-0.839-4.109
		C367.976,143.845,367.099,143.388,365.904,143.388z"/>
	<path fill="#C73D27" d="M388.914,158.579c-2.181,0-3.891-0.791-5.13-2.374h-0.266c0.177,1.55,0.266,2.446,0.266,2.689v7.521h-5.063
		v-26.729h4.117l0.714,2.407h0.232c1.185-1.837,2.938-2.756,5.263-2.756c2.191,0,3.907,0.847,5.146,2.54s1.859,4.045,1.859,7.056
		c0,1.981-0.291,3.702-0.871,5.163c-0.582,1.461-1.409,2.573-2.482,3.337S390.364,158.579,388.914,158.579z M387.42,143.388
		c-1.251,0-2.164,0.385-2.739,1.154c-0.575,0.77-0.874,2.04-0.896,3.81v0.548c0,1.992,0.296,3.42,0.888,4.283
		c0.593,0.863,1.53,1.295,2.814,1.295c2.269,0,3.403-1.87,3.403-5.611c0-1.826-0.279-3.196-0.839-4.109
		C389.492,143.845,388.615,143.388,387.42,143.388z"/>
	<path fill="#C73D27" d="M417.103,148.933c0,3.021-0.797,5.385-2.391,7.089c-1.594,1.705-3.813,2.557-6.657,2.557
		c-1.782,0-3.354-0.39-4.715-1.17s-2.407-1.901-3.138-3.362s-1.096-3.165-1.096-5.113c0-3.032,0.791-5.39,2.374-7.072
		s3.808-2.523,6.674-2.523c1.782,0,3.354,0.388,4.715,1.162c1.361,0.775,2.407,1.887,3.138,3.337
		C416.738,145.287,417.103,146.986,417.103,148.933z M404.27,148.933c0,1.837,0.302,3.227,0.905,4.167
		c0.603,0.941,1.585,1.411,2.946,1.411c1.351,0,2.321-0.467,2.913-1.403c0.593-0.935,0.889-2.327,0.889-4.175
		c0-1.837-0.299-3.215-0.896-4.134c-0.598-0.918-1.577-1.378-2.938-1.378c-1.351,0-2.324,0.457-2.922,1.37
		S404.27,147.085,404.27,148.933z"/>
	<path fill="#C73D27" d="M431.646,139.338c0.687,0,1.256,0.05,1.71,0.149l-0.382,4.748c-0.409-0.11-0.907-0.166-1.494-0.166
		c-1.616,0-2.875,0.415-3.777,1.245c-0.901,0.83-1.353,1.992-1.353,3.486v9.446h-5.063v-18.561h3.835l0.747,3.121h0.249
		c0.575-1.04,1.353-1.878,2.333-2.515C429.429,139.656,430.495,139.338,431.646,139.338z"/>
	<path fill="#C73D27" d="M444.546,154.545c0.886,0,1.948-0.193,3.188-0.581v3.769c-1.262,0.564-2.812,0.847-4.648,0.847
		c-2.025,0-3.5-0.512-4.425-1.536c-0.924-1.023-1.386-2.559-1.386-4.607v-8.948h-2.424v-2.142l2.789-1.693l1.461-3.918h3.237v3.951
		h5.196v3.802h-5.196v8.948c0,0.72,0.202,1.251,0.605,1.594C443.347,154.373,443.882,154.545,444.546,154.545z"/>
	<path fill="#C73D27" d="M464.434,152.735c0,1.904-0.661,3.354-1.984,4.35c-1.322,0.996-3.301,1.494-5.935,1.494
		c-1.351,0-2.501-0.091-3.453-0.274s-1.843-0.451-2.673-0.805v-4.184c0.94,0.443,2,0.813,3.18,1.112
		c1.178,0.299,2.216,0.448,3.112,0.448c1.837,0,2.756-0.531,2.756-1.594c0-0.398-0.122-0.722-0.365-0.971s-0.664-0.531-1.262-0.847
		s-1.395-0.683-2.391-1.104c-1.428-0.598-2.477-1.151-3.146-1.66c-0.67-0.509-1.157-1.093-1.461-1.751
		c-0.305-0.658-0.457-1.469-0.457-2.432c0-1.649,0.639-2.924,1.918-3.827c1.277-0.902,3.09-1.353,5.437-1.353
		c2.235,0,4.41,0.487,6.524,1.461l-1.527,3.652c-0.93-0.398-1.799-0.725-2.606-0.979c-0.808-0.254-1.633-0.382-2.474-0.382
		c-1.494,0-2.241,0.404-2.241,1.212c0,0.454,0.241,0.847,0.722,1.179c0.482,0.332,1.536,0.825,3.163,1.478
		c1.45,0.587,2.513,1.135,3.188,1.644s1.173,1.096,1.494,1.76S464.434,151.817,464.434,152.735z"/>
	<path fill="#C73D27" d="M492.474,158.247l-1.428-6.491l-1.926-8.201h-0.116l-3.387,14.692h-5.445l-5.279-18.561h5.047l2.142,8.218
		c0.343,1.472,0.691,3.503,1.046,6.093h0.1c0.044-0.841,0.238-2.175,0.581-4.001l0.266-1.411l2.291-8.898h5.578l2.175,8.898
		c0.044,0.244,0.113,0.604,0.207,1.079c0.095,0.476,0.186,0.982,0.274,1.519c0.089,0.537,0.169,1.063,0.241,1.577
		c0.071,0.515,0.113,0.927,0.124,1.237h0.1c0.1-0.797,0.276-1.89,0.531-3.279c0.255-1.389,0.438-2.327,0.548-2.814l2.225-8.218
		h4.964l-5.346,18.561L492.474,158.247L492.474,158.247z"/>
	<path fill="#C73D27" d="M523.187,148.933c0,3.021-0.797,5.385-2.391,7.089c-1.594,1.705-3.813,2.557-6.657,2.557
		c-1.782,0-3.354-0.39-4.715-1.17s-2.407-1.901-3.138-3.362s-1.096-3.165-1.096-5.113c0-3.032,0.791-5.39,2.374-7.072
		s3.808-2.523,6.674-2.523c1.782,0,3.354,0.388,4.715,1.162c1.361,0.775,2.407,1.887,3.138,3.337
		C522.822,145.287,523.187,146.986,523.187,148.933z M510.354,148.933c0,1.837,0.302,3.227,0.905,4.167
		c0.603,0.941,1.585,1.411,2.946,1.411c1.351,0,2.321-0.467,2.913-1.403c0.593-0.935,0.889-2.327,0.889-4.175
		c0-1.837-0.299-3.215-0.896-4.134c-0.598-0.918-1.577-1.378-2.938-1.378c-1.351,0-2.324,0.457-2.922,1.37
		S510.354,147.085,510.354,148.933z"/>
	<path fill="#C73D27" d="M537.73,139.338c0.687,0,1.256,0.05,1.71,0.149l-0.382,4.748c-0.409-0.11-0.907-0.166-1.494-0.166
		c-1.616,0-2.875,0.415-3.777,1.245c-0.901,0.83-1.353,1.992-1.353,3.486v9.446h-5.063v-18.561h3.835l0.747,3.121h0.249
		c0.575-1.04,1.353-1.878,2.333-2.515C535.513,139.656,536.579,139.338,537.73,139.338z"/>
	<path fill="#C73D27" d="M547.675,148.153l2.208-2.822l5.196-5.645h5.711l-7.371,8.052l7.819,10.509h-5.844l-5.346-7.521
		l-2.175,1.743v5.777h-5.063v-25.832h5.063v11.521l-0.266,4.217h0.068V148.153z"/>
	<path fill="#C73D27" d="M572.295,158.579c-2.988,0-5.323-0.824-7.006-2.474c-1.683-1.649-2.523-3.984-2.523-7.006
		c0-3.11,0.777-5.514,2.332-7.213c1.556-1.699,3.705-2.548,6.45-2.548c2.623,0,4.665,0.747,6.126,2.241s2.191,3.559,2.191,6.192
		v2.457h-11.97c0.056,1.439,0.481,2.563,1.278,3.37c0.797,0.808,1.915,1.212,3.354,1.212c1.118,0,2.175-0.116,3.171-0.349
		s2.036-0.603,3.121-1.112v3.918c-0.886,0.443-1.832,0.772-2.839,0.988S573.745,158.579,572.295,158.579z M571.581,142.94
		c-1.073,0-1.915,0.34-2.523,1.021s-0.957,1.646-1.046,2.897h7.105c-0.022-1.25-0.349-2.216-0.979-2.897
		S572.654,142.94,571.581,142.94z"/>
	<path fill="#C73D27" d="M594.342,139.338c0.687,0,1.256,0.05,1.71,0.149l-0.382,4.748c-0.409-0.11-0.907-0.166-1.494-0.166
		c-1.616,0-2.875,0.415-3.777,1.245c-0.901,0.83-1.353,1.992-1.353,3.486v9.446h-5.063v-18.561h3.835l0.747,3.121h0.249
		c0.575-1.04,1.353-1.878,2.333-2.515C592.125,139.656,593.19,139.338,594.342,139.338z"/>
	<path fill="#C73D27" d="M612.371,152.735c0,1.904-0.661,3.354-1.984,4.35c-1.322,0.996-3.301,1.494-5.935,1.494
		c-1.351,0-2.501-0.091-3.453-0.274s-1.843-0.451-2.673-0.805v-4.184c0.94,0.443,2,0.813,3.18,1.112
		c1.178,0.299,2.216,0.448,3.112,0.448c1.837,0,2.756-0.531,2.756-1.594c0-0.398-0.122-0.722-0.365-0.971s-0.664-0.531-1.262-0.847
		s-1.395-0.683-2.391-1.104c-1.428-0.598-2.477-1.151-3.146-1.66c-0.67-0.509-1.157-1.093-1.461-1.751
		c-0.305-0.658-0.457-1.469-0.457-2.432c0-1.649,0.639-2.924,1.918-3.827c1.277-0.902,3.09-1.353,5.437-1.353
		c2.235,0,4.41,0.487,6.524,1.461l-1.527,3.652c-0.93-0.398-1.799-0.725-2.606-0.979c-0.808-0.254-1.633-0.382-2.474-0.382
		c-1.494,0-2.241,0.404-2.241,1.212c0,0.454,0.241,0.847,0.722,1.179c0.482,0.332,1.536,0.825,3.163,1.478
		c1.45,0.587,2.513,1.135,3.188,1.644s1.173,1.096,1.494,1.76S612.371,151.817,612.371,152.735z"/>
</g>
</svg>
