<?xml version="1.0" encoding="utf-8"?>
<!-- Generator: Adobe Illustrator 17.0.0, SVG Export Plug-In . SVG Version: 6.00 Build 0)  -->
<!DOCTYPE svg PUBLIC "-//W3C//DTD SVG 1.1//EN" "http://www.w3.org/Graphics/SVG/1.1/DTD/svg11.dtd">
<svg version="1.1" id="Layer_1" xmlns="http://www.w3.org/2000/svg" xmlns:xlink="http://www.w3.org/1999/xlink" x="0px" y="0px"
	 width="640px" height="220.5px" viewBox="0 0 640 220.5" enable-background="new 0 0 640 220.5" xml:space="preserve">
<polygon fill="#C73D27" points="214.181,74.586 154.702,97.807 175.826,139.913 181.515,138.613 183.057,141.7 228.961,123.955 "/>
<path fill="#C73D27" d="M154.622,103.534c0,0-1.422,1.582-3.32,1.582c-1.899,0-10.125-4.112-11.231-4.904
	c-1.106-0.79-3.639-3.323-8.226-2.057c-4.588,1.265-10.916,3.323-11.865,4.115c-0.949,0.79-2.847,3.478-2.847,4.429
	c0,0.949-1.106,3.709-1.582,3.99c-0.476,0.281-2.533,3.603-0.635,5.501s3.799,1.425,5.537,0.792
	c1.741-0.637,6.131-5.978,6.131-7.242c0-1.265-1.186-4.465-1.186-4.465s2.807-0.265,2.966,2.397c0.159,2.663,1.741-2.24,6.013,1.873
	c4.269,4.115,14.893,12.11,14.893,12.11s7.29-0.036,8.395-0.67c1.108-0.631-0.322,0.954-1.011,1.517
	c-0.685,0.564-3.848,1.448-3.848,1.448s2.791,2.713,3.266,3.981c0.473,1.265,2.213,5.431,2.213,5.431l9.471-4.52
	C167.752,128.846,157.312,106.065,154.622,103.534z"/>
<path fill="#C73D27" d="M42.708,73.25l56.511,21.475l6.486,1.772c0,0,0.687,0.516,0,2.057c-0.686,1.539-19.213,43.142-19.213,43.142
	l-4.99-2.374l-1.937,4.072L34.876,123.79L42.708,73.25z"/>
<path fill="#C73D27" d="M107.09,101.399c0,0,5.298-0.712,8.699-2.531s10.598-4.745,12.893-4.033
	c2.292,0.712,2.309,0.893,2.309,0.893s-9.944,3.575-12,4.445c-2.057,0.87-3.839,4.662-3.919,5.532
	c-0.079,0.871-2.032,5.444-2.667,6.155c-0.634,0.71-1.642,4.864,1.364,6.762c3.005,1.898,4.627,0.653,5.419,0.334
	c0.791-0.312,4.073-1.425,5.735-3.878c1.661-2.453,3.56-4.982,5.1-4.588c1.541,0.397,2.057-0.233,4.982,2.851
	c2.929,3.084,9.609,7.832,9.609,7.832s9.498,7.881,9.768,8.539c0.629,1.531,3.107,6.052,2.711,7.171
	c-0.268,0.763-1.118,3.194-3.583,3.508c-1.32,0.166-2.056-0.473-2.056-0.473l-8.46-9.411l-3.006-3.933c0,0,0.633,4.249,1.108,4.883
	c0.473,0.633,5.896,6.359,6.485,7.04c0.93,1.07,2.449,2.163,2.773,2.934c0.668,1.576-1.268,4.66-3.722,4.66
	c-2.451,0-3.915-0.965-3.915-0.965l-5.697-5.206l-2.253-2.789c0,0,0.079,3.025,0.473,3.657c0.397,0.633,6.566,6.25,6.566,6.25
	l0.871,0.631c0,0,0.155,0.792-1.268,1.82c-1.422,1.027-3.787,1.359-4.024,1.277c-0.237-0.078-6.612-6.814-7.364-7.369
	c-0.751-0.553,0,2.682,0,2.682l2.139,1.984l3.151,3.398c0,0,0.247,0.083-0.862,1.032c-1.106,0.948-5.64,0.634-5.64,0.634
	s2.99-3.839,0.322-6.095c-1.415-1.196-1.957-1.433-1.957-1.433c0.618-1.429,1.205-3.274,0.653-4.855
	c-0.555-1.582-1.918-3.047-3.419-3.441c-1.502-0.397-3.935,0.296-3.935,0.296s0.324-2.665-2.154-4.491
	c-1.502-1.108-4.197-0.993-6.312,0.489c-1.173,0.82-3.99,3.053-3.99,3.053c0.079-0.653-2.989-6.997-9.277-4.565l-3.638-3.09
	L107.09,101.399z"/>
<path fill="#C73D27" d="M97.241,134.405c0,0-0.926,3.371,0.099,4.266c4.272,3.738,6.585,2.75,6.585,2.75s0,1.58,1.582,3.48
	c1.582,1.898,4.745,3.241,4.745,3.241s-0.633,0.811,0.792,2.393c1.422,1.582,3.994,3.025,6.88,2.016c0,0-0.91,0.85,0.831,2.431
	c1.74,1.58,2.413,1.524,4.154,1.364c1.74-0.159,4.272-3.063,4.272-3.063s2.076-3.171,0-4.907c-1.594-1.33-3.779-0.433-4.093-0.039
	c-0.316,0.394,2.354-2.929,2.729-5.281c0.312-1.976-0.811-2.886-2.551-3.439s-3.327,0.202-4.272,1.067
	c-1.062,0.976-2.016,1.682-2.016,1.682l-4.839,3.398c0,0,5.016-4.487,5.845-6.443c0.46-1.083,0.324-2.864-1.009-3.679
	c-0.905-0.549-1.74-1.225-3.56-0.792c-0.343,0.086-5.061,3.484-5.061,3.484l-1.661,1.186l-1.186,0.71c0,0,1.265-2.217,0-3.56
	C104.242,135.328,102.711,132.643,97.241,134.405z"/>
<g>
	<path fill="#C73D27" d="M274.934,48.472c0,2.612-0.816,4.61-2.449,5.993c-1.631,1.384-3.953,2.075-6.963,2.075h-2.209v8.633h-5.146
		V40.901h7.754c2.943,0,5.182,0.634,6.715,1.901C274.169,44.07,274.934,45.96,274.934,48.472z M263.313,52.323h1.693
		c1.584,0,2.768-0.313,3.553-0.938c0.787-0.625,1.18-1.536,1.18-2.731c0-1.206-0.33-2.097-0.988-2.673
		c-0.658-0.575-1.691-0.863-3.096-0.863h-2.342V52.323z"/>
	<path fill="#C73D27" d="M292.266,65.173l-0.68-2.374h-0.266c-0.543,0.863-1.313,1.53-2.309,2s-2.131,0.706-3.402,0.706
		c-2.182,0-3.824-0.583-4.932-1.751c-1.105-1.167-1.66-2.847-1.66-5.039V46.612h5.064v10.841c0,1.339,0.238,2.344,0.713,3.013
		c0.477,0.67,1.234,1.004,2.275,1.004c1.416,0,2.439-0.473,3.07-1.419s0.947-2.515,0.947-4.707v-8.732h5.063v18.561H292.266z"/>
	<path fill="#C73D27" d="M311.823,46.264c0.688,0,1.256,0.05,1.711,0.149l-0.383,4.748c-0.408-0.11-0.906-0.166-1.494-0.166
		c-1.615,0-2.875,0.415-3.777,1.245c-0.9,0.83-1.352,1.992-1.352,3.486v9.446h-5.064v-18.56h3.836l0.746,3.121h0.25
		c0.574-1.04,1.352-1.878,2.332-2.515C309.606,46.582,310.673,46.264,311.823,46.264z"/>
	<path fill="#C73D27" d="M324.44,65.505c-5.777,0-8.666-3.171-8.666-9.513c0-3.154,0.787-5.564,2.357-7.23
		c1.572-1.666,3.824-2.499,6.758-2.499c2.146,0,4.072,0.421,5.777,1.262l-1.494,3.918c-0.797-0.321-1.539-0.583-2.225-0.789
		c-0.688-0.205-1.373-0.307-2.059-0.307c-2.635,0-3.951,1.871-3.951,5.611c0,3.63,1.316,5.445,3.951,5.445
		c0.973,0,1.875-0.13,2.705-0.39c0.83-0.26,1.66-0.667,2.49-1.22v4.333c-0.818,0.521-1.646,0.88-2.482,1.079
		C326.768,65.405,325.714,65.505,324.44,65.505z"/>
	<path fill="#C73D27" d="M351.518,65.173h-5.064V54.332c0-2.678-0.996-4.018-2.988-4.018c-1.416,0-2.439,0.481-3.07,1.444
		c-0.631,0.963-0.947,2.523-0.947,4.682v8.732h-5.063V39.341h5.063v5.263c0,0.41-0.039,1.373-0.115,2.889l-0.117,1.494h0.266
		c1.129-1.815,2.922-2.723,5.379-2.723c2.182,0,3.836,0.587,4.965,1.76c1.129,1.173,1.693,2.855,1.693,5.047v12.102H351.518z"/>
	<path fill="#C73D27" d="M368.518,65.173l-0.98-2.523h-0.133c-0.852,1.074-1.729,1.818-2.631,2.233s-2.078,0.623-3.527,0.623
		c-1.783,0-3.186-0.509-4.209-1.527c-1.023-1.018-1.535-2.468-1.535-4.35c0-1.97,0.689-3.422,2.066-4.358
		c1.379-0.935,3.455-1.453,6.234-1.552l3.221-0.1v-0.813c0-1.881-0.963-2.822-2.889-2.822c-1.484,0-3.227,0.448-5.23,1.345
		l-1.676-3.42c2.135-1.118,4.504-1.677,7.105-1.677c2.49,0,4.398,0.542,5.727,1.627c1.328,1.085,1.992,2.734,1.992,4.947v12.368
		L368.518,65.173L368.518,65.173z M367.024,56.573l-1.959,0.066c-1.473,0.044-2.568,0.31-3.287,0.797
		c-0.721,0.487-1.08,1.229-1.08,2.225c0,1.428,0.82,2.142,2.457,2.142c1.174,0,2.111-0.337,2.814-1.013
		c0.703-0.675,1.055-1.571,1.055-2.689L367.024,56.573L367.024,56.573z"/>
	<path fill="#C73D27" d="M390.216,59.661c0,1.904-0.66,3.354-1.984,4.35c-1.322,0.996-3.301,1.494-5.934,1.494
		c-1.352,0-2.502-0.091-3.453-0.274c-0.953-0.183-1.844-0.451-2.674-0.805v-4.184c0.941,0.443,2,0.813,3.18,1.112
		c1.178,0.299,2.217,0.448,3.113,0.448c1.836,0,2.756-0.531,2.756-1.594c0-0.398-0.123-0.722-0.365-0.971
		c-0.244-0.249-0.664-0.531-1.262-0.847s-1.395-0.683-2.391-1.104c-1.428-0.598-2.477-1.151-3.146-1.66
		c-0.67-0.509-1.156-1.093-1.461-1.751c-0.305-0.658-0.457-1.469-0.457-2.432c0-1.649,0.639-2.924,1.918-3.827
		c1.277-0.902,3.09-1.353,5.438-1.353c2.234,0,4.41,0.487,6.523,1.461l-1.527,3.652c-0.93-0.398-1.799-0.725-2.605-0.979
		c-0.809-0.254-1.633-0.382-2.475-0.382c-1.494,0-2.24,0.404-2.24,1.212c0,0.454,0.24,0.847,0.721,1.179
		c0.482,0.332,1.537,0.825,3.164,1.478c1.449,0.587,2.512,1.135,3.188,1.644c0.674,0.509,1.172,1.096,1.494,1.76
		C390.055,57.951,390.216,58.743,390.216,59.661z"/>
	<path fill="#C73D27" d="M402.567,65.505c-2.988,0-5.322-0.824-7.006-2.474c-1.682-1.649-2.523-3.984-2.523-7.006
		c0-3.11,0.777-5.514,2.332-7.213c1.557-1.699,3.705-2.548,6.451-2.548c2.623,0,4.664,0.747,6.125,2.241
		c1.461,1.494,2.191,3.559,2.191,6.192v2.457h-11.969c0.055,1.439,0.48,2.563,1.277,3.37c0.797,0.808,1.916,1.212,3.354,1.212
		c1.119,0,2.176-0.116,3.172-0.349c0.996-0.233,2.035-0.603,3.121-1.112v3.918c-0.887,0.443-1.832,0.772-2.84,0.988
		C405.247,65.397,404.018,65.505,402.567,65.505z M401.854,49.866c-1.074,0-1.916,0.34-2.523,1.021
		c-0.609,0.681-0.957,1.646-1.047,2.897h7.105c-0.021-1.25-0.348-2.216-0.979-2.897S402.927,49.866,401.854,49.866z"/>
	<path fill="#C73D27" d="M433.28,65.505c-2.18,0-3.891-0.791-5.129-2.374h-0.266c0.176,1.55,0.266,2.446,0.266,2.689v7.521h-5.064
		V46.612h4.117l0.715,2.407h0.232c1.184-1.837,2.938-2.756,5.262-2.756c2.191,0,3.908,0.847,5.146,2.54
		c1.24,1.693,1.859,4.045,1.859,7.056c0,1.981-0.291,3.702-0.871,5.163c-0.582,1.461-1.408,2.573-2.482,3.337
		C435.993,65.123,434.731,65.505,433.28,65.505z M431.786,50.315c-1.25,0-2.164,0.385-2.738,1.154
		c-0.576,0.77-0.875,2.04-0.896,3.81v0.548c0,1.992,0.295,3.42,0.887,4.283c0.594,0.863,1.531,1.295,2.814,1.295
		c2.27,0,3.404-1.87,3.404-5.611c0-1.826-0.279-3.196-0.84-4.109C433.858,50.771,432.981,50.315,431.786,50.315z"/>
	<path fill="#C73D27" d="M454.962,46.264c0.688,0,1.256,0.05,1.711,0.149l-0.383,4.748c-0.408-0.11-0.906-0.166-1.494-0.166
		c-1.615,0-2.875,0.415-3.777,1.245c-0.9,0.83-1.352,1.992-1.352,3.486v9.446h-5.064v-18.56h3.836l0.746,3.121h0.25
		c0.574-1.04,1.352-1.878,2.332-2.515C452.745,46.582,453.811,46.264,454.962,46.264z"/>
	<path fill="#C73D27" d="M476.909,55.859c0,3.021-0.797,5.385-2.391,7.089c-1.594,1.705-3.813,2.557-6.656,2.557
		c-1.783,0-3.354-0.39-4.715-1.17s-2.408-1.901-3.139-3.362s-1.096-3.165-1.096-5.113c0-3.032,0.791-5.39,2.375-7.072
		c1.582-1.682,3.807-2.523,6.674-2.523c1.781,0,3.354,0.388,4.715,1.162c1.361,0.775,2.406,1.887,3.137,3.337
		C476.544,52.213,476.909,53.912,476.909,55.859z M464.077,55.859c0,1.837,0.301,3.227,0.904,4.167
		c0.604,0.941,1.586,1.411,2.947,1.411c1.35,0,2.32-0.467,2.912-1.403c0.594-0.935,0.889-2.327,0.889-4.175
		c0-1.837-0.299-3.215-0.896-4.134c-0.598-0.918-1.576-1.378-2.938-1.378c-1.352,0-2.324,0.457-2.922,1.37
		C464.375,52.63,464.077,54.011,464.077,55.859z"/>
	<path fill="#C73D27" d="M486.97,65.505c-2.18,0-3.893-0.847-5.139-2.54c-1.244-1.693-1.867-4.04-1.867-7.039
		c0-3.043,0.635-5.415,1.9-7.114c1.268-1.699,3.014-2.548,5.238-2.548c2.336,0,4.117,0.908,5.346,2.723h0.166
		c-0.254-1.383-0.381-2.617-0.381-3.702v-5.944h5.08v25.832h-3.885l-0.98-2.407h-0.215C491.081,64.592,489.327,65.505,486.97,65.505
		z M488.747,61.471c1.295,0,2.244-0.376,2.846-1.129c0.604-0.752,0.934-2.031,0.988-3.835v-0.548c0-1.992-0.307-3.42-0.922-4.283
		c-0.613-0.863-1.611-1.295-2.996-1.295c-1.129,0-2.006,0.479-2.631,1.436c-0.625,0.958-0.938,2.349-0.938,4.175
		c0,1.826,0.314,3.196,0.945,4.109S487.573,61.471,488.747,61.471z"/>
	<path fill="#C73D27" d="M515.757,65.173l-0.68-2.374h-0.266c-0.543,0.863-1.313,1.53-2.309,2s-2.131,0.706-3.402,0.706
		c-2.182,0-3.824-0.583-4.932-1.751c-1.105-1.167-1.66-2.847-1.66-5.039V46.612h5.064v10.841c0,1.339,0.238,2.344,0.713,3.013
		c0.477,0.67,1.234,1.004,2.275,1.004c1.416,0,2.439-0.473,3.07-1.419s0.947-2.515,0.947-4.707v-8.732h5.063v18.561H515.757z"/>
	<path fill="#C73D27" d="M532.491,65.505c-5.777,0-8.666-3.171-8.666-9.513c0-3.154,0.787-5.564,2.357-7.23
		c1.572-1.666,3.824-2.499,6.758-2.499c2.146,0,4.072,0.421,5.777,1.262l-1.494,3.918c-0.797-0.321-1.539-0.583-2.225-0.789
		c-0.688-0.205-1.373-0.307-2.059-0.307c-2.635,0-3.951,1.871-3.951,5.611c0,3.63,1.316,5.445,3.951,5.445
		c0.973,0,1.875-0.13,2.705-0.39c0.83-0.26,1.66-0.667,2.49-1.22v4.333c-0.818,0.521-1.646,0.88-2.482,1.079
		C534.819,65.405,533.764,65.505,532.491,65.505z"/>
	<path fill="#C73D27" d="M550.255,61.471c0.887,0,1.949-0.193,3.188-0.581v3.769c-1.262,0.564-2.811,0.847-4.648,0.847
		c-2.025,0-3.5-0.512-4.424-1.536c-0.924-1.023-1.387-2.559-1.387-4.607v-8.948h-2.424v-2.142l2.789-1.693l1.461-3.918h3.238v3.951
		h5.195v3.802h-5.195v8.948c0,0.72,0.201,1.251,0.605,1.594C549.057,61.299,549.591,61.471,550.255,61.471z"/>
	<path fill="#C73D27" d="M570.143,59.661c0,1.904-0.66,3.354-1.984,4.35c-1.322,0.996-3.301,1.494-5.934,1.494
		c-1.352,0-2.502-0.091-3.453-0.274c-0.953-0.183-1.844-0.451-2.674-0.805v-4.184c0.941,0.443,2,0.813,3.18,1.112
		c1.178,0.299,2.217,0.448,3.113,0.448c1.836,0,2.756-0.531,2.756-1.594c0-0.398-0.123-0.722-0.365-0.971
		c-0.244-0.249-0.664-0.531-1.262-0.847s-1.395-0.683-2.391-1.104c-1.428-0.598-2.477-1.151-3.146-1.66
		c-0.67-0.509-1.156-1.093-1.461-1.751c-0.305-0.658-0.457-1.469-0.457-2.432c0-1.649,0.639-2.924,1.918-3.827
		c1.277-0.902,3.09-1.353,5.438-1.353c2.234,0,4.41,0.487,6.523,1.461l-1.527,3.652c-0.93-0.398-1.799-0.725-2.605-0.979
		c-0.809-0.254-1.633-0.382-2.475-0.382c-1.494,0-2.24,0.404-2.24,1.212c0,0.454,0.24,0.847,0.721,1.179
		c0.482,0.332,1.537,0.825,3.164,1.478c1.449,0.587,2.512,1.135,3.188,1.644c0.674,0.509,1.172,1.096,1.494,1.76
		C569.983,57.951,570.143,58.743,570.143,59.661z"/>
	<path fill="#C73D27" d="M265.589,102.271c0.885,0,1.947-0.193,3.188-0.581v3.769c-1.262,0.564-2.813,0.847-4.648,0.847
		c-2.025,0-3.5-0.512-4.426-1.536c-0.924-1.023-1.385-2.559-1.385-4.607v-8.948h-2.424v-2.142l2.789-1.693l1.461-3.918h3.236v3.951
		h5.197v3.802h-5.197v8.948c0,0.72,0.203,1.251,0.605,1.594C264.389,102.099,264.925,102.271,265.589,102.271z"/>
	<path fill="#C73D27" d="M289.661,105.973h-5.064V95.132c0-2.678-0.996-4.018-2.988-4.018c-1.416,0-2.439,0.481-3.07,1.444
		s-0.947,2.523-0.947,4.682v8.732h-5.063V80.141h5.063v5.263c0,0.41-0.039,1.373-0.115,2.889l-0.117,1.494h0.266
		c1.129-1.815,2.922-2.723,5.379-2.723c2.182,0,3.836,0.587,4.965,1.76c1.129,1.173,1.693,2.855,1.693,5.047v12.102H289.661z"/>
	<path fill="#C73D27" d="M306.661,105.973l-0.98-2.523h-0.133c-0.852,1.074-1.729,1.818-2.631,2.233s-2.078,0.623-3.527,0.623
		c-1.783,0-3.186-0.509-4.209-1.527s-1.535-2.468-1.535-4.35c0-1.97,0.689-3.422,2.066-4.358c1.379-0.935,3.455-1.453,6.234-1.552
		l3.221-0.1v-0.813c0-1.881-0.963-2.822-2.889-2.822c-1.484,0-3.227,0.448-5.23,1.345l-1.676-3.42
		c2.135-1.118,4.504-1.677,7.105-1.677c2.49,0,4.398,0.542,5.727,1.627c1.328,1.085,1.992,2.734,1.992,4.947v12.368L306.661,105.973
		L306.661,105.973z M305.167,97.373l-1.959,0.066c-1.473,0.044-2.568,0.31-3.287,0.797c-0.721,0.487-1.08,1.229-1.08,2.225
		c0,1.428,0.82,2.142,2.457,2.142c1.174,0,2.111-0.337,2.814-1.013c0.703-0.675,1.055-1.571,1.055-2.689L305.167,97.373
		L305.167,97.373z"/>
	<path fill="#C73D27" d="M323.229,102.271c0.885,0,1.947-0.193,3.188-0.581v3.769c-1.262,0.564-2.813,0.847-4.648,0.847
		c-2.025,0-3.5-0.512-4.426-1.536c-0.924-1.023-1.385-2.559-1.385-4.607v-8.948h-2.424v-2.142l2.789-1.693l1.461-3.918h3.236v3.951
		h5.197v3.802h-5.197v8.948c0,0.72,0.203,1.251,0.605,1.594C322.03,102.099,322.565,102.271,323.229,102.271z"/>
	<path fill="#C73D27" d="M350.788,105.973l-0.98-2.523h-0.133c-0.852,1.074-1.729,1.818-2.631,2.233s-2.078,0.623-3.527,0.623
		c-1.783,0-3.186-0.509-4.209-1.527s-1.535-2.468-1.535-4.35c0-1.97,0.689-3.422,2.066-4.358c1.379-0.935,3.455-1.453,6.234-1.552
		l3.221-0.1v-0.813c0-1.881-0.963-2.822-2.889-2.822c-1.484,0-3.227,0.448-5.23,1.345l-1.676-3.42
		c2.135-1.118,4.504-1.677,7.105-1.677c2.49,0,4.398,0.542,5.727,1.627c1.328,1.085,1.992,2.734,1.992,4.947v12.368L350.788,105.973
		L350.788,105.973z M349.294,97.373l-1.959,0.066c-1.473,0.044-2.568,0.31-3.287,0.797c-0.721,0.487-1.08,1.229-1.08,2.225
		c0,1.428,0.82,2.142,2.457,2.142c1.174,0,2.111-0.337,2.814-1.013c0.703-0.675,1.055-1.571,1.055-2.689L349.294,97.373
		L349.294,97.373z"/>
	<path fill="#C73D27" d="M369.895,87.064c0.688,0,1.256,0.05,1.711,0.149l-0.383,4.748c-0.408-0.11-0.906-0.166-1.494-0.166
		c-1.615,0-2.875,0.415-3.777,1.245c-0.9,0.83-1.352,1.992-1.352,3.486v9.446h-5.064v-18.56h3.836l0.746,3.121h0.25
		c0.574-1.04,1.352-1.878,2.332-2.515C367.679,87.382,368.745,87.064,369.895,87.064z"/>
	<path fill="#C73D27" d="M383.376,106.305c-2.988,0-5.322-0.824-7.006-2.474c-1.682-1.649-2.523-3.984-2.523-7.006
		c0-3.11,0.777-5.514,2.332-7.213c1.557-1.699,3.705-2.548,6.451-2.548c2.623,0,4.664,0.747,6.125,2.241s2.191,3.559,2.191,6.192
		v2.457h-11.969c0.055,1.439,0.48,2.563,1.277,3.37c0.797,0.808,1.916,1.212,3.354,1.212c1.119,0,2.176-0.116,3.172-0.349
		s2.035-0.603,3.121-1.112v3.918c-0.887,0.443-1.832,0.772-2.84,0.988C386.055,106.197,384.827,106.305,383.376,106.305z
		 M382.663,90.666c-1.074,0-1.916,0.34-2.523,1.021c-0.609,0.681-0.957,1.646-1.047,2.897h7.105
		c-0.021-1.25-0.348-2.216-0.979-2.897S383.735,90.666,382.663,90.666z"/>
	<path fill="#C73D27" d="M414.155,91.214h-4.383v14.759h-5.063V91.214h-2.789v-2.44l2.789-1.361v-1.362
		c0-2.114,0.52-3.658,1.561-4.632c1.039-0.974,2.705-1.461,4.996-1.461c1.75,0,3.305,0.26,4.666,0.78l-1.295,3.719
		c-1.02-0.321-1.959-0.481-2.822-0.481c-0.721,0-1.24,0.213-1.561,0.639c-0.322,0.426-0.482,0.971-0.482,1.635v1.162h4.383
		L414.155,91.214L414.155,91.214z"/>
	<path fill="#C73D27" d="M428.848,105.973l-0.98-2.523h-0.133c-0.852,1.074-1.729,1.818-2.631,2.233s-2.078,0.623-3.527,0.623
		c-1.783,0-3.186-0.509-4.209-1.527s-1.535-2.468-1.535-4.35c0-1.97,0.689-3.422,2.066-4.358c1.379-0.935,3.455-1.453,6.234-1.552
		l3.221-0.1v-0.813c0-1.881-0.963-2.822-2.889-2.822c-1.484,0-3.227,0.448-5.23,1.345l-1.676-3.42
		c2.135-1.118,4.504-1.677,7.105-1.677c2.49,0,4.398,0.542,5.727,1.627c1.328,1.085,1.992,2.734,1.992,4.947v12.368L428.848,105.973
		L428.848,105.973z M427.354,97.373l-1.959,0.066c-1.473,0.044-2.568,0.31-3.287,0.797c-0.721,0.487-1.08,1.229-1.08,2.225
		c0,1.428,0.82,2.142,2.457,2.142c1.174,0,2.111-0.337,2.814-1.013c0.703-0.675,1.055-1.571,1.055-2.689L427.354,97.373
		L427.354,97.373z"/>
	<path fill="#C73D27" d="M437.382,82.614c0-1.649,0.918-2.474,2.756-2.474c1.836,0,2.756,0.825,2.756,2.474
		c0,0.786-0.23,1.397-0.689,1.834c-0.459,0.438-1.148,0.656-2.066,0.656C438.3,85.105,437.382,84.275,437.382,82.614z
		 M442.661,105.973h-5.064V87.412h5.064V105.973z"/>
	<path fill="#C73D27" d="M458.333,87.064c0.686,0,1.256,0.05,1.709,0.149l-0.381,4.748c-0.41-0.11-0.908-0.166-1.494-0.166
		c-1.617,0-2.875,0.415-3.777,1.245s-1.354,1.992-1.354,3.486v9.446h-5.063v-18.56h3.834l0.748,3.121h0.248
		c0.576-1.04,1.354-1.878,2.334-2.515C456.116,87.382,457.18,87.064,458.333,87.064z"/>
	<path fill="#C73D27" d="M461.768,98.934v-4.15h8.916v4.15H461.768z"/>
	<path fill="#C73D27" d="M482.173,102.271c0.885,0,1.947-0.193,3.188-0.581v3.769c-1.262,0.564-2.813,0.847-4.648,0.847
		c-2.025,0-3.5-0.512-4.426-1.536c-0.924-1.023-1.385-2.559-1.385-4.607v-8.948h-2.424v-2.142l2.789-1.693l1.461-3.918h3.236v3.951
		h5.197v3.802h-5.197v8.948c0,0.72,0.203,1.251,0.605,1.594C480.973,102.099,481.509,102.271,482.173,102.271z"/>
	<path fill="#C73D27" d="M499.472,87.064c0.686,0,1.256,0.05,1.709,0.149l-0.381,4.748c-0.41-0.11-0.908-0.166-1.494-0.166
		c-1.617,0-2.875,0.415-3.777,1.245s-1.354,1.992-1.354,3.486v9.446h-5.063v-18.56h3.834l0.748,3.121h0.248
		c0.576-1.04,1.354-1.878,2.334-2.515C497.255,87.382,498.319,87.064,499.472,87.064z"/>
	<path fill="#C73D27" d="M516.339,105.973l-0.98-2.523h-0.133c-0.852,1.074-1.729,1.818-2.631,2.233s-2.078,0.623-3.527,0.623
		c-1.783,0-3.186-0.509-4.209-1.527s-1.535-2.468-1.535-4.35c0-1.97,0.689-3.422,2.066-4.358c1.379-0.935,3.455-1.453,6.234-1.552
		l3.221-0.1v-0.813c0-1.881-0.963-2.822-2.889-2.822c-1.484,0-3.227,0.448-5.23,1.345l-1.676-3.42
		c2.135-1.118,4.504-1.677,7.105-1.677c2.49,0,4.398,0.542,5.727,1.627c1.328,1.085,1.992,2.734,1.992,4.947v12.368L516.339,105.973
		L516.339,105.973z M514.845,97.373l-1.959,0.066c-1.473,0.044-2.568,0.31-3.287,0.797c-0.721,0.487-1.08,1.229-1.08,2.225
		c0,1.428,0.82,2.142,2.457,2.142c1.174,0,2.111-0.337,2.814-1.013c0.703-0.675,1.055-1.571,1.055-2.689L514.845,97.373
		L514.845,97.373z"/>
	<path fill="#C73D27" d="M530.964,106.305c-2.18,0-3.893-0.847-5.139-2.54c-1.244-1.693-1.867-4.04-1.867-7.039
		c0-3.043,0.635-5.415,1.9-7.114c1.268-1.699,3.014-2.548,5.238-2.548c2.336,0,4.117,0.908,5.346,2.723h0.166
		c-0.254-1.383-0.381-2.617-0.381-3.702v-5.944h5.08v25.832h-3.885l-0.98-2.407h-0.215
		C535.075,105.392,533.321,106.305,530.964,106.305z M532.741,102.271c1.295,0,2.244-0.376,2.846-1.129
		c0.604-0.752,0.934-2.031,0.988-3.835v-0.548c0-1.992-0.307-3.42-0.922-4.283c-0.613-0.863-1.611-1.295-2.996-1.295
		c-1.129,0-2.006,0.479-2.631,1.436c-0.625,0.958-0.938,2.349-0.938,4.175s0.314,3.196,0.945,4.109S531.567,102.271,532.741,102.271
		z"/>
	<path fill="#C73D27" d="M555.003,106.305c-2.988,0-5.322-0.824-7.006-2.474c-1.682-1.649-2.523-3.984-2.523-7.006
		c0-3.11,0.777-5.514,2.332-7.213c1.557-1.699,3.705-2.548,6.451-2.548c2.623,0,4.664,0.747,6.125,2.241s2.191,3.559,2.191,6.192
		v2.457h-11.969c0.055,1.439,0.48,2.563,1.277,3.37c0.797,0.808,1.916,1.212,3.354,1.212c1.119,0,2.176-0.116,3.172-0.349
		s2.035-0.603,3.121-1.112v3.918c-0.887,0.443-1.832,0.772-2.84,0.988C557.682,106.197,556.454,106.305,555.003,106.305z
		 M554.29,90.666c-1.074,0-1.916,0.34-2.523,1.021c-0.609,0.681-0.957,1.646-1.047,2.897h7.105c-0.021-1.25-0.348-2.216-0.979-2.897
		S555.362,90.666,554.29,90.666z"/>
	<path fill="#C73D27" d="M571.655,102.403c-0.576,2.236-1.551,4.886-2.922,7.952h-3.652c0.719-2.944,1.277-5.722,1.676-8.334h4.648
		L571.655,102.403z"/>
	<path fill="#C73D27" d="M270.917,146.773l-0.68-2.374h-0.266c-0.543,0.863-1.313,1.53-2.309,2s-2.131,0.706-3.402,0.706
		c-2.182,0-3.824-0.583-4.932-1.751c-1.105-1.167-1.66-2.847-1.66-5.039v-12.103h5.064v10.841c0,1.339,0.238,2.344,0.713,3.013
		c0.477,0.67,1.234,1.004,2.275,1.004c1.416,0,2.439-0.473,3.07-1.419s0.947-2.515,0.947-4.707v-8.732h5.063v18.561L270.917,146.773
		L270.917,146.773z"/>
	<path fill="#C73D27" d="M297.247,146.773h-5.063v-10.841c0-1.339-0.238-2.343-0.715-3.013c-0.475-0.669-1.234-1.004-2.273-1.004
		c-1.418,0-2.441,0.473-3.072,1.419s-0.945,2.515-0.945,4.707v8.732h-5.064v-18.561h3.869l0.68,2.374h0.283
		c0.564-0.896,1.342-1.574,2.332-2.034c0.99-0.459,2.117-0.689,3.379-0.689c2.158,0,3.795,0.584,4.914,1.751
		c1.117,1.168,1.676,2.853,1.676,5.055v12.104H297.247z"/>
	<path fill="#C73D27" d="M302.245,123.415c0-1.649,0.918-2.474,2.756-2.474c1.836,0,2.756,0.825,2.756,2.474
		c0,0.786-0.23,1.397-0.689,1.834c-0.459,0.438-1.148,0.656-2.066,0.656C303.163,125.905,302.245,125.075,302.245,123.415z
		 M307.524,146.773h-5.064v-18.561h5.064V146.773z"/>
	<path fill="#C73D27" d="M329.704,137.46c0,3.021-0.797,5.385-2.391,7.089c-1.594,1.705-3.813,2.557-6.658,2.557
		c-1.781,0-3.354-0.39-4.715-1.17s-2.406-1.901-3.137-3.362s-1.096-3.165-1.096-5.113c0-3.032,0.791-5.39,2.373-7.072
		c1.584-1.682,3.809-2.523,6.674-2.523c1.783,0,3.354,0.388,4.715,1.162c1.361,0.775,2.408,1.887,3.139,3.337
		C329.339,133.813,329.704,135.512,329.704,137.46z M316.87,137.46c0,1.837,0.303,3.227,0.906,4.167
		c0.602,0.941,1.584,1.411,2.945,1.411c1.352,0,2.322-0.467,2.914-1.403c0.592-0.935,0.889-2.327,0.889-4.175
		c0-1.837-0.299-3.215-0.896-4.134c-0.598-0.918-1.578-1.378-2.939-1.378c-1.35,0-2.324,0.457-2.922,1.37
		S316.87,135.611,316.87,137.46z"/>
	<path fill="#C73D27" d="M351.02,146.773h-5.064v-10.841c0-1.339-0.238-2.343-0.713-3.013c-0.477-0.669-1.234-1.004-2.275-1.004
		c-1.416,0-2.439,0.473-3.07,1.419s-0.947,2.515-0.947,4.707v8.732h-5.063v-18.561h3.867l0.682,2.374h0.281
		c0.564-0.896,1.342-1.574,2.334-2.034c0.99-0.459,2.115-0.689,3.377-0.689c2.158,0,3.797,0.584,4.914,1.751
		c1.119,1.168,1.678,2.853,1.678,5.055L351.02,146.773L351.02,146.773z"/>
	<path fill="#C73D27" d="M381.682,146.773h-5.063v-10.841c0-1.339-0.225-2.343-0.672-3.013c-0.449-0.669-1.154-1.004-2.117-1.004
		c-1.295,0-2.236,0.476-2.822,1.428c-0.588,0.952-0.881,2.518-0.881,4.698v8.732h-5.063v-18.561h3.867l0.682,2.374h0.281
		c0.498-0.852,1.219-1.519,2.158-2c0.941-0.481,2.02-0.722,3.238-0.722c2.777,0,4.658,0.908,5.645,2.723h0.447
		c0.498-0.863,1.232-1.533,2.201-2.009c0.967-0.476,2.061-0.714,3.277-0.714c2.104,0,3.695,0.54,4.773,1.619
		c1.08,1.079,1.619,2.809,1.619,5.188v12.103h-5.08v-10.841c0-1.339-0.225-2.343-0.672-3.013c-0.449-0.669-1.154-1.004-2.117-1.004
		c-1.24,0-2.166,0.443-2.781,1.328c-0.613,0.886-0.922,2.291-0.922,4.217v9.312H381.682z"/>
	<path fill="#C73D27" d="M410.237,146.773l-0.979-2.523h-0.133c-0.854,1.074-1.73,1.818-2.633,2.233
		c-0.9,0.415-2.076,0.623-3.527,0.623c-1.781,0-3.184-0.509-4.209-1.527c-1.023-1.018-1.535-2.468-1.535-4.35
		c0-1.97,0.689-3.422,2.066-4.358c1.379-0.935,3.457-1.453,6.234-1.552l3.221-0.1v-0.813c0-1.881-0.963-2.822-2.889-2.822
		c-1.482,0-3.227,0.448-5.229,1.345l-1.678-3.42c2.137-1.118,4.506-1.677,7.105-1.677c2.49,0,4.4,0.542,5.729,1.627
		c1.328,1.085,1.992,2.734,1.992,4.947v12.368L410.237,146.773L410.237,146.773z M408.743,138.173l-1.959,0.066
		c-1.471,0.044-2.566,0.31-3.287,0.797c-0.719,0.487-1.078,1.229-1.078,2.225c0,1.428,0.818,2.142,2.457,2.142
		c1.172,0,2.111-0.337,2.813-1.013c0.703-0.675,1.055-1.571,1.055-2.689v-1.528H408.743z"/>
	<path fill="#C73D27" d="M424.864,147.105c-2.182,0-3.893-0.847-5.139-2.54c-1.244-1.693-1.867-4.04-1.867-7.039
		c0-3.043,0.633-5.415,1.9-7.114c1.268-1.699,3.014-2.548,5.238-2.548c2.334,0,4.117,0.908,5.346,2.723h0.166
		c-0.256-1.383-0.383-2.617-0.383-3.702v-5.943h5.08v25.832h-3.885l-0.979-2.407h-0.217
		C428.975,146.192,427.222,147.105,424.864,147.105z M426.639,143.071c1.295,0,2.244-0.376,2.848-1.129
		c0.604-0.752,0.932-2.031,0.988-3.835v-0.548c0-1.992-0.307-3.42-0.922-4.283c-0.613-0.863-1.613-1.295-2.996-1.295
		c-1.129,0-2.006,0.479-2.631,1.436c-0.627,0.958-0.939,2.349-0.939,4.175s0.316,3.196,0.947,4.109S425.468,143.071,426.639,143.071
		z"/>
	<path fill="#C73D27" d="M448.903,147.105c-2.988,0-5.324-0.824-7.006-2.474c-1.684-1.649-2.523-3.984-2.523-7.006
		c0-3.11,0.777-5.514,2.332-7.213c1.555-1.699,3.705-2.548,6.449-2.548c2.623,0,4.666,0.747,6.127,2.241
		c1.461,1.494,2.191,3.559,2.191,6.192v2.457h-11.971c0.057,1.439,0.482,2.563,1.279,3.37c0.797,0.808,1.914,1.212,3.354,1.212
		c1.117,0,2.174-0.116,3.17-0.349s2.037-0.603,3.121-1.112v3.918c-0.885,0.443-1.832,0.772-2.838,0.988
		C451.581,146.997,450.352,147.105,448.903,147.105z M448.188,131.466c-1.072,0-1.914,0.34-2.523,1.021
		c-0.607,0.681-0.957,1.646-1.045,2.897h7.105c-0.023-1.25-0.35-2.216-0.98-2.897S449.263,131.466,448.188,131.466z"/>
	<path fill="#C73D27" d="M486.29,137.46c0,3.021-0.797,5.385-2.391,7.089c-1.594,1.705-3.813,2.557-6.658,2.557
		c-1.781,0-3.354-0.39-4.715-1.17s-2.406-1.901-3.137-3.362s-1.096-3.165-1.096-5.113c0-3.032,0.791-5.39,2.373-7.072
		c1.584-1.682,3.809-2.523,6.674-2.523c1.783,0,3.354,0.388,4.715,1.162c1.361,0.775,2.408,1.887,3.139,3.337
		C485.925,133.813,486.29,135.512,486.29,137.46z M473.456,137.46c0,1.837,0.303,3.227,0.906,4.167
		c0.602,0.941,1.584,1.411,2.945,1.411c1.352,0,2.322-0.467,2.914-1.403c0.592-0.935,0.889-2.327,0.889-4.175
		c0-1.837-0.299-3.215-0.896-4.134c-0.598-0.918-1.578-1.378-2.939-1.378c-1.35,0-2.324,0.457-2.922,1.37
		S473.456,135.611,473.456,137.46z"/>
	<path fill="#C73D27" d="M500.833,127.864c0.686,0,1.256,0.05,1.709,0.149l-0.381,4.748c-0.41-0.11-0.908-0.166-1.494-0.166
		c-1.617,0-2.875,0.415-3.777,1.245s-1.354,1.992-1.354,3.486v9.446h-5.063v-18.561h3.834l0.748,3.121h0.248
		c0.576-1.04,1.354-1.878,2.334-2.515C498.616,128.182,499.68,127.864,500.833,127.864z"/>
	<path fill="#C73D27" d="M531.878,146.773h-5.064v-10.841c0-2.678-0.996-4.018-2.988-4.018c-1.416,0-2.439,0.481-3.07,1.444
		s-0.947,2.523-0.947,4.682v8.732h-5.063v-25.831h5.063v5.263c0,0.41-0.039,1.373-0.115,2.889l-0.117,1.494h0.266
		c1.129-1.815,2.922-2.723,5.379-2.723c2.182,0,3.836,0.587,4.965,1.76c1.129,1.173,1.693,2.855,1.693,5.047v12.102H531.878z"/>
	<path fill="#C73D27" d="M548.878,146.773l-0.98-2.523h-0.133c-0.852,1.074-1.729,1.818-2.631,2.233s-2.078,0.623-3.527,0.623
		c-1.783,0-3.186-0.509-4.209-1.527c-1.023-1.018-1.535-2.468-1.535-4.35c0-1.97,0.689-3.422,2.066-4.358
		c1.379-0.935,3.455-1.453,6.234-1.552l3.221-0.1v-0.813c0-1.881-0.963-2.822-2.889-2.822c-1.484,0-3.227,0.448-5.23,1.345
		l-1.676-3.42c2.135-1.118,4.504-1.677,7.105-1.677c2.49,0,4.398,0.542,5.727,1.627c1.328,1.085,1.992,2.734,1.992,4.947v12.368
		L548.878,146.773L548.878,146.773z M547.384,138.173l-1.959,0.066c-1.473,0.044-2.568,0.31-3.287,0.797
		c-0.721,0.487-1.08,1.229-1.08,2.225c0,1.428,0.82,2.142,2.457,2.142c1.174,0,2.111-0.337,2.814-1.013
		c0.703-0.675,1.055-1.571,1.055-2.689L547.384,138.173L547.384,138.173z"/>
	<path fill="#C73D27" d="M562.042,146.773l-7.072-18.561h5.297l3.586,10.575c0.398,1.339,0.646,2.606,0.746,3.802h0.1
		c0.057-1.063,0.305-2.33,0.748-3.802l3.568-10.575h5.297l-7.072,18.561H562.042z"/>
	<path fill="#C73D27" d="M585.368,147.105c-2.988,0-5.324-0.824-7.006-2.474c-1.684-1.649-2.523-3.984-2.523-7.006
		c0-3.11,0.777-5.514,2.332-7.213c1.555-1.699,3.705-2.548,6.449-2.548c2.623,0,4.666,0.747,6.127,2.241
		c1.461,1.494,2.191,3.559,2.191,6.192v2.457h-11.971c0.057,1.439,0.482,2.563,1.279,3.37c0.797,0.808,1.914,1.212,3.354,1.212
		c1.117,0,2.174-0.116,3.17-0.349s2.037-0.603,3.121-1.112v3.918c-0.885,0.443-1.832,0.772-2.838,0.988
		C588.046,146.997,586.817,147.105,585.368,147.105z M584.653,131.466c-1.072,0-1.914,0.34-2.523,1.021
		c-0.607,0.681-0.957,1.646-1.045,2.897h7.105c-0.023-1.25-0.35-2.216-0.98-2.897S585.727,131.466,584.653,131.466z"/>
	<path fill="#C73D27" d="M274.901,187.573h-5.063v-10.841c0-2.678-0.996-4.018-2.988-4.018c-1.418,0-2.441,0.481-3.072,1.444
		s-0.945,2.523-0.945,4.682v8.732h-5.064v-25.831h5.064v5.263c0,0.41-0.039,1.373-0.117,2.889l-0.115,1.494h0.266
		c1.129-1.815,2.922-2.723,5.379-2.723c2.18,0,3.834,0.587,4.963,1.76c1.129,1.173,1.693,2.855,1.693,5.047v12.102H274.901z"/>
	<path fill="#C73D27" d="M279.899,164.214c0-1.649,0.918-2.474,2.756-2.474c1.836,0,2.756,0.825,2.756,2.474
		c0,0.786-0.23,1.397-0.689,1.834c-0.459,0.438-1.148,0.656-2.066,0.656C280.817,166.705,279.899,165.875,279.899,164.214z
		 M285.179,187.573h-5.064v-18.561h5.064V187.573z"/>
	<path fill="#C73D27" d="M306.643,169.012v2.573l-2.904,0.747c0.531,0.83,0.797,1.76,0.797,2.789c0,1.992-0.695,3.544-2.084,4.657
		s-3.318,1.668-5.785,1.668l-0.914-0.05l-0.746-0.083c-0.521,0.398-0.781,0.841-0.781,1.328c0,0.73,0.93,1.096,2.789,1.096h3.154
		c2.037,0,3.59,0.438,4.658,1.312c1.066,0.875,1.602,2.158,1.602,3.852c0,2.169-0.904,3.852-2.715,5.047
		c-1.809,1.195-4.408,1.793-7.795,1.793c-2.59,0-4.568-0.451-5.934-1.353c-1.367-0.902-2.051-2.167-2.051-3.793
		c0-1.118,0.348-2.053,1.045-2.806s1.721-1.289,3.072-1.61c-0.521-0.221-0.975-0.583-1.361-1.087
		c-0.389-0.503-0.582-1.038-0.582-1.602c0-0.708,0.205-1.297,0.615-1.768c0.408-0.47,1.002-0.932,1.775-1.386
		c-0.973-0.42-1.746-1.096-2.314-2.025c-0.57-0.93-0.855-2.025-0.855-3.287c0-2.025,0.658-3.591,1.975-4.698
		c1.318-1.106,3.199-1.66,5.645-1.66c0.521,0,1.139,0.047,1.852,0.141c0.715,0.094,1.17,0.164,1.369,0.208h6.473V169.012z
		 M292.317,190.196c0,0.697,0.334,1.245,1.004,1.644s1.607,0.598,2.814,0.598c1.814,0,3.236-0.249,4.266-0.747
		s1.545-1.179,1.545-2.042c0-0.697-0.305-1.179-0.914-1.444c-0.607-0.266-1.549-0.398-2.822-0.398h-2.623
		c-0.93,0-1.707,0.218-2.332,0.656C292.63,188.898,292.317,189.476,292.317,190.196z M294.159,175.089
		c0,1.007,0.23,1.804,0.689,2.391s1.16,0.88,2.1,0.88c0.953,0,1.65-0.293,2.092-0.88c0.443-0.586,0.664-1.383,0.664-2.391
		c0-2.235-0.918-3.354-2.756-3.354C295.089,171.735,294.159,172.853,294.159,175.089z"/>
	<path fill="#C73D27" d="M326.831,187.573h-5.063v-10.841c0-2.678-0.996-4.018-2.988-4.018c-1.418,0-2.441,0.481-3.072,1.444
		s-0.945,2.523-0.945,4.682v8.732h-5.064v-25.831h5.064v5.263c0,0.41-0.039,1.373-0.117,2.889l-0.115,1.494h0.266
		c1.129-1.815,2.922-2.723,5.379-2.723c2.18,0,3.834,0.587,4.963,1.76c1.129,1.173,1.693,2.855,1.693,5.047v12.102H326.831z"/>
	<path fill="#C73D27" d="M345.94,187.573h-5.064v-25.832h5.064V187.573z"/>
	<path fill="#C73D27" d="M363.04,187.573l-0.98-2.523h-0.133c-0.852,1.074-1.729,1.818-2.631,2.233s-2.078,0.623-3.527,0.623
		c-1.783,0-3.186-0.509-4.209-1.527c-1.023-1.018-1.535-2.468-1.535-4.35c0-1.97,0.689-3.422,2.066-4.358
		c1.379-0.935,3.455-1.453,6.234-1.552l3.221-0.1v-0.813c0-1.881-0.963-2.822-2.889-2.822c-1.484,0-3.227,0.448-5.23,1.345
		l-1.676-3.42c2.135-1.118,4.504-1.677,7.105-1.677c2.49,0,4.398,0.542,5.727,1.627c1.328,1.085,1.992,2.734,1.992,4.947v12.368
		L363.04,187.573L363.04,187.573z M361.546,178.973l-1.959,0.066c-1.473,0.044-2.568,0.31-3.287,0.797
		c-0.721,0.487-1.08,1.229-1.08,2.225c0,1.428,0.82,2.142,2.457,2.142c1.174,0,2.111-0.337,2.814-1.013
		c0.703-0.675,1.055-1.571,1.055-2.689L361.546,178.973L361.546,178.973z"/>
	<path fill="#C73D27" d="M382.114,168.664c2.191,0,3.908,0.855,5.146,2.565c1.24,1.71,1.859,4.054,1.859,7.031
		c0,3.066-0.639,5.44-1.918,7.122c-1.277,1.683-3.018,2.523-5.221,2.523c-2.18,0-3.891-0.791-5.129-2.374h-0.35l-0.846,2.042h-3.869
		v-25.832h5.064v6.01c0,0.764-0.066,1.987-0.199,3.669h0.199C378.036,169.583,379.79,168.664,382.114,168.664z M380.487,172.714
		c-1.25,0-2.164,0.385-2.738,1.154c-0.576,0.77-0.875,2.04-0.896,3.81v0.548c0,1.992,0.295,3.42,0.887,4.283
		c0.594,0.863,1.531,1.295,2.814,1.295c1.041,0,1.867-0.479,2.482-1.436c0.613-0.957,0.922-2.349,0.922-4.175
		s-0.311-3.196-0.93-4.109C382.407,173.171,381.561,172.714,380.487,172.714z"/>
	<path fill="#C73D27" d="M410.171,178.259c0,3.021-0.797,5.385-2.391,7.089c-1.594,1.705-3.813,2.557-6.656,2.557
		c-1.783,0-3.354-0.39-4.715-1.17s-2.408-1.901-3.139-3.362s-1.096-3.165-1.096-5.113c0-3.032,0.791-5.39,2.375-7.072
		c1.582-1.682,3.807-2.523,6.674-2.523c1.781,0,3.354,0.388,4.715,1.162c1.361,0.775,2.406,1.887,3.137,3.337
		C409.805,174.613,410.171,176.312,410.171,178.259z M397.339,178.259c0,1.837,0.301,3.227,0.904,4.167
		c0.604,0.941,1.586,1.411,2.947,1.411c1.35,0,2.32-0.467,2.912-1.403c0.594-0.935,0.889-2.327,0.889-4.175
		c0-1.837-0.299-3.215-0.896-4.134c-0.598-0.918-1.576-1.378-2.938-1.378c-1.352,0-2.324,0.457-2.922,1.37
		S397.339,176.411,397.339,178.259z"/>
	<path fill="#C73D27" d="M424.714,168.664c0.688,0,1.256,0.05,1.711,0.149l-0.383,4.748c-0.408-0.11-0.906-0.166-1.494-0.166
		c-1.615,0-2.875,0.415-3.777,1.245c-0.9,0.83-1.352,1.992-1.352,3.486v9.446h-5.064v-18.561h3.836l0.746,3.121h0.25
		c0.574-1.04,1.352-1.878,2.332-2.515C422.497,168.982,423.563,168.664,424.714,168.664z"/>
	<path fill="#C73D27" d="M451.575,182.061c0,1.904-0.66,3.354-1.984,4.35c-1.322,0.996-3.301,1.494-5.934,1.494
		c-1.352,0-2.502-0.091-3.453-0.274c-0.953-0.183-1.844-0.451-2.674-0.805v-4.184c0.941,0.443,2,0.813,3.18,1.112
		c1.178,0.299,2.217,0.448,3.113,0.448c1.836,0,2.756-0.531,2.756-1.594c0-0.398-0.123-0.722-0.365-0.971
		c-0.244-0.249-0.664-0.531-1.262-0.847s-1.395-0.683-2.391-1.104c-1.428-0.598-2.477-1.151-3.146-1.66
		c-0.67-0.509-1.156-1.093-1.461-1.751s-0.457-1.469-0.457-2.432c0-1.649,0.639-2.924,1.918-3.827
		c1.277-0.902,3.09-1.353,5.438-1.353c2.234,0,4.41,0.487,6.523,1.461l-1.527,3.652c-0.93-0.398-1.799-0.725-2.605-0.979
		c-0.809-0.254-1.633-0.382-2.475-0.382c-1.494,0-2.24,0.404-2.24,1.212c0,0.454,0.24,0.847,0.721,1.179
		c0.482,0.332,1.537,0.825,3.164,1.478c1.449,0.587,2.512,1.135,3.188,1.644c0.674,0.509,1.172,1.096,1.494,1.76
		C451.415,180.351,451.575,181.143,451.575,182.061z"/>
	<path fill="#C73D27" d="M463.347,183.871c0.885,0,1.947-0.193,3.188-0.581v3.769c-1.262,0.564-2.813,0.847-4.648,0.847
		c-2.025,0-3.5-0.512-4.426-1.536c-0.924-1.023-1.385-2.559-1.385-4.607v-8.948h-2.424v-2.142l2.789-1.693l1.461-3.918h3.236v3.951
		h5.197v3.802h-5.197v8.948c0,0.72,0.203,1.251,0.605,1.594C462.147,183.699,462.682,183.871,463.347,183.871z"/>
	<path fill="#C73D27" d="M482.073,187.573l-0.98-2.523h-0.133c-0.852,1.074-1.729,1.818-2.631,2.233s-2.078,0.623-3.527,0.623
		c-1.783,0-3.186-0.509-4.209-1.527c-1.023-1.018-1.535-2.468-1.535-4.35c0-1.97,0.689-3.422,2.066-4.358
		c1.379-0.935,3.455-1.453,6.234-1.552l3.221-0.1v-0.813c0-1.881-0.963-2.822-2.889-2.822c-1.484,0-3.227,0.448-5.23,1.345
		l-1.676-3.42c2.135-1.118,4.504-1.677,7.105-1.677c2.49,0,4.398,0.542,5.727,1.627c1.328,1.085,1.992,2.734,1.992,4.947v12.368
		L482.073,187.573L482.073,187.573z M480.579,178.973l-1.959,0.066c-1.473,0.044-2.568,0.31-3.287,0.797
		c-0.721,0.487-1.08,1.229-1.08,2.225c0,1.428,0.82,2.142,2.457,2.142c1.174,0,2.111-0.337,2.814-1.013
		c0.703-0.675,1.055-1.571,1.055-2.689L480.579,178.973L480.579,178.973z"/>
	<path fill="#C73D27" d="M507.954,187.573h-5.063v-10.841c0-1.339-0.238-2.343-0.715-3.013c-0.475-0.669-1.234-1.004-2.273-1.004
		c-1.418,0-2.441,0.473-3.072,1.419s-0.945,2.515-0.945,4.707v8.732h-5.064v-18.561h3.869l0.68,2.374h0.283
		c0.564-0.896,1.342-1.574,2.332-2.034c0.99-0.459,2.117-0.689,3.379-0.689c2.158,0,3.795,0.584,4.914,1.751
		c1.117,1.168,1.676,2.853,1.676,5.055v12.104H507.954z"/>
	<path fill="#C73D27" d="M519.044,187.905c-2.18,0-3.893-0.847-5.139-2.54c-1.244-1.693-1.867-4.04-1.867-7.039
		c0-3.043,0.635-5.415,1.9-7.114c1.268-1.699,3.014-2.548,5.238-2.548c2.336,0,4.117,0.908,5.346,2.723h0.166
		c-0.254-1.383-0.381-2.617-0.381-3.702v-5.943h5.08v25.832h-3.885l-0.98-2.407h-0.215
		C523.155,186.992,521.401,187.905,519.044,187.905z M520.821,183.871c1.295,0,2.244-0.376,2.846-1.129
		c0.604-0.752,0.934-2.031,0.988-3.835v-0.548c0-1.992-0.307-3.42-0.922-4.283c-0.613-0.863-1.611-1.295-2.996-1.295
		c-1.129,0-2.006,0.479-2.631,1.436c-0.625,0.958-0.938,2.349-0.938,4.175s0.314,3.196,0.945,4.109S519.647,183.871,520.821,183.871
		z"/>
	<path fill="#C73D27" d="M546.47,187.573l-0.979-2.523h-0.133c-0.854,1.074-1.73,1.818-2.633,2.233
		c-0.9,0.415-2.076,0.623-3.527,0.623c-1.781,0-3.184-0.509-4.209-1.527c-1.023-1.018-1.535-2.468-1.535-4.35
		c0-1.97,0.689-3.422,2.066-4.358c1.379-0.935,3.457-1.453,6.234-1.552l3.221-0.1v-0.813c0-1.881-0.963-2.822-2.889-2.822
		c-1.482,0-3.227,0.448-5.229,1.345l-1.678-3.42c2.137-1.118,4.506-1.677,7.105-1.677c2.49,0,4.4,0.542,5.729,1.627
		c1.328,1.085,1.992,2.734,1.992,4.947v12.368L546.47,187.573L546.47,187.573z M544.975,178.973l-1.959,0.066
		c-1.471,0.044-2.566,0.31-3.287,0.797c-0.719,0.487-1.078,1.229-1.078,2.225c0,1.428,0.818,2.142,2.457,2.142
		c1.172,0,2.111-0.337,2.813-1.013c0.703-0.675,1.055-1.571,1.055-2.689v-1.528H544.975z"/>
	<path fill="#C73D27" d="M565.579,168.664c0.686,0,1.256,0.05,1.709,0.149l-0.381,4.748c-0.41-0.11-0.908-0.166-1.494-0.166
		c-1.617,0-2.875,0.415-3.777,1.245s-1.354,1.992-1.354,3.486v9.446h-5.063v-18.561h3.834l0.748,3.121h0.248
		c0.576-1.04,1.354-1.878,2.334-2.515C563.362,168.982,564.427,168.664,565.579,168.664z"/>
	<path fill="#C73D27" d="M576.536,187.905c-2.182,0-3.893-0.847-5.139-2.54c-1.244-1.693-1.867-4.04-1.867-7.039
		c0-3.043,0.633-5.415,1.9-7.114c1.268-1.699,3.014-2.548,5.238-2.548c2.334,0,4.117,0.908,5.346,2.723h0.166
		c-0.256-1.383-0.383-2.617-0.383-3.702v-5.943h5.08v25.832h-3.885l-0.979-2.407h-0.217
		C580.647,186.992,578.893,187.905,576.536,187.905z M578.311,183.871c1.295,0,2.244-0.376,2.848-1.129
		c0.604-0.752,0.932-2.031,0.988-3.835v-0.548c0-1.992-0.307-3.42-0.922-4.283c-0.613-0.863-1.613-1.295-2.996-1.295
		c-1.129,0-2.006,0.479-2.631,1.436c-0.627,0.958-0.939,2.349-0.939,4.175s0.316,3.196,0.947,4.109S577.139,183.871,578.311,183.871
		z"/>
	<path fill="#C73D27" d="M605.124,182.061c0,1.904-0.662,3.354-1.984,4.35s-3.301,1.494-5.936,1.494c-1.35,0-2.5-0.091-3.453-0.274
		c-0.951-0.183-1.842-0.451-2.672-0.805v-4.184c0.939,0.443,2,0.813,3.18,1.112c1.178,0.299,2.215,0.448,3.111,0.448
		c1.838,0,2.756-0.531,2.756-1.594c0-0.398-0.121-0.722-0.365-0.971c-0.242-0.249-0.664-0.531-1.262-0.847s-1.395-0.683-2.391-1.104
		c-1.428-0.598-2.477-1.151-3.145-1.66c-0.67-0.509-1.158-1.093-1.461-1.751c-0.305-0.658-0.457-1.469-0.457-2.432
		c0-1.649,0.639-2.924,1.918-3.827c1.277-0.902,3.09-1.353,5.436-1.353c2.236,0,4.41,0.487,6.525,1.461l-1.527,3.652
		c-0.93-0.398-1.799-0.725-2.607-0.979c-0.807-0.254-1.633-0.382-2.473-0.382c-1.494,0-2.242,0.404-2.242,1.212
		c0,0.454,0.242,0.847,0.723,1.179c0.482,0.332,1.535,0.825,3.162,1.478c1.451,0.587,2.514,1.135,3.188,1.644
		c0.676,0.509,1.174,1.096,1.494,1.76C604.964,180.351,605.124,181.143,605.124,182.061z"/>
</g>
</svg>
