<?xml version="1.0" encoding="UTF-8" standalone="no"?><!DOCTYPE svg PUBLIC "-//W3C//DTD SVG 1.1//EN" "http://www.w3.org/Graphics/SVG/1.1/DTD/svg11.dtd"><svg width="100%" height="100%" viewBox="0 0 237 69" version="1.1" xmlns="http://www.w3.org/2000/svg" xmlns:xlink="http://www.w3.org/1999/xlink" xml:space="preserve" style="fill-rule:evenodd;clip-rule:evenodd;stroke-linejoin:round;stroke-miterlimit:1.41421;"><g id="recs-for-consumers-title"><g><path d="M24.49,18.796l0,4.099l-0.73,0l0,-9.407l2.49,0c1.298,0 2.258,0.216 2.878,0.647c0.62,0.431 0.931,1.08 0.931,1.946c0,0.631 -0.185,1.162 -0.555,1.596c-0.37,0.433 -0.932,0.744 -1.686,0.933l2.842,4.285l-0.873,0l-2.699,-4.099l-2.598,0l0,0Zm0,-0.566l1.997,0c0.883,0 1.568,-0.177 2.054,-0.531c0.487,-0.354 0.73,-0.876 0.73,-1.567c0,-0.716 -0.239,-1.237 -0.716,-1.563c-0.477,-0.326 -1.254,-0.489 -2.333,-0.489l-1.732,0l0,4.15Z" style="fill:#c73d27;fill-rule:nonzero;"/><path d="M39.655,22.895l-5.719,0l0,-9.407l5.719,0l0,0.605l-4.989,0l0,3.558l4.71,0l0,0.605l-4.71,0l0,4.034l4.989,0l0,0.605Z" style="fill:#c73d27;fill-rule:nonzero;"/><path d="M47.956,13.945c-1.313,0 -2.346,0.378 -3.099,1.133c-0.755,0.755 -1.131,1.788 -1.131,3.101c0,1.343 0.355,2.385 1.067,3.127c0.71,0.742 1.726,1.112 3.049,1.112c0.877,0 1.683,-0.1 2.419,-0.302l0,0.579c-0.693,0.219 -1.556,0.328 -2.591,0.328c-1.47,0 -2.627,-0.427 -3.471,-1.28c-0.845,-0.853 -1.267,-2.046 -1.267,-3.577c0,-0.957 0.202,-1.8 0.605,-2.529c0.403,-0.729 0.982,-1.292 1.739,-1.689c0.757,-0.396 1.636,-0.595 2.638,-0.595c1.021,0 1.934,0.172 2.741,0.515l-0.293,0.592c-0.766,-0.344 -1.567,-0.515 -2.406,-0.515Z" style="fill:#c73d27;fill-rule:nonzero;"/><path d="M62.856,18.179c0,1.493 -0.415,2.673 -1.245,3.542c-0.831,0.868 -1.975,1.303 -3.436,1.303c-1.455,0 -2.598,-0.434 -3.429,-1.303c-0.83,-0.869 -1.245,-2.054 -1.245,-3.555c0,-1.497 0.419,-2.676 1.256,-3.536c0.838,-0.86 1.981,-1.29 3.433,-1.29c1.459,0 2.603,0.432 3.428,1.297c0.825,0.864 1.238,2.045 1.238,3.542Zm-8.56,0c0,1.346 0.335,2.388 1.002,3.123c0.668,0.736 1.627,1.104 2.878,1.104c1.259,0 2.222,-0.364 2.887,-1.094c0.666,-0.729 0.998,-1.773 0.998,-3.133c0,-1.355 -0.332,-2.394 -0.998,-3.117c-0.665,-0.723 -1.623,-1.085 -2.873,-1.085c-1.246,0 -2.207,0.365 -2.882,1.094c-0.675,0.729 -1.012,1.765 -1.012,3.108Z" style="fill:#c73d27;fill-rule:nonzero;"/><path d="M71.329,22.895l-3.901,-8.686l-0.057,0c0.038,0.531 0.057,1.076 0.057,1.634l0,7.051l-0.702,0l0,-9.406l1.131,0l3.708,8.274l0.043,0l3.708,-8.274l1.102,0l0,9.406l-0.737,0l0,-7.129c0,-0.497 0.029,-1.012 0.086,-1.544l-0.057,0l-3.916,8.673l-0.465,0l0,0.001Z" style="fill:#c73d27;fill-rule:nonzero;"/><path d="M85.442,22.895l-3.901,-8.686l-0.057,0c0.038,0.531 0.057,1.076 0.057,1.634l0,7.051l-0.701,0l0,-9.406l1.131,0l3.707,8.274l0.044,0l3.707,-8.274l1.103,0l0,9.406l-0.738,0l0,-7.129c0,-0.497 0.029,-1.012 0.086,-1.544l-0.057,0l-3.915,8.673l-0.466,0l0,0.001Z" style="fill:#c73d27;fill-rule:nonzero;"/><path d="M100.671,22.895l-5.719,0l0,-9.407l5.719,0l0,0.605l-4.989,0l0,3.558l4.709,0l0,0.605l-4.709,0l0,4.034l4.989,0l0,0.605Z" style="fill:#c73d27;fill-rule:nonzero;"/><path d="M112.113,22.895l-0.737,0l-6.198,-8.352l-0.057,0c0.057,0.995 0.086,1.746 0.086,2.252l0,6.1l-0.702,0l0,-9.407l0.73,0l6.191,8.339l0.043,0c-0.043,-0.772 -0.064,-1.506 -0.064,-2.201l0,-6.138l0.708,0l0,9.407Z" style="fill:#c73d27;fill-rule:nonzero;"/><path d="M124.487,18.101c0,1.579 -0.46,2.772 -1.381,3.581c-0.922,0.808 -2.275,1.213 -4.059,1.213l-2.505,0l0,-9.407l2.827,0c1.67,0 2.941,0.393 3.811,1.178c0.871,0.784 1.307,1.93 1.307,3.435Zm-0.794,0.026c0,-1.347 -0.381,-2.361 -1.142,-3.04c-0.761,-0.679 -1.879,-1.02 -3.353,-1.02l-1.926,0l0,8.249l1.732,0c3.126,0 4.689,-1.396 4.689,-4.189Z" style="fill:#c73d27;fill-rule:nonzero;"/><path d="M133.396,19.575l-4.251,0l-1.46,3.32l-0.809,0l4.209,-9.445l0.465,0l4.123,9.445l-0.823,0l-1.454,-3.32Zm-3.987,-0.592l3.743,0l-1.424,-3.391c-0.119,-0.266 -0.262,-0.634 -0.429,-1.107c-0.129,0.412 -0.27,0.785 -0.422,1.12l-1.468,3.378Z" style="fill:#c73d27;fill-rule:nonzero;"/><path d="M141.346,22.895l-0.737,0l0,-8.789l-3.4,0l0,-0.618l7.536,0l0,0.618l-3.4,0l0,8.789l0.001,0Z" style="fill:#c73d27;fill-rule:nonzero;"/><rect x="147.765" y="13.488" width="0.73" height="9.406" style="fill:#c73d27;fill-rule:nonzero;"/><path d="M161.72,18.179c0,1.493 -0.415,2.673 -1.245,3.542c-0.831,0.868 -1.975,1.303 -3.436,1.303c-1.455,0 -2.598,-0.434 -3.429,-1.303c-0.83,-0.869 -1.245,-2.054 -1.245,-3.555c0,-1.497 0.419,-2.676 1.256,-3.536c0.838,-0.86 1.981,-1.29 3.433,-1.29c1.46,0 2.603,0.432 3.428,1.297c0.825,0.864 1.238,2.045 1.238,3.542Zm-8.56,0c0,1.346 0.335,2.388 1.002,3.123c0.668,0.736 1.627,1.104 2.878,1.104c1.26,0 2.222,-0.364 2.887,-1.094c0.666,-0.729 0.998,-1.773 0.998,-3.133c0,-1.355 -0.332,-2.394 -0.998,-3.117c-0.665,-0.723 -1.623,-1.085 -2.873,-1.085c-1.246,0 -2.206,0.365 -2.881,1.094c-0.675,0.729 -1.013,1.765 -1.013,3.108Z" style="fill:#c73d27;fill-rule:nonzero;"/><path d="M173.199,22.895l-0.738,0l-6.198,-8.352l-0.057,0c0.057,0.995 0.086,1.746 0.086,2.252l0,6.1l-0.702,0l0,-9.407l0.73,0l6.191,8.339l0.043,0c-0.043,-0.772 -0.064,-1.506 -0.064,-2.201l0,-6.138l0.709,0l0,9.407Z" style="fill:#c73d27;fill-rule:nonzero;"/><path d="M183.404,20.469c0,0.785 -0.321,1.407 -0.963,1.866c-0.641,0.459 -1.494,0.688 -2.558,0.688c-1.279,0 -2.26,-0.126 -2.942,-0.379l0,-0.656c0.753,0.287 1.716,0.43 2.885,0.43c0.859,0 1.54,-0.177 2.043,-0.531c0.503,-0.353 0.755,-0.818 0.755,-1.392c0,-0.357 -0.084,-0.651 -0.251,-0.885c-0.167,-0.234 -0.439,-0.448 -0.816,-0.641c-0.376,-0.193 -0.93,-0.401 -1.66,-0.624c-1.069,-0.33 -1.808,-0.687 -2.215,-1.071c-0.408,-0.384 -0.612,-0.895 -0.612,-1.534c0,-0.704 0.306,-1.277 0.92,-1.721c0.613,-0.444 1.401,-0.666 2.365,-0.666c0.983,0 1.907,0.167 2.77,0.502l-0.264,0.566c-0.869,-0.326 -1.699,-0.489 -2.491,-0.489c-0.773,0 -1.389,0.161 -1.847,0.482c-0.458,0.322 -0.687,0.759 -0.687,1.313c0,0.347 0.07,0.632 0.211,0.855c0.141,0.224 0.371,0.424 0.69,0.602c0.32,0.178 0.869,0.391 1.646,0.64c0.816,0.253 1.429,0.499 1.84,0.737c0.41,0.238 0.71,0.508 0.898,0.81c0.189,0.303 0.283,0.669 0.283,1.098Z" style="fill:#c73d27;fill-rule:nonzero;"/></g><g><path d="M193.084,22.895l-0.729,0l0,-9.407l5.732,0l0,0.605l-5.003,0l0,3.99l4.724,0l0,0.611l-4.724,0l0,4.201Z" style="fill:#c73d27;fill-rule:nonzero;"/><path d="M209.974,18.179c0,1.493 -0.415,2.673 -1.245,3.542c-0.83,0.868 -1.975,1.303 -3.436,1.303c-1.455,0 -2.598,-0.434 -3.428,-1.303c-0.831,-0.869 -1.246,-2.054 -1.246,-3.555c0,-1.497 0.419,-2.676 1.257,-3.536c0.837,-0.86 1.981,-1.29 3.432,-1.29c1.46,0 2.603,0.432 3.428,1.297c0.826,0.864 1.238,2.045 1.238,3.542Zm-8.56,0c0,1.346 0.334,2.388 1.002,3.123c0.667,0.736 1.627,1.104 2.877,1.104c1.26,0 2.222,-0.364 2.888,-1.094c0.665,-0.729 0.998,-1.773 0.998,-3.133c0,-1.355 -0.333,-2.394 -0.998,-3.117c-0.666,-0.723 -1.624,-1.085 -2.874,-1.085c-1.245,0 -2.206,0.365 -2.881,1.094c-0.675,0.729 -1.012,1.765 -1.012,3.108Z" style="fill:#c73d27;fill-rule:nonzero;"/><path d="M214.575,18.796l0,4.099l-0.73,0l0,-9.407l2.49,0c1.298,0 2.257,0.216 2.877,0.647c0.621,0.431 0.931,1.08 0.931,1.946c0,0.631 -0.184,1.162 -0.555,1.596c-0.37,0.433 -0.931,0.744 -1.685,0.933l2.841,4.285l-0.873,0l-2.698,-4.099l-2.598,0l0,0Zm0,-0.566l1.997,0c0.882,0 1.567,-0.177 2.054,-0.531c0.487,-0.354 0.73,-0.876 0.73,-1.567c0,-0.716 -0.238,-1.237 -0.716,-1.563c-0.478,-0.326 -1.255,-0.489 -2.334,-0.489l-1.731,0l0,4.15Z" style="fill:#c73d27;fill-rule:nonzero;"/></g><g><path d="M49.711,42.19c-0.928,0 -1.765,0.302 -2.513,0.904c-0.747,0.602 -1.333,1.432 -1.758,2.489c-0.425,1.058 -0.638,2.205 -0.638,3.44c0,1.035 0.241,1.807 0.721,2.317c0.481,0.51 1.173,0.764 2.075,0.764c0.713,0 1.434,-0.079 2.164,-0.237c0.73,-0.158 1.589,-0.426 2.577,-0.805l0,3.741c-1.744,0.695 -3.633,1.042 -5.669,1.042c-2.233,0 -3.953,-0.573 -5.159,-1.72c-1.207,-1.146 -1.81,-2.769 -1.81,-4.87c0,-2.053 0.436,-3.938 1.307,-5.651c0.872,-1.714 2.057,-3.007 3.556,-3.88c1.499,-0.873 3.215,-1.309 5.147,-1.309c2.275,0 4.341,0.506 6.196,1.518l-1.907,3.532c-0.799,-0.425 -1.533,-0.744 -2.203,-0.956c-0.67,-0.212 -1.365,-0.319 -2.086,-0.319Z" style="fill:#c73d27;fill-rule:nonzero;"/><path d="M66.536,38.415c2.233,0 3.97,0.573 5.211,1.719c1.241,1.147 1.861,2.747 1.861,4.801c0,2.053 -0.427,3.931 -1.282,5.634c-0.854,1.702 -2.033,3.007 -3.536,3.914c-1.503,0.907 -3.247,1.361 -5.231,1.361c-2.31,0 -4.094,-0.576 -5.353,-1.726c-1.258,-1.15 -1.887,-2.749 -1.887,-4.794c0,-2.046 0.443,-3.926 1.327,-5.641c0.885,-1.714 2.09,-3.02 3.614,-3.92c1.525,-0.899 3.283,-1.348 5.276,-1.348Zm1.984,6.566c0,-0.88 -0.206,-1.569 -0.619,-2.067c-0.412,-0.498 -1.009,-0.747 -1.79,-0.747c-0.85,0 -1.632,0.324 -2.345,0.973c-0.712,0.649 -1.282,1.54 -1.707,2.675c-0.425,1.136 -0.637,2.297 -0.637,3.486c0,1.869 0.859,2.803 2.576,2.803c0.816,0 1.574,-0.32 2.275,-0.961c0.7,-0.641 1.249,-1.506 1.649,-2.595c0.399,-1.089 0.598,-2.277 0.598,-3.567Z" style="fill:#c73d27;fill-rule:nonzero;"/><path d="M91.413,55.613l-5.861,0l-3.723,-11.905l-0.104,0c-0.249,2.246 -0.494,3.86 -0.734,4.841l-1.662,7.065l-4.484,0l3.982,-16.932l5.861,0l3.685,11.384l0.115,0c0.25,-1.822 0.494,-3.254 0.735,-4.296l1.688,-7.088l4.483,0l-3.981,16.931Z" style="fill:#c73d27;fill-rule:nonzero;"/><path d="M107.852,50.413c0,1.714 -0.631,3.048 -1.894,4.001c-1.263,0.953 -3.023,1.43 -5.282,1.43c-0.945,0 -1.838,-0.095 -2.68,-0.284c-0.841,-0.189 -1.567,-0.465 -2.177,-0.828l0,-4.053c0.721,0.409 1.548,0.753 2.48,1.03c0.932,0.278 1.776,0.417 2.531,0.417c0.636,0 1.117,-0.119 1.444,-0.359c0.326,-0.239 0.489,-0.579 0.489,-1.019c0,-0.208 -0.051,-0.403 -0.155,-0.585c-0.103,-0.182 -0.249,-0.363 -0.438,-0.544c-0.189,-0.181 -0.695,-0.581 -1.52,-1.199c-1.005,-0.726 -1.735,-1.467 -2.19,-2.223c-0.455,-0.757 -0.683,-1.587 -0.683,-2.49c0,-1.011 0.282,-1.92 0.844,-2.728c0.562,-0.807 1.357,-1.432 2.383,-1.876c1.026,-0.444 2.175,-0.666 3.446,-0.666c2.053,0 3.899,0.413 5.54,1.239l-1.739,3.44c-1.469,-0.679 -2.718,-1.019 -3.749,-1.019c-0.549,0 -0.972,0.108 -1.268,0.324c-0.296,0.216 -0.444,0.533 -0.444,0.949c0,0.379 0.143,0.732 0.431,1.06c0.288,0.328 0.836,0.766 1.643,1.314c1.013,0.672 1.764,1.379 2.254,2.12c0.49,0.741 0.734,1.592 0.734,2.549Z" style="fill:#c73d27;fill-rule:nonzero;"/><path d="M128.4,38.681l-2.564,10.794c-0.507,2.17 -1.474,3.774 -2.899,4.812c-1.426,1.039 -3.363,1.558 -5.81,1.558c-1.151,0 -2.167,-0.212 -3.047,-0.637c-0.88,-0.425 -1.559,-1.019 -2.035,-1.784c-0.477,-0.764 -0.716,-1.617 -0.716,-2.559c0,-0.494 0.052,-0.992 0.155,-1.494l2.564,-10.69l5.037,0l-2.513,10.574c-0.12,0.525 -0.18,0.969 -0.18,1.331c0,0.98 0.52,1.471 1.559,1.471c0.808,0 1.442,-0.249 1.901,-0.748c0.46,-0.498 0.809,-1.26 1.05,-2.287l2.46,-10.342l5.038,0l0,0.001Z" style="fill:#c73d27;fill-rule:nonzero;"/><path d="M135.795,55.613l0,-12.148l-0.103,0c-0.575,3.219 -0.944,5.196 -1.108,5.929l-1.455,6.219l-4.483,0l3.981,-16.932l6.673,0l0,12.022l0.103,0l6.158,-12.022l6.776,0l-4.032,16.932l-4.522,0l1.507,-6.358c0.43,-1.76 0.894,-3.444 1.392,-5.049l0.193,-0.741l-0.103,0l-6.21,12.148l-4.767,0Z" style="fill:#c73d27;fill-rule:nonzero;"/><path d="M163.816,55.613l-11.183,0l3.982,-16.932l11.182,0l-0.838,3.671l-6.145,0l-0.605,2.664l5.72,0l-0.928,3.671l-5.72,0l-0.735,3.197l6.146,0l-0.876,3.729Z" style="fill:#c73d27;fill-rule:nonzero;"/><path d="M173.955,49.452l-1.456,6.161l-5.037,0l3.981,-16.932l4.986,0c2.165,0 3.822,0.386 4.973,1.159c1.151,0.772 1.726,1.934 1.726,3.486c0,1.204 -0.305,2.254 -0.915,3.15c-0.609,0.895 -1.515,1.578 -2.718,2.049l2.886,5.976l0.515,1.112l-5.488,0l-2.512,-6.161l-0.941,0l0,0Zm0.811,-3.44l0.657,0c0.816,0 1.464,-0.21 1.945,-0.631c0.481,-0.421 0.721,-1.009 0.721,-1.766c0,-0.479 -0.148,-0.843 -0.444,-1.095c-0.296,-0.251 -0.728,-0.376 -1.295,-0.376l-0.683,0l-0.901,3.868Z" style="fill:#c73d27;fill-rule:nonzero;"/><path d="M196.771,50.413c0,1.714 -0.631,3.048 -1.894,4.001c-1.263,0.953 -3.023,1.43 -5.282,1.43c-0.945,0 -1.838,-0.095 -2.679,-0.284c-0.842,-0.189 -1.568,-0.465 -2.178,-0.828l0,-4.053c0.721,0.409 1.548,0.753 2.48,1.03c0.933,0.278 1.776,0.417 2.532,0.417c0.635,0 1.116,-0.119 1.443,-0.359c0.327,-0.239 0.489,-0.579 0.489,-1.019c0,-0.208 -0.051,-0.403 -0.154,-0.585c-0.104,-0.182 -0.249,-0.363 -0.438,-0.544c-0.19,-0.181 -0.696,-0.581 -1.521,-1.199c-1.004,-0.726 -1.734,-1.467 -2.189,-2.223c-0.456,-0.757 -0.683,-1.587 -0.683,-2.49c0,-1.011 0.281,-1.92 0.843,-2.728c0.562,-0.807 1.357,-1.432 2.383,-1.876c1.027,-0.444 2.176,-0.666 3.447,-0.666c2.052,0 3.899,0.413 5.54,1.239l-1.74,3.44c-1.468,-0.679 -2.718,-1.019 -3.748,-1.019c-0.55,0 -0.973,0.108 -1.269,0.324c-0.296,0.216 -0.444,0.533 -0.444,0.949c0,0.379 0.143,0.732 0.432,1.06c0.288,0.328 0.835,0.766 1.642,1.314c1.014,0.672 1.765,1.379 2.254,2.12c0.49,0.741 0.734,1.592 0.734,2.549Z" style="fill:#c73d27;fill-rule:nonzero;"/></g><path d="M236.49,68.611l-235.98,0l0,-68.362l235.98,0l0,68.362Zm-233.063,-65.445l0,62.529l230.146,0l0,-62.529l-230.146,0Z" style="fill:#c73d27;"/></g></svg>